<svg version="1.1" viewBox="0.0 0.0 600.0 371.0" fill="none" stroke="none" stroke-linecap="square" stroke-miterlimit="10" width="600" height="371" xmlns:xlink="http://www.w3.org/1999/xlink" xmlns="http://www.w3.org/2000/svg"><path fill="#ffffff" d="M0 0L600.0 0L600.0 371.0L0 371.0L0 0Z" fill-rule="nonzero"/><path stroke="#cccccc" stroke-width="1.0" stroke-linecap="butt" d="M98.5 332.5L581.5 332.5" fill-rule="nonzero"/><path stroke="#cccccc" stroke-width="1.0" stroke-linecap="butt" d="M98.5 254.5L581.5 254.5" fill-rule="nonzero"/><path stroke="#cccccc" stroke-width="1.0" stroke-linecap="butt" d="M98.5 175.5L581.5 175.5" fill-rule="nonzero"/><path stroke="#cccccc" stroke-width="1.0" stroke-linecap="butt" d="M98.5 97.5L581.5 97.5" fill-rule="nonzero"/><clipPath id="id_0"><path d="M98.55 51.916668L581.45 51.916668L581.45 332.45L98.55 332.45L98.55 51.916668Z" clip-rule="nonzero"/></clipPath><path stroke="#000000" stroke-width="0.0" stroke-linecap="butt" stroke-opacity="0.0" clip-path="url(#id_0)" d="M236.0 332.0L170.0 332.0L170.0 254.0C170.0 252.89543 170.89543 252.0 172.0 252.0L234.0 252.0C235.10457 252.0 236.0 252.89543 236.0 254.0Z" fill-rule="nonzero"/><path fill="#4285f4" clip-path="url(#id_0)" d="M236.0 332.0L170.0 332.0L170.0 254.0C170.0 252.89543 170.89543 252.0 172.0 252.0L234.0 252.0C235.10457 252.0 236.0 252.89543 236.0 254.0Z" fill-rule="nonzero"/><path stroke="#000000" stroke-width="0.0" stroke-linecap="butt" stroke-opacity="0.0" clip-path="url(#id_0)" d="M442.0 332.0L376.0 332.0L376.0 271.0C376.0 269.89542 376.89542 269.0 378.0 269.0L440.0 269.0C441.10458 269.0 442.0 269.89542 442.0 271.0Z" fill-rule="nonzero"/><path fill="#4285f4" clip-path="url(#id_0)" d="M442.0 332.0L376.0 332.0L376.0 271.0C376.0 269.89542 376.89542 269.0 378.0 269.0L440.0 269.0C441.10458 269.0 442.0 269.89542 442.0 271.0Z" fill-rule="nonzero"/><path stroke="#000000" stroke-width="0.0" stroke-linecap="butt" stroke-opacity="0.0" clip-path="url(#id_0)" d="M303.0 332.0L237.0 332.0L237.0 54.0C237.0 52.89543 237.89543 52.0 239.0 52.0L301.0 52.0C302.10458 52.0 303.0 52.89543 303.0 54.0Z" fill-rule="nonzero"/><path fill="#ea4335" clip-path="url(#id_0)" d="M303.0 332.0L237.0 332.0L237.0 54.0C237.0 52.89543 237.89543 52.0 239.0 52.0L301.0 52.0C302.10458 52.0 303.0 52.89543 303.0 54.0Z" fill-rule="nonzero"/><path stroke="#000000" stroke-width="0.0" stroke-linecap="butt" stroke-opacity="0.0" clip-path="url(#id_0)" d="M509.0 332.0L443.0 332.0L443.0 314.0C443.0 312.89542 443.89542 312.0 445.0 312.0L507.0 312.0C508.10458 312.0 509.0 312.89542 509.0 314.0Z" fill-rule="nonzero"/><path fill="#ea4335" clip-path="url(#id_0)" d="M509.0 332.0L443.0 332.0L443.0 314.0C443.0 312.89542 443.89542 312.0 445.0 312.0L507.0 312.0C508.10458 312.0 509.0 312.89542 509.0 314.0Z" fill-rule="nonzero"/><path fill="#000000" d="M29.550013 249.57396L21.971888 249.57396L21.971888 252.40208L20.956263 252.40208L20.956263 245.58958L21.971888 245.58958L21.971888 248.43333L29.550013 248.43333L29.550013 249.57396ZM22.175013 244.88646L20.956263 244.88646L20.956263 243.82396L22.175013 243.82396L22.175013 244.88646ZM29.550013 244.88646L23.331263 244.88646L23.331263 243.82396L29.550013 243.82396L29.550013 244.88646ZM29.550013 241.88646L23.331263 241.88646L23.331263 240.94896L24.206263 240.94896Q23.737513 240.65208 23.471888 240.16771Q23.190638 239.68333 23.190638 239.05833Q23.190638 238.37083 23.471888 237.93333Q23.753138 237.48021 24.268763 237.30833Q23.190638 236.55833 23.190638 235.38646Q23.190638 234.44896 23.706263 233.96458Q24.206263 233.46458 25.284388 233.46458L29.550013 233.46458L29.550013 234.51146L25.628138 234.51146Q25.003138 234.51146 24.721888 234.62083Q24.440638 234.71458 24.268763 234.98021Q24.096888 235.24583 24.096888 235.62083Q24.096888 236.27708 24.534388 236.71458Q24.971888 237.13646 25.940638 237.13646L29.550013 237.13646L29.550013 238.19896L25.503138 238.19896Q24.800013 238.19896 24.456263 238.46458Q24.096888 238.71458 24.096888 239.29271Q24.096888 239.74583 24.331263 240.12083Q24.565638 240.49583 25.018763 240.66771Q25.471888 240.83958 26.315638 240.83958L29.550013 240.83958L29.550013 241.88646ZM27.550013 227.63646L27.675013 226.54271Q28.628138 226.79271 29.159388 227.49583Q29.690638 228.19896 29.690638 229.27708Q29.690638 230.63646 28.846888 231.44896Q28.003138 232.24583 26.487513 232.24583Q24.925013 232.24583 24.065638 231.43333Q23.190638 230.62083 23.190638 229.33958Q23.190638 228.08958 24.034388 227.30833Q24.878138 226.51146 26.425013 226.51146Q26.518763 226.51146 26.706263 226.51146L26.706263 231.15208Q27.737513 231.08958 28.284388 230.57396Q28.815638 230.05833 28.815638 229.27708Q28.815638 228.69896 28.518763 228.29271Q28.206263 227.87083 27.550013 227.63646ZM25.846888 231.08958L25.846888 227.62083Q25.050013 227.68333 24.659388 228.01146Q24.050013 228.52708 24.050013 229.32396Q24.050013 230.05833 24.534388 230.55833Q25.018763 231.04271 25.846888 231.08958ZM32.08126 219.87083Q30.971888 220.74583 29.503138 221.35521Q28.018763 221.94896 26.440638 221.94896Q25.050013 221.94896 23.768763 221.51146Q22.284388 220.98021 20.815638 219.87083L20.815638 219.12083Q22.034388 219.82396 22.550013 220.05833Q23.362513 220.41771 24.237513 220.62083Q25.331263 220.87083 26.440638 220.87083Q29.268763 220.87083 32.08126 219.12083L32.08126 219.87083ZM29.550013 217.88646L23.331263 217.88646L23.331263 216.94896L24.206263 216.94896Q23.737513 216.65208 23.471888 216.16771Q23.190638 215.68333 23.190638 215.05833Q23.190638 214.37083 23.471888 213.93333Q23.753138 213.48021 24.268763 213.30833Q23.190638 212.55833 23.190638 211.38646Q23.190638 210.44896 23.706263 209.96458Q24.206263 209.46458 25.284388 209.46458L29.550013 209.46458L29.550013 210.51146L25.628138 210.51146Q25.003138 210.51146 24.721888 210.62083Q24.440638 210.71458 24.268763 210.98021Q24.096888 211.24583 24.096888 211.62083Q24.096888 212.27708 24.534388 212.71458Q24.971888 213.13646 25.940638 213.13646L29.550013 213.13646L29.550013 214.19896L25.503138 214.19896Q24.800013 214.19896 24.456263 214.46458Q24.096888 214.71458 24.096888 215.29271Q24.096888 215.74583 24.331263 216.12083Q24.565638 216.49583 25.018763 216.66771Q25.471888 216.83958 26.315638 216.83958L29.550013 216.83958L29.550013 217.88646ZM22.175013 207.88646L20.956263 207.88646L20.956263 206.82396L22.175013 206.82396L22.175013 207.88646ZM29.550013 207.88646L23.331263 207.88646L23.331263 206.82396L29.550013 206.82396L29.550013 207.88646ZM27.268763 200.82396L27.409388 199.79271Q28.471888 199.96458 29.081263 200.66771Q29.690638 201.37083 29.690638 202.38646Q29.690638 203.66771 28.862513 204.44896Q28.018763 205.21458 26.456263 205.21458Q25.456263 205.21458 24.706263 204.88646Q23.940638 204.54271 23.565638 203.87083Q23.190638 203.18333 23.190638 202.37083Q23.190638 201.37083 23.706263 200.73021Q24.206263 200.07396 25.159388 199.88646L25.315638 200.91771Q24.690638 201.05833 24.378138 201.43333Q24.050013 201.80833 24.050013 202.33958Q24.050013 203.13646 24.628138 203.63646Q25.190638 204.13646 26.425013 204.13646Q27.690638 204.13646 28.253138 203.65208Q28.815638 203.16771 28.815638 202.40208Q28.815638 201.77708 28.440638 201.37083Q28.065638 200.94896 27.268763 200.82396ZM29.550013 198.90208L23.331263 198.90208L23.331263 197.94896L24.268763 197.94896Q23.612513 197.58958 23.409388 197.29271Q23.190638 196.98021 23.190638 196.60521Q23.190638 196.07396 23.518763 195.52708L24.503138 195.88646Q24.268763 196.27708 24.268763 196.65208Q24.268763 197.01146 24.487513 197.29271Q24.690638 197.55833 25.065638 197.66771Q25.628138 197.85521 26.284388 197.85521L29.550013 197.85521L29.550013 198.90208ZM26.440638 195.27708Q24.706263 195.27708 23.878138 194.32396Q23.190638 193.52708 23.190638 192.37083Q23.190638 191.08958 24.034388 190.27708Q24.862513 189.44896 26.346888 189.44896Q27.550013 189.44896 28.237513 189.80833Q28.925013 190.16771 29.315638 190.87083Q29.690638 191.55833 29.690638 192.37083Q29.690638 193.66771 28.862513 194.48021Q28.018763 195.27708 26.440638 195.27708ZM26.440638 194.19896Q27.628138 194.19896 28.221888 193.68333Q28.815638 193.15208 28.815638 192.37083Q28.815638 191.57396 28.221888 191.05833Q27.628138 190.54271 26.409388 190.54271Q25.253138 190.54271 24.659388 191.07396Q24.065638 191.58958 24.065638 192.37083Q24.065638 193.15208 24.659388 193.68333Q25.237513 194.19896 26.440638 194.19896ZM27.690638 188.30833L27.534388 187.27708Q28.159388 187.18333 28.487513 186.79271Q28.815638 186.38646 28.815638 185.65208Q28.815638 184.93333 28.534388 184.58958Q28.237513 184.23021 27.831263 184.23021Q27.471888 184.23021 27.268763 184.54271Q27.128138 184.76146 26.909388 185.62083Q26.612513 186.77708 26.409388 187.23021Q26.190638 187.66771 25.815638 187.90208Q25.440638 188.13646 24.971888 188.13646Q24.565638 188.13646 24.206263 187.94896Q23.846888 187.76146 23.612513 187.43333Q23.440638 187.18333 23.315638 186.76146Q23.190638 186.33958 23.190638 185.83958Q23.190638 185.12083 23.409388 184.57396Q23.612513 184.01146 23.971888 183.74583Q24.331263 183.48021 24.925013 183.38646L25.065638 184.41771Q24.596888 184.48021 24.331263 184.82396Q24.050013 185.15208 24.050013 185.77708Q24.050013 186.49583 24.300013 186.80833Q24.534388 187.12083 24.862513 187.12083Q25.065638 187.12083 25.221888 186.99583Q25.393763 186.85521 25.503138 186.58958Q25.565638 186.43333 25.768763 185.65208Q26.081263 184.52708 26.268763 184.08958Q26.456263 183.65208 26.815638 183.40208Q27.175013 183.15208 27.721888 183.15208Q28.253138 183.15208 28.721888 183.46458Q29.175013 183.76146 29.440638 184.33958Q29.690638 184.91771 29.690638 185.65208Q29.690638 186.87083 29.190638 187.51146Q28.675013 188.13646 27.690638 188.30833ZM27.550013 177.63646L27.675013 176.54271Q28.628138 176.79271 29.159388 177.49583Q29.690638 178.19896 29.690638 179.27708Q29.690638 180.63646 28.846888 181.44896Q28.003138 182.24583 26.487513 182.24583Q24.925013 182.24583 24.065638 181.43333Q23.190638 180.62083 23.190638 179.33958Q23.190638 178.08958 24.034388 177.30833Q24.878138 176.51146 26.425013 176.51146Q26.518763 176.51146 26.706263 176.51146L26.706263 181.15208Q27.737513 181.08958 28.284388 180.57396Q28.815638 180.05833 28.815638 179.27708Q28.815638 178.69896 28.518763 178.29271Q28.206263 177.87083 27.550013 177.63646ZM25.846888 181.08958L25.846888 177.62083Q25.050013 177.68333 24.659388 178.01146Q24.050013 178.52708 24.050013 179.32396Q24.050013 180.05833 24.534388 180.55833Q25.018763 181.04271 25.846888 181.08958ZM27.268763 170.82396L27.409388 169.79271Q28.471888 169.96458 29.081263 170.66771Q29.690638 171.37083 29.690638 172.38646Q29.690638 173.66771 28.862513 174.44896Q28.018763 175.21458 26.456263 175.21458Q25.456263 175.21458 24.706263 174.88646Q23.940638 174.54271 23.565638 173.87083Q23.190638 173.18333 23.190638 172.37083Q23.190638 171.37083 23.706263 170.73021Q24.206263 170.07396 25.159388 169.88646L25.315638 170.91771Q24.690638 171.05833 24.378138 171.43333Q24.050013 171.80833 24.050013 172.33958Q24.050013 173.13646 24.628138 173.63646Q25.190638 174.13646 26.425013 174.13646Q27.690638 174.13646 28.253138 173.65208Q28.815638 173.16771 28.815638 172.40208Q28.815638 171.77708 28.440638 171.37083Q28.065638 170.94896 27.268763 170.82396ZM26.440638 169.27708Q24.706263 169.27708 23.878138 168.32396Q23.190638 167.52708 23.190638 166.37083Q23.190638 165.08958 24.034388 164.27708Q24.862513 163.44896 26.346888 163.44896Q27.550013 163.44896 28.237513 163.80833Q28.925013 164.16771 29.315638 164.87083Q29.690638 165.55833 29.690638 166.37083Q29.690638 167.66771 28.862513 168.48021Q28.018763 169.27708 26.440638 169.27708ZM26.440638 168.19896Q27.628138 168.19896 28.221888 167.68333Q28.815638 167.15208 28.815638 166.37083Q28.815638 165.57396 28.221888 165.05833Q27.628138 164.54271 26.409388 164.54271Q25.253138 164.54271 24.659388 165.07396Q24.065638 165.58958 24.065638 166.37083Q24.065638 167.15208 24.659388 167.68333Q25.237513 168.19896 26.440638 168.19896ZM29.550013 161.88646L23.331263 161.88646L23.331263 160.94896L24.206263 160.94896Q23.190638 160.26146 23.190638 158.96458Q23.190638 158.40208 23.393763 157.93333Q23.596888 157.44896 23.925013 157.21458Q24.253138 156.98021 24.690638 156.88646Q24.987513 156.83958 25.721888 156.83958L29.550013 156.83958L29.550013 157.88646L25.768763 157.88646Q25.112513 157.88646 24.800013 158.01146Q24.487513 158.13646 24.300013 158.44896Q24.096888 158.76146 24.096888 159.18333Q24.096888 159.85521 24.534388 160.35521Q24.956263 160.83958 26.143763 160.83958L29.550013 160.83958L29.550013 161.88646ZM29.550013 150.85521L28.768763 150.85521Q29.690638 151.44896 29.690638 152.58958Q29.690638 153.33958 29.284388 153.96458Q28.862513 154.58958 28.128138 154.93333Q27.393763 155.27708 26.440638 155.27708Q25.518763 155.27708 24.753138 154.96458Q23.987513 154.65208 23.596888 154.02708Q23.190638 153.40208 23.190638 152.63646Q23.190638 152.07396 23.425013 151.63646Q23.659388 151.19896 24.034388 150.91771L20.956263 150.91771L20.956263 149.87083L29.550013 149.87083L29.550013 150.85521ZM26.440638 154.18333Q27.643763 154.18333 28.237513 153.68333Q28.815638 153.18333 28.815638 152.49583Q28.815638 151.80833 28.253138 151.32396Q27.690638 150.83958 26.534388 150.83958Q25.253138 150.83958 24.659388 151.33958Q24.065638 151.82396 24.065638 152.54271Q24.065638 153.24583 24.643763 153.71458Q25.206263 154.18333 26.440638 154.18333ZM32.08126 147.19896L32.08126 147.94896Q29.268763 146.19896 26.440638 146.19896Q25.346888 146.19896 24.253138 146.44896Q23.378138 146.65208 22.565638 147.01146Q22.050013 147.24583 20.815638 147.94896L20.815638 147.19896Q22.284388 146.10521 23.768763 145.57396Q25.050013 145.12083 26.440638 145.12083Q28.018763 145.12083 29.503138 145.73021Q30.971888 146.33958 32.08126 147.19896Z" fill-rule="nonzero"/><path fill="#000000" d="M76.01875 336.45L74.97188 336.45L74.97188 329.73126Q74.58125 330.09064 73.95625 330.46564Q73.34688 330.825 72.8625 330.9969L72.8625 329.98126Q73.7375 329.5594 74.39375 328.98126Q75.06563 328.3875 75.34688 327.825L76.01875 327.825L76.01875 336.45ZM79.05 332.21564Q79.05 330.6844 79.3625 329.7625Q79.675 328.825 80.28438 328.325Q80.90938 327.825 81.84688 327.825Q82.53438 327.825 83.05 328.10626Q83.58125 328.3875 83.925 328.91876Q84.26875 329.4344 84.45625 330.1844Q84.64375 330.9344 84.64375 332.21564Q84.64375 333.73126 84.33125 334.65314Q84.03438 335.575 83.40938 336.09064Q82.8 336.59064 81.84688 336.59064Q80.6125 336.59064 79.89375 335.7Q79.05 334.6375 79.05 332.21564ZM80.12813 332.21564Q80.12813 334.325 80.62813 335.02814Q81.12813 335.73126 81.84688 335.73126Q82.58125 335.73126 83.06563 335.02814Q83.56563 334.325 83.56563 332.21564Q83.56563 330.09064 83.06563 329.40314Q82.58125 328.7 81.83125 328.7Q81.1125 328.7 80.675 329.3094Q80.12813 330.09064 80.12813 332.21564ZM86.05 332.21564Q86.05 330.6844 86.3625 329.7625Q86.675 328.825 87.28438 328.325Q87.90938 327.825 88.84688 327.825Q89.53438 327.825 90.05 328.10626Q90.58125 328.3875 90.925 328.91876Q91.26875 329.4344 91.45625 330.1844Q91.64375 330.9344 91.64375 332.21564Q91.64375 333.73126 91.33125 334.65314Q91.03438 335.575 90.40938 336.09064Q89.8 336.59064 88.84688 336.59064Q87.6125 336.59064 86.89375 335.7Q86.05 334.6375 86.05 332.21564ZM87.12813 332.21564Q87.12813 334.325 87.62813 335.02814Q88.12813 335.73126 88.84688 335.73126Q89.58125 335.73126 90.06563 335.02814Q90.56563 334.325 90.56563 332.21564Q90.56563 330.09064 90.06563 329.40314Q89.58125 328.7 88.83125 328.7Q88.1125 328.7 87.675 329.3094Q87.12813 330.09064 87.12813 332.21564Z" fill-rule="nonzero"/><path fill="#000000" d="M69.01875 258.02417L67.97188 258.02417L67.97188 251.30542Q67.58125 251.6648 66.95625 252.0398Q66.34688 252.39917 65.8625 252.57104L65.8625 251.55542Q66.7375 251.13354 67.39375 250.55542Q68.06563 249.96167 68.34688 249.39917L69.01875 249.39917L69.01875 258.02417ZM72.05 253.7898Q72.05 252.25854 72.3625 251.33667Q72.675 250.39917 73.28438 249.89917Q73.90938 249.39917 74.84688 249.39917Q75.53438 249.39917 76.05 249.68042Q76.58125 249.96167 76.925 250.49292Q77.26875 251.00854 77.45625 251.75854Q77.64375 252.50854 77.64375 253.7898Q77.64375 255.30542 77.33125 256.2273Q77.03438 257.14917 76.40938 257.6648Q75.8 258.1648 74.84688 258.1648Q73.6125 258.1648 72.89375 257.27417Q72.05 256.21167 72.05 253.7898ZM73.12813 253.7898Q73.12813 255.89917 73.62813 256.6023Q74.12813 257.30542 74.84688 257.30542Q75.58125 257.30542 76.06563 256.6023Q76.56563 255.89917 76.56563 253.7898Q76.56563 251.6648 76.06563 250.9773Q75.58125 250.27417 74.83125 250.27417Q74.1125 250.27417 73.675 250.88354Q73.12813 251.6648 73.12813 253.7898ZM79.05 253.7898Q79.05 252.25854 79.3625 251.33667Q79.675 250.39917 80.28438 249.89917Q80.90938 249.39917 81.84688 249.39917Q82.53438 249.39917 83.05 249.68042Q83.58125 249.96167 83.925 250.49292Q84.26875 251.00854 84.45625 251.75854Q84.64375 252.50854 84.64375 253.7898Q84.64375 255.30542 84.33125 256.2273Q84.03438 257.14917 83.40938 257.6648Q82.8 258.1648 81.84688 258.1648Q80.6125 258.1648 79.89375 257.27417Q79.05 256.21167 79.05 253.7898ZM80.12813 253.7898Q80.12813 255.89917 80.62813 256.6023Q81.12813 257.30542 81.84688 257.30542Q82.58125 257.30542 83.06563 256.6023Q83.56563 255.89917 83.56563 253.7898Q83.56563 251.6648 83.06563 250.9773Q82.58125 250.27417 81.83125 250.27417Q81.1125 250.27417 80.675 250.88354Q80.12813 251.6648 80.12813 253.7898ZM86.05 253.7898Q86.05 252.25854 86.3625 251.33667Q86.675 250.39917 87.28438 249.89917Q87.90938 249.39917 88.84688 249.39917Q89.53438 249.39917 90.05 249.68042Q90.58125 249.96167 90.925 250.49292Q91.26875 251.00854 91.45625 251.75854Q91.64375 252.50854 91.64375 253.7898Q91.64375 255.30542 91.33125 256.2273Q91.03438 257.14917 90.40938 257.6648Q89.8 258.1648 88.84688 258.1648Q87.6125 258.1648 86.89375 257.27417Q86.05 256.21167 86.05 253.7898ZM87.12813 253.7898Q87.12813 255.89917 87.62813 256.6023Q88.12813 257.30542 88.84688 257.30542Q89.58125 257.30542 90.06563 256.6023Q90.56563 255.89917 90.56563 253.7898Q90.56563 251.6648 90.06563 250.9773Q89.58125 250.27417 88.83125 250.27417Q88.1125 250.27417 87.675 250.88354Q87.12813 251.6648 87.12813 253.7898Z" fill-rule="nonzero"/><path fill="#000000" d="M62.01875 179.59834L60.971874 179.59834L60.971874 172.8796Q60.58125 173.23897 59.95625 173.61397Q59.346874 173.97334 58.8625 174.14522L58.8625 173.1296Q59.7375 172.70772 60.39375 172.1296Q61.065624 171.53584 61.346874 170.97334L62.01875 170.97334L62.01875 179.59834ZM65.05 175.36397Q65.05 173.83272 65.3625 172.91084Q65.675 171.97334 66.28438 171.47334Q66.90938 170.97334 67.84688 170.97334Q68.53438 170.97334 69.05 171.2546Q69.58125 171.53584 69.925 172.0671Q70.26875 172.58272 70.45625 173.33272Q70.64375 174.08272 70.64375 175.36397Q70.64375 176.8796 70.33125 177.80147Q70.03438 178.72334 69.40938 179.23897Q68.8 179.73897 67.84688 179.73897Q66.6125 179.73897 65.89375 178.84834Q65.05 177.78584 65.05 175.36397ZM66.12813 175.36397Q66.12813 177.47334 66.62813 178.17647Q67.12813 178.8796 67.84688 178.8796Q68.58125 178.8796 69.06563 178.17647Q69.56563 177.47334 69.56563 175.36397Q69.56563 173.23897 69.06563 172.55147Q68.58125 171.84834 67.83125 171.84834Q67.1125 171.84834 66.675 172.45772Q66.12813 173.23897 66.12813 175.36397ZM72.05 175.36397Q72.05 173.83272 72.3625 172.91084Q72.675 171.97334 73.28438 171.47334Q73.90938 170.97334 74.84688 170.97334Q75.53438 170.97334 76.05 171.2546Q76.58125 171.53584 76.925 172.0671Q77.26875 172.58272 77.45625 173.33272Q77.64375 174.08272 77.64375 175.36397Q77.64375 176.8796 77.33125 177.80147Q77.03438 178.72334 76.40938 179.23897Q75.8 179.73897 74.84688 179.73897Q73.6125 179.73897 72.89375 178.84834Q72.05 177.78584 72.05 175.36397ZM73.12813 175.36397Q73.12813 177.47334 73.62813 178.17647Q74.12813 178.8796 74.84688 178.8796Q75.58125 178.8796 76.06563 178.17647Q76.56563 177.47334 76.56563 175.36397Q76.56563 173.23897 76.06563 172.55147Q75.58125 171.84834 74.83125 171.84834Q74.1125 171.84834 73.675 172.45772Q73.12813 173.23897 73.12813 175.36397ZM79.05 175.36397Q79.05 173.83272 79.3625 172.91084Q79.675 171.97334 80.28438 171.47334Q80.90938 170.97334 81.84688 170.97334Q82.53438 170.97334 83.05 171.2546Q83.58125 171.53584 83.925 172.0671Q84.26875 172.58272 84.45625 173.33272Q84.64375 174.08272 84.64375 175.36397Q84.64375 176.8796 84.33125 177.80147Q84.03438 178.72334 83.40938 179.23897Q82.8 179.73897 81.84688 179.73897Q80.6125 179.73897 79.89375 178.84834Q79.05 177.78584 79.05 175.36397ZM80.12813 175.36397Q80.12813 177.47334 80.62813 178.17647Q81.12813 178.8796 81.84688 178.8796Q82.58125 178.8796 83.06563 178.17647Q83.56563 177.47334 83.56563 175.36397Q83.56563 173.23897 83.06563 172.55147Q82.58125 171.84834 81.83125 171.84834Q81.1125 171.84834 80.675 172.45772Q80.12813 173.23897 80.12813 175.36397ZM86.05 175.36397Q86.05 173.83272 86.3625 172.91084Q86.675 171.97334 87.28438 171.47334Q87.90938 170.97334 88.84688 170.97334Q89.53438 170.97334 90.05 171.2546Q90.58125 171.53584 90.925 172.0671Q91.26875 172.58272 91.45625 173.33272Q91.64375 174.08272 91.64375 175.36397Q91.64375 176.8796 91.33125 177.80147Q91.03438 178.72334 90.40938 179.23897Q89.8 179.73897 88.84688 179.73897Q87.6125 179.73897 86.89375 178.84834Q86.05 177.78584 86.05 175.36397ZM87.12813 175.36397Q87.12813 177.47334 87.62813 178.17647Q88.12813 178.8796 88.84688 178.8796Q89.58125 178.8796 90.06563 178.17647Q90.56563 177.47334 90.56563 175.36397Q90.56563 173.23897 90.06563 172.55147Q89.58125 171.84834 88.83125 171.84834Q88.1125 171.84834 87.675 172.45772Q87.12813 173.23897 87.12813 175.36397Z" fill-rule="nonzero"/><path fill="#000000" d="M55.01875 101.1725L53.971874 101.1725L53.971874 94.45375Q53.58125 94.813126 52.95625 95.188126Q52.346874 95.5475 51.8625 95.719376L51.8625 94.70375Q52.7375 94.281876 53.39375 93.70375Q54.065624 93.11 54.346874 92.5475L55.01875 92.5475L55.01875 101.1725ZM58.05 96.938126Q58.05 95.406876 58.3625 94.485Q58.675 93.5475 59.284374 93.0475Q59.909374 92.5475 60.846874 92.5475Q61.534374 92.5475 62.05 92.82875Q62.58125 93.11 62.925 93.64125Q63.26875 94.156876 63.45625 94.906876Q63.64375 95.656876 63.64375 96.938126Q63.64375 98.45375 63.33125 99.375626Q63.034374 100.2975 62.409374 100.813126Q61.8 101.313126 60.846874 101.313126Q59.6125 101.313126 58.89375 100.4225Q58.05 99.36 58.05 96.938126ZM59.128124 96.938126Q59.128124 99.0475 59.628124 99.750626Q60.128124 100.45375 60.846874 100.45375Q61.58125 100.45375 62.065624 99.750626Q62.565624 99.0475 62.565624 96.938126Q62.565624 94.813126 62.065624 94.125626Q61.58125 93.4225 60.83125 93.4225Q60.1125 93.4225 59.675 94.031876Q59.128124 94.813126 59.128124 96.938126ZM65.05 96.938126Q65.05 95.406876 65.3625 94.485Q65.675 93.5475 66.28438 93.0475Q66.90938 92.5475 67.84688 92.5475Q68.53438 92.5475 69.05 92.82875Q69.58125 93.11 69.925 93.64125Q70.26875 94.156876 70.45625 94.906876Q70.64375 95.656876 70.64375 96.938126Q70.64375 98.45375 70.33125 99.375626Q70.03438 100.2975 69.40938 100.813126Q68.8 101.313126 67.84688 101.313126Q66.6125 101.313126 65.89375 100.4225Q65.05 99.36 65.05 96.938126ZM66.12813 96.938126Q66.12813 99.0475 66.62813 99.750626Q67.12813 100.45375 67.84688 100.45375Q68.58125 100.45375 69.06563 99.750626Q69.56563 99.0475 69.56563 96.938126Q69.56563 94.813126 69.06563 94.125626Q68.58125 93.4225 67.83125 93.4225Q67.1125 93.4225 66.675 94.031876Q66.12813 94.813126 66.12813 96.938126ZM72.05 96.938126Q72.05 95.406876 72.3625 94.485Q72.675 93.5475 73.28438 93.0475Q73.90938 92.5475 74.84688 92.5475Q75.53438 92.5475 76.05 92.82875Q76.58125 93.11 76.925 93.64125Q77.26875 94.156876 77.45625 94.906876Q77.64375 95.656876 77.64375 96.938126Q77.64375 98.45375 77.33125 99.375626Q77.03438 100.2975 76.40938 100.813126Q75.8 101.313126 74.84688 101.313126Q73.6125 101.313126 72.89375 100.4225Q72.05 99.36 72.05 96.938126ZM73.12813 96.938126Q73.12813 99.0475 73.62813 99.750626Q74.12813 100.45375 74.84688 100.45375Q75.58125 100.45375 76.06563 99.750626Q76.56563 99.0475 76.56563 96.938126Q76.56563 94.813126 76.06563 94.125626Q75.58125 93.4225 74.83125 93.4225Q74.1125 93.4225 73.675 94.031876Q73.12813 94.813126 73.12813 96.938126ZM79.05 96.938126Q79.05 95.406876 79.3625 94.485Q79.675 93.5475 80.28438 93.0475Q80.90938 92.5475 81.84688 92.5475Q82.53438 92.5475 83.05 92.82875Q83.58125 93.11 83.925 93.64125Q84.26875 94.156876 84.45625 94.906876Q84.64375 95.656876 84.64375 96.938126Q84.64375 98.45375 84.33125 99.375626Q84.03438 100.2975 83.40938 100.813126Q82.8 101.313126 81.84688 101.313126Q80.6125 101.313126 79.89375 100.4225Q79.05 99.36 79.05 96.938126ZM80.12813 96.938126Q80.12813 99.0475 80.62813 99.750626Q81.12813 100.45375 81.84688 100.45375Q82.58125 100.45375 83.06563 99.750626Q83.56563 99.0475 83.56563 96.938126Q83.56563 94.813126 83.06563 94.125626Q82.58125 93.4225 81.83125 93.4225Q81.1125 93.4225 80.675 94.031876Q80.12813 94.813126 80.12813 96.938126ZM86.05 96.938126Q86.05 95.406876 86.3625 94.485Q86.675 93.5475 87.28438 93.0475Q87.90938 92.5475 88.84688 92.5475Q89.53438 92.5475 90.05 92.82875Q90.58125 93.11 90.925 93.64125Q91.26875 94.156876 91.45625 94.906876Q91.64375 95.656876 91.64375 96.938126Q91.64375 98.45375 91.33125 99.375626Q91.03438 100.2975 90.40938 100.813126Q89.8 101.313126 88.84688 101.313126Q87.6125 101.313126 86.89375 100.4225Q86.05 99.36 86.05 96.938126ZM87.12813 96.938126Q87.12813 99.0475 87.62813 99.750626Q88.12813 100.45375 88.84688 100.45375Q89.58125 100.45375 90.06563 99.750626Q90.56563 99.0475 90.56563 96.938126Q90.56563 94.813126 90.06563 94.125626Q89.58125 93.4225 88.83125 93.4225Q88.1125 93.4225 87.675 94.031876Q87.12813 94.813126 87.12813 96.938126Z" fill-rule="nonzero"/><path fill="#000000" d="M195.6772 349.45L195.6772 340.85626L196.83345 340.85626L201.34908 347.60626L201.34908 340.85626L202.44283 340.85626L202.44283 349.45L201.27095 349.45L196.75533 342.7L196.75533 349.45L195.6772 349.45ZM204.16158 346.34064Q204.16158 344.60626 205.1147 343.77814Q205.91158 343.09064 207.06783 343.09064Q208.34908 343.09064 209.16158 343.9344Q209.9897 344.7625 209.9897 346.2469Q209.9897 347.45 209.63033 348.1375Q209.27095 348.825 208.56783 349.21564Q207.88033 349.59064 207.06783 349.59064Q205.77095 349.59064 204.95845 348.7625Q204.16158 347.91876 204.16158 346.34064ZM205.2397 346.34064Q205.2397 347.52814 205.75533 348.1219Q206.28658 348.71564 207.06783 348.71564Q207.8647 348.71564 208.38033 348.1219Q208.89595 347.52814 208.89595 346.3094Q208.89595 345.15314 208.3647 344.5594Q207.84908 343.96564 207.06783 343.96564Q206.28658 343.96564 205.75533 344.5594Q205.2397 345.1375 205.2397 346.34064ZM218.6147 348.6844Q218.02095 349.1844 217.47408 349.3875Q216.94283 349.59064 216.31783 349.59064Q215.28658 349.59064 214.7397 349.09064Q214.19283 348.59064 214.19283 347.8094Q214.19283 347.35626 214.39595 346.98126Q214.59908 346.59064 214.94283 346.3719Q215.28658 346.1375 215.70845 346.02814Q216.00533 345.9344 216.64595 345.85626Q217.91158 345.71564 218.52095 345.4969Q218.52095 345.27814 218.52095 345.23126Q218.52095 344.575 218.22408 344.3094Q217.81783 343.96564 217.02095 343.96564Q216.28658 343.96564 215.9272 344.23126Q215.56783 344.48126 215.39595 345.1375L214.3647 344.9969Q214.50533 344.34064 214.83345 343.9344Q215.16158 343.52814 215.77095 343.3094Q216.38033 343.09064 217.1772 343.09064Q217.97408 343.09064 218.47408 343.27814Q218.97408 343.46564 219.20845 343.7469Q219.44283 344.02814 219.53658 344.46564Q219.58345 344.73126 219.58345 345.4344L219.58345 346.84064Q219.58345 348.3094 219.64595 348.7Q219.72408 349.09064 219.9272 349.45L218.81783 349.45Q218.66158 349.1219 218.6147 348.6844ZM218.52095 346.325Q217.94283 346.5594 216.8022 346.73126Q216.14595 346.825 215.88033 346.95Q215.6147 347.0594 215.45845 347.27814Q215.31783 347.4969 215.31783 347.77814Q215.31783 348.2 215.63033 348.48126Q215.95845 348.7625 216.56783 348.7625Q217.1772 348.7625 217.64595 348.4969Q218.13033 348.23126 218.34908 347.7625Q218.52095 347.40314 218.52095 346.71564L218.52095 346.325ZM221.34908 349.96564L222.38033 350.1219Q222.44283 350.59064 222.7397 350.8094Q223.13033 351.10626 223.8022 351.10626Q224.53658 351.10626 224.9272 350.8094Q225.33345 350.5125 225.47408 349.9969Q225.56783 349.66876 225.5522 348.6375Q224.8647 349.45 223.83345 349.45Q222.5522 349.45 221.84908 348.52814Q221.14595 347.59064 221.14595 346.3094Q221.14595 345.41876 221.45845 344.66876Q221.78658 343.90314 222.39595 343.4969Q223.00533 343.09064 223.83345 343.09064Q224.94283 343.09064 225.66158 343.98126L225.66158 343.23126L226.63033 343.23126L226.63033 348.60626Q226.63033 350.0594 226.33345 350.66876Q226.03658 351.27814 225.39595 351.6219Q224.75533 351.98126 223.81783 351.98126Q222.70845 351.98126 222.02095 351.48126Q221.33345 350.98126 221.34908 349.96564ZM222.22408 346.23126Q222.22408 347.45 222.70845 348.0125Q223.19283 348.575 223.9272 348.575Q224.66158 348.575 225.14595 348.0125Q225.64595 347.45 225.64595 346.2625Q225.64595 345.1219 225.13033 344.54376Q224.63033 343.96564 223.91158 343.96564Q223.20845 343.96564 222.70845 344.54376Q222.22408 345.10626 222.22408 346.23126ZM228.34908 349.96564L229.38033 350.1219Q229.44283 350.59064 229.7397 350.8094Q230.13033 351.10626 230.8022 351.10626Q231.53658 351.10626 231.9272 350.8094Q232.33345 350.5125 232.47408 349.9969Q232.56783 349.66876 232.5522 348.6375Q231.8647 349.45 230.83345 349.45Q229.5522 349.45 228.84908 348.52814Q228.14595 347.59064 228.14595 346.3094Q228.14595 345.41876 228.45845 344.66876Q228.78658 343.90314 229.39595 343.4969Q230.00533 343.09064 230.83345 343.09064Q231.94283 343.09064 232.66158 343.98126L232.66158 343.23126L233.63033 343.23126L233.63033 348.60626Q233.63033 350.0594 233.33345 350.66876Q233.03658 351.27814 232.39595 351.6219Q231.75533 351.98126 230.81783 351.98126Q229.70845 351.98126 229.02095 351.48126Q228.33345 350.98126 228.34908 349.96564ZM229.22408 346.23126Q229.22408 347.45 229.70845 348.0125Q230.19283 348.575 230.9272 348.575Q231.66158 348.575 232.14595 348.0125Q232.64595 347.45 232.64595 346.2625Q232.64595 345.1219 232.13033 344.54376Q231.63033 343.96564 230.91158 343.96564Q230.20845 343.96564 229.70845 344.54376Q229.22408 345.10626 229.22408 346.23126ZM235.53658 349.45L235.53658 343.23126L236.4897 343.23126L236.4897 344.16876Q236.84908 343.5125 237.14595 343.3094Q237.45845 343.09064 237.83345 343.09064Q238.3647 343.09064 238.91158 343.41876L238.5522 344.40314Q238.16158 344.16876 237.78658 344.16876Q237.4272 344.16876 237.14595 344.3875Q236.88033 344.59064 236.77095 344.96564Q236.58345 345.52814 236.58345 346.1844L236.58345 349.45L235.53658 349.45ZM243.8022 347.45L244.89595 347.575Q244.64595 348.52814 243.94283 349.0594Q243.2397 349.59064 242.16158 349.59064Q240.8022 349.59064 239.9897 348.7469Q239.19283 347.90314 239.19283 346.3875Q239.19283 344.825 240.00533 343.96564Q240.81783 343.09064 242.09908 343.09064Q243.34908 343.09064 244.13033 343.9344Q244.9272 344.77814 244.9272 346.325Q244.9272 346.41876 244.9272 346.60626L240.28658 346.60626Q240.34908 347.6375 240.8647 348.1844Q241.38033 348.71564 242.16158 348.71564Q242.7397 348.71564 243.14595 348.41876Q243.56783 348.10626 243.8022 347.45ZM240.34908 345.7469L243.81783 345.7469Q243.75533 344.95 243.4272 344.5594Q242.91158 343.95 242.1147 343.95Q241.38033 343.95 240.88033 344.4344Q240.39595 344.91876 240.34908 345.7469ZM246.34908 349.96564L247.38033 350.1219Q247.44283 350.59064 247.7397 350.8094Q248.13033 351.10626 248.8022 351.10626Q249.53658 351.10626 249.9272 350.8094Q250.33345 350.5125 250.47408 349.9969Q250.56783 349.66876 250.5522 348.6375Q249.8647 349.45 248.83345 349.45Q247.5522 349.45 246.84908 348.52814Q246.14595 347.59064 246.14595 346.3094Q246.14595 345.41876 246.45845 344.66876Q246.78658 343.90314 247.39595 343.4969Q248.00533 343.09064 248.83345 343.09064Q249.94283 343.09064 250.66158 343.98126L250.66158 343.23126L251.63033 343.23126L251.63033 348.60626Q251.63033 350.0594 251.33345 350.66876Q251.03658 351.27814 250.39595 351.6219Q249.75533 351.98126 248.81783 351.98126Q247.70845 351.98126 247.02095 351.48126Q246.33345 350.98126 246.34908 349.96564ZM247.22408 346.23126Q247.22408 347.45 247.70845 348.0125Q248.19283 348.575 248.9272 348.575Q249.66158 348.575 250.14595 348.0125Q250.64595 347.45 250.64595 346.2625Q250.64595 345.1219 250.13033 344.54376Q249.63033 343.96564 248.91158 343.96564Q248.20845 343.96564 247.70845 344.54376Q247.22408 345.10626 247.22408 346.23126ZM257.6147 348.6844Q257.02094 349.1844 256.47406 349.3875Q255.94283 349.59064 255.31783 349.59064Q254.28658 349.59064 253.7397 349.09064Q253.19283 348.59064 253.19283 347.8094Q253.19283 347.35626 253.39595 346.98126Q253.59908 346.59064 253.94283 346.3719Q254.28658 346.1375 254.70845 346.02814Q255.00533 345.9344 255.64595 345.85626Q256.91156 345.71564 257.52094 345.4969Q257.52094 345.27814 257.52094 345.23126Q257.52094 344.575 257.22406 344.3094Q256.8178 343.96564 256.02094 343.96564Q255.28658 343.96564 254.9272 344.23126Q254.56783 344.48126 254.39595 345.1375L253.3647 344.9969Q253.50533 344.34064 253.83345 343.9344Q254.16158 343.52814 254.77095 343.3094Q255.38033 343.09064 256.1772 343.09064Q256.97406 343.09064 257.47406 343.27814Q257.97406 343.46564 258.20844 343.7469Q258.4428 344.02814 258.53656 344.46564Q258.58344 344.73126 258.58344 345.4344L258.58344 346.84064Q258.58344 348.3094 258.64594 348.7Q258.72406 349.09064 258.9272 349.45L257.8178 349.45Q257.66156 349.1219 257.6147 348.6844ZM257.52094 346.325Q256.9428 346.5594 255.8022 346.73126Q255.14595 346.825 254.88033 346.95Q254.6147 347.0594 254.45845 347.27814Q254.31783 347.4969 254.31783 347.77814Q254.31783 348.2 254.63033 348.48126Q254.95845 348.7625 255.56783 348.7625Q256.1772 348.7625 256.64594 348.4969Q257.1303 348.23126 257.34906 347.7625Q257.52094 347.40314 257.52094 346.71564L257.52094 346.325ZM262.84906 348.5125L263.0053 349.4344Q262.5522 349.52814 262.20844 349.52814Q261.6303 349.52814 261.3178 349.35626Q261.0053 349.16876 260.8647 348.8719Q260.7397 348.575 260.7397 347.6219L260.7397 344.04376L259.97406 344.04376L259.97406 343.23126L260.7397 343.23126L260.7397 341.6844L261.78656 341.0594L261.78656 343.23126L262.84906 343.23126L262.84906 344.04376L261.78656 344.04376L261.78656 347.6844Q261.78656 348.1375 261.83344 348.2625Q261.89594 348.3875 262.02094 348.46564Q262.14594 348.54376 262.3803 348.54376Q262.5678 348.54376 262.84906 348.5125ZM263.5522 342.075L263.5522 340.85626L264.6147 340.85626L264.6147 342.075L263.5522 342.075ZM263.5522 349.45L263.5522 343.23126L264.6147 343.23126L264.6147 349.45L263.5522 349.45ZM266.16156 346.34064Q266.16156 344.60626 267.1147 343.77814Q267.91156 343.09064 269.0678 343.09064Q270.34906 343.09064 271.16156 343.9344Q271.9897 344.7625 271.9897 346.2469Q271.9897 347.45 271.6303 348.1375Q271.27094 348.825 270.5678 349.21564Q269.8803 349.59064 269.0678 349.59064Q267.77094 349.59064 266.95844 348.7625Q266.16156 347.91876 266.16156 346.34064ZM267.2397 346.34064Q267.2397 347.52814 267.7553 348.1219Q268.28656 348.71564 269.0678 348.71564Q269.8647 348.71564 270.3803 348.1219Q270.89594 347.52814 270.89594 346.3094Q270.89594 345.15314 270.3647 344.5594Q269.84906 343.96564 269.0678 343.96564Q268.28656 343.96564 267.7553 344.5594Q267.2397 345.1375 267.2397 346.34064ZM273.5522 349.45L273.5522 343.23126L274.4897 343.23126L274.4897 344.10626Q275.1772 343.09064 276.47406 343.09064Q277.03656 343.09064 277.5053 343.29376Q277.9897 343.4969 278.22406 343.825Q278.45844 344.15314 278.5522 344.59064Q278.59906 344.8875 278.59906 345.6219L278.59906 349.45L277.5522 349.45L277.5522 345.66876Q277.5522 345.0125 277.4272 344.7Q277.3022 344.3875 276.9897 344.2Q276.6772 343.9969 276.2553 343.9969Q275.58344 343.9969 275.08344 344.4344Q274.59906 344.85626 274.59906 346.04376L274.59906 349.45L273.5522 349.45Z" fill-rule="nonzero"/><path fill="#000000" d="M410.72906 349.45L414.02594 340.85626L415.2447 340.85626L418.7603 349.45L417.47906 349.45L416.46344 346.84064L412.8853 346.84064L411.9322 349.45L410.72906 349.45ZM413.21344 345.91876L416.1197 345.91876L415.22906 343.54376Q414.8072 342.46564 414.6197 341.7625Q414.4478 342.59064 414.15094 343.40314L413.21344 345.91876ZM419.33844 349.96564L420.3697 350.1219Q420.4322 350.59064 420.72906 350.8094Q421.1197 351.10626 421.79156 351.10626Q422.52594 351.10626 422.91656 350.8094Q423.3228 350.5125 423.46344 349.9969Q423.5572 349.66876 423.54156 348.6375Q422.85406 349.45 421.8228 349.45Q420.54156 349.45 419.83844 348.52814Q419.1353 347.59064 419.1353 346.3094Q419.1353 345.41876 419.4478 344.66876Q419.77594 343.90314 420.3853 343.4969Q420.9947 343.09064 421.8228 343.09064Q422.9322 343.09064 423.65094 343.98126L423.65094 343.23126L424.6197 343.23126L424.6197 348.60626Q424.6197 350.0594 424.3228 350.66876Q424.02594 351.27814 423.3853 351.6219Q422.7447 351.98126 421.8072 351.98126Q420.6978 351.98126 420.0103 351.48126Q419.3228 350.98126 419.33844 349.96564ZM420.21344 346.23126Q420.21344 347.45 420.6978 348.0125Q421.1822 348.575 421.91656 348.575Q422.65094 348.575 423.1353 348.0125Q423.6353 347.45 423.6353 346.2625Q423.6353 345.1219 423.1197 344.54376Q422.6197 343.96564 421.90094 343.96564Q421.1978 343.96564 420.6978 344.54376Q420.21344 345.10626 420.21344 346.23126ZM426.33844 349.96564L427.3697 350.1219Q427.4322 350.59064 427.72906 350.8094Q428.1197 351.10626 428.79156 351.10626Q429.52594 351.10626 429.91656 350.8094Q430.3228 350.5125 430.46344 349.9969Q430.5572 349.66876 430.54156 348.6375Q429.85406 349.45 428.8228 349.45Q427.54156 349.45 426.83844 348.52814Q426.1353 347.59064 426.1353 346.3094Q426.1353 345.41876 426.4478 344.66876Q426.77594 343.90314 427.3853 343.4969Q427.9947 343.09064 428.8228 343.09064Q429.9322 343.09064 430.65094 343.98126L430.65094 343.23126L431.6197 343.23126L431.6197 348.60626Q431.6197 350.0594 431.3228 350.66876Q431.02594 351.27814 430.3853 351.6219Q429.7447 351.98126 428.8072 351.98126Q427.6978 351.98126 427.0103 351.48126Q426.3228 350.98126 426.33844 349.96564ZM427.21344 346.23126Q427.21344 347.45 427.6978 348.0125Q428.1822 348.575 428.91656 348.575Q429.65094 348.575 430.1353 348.0125Q430.6353 347.45 430.6353 346.2625Q430.6353 345.1219 430.1197 344.54376Q429.6197 343.96564 428.90094 343.96564Q428.1978 343.96564 427.6978 344.54376Q427.21344 345.10626 427.21344 346.23126ZM433.52594 349.45L433.52594 343.23126L434.47906 343.23126L434.47906 344.16876Q434.83844 343.5125 435.1353 343.3094Q435.4478 343.09064 435.8228 343.09064Q436.35406 343.09064 436.90094 343.41876L436.54156 344.40314Q436.15094 344.16876 435.77594 344.16876Q435.41656 344.16876 435.1353 344.3875Q434.8697 344.59064 434.7603 344.96564Q434.5728 345.52814 434.5728 346.1844L434.5728 349.45L433.52594 349.45ZM441.79156 347.45L442.8853 347.575Q442.6353 348.52814 441.9322 349.0594Q441.22906 349.59064 440.15094 349.59064Q438.79156 349.59064 437.97906 348.7469Q437.1822 347.90314 437.1822 346.3875Q437.1822 344.825 437.9947 343.96564Q438.8072 343.09064 440.08844 343.09064Q441.33844 343.09064 442.1197 343.9344Q442.91656 344.77814 442.91656 346.325Q442.91656 346.41876 442.91656 346.60626L438.27594 346.60626Q438.33844 347.6375 438.85406 348.1844Q439.3697 348.71564 440.15094 348.71564Q440.72906 348.71564 441.1353 348.41876Q441.5572 348.10626 441.79156 347.45ZM438.33844 345.7469L441.8072 345.7469Q441.7447 344.95 441.41656 344.5594Q440.90094 343.95 440.10406 343.95Q439.3697 343.95 438.8697 344.4344Q438.3853 344.91876 438.33844 345.7469ZM444.33844 349.96564L445.3697 350.1219Q445.4322 350.59064 445.72906 350.8094Q446.1197 351.10626 446.79156 351.10626Q447.52594 351.10626 447.91656 350.8094Q448.3228 350.5125 448.46344 349.9969Q448.5572 349.66876 448.54156 348.6375Q447.85406 349.45 446.8228 349.45Q445.54156 349.45 444.83844 348.52814Q444.1353 347.59064 444.1353 346.3094Q444.1353 345.41876 444.4478 344.66876Q444.77594 343.90314 445.3853 343.4969Q445.9947 343.09064 446.8228 343.09064Q447.9322 343.09064 448.65094 343.98126L448.65094 343.23126L449.6197 343.23126L449.6197 348.60626Q449.6197 350.0594 449.3228 350.66876Q449.02594 351.27814 448.3853 351.6219Q447.7447 351.98126 446.8072 351.98126Q445.6978 351.98126 445.0103 351.48126Q444.3228 350.98126 444.33844 349.96564ZM445.21344 346.23126Q445.21344 347.45 445.6978 348.0125Q446.1822 348.575 446.91656 348.575Q447.65094 348.575 448.1353 348.0125Q448.6353 347.45 448.6353 346.2625Q448.6353 345.1219 448.1197 344.54376Q447.6197 343.96564 446.90094 343.96564Q446.1978 343.96564 445.6978 344.54376Q445.21344 345.10626 445.21344 346.23126ZM455.60406 348.6844Q455.0103 349.1844 454.46344 349.3875Q453.9322 349.59064 453.3072 349.59064Q452.27594 349.59064 451.72906 349.09064Q451.1822 348.59064 451.1822 347.8094Q451.1822 347.35626 451.3853 346.98126Q451.58844 346.59064 451.9322 346.3719Q452.27594 346.1375 452.6978 346.02814Q452.9947 345.9344 453.6353 345.85626Q454.90094 345.71564 455.5103 345.4969Q455.5103 345.27814 455.5103 345.23126Q455.5103 344.575 455.21344 344.3094Q454.8072 343.96564 454.0103 343.96564Q453.27594 343.96564 452.91656 344.23126Q452.5572 344.48126 452.3853 345.1375L451.35406 344.9969Q451.4947 344.34064 451.8228 343.9344Q452.15094 343.52814 452.7603 343.3094Q453.3697 343.09064 454.16656 343.09064Q454.96344 343.09064 455.46344 343.27814Q455.96344 343.46564 456.1978 343.7469Q456.4322 344.02814 456.52594 344.46564Q456.5728 344.73126 456.5728 345.4344L456.5728 346.84064Q456.5728 348.3094 456.6353 348.7Q456.71344 349.09064 456.91656 349.45L455.8072 349.45Q455.65094 349.1219 455.60406 348.6844ZM455.5103 346.325Q454.9322 346.5594 453.79156 346.73126Q453.1353 346.825 452.8697 346.95Q452.60406 347.0594 452.4478 347.27814Q452.3072 347.4969 452.3072 347.77814Q452.3072 348.2 452.6197 348.48126Q452.9478 348.7625 453.5572 348.7625Q454.16656 348.7625 454.6353 348.4969Q455.1197 348.23126 455.33844 347.7625Q455.5103 347.40314 455.5103 346.71564L455.5103 346.325ZM460.83844 348.5125L460.9947 349.4344Q460.54156 349.52814 460.1978 349.52814Q459.6197 349.52814 459.3072 349.35626Q458.9947 349.16876 458.85406 348.8719Q458.72906 348.575 458.72906 347.6219L458.72906 344.04376L457.96344 344.04376L457.96344 343.23126L458.72906 343.23126L458.72906 341.6844L459.77594 341.0594L459.77594 343.23126L460.83844 343.23126L460.83844 344.04376L459.77594 344.04376L459.77594 347.6844Q459.77594 348.1375 459.8228 348.2625Q459.8853 348.3875 460.0103 348.46564Q460.1353 348.54376 460.3697 348.54376Q460.5572 348.54376 460.83844 348.5125ZM465.79156 347.45L466.8853 347.575Q466.6353 348.52814 465.9322 349.0594Q465.22906 349.59064 464.15094 349.59064Q462.79156 349.59064 461.97906 348.7469Q461.1822 347.90314 461.1822 346.3875Q461.1822 344.825 461.9947 343.96564Q462.8072 343.09064 464.08844 343.09064Q465.33844 343.09064 466.1197 343.9344Q466.91656 344.77814 466.91656 346.325Q466.91656 346.41876 466.91656 346.60626L462.27594 346.60626Q462.33844 347.6375 462.85406 348.1844Q463.3697 348.71564 464.15094 348.71564Q464.72906 348.71564 465.1353 348.41876Q465.5572 348.10626 465.79156 347.45ZM462.33844 345.7469L465.8072 345.7469Q465.7447 344.95 465.41656 344.5594Q464.90094 343.95 464.10406 343.95Q463.3697 343.95 462.8697 344.4344Q462.3853 344.91876 462.33844 345.7469ZM472.5728 349.45L472.5728 348.66876Q471.97906 349.59064 470.83844 349.59064Q470.08844 349.59064 469.46344 349.1844Q468.83844 348.7625 468.4947 348.02814Q468.15094 347.29376 468.15094 346.34064Q468.15094 345.41876 468.46344 344.65314Q468.77594 343.8875 469.40094 343.4969Q470.02594 343.09064 470.79156 343.09064Q471.35406 343.09064 471.79156 343.325Q472.22906 343.5594 472.5103 343.9344L472.5103 340.85626L473.5572 340.85626L473.5572 349.45L472.5728 349.45ZM469.2447 346.34064Q469.2447 347.54376 469.7447 348.1375Q470.2447 348.71564 470.9322 348.71564Q471.6197 348.71564 472.10406 348.15314Q472.58844 347.59064 472.58844 346.4344Q472.58844 345.15314 472.08844 344.5594Q471.60406 343.96564 470.8853 343.96564Q470.1822 343.96564 469.71344 344.54376Q469.2447 345.10626 469.2447 346.34064Z" fill-rule="nonzero"/><path fill="#4285f4" d="M194.5 20.55C194.5 19.997715 194.94771 19.55 195.5 19.55L205.5 19.55C206.05229 19.55 206.5 19.997715 206.5 20.55L206.5 30.55C206.5 31.102285 206.05229 31.55 205.5 31.55L195.5 31.55C194.94771 31.55 194.5 31.102285 194.5 30.55Z" fill-rule="nonzero"/><path fill="#1a1a1a" d="M215.42188 29.55L215.42188 20.95625L218.67188 20.95625Q219.51562 20.95625 219.96875 21.034374Q220.60938 21.14375 221.03125 21.440624Q221.46875 21.7375 221.71875 22.26875Q221.98438 22.8 221.98438 23.440624Q221.98438 24.534374 221.28125 25.3Q220.59375 26.05 218.76562 26.05L216.5625 26.05L216.5625 29.55L215.42188 29.55ZM216.5625 25.05L218.78125 25.05Q219.89062 25.05 220.34375 24.64375Q220.8125 24.221874 220.8125 23.471874Q220.8125 22.940624 220.53125 22.565624Q220.26562 22.175 219.82812 22.05Q219.53125 21.971874 218.76562 21.971874L216.5625 21.971874L216.5625 25.05ZM223.26562 29.55L223.26562 20.95625L224.32812 20.95625L224.32812 29.55L223.26562 29.55ZM230.35938 28.784374Q229.76562 29.284374 229.21875 29.4875Q228.6875 29.690624 228.0625 29.690624Q227.03125 29.690624 226.48438 29.190624Q225.9375 28.690624 225.9375 27.909374Q225.9375 27.45625 226.14062 27.08125Q226.34375 26.690624 226.6875 26.471874Q227.03125 26.2375 227.45312 26.128124Q227.75 26.034374 228.39062 25.95625Q229.65625 25.815624 230.26562 25.596874Q230.26562 25.378124 230.26562 25.33125Q230.26562 24.675 229.96875 24.409374Q229.5625 24.065624 228.76562 24.065624Q228.03125 24.065624 227.67188 24.33125Q227.3125 24.58125 227.14062 25.2375L226.10938 25.096874Q226.25 24.440624 226.57812 24.034374Q226.90625 23.628124 227.51562 23.409374Q228.125 23.190624 228.92188 23.190624Q229.71875 23.190624 230.21875 23.378124Q230.71875 23.565624 230.95312 23.846874Q231.1875 24.128124 231.28125 24.565624Q231.32812 24.83125 231.32812 25.534374L231.32812 26.940624Q231.32812 28.409374 231.39062 28.8Q231.46875 29.190624 231.67188 29.55L230.5625 29.55Q230.40625 29.221874 230.35938 28.784374ZM230.26562 26.425Q229.6875 26.659374 228.54688 26.83125Q227.89062 26.925 227.625 27.05Q227.35938 27.159374 227.20312 27.378124Q227.0625 27.596874 227.0625 27.878124Q227.0625 28.3 227.375 28.58125Q227.70312 28.8625 228.3125 28.8625Q228.92188 28.8625 229.39062 28.596874Q229.875 28.33125 230.09375 27.8625Q230.26562 27.503124 230.26562 26.815624L230.26562 26.425ZM233.29688 29.55L233.29688 23.33125L234.23438 23.33125L234.23438 24.20625Q234.92188 23.190624 236.21875 23.190624Q236.78125 23.190624 237.25 23.39375Q237.73438 23.596874 237.96875 23.925Q238.20312 24.253124 238.29688 24.690624Q238.34375 24.9875 238.34375 25.721874L238.34375 29.55L237.29688 29.55L237.29688 25.76875Q237.29688 25.1125 237.17188 24.8Q237.04688 24.4875 236.73438 24.3Q236.42188 24.096874 236.0 24.096874Q235.32812 24.096874 234.82812 24.534374Q234.34375 24.95625 234.34375 26.14375L234.34375 29.55L233.29688 29.55ZM240.29688 29.55L240.29688 23.33125L241.23438 23.33125L241.23438 24.20625Q241.92188 23.190624 243.21875 23.190624Q243.78125 23.190624 244.25 23.39375Q244.73438 23.596874 244.96875 23.925Q245.20312 24.253124 245.29688 24.690624Q245.34375 24.9875 245.34375 25.721874L245.34375 29.55L244.29688 29.55L244.29688 25.76875Q244.29688 25.1125 244.17188 24.8Q244.04688 24.4875 243.73438 24.3Q243.42188 24.096874 243.0 24.096874Q242.32812 24.096874 241.82812 24.534374Q241.34375 24.95625 241.34375 26.14375L241.34375 29.55L240.29688 29.55ZM247.29688 22.175L247.29688 20.95625L248.35938 20.95625L248.35938 22.175L247.29688 22.175ZM247.29688 29.55L247.29688 23.33125L248.35938 23.33125L248.35938 29.55L247.29688 29.55ZM250.29688 29.55L250.29688 23.33125L251.23438 23.33125L251.23438 24.20625Q251.92188 23.190624 253.21875 23.190624Q253.78125 23.190624 254.25 23.39375Q254.73438 23.596874 254.96875 23.925Q255.20312 24.253124 255.29688 24.690624Q255.34375 24.9875 255.34375 25.721874L255.34375 29.55L254.29688 29.55L254.29688 25.76875Q254.29688 25.1125 254.17188 24.8Q254.04688 24.4875 253.73438 24.3Q253.42188 24.096874 253.0 24.096874Q252.32812 24.096874 251.82812 24.534374Q251.34375 24.95625 251.34375 26.14375L251.34375 29.55L250.29688 29.55ZM257.09375 30.065624L258.125 30.221874Q258.1875 30.690624 258.48438 30.909374Q258.875 31.20625 259.54688 31.20625Q260.28125 31.20625 260.67188 30.909374Q261.07812 30.6125 261.21875 30.096874Q261.3125 29.76875 261.29688 28.7375Q260.60938 29.55 259.57812 29.55Q258.29688 29.55 257.59375 28.628124Q256.89062 27.690624 256.89062 26.409374Q256.89062 25.51875 257.20312 24.76875Q257.53125 24.003124 258.14062 23.596874Q258.75 23.190624 259.57812 23.190624Q260.6875 23.190624 261.40625 24.08125L261.40625 23.33125L262.375 23.33125L262.375 28.70625Q262.375 30.159374 262.07812 30.76875Q261.78125 31.378124 261.14062 31.721874Q260.5 32.08125 259.5625 32.08125Q258.45312 32.08125 257.76562 31.58125Q257.07812 31.08125 257.09375 30.065624ZM257.96875 26.33125Q257.96875 27.55 258.45312 28.1125Q258.9375 28.675 259.67188 28.675Q260.40625 28.675 260.89062 28.1125Q261.39062 27.55 261.39062 26.3625Q261.39062 25.221874 260.875 24.64375Q260.375 24.065624 259.65625 24.065624Q258.95312 24.065624 258.45312 24.64375Q257.96875 25.20625 257.96875 26.33125ZM269.59375 28.6125L269.75 29.534374Q269.29688 29.628124 268.95312 29.628124Q268.375 29.628124 268.0625 29.45625Q267.75 29.26875 267.60938 28.971874Q267.48438 28.675 267.48438 27.721874L267.48438 24.14375L266.71875 24.14375L266.71875 23.33125L267.48438 23.33125L267.48438 21.784374L268.53125 21.159374L268.53125 23.33125L269.59375 23.33125L269.59375 24.14375L268.53125 24.14375L268.53125 27.784374Q268.53125 28.2375 268.57812 28.3625Q268.64062 28.4875 268.76562 28.565624Q268.89062 28.64375 269.125 28.64375Q269.3125 28.64375 269.59375 28.6125ZM270.29688 22.175L270.29688 20.95625L271.35938 20.95625L271.35938 22.175L270.29688 22.175ZM270.29688 29.55L270.29688 23.33125L271.35938 23.33125L271.35938 29.55L270.29688 29.55ZM273.29688 29.55L273.29688 23.33125L274.23438 23.33125L274.23438 24.20625Q274.53125 23.7375 275.01562 23.471874Q275.5 23.190624 276.125 23.190624Q276.8125 23.190624 277.25 23.471874Q277.70312 23.753124 277.875 24.26875Q278.625 23.190624 279.79688 23.190624Q280.73438 23.190624 281.21875 23.70625Q281.71875 24.20625 281.71875 25.284374L281.71875 29.55L280.67188 29.55L280.67188 25.628124Q280.67188 25.003124 280.5625 24.721874Q280.46875 24.440624 280.20312 24.26875Q279.9375 24.096874 279.5625 24.096874Q278.90625 24.096874 278.46875 24.534374Q278.04688 24.971874 278.04688 25.940624L278.04688 29.55L276.98438 29.55L276.98438 25.503124Q276.98438 24.8 276.71875 24.45625Q276.46875 24.096874 275.89062 24.096874Q275.4375 24.096874 275.0625 24.33125Q274.6875 24.565624 274.51562 25.01875Q274.34375 25.471874 274.34375 26.315624L274.34375 29.55L273.29688 29.55ZM287.54688 27.55L288.64062 27.675Q288.39062 28.628124 287.6875 29.159374Q286.98438 29.690624 285.90625 29.690624Q284.54688 29.690624 283.73438 28.846874Q282.9375 28.003124 282.9375 26.4875Q282.9375 24.925 283.75 24.065624Q284.5625 23.190624 285.84375 23.190624Q287.09375 23.190624 287.875 24.034374Q288.67188 24.878124 288.67188 26.425Q288.67188 26.51875 288.67188 26.70625L284.03125 26.70625Q284.09375 27.7375 284.60938 28.284374Q285.125 28.815624 285.90625 28.815624Q286.48438 28.815624 286.89062 28.51875Q287.3125 28.20625 287.54688 27.55ZM284.09375 25.846874L287.5625 25.846874Q287.5 25.05 287.17188 24.659374Q286.65625 24.05 285.85938 24.05Q285.125 24.05 284.625 24.534374Q284.14062 25.01875 284.09375 25.846874Z" fill-rule="nonzero"/><path fill="#ea4335" d="M305.5 20.55C305.5 19.997715 305.94772 19.55 306.5 19.55L316.5 19.55C317.05228 19.55 317.5 19.997715 317.5 20.55L317.5 30.55C317.5 31.102285 317.05228 31.55 316.5 31.55L306.5 31.55C305.94772 31.55 305.5 31.102285 305.5 30.55Z" fill-rule="nonzero"/><path fill="#1a1a1a" d="M326.45312 29.55L326.45312 20.95625L332.65625 20.95625L332.65625 21.971874L327.59375 21.971874L327.59375 24.596874L332.34375 24.596874L332.34375 25.6125L327.59375 25.6125L327.59375 28.534374L332.85938 28.534374L332.85938 29.55L326.45312 29.55ZM333.59375 29.55L335.85938 26.315624L333.76562 23.33125L335.07812 23.33125L336.03125 24.784374Q336.29688 25.20625 336.46875 25.4875Q336.71875 25.096874 336.9375 24.8L337.98438 23.33125L339.25 23.33125L337.09375 26.253124L339.40625 29.55L338.125 29.55L336.84375 27.6125L336.5 27.096874L334.85938 29.55L333.59375 29.55ZM344.54688 27.55L345.64062 27.675Q345.39062 28.628124 344.6875 29.159374Q343.98438 29.690624 342.90625 29.690624Q341.54688 29.690624 340.73438 28.846874Q339.9375 28.003124 339.9375 26.4875Q339.9375 24.925 340.75 24.065624Q341.5625 23.190624 342.84375 23.190624Q344.09375 23.190624 344.875 24.034374Q345.67188 24.878124 345.67188 26.425Q345.67188 26.51875 345.67188 26.70625L341.03125 26.70625Q341.09375 27.7375 341.60938 28.284374Q342.125 28.815624 342.90625 28.815624Q343.48438 28.815624 343.89062 28.51875Q344.3125 28.20625 344.54688 27.55ZM341.09375 25.846874L344.5625 25.846874Q344.5 25.05 344.17188 24.659374Q343.65625 24.05 342.85938 24.05Q342.125 24.05 341.625 24.534374Q341.14062 25.01875 341.09375 25.846874ZM351.35938 27.26875L352.39062 27.409374Q352.21875 28.471874 351.51562 29.08125Q350.8125 29.690624 349.79688 29.690624Q348.51562 29.690624 347.73438 28.8625Q346.96875 28.01875 346.96875 26.45625Q346.96875 25.45625 347.29688 24.70625Q347.64062 23.940624 348.3125 23.565624Q349.0 23.190624 349.8125 23.190624Q350.8125 23.190624 351.45312 23.70625Q352.10938 24.20625 352.29688 25.159374L351.26562 25.315624Q351.125 24.690624 350.75 24.378124Q350.375 24.05 349.84375 24.05Q349.04688 24.05 348.54688 24.628124Q348.04688 25.190624 348.04688 26.425Q348.04688 27.690624 348.53125 28.253124Q349.01562 28.815624 349.78125 28.815624Q350.40625 28.815624 350.8125 28.440624Q351.23438 28.065624 351.35938 27.26875ZM357.375 29.55L357.375 28.628124Q356.64062 29.690624 355.39062 29.690624Q354.84375 29.690624 354.35938 29.4875Q353.89062 29.26875 353.65625 28.95625Q353.42188 28.628124 353.32812 28.159374Q353.26562 27.8625 353.26562 27.175L353.26562 23.33125L354.32812 23.33125L354.32812 26.784374Q354.32812 27.596874 354.39062 27.89375Q354.48438 28.3 354.79688 28.55Q355.125 28.784374 355.60938 28.784374Q356.07812 28.784374 356.48438 28.55Q356.90625 28.3 357.07812 27.878124Q357.26562 27.45625 357.26562 26.659374L357.26562 23.33125L358.3125 23.33125L358.3125 29.55L357.375 29.55ZM362.59375 28.6125L362.75 29.534374Q362.29688 29.628124 361.95312 29.628124Q361.375 29.628124 361.0625 29.45625Q360.75 29.26875 360.60938 28.971874Q360.48438 28.675 360.48438 27.721874L360.48438 24.14375L359.71875 24.14375L359.71875 23.33125L360.48438 23.33125L360.48438 21.784374L361.53125 21.159374L361.53125 23.33125L362.59375 23.33125L362.59375 24.14375L361.53125 24.14375L361.53125 27.784374Q361.53125 28.2375 361.57812 28.3625Q361.64062 28.4875 361.76562 28.565624Q361.89062 28.64375 362.125 28.64375Q362.3125 28.64375 362.59375 28.6125ZM363.29688 22.175L363.29688 20.95625L364.35938 20.95625L364.35938 22.175L363.29688 22.175ZM363.29688 29.55L363.29688 23.33125L364.35938 23.33125L364.35938 29.55L363.29688 29.55ZM365.90625 26.440624Q365.90625 24.70625 366.85938 23.878124Q367.65625 23.190624 368.8125 23.190624Q370.09375 23.190624 370.90625 24.034374Q371.73438 24.8625 371.73438 26.346874Q371.73438 27.55 371.375 28.2375Q371.01562 28.925 370.3125 29.315624Q369.625 29.690624 368.8125 29.690624Q367.51562 29.690624 366.70312 28.8625Q365.90625 28.01875 365.90625 26.440624ZM366.98438 26.440624Q366.98438 27.628124 367.5 28.221874Q368.03125 28.815624 368.8125 28.815624Q369.60938 28.815624 370.125 28.221874Q370.64062 27.628124 370.64062 26.409374Q370.64062 25.253124 370.10938 24.659374Q369.59375 24.065624 368.8125 24.065624Q368.03125 24.065624 367.5 24.659374Q366.98438 25.2375 366.98438 26.440624ZM373.29688 29.55L373.29688 23.33125L374.23438 23.33125L374.23438 24.20625Q374.92188 23.190624 376.21875 23.190624Q376.78125 23.190624 377.25 23.39375Q377.73438 23.596874 377.96875 23.925Q378.20312 24.253124 378.29688 24.690624Q378.34375 24.9875 378.34375 25.721874L378.34375 29.55L377.29688 29.55L377.29688 25.76875Q377.29688 25.1125 377.17188 24.8Q377.04688 24.4875 376.73438 24.3Q376.42188 24.096874 376.0 24.096874Q375.32812 24.096874 374.82812 24.534374Q374.34375 24.95625 374.34375 26.14375L374.34375 29.55L373.29688 29.55ZM385.59375 28.6125L385.75 29.534374Q385.29688 29.628124 384.95312 29.628124Q384.375 29.628124 384.0625 29.45625Q383.75 29.26875 383.60938 28.971874Q383.48438 28.675 383.48438 27.721874L383.48438 24.14375L382.71875 24.14375L382.71875 23.33125L383.48438 23.33125L383.48438 21.784374L384.53125 21.159374L384.53125 23.33125L385.59375 23.33125L385.59375 24.14375L384.53125 24.14375L384.53125 27.784374Q384.53125 28.2375 384.57812 28.3625Q384.64062 28.4875 384.76562 28.565624Q384.89062 28.64375 385.125 28.64375Q385.3125 28.64375 385.59375 28.6125ZM386.29688 22.175L386.29688 20.95625L387.35938 20.95625L387.35938 22.175L386.29688 22.175ZM386.29688 29.55L386.29688 23.33125L387.35938 23.33125L387.35938 29.55L386.29688 29.55ZM389.29688 29.55L389.29688 23.33125L390.23438 23.33125L390.23438 24.20625Q390.53125 23.7375 391.01562 23.471874Q391.5 23.190624 392.125 23.190624Q392.8125 23.190624 393.25 23.471874Q393.70312 23.753124 393.875 24.26875Q394.625 23.190624 395.79688 23.190624Q396.73438 23.190624 397.21875 23.70625Q397.71875 24.20625 397.71875 25.284374L397.71875 29.55L396.67188 29.55L396.67188 25.628124Q396.67188 25.003124 396.5625 24.721874Q396.46875 24.440624 396.20312 24.26875Q395.9375 24.096874 395.5625 24.096874Q394.90625 24.096874 394.46875 24.534374Q394.04688 24.971874 394.04688 25.940624L394.04688 29.55L392.98438 29.55L392.98438 25.503124Q392.98438 24.8 392.71875 24.45625Q392.46875 24.096874 391.89062 24.096874Q391.4375 24.096874 391.0625 24.33125Q390.6875 24.565624 390.51562 25.01875Q390.34375 25.471874 390.34375 26.315624L390.34375 29.55L389.29688 29.55ZM403.54688 27.55L404.64062 27.675Q404.39062 28.628124 403.6875 29.159374Q402.98438 29.690624 401.90625 29.690624Q400.54688 29.690624 399.73438 28.846874Q398.9375 28.003124 398.9375 26.4875Q398.9375 24.925 399.75 24.065624Q400.5625 23.190624 401.84375 23.190624Q403.09375 23.190624 403.875 24.034374Q404.67188 24.878124 404.67188 26.425Q404.67188 26.51875 404.67188 26.70625L400.03125 26.70625Q400.09375 27.7375 400.60938 28.284374Q401.125 28.815624 401.90625 28.815624Q402.48438 28.815624 402.89062 28.51875Q403.3125 28.20625 403.54688 27.55ZM400.09375 25.846874L403.5625 25.846874Q403.5 25.05 403.17188 24.659374Q402.65625 24.05 401.85938 24.05Q401.125 24.05 400.625 24.534374Q400.14062 25.01875 400.09375 25.846874Z" fill-rule="nonzero"/></svg>