<svg version="1.1" viewBox="0.0 0.0 600.0 371.0" fill="none" stroke="none" stroke-linecap="square" stroke-miterlimit="10" width="600" height="371" xmlns:xlink="http://www.w3.org/1999/xlink" xmlns="http://www.w3.org/2000/svg"><path fill="#ffffff" d="M0 0L600.0 0L600.0 371.0L0 371.0L0 0Z" fill-rule="nonzero"/><path stroke="#333333" stroke-width="1.0" stroke-linecap="butt" d="M105.5 300.5L581.5 300.5" fill-rule="nonzero"/><path stroke="#cccccc" stroke-width="1.0" stroke-linecap="butt" d="M105.5 250.5L581.5 250.5" fill-rule="nonzero"/><path stroke="#cccccc" stroke-width="1.0" stroke-linecap="butt" d="M105.5 201.5L581.5 201.5" fill-rule="nonzero"/><path stroke="#cccccc" stroke-width="1.0" stroke-linecap="butt" d="M105.5 151.5L581.5 151.5" fill-rule="nonzero"/><path stroke="#cccccc" stroke-width="1.0" stroke-linecap="butt" d="M105.5 101.5L581.5 101.5" fill-rule="nonzero"/><path stroke="#cccccc" stroke-width="1.0" stroke-linecap="butt" d="M105.5 51.5L581.5 51.5" fill-rule="nonzero"/><clipPath id="id_0"><path d="M105.55 51.916668L581.45 51.916668L581.45 300.45L105.55 300.45L105.55 51.916668Z" clip-rule="nonzero"/></clipPath><path stroke="#000000" stroke-width="0.0" stroke-linecap="butt" stroke-opacity="0.0" clip-path="url(#id_0)" d="M155.0 300.0L132.0 300.0L132.0 300.0C132.0 300.0 132.0 300.0 132.0 300.0L155.0 300.0C155.0 300.0 155.0 300.0 155.0 300.0Z" fill-rule="nonzero"/><path fill="#4285f4" clip-path="url(#id_0)" d="M155.0 300.0L132.0 300.0L132.0 300.0C132.0 300.0 132.0 300.0 132.0 300.0L155.0 300.0C155.0 300.0 155.0 300.0 155.0 300.0Z" fill-rule="nonzero"/><path stroke="#000000" stroke-width="0.0" stroke-linecap="butt" stroke-opacity="0.0" clip-path="url(#id_0)" d="M230.0 300.0L207.0 300.0L207.0 300.0C207.0 300.0 207.0 300.0 207.0 300.0L230.0 300.0C230.0 300.0 230.0 300.0 230.0 300.0Z" fill-rule="nonzero"/><path fill="#4285f4" clip-path="url(#id_0)" d="M230.0 300.0L207.0 300.0L207.0 300.0C207.0 300.0 207.0 300.0 207.0 300.0L230.0 300.0C230.0 300.0 230.0 300.0 230.0 300.0Z" fill-rule="nonzero"/><path stroke="#000000" stroke-width="0.0" stroke-linecap="butt" stroke-opacity="0.0" clip-path="url(#id_0)" d="M305.0 300.0L282.0 300.0L282.0 300.0C282.0 300.0 282.0 300.0 282.0 300.0L305.0 300.0C305.0 300.0 305.0 300.0 305.0 300.0Z" fill-rule="nonzero"/><path fill="#4285f4" clip-path="url(#id_0)" d="M305.0 300.0L282.0 300.0L282.0 300.0C282.0 300.0 282.0 300.0 282.0 300.0L305.0 300.0C305.0 300.0 305.0 300.0 305.0 300.0Z" fill-rule="nonzero"/><path stroke="#000000" stroke-width="0.0" stroke-linecap="butt" stroke-opacity="0.0" clip-path="url(#id_0)" d="M380.0 300.0L357.0 300.0L357.0 300.0C357.0 300.0 357.0 300.0 357.0 300.0L380.0 300.0C380.0 300.0 380.0 300.0 380.0 300.0Z" fill-rule="nonzero"/><path fill="#4285f4" clip-path="url(#id_0)" d="M380.0 300.0L357.0 300.0L357.0 300.0C357.0 300.0 357.0 300.0 357.0 300.0L380.0 300.0C380.0 300.0 380.0 300.0 380.0 300.0Z" fill-rule="nonzero"/><path stroke="#000000" stroke-width="0.0" stroke-linecap="butt" stroke-opacity="0.0" clip-path="url(#id_0)" d="M455.0 300.0L432.0 300.0L432.0 300.0C432.0 300.0 432.0 300.0 432.0 300.0L455.0 300.0C455.0 300.0 455.0 300.0 455.0 300.0Z" fill-rule="nonzero"/><path fill="#4285f4" clip-path="url(#id_0)" d="M455.0 300.0L432.0 300.0L432.0 300.0C432.0 300.0 432.0 300.0 432.0 300.0L455.0 300.0C455.0 300.0 455.0 300.0 455.0 300.0Z" fill-rule="nonzero"/><path stroke="#000000" stroke-width="0.0" stroke-linecap="butt" stroke-opacity="0.0" clip-path="url(#id_0)" d="M530.0 300.0L507.0 300.0L507.0 300.0C507.0 300.0 507.0 300.0 507.0 300.0L530.0 300.0C530.0 300.0 530.0 300.0 530.0 300.0Z" fill-rule="nonzero"/><path fill="#4285f4" clip-path="url(#id_0)" d="M530.0 300.0L507.0 300.0L507.0 300.0C507.0 300.0 507.0 300.0 507.0 300.0L530.0 300.0C530.0 300.0 530.0 300.0 530.0 300.0Z" fill-rule="nonzero"/><path stroke="#000000" stroke-width="0.0" stroke-linecap="butt" stroke-opacity="0.0" clip-path="url(#id_0)" d="M179.0 300.0L156.0 300.0L156.0 300.0C156.0 300.0 156.0 300.0 156.0 300.0L179.0 300.0C179.0 300.0 179.0 300.0 179.0 300.0Z" fill-rule="nonzero"/><path fill="#ea4335" clip-path="url(#id_0)" d="M179.0 300.0L156.0 300.0L156.0 300.0C156.0 300.0 156.0 300.0 156.0 300.0L179.0 300.0C179.0 300.0 179.0 300.0 179.0 300.0Z" fill-rule="nonzero"/><path stroke="#000000" stroke-width="0.0" stroke-linecap="butt" stroke-opacity="0.0" clip-path="url(#id_0)" d="M254.0 300.0L231.0 300.0L231.0 300.0C231.0 300.0 231.0 300.0 231.0 300.0L254.0 300.0C254.0 300.0 254.0 300.0 254.0 300.0Z" fill-rule="nonzero"/><path fill="#ea4335" clip-path="url(#id_0)" d="M254.0 300.0L231.0 300.0L231.0 300.0C231.0 300.0 231.0 300.0 231.0 300.0L254.0 300.0C254.0 300.0 254.0 300.0 254.0 300.0Z" fill-rule="nonzero"/><path stroke="#000000" stroke-width="0.0" stroke-linecap="butt" stroke-opacity="0.0" clip-path="url(#id_0)" d="M329.0 300.0L306.0 300.0L306.0 300.0C306.0 300.0 306.0 300.0 306.0 300.0L329.0 300.0C329.0 300.0 329.0 300.0 329.0 300.0Z" fill-rule="nonzero"/><path fill="#ea4335" clip-path="url(#id_0)" d="M329.0 300.0L306.0 300.0L306.0 300.0C306.0 300.0 306.0 300.0 306.0 300.0L329.0 300.0C329.0 300.0 329.0 300.0 329.0 300.0Z" fill-rule="nonzero"/><path stroke="#000000" stroke-width="0.0" stroke-linecap="butt" stroke-opacity="0.0" clip-path="url(#id_0)" d="M404.0 300.0L381.0 300.0L381.0 300.0C381.0 300.0 381.0 300.0 381.0 300.0L404.0 300.0C404.0 300.0 404.0 300.0 404.0 300.0Z" fill-rule="nonzero"/><path fill="#ea4335" clip-path="url(#id_0)" d="M404.0 300.0L381.0 300.0L381.0 300.0C381.0 300.0 381.0 300.0 381.0 300.0L404.0 300.0C404.0 300.0 404.0 300.0 404.0 300.0Z" fill-rule="nonzero"/><path stroke="#000000" stroke-width="0.0" stroke-linecap="butt" stroke-opacity="0.0" clip-path="url(#id_0)" d="M479.0 300.0L456.0 300.0L456.0 298.0C456.0 296.89542 456.89542 296.0 458.0 296.0L477.0 296.0C478.10458 296.0 479.0 296.89542 479.0 298.0Z" fill-rule="nonzero"/><path fill="#ea4335" clip-path="url(#id_0)" d="M479.0 300.0L456.0 300.0L456.0 298.0C456.0 296.89542 456.89542 296.0 458.0 296.0L477.0 296.0C478.10458 296.0 479.0 296.89542 479.0 298.0Z" fill-rule="nonzero"/><path stroke="#000000" stroke-width="0.0" stroke-linecap="butt" stroke-opacity="0.0" clip-path="url(#id_0)" d="M554.0 300.0L531.0 300.0L531.0 88.0C531.0 86.89543 531.89545 86.0 533.0 86.0L552.0 86.0C553.10455 86.0 554.0 86.89543 554.0 88.0Z" fill-rule="nonzero"/><path fill="#ea4335" clip-path="url(#id_0)" d="M554.0 300.0L531.0 300.0L531.0 88.0C531.0 86.89543 531.89545 86.0 533.0 86.0L552.0 86.0C553.10455 86.0 554.0 86.89543 554.0 88.0Z" fill-rule="nonzero"/><path fill="#000000" d="M328.57812 345.2625Q328.57812 343.1219 329.71875 341.91876Q330.875 340.7 332.6875 340.7Q333.89062 340.7 334.84375 341.27814Q335.79688 341.84064 336.29688 342.85626Q336.79688 343.8719 336.79688 345.16876Q336.79688 346.46564 336.26562 347.4969Q335.73438 348.52814 334.76562 349.0594Q333.8125 349.59064 332.6875 349.59064Q331.46875 349.59064 330.51562 349.0125Q329.5625 348.41876 329.0625 347.41876Q328.57812 346.40314 328.57812 345.2625ZM329.75 345.27814Q329.75 346.84064 330.57812 347.73126Q331.42188 348.6219 332.6875 348.6219Q333.96875 348.6219 334.79688 347.73126Q335.625 346.825 335.625 345.15314Q335.625 344.10626 335.26562 343.325Q334.92188 342.54376 334.23438 342.1219Q333.54688 341.6844 332.70312 341.6844Q331.5 341.6844 330.625 342.5125Q329.75 343.34064 329.75 345.27814ZM338.04688 349.45L338.04688 344.04376L337.10938 344.04376L337.10938 343.23126L338.04688 343.23126L338.04688 342.5594Q338.04688 341.9344 338.15625 341.6375Q338.3125 341.21564 338.6875 340.96564Q339.07812 340.71564 339.76562 340.71564Q340.21875 340.71564 340.75 340.825L340.59375 341.73126Q340.26562 341.6844 339.96875 341.6844Q339.48438 341.6844 339.28125 341.8875Q339.09375 342.09064 339.09375 342.65314L339.09375 343.23126L340.3125 343.23126L340.3125 344.04376L339.09375 344.04376L339.09375 349.45L338.04688 349.45ZM341.04688 349.45L341.04688 344.04376L340.10938 344.04376L340.10938 343.23126L341.04688 343.23126L341.04688 342.5594Q341.04688 341.9344 341.15625 341.6375Q341.3125 341.21564 341.6875 340.96564Q342.07812 340.71564 342.76562 340.71564Q343.21875 340.71564 343.75 340.825L343.59375 341.73126Q343.26562 341.6844 342.96875 341.6844Q342.48438 341.6844 342.28125 341.8875Q342.09375 342.09064 342.09375 342.65314L342.09375 343.23126L343.3125 343.23126L343.3125 344.04376L342.09375 344.04376L342.09375 349.45L341.04688 349.45ZM343.375 347.59064L344.40625 347.4344Q344.5 348.0594 344.89062 348.3875Q345.29688 348.71564 346.03125 348.71564Q346.75 348.71564 347.09375 348.4344Q347.45312 348.1375 347.45312 347.73126Q347.45312 347.3719 347.14062 347.16876Q346.92188 347.02814 346.0625 346.8094Q344.90625 346.5125 344.45312 346.3094Q344.01562 346.09064 343.78125 345.71564Q343.54688 345.34064 343.54688 344.8719Q343.54688 344.46564 343.73438 344.10626Q343.92188 343.7469 344.25 343.5125Q344.5 343.34064 344.92188 343.21564Q345.34375 343.09064 345.84375 343.09064Q346.5625 343.09064 347.10938 343.3094Q347.67188 343.5125 347.9375 343.8719Q348.20312 344.23126 348.29688 344.825L347.26562 344.96564Q347.20312 344.4969 346.85938 344.23126Q346.53125 343.95 345.90625 343.95Q345.1875 343.95 344.875 344.2Q344.5625 344.4344 344.5625 344.7625Q344.5625 344.96564 344.6875 345.1219Q344.82812 345.29376 345.09375 345.40314Q345.25 345.46564 346.03125 345.66876Q347.15625 345.98126 347.59375 346.16876Q348.03125 346.35626 348.28125 346.71564Q348.53125 347.075 348.53125 347.6219Q348.53125 348.15314 348.21875 348.6219Q347.92188 349.075 347.34375 349.34064Q346.76562 349.59064 346.03125 349.59064Q344.8125 349.59064 344.17188 349.09064Q343.54688 348.575 343.375 347.59064ZM354.04688 347.45L355.14062 347.575Q354.89062 348.52814 354.1875 349.0594Q353.48438 349.59064 352.40625 349.59064Q351.04688 349.59064 350.23438 348.7469Q349.4375 347.90314 349.4375 346.3875Q349.4375 344.825 350.25 343.96564Q351.0625 343.09064 352.34375 343.09064Q353.59375 343.09064 354.375 343.9344Q355.17188 344.77814 355.17188 346.325Q355.17188 346.41876 355.17188 346.60626L350.53125 346.60626Q350.59375 347.6375 351.10938 348.1844Q351.625 348.71564 352.40625 348.71564Q352.98438 348.71564 353.39062 348.41876Q353.8125 348.10626 354.04688 347.45ZM350.59375 345.7469L354.0625 345.7469Q354.0 344.95 353.67188 344.5594Q353.15625 343.95 352.35938 343.95Q351.625 343.95 351.125 344.4344Q350.64062 344.91876 350.59375 345.7469ZM359.09375 348.5125L359.25 349.4344Q358.79688 349.52814 358.45312 349.52814Q357.875 349.52814 357.5625 349.35626Q357.25 349.16876 357.10938 348.8719Q356.98438 348.575 356.98438 347.6219L356.98438 344.04376L356.21875 344.04376L356.21875 343.23126L356.98438 343.23126L356.98438 341.6844L358.03125 341.0594L358.03125 343.23126L359.09375 343.23126L359.09375 344.04376L358.03125 344.04376L358.03125 347.6844Q358.03125 348.1375 358.07812 348.2625Q358.14062 348.3875 358.26562 348.46564Q358.39062 348.54376 358.625 348.54376Q358.8125 348.54376 359.09375 348.5125Z" fill-rule="nonzero"/><path fill="#000000" d="M29.550013 233.57396L21.971888 233.57396L21.971888 236.40208L20.956263 236.40208L20.956263 229.58958L21.971888 229.58958L21.971888 232.43333L29.550013 232.43333L29.550013 233.57396ZM22.175013 228.88646L20.956263 228.88646L20.956263 227.82396L22.175013 227.82396L22.175013 228.88646ZM29.550013 228.88646L23.331263 228.88646L23.331263 227.82396L29.550013 227.82396L29.550013 228.88646ZM29.550013 225.88646L23.331263 225.88646L23.331263 224.94896L24.206263 224.94896Q23.737513 224.65208 23.471888 224.16771Q23.190638 223.68333 23.190638 223.05833Q23.190638 222.37083 23.471888 221.93333Q23.753138 221.48021 24.268763 221.30833Q23.190638 220.55833 23.190638 219.38646Q23.190638 218.44896 23.706263 217.96458Q24.206263 217.46458 25.284388 217.46458L29.550013 217.46458L29.550013 218.51146L25.628138 218.51146Q25.003138 218.51146 24.721888 218.62083Q24.440638 218.71458 24.268763 218.98021Q24.096888 219.24583 24.096888 219.62083Q24.096888 220.27708 24.534388 220.71458Q24.971888 221.13646 25.940638 221.13646L29.550013 221.13646L29.550013 222.19896L25.503138 222.19896Q24.800013 222.19896 24.456263 222.46458Q24.096888 222.71458 24.096888 223.29271Q24.096888 223.74583 24.331263 224.12083Q24.565638 224.49583 25.018763 224.66771Q25.471888 224.83958 26.315638 224.83958L29.550013 224.83958L29.550013 225.88646ZM27.550013 211.63646L27.675013 210.54271Q28.628138 210.79271 29.159388 211.49583Q29.690638 212.19896 29.690638 213.27708Q29.690638 214.63646 28.846888 215.44896Q28.003138 216.24583 26.487513 216.24583Q24.925013 216.24583 24.065638 215.43333Q23.190638 214.62083 23.190638 213.33958Q23.190638 212.08958 24.034388 211.30833Q24.878138 210.51146 26.425013 210.51146Q26.518763 210.51146 26.706263 210.51146L26.706263 215.15208Q27.737513 215.08958 28.284388 214.57396Q28.815638 214.05833 28.815638 213.27708Q28.815638 212.69896 28.518763 212.29271Q28.206263 211.87083 27.550013 211.63646ZM25.846888 215.08958L25.846888 211.62083Q25.050013 211.68333 24.659388 212.01146Q24.050013 212.52708 24.050013 213.32396Q24.050013 214.05833 24.534388 214.55833Q25.018763 215.04271 25.846888 215.08958ZM32.08126 203.87083Q30.971888 204.74583 29.503138 205.35521Q28.018763 205.94896 26.440638 205.94896Q25.050013 205.94896 23.768763 205.51146Q22.284388 204.98021 20.815638 203.87083L20.815638 203.12083Q22.034388 203.82396 22.550013 204.05833Q23.362513 204.41771 24.237513 204.62083Q25.331263 204.87083 26.440638 204.87083Q29.268763 204.87083 32.08126 203.12083L32.08126 203.87083ZM29.550013 201.88646L23.331263 201.88646L23.331263 200.94896L24.206263 200.94896Q23.737513 200.65208 23.471888 200.16771Q23.190638 199.68333 23.190638 199.05833Q23.190638 198.37083 23.471888 197.93333Q23.753138 197.48021 24.268763 197.30833Q23.190638 196.55833 23.190638 195.38646Q23.190638 194.44896 23.706263 193.96458Q24.206263 193.46458 25.284388 193.46458L29.550013 193.46458L29.550013 194.51146L25.628138 194.51146Q25.003138 194.51146 24.721888 194.62083Q24.440638 194.71458 24.268763 194.98021Q24.096888 195.24583 24.096888 195.62083Q24.096888 196.27708 24.534388 196.71458Q24.971888 197.13646 25.940638 197.13646L29.550013 197.13646L29.550013 198.19896L25.503138 198.19896Q24.800013 198.19896 24.456263 198.46458Q24.096888 198.71458 24.096888 199.29271Q24.096888 199.74583 24.331263 200.12083Q24.565638 200.49583 25.018763 200.66771Q25.471888 200.83958 26.315638 200.83958L29.550013 200.83958L29.550013 201.88646ZM22.175013 191.88646L20.956263 191.88646L20.956263 190.82396L22.175013 190.82396L22.175013 191.88646ZM29.550013 191.88646L23.331263 191.88646L23.331263 190.82396L29.550013 190.82396L29.550013 191.88646ZM27.268763 184.82396L27.409388 183.79271Q28.471888 183.96458 29.081263 184.66771Q29.690638 185.37083 29.690638 186.38646Q29.690638 187.66771 28.862513 188.44896Q28.018763 189.21458 26.456263 189.21458Q25.456263 189.21458 24.706263 188.88646Q23.940638 188.54271 23.565638 187.87083Q23.190638 187.18333 23.190638 186.37083Q23.190638 185.37083 23.706263 184.73021Q24.206263 184.07396 25.159388 183.88646L25.315638 184.91771Q24.690638 185.05833 24.378138 185.43333Q24.050013 185.80833 24.050013 186.33958Q24.050013 187.13646 24.628138 187.63646Q25.190638 188.13646 26.425013 188.13646Q27.690638 188.13646 28.253138 187.65208Q28.815638 187.16771 28.815638 186.40208Q28.815638 185.77708 28.440638 185.37083Q28.065638 184.94896 27.268763 184.82396ZM29.550013 182.90208L23.331263 182.90208L23.331263 181.94896L24.268763 181.94896Q23.612513 181.58958 23.409388 181.29271Q23.190638 180.98021 23.190638 180.60521Q23.190638 180.07396 23.518763 179.52708L24.503138 179.88646Q24.268763 180.27708 24.268763 180.65208Q24.268763 181.01146 24.487513 181.29271Q24.690638 181.55833 25.065638 181.66771Q25.628138 181.85521 26.284388 181.85521L29.550013 181.85521L29.550013 182.90208ZM26.440638 179.27708Q24.706263 179.27708 23.878138 178.32396Q23.190638 177.52708 23.190638 176.37083Q23.190638 175.08958 24.034388 174.27708Q24.862513 173.44896 26.346888 173.44896Q27.550013 173.44896 28.237513 173.80833Q28.925013 174.16771 29.315638 174.87083Q29.690638 175.55833 29.690638 176.37083Q29.690638 177.66771 28.862513 178.48021Q28.018763 179.27708 26.440638 179.27708ZM26.440638 178.19896Q27.628138 178.19896 28.221888 177.68333Q28.815638 177.15208 28.815638 176.37083Q28.815638 175.57396 28.221888 175.05833Q27.628138 174.54271 26.409388 174.54271Q25.253138 174.54271 24.659388 175.07396Q24.065638 175.58958 24.065638 176.37083Q24.065638 177.15208 24.659388 177.68333Q25.237513 178.19896 26.440638 178.19896ZM27.690638 172.30833L27.534388 171.27708Q28.159388 171.18333 28.487513 170.79271Q28.815638 170.38646 28.815638 169.65208Q28.815638 168.93333 28.534388 168.58958Q28.237513 168.23021 27.831263 168.23021Q27.471888 168.23021 27.268763 168.54271Q27.128138 168.76146 26.909388 169.62083Q26.612513 170.77708 26.409388 171.23021Q26.190638 171.66771 25.815638 171.90208Q25.440638 172.13646 24.971888 172.13646Q24.565638 172.13646 24.206263 171.94896Q23.846888 171.76146 23.612513 171.43333Q23.440638 171.18333 23.315638 170.76146Q23.190638 170.33958 23.190638 169.83958Q23.190638 169.12083 23.409388 168.57396Q23.612513 168.01146 23.971888 167.74583Q24.331263 167.48021 24.925013 167.38646L25.065638 168.41771Q24.596888 168.48021 24.331263 168.82396Q24.050013 169.15208 24.050013 169.77708Q24.050013 170.49583 24.300013 170.80833Q24.534388 171.12083 24.862513 171.12083Q25.065638 171.12083 25.221888 170.99583Q25.393763 170.85521 25.503138 170.58958Q25.565638 170.43333 25.768763 169.65208Q26.081263 168.52708 26.268763 168.08958Q26.456263 167.65208 26.815638 167.40208Q27.175013 167.15208 27.721888 167.15208Q28.253138 167.15208 28.721888 167.46458Q29.175013 167.76146 29.440638 168.33958Q29.690638 168.91771 29.690638 169.65208Q29.690638 170.87083 29.190638 171.51146Q28.675013 172.13646 27.690638 172.30833ZM27.550013 161.63646L27.675013 160.54271Q28.628138 160.79271 29.159388 161.49583Q29.690638 162.19896 29.690638 163.27708Q29.690638 164.63646 28.846888 165.44896Q28.003138 166.24583 26.487513 166.24583Q24.925013 166.24583 24.065638 165.43333Q23.190638 164.62083 23.190638 163.33958Q23.190638 162.08958 24.034388 161.30833Q24.878138 160.51146 26.425013 160.51146Q26.518763 160.51146 26.706263 160.51146L26.706263 165.15208Q27.737513 165.08958 28.284388 164.57396Q28.815638 164.05833 28.815638 163.27708Q28.815638 162.69896 28.518763 162.29271Q28.206263 161.87083 27.550013 161.63646ZM25.846888 165.08958L25.846888 161.62083Q25.050013 161.68333 24.659388 162.01146Q24.050013 162.52708 24.050013 163.32396Q24.050013 164.05833 24.534388 164.55833Q25.018763 165.04271 25.846888 165.08958ZM27.268763 154.82396L27.409388 153.79271Q28.471888 153.96458 29.081263 154.66771Q29.690638 155.37083 29.690638 156.38646Q29.690638 157.66771 28.862513 158.44896Q28.018763 159.21458 26.456263 159.21458Q25.456263 159.21458 24.706263 158.88646Q23.940638 158.54271 23.565638 157.87083Q23.190638 157.18333 23.190638 156.37083Q23.190638 155.37083 23.706263 154.73021Q24.206263 154.07396 25.159388 153.88646L25.315638 154.91771Q24.690638 155.05833 24.378138 155.43333Q24.050013 155.80833 24.050013 156.33958Q24.050013 157.13646 24.628138 157.63646Q25.190638 158.13646 26.425013 158.13646Q27.690638 158.13646 28.253138 157.65208Q28.815638 157.16771 28.815638 156.40208Q28.815638 155.77708 28.440638 155.37083Q28.065638 154.94896 27.268763 154.82396ZM26.440638 153.27708Q24.706263 153.27708 23.878138 152.32396Q23.190638 151.52708 23.190638 150.37083Q23.190638 149.08958 24.034388 148.27708Q24.862513 147.44896 26.346888 147.44896Q27.550013 147.44896 28.237513 147.80833Q28.925013 148.16771 29.315638 148.87083Q29.690638 149.55833 29.690638 150.37083Q29.690638 151.66771 28.862513 152.48021Q28.018763 153.27708 26.440638 153.27708ZM26.440638 152.19896Q27.628138 152.19896 28.221888 151.68333Q28.815638 151.15208 28.815638 150.37083Q28.815638 149.57396 28.221888 149.05833Q27.628138 148.54271 26.409388 148.54271Q25.253138 148.54271 24.659388 149.07396Q24.065638 149.58958 24.065638 150.37083Q24.065638 151.15208 24.659388 151.68333Q25.237513 152.19896 26.440638 152.19896ZM29.550013 145.88646L23.331263 145.88646L23.331263 144.94896L24.206263 144.94896Q23.190638 144.26146 23.190638 142.96458Q23.190638 142.40208 23.393763 141.93333Q23.596888 141.44896 23.925013 141.21458Q24.253138 140.98021 24.690638 140.88646Q24.987513 140.83958 25.721888 140.83958L29.550013 140.83958L29.550013 141.88646L25.768763 141.88646Q25.112513 141.88646 24.800013 142.01146Q24.487513 142.13646 24.300013 142.44896Q24.096888 142.76146 24.096888 143.18333Q24.096888 143.85521 24.534388 144.35521Q24.956263 144.83958 26.143763 144.83958L29.550013 144.83958L29.550013 145.88646ZM29.550013 134.85521L28.768763 134.85521Q29.690638 135.44896 29.690638 136.58958Q29.690638 137.33958 29.284388 137.96458Q28.862513 138.58958 28.128138 138.93333Q27.393763 139.27708 26.440638 139.27708Q25.518763 139.27708 24.753138 138.96458Q23.987513 138.65208 23.596888 138.02708Q23.190638 137.40208 23.190638 136.63646Q23.190638 136.07396 23.425013 135.63646Q23.659388 135.19896 24.034388 134.91771L20.956263 134.91771L20.956263 133.87083L29.550013 133.87083L29.550013 134.85521ZM26.440638 138.18333Q27.643763 138.18333 28.237513 137.68333Q28.815638 137.18333 28.815638 136.49583Q28.815638 135.80833 28.253138 135.32396Q27.690638 134.83958 26.534388 134.83958Q25.253138 134.83958 24.659388 135.33958Q24.065638 135.82396 24.065638 136.54271Q24.065638 137.24583 24.643763 137.71458Q25.206263 138.18333 26.440638 138.18333ZM32.08126 131.19896L32.08126 131.94896Q29.268763 130.19896 26.440638 130.19896Q25.346888 130.19896 24.253138 130.44896Q23.378138 130.65208 22.565638 131.01146Q22.050013 131.24583 20.815638 131.94896L20.815638 131.19896Q22.284388 130.10521 23.768763 129.57396Q25.050013 129.12083 26.440638 129.12083Q28.018763 129.12083 29.503138 129.73021Q30.971888 130.33958 32.08126 131.19896Z" fill-rule="nonzero"/><path fill="#000000" d="M93.05 300.21564Q93.05 298.6844 93.3625 297.7625Q93.675 296.825 94.28438 296.325Q94.90938 295.825 95.84688 295.825Q96.53438 295.825 97.05 296.10626Q97.58125 296.3875 97.925 296.91876Q98.26875 297.4344 98.45625 298.1844Q98.64375 298.9344 98.64375 300.21564Q98.64375 301.73126 98.33125 302.65314Q98.03438 303.575 97.40938 304.09064Q96.8 304.59064 95.84688 304.59064Q94.6125 304.59064 93.89375 303.7Q93.05 302.6375 93.05 300.21564ZM94.12813 300.21564Q94.12813 302.325 94.62813 303.02814Q95.12813 303.73126 95.84688 303.73126Q96.58125 303.73126 97.06563 303.02814Q97.56563 302.325 97.56563 300.21564Q97.56563 298.09064 97.06563 297.40314Q96.58125 296.7 95.83125 296.7Q95.1125 296.7 94.675 297.3094Q94.12813 298.09064 94.12813 300.21564Z" fill-rule="nonzero"/><path fill="#000000" d="M63.596874 253.7277L63.596874 254.74333L57.909374 254.74333Q57.909374 254.36833 58.034374 254.00896Q58.253124 253.43083 58.721874 252.86833Q59.20625 252.30583 60.1125 251.57146Q61.51875 250.4152 62.003124 249.74333Q62.503124 249.07146 62.503124 248.4777Q62.503124 247.8527 62.05 247.43083Q61.596874 246.99333 60.878124 246.99333Q60.1125 246.99333 59.659374 247.44646Q59.20625 247.89958 59.190624 248.71208L58.1125 248.6027Q58.221874 247.38396 58.940624 246.75896Q59.675 246.11833 60.909374 246.11833Q62.14375 246.11833 62.8625 246.80583Q63.58125 247.49333 63.58125 248.50896Q63.58125 249.02458 63.3625 249.52458Q63.159374 250.00896 62.659374 250.57146Q62.175 251.11833 61.05 252.07146Q60.096874 252.86833 59.815624 253.1652Q59.55 253.44646 59.378124 253.7277L63.596874 253.7277ZM65.05 252.49333L66.15938 252.39958Q66.28438 253.21208 66.72188 253.61833Q67.175 254.02458 67.81563 254.02458Q68.56563 254.02458 69.09688 253.44646Q69.62813 252.86833 69.62813 251.93083Q69.62813 251.02458 69.1125 250.50896Q68.6125 249.9777 67.78438 249.9777Q67.28438 249.9777 66.8625 250.21208Q66.45625 250.44646 66.22188 250.80583L65.2375 250.68083L66.06563 246.27458L70.34688 246.27458L70.34688 247.27458L66.90938 247.27458L66.45625 249.58708Q67.22188 249.0402 68.06563 249.0402Q69.19063 249.0402 69.95625 249.82146Q70.7375 250.6027 70.7375 251.83708Q70.7375 252.99333 70.06563 253.8527Q69.2375 254.88396 67.81563 254.88396Q66.64375 254.88396 65.89375 254.2277Q65.15938 253.57146 65.05 252.49333ZM72.05 250.50896Q72.05 248.9777 72.3625 248.05583Q72.675 247.11833 73.28438 246.61833Q73.90938 246.11833 74.84688 246.11833Q75.53438 246.11833 76.05 246.39958Q76.58125 246.68083 76.925 247.21208Q77.26875 247.7277 77.45625 248.4777Q77.64375 249.2277 77.64375 250.50896Q77.64375 252.02458 77.33125 252.94646Q77.03438 253.86833 76.40938 254.38396Q75.8 254.88396 74.84688 254.88396Q73.6125 254.88396 72.89375 253.99333Q72.05 252.93083 72.05 250.50896ZM73.12813 250.50896Q73.12813 252.61833 73.62813 253.32146Q74.12813 254.02458 74.84688 254.02458Q75.58125 254.02458 76.06563 253.32146Q76.56563 252.61833 76.56563 250.50896Q76.56563 248.38396 76.06563 247.69646Q75.58125 246.99333 74.83125 246.99333Q74.1125 246.99333 73.675 247.6027Q73.12813 248.38396 73.12813 250.50896ZM79.05 250.50896Q79.05 248.9777 79.3625 248.05583Q79.675 247.11833 80.28438 246.61833Q80.90938 246.11833 81.84688 246.11833Q82.53438 246.11833 83.05 246.39958Q83.58125 246.68083 83.925 247.21208Q84.26875 247.7277 84.45625 248.4777Q84.64375 249.2277 84.64375 250.50896Q84.64375 252.02458 84.33125 252.94646Q84.03438 253.86833 83.40938 254.38396Q82.8 254.88396 81.84688 254.88396Q80.6125 254.88396 79.89375 253.99333Q79.05 252.93083 79.05 250.50896ZM80.12813 250.50896Q80.12813 252.61833 80.62813 253.32146Q81.12813 254.02458 81.84688 254.02458Q82.58125 254.02458 83.06563 253.32146Q83.56563 252.61833 83.56563 250.50896Q83.56563 248.38396 83.06563 247.69646Q82.58125 246.99333 81.83125 246.99333Q81.1125 246.99333 80.675 247.6027Q80.12813 248.38396 80.12813 250.50896ZM86.05 250.50896Q86.05 248.9777 86.3625 248.05583Q86.675 247.11833 87.28438 246.61833Q87.90938 246.11833 88.84688 246.11833Q89.53438 246.11833 90.05 246.39958Q90.58125 246.68083 90.925 247.21208Q91.26875 247.7277 91.45625 248.4777Q91.64375 249.2277 91.64375 250.50896Q91.64375 252.02458 91.33125 252.94646Q91.03438 253.86833 90.40938 254.38396Q89.8 254.88396 88.84688 254.88396Q87.6125 254.88396 86.89375 253.99333Q86.05 252.93083 86.05 250.50896ZM87.12813 250.50896Q87.12813 252.61833 87.62813 253.32146Q88.12813 254.02458 88.84688 254.02458Q89.58125 254.02458 90.06563 253.32146Q90.56563 252.61833 90.56563 250.50896Q90.56563 248.38396 90.06563 247.69646Q89.58125 246.99333 88.83125 246.99333Q88.1125 246.99333 87.675 247.6027Q87.12813 248.38396 87.12813 250.50896ZM93.05 250.50896Q93.05 248.9777 93.3625 248.05583Q93.675 247.11833 94.28438 246.61833Q94.90938 246.11833 95.84688 246.11833Q96.53438 246.11833 97.05 246.39958Q97.58125 246.68083 97.925 247.21208Q98.26875 247.7277 98.45625 248.4777Q98.64375 249.2277 98.64375 250.50896Q98.64375 252.02458 98.33125 252.94646Q98.03438 253.86833 97.40938 254.38396Q96.8 254.88396 95.84688 254.88396Q94.6125 254.88396 93.89375 253.99333Q93.05 252.93083 93.05 250.50896ZM94.12813 250.50896Q94.12813 252.61833 94.62813 253.32146Q95.12813 254.02458 95.84688 254.02458Q96.58125 254.02458 97.06563 253.32146Q97.56563 252.61833 97.56563 250.50896Q97.56563 248.38396 97.06563 247.69646Q96.58125 246.99333 95.83125 246.99333Q95.1125 246.99333 94.675 247.6027Q94.12813 248.38396 94.12813 250.50896Z" fill-rule="nonzero"/><path fill="#000000" d="M58.05 202.78667L59.159374 202.69292Q59.284374 203.50542 59.721874 203.91167Q60.175 204.31792 60.815624 204.31792Q61.565624 204.31792 62.096874 203.73979Q62.628124 203.16167 62.628124 202.22417Q62.628124 201.31792 62.1125 200.80229Q61.6125 200.27104 60.784374 200.27104Q60.284374 200.27104 59.8625 200.50542Q59.45625 200.73979 59.221874 201.09917L58.2375 200.97417L59.065624 196.56792L63.346874 196.56792L63.346874 197.56792L59.909374 197.56792L59.45625 199.88042Q60.221874 199.33354 61.065624 199.33354Q62.190624 199.33354 62.95625 200.11479Q63.7375 200.89604 63.7375 202.13042Q63.7375 203.28667 63.065624 204.14604Q62.2375 205.17729 60.815624 205.17729Q59.64375 205.17729 58.89375 204.52104Q58.159374 203.86479 58.05 202.78667ZM65.05 200.80229Q65.05 199.27104 65.3625 198.34917Q65.675 197.41167 66.28438 196.91167Q66.90938 196.41167 67.84688 196.41167Q68.53438 196.41167 69.05 196.69292Q69.58125 196.97417 69.925 197.50542Q70.26875 198.02104 70.45625 198.77104Q70.64375 199.52104 70.64375 200.80229Q70.64375 202.31792 70.33125 203.23979Q70.03438 204.16167 69.40938 204.67729Q68.8 205.17729 67.84688 205.17729Q66.6125 205.17729 65.89375 204.28667Q65.05 203.22417 65.05 200.80229ZM66.12813 200.80229Q66.12813 202.91167 66.62813 203.61479Q67.12813 204.31792 67.84688 204.31792Q68.58125 204.31792 69.06563 203.61479Q69.56563 202.91167 69.56563 200.80229Q69.56563 198.67729 69.06563 197.98979Q68.58125 197.28667 67.83125 197.28667Q67.1125 197.28667 66.675 197.89604Q66.12813 198.67729 66.12813 200.80229ZM72.05 200.80229Q72.05 199.27104 72.3625 198.34917Q72.675 197.41167 73.28438 196.91167Q73.90938 196.41167 74.84688 196.41167Q75.53438 196.41167 76.05 196.69292Q76.58125 196.97417 76.925 197.50542Q77.26875 198.02104 77.45625 198.77104Q77.64375 199.52104 77.64375 200.80229Q77.64375 202.31792 77.33125 203.23979Q77.03438 204.16167 76.40938 204.67729Q75.8 205.17729 74.84688 205.17729Q73.6125 205.17729 72.89375 204.28667Q72.05 203.22417 72.05 200.80229ZM73.12813 200.80229Q73.12813 202.91167 73.62813 203.61479Q74.12813 204.31792 74.84688 204.31792Q75.58125 204.31792 76.06563 203.61479Q76.56563 202.91167 76.56563 200.80229Q76.56563 198.67729 76.06563 197.98979Q75.58125 197.28667 74.83125 197.28667Q74.1125 197.28667 73.675 197.89604Q73.12813 198.67729 73.12813 200.80229ZM79.05 200.80229Q79.05 199.27104 79.3625 198.34917Q79.675 197.41167 80.28438 196.91167Q80.90938 196.41167 81.84688 196.41167Q82.53438 196.41167 83.05 196.69292Q83.58125 196.97417 83.925 197.50542Q84.26875 198.02104 84.45625 198.77104Q84.64375 199.52104 84.64375 200.80229Q84.64375 202.31792 84.33125 203.23979Q84.03438 204.16167 83.40938 204.67729Q82.8 205.17729 81.84688 205.17729Q80.6125 205.17729 79.89375 204.28667Q79.05 203.22417 79.05 200.80229ZM80.12813 200.80229Q80.12813 202.91167 80.62813 203.61479Q81.12813 204.31792 81.84688 204.31792Q82.58125 204.31792 83.06563 203.61479Q83.56563 202.91167 83.56563 200.80229Q83.56563 198.67729 83.06563 197.98979Q82.58125 197.28667 81.83125 197.28667Q81.1125 197.28667 80.675 197.89604Q80.12813 198.67729 80.12813 200.80229ZM86.05 200.80229Q86.05 199.27104 86.3625 198.34917Q86.675 197.41167 87.28438 196.91167Q87.90938 196.41167 88.84688 196.41167Q89.53438 196.41167 90.05 196.69292Q90.58125 196.97417 90.925 197.50542Q91.26875 198.02104 91.45625 198.77104Q91.64375 199.52104 91.64375 200.80229Q91.64375 202.31792 91.33125 203.23979Q91.03438 204.16167 90.40938 204.67729Q89.8 205.17729 88.84688 205.17729Q87.6125 205.17729 86.89375 204.28667Q86.05 203.22417 86.05 200.80229ZM87.12813 200.80229Q87.12813 202.91167 87.62813 203.61479Q88.12813 204.31792 88.84688 204.31792Q89.58125 204.31792 90.06563 203.61479Q90.56563 202.91167 90.56563 200.80229Q90.56563 198.67729 90.06563 197.98979Q89.58125 197.28667 88.83125 197.28667Q88.1125 197.28667 87.675 197.89604Q87.12813 198.67729 87.12813 200.80229ZM93.05 200.80229Q93.05 199.27104 93.3625 198.34917Q93.675 197.41167 94.28438 196.91167Q94.90938 196.41167 95.84688 196.41167Q96.53438 196.41167 97.05 196.69292Q97.58125 196.97417 97.925 197.50542Q98.26875 198.02104 98.45625 198.77104Q98.64375 199.52104 98.64375 200.80229Q98.64375 202.31792 98.33125 203.23979Q98.03438 204.16167 97.40938 204.67729Q96.8 205.17729 95.84688 205.17729Q94.6125 205.17729 93.89375 204.28667Q93.05 203.22417 93.05 200.80229ZM94.12813 200.80229Q94.12813 202.91167 94.62813 203.61479Q95.12813 204.31792 95.84688 204.31792Q96.58125 204.31792 97.06563 203.61479Q97.56563 202.91167 97.56563 200.80229Q97.56563 198.67729 97.06563 197.98979Q96.58125 197.28667 95.83125 197.28667Q95.1125 197.28667 94.675 197.89604Q94.12813 198.67729 94.12813 200.80229Z" fill-rule="nonzero"/><path fill="#000000" d="M58.1125 147.86125L58.1125 146.84563L63.675 146.84563L63.675 147.67375Q62.8625 148.54875 62.05 150.00188Q61.253124 151.43938 60.815624 152.97063Q60.4875 154.04875 60.409374 155.33L59.315624 155.33Q59.33125 154.31438 59.70625 152.87688Q60.096874 151.43938 60.8 150.11125Q61.51875 148.78313 62.33125 147.86125L58.1125 147.86125ZM65.05 153.08L66.15938 152.98625Q66.28438 153.79875 66.72188 154.205Q67.175 154.61125 67.81563 154.61125Q68.56563 154.61125 69.09688 154.03313Q69.62813 153.455 69.62813 152.5175Q69.62813 151.61125 69.1125 151.09563Q68.6125 150.56438 67.78438 150.56438Q67.28438 150.56438 66.8625 150.79875Q66.45625 151.03313 66.22188 151.3925L65.2375 151.2675L66.06563 146.86125L70.34688 146.86125L70.34688 147.86125L66.90938 147.86125L66.45625 150.17375Q67.22188 149.62688 68.06563 149.62688Q69.19063 149.62688 69.95625 150.40813Q70.7375 151.18938 70.7375 152.42375Q70.7375 153.58 70.06563 154.43938Q69.2375 155.47063 67.81563 155.47063Q66.64375 155.47063 65.89375 154.81438Q65.15938 154.15813 65.05 153.08ZM72.05 151.09563Q72.05 149.56438 72.3625 148.6425Q72.675 147.705 73.28438 147.205Q73.90938 146.705 74.84688 146.705Q75.53438 146.705 76.05 146.98625Q76.58125 147.2675 76.925 147.79875Q77.26875 148.31438 77.45625 149.06438Q77.64375 149.81438 77.64375 151.09563Q77.64375 152.61125 77.33125 153.53313Q77.03438 154.455 76.40938 154.97063Q75.8 155.47063 74.84688 155.47063Q73.6125 155.47063 72.89375 154.58Q72.05 153.5175 72.05 151.09563ZM73.12813 151.09563Q73.12813 153.205 73.62813 153.90813Q74.12813 154.61125 74.84688 154.61125Q75.58125 154.61125 76.06563 153.90813Q76.56563 153.205 76.56563 151.09563Q76.56563 148.97063 76.06563 148.28313Q75.58125 147.58 74.83125 147.58Q74.1125 147.58 73.675 148.18938Q73.12813 148.97063 73.12813 151.09563ZM79.05 151.09563Q79.05 149.56438 79.3625 148.6425Q79.675 147.705 80.28438 147.205Q80.90938 146.705 81.84688 146.705Q82.53438 146.705 83.05 146.98625Q83.58125 147.2675 83.925 147.79875Q84.26875 148.31438 84.45625 149.06438Q84.64375 149.81438 84.64375 151.09563Q84.64375 152.61125 84.33125 153.53313Q84.03438 154.455 83.40938 154.97063Q82.8 155.47063 81.84688 155.47063Q80.6125 155.47063 79.89375 154.58Q79.05 153.5175 79.05 151.09563ZM80.12813 151.09563Q80.12813 153.205 80.62813 153.90813Q81.12813 154.61125 81.84688 154.61125Q82.58125 154.61125 83.06563 153.90813Q83.56563 153.205 83.56563 151.09563Q83.56563 148.97063 83.06563 148.28313Q82.58125 147.58 81.83125 147.58Q81.1125 147.58 80.675 148.18938Q80.12813 148.97063 80.12813 151.09563ZM86.05 151.09563Q86.05 149.56438 86.3625 148.6425Q86.675 147.705 87.28438 147.205Q87.90938 146.705 88.84688 146.705Q89.53438 146.705 90.05 146.98625Q90.58125 147.2675 90.925 147.79875Q91.26875 148.31438 91.45625 149.06438Q91.64375 149.81438 91.64375 151.09563Q91.64375 152.61125 91.33125 153.53313Q91.03438 154.455 90.40938 154.97063Q89.8 155.47063 88.84688 155.47063Q87.6125 155.47063 86.89375 154.58Q86.05 153.5175 86.05 151.09563ZM87.12813 151.09563Q87.12813 153.205 87.62813 153.90813Q88.12813 154.61125 88.84688 154.61125Q89.58125 154.61125 90.06563 153.90813Q90.56563 153.205 90.56563 151.09563Q90.56563 148.97063 90.06563 148.28313Q89.58125 147.58 88.83125 147.58Q88.1125 147.58 87.675 148.18938Q87.12813 148.97063 87.12813 151.09563ZM93.05 151.09563Q93.05 149.56438 93.3625 148.6425Q93.675 147.705 94.28438 147.205Q94.90938 146.705 95.84688 146.705Q96.53438 146.705 97.05 146.98625Q97.58125 147.2675 97.925 147.79875Q98.26875 148.31438 98.45625 149.06438Q98.64375 149.81438 98.64375 151.09563Q98.64375 152.61125 98.33125 153.53313Q98.03438 154.455 97.40938 154.97063Q96.8 155.47063 95.84688 155.47063Q94.6125 155.47063 93.89375 154.58Q93.05 153.5175 93.05 151.09563ZM94.12813 151.09563Q94.12813 153.205 94.62813 153.90813Q95.12813 154.61125 95.84688 154.61125Q96.58125 154.61125 97.06563 153.90813Q97.56563 153.205 97.56563 151.09563Q97.56563 148.97063 97.06563 148.28313Q96.58125 147.58 95.83125 147.58Q95.1125 147.58 94.675 148.18938Q94.12813 148.97063 94.12813 151.09563Z" fill-rule="nonzero"/><path fill="#000000" d="M55.01875 105.62334L53.971874 105.62334L53.971874 98.90459Q53.58125 99.26396 52.95625 99.63896Q52.346874 99.99834 51.8625 100.17021L51.8625 99.15459Q52.7375 98.73271 53.39375 98.15459Q54.065624 97.56084 54.346874 96.99834L55.01875 96.99834L55.01875 105.62334ZM58.05 101.38896Q58.05 99.85771 58.3625 98.93584Q58.675 97.99834 59.284374 97.49834Q59.909374 96.99834 60.846874 96.99834Q61.534374 96.99834 62.05 97.27959Q62.58125 97.56084 62.925 98.09209Q63.26875 98.60771 63.45625 99.35771Q63.64375 100.10771 63.64375 101.38896Q63.64375 102.90459 63.33125 103.82646Q63.034374 104.74834 62.409374 105.26396Q61.8 105.76396 60.846874 105.76396Q59.6125 105.76396 58.89375 104.87334Q58.05 103.81084 58.05 101.38896ZM59.128124 101.38896Q59.128124 103.49834 59.628124 104.20146Q60.128124 104.90459 60.846874 104.90459Q61.58125 104.90459 62.065624 104.20146Q62.565624 103.49834 62.565624 101.38896Q62.565624 99.26396 62.065624 98.57646Q61.58125 97.87334 60.83125 97.87334Q60.1125 97.87334 59.675 98.48271Q59.128124 99.26396 59.128124 101.38896ZM65.05 101.38896Q65.05 99.85771 65.3625 98.93584Q65.675 97.99834 66.28438 97.49834Q66.90938 96.99834 67.84688 96.99834Q68.53438 96.99834 69.05 97.27959Q69.58125 97.56084 69.925 98.09209Q70.26875 98.60771 70.45625 99.35771Q70.64375 100.10771 70.64375 101.38896Q70.64375 102.90459 70.33125 103.82646Q70.03438 104.74834 69.40938 105.26396Q68.8 105.76396 67.84688 105.76396Q66.6125 105.76396 65.89375 104.87334Q65.05 103.81084 65.05 101.38896ZM66.12813 101.38896Q66.12813 103.49834 66.62813 104.20146Q67.12813 104.90459 67.84688 104.90459Q68.58125 104.90459 69.06563 104.20146Q69.56563 103.49834 69.56563 101.38896Q69.56563 99.26396 69.06563 98.57646Q68.58125 97.87334 67.83125 97.87334Q67.1125 97.87334 66.675 98.48271Q66.12813 99.26396 66.12813 101.38896ZM72.05 101.38896Q72.05 99.85771 72.3625 98.93584Q72.675 97.99834 73.28438 97.49834Q73.90938 96.99834 74.84688 96.99834Q75.53438 96.99834 76.05 97.27959Q76.58125 97.56084 76.925 98.09209Q77.26875 98.60771 77.45625 99.35771Q77.64375 100.10771 77.64375 101.38896Q77.64375 102.90459 77.33125 103.82646Q77.03438 104.74834 76.40938 105.26396Q75.8 105.76396 74.84688 105.76396Q73.6125 105.76396 72.89375 104.87334Q72.05 103.81084 72.05 101.38896ZM73.12813 101.38896Q73.12813 103.49834 73.62813 104.20146Q74.12813 104.90459 74.84688 104.90459Q75.58125 104.90459 76.06563 104.20146Q76.56563 103.49834 76.56563 101.38896Q76.56563 99.26396 76.06563 98.57646Q75.58125 97.87334 74.83125 97.87334Q74.1125 97.87334 73.675 98.48271Q73.12813 99.26396 73.12813 101.38896ZM79.05 101.38896Q79.05 99.85771 79.3625 98.93584Q79.675 97.99834 80.28438 97.49834Q80.90938 96.99834 81.84688 96.99834Q82.53438 96.99834 83.05 97.27959Q83.58125 97.56084 83.925 98.09209Q84.26875 98.60771 84.45625 99.35771Q84.64375 100.10771 84.64375 101.38896Q84.64375 102.90459 84.33125 103.82646Q84.03438 104.74834 83.40938 105.26396Q82.8 105.76396 81.84688 105.76396Q80.6125 105.76396 79.89375 104.87334Q79.05 103.81084 79.05 101.38896ZM80.12813 101.38896Q80.12813 103.49834 80.62813 104.20146Q81.12813 104.90459 81.84688 104.90459Q82.58125 104.90459 83.06563 104.20146Q83.56563 103.49834 83.56563 101.38896Q83.56563 99.26396 83.06563 98.57646Q82.58125 97.87334 81.83125 97.87334Q81.1125 97.87334 80.675 98.48271Q80.12813 99.26396 80.12813 101.38896ZM86.05 101.38896Q86.05 99.85771 86.3625 98.93584Q86.675 97.99834 87.28438 97.49834Q87.90938 96.99834 88.84688 96.99834Q89.53438 96.99834 90.05 97.27959Q90.58125 97.56084 90.925 98.09209Q91.26875 98.60771 91.45625 99.35771Q91.64375 100.10771 91.64375 101.38896Q91.64375 102.90459 91.33125 103.82646Q91.03438 104.74834 90.40938 105.26396Q89.8 105.76396 88.84688 105.76396Q87.6125 105.76396 86.89375 104.87334Q86.05 103.81084 86.05 101.38896ZM87.12813 101.38896Q87.12813 103.49834 87.62813 104.20146Q88.12813 104.90459 88.84688 104.90459Q89.58125 104.90459 90.06563 104.20146Q90.56563 103.49834 90.56563 101.38896Q90.56563 99.26396 90.06563 98.57646Q89.58125 97.87334 88.83125 97.87334Q88.1125 97.87334 87.675 98.48271Q87.12813 99.26396 87.12813 101.38896ZM93.05 101.38896Q93.05 99.85771 93.3625 98.93584Q93.675 97.99834 94.28438 97.49834Q94.90938 96.99834 95.84688 96.99834Q96.53438 96.99834 97.05 97.27959Q97.58125 97.56084 97.925 98.09209Q98.26875 98.60771 98.45625 99.35771Q98.64375 100.10771 98.64375 101.38896Q98.64375 102.90459 98.33125 103.82646Q98.03438 104.74834 97.40938 105.26396Q96.8 105.76396 95.84688 105.76396Q94.6125 105.76396 93.89375 104.87334Q93.05 103.81084 93.05 101.38896ZM94.12813 101.38896Q94.12813 103.49834 94.62813 104.20146Q95.12813 104.90459 95.84688 104.90459Q96.58125 104.90459 97.06563 104.20146Q97.56563 103.49834 97.56563 101.38896Q97.56563 99.26396 97.06563 98.57646Q96.58125 97.87334 95.83125 97.87334Q95.1125 97.87334 94.675 98.48271Q94.12813 99.26396 94.12813 101.38896Z" fill-rule="nonzero"/><path fill="#000000" d="M55.01875 55.916668L53.971874 55.916668L53.971874 49.197918Q53.58125 49.557293 52.95625 49.932293Q52.346874 50.291668 51.8625 50.463543L51.8625 49.447918Q52.7375 49.026043 53.39375 48.447918Q54.065624 47.854168 54.346874 47.291668L55.01875 47.291668L55.01875 55.916668ZM63.596874 54.901043L63.596874 55.916668L57.909374 55.916668Q57.909374 55.541668 58.034374 55.182293Q58.253124 54.604168 58.721874 54.041668Q59.20625 53.479168 60.1125 52.744793Q61.51875 51.588543 62.003124 50.916668Q62.503124 50.244793 62.503124 49.651043Q62.503124 49.026043 62.05 48.604168Q61.596874 48.166668 60.878124 48.166668Q60.1125 48.166668 59.659374 48.619793Q59.20625 49.072918 59.190624 49.885418L58.1125 49.776043Q58.221874 48.557293 58.940624 47.932293Q59.675 47.291668 60.909374 47.291668Q62.14375 47.291668 62.8625 47.979168Q63.58125 48.666668 63.58125 49.682293Q63.58125 50.197918 63.3625 50.697918Q63.159374 51.182293 62.659374 51.744793Q62.175 52.291668 61.05 53.244793Q60.096874 54.041668 59.815624 54.338543Q59.55 54.619793 59.378124 54.901043L63.596874 54.901043ZM65.05 53.666668L66.15938 53.572918Q66.28438 54.385418 66.72188 54.791668Q67.175 55.197918 67.81563 55.197918Q68.56563 55.197918 69.09688 54.619793Q69.62813 54.041668 69.62813 53.104168Q69.62813 52.197918 69.1125 51.682293Q68.6125 51.151043 67.78438 51.151043Q67.28438 51.151043 66.8625 51.385418Q66.45625 51.619793 66.22188 51.979168L65.2375 51.854168L66.06563 47.447918L70.34688 47.447918L70.34688 48.447918L66.90938 48.447918L66.45625 50.760418Q67.22188 50.213543 68.06563 50.213543Q69.19063 50.213543 69.95625 50.994793Q70.7375 51.776043 70.7375 53.010418Q70.7375 54.166668 70.06563 55.026043Q69.2375 56.057293 67.81563 56.057293Q66.64375 56.057293 65.89375 55.401043Q65.15938 54.744793 65.05 53.666668ZM72.05 51.682293Q72.05 50.151043 72.3625 49.229168Q72.675 48.291668 73.28438 47.791668Q73.90938 47.291668 74.84688 47.291668Q75.53438 47.291668 76.05 47.572918Q76.58125 47.854168 76.925 48.385418Q77.26875 48.901043 77.45625 49.651043Q77.64375 50.401043 77.64375 51.682293Q77.64375 53.197918 77.33125 54.119793Q77.03438 55.041668 76.40938 55.557293Q75.8 56.057293 74.84688 56.057293Q73.6125 56.057293 72.89375 55.166668Q72.05 54.104168 72.05 51.682293ZM73.12813 51.682293Q73.12813 53.791668 73.62813 54.494793Q74.12813 55.197918 74.84688 55.197918Q75.58125 55.197918 76.06563 54.494793Q76.56563 53.791668 76.56563 51.682293Q76.56563 49.557293 76.06563 48.869793Q75.58125 48.166668 74.83125 48.166668Q74.1125 48.166668 73.675 48.776043Q73.12813 49.557293 73.12813 51.682293ZM79.05 51.682293Q79.05 50.151043 79.3625 49.229168Q79.675 48.291668 80.28438 47.791668Q80.90938 47.291668 81.84688 47.291668Q82.53438 47.291668 83.05 47.572918Q83.58125 47.854168 83.925 48.385418Q84.26875 48.901043 84.45625 49.651043Q84.64375 50.401043 84.64375 51.682293Q84.64375 53.197918 84.33125 54.119793Q84.03438 55.041668 83.40938 55.557293Q82.8 56.057293 81.84688 56.057293Q80.6125 56.057293 79.89375 55.166668Q79.05 54.104168 79.05 51.682293ZM80.12813 51.682293Q80.12813 53.791668 80.62813 54.494793Q81.12813 55.197918 81.84688 55.197918Q82.58125 55.197918 83.06563 54.494793Q83.56563 53.791668 83.56563 51.682293Q83.56563 49.557293 83.06563 48.869793Q82.58125 48.166668 81.83125 48.166668Q81.1125 48.166668 80.675 48.776043Q80.12813 49.557293 80.12813 51.682293ZM86.05 51.682293Q86.05 50.151043 86.3625 49.229168Q86.675 48.291668 87.28438 47.791668Q87.90938 47.291668 88.84688 47.291668Q89.53438 47.291668 90.05 47.572918Q90.58125 47.854168 90.925 48.385418Q91.26875 48.901043 91.45625 49.651043Q91.64375 50.401043 91.64375 51.682293Q91.64375 53.197918 91.33125 54.119793Q91.03438 55.041668 90.40938 55.557293Q89.8 56.057293 88.84688 56.057293Q87.6125 56.057293 86.89375 55.166668Q86.05 54.104168 86.05 51.682293ZM87.12813 51.682293Q87.12813 53.791668 87.62813 54.494793Q88.12813 55.197918 88.84688 55.197918Q89.58125 55.197918 90.06563 54.494793Q90.56563 53.791668 90.56563 51.682293Q90.56563 49.557293 90.06563 48.869793Q89.58125 48.166668 88.83125 48.166668Q88.1125 48.166668 87.675 48.776043Q87.12813 49.557293 87.12813 51.682293ZM93.05 51.682293Q93.05 50.151043 93.3625 49.229168Q93.675 48.291668 94.28438 47.791668Q94.90938 47.291668 95.84688 47.291668Q96.53438 47.291668 97.05 47.572918Q97.58125 47.854168 97.925 48.385418Q98.26875 48.901043 98.45625 49.651043Q98.64375 50.401043 98.64375 51.682293Q98.64375 53.197918 98.33125 54.119793Q98.03438 55.041668 97.40938 55.557293Q96.8 56.057293 95.84688 56.057293Q94.6125 56.057293 93.89375 55.166668Q93.05 54.104168 93.05 51.682293ZM94.12813 51.682293Q94.12813 53.791668 94.62813 54.494793Q95.12813 55.197918 95.84688 55.197918Q96.58125 55.197918 97.06563 54.494793Q97.56563 53.791668 97.56563 51.682293Q97.56563 49.557293 97.06563 48.869793Q96.58125 48.166668 95.83125 48.166668Q95.1125 48.166668 94.675 48.776043Q94.12813 49.557293 94.12813 51.682293Z" fill-rule="nonzero"/><path fill="#000000" d="M153.1378 313.21564Q153.1378 311.6844 153.4503 310.7625Q153.7628 309.825 154.37218 309.325Q154.99718 308.825 155.93468 308.825Q156.62218 308.825 157.1378 309.10626Q157.66905 309.3875 158.0128 309.91876Q158.35655 310.4344 158.54405 311.1844Q158.73155 311.9344 158.73155 313.21564Q158.73155 314.73126 158.41905 315.65314Q158.12218 316.575 157.49718 317.09064Q156.8878 317.59064 155.93468 317.59064Q154.7003 317.59064 153.98155 316.7Q153.1378 315.6375 153.1378 313.21564ZM154.21593 313.21564Q154.21593 315.325 154.71593 316.02814Q155.21593 316.73126 155.93468 316.73126Q156.66905 316.73126 157.15343 316.02814Q157.65343 315.325 157.65343 313.21564Q157.65343 311.09064 157.15343 310.40314Q156.66905 309.7 155.91905 309.7Q155.2003 309.7 154.7628 310.3094Q154.21593 311.09064 154.21593 313.21564Z" fill-rule="nonzero"/><path fill="#000000" d="M228.55142 317.45L227.50455 317.45L227.50455 310.73126Q227.11392 311.09064 226.48892 311.46564Q225.87955 311.825 225.39517 311.9969L225.39517 310.98126Q226.27017 310.5594 226.92642 309.98126Q227.5983 309.3875 227.87955 308.825L228.55142 308.825L228.55142 317.45ZM231.58267 313.21564Q231.58267 311.6844 231.89517 310.7625Q232.20767 309.825 232.81705 309.325Q233.44205 308.825 234.37955 308.825Q235.06705 308.825 235.58267 309.10626Q236.11392 309.3875 236.45767 309.91876Q236.80142 310.4344 236.98892 311.1844Q237.17642 311.9344 237.17642 313.21564Q237.17642 314.73126 236.86392 315.65314Q236.56705 316.575 235.94205 317.09064Q235.33267 317.59064 234.37955 317.59064Q233.14517 317.59064 232.42642 316.7Q231.58267 315.6375 231.58267 313.21564ZM232.6608 313.21564Q232.6608 315.325 233.1608 316.02814Q233.6608 316.73126 234.37955 316.73126Q235.11392 316.73126 235.5983 316.02814Q236.0983 315.325 236.0983 313.21564Q236.0983 311.09064 235.5983 310.40314Q235.11392 309.7 234.36392 309.7Q233.64517 309.7 233.20767 310.3094Q232.6608 311.09064 232.6608 313.21564Z" fill-rule="nonzero"/><path fill="#000000" d="M299.9963 317.45L298.94943 317.45L298.94943 310.73126Q298.5588 311.09064 297.9338 311.46564Q297.32443 311.825 296.84006 311.9969L296.84006 310.98126Q297.71506 310.5594 298.3713 309.98126Q299.04318 309.3875 299.32443 308.825L299.9963 308.825L299.9963 317.45ZM303.02756 313.21564Q303.02756 311.6844 303.34006 310.7625Q303.65256 309.825 304.26193 309.325Q304.88693 308.825 305.82443 308.825Q306.51193 308.825 307.02756 309.10626Q307.5588 309.3875 307.90256 309.91876Q308.2463 310.4344 308.4338 311.1844Q308.6213 311.9344 308.6213 313.21564Q308.6213 314.73126 308.3088 315.65314Q308.01193 316.575 307.38693 317.09064Q306.77756 317.59064 305.82443 317.59064Q304.59006 317.59064 303.8713 316.7Q303.02756 315.6375 303.02756 313.21564ZM304.10568 313.21564Q304.10568 315.325 304.60568 316.02814Q305.10568 316.73126 305.82443 316.73126Q306.5588 316.73126 307.04318 316.02814Q307.54318 315.325 307.54318 313.21564Q307.54318 311.09064 307.04318 310.40314Q306.5588 309.7 305.8088 309.7Q305.09006 309.7 304.65256 310.3094Q304.10568 311.09064 304.10568 313.21564ZM310.02756 313.21564Q310.02756 311.6844 310.34006 310.7625Q310.65256 309.825 311.26193 309.325Q311.88693 308.825 312.82443 308.825Q313.51193 308.825 314.02756 309.10626Q314.5588 309.3875 314.90256 309.91876Q315.2463 310.4344 315.4338 311.1844Q315.6213 311.9344 315.6213 313.21564Q315.6213 314.73126 315.3088 315.65314Q315.01193 316.575 314.38693 317.09064Q313.77756 317.59064 312.82443 317.59064Q311.59006 317.59064 310.8713 316.7Q310.02756 315.6375 310.02756 313.21564ZM311.10568 313.21564Q311.10568 315.325 311.60568 316.02814Q312.10568 316.73126 312.82443 316.73126Q313.5588 316.73126 314.04318 316.02814Q314.54318 315.325 314.54318 313.21564Q314.54318 311.09064 314.04318 310.40314Q313.5588 309.7 312.8088 309.7Q312.09006 309.7 311.65256 310.3094Q311.10568 311.09064 311.10568 313.21564Z" fill-rule="nonzero"/><path fill="#000000" d="M371.4412 317.45L370.39432 317.45L370.39432 310.73126Q370.0037 311.09064 369.3787 311.46564Q368.76932 311.825 368.28494 311.9969L368.28494 310.98126Q369.15994 310.5594 369.8162 309.98126Q370.48807 309.3875 370.76932 308.825L371.4412 308.825L371.4412 317.45ZM374.47244 313.21564Q374.47244 311.6844 374.78494 310.7625Q375.09744 309.825 375.70682 309.325Q376.33182 308.825 377.26932 308.825Q377.95682 308.825 378.47244 309.10626Q379.0037 309.3875 379.34744 309.91876Q379.6912 310.4344 379.8787 311.1844Q380.0662 311.9344 380.0662 313.21564Q380.0662 314.73126 379.7537 315.65314Q379.45682 316.575 378.83182 317.09064Q378.22244 317.59064 377.26932 317.59064Q376.03494 317.59064 375.3162 316.7Q374.47244 315.6375 374.47244 313.21564ZM375.55057 313.21564Q375.55057 315.325 376.05057 316.02814Q376.55057 316.73126 377.26932 316.73126Q378.0037 316.73126 378.48807 316.02814Q378.98807 315.325 378.98807 313.21564Q378.98807 311.09064 378.48807 310.40314Q378.0037 309.7 377.2537 309.7Q376.53494 309.7 376.09744 310.3094Q375.55057 311.09064 375.55057 313.21564ZM381.47244 313.21564Q381.47244 311.6844 381.78494 310.7625Q382.09744 309.825 382.70682 309.325Q383.33182 308.825 384.26932 308.825Q384.95682 308.825 385.47244 309.10626Q386.0037 309.3875 386.34744 309.91876Q386.6912 310.4344 386.8787 311.1844Q387.0662 311.9344 387.0662 313.21564Q387.0662 314.73126 386.7537 315.65314Q386.45682 316.575 385.83182 317.09064Q385.22244 317.59064 384.26932 317.59064Q383.03494 317.59064 382.3162 316.7Q381.47244 315.6375 381.47244 313.21564ZM382.55057 313.21564Q382.55057 315.325 383.05057 316.02814Q383.55057 316.73126 384.26932 316.73126Q385.0037 316.73126 385.48807 316.02814Q385.98807 315.325 385.98807 313.21564Q385.98807 311.09064 385.48807 310.40314Q385.0037 309.7 384.2537 309.7Q383.53494 309.7 383.09744 310.3094Q382.55057 311.09064 382.55057 313.21564ZM388.47244 313.21564Q388.47244 311.6844 388.78494 310.7625Q389.09744 309.825 389.70682 309.325Q390.33182 308.825 391.26932 308.825Q391.95682 308.825 392.47244 309.10626Q393.0037 309.3875 393.34744 309.91876Q393.6912 310.4344 393.8787 311.1844Q394.0662 311.9344 394.0662 313.21564Q394.0662 314.73126 393.7537 315.65314Q393.45682 316.575 392.83182 317.09064Q392.22244 317.59064 391.26932 317.59064Q390.03494 317.59064 389.3162 316.7Q388.47244 315.6375 388.47244 313.21564ZM389.55057 313.21564Q389.55057 315.325 390.05057 316.02814Q390.55057 316.73126 391.26932 316.73126Q392.0037 316.73126 392.48807 316.02814Q392.98807 315.325 392.98807 313.21564Q392.98807 311.09064 392.48807 310.40314Q392.0037 309.7 391.2537 309.7Q390.53494 309.7 390.09744 310.3094Q389.55057 311.09064 389.55057 313.21564Z" fill-rule="nonzero"/><path fill="#000000" d="M442.88608 317.45L441.8392 317.45L441.8392 310.73126Q441.44858 311.09064 440.82358 311.46564Q440.2142 311.825 439.72983 311.9969L439.72983 310.98126Q440.60483 310.5594 441.26108 309.98126Q441.93295 309.3875 442.2142 308.825L442.88608 308.825L442.88608 317.45ZM445.91733 313.21564Q445.91733 311.6844 446.22983 310.7625Q446.54233 309.825 447.1517 309.325Q447.7767 308.825 448.7142 308.825Q449.4017 308.825 449.91733 309.10626Q450.44858 309.3875 450.79233 309.91876Q451.13608 310.4344 451.32358 311.1844Q451.51108 311.9344 451.51108 313.21564Q451.51108 314.73126 451.19858 315.65314Q450.9017 316.575 450.2767 317.09064Q449.66733 317.59064 448.7142 317.59064Q447.47983 317.59064 446.76108 316.7Q445.91733 315.6375 445.91733 313.21564ZM446.99545 313.21564Q446.99545 315.325 447.49545 316.02814Q447.99545 316.73126 448.7142 316.73126Q449.44858 316.73126 449.93295 316.02814Q450.43295 315.325 450.43295 313.21564Q450.43295 311.09064 449.93295 310.40314Q449.44858 309.7 448.69858 309.7Q447.97983 309.7 447.54233 310.3094Q446.99545 311.09064 446.99545 313.21564ZM452.91733 313.21564Q452.91733 311.6844 453.22983 310.7625Q453.54233 309.825 454.1517 309.325Q454.7767 308.825 455.7142 308.825Q456.4017 308.825 456.91733 309.10626Q457.44858 309.3875 457.79233 309.91876Q458.13608 310.4344 458.32358 311.1844Q458.51108 311.9344 458.51108 313.21564Q458.51108 314.73126 458.19858 315.65314Q457.9017 316.575 457.2767 317.09064Q456.66733 317.59064 455.7142 317.59064Q454.47983 317.59064 453.76108 316.7Q452.91733 315.6375 452.91733 313.21564ZM453.99545 313.21564Q453.99545 315.325 454.49545 316.02814Q454.99545 316.73126 455.7142 316.73126Q456.44858 316.73126 456.93295 316.02814Q457.43295 315.325 457.43295 313.21564Q457.43295 311.09064 456.93295 310.40314Q456.44858 309.7 455.69858 309.7Q454.97983 309.7 454.54233 310.3094Q453.99545 311.09064 453.99545 313.21564ZM459.91733 313.21564Q459.91733 311.6844 460.22983 310.7625Q460.54233 309.825 461.1517 309.325Q461.7767 308.825 462.7142 308.825Q463.4017 308.825 463.91733 309.10626Q464.44858 309.3875 464.79233 309.91876Q465.13608 310.4344 465.32358 311.1844Q465.51108 311.9344 465.51108 313.21564Q465.51108 314.73126 465.19858 315.65314Q464.9017 316.575 464.2767 317.09064Q463.66733 317.59064 462.7142 317.59064Q461.47983 317.59064 460.76108 316.7Q459.91733 315.6375 459.91733 313.21564ZM460.99545 313.21564Q460.99545 315.325 461.49545 316.02814Q461.99545 316.73126 462.7142 316.73126Q463.44858 316.73126 463.93295 316.02814Q464.43295 315.325 464.43295 313.21564Q464.43295 311.09064 463.93295 310.40314Q463.44858 309.7 462.69858 309.7Q461.97983 309.7 461.54233 310.3094Q460.99545 311.09064 460.99545 313.21564ZM466.91733 313.21564Q466.91733 311.6844 467.22983 310.7625Q467.54233 309.825 468.1517 309.325Q468.7767 308.825 469.7142 308.825Q470.4017 308.825 470.91733 309.10626Q471.44858 309.3875 471.79233 309.91876Q472.13608 310.4344 472.32358 311.1844Q472.51108 311.9344 472.51108 313.21564Q472.51108 314.73126 472.19858 315.65314Q471.9017 316.575 471.2767 317.09064Q470.66733 317.59064 469.7142 317.59064Q468.47983 317.59064 467.76108 316.7Q466.91733 315.6375 466.91733 313.21564ZM467.99545 313.21564Q467.99545 315.325 468.49545 316.02814Q468.99545 316.73126 469.7142 316.73126Q470.44858 316.73126 470.93295 316.02814Q471.43295 315.325 471.43295 313.21564Q471.43295 311.09064 470.93295 310.40314Q470.44858 309.7 469.69858 309.7Q468.97983 309.7 468.54233 310.3094Q467.99545 311.09064 467.99545 313.21564Z" fill-rule="nonzero"/><path fill="#000000" d="M507.2841 317.45L507.2841 308.85626L508.44034 308.85626L512.95593 315.60626L512.95593 308.85626L514.0497 308.85626L514.0497 317.45L512.8778 317.45L508.3622 310.7L508.3622 317.45L507.2841 317.45ZM515.76843 314.34064Q515.76843 312.60626 516.72156 311.77814Q517.51843 311.09064 518.6747 311.09064Q519.95593 311.09064 520.76843 311.9344Q521.59656 312.7625 521.59656 314.2469Q521.59656 315.45 521.2372 316.1375Q520.8778 316.825 520.1747 317.21564Q519.4872 317.59064 518.6747 317.59064Q517.3778 317.59064 516.5653 316.7625Q515.76843 315.91876 515.76843 314.34064ZM516.84656 314.34064Q516.84656 315.52814 517.3622 316.1219Q517.89343 316.71564 518.6747 316.71564Q519.47156 316.71564 519.9872 316.1219Q520.5028 315.52814 520.5028 314.3094Q520.5028 313.15314 519.97156 312.5594Q519.45593 311.96564 518.6747 311.96564Q517.89343 311.96564 517.3622 312.5594Q516.84656 313.1375 516.84656 314.34064ZM526.15906 310.075L526.15906 308.85626L527.22156 308.85626L527.22156 310.075L526.15906 310.075ZM526.15906 317.45L526.15906 311.23126L527.22156 311.23126L527.22156 317.45L526.15906 317.45ZM529.15906 317.45L529.15906 311.23126L530.09656 311.23126L530.09656 312.10626Q530.78406 311.09064 532.08093 311.09064Q532.64343 311.09064 533.1122 311.29376Q533.59656 311.4969 533.83093 311.825Q534.0653 312.15314 534.15906 312.59064Q534.20593 312.8875 534.20593 313.6219L534.20593 317.45L533.15906 317.45L533.15906 313.66876Q533.15906 313.0125 533.03406 312.7Q532.90906 312.3875 532.59656 312.2Q532.28406 311.9969 531.8622 311.9969Q531.1903 311.9969 530.6903 312.4344Q530.20593 312.85626 530.20593 314.04376L530.20593 317.45L529.15906 317.45ZM540.1903 317.45L540.1903 316.66876Q539.59656 317.59064 538.45593 317.59064Q537.70593 317.59064 537.08093 317.1844Q536.45593 316.7625 536.1122 316.02814Q535.76843 315.29376 535.76843 314.34064Q535.76843 313.41876 536.08093 312.65314Q536.39343 311.8875 537.01843 311.4969Q537.64343 311.09064 538.40906 311.09064Q538.97156 311.09064 539.40906 311.325Q539.84656 311.5594 540.1278 311.9344L540.1278 308.85626L541.1747 308.85626L541.1747 317.45L540.1903 317.45ZM536.8622 314.34064Q536.8622 315.54376 537.3622 316.1375Q537.8622 316.71564 538.5497 316.71564Q539.2372 316.71564 539.72156 316.15314Q540.20593 315.59064 540.20593 314.4344Q540.20593 313.15314 539.70593 312.5594Q539.22156 311.96564 538.5028 311.96564Q537.7997 311.96564 537.33093 312.54376Q536.8622 313.10626 536.8622 314.34064ZM547.40906 315.45L548.5028 315.575Q548.2528 316.52814 547.5497 317.0594Q546.84656 317.59064 545.76843 317.59064Q544.40906 317.59064 543.59656 316.7469Q542.7997 315.90314 542.7997 314.3875Q542.7997 312.825 543.6122 311.96564Q544.4247 311.09064 545.70593 311.09064Q546.95593 311.09064 547.7372 311.9344Q548.53406 312.77814 548.53406 314.325Q548.53406 314.41876 548.53406 314.60626L543.89343 314.60626Q543.95593 315.6375 544.47156 316.1844Q544.9872 316.71564 545.76843 316.71564Q546.34656 316.71564 546.7528 316.41876Q547.1747 316.10626 547.40906 315.45ZM543.95593 313.7469L547.4247 313.7469Q547.3622 312.95 547.03406 312.5594Q546.51843 311.95 545.72156 311.95Q544.9872 311.95 544.4872 312.4344Q544.0028 312.91876 543.95593 313.7469ZM549.45593 317.45L551.72156 314.21564L549.6278 311.23126L550.9403 311.23126L551.89343 312.6844Q552.15906 313.10626 552.33093 313.3875Q552.58093 312.9969 552.7997 312.7L553.84656 311.23126L555.1122 311.23126L552.95593 314.15314L555.26843 317.45L553.9872 317.45L552.70593 315.5125L552.3622 314.9969L550.72156 317.45L549.45593 317.45Z" fill-rule="nonzero"/><path fill="#4285f4" d="M194.5 20.55C194.5 19.997715 194.94771 19.55 195.5 19.55L205.5 19.55C206.05229 19.55 206.5 19.997715 206.5 20.55L206.5 30.55C206.5 31.102285 206.05229 31.55 205.5 31.55L195.5 31.55C194.94771 31.55 194.5 31.102285 194.5 30.55Z" fill-rule="nonzero"/><path fill="#1a1a1a" d="M215.42188 29.55L215.42188 20.95625L218.67188 20.95625Q219.51562 20.95625 219.96875 21.034374Q220.60938 21.14375 221.03125 21.440624Q221.46875 21.7375 221.71875 22.26875Q221.98438 22.8 221.98438 23.440624Q221.98438 24.534374 221.28125 25.3Q220.59375 26.05 218.76562 26.05L216.5625 26.05L216.5625 29.55L215.42188 29.55ZM216.5625 25.05L218.78125 25.05Q219.89062 25.05 220.34375 24.64375Q220.8125 24.221874 220.8125 23.471874Q220.8125 22.940624 220.53125 22.565624Q220.26562 22.175 219.82812 22.05Q219.53125 21.971874 218.76562 21.971874L216.5625 21.971874L216.5625 25.05ZM223.26562 29.55L223.26562 20.95625L224.32812 20.95625L224.32812 29.55L223.26562 29.55ZM230.35938 28.784374Q229.76562 29.284374 229.21875 29.4875Q228.6875 29.690624 228.0625 29.690624Q227.03125 29.690624 226.48438 29.190624Q225.9375 28.690624 225.9375 27.909374Q225.9375 27.45625 226.14062 27.08125Q226.34375 26.690624 226.6875 26.471874Q227.03125 26.2375 227.45312 26.128124Q227.75 26.034374 228.39062 25.95625Q229.65625 25.815624 230.26562 25.596874Q230.26562 25.378124 230.26562 25.33125Q230.26562 24.675 229.96875 24.409374Q229.5625 24.065624 228.76562 24.065624Q228.03125 24.065624 227.67188 24.33125Q227.3125 24.58125 227.14062 25.2375L226.10938 25.096874Q226.25 24.440624 226.57812 24.034374Q226.90625 23.628124 227.51562 23.409374Q228.125 23.190624 228.92188 23.190624Q229.71875 23.190624 230.21875 23.378124Q230.71875 23.565624 230.95312 23.846874Q231.1875 24.128124 231.28125 24.565624Q231.32812 24.83125 231.32812 25.534374L231.32812 26.940624Q231.32812 28.409374 231.39062 28.8Q231.46875 29.190624 231.67188 29.55L230.5625 29.55Q230.40625 29.221874 230.35938 28.784374ZM230.26562 26.425Q229.6875 26.659374 228.54688 26.83125Q227.89062 26.925 227.625 27.05Q227.35938 27.159374 227.20312 27.378124Q227.0625 27.596874 227.0625 27.878124Q227.0625 28.3 227.375 28.58125Q227.70312 28.8625 228.3125 28.8625Q228.92188 28.8625 229.39062 28.596874Q229.875 28.33125 230.09375 27.8625Q230.26562 27.503124 230.26562 26.815624L230.26562 26.425ZM233.29688 29.55L233.29688 23.33125L234.23438 23.33125L234.23438 24.20625Q234.92188 23.190624 236.21875 23.190624Q236.78125 23.190624 237.25 23.39375Q237.73438 23.596874 237.96875 23.925Q238.20312 24.253124 238.29688 24.690624Q238.34375 24.9875 238.34375 25.721874L238.34375 29.55L237.29688 29.55L237.29688 25.76875Q237.29688 25.1125 237.17188 24.8Q237.04688 24.4875 236.73438 24.3Q236.42188 24.096874 236.0 24.096874Q235.32812 24.096874 234.82812 24.534374Q234.34375 24.95625 234.34375 26.14375L234.34375 29.55L233.29688 29.55ZM240.29688 29.55L240.29688 23.33125L241.23438 23.33125L241.23438 24.20625Q241.92188 23.190624 243.21875 23.190624Q243.78125 23.190624 244.25 23.39375Q244.73438 23.596874 244.96875 23.925Q245.20312 24.253124 245.29688 24.690624Q245.34375 24.9875 245.34375 25.721874L245.34375 29.55L244.29688 29.55L244.29688 25.76875Q244.29688 25.1125 244.17188 24.8Q244.04688 24.4875 243.73438 24.3Q243.42188 24.096874 243.0 24.096874Q242.32812 24.096874 241.82812 24.534374Q241.34375 24.95625 241.34375 26.14375L241.34375 29.55L240.29688 29.55ZM247.29688 22.175L247.29688 20.95625L248.35938 20.95625L248.35938 22.175L247.29688 22.175ZM247.29688 29.55L247.29688 23.33125L248.35938 23.33125L248.35938 29.55L247.29688 29.55ZM250.29688 29.55L250.29688 23.33125L251.23438 23.33125L251.23438 24.20625Q251.92188 23.190624 253.21875 23.190624Q253.78125 23.190624 254.25 23.39375Q254.73438 23.596874 254.96875 23.925Q255.20312 24.253124 255.29688 24.690624Q255.34375 24.9875 255.34375 25.721874L255.34375 29.55L254.29688 29.55L254.29688 25.76875Q254.29688 25.1125 254.17188 24.8Q254.04688 24.4875 253.73438 24.3Q253.42188 24.096874 253.0 24.096874Q252.32812 24.096874 251.82812 24.534374Q251.34375 24.95625 251.34375 26.14375L251.34375 29.55L250.29688 29.55ZM257.09375 30.065624L258.125 30.221874Q258.1875 30.690624 258.48438 30.909374Q258.875 31.20625 259.54688 31.20625Q260.28125 31.20625 260.67188 30.909374Q261.07812 30.6125 261.21875 30.096874Q261.3125 29.76875 261.29688 28.7375Q260.60938 29.55 259.57812 29.55Q258.29688 29.55 257.59375 28.628124Q256.89062 27.690624 256.89062 26.409374Q256.89062 25.51875 257.20312 24.76875Q257.53125 24.003124 258.14062 23.596874Q258.75 23.190624 259.57812 23.190624Q260.6875 23.190624 261.40625 24.08125L261.40625 23.33125L262.375 23.33125L262.375 28.70625Q262.375 30.159374 262.07812 30.76875Q261.78125 31.378124 261.14062 31.721874Q260.5 32.08125 259.5625 32.08125Q258.45312 32.08125 257.76562 31.58125Q257.07812 31.08125 257.09375 30.065624ZM257.96875 26.33125Q257.96875 27.55 258.45312 28.1125Q258.9375 28.675 259.67188 28.675Q260.40625 28.675 260.89062 28.1125Q261.39062 27.55 261.39062 26.3625Q261.39062 25.221874 260.875 24.64375Q260.375 24.065624 259.65625 24.065624Q258.95312 24.065624 258.45312 24.64375Q257.96875 25.20625 257.96875 26.33125ZM269.59375 28.6125L269.75 29.534374Q269.29688 29.628124 268.95312 29.628124Q268.375 29.628124 268.0625 29.45625Q267.75 29.26875 267.60938 28.971874Q267.48438 28.675 267.48438 27.721874L267.48438 24.14375L266.71875 24.14375L266.71875 23.33125L267.48438 23.33125L267.48438 21.784374L268.53125 21.159374L268.53125 23.33125L269.59375 23.33125L269.59375 24.14375L268.53125 24.14375L268.53125 27.784374Q268.53125 28.2375 268.57812 28.3625Q268.64062 28.4875 268.76562 28.565624Q268.89062 28.64375 269.125 28.64375Q269.3125 28.64375 269.59375 28.6125ZM270.29688 22.175L270.29688 20.95625L271.35938 20.95625L271.35938 22.175L270.29688 22.175ZM270.29688 29.55L270.29688 23.33125L271.35938 23.33125L271.35938 29.55L270.29688 29.55ZM273.29688 29.55L273.29688 23.33125L274.23438 23.33125L274.23438 24.20625Q274.53125 23.7375 275.01562 23.471874Q275.5 23.190624 276.125 23.190624Q276.8125 23.190624 277.25 23.471874Q277.70312 23.753124 277.875 24.26875Q278.625 23.190624 279.79688 23.190624Q280.73438 23.190624 281.21875 23.70625Q281.71875 24.20625 281.71875 25.284374L281.71875 29.55L280.67188 29.55L280.67188 25.628124Q280.67188 25.003124 280.5625 24.721874Q280.46875 24.440624 280.20312 24.26875Q279.9375 24.096874 279.5625 24.096874Q278.90625 24.096874 278.46875 24.534374Q278.04688 24.971874 278.04688 25.940624L278.04688 29.55L276.98438 29.55L276.98438 25.503124Q276.98438 24.8 276.71875 24.45625Q276.46875 24.096874 275.89062 24.096874Q275.4375 24.096874 275.0625 24.33125Q274.6875 24.565624 274.51562 25.01875Q274.34375 25.471874 274.34375 26.315624L274.34375 29.55L273.29688 29.55ZM287.54688 27.55L288.64062 27.675Q288.39062 28.628124 287.6875 29.159374Q286.98438 29.690624 285.90625 29.690624Q284.54688 29.690624 283.73438 28.846874Q282.9375 28.003124 282.9375 26.4875Q282.9375 24.925 283.75 24.065624Q284.5625 23.190624 285.84375 23.190624Q287.09375 23.190624 287.875 24.034374Q288.67188 24.878124 288.67188 26.425Q288.67188 26.51875 288.67188 26.70625L284.03125 26.70625Q284.09375 27.7375 284.60938 28.284374Q285.125 28.815624 285.90625 28.815624Q286.48438 28.815624 286.89062 28.51875Q287.3125 28.20625 287.54688 27.55ZM284.09375 25.846874L287.5625 25.846874Q287.5 25.05 287.17188 24.659374Q286.65625 24.05 285.85938 24.05Q285.125 24.05 284.625 24.534374Q284.14062 25.01875 284.09375 25.846874Z" fill-rule="nonzero"/><path fill="#ea4335" d="M305.5 20.55C305.5 19.997715 305.94772 19.55 306.5 19.55L316.5 19.55C317.05228 19.55 317.5 19.997715 317.5 20.55L317.5 30.55C317.5 31.102285 317.05228 31.55 316.5 31.55L306.5 31.55C305.94772 31.55 305.5 31.102285 305.5 30.55Z" fill-rule="nonzero"/><path fill="#1a1a1a" d="M326.45312 29.55L326.45312 20.95625L332.65625 20.95625L332.65625 21.971874L327.59375 21.971874L327.59375 24.596874L332.34375 24.596874L332.34375 25.6125L327.59375 25.6125L327.59375 28.534374L332.85938 28.534374L332.85938 29.55L326.45312 29.55ZM333.59375 29.55L335.85938 26.315624L333.76562 23.33125L335.07812 23.33125L336.03125 24.784374Q336.29688 25.20625 336.46875 25.4875Q336.71875 25.096874 336.9375 24.8L337.98438 23.33125L339.25 23.33125L337.09375 26.253124L339.40625 29.55L338.125 29.55L336.84375 27.6125L336.5 27.096874L334.85938 29.55L333.59375 29.55ZM344.54688 27.55L345.64062 27.675Q345.39062 28.628124 344.6875 29.159374Q343.98438 29.690624 342.90625 29.690624Q341.54688 29.690624 340.73438 28.846874Q339.9375 28.003124 339.9375 26.4875Q339.9375 24.925 340.75 24.065624Q341.5625 23.190624 342.84375 23.190624Q344.09375 23.190624 344.875 24.034374Q345.67188 24.878124 345.67188 26.425Q345.67188 26.51875 345.67188 26.70625L341.03125 26.70625Q341.09375 27.7375 341.60938 28.284374Q342.125 28.815624 342.90625 28.815624Q343.48438 28.815624 343.89062 28.51875Q344.3125 28.20625 344.54688 27.55ZM341.09375 25.846874L344.5625 25.846874Q344.5 25.05 344.17188 24.659374Q343.65625 24.05 342.85938 24.05Q342.125 24.05 341.625 24.534374Q341.14062 25.01875 341.09375 25.846874ZM351.35938 27.26875L352.39062 27.409374Q352.21875 28.471874 351.51562 29.08125Q350.8125 29.690624 349.79688 29.690624Q348.51562 29.690624 347.73438 28.8625Q346.96875 28.01875 346.96875 26.45625Q346.96875 25.45625 347.29688 24.70625Q347.64062 23.940624 348.3125 23.565624Q349.0 23.190624 349.8125 23.190624Q350.8125 23.190624 351.45312 23.70625Q352.10938 24.20625 352.29688 25.159374L351.26562 25.315624Q351.125 24.690624 350.75 24.378124Q350.375 24.05 349.84375 24.05Q349.04688 24.05 348.54688 24.628124Q348.04688 25.190624 348.04688 26.425Q348.04688 27.690624 348.53125 28.253124Q349.01562 28.815624 349.78125 28.815624Q350.40625 28.815624 350.8125 28.440624Q351.23438 28.065624 351.35938 27.26875ZM357.375 29.55L357.375 28.628124Q356.64062 29.690624 355.39062 29.690624Q354.84375 29.690624 354.35938 29.4875Q353.89062 29.26875 353.65625 28.95625Q353.42188 28.628124 353.32812 28.159374Q353.26562 27.8625 353.26562 27.175L353.26562 23.33125L354.32812 23.33125L354.32812 26.784374Q354.32812 27.596874 354.39062 27.89375Q354.48438 28.3 354.79688 28.55Q355.125 28.784374 355.60938 28.784374Q356.07812 28.784374 356.48438 28.55Q356.90625 28.3 357.07812 27.878124Q357.26562 27.45625 357.26562 26.659374L357.26562 23.33125L358.3125 23.33125L358.3125 29.55L357.375 29.55ZM362.59375 28.6125L362.75 29.534374Q362.29688 29.628124 361.95312 29.628124Q361.375 29.628124 361.0625 29.45625Q360.75 29.26875 360.60938 28.971874Q360.48438 28.675 360.48438 27.721874L360.48438 24.14375L359.71875 24.14375L359.71875 23.33125L360.48438 23.33125L360.48438 21.784374L361.53125 21.159374L361.53125 23.33125L362.59375 23.33125L362.59375 24.14375L361.53125 24.14375L361.53125 27.784374Q361.53125 28.2375 361.57812 28.3625Q361.64062 28.4875 361.76562 28.565624Q361.89062 28.64375 362.125 28.64375Q362.3125 28.64375 362.59375 28.6125ZM363.29688 22.175L363.29688 20.95625L364.35938 20.95625L364.35938 22.175L363.29688 22.175ZM363.29688 29.55L363.29688 23.33125L364.35938 23.33125L364.35938 29.55L363.29688 29.55ZM365.90625 26.440624Q365.90625 24.70625 366.85938 23.878124Q367.65625 23.190624 368.8125 23.190624Q370.09375 23.190624 370.90625 24.034374Q371.73438 24.8625 371.73438 26.346874Q371.73438 27.55 371.375 28.2375Q371.01562 28.925 370.3125 29.315624Q369.625 29.690624 368.8125 29.690624Q367.51562 29.690624 366.70312 28.8625Q365.90625 28.01875 365.90625 26.440624ZM366.98438 26.440624Q366.98438 27.628124 367.5 28.221874Q368.03125 28.815624 368.8125 28.815624Q369.60938 28.815624 370.125 28.221874Q370.64062 27.628124 370.64062 26.409374Q370.64062 25.253124 370.10938 24.659374Q369.59375 24.065624 368.8125 24.065624Q368.03125 24.065624 367.5 24.659374Q366.98438 25.2375 366.98438 26.440624ZM373.29688 29.55L373.29688 23.33125L374.23438 23.33125L374.23438 24.20625Q374.92188 23.190624 376.21875 23.190624Q376.78125 23.190624 377.25 23.39375Q377.73438 23.596874 377.96875 23.925Q378.20312 24.253124 378.29688 24.690624Q378.34375 24.9875 378.34375 25.721874L378.34375 29.55L377.29688 29.55L377.29688 25.76875Q377.29688 25.1125 377.17188 24.8Q377.04688 24.4875 376.73438 24.3Q376.42188 24.096874 376.0 24.096874Q375.32812 24.096874 374.82812 24.534374Q374.34375 24.95625 374.34375 26.14375L374.34375 29.55L373.29688 29.55ZM385.59375 28.6125L385.75 29.534374Q385.29688 29.628124 384.95312 29.628124Q384.375 29.628124 384.0625 29.45625Q383.75 29.26875 383.60938 28.971874Q383.48438 28.675 383.48438 27.721874L383.48438 24.14375L382.71875 24.14375L382.71875 23.33125L383.48438 23.33125L383.48438 21.784374L384.53125 21.159374L384.53125 23.33125L385.59375 23.33125L385.59375 24.14375L384.53125 24.14375L384.53125 27.784374Q384.53125 28.2375 384.57812 28.3625Q384.64062 28.4875 384.76562 28.565624Q384.89062 28.64375 385.125 28.64375Q385.3125 28.64375 385.59375 28.6125ZM386.29688 22.175L386.29688 20.95625L387.35938 20.95625L387.35938 22.175L386.29688 22.175ZM386.29688 29.55L386.29688 23.33125L387.35938 23.33125L387.35938 29.55L386.29688 29.55ZM389.29688 29.55L389.29688 23.33125L390.23438 23.33125L390.23438 24.20625Q390.53125 23.7375 391.01562 23.471874Q391.5 23.190624 392.125 23.190624Q392.8125 23.190624 393.25 23.471874Q393.70312 23.753124 393.875 24.26875Q394.625 23.190624 395.79688 23.190624Q396.73438 23.190624 397.21875 23.70625Q397.71875 24.20625 397.71875 25.284374L397.71875 29.55L396.67188 29.55L396.67188 25.628124Q396.67188 25.003124 396.5625 24.721874Q396.46875 24.440624 396.20312 24.26875Q395.9375 24.096874 395.5625 24.096874Q394.90625 24.096874 394.46875 24.534374Q394.04688 24.971874 394.04688 25.940624L394.04688 29.55L392.98438 29.55L392.98438 25.503124Q392.98438 24.8 392.71875 24.45625Q392.46875 24.096874 391.89062 24.096874Q391.4375 24.096874 391.0625 24.33125Q390.6875 24.565624 390.51562 25.01875Q390.34375 25.471874 390.34375 26.315624L390.34375 29.55L389.29688 29.55ZM403.54688 27.55L404.64062 27.675Q404.39062 28.628124 403.6875 29.159374Q402.98438 29.690624 401.90625 29.690624Q400.54688 29.690624 399.73438 28.846874Q398.9375 28.003124 398.9375 26.4875Q398.9375 24.925 399.75 24.065624Q400.5625 23.190624 401.84375 23.190624Q403.09375 23.190624 403.875 24.034374Q404.67188 24.878124 404.67188 26.425Q404.67188 26.51875 404.67188 26.70625L400.03125 26.70625Q400.09375 27.7375 400.60938 28.284374Q401.125 28.815624 401.90625 28.815624Q402.48438 28.815624 402.89062 28.51875Q403.3125 28.20625 403.54688 27.55ZM400.09375 25.846874L403.5625 25.846874Q403.5 25.05 403.17188 24.659374Q402.65625 24.05 401.85938 24.05Q401.125 24.05 400.625 24.534374Q400.14062 25.01875 400.09375 25.846874Z" fill-rule="nonzero"/></svg>