<svg version="1.1" viewBox="0.0 0.0 600.0 371.0" fill="none" stroke="none" stroke-linecap="square" stroke-miterlimit="10" width="600" height="371" xmlns:xlink="http://www.w3.org/1999/xlink" xmlns="http://www.w3.org/2000/svg"><path fill="#ffffff" d="M0 0L600.0 0L600.0 371.0L0 371.0L0 0Z" fill-rule="nonzero"/><path stroke="#333333" stroke-width="1.0" stroke-linecap="butt" d="M98.5 300.5L581.5 300.5" fill-rule="nonzero"/><path stroke="#cccccc" stroke-width="1.0" stroke-linecap="butt" d="M98.5 265.5L581.5 265.5" fill-rule="nonzero"/><path stroke="#cccccc" stroke-width="1.0" stroke-linecap="butt" d="M98.5 230.5L581.5 230.5" fill-rule="nonzero"/><path stroke="#cccccc" stroke-width="1.0" stroke-linecap="butt" d="M98.5 195.5L581.5 195.5" fill-rule="nonzero"/><path stroke="#cccccc" stroke-width="1.0" stroke-linecap="butt" d="M98.5 160.5L581.5 160.5" fill-rule="nonzero"/><path stroke="#cccccc" stroke-width="1.0" stroke-linecap="butt" d="M98.5 125.5L581.5 125.5" fill-rule="nonzero"/><path stroke="#cccccc" stroke-width="1.0" stroke-linecap="butt" d="M98.5 91.5L581.5 91.5" fill-rule="nonzero"/><path stroke="#cccccc" stroke-width="1.0" stroke-linecap="butt" d="M98.5 56.5L581.5 56.5" fill-rule="nonzero"/><clipPath id="id_0"><path d="M98.55 51.916668L581.45 51.916668L581.45 300.45L98.55 300.45L98.55 51.916668Z" clip-rule="nonzero"/></clipPath><path stroke="#000000" stroke-width="0.0" stroke-linecap="butt" stroke-opacity="0.0" clip-path="url(#id_0)" d="M149.0 300.0L125.0 300.0L125.0 300.0C125.0 300.0 125.0 300.0 125.0 300.0L149.0 300.0C149.0 300.0 149.0 300.0 149.0 300.0Z" fill-rule="nonzero"/><path fill="#4285f4" clip-path="url(#id_0)" d="M149.0 300.0L125.0 300.0L125.0 300.0C125.0 300.0 125.0 300.0 125.0 300.0L149.0 300.0C149.0 300.0 149.0 300.0 149.0 300.0Z" fill-rule="nonzero"/><path stroke="#000000" stroke-width="0.0" stroke-linecap="butt" stroke-opacity="0.0" clip-path="url(#id_0)" d="M225.0 300.0L201.0 300.0L201.0 300.0C201.0 300.0 201.0 300.0 201.0 300.0L225.0 300.0C225.0 300.0 225.0 300.0 225.0 300.0Z" fill-rule="nonzero"/><path fill="#4285f4" clip-path="url(#id_0)" d="M225.0 300.0L201.0 300.0L201.0 300.0C201.0 300.0 201.0 300.0 201.0 300.0L225.0 300.0C225.0 300.0 225.0 300.0 225.0 300.0Z" fill-rule="nonzero"/><path stroke="#000000" stroke-width="0.0" stroke-linecap="butt" stroke-opacity="0.0" clip-path="url(#id_0)" d="M301.0 300.0L277.0 300.0L277.0 300.0C277.0 300.0 277.0 300.0 277.0 300.0L301.0 300.0C301.0 300.0 301.0 300.0 301.0 300.0Z" fill-rule="nonzero"/><path fill="#4285f4" clip-path="url(#id_0)" d="M301.0 300.0L277.0 300.0L277.0 300.0C277.0 300.0 277.0 300.0 277.0 300.0L301.0 300.0C301.0 300.0 301.0 300.0 301.0 300.0Z" fill-rule="nonzero"/><path stroke="#000000" stroke-width="0.0" stroke-linecap="butt" stroke-opacity="0.0" clip-path="url(#id_0)" d="M377.0 300.0L353.0 300.0L353.0 300.0C353.0 300.0 353.0 300.0 353.0 300.0L377.0 300.0C377.0 300.0 377.0 300.0 377.0 300.0Z" fill-rule="nonzero"/><path fill="#4285f4" clip-path="url(#id_0)" d="M377.0 300.0L353.0 300.0L353.0 300.0C353.0 300.0 353.0 300.0 353.0 300.0L377.0 300.0C377.0 300.0 377.0 300.0 377.0 300.0Z" fill-rule="nonzero"/><path stroke="#000000" stroke-width="0.0" stroke-linecap="butt" stroke-opacity="0.0" clip-path="url(#id_0)" d="M453.0 300.0L429.0 300.0L429.0 300.0C429.0 300.0 429.0 300.0 429.0 300.0L453.0 300.0C453.0 300.0 453.0 300.0 453.0 300.0Z" fill-rule="nonzero"/><path fill="#4285f4" clip-path="url(#id_0)" d="M453.0 300.0L429.0 300.0L429.0 300.0C429.0 300.0 429.0 300.0 429.0 300.0L453.0 300.0C453.0 300.0 453.0 300.0 453.0 300.0Z" fill-rule="nonzero"/><path stroke="#000000" stroke-width="0.0" stroke-linecap="butt" stroke-opacity="0.0" clip-path="url(#id_0)" d="M529.0 300.0L505.0 300.0L505.0 300.0C505.0 300.0 505.0 300.0 505.0 300.0L529.0 300.0C529.0 300.0 529.0 300.0 529.0 300.0Z" fill-rule="nonzero"/><path fill="#4285f4" clip-path="url(#id_0)" d="M529.0 300.0L505.0 300.0L505.0 300.0C505.0 300.0 505.0 300.0 505.0 300.0L529.0 300.0C529.0 300.0 529.0 300.0 529.0 300.0Z" fill-rule="nonzero"/><path stroke="#000000" stroke-width="0.0" stroke-linecap="butt" stroke-opacity="0.0" clip-path="url(#id_0)" d="M174.0 300.0L150.0 300.0L150.0 300.0C150.0 300.0 150.0 300.0 150.0 300.0L174.0 300.0C174.0 300.0 174.0 300.0 174.0 300.0Z" fill-rule="nonzero"/><path fill="#ea4335" clip-path="url(#id_0)" d="M174.0 300.0L150.0 300.0L150.0 300.0C150.0 300.0 150.0 300.0 150.0 300.0L174.0 300.0C174.0 300.0 174.0 300.0 174.0 300.0Z" fill-rule="nonzero"/><path stroke="#000000" stroke-width="0.0" stroke-linecap="butt" stroke-opacity="0.0" clip-path="url(#id_0)" d="M250.0 300.0L226.0 300.0L226.0 300.0C226.0 300.0 226.0 300.0 226.0 300.0L250.0 300.0C250.0 300.0 250.0 300.0 250.0 300.0Z" fill-rule="nonzero"/><path fill="#ea4335" clip-path="url(#id_0)" d="M250.0 300.0L226.0 300.0L226.0 300.0C226.0 300.0 226.0 300.0 226.0 300.0L250.0 300.0C250.0 300.0 250.0 300.0 250.0 300.0Z" fill-rule="nonzero"/><path stroke="#000000" stroke-width="0.0" stroke-linecap="butt" stroke-opacity="0.0" clip-path="url(#id_0)" d="M326.0 300.0L302.0 300.0L302.0 300.0C302.0 300.0 302.0 300.0 302.0 300.0L326.0 300.0C326.0 300.0 326.0 300.0 326.0 300.0Z" fill-rule="nonzero"/><path fill="#ea4335" clip-path="url(#id_0)" d="M326.0 300.0L302.0 300.0L302.0 300.0C302.0 300.0 302.0 300.0 302.0 300.0L326.0 300.0C326.0 300.0 326.0 300.0 326.0 300.0Z" fill-rule="nonzero"/><path stroke="#000000" stroke-width="0.0" stroke-linecap="butt" stroke-opacity="0.0" clip-path="url(#id_0)" d="M402.0 300.0L378.0 300.0L378.0 299.0C378.0 298.44772 378.44772 298.0 379.0 298.0L401.0 298.0C401.55228 298.0 402.0 298.44772 402.0 299.0Z" fill-rule="nonzero"/><path fill="#ea4335" clip-path="url(#id_0)" d="M402.0 300.0L378.0 300.0L378.0 299.0C378.0 298.44772 378.44772 298.0 379.0 298.0L401.0 298.0C401.55228 298.0 402.0 298.44772 402.0 299.0Z" fill-rule="nonzero"/><path stroke="#000000" stroke-width="0.0" stroke-linecap="butt" stroke-opacity="0.0" clip-path="url(#id_0)" d="M478.0 300.0L454.0 300.0L454.0 289.0C454.0 287.89542 454.89542 287.0 456.0 287.0L476.0 287.0C477.10458 287.0 478.0 287.89542 478.0 289.0Z" fill-rule="nonzero"/><path fill="#ea4335" clip-path="url(#id_0)" d="M478.0 300.0L454.0 300.0L454.0 289.0C454.0 287.89542 454.89542 287.0 456.0 287.0L476.0 287.0C477.10458 287.0 478.0 287.89542 478.0 289.0Z" fill-rule="nonzero"/><path stroke="#000000" stroke-width="0.0" stroke-linecap="butt" stroke-opacity="0.0" clip-path="url(#id_0)" d="M554.0 300.0L530.0 300.0L530.0 54.0C530.0 52.89543 530.89545 52.0 532.0 52.0L552.0 52.0C553.10455 52.0 554.0 52.89543 554.0 54.0Z" fill-rule="nonzero"/><path fill="#ea4335" clip-path="url(#id_0)" d="M554.0 300.0L530.0 300.0L530.0 54.0C530.0 52.89543 530.89545 52.0 532.0 52.0L552.0 52.0C553.10455 52.0 554.0 52.89543 554.0 54.0Z" fill-rule="nonzero"/><path fill="#000000" d="M325.07812 345.2625Q325.07812 343.1219 326.21875 341.91876Q327.375 340.7 329.1875 340.7Q330.39062 340.7 331.34375 341.27814Q332.29688 341.84064 332.79688 342.85626Q333.29688 343.8719 333.29688 345.16876Q333.29688 346.46564 332.76562 347.4969Q332.23438 348.52814 331.26562 349.0594Q330.3125 349.59064 329.1875 349.59064Q327.96875 349.59064 327.01562 349.0125Q326.0625 348.41876 325.5625 347.41876Q325.07812 346.40314 325.07812 345.2625ZM326.25 345.27814Q326.25 346.84064 327.07812 347.73126Q327.92188 348.6219 329.1875 348.6219Q330.46875 348.6219 331.29688 347.73126Q332.125 346.825 332.125 345.15314Q332.125 344.10626 331.76562 343.325Q331.42188 342.54376 330.73438 342.1219Q330.04688 341.6844 329.20312 341.6844Q328.0 341.6844 327.125 342.5125Q326.25 343.34064 326.25 345.27814ZM334.54688 349.45L334.54688 344.04376L333.60938 344.04376L333.60938 343.23126L334.54688 343.23126L334.54688 342.5594Q334.54688 341.9344 334.65625 341.6375Q334.8125 341.21564 335.1875 340.96564Q335.57812 340.71564 336.26562 340.71564Q336.71875 340.71564 337.25 340.825L337.09375 341.73126Q336.76562 341.6844 336.46875 341.6844Q335.98438 341.6844 335.78125 341.8875Q335.59375 342.09064 335.59375 342.65314L335.59375 343.23126L336.8125 343.23126L336.8125 344.04376L335.59375 344.04376L335.59375 349.45L334.54688 349.45ZM337.54688 349.45L337.54688 344.04376L336.60938 344.04376L336.60938 343.23126L337.54688 343.23126L337.54688 342.5594Q337.54688 341.9344 337.65625 341.6375Q337.8125 341.21564 338.1875 340.96564Q338.57812 340.71564 339.26562 340.71564Q339.71875 340.71564 340.25 340.825L340.09375 341.73126Q339.76562 341.6844 339.46875 341.6844Q338.98438 341.6844 338.78125 341.8875Q338.59375 342.09064 338.59375 342.65314L338.59375 343.23126L339.8125 343.23126L339.8125 344.04376L338.59375 344.04376L338.59375 349.45L337.54688 349.45ZM339.875 347.59064L340.90625 347.4344Q341.0 348.0594 341.39062 348.3875Q341.79688 348.71564 342.53125 348.71564Q343.25 348.71564 343.59375 348.4344Q343.95312 348.1375 343.95312 347.73126Q343.95312 347.3719 343.64062 347.16876Q343.42188 347.02814 342.5625 346.8094Q341.40625 346.5125 340.95312 346.3094Q340.51562 346.09064 340.28125 345.71564Q340.04688 345.34064 340.04688 344.8719Q340.04688 344.46564 340.23438 344.10626Q340.42188 343.7469 340.75 343.5125Q341.0 343.34064 341.42188 343.21564Q341.84375 343.09064 342.34375 343.09064Q343.0625 343.09064 343.60938 343.3094Q344.17188 343.5125 344.4375 343.8719Q344.70312 344.23126 344.79688 344.825L343.76562 344.96564Q343.70312 344.4969 343.35938 344.23126Q343.03125 343.95 342.40625 343.95Q341.6875 343.95 341.375 344.2Q341.0625 344.4344 341.0625 344.7625Q341.0625 344.96564 341.1875 345.1219Q341.32812 345.29376 341.59375 345.40314Q341.75 345.46564 342.53125 345.66876Q343.65625 345.98126 344.09375 346.16876Q344.53125 346.35626 344.78125 346.71564Q345.03125 347.075 345.03125 347.6219Q345.03125 348.15314 344.71875 348.6219Q344.42188 349.075 343.84375 349.34064Q343.26562 349.59064 342.53125 349.59064Q341.3125 349.59064 340.67188 349.09064Q340.04688 348.575 339.875 347.59064ZM350.54688 347.45L351.64062 347.575Q351.39062 348.52814 350.6875 349.0594Q349.98438 349.59064 348.90625 349.59064Q347.54688 349.59064 346.73438 348.7469Q345.9375 347.90314 345.9375 346.3875Q345.9375 344.825 346.75 343.96564Q347.5625 343.09064 348.84375 343.09064Q350.09375 343.09064 350.875 343.9344Q351.67188 344.77814 351.67188 346.325Q351.67188 346.41876 351.67188 346.60626L347.03125 346.60626Q347.09375 347.6375 347.60938 348.1844Q348.125 348.71564 348.90625 348.71564Q349.48438 348.71564 349.89062 348.41876Q350.3125 348.10626 350.54688 347.45ZM347.09375 345.7469L350.5625 345.7469Q350.5 344.95 350.17188 344.5594Q349.65625 343.95 348.85938 343.95Q348.125 343.95 347.625 344.4344Q347.14062 344.91876 347.09375 345.7469ZM355.59375 348.5125L355.75 349.4344Q355.29688 349.52814 354.95312 349.52814Q354.375 349.52814 354.0625 349.35626Q353.75 349.16876 353.60938 348.8719Q353.48438 348.575 353.48438 347.6219L353.48438 344.04376L352.71875 344.04376L352.71875 343.23126L353.48438 343.23126L353.48438 341.6844L354.53125 341.0594L354.53125 343.23126L355.59375 343.23126L355.59375 344.04376L354.53125 344.04376L354.53125 347.6844Q354.53125 348.1375 354.57812 348.2625Q354.64062 348.3875 354.76562 348.46564Q354.89062 348.54376 355.125 348.54376Q355.3125 348.54376 355.59375 348.5125Z" fill-rule="nonzero"/><path fill="#000000" d="M29.550013 233.57396L21.971888 233.57396L21.971888 236.40208L20.956263 236.40208L20.956263 229.58958L21.971888 229.58958L21.971888 232.43333L29.550013 232.43333L29.550013 233.57396ZM22.175013 228.88646L20.956263 228.88646L20.956263 227.82396L22.175013 227.82396L22.175013 228.88646ZM29.550013 228.88646L23.331263 228.88646L23.331263 227.82396L29.550013 227.82396L29.550013 228.88646ZM29.550013 225.88646L23.331263 225.88646L23.331263 224.94896L24.206263 224.94896Q23.737513 224.65208 23.471888 224.16771Q23.190638 223.68333 23.190638 223.05833Q23.190638 222.37083 23.471888 221.93333Q23.753138 221.48021 24.268763 221.30833Q23.190638 220.55833 23.190638 219.38646Q23.190638 218.44896 23.706263 217.96458Q24.206263 217.46458 25.284388 217.46458L29.550013 217.46458L29.550013 218.51146L25.628138 218.51146Q25.003138 218.51146 24.721888 218.62083Q24.440638 218.71458 24.268763 218.98021Q24.096888 219.24583 24.096888 219.62083Q24.096888 220.27708 24.534388 220.71458Q24.971888 221.13646 25.940638 221.13646L29.550013 221.13646L29.550013 222.19896L25.503138 222.19896Q24.800013 222.19896 24.456263 222.46458Q24.096888 222.71458 24.096888 223.29271Q24.096888 223.74583 24.331263 224.12083Q24.565638 224.49583 25.018763 224.66771Q25.471888 224.83958 26.315638 224.83958L29.550013 224.83958L29.550013 225.88646ZM27.550013 211.63646L27.675013 210.54271Q28.628138 210.79271 29.159388 211.49583Q29.690638 212.19896 29.690638 213.27708Q29.690638 214.63646 28.846888 215.44896Q28.003138 216.24583 26.487513 216.24583Q24.925013 216.24583 24.065638 215.43333Q23.190638 214.62083 23.190638 213.33958Q23.190638 212.08958 24.034388 211.30833Q24.878138 210.51146 26.425013 210.51146Q26.518763 210.51146 26.706263 210.51146L26.706263 215.15208Q27.737513 215.08958 28.284388 214.57396Q28.815638 214.05833 28.815638 213.27708Q28.815638 212.69896 28.518763 212.29271Q28.206263 211.87083 27.550013 211.63646ZM25.846888 215.08958L25.846888 211.62083Q25.050013 211.68333 24.659388 212.01146Q24.050013 212.52708 24.050013 213.32396Q24.050013 214.05833 24.534388 214.55833Q25.018763 215.04271 25.846888 215.08958ZM32.08126 203.87083Q30.971888 204.74583 29.503138 205.35521Q28.018763 205.94896 26.440638 205.94896Q25.050013 205.94896 23.768763 205.51146Q22.284388 204.98021 20.815638 203.87083L20.815638 203.12083Q22.034388 203.82396 22.550013 204.05833Q23.362513 204.41771 24.237513 204.62083Q25.331263 204.87083 26.440638 204.87083Q29.268763 204.87083 32.08126 203.12083L32.08126 203.87083ZM29.550013 201.88646L23.331263 201.88646L23.331263 200.94896L24.206263 200.94896Q23.737513 200.65208 23.471888 200.16771Q23.190638 199.68333 23.190638 199.05833Q23.190638 198.37083 23.471888 197.93333Q23.753138 197.48021 24.268763 197.30833Q23.190638 196.55833 23.190638 195.38646Q23.190638 194.44896 23.706263 193.96458Q24.206263 193.46458 25.284388 193.46458L29.550013 193.46458L29.550013 194.51146L25.628138 194.51146Q25.003138 194.51146 24.721888 194.62083Q24.440638 194.71458 24.268763 194.98021Q24.096888 195.24583 24.096888 195.62083Q24.096888 196.27708 24.534388 196.71458Q24.971888 197.13646 25.940638 197.13646L29.550013 197.13646L29.550013 198.19896L25.503138 198.19896Q24.800013 198.19896 24.456263 198.46458Q24.096888 198.71458 24.096888 199.29271Q24.096888 199.74583 24.331263 200.12083Q24.565638 200.49583 25.018763 200.66771Q25.471888 200.83958 26.315638 200.83958L29.550013 200.83958L29.550013 201.88646ZM22.175013 191.88646L20.956263 191.88646L20.956263 190.82396L22.175013 190.82396L22.175013 191.88646ZM29.550013 191.88646L23.331263 191.88646L23.331263 190.82396L29.550013 190.82396L29.550013 191.88646ZM27.268763 184.82396L27.409388 183.79271Q28.471888 183.96458 29.081263 184.66771Q29.690638 185.37083 29.690638 186.38646Q29.690638 187.66771 28.862513 188.44896Q28.018763 189.21458 26.456263 189.21458Q25.456263 189.21458 24.706263 188.88646Q23.940638 188.54271 23.565638 187.87083Q23.190638 187.18333 23.190638 186.37083Q23.190638 185.37083 23.706263 184.73021Q24.206263 184.07396 25.159388 183.88646L25.315638 184.91771Q24.690638 185.05833 24.378138 185.43333Q24.050013 185.80833 24.050013 186.33958Q24.050013 187.13646 24.628138 187.63646Q25.190638 188.13646 26.425013 188.13646Q27.690638 188.13646 28.253138 187.65208Q28.815638 187.16771 28.815638 186.40208Q28.815638 185.77708 28.440638 185.37083Q28.065638 184.94896 27.268763 184.82396ZM29.550013 182.90208L23.331263 182.90208L23.331263 181.94896L24.268763 181.94896Q23.612513 181.58958 23.409388 181.29271Q23.190638 180.98021 23.190638 180.60521Q23.190638 180.07396 23.518763 179.52708L24.503138 179.88646Q24.268763 180.27708 24.268763 180.65208Q24.268763 181.01146 24.487513 181.29271Q24.690638 181.55833 25.065638 181.66771Q25.628138 181.85521 26.284388 181.85521L29.550013 181.85521L29.550013 182.90208ZM26.440638 179.27708Q24.706263 179.27708 23.878138 178.32396Q23.190638 177.52708 23.190638 176.37083Q23.190638 175.08958 24.034388 174.27708Q24.862513 173.44896 26.346888 173.44896Q27.550013 173.44896 28.237513 173.80833Q28.925013 174.16771 29.315638 174.87083Q29.690638 175.55833 29.690638 176.37083Q29.690638 177.66771 28.862513 178.48021Q28.018763 179.27708 26.440638 179.27708ZM26.440638 178.19896Q27.628138 178.19896 28.221888 177.68333Q28.815638 177.15208 28.815638 176.37083Q28.815638 175.57396 28.221888 175.05833Q27.628138 174.54271 26.409388 174.54271Q25.253138 174.54271 24.659388 175.07396Q24.065638 175.58958 24.065638 176.37083Q24.065638 177.15208 24.659388 177.68333Q25.237513 178.19896 26.440638 178.19896ZM27.690638 172.30833L27.534388 171.27708Q28.159388 171.18333 28.487513 170.79271Q28.815638 170.38646 28.815638 169.65208Q28.815638 168.93333 28.534388 168.58958Q28.237513 168.23021 27.831263 168.23021Q27.471888 168.23021 27.268763 168.54271Q27.128138 168.76146 26.909388 169.62083Q26.612513 170.77708 26.409388 171.23021Q26.190638 171.66771 25.815638 171.90208Q25.440638 172.13646 24.971888 172.13646Q24.565638 172.13646 24.206263 171.94896Q23.846888 171.76146 23.612513 171.43333Q23.440638 171.18333 23.315638 170.76146Q23.190638 170.33958 23.190638 169.83958Q23.190638 169.12083 23.409388 168.57396Q23.612513 168.01146 23.971888 167.74583Q24.331263 167.48021 24.925013 167.38646L25.065638 168.41771Q24.596888 168.48021 24.331263 168.82396Q24.050013 169.15208 24.050013 169.77708Q24.050013 170.49583 24.300013 170.80833Q24.534388 171.12083 24.862513 171.12083Q25.065638 171.12083 25.221888 170.99583Q25.393763 170.85521 25.503138 170.58958Q25.565638 170.43333 25.768763 169.65208Q26.081263 168.52708 26.268763 168.08958Q26.456263 167.65208 26.815638 167.40208Q27.175013 167.15208 27.721888 167.15208Q28.253138 167.15208 28.721888 167.46458Q29.175013 167.76146 29.440638 168.33958Q29.690638 168.91771 29.690638 169.65208Q29.690638 170.87083 29.190638 171.51146Q28.675013 172.13646 27.690638 172.30833ZM27.550013 161.63646L27.675013 160.54271Q28.628138 160.79271 29.159388 161.49583Q29.690638 162.19896 29.690638 163.27708Q29.690638 164.63646 28.846888 165.44896Q28.003138 166.24583 26.487513 166.24583Q24.925013 166.24583 24.065638 165.43333Q23.190638 164.62083 23.190638 163.33958Q23.190638 162.08958 24.034388 161.30833Q24.878138 160.51146 26.425013 160.51146Q26.518763 160.51146 26.706263 160.51146L26.706263 165.15208Q27.737513 165.08958 28.284388 164.57396Q28.815638 164.05833 28.815638 163.27708Q28.815638 162.69896 28.518763 162.29271Q28.206263 161.87083 27.550013 161.63646ZM25.846888 165.08958L25.846888 161.62083Q25.050013 161.68333 24.659388 162.01146Q24.050013 162.52708 24.050013 163.32396Q24.050013 164.05833 24.534388 164.55833Q25.018763 165.04271 25.846888 165.08958ZM27.268763 154.82396L27.409388 153.79271Q28.471888 153.96458 29.081263 154.66771Q29.690638 155.37083 29.690638 156.38646Q29.690638 157.66771 28.862513 158.44896Q28.018763 159.21458 26.456263 159.21458Q25.456263 159.21458 24.706263 158.88646Q23.940638 158.54271 23.565638 157.87083Q23.190638 157.18333 23.190638 156.37083Q23.190638 155.37083 23.706263 154.73021Q24.206263 154.07396 25.159388 153.88646L25.315638 154.91771Q24.690638 155.05833 24.378138 155.43333Q24.050013 155.80833 24.050013 156.33958Q24.050013 157.13646 24.628138 157.63646Q25.190638 158.13646 26.425013 158.13646Q27.690638 158.13646 28.253138 157.65208Q28.815638 157.16771 28.815638 156.40208Q28.815638 155.77708 28.440638 155.37083Q28.065638 154.94896 27.268763 154.82396ZM26.440638 153.27708Q24.706263 153.27708 23.878138 152.32396Q23.190638 151.52708 23.190638 150.37083Q23.190638 149.08958 24.034388 148.27708Q24.862513 147.44896 26.346888 147.44896Q27.550013 147.44896 28.237513 147.80833Q28.925013 148.16771 29.315638 148.87083Q29.690638 149.55833 29.690638 150.37083Q29.690638 151.66771 28.862513 152.48021Q28.018763 153.27708 26.440638 153.27708ZM26.440638 152.19896Q27.628138 152.19896 28.221888 151.68333Q28.815638 151.15208 28.815638 150.37083Q28.815638 149.57396 28.221888 149.05833Q27.628138 148.54271 26.409388 148.54271Q25.253138 148.54271 24.659388 149.07396Q24.065638 149.58958 24.065638 150.37083Q24.065638 151.15208 24.659388 151.68333Q25.237513 152.19896 26.440638 152.19896ZM29.550013 145.88646L23.331263 145.88646L23.331263 144.94896L24.206263 144.94896Q23.190638 144.26146 23.190638 142.96458Q23.190638 142.40208 23.393763 141.93333Q23.596888 141.44896 23.925013 141.21458Q24.253138 140.98021 24.690638 140.88646Q24.987513 140.83958 25.721888 140.83958L29.550013 140.83958L29.550013 141.88646L25.768763 141.88646Q25.112513 141.88646 24.800013 142.01146Q24.487513 142.13646 24.300013 142.44896Q24.096888 142.76146 24.096888 143.18333Q24.096888 143.85521 24.534388 144.35521Q24.956263 144.83958 26.143763 144.83958L29.550013 144.83958L29.550013 145.88646ZM29.550013 134.85521L28.768763 134.85521Q29.690638 135.44896 29.690638 136.58958Q29.690638 137.33958 29.284388 137.96458Q28.862513 138.58958 28.128138 138.93333Q27.393763 139.27708 26.440638 139.27708Q25.518763 139.27708 24.753138 138.96458Q23.987513 138.65208 23.596888 138.02708Q23.190638 137.40208 23.190638 136.63646Q23.190638 136.07396 23.425013 135.63646Q23.659388 135.19896 24.034388 134.91771L20.956263 134.91771L20.956263 133.87083L29.550013 133.87083L29.550013 134.85521ZM26.440638 138.18333Q27.643763 138.18333 28.237513 137.68333Q28.815638 137.18333 28.815638 136.49583Q28.815638 135.80833 28.253138 135.32396Q27.690638 134.83958 26.534388 134.83958Q25.253138 134.83958 24.659388 135.33958Q24.065638 135.82396 24.065638 136.54271Q24.065638 137.24583 24.643763 137.71458Q25.206263 138.18333 26.440638 138.18333ZM32.08126 131.19896L32.08126 131.94896Q29.268763 130.19896 26.440638 130.19896Q25.346888 130.19896 24.253138 130.44896Q23.378138 130.65208 22.565638 131.01146Q22.050013 131.24583 20.815638 131.94896L20.815638 131.19896Q22.284388 130.10521 23.768763 129.57396Q25.050013 129.12083 26.440638 129.12083Q28.018763 129.12083 29.503138 129.73021Q30.971888 130.33958 32.08126 131.19896Z" fill-rule="nonzero"/><path fill="#000000" d="M86.05 300.21564Q86.05 298.6844 86.3625 297.7625Q86.675 296.825 87.28438 296.325Q87.90938 295.825 88.84688 295.825Q89.53438 295.825 90.05 296.10626Q90.58125 296.3875 90.925 296.91876Q91.26875 297.4344 91.45625 298.1844Q91.64375 298.9344 91.64375 300.21564Q91.64375 301.73126 91.33125 302.65314Q91.03438 303.575 90.40938 304.09064Q89.8 304.59064 88.84688 304.59064Q87.6125 304.59064 86.89375 303.7Q86.05 302.6375 86.05 300.21564ZM87.12813 300.21564Q87.12813 302.325 87.62813 303.02814Q88.12813 303.73126 88.84688 303.73126Q89.58125 303.73126 90.06563 303.02814Q90.56563 302.325 90.56563 300.21564Q90.56563 298.09064 90.06563 297.40314Q89.58125 296.7 88.83125 296.7Q88.1125 296.7 87.675 297.3094Q87.12813 298.09064 87.12813 300.21564Z" fill-rule="nonzero"/><path fill="#000000" d="M55.01875 269.5423L53.971874 269.5423L53.971874 262.82355Q53.58125 263.18292 52.95625 263.55792Q52.346874 263.9173 51.8625 264.08917L51.8625 263.07355Q52.7375 262.65167 53.39375 262.07355Q54.065624 261.4798 54.346874 260.9173L55.01875 260.9173L55.01875 269.5423ZM58.05 265.30792Q58.05 263.77667 58.3625 262.8548Q58.675 261.9173 59.284374 261.4173Q59.909374 260.9173 60.846874 260.9173Q61.534374 260.9173 62.05 261.19855Q62.58125 261.4798 62.925 262.01105Q63.26875 262.52667 63.45625 263.27667Q63.64375 264.02667 63.64375 265.30792Q63.64375 266.82355 63.33125 267.74542Q63.034374 268.6673 62.409374 269.18292Q61.8 269.68292 60.846874 269.68292Q59.6125 269.68292 58.89375 268.7923Q58.05 267.7298 58.05 265.30792ZM59.128124 265.30792Q59.128124 267.4173 59.628124 268.12042Q60.128124 268.82355 60.846874 268.82355Q61.58125 268.82355 62.065624 268.12042Q62.565624 267.4173 62.565624 265.30792Q62.565624 263.18292 62.065624 262.49542Q61.58125 261.7923 60.83125 261.7923Q60.1125 261.7923 59.675 262.40167Q59.128124 263.18292 59.128124 265.30792ZM65.05 265.30792Q65.05 263.77667 65.3625 262.8548Q65.675 261.9173 66.28438 261.4173Q66.90938 260.9173 67.84688 260.9173Q68.53438 260.9173 69.05 261.19855Q69.58125 261.4798 69.925 262.01105Q70.26875 262.52667 70.45625 263.27667Q70.64375 264.02667 70.64375 265.30792Q70.64375 266.82355 70.33125 267.74542Q70.03438 268.6673 69.40938 269.18292Q68.8 269.68292 67.84688 269.68292Q66.6125 269.68292 65.89375 268.7923Q65.05 267.7298 65.05 265.30792ZM66.12813 265.30792Q66.12813 267.4173 66.62813 268.12042Q67.12813 268.82355 67.84688 268.82355Q68.58125 268.82355 69.06563 268.12042Q69.56563 267.4173 69.56563 265.30792Q69.56563 263.18292 69.06563 262.49542Q68.58125 261.7923 67.83125 261.7923Q67.1125 261.7923 66.675 262.40167Q66.12813 263.18292 66.12813 265.30792ZM72.05 265.30792Q72.05 263.77667 72.3625 262.8548Q72.675 261.9173 73.28438 261.4173Q73.90938 260.9173 74.84688 260.9173Q75.53438 260.9173 76.05 261.19855Q76.58125 261.4798 76.925 262.01105Q77.26875 262.52667 77.45625 263.27667Q77.64375 264.02667 77.64375 265.30792Q77.64375 266.82355 77.33125 267.74542Q77.03438 268.6673 76.40938 269.18292Q75.8 269.68292 74.84688 269.68292Q73.6125 269.68292 72.89375 268.7923Q72.05 267.7298 72.05 265.30792ZM73.12813 265.30792Q73.12813 267.4173 73.62813 268.12042Q74.12813 268.82355 74.84688 268.82355Q75.58125 268.82355 76.06563 268.12042Q76.56563 267.4173 76.56563 265.30792Q76.56563 263.18292 76.06563 262.49542Q75.58125 261.7923 74.83125 261.7923Q74.1125 261.7923 73.675 262.40167Q73.12813 263.18292 73.12813 265.30792ZM79.05 265.30792Q79.05 263.77667 79.3625 262.8548Q79.675 261.9173 80.28438 261.4173Q80.90938 260.9173 81.84688 260.9173Q82.53438 260.9173 83.05 261.19855Q83.58125 261.4798 83.925 262.01105Q84.26875 262.52667 84.45625 263.27667Q84.64375 264.02667 84.64375 265.30792Q84.64375 266.82355 84.33125 267.74542Q84.03438 268.6673 83.40938 269.18292Q82.8 269.68292 81.84688 269.68292Q80.6125 269.68292 79.89375 268.7923Q79.05 267.7298 79.05 265.30792ZM80.12813 265.30792Q80.12813 267.4173 80.62813 268.12042Q81.12813 268.82355 81.84688 268.82355Q82.58125 268.82355 83.06563 268.12042Q83.56563 267.4173 83.56563 265.30792Q83.56563 263.18292 83.06563 262.49542Q82.58125 261.7923 81.83125 261.7923Q81.1125 261.7923 80.675 262.40167Q80.12813 263.18292 80.12813 265.30792ZM86.05 265.30792Q86.05 263.77667 86.3625 262.8548Q86.675 261.9173 87.28438 261.4173Q87.90938 260.9173 88.84688 260.9173Q89.53438 260.9173 90.05 261.19855Q90.58125 261.4798 90.925 262.01105Q91.26875 262.52667 91.45625 263.27667Q91.64375 264.02667 91.64375 265.30792Q91.64375 266.82355 91.33125 267.74542Q91.03438 268.6673 90.40938 269.18292Q89.8 269.68292 88.84688 269.68292Q87.6125 269.68292 86.89375 268.7923Q86.05 267.7298 86.05 265.30792ZM87.12813 265.30792Q87.12813 267.4173 87.62813 268.12042Q88.12813 268.82355 88.84688 268.82355Q89.58125 268.82355 90.06563 268.12042Q90.56563 267.4173 90.56563 265.30792Q90.56563 263.18292 90.06563 262.49542Q89.58125 261.7923 88.83125 261.7923Q88.1125 261.7923 87.675 262.40167Q87.12813 263.18292 87.12813 265.30792Z" fill-rule="nonzero"/><path fill="#000000" d="M56.596874 233.61899L56.596874 234.63461L50.909374 234.63461Q50.909374 234.25961 51.034374 233.90024Q51.253124 233.32211 51.721874 232.75961Q52.20625 232.19711 53.1125 231.46274Q54.51875 230.30649 55.003124 229.63461Q55.503124 228.96274 55.503124 228.36899Q55.503124 227.74399 55.05 227.32211Q54.596874 226.88461 53.878124 226.88461Q53.1125 226.88461 52.659374 227.33774Q52.20625 227.79086 52.190624 228.60336L51.1125 228.49399Q51.221874 227.27524 51.940624 226.65024Q52.675 226.00961 53.909374 226.00961Q55.14375 226.00961 55.8625 226.69711Q56.58125 227.38461 56.58125 228.40024Q56.58125 228.91586 56.3625 229.41586Q56.159374 229.90024 55.659374 230.46274Q55.175 231.00961 54.05 231.96274Q53.096874 232.75961 52.815624 233.05649Q52.55 233.33774 52.378124 233.61899L56.596874 233.61899ZM58.05 230.40024Q58.05 228.86899 58.3625 227.94711Q58.675 227.00961 59.284374 226.50961Q59.909374 226.00961 60.846874 226.00961Q61.534374 226.00961 62.05 226.29086Q62.58125 226.57211 62.925 227.10336Q63.26875 227.61899 63.45625 228.36899Q63.64375 229.11899 63.64375 230.40024Q63.64375 231.91586 63.33125 232.83774Q63.034374 233.75961 62.409374 234.27524Q61.8 234.77524 60.846874 234.77524Q59.6125 234.77524 58.89375 233.88461Q58.05 232.82211 58.05 230.40024ZM59.128124 230.40024Q59.128124 232.50961 59.628124 233.21274Q60.128124 233.91586 60.846874 233.91586Q61.58125 233.91586 62.065624 233.21274Q62.565624 232.50961 62.565624 230.40024Q62.565624 228.27524 62.065624 227.58774Q61.58125 226.88461 60.83125 226.88461Q60.1125 226.88461 59.675 227.49399Q59.128124 228.27524 59.128124 230.40024ZM65.05 230.40024Q65.05 228.86899 65.3625 227.94711Q65.675 227.00961 66.28438 226.50961Q66.90938 226.00961 67.84688 226.00961Q68.53438 226.00961 69.05 226.29086Q69.58125 226.57211 69.925 227.10336Q70.26875 227.61899 70.45625 228.36899Q70.64375 229.11899 70.64375 230.40024Q70.64375 231.91586 70.33125 232.83774Q70.03438 233.75961 69.40938 234.27524Q68.8 234.77524 67.84688 234.77524Q66.6125 234.77524 65.89375 233.88461Q65.05 232.82211 65.05 230.40024ZM66.12813 230.40024Q66.12813 232.50961 66.62813 233.21274Q67.12813 233.91586 67.84688 233.91586Q68.58125 233.91586 69.06563 233.21274Q69.56563 232.50961 69.56563 230.40024Q69.56563 228.27524 69.06563 227.58774Q68.58125 226.88461 67.83125 226.88461Q67.1125 226.88461 66.675 227.49399Q66.12813 228.27524 66.12813 230.40024ZM72.05 230.40024Q72.05 228.86899 72.3625 227.94711Q72.675 227.00961 73.28438 226.50961Q73.90938 226.00961 74.84688 226.00961Q75.53438 226.00961 76.05 226.29086Q76.58125 226.57211 76.925 227.10336Q77.26875 227.61899 77.45625 228.36899Q77.64375 229.11899 77.64375 230.40024Q77.64375 231.91586 77.33125 232.83774Q77.03438 233.75961 76.40938 234.27524Q75.8 234.77524 74.84688 234.77524Q73.6125 234.77524 72.89375 233.88461Q72.05 232.82211 72.05 230.40024ZM73.12813 230.40024Q73.12813 232.50961 73.62813 233.21274Q74.12813 233.91586 74.84688 233.91586Q75.58125 233.91586 76.06563 233.21274Q76.56563 232.50961 76.56563 230.40024Q76.56563 228.27524 76.06563 227.58774Q75.58125 226.88461 74.83125 226.88461Q74.1125 226.88461 73.675 227.49399Q73.12813 228.27524 73.12813 230.40024ZM79.05 230.40024Q79.05 228.86899 79.3625 227.94711Q79.675 227.00961 80.28438 226.50961Q80.90938 226.00961 81.84688 226.00961Q82.53438 226.00961 83.05 226.29086Q83.58125 226.57211 83.925 227.10336Q84.26875 227.61899 84.45625 228.36899Q84.64375 229.11899 84.64375 230.40024Q84.64375 231.91586 84.33125 232.83774Q84.03438 233.75961 83.40938 234.27524Q82.8 234.77524 81.84688 234.77524Q80.6125 234.77524 79.89375 233.88461Q79.05 232.82211 79.05 230.40024ZM80.12813 230.40024Q80.12813 232.50961 80.62813 233.21274Q81.12813 233.91586 81.84688 233.91586Q82.58125 233.91586 83.06563 233.21274Q83.56563 232.50961 83.56563 230.40024Q83.56563 228.27524 83.06563 227.58774Q82.58125 226.88461 81.83125 226.88461Q81.1125 226.88461 80.675 227.49399Q80.12813 228.27524 80.12813 230.40024ZM86.05 230.40024Q86.05 228.86899 86.3625 227.94711Q86.675 227.00961 87.28438 226.50961Q87.90938 226.00961 88.84688 226.00961Q89.53438 226.00961 90.05 226.29086Q90.58125 226.57211 90.925 227.10336Q91.26875 227.61899 91.45625 228.36899Q91.64375 229.11899 91.64375 230.40024Q91.64375 231.91586 91.33125 232.83774Q91.03438 233.75961 90.40938 234.27524Q89.8 234.77524 88.84688 234.77524Q87.6125 234.77524 86.89375 233.88461Q86.05 232.82211 86.05 230.40024ZM87.12813 230.40024Q87.12813 232.50961 87.62813 233.21274Q88.12813 233.91586 88.84688 233.91586Q89.58125 233.91586 90.06563 233.21274Q90.56563 232.50961 90.56563 230.40024Q90.56563 228.27524 90.06563 227.58774Q89.58125 226.88461 88.83125 226.88461Q88.1125 226.88461 87.675 227.49399Q87.12813 228.27524 87.12813 230.40024Z" fill-rule="nonzero"/><path fill="#000000" d="M51.05 197.4613L52.1125 197.32068Q52.284374 198.2113 52.721874 198.61755Q53.159374 199.00818 53.784374 199.00818Q54.534374 199.00818 55.05 198.49255Q55.565624 197.97693 55.565624 197.2113Q55.565624 196.49255 55.08125 196.0238Q54.6125 195.53943 53.878124 195.53943Q53.58125 195.53943 53.128124 195.66443L53.253124 194.72693Q53.3625 194.74255 53.425 194.74255Q54.096874 194.74255 54.628124 194.3988Q55.175 194.03943 55.175 193.30505Q55.175 192.72693 54.784374 192.35193Q54.39375 191.9613 53.76875 191.9613Q53.159374 191.9613 52.7375 192.35193Q52.33125 192.74255 52.221874 193.50818L51.159374 193.32068Q51.346874 192.2738 52.034374 191.69568Q52.721874 191.10193 53.7375 191.10193Q54.440624 191.10193 55.034374 191.41443Q55.628124 191.7113 55.940624 192.22693Q56.253124 192.74255 56.253124 193.3363Q56.253124 193.88318 55.95625 194.35193Q55.659374 194.80505 55.08125 195.07068Q55.83125 195.24255 56.253124 195.80505Q56.675 196.35193 56.675 197.19568Q56.675 198.32068 55.846874 199.10193Q55.034374 199.88318 53.784374 199.88318Q52.659374 199.88318 51.909374 199.2113Q51.159374 198.5238 51.05 197.4613ZM58.05 195.49255Q58.05 193.9613 58.3625 193.03943Q58.675 192.10193 59.284374 191.60193Q59.909374 191.10193 60.846874 191.10193Q61.534374 191.10193 62.05 191.38318Q62.58125 191.66443 62.925 192.19568Q63.26875 192.7113 63.45625 193.4613Q63.64375 194.2113 63.64375 195.49255Q63.64375 197.00818 63.33125 197.93005Q63.034374 198.85193 62.409374 199.36755Q61.8 199.86755 60.846874 199.86755Q59.6125 199.86755 58.89375 198.97693Q58.05 197.91443 58.05 195.49255ZM59.128124 195.49255Q59.128124 197.60193 59.628124 198.30505Q60.128124 199.00818 60.846874 199.00818Q61.58125 199.00818 62.065624 198.30505Q62.565624 197.60193 62.565624 195.49255Q62.565624 193.36755 62.065624 192.68005Q61.58125 191.97693 60.83125 191.97693Q60.1125 191.97693 59.675 192.5863Q59.128124 193.36755 59.128124 195.49255ZM65.05 195.49255Q65.05 193.9613 65.3625 193.03943Q65.675 192.10193 66.28438 191.60193Q66.90938 191.10193 67.84688 191.10193Q68.53438 191.10193 69.05 191.38318Q69.58125 191.66443 69.925 192.19568Q70.26875 192.7113 70.45625 193.4613Q70.64375 194.2113 70.64375 195.49255Q70.64375 197.00818 70.33125 197.93005Q70.03438 198.85193 69.40938 199.36755Q68.8 199.86755 67.84688 199.86755Q66.6125 199.86755 65.89375 198.97693Q65.05 197.91443 65.05 195.49255ZM66.12813 195.49255Q66.12813 197.60193 66.62813 198.30505Q67.12813 199.00818 67.84688 199.00818Q68.58125 199.00818 69.06563 198.30505Q69.56563 197.60193 69.56563 195.49255Q69.56563 193.36755 69.06563 192.68005Q68.58125 191.97693 67.83125 191.97693Q67.1125 191.97693 66.675 192.5863Q66.12813 193.36755 66.12813 195.49255ZM72.05 195.49255Q72.05 193.9613 72.3625 193.03943Q72.675 192.10193 73.28438 191.60193Q73.90938 191.10193 74.84688 191.10193Q75.53438 191.10193 76.05 191.38318Q76.58125 191.66443 76.925 192.19568Q77.26875 192.7113 77.45625 193.4613Q77.64375 194.2113 77.64375 195.49255Q77.64375 197.00818 77.33125 197.93005Q77.03438 198.85193 76.40938 199.36755Q75.8 199.86755 74.84688 199.86755Q73.6125 199.86755 72.89375 198.97693Q72.05 197.91443 72.05 195.49255ZM73.12813 195.49255Q73.12813 197.60193 73.62813 198.30505Q74.12813 199.00818 74.84688 199.00818Q75.58125 199.00818 76.06563 198.30505Q76.56563 197.60193 76.56563 195.49255Q76.56563 193.36755 76.06563 192.68005Q75.58125 191.97693 74.83125 191.97693Q74.1125 191.97693 73.675 192.5863Q73.12813 193.36755 73.12813 195.49255ZM79.05 195.49255Q79.05 193.9613 79.3625 193.03943Q79.675 192.10193 80.28438 191.60193Q80.90938 191.10193 81.84688 191.10193Q82.53438 191.10193 83.05 191.38318Q83.58125 191.66443 83.925 192.19568Q84.26875 192.7113 84.45625 193.4613Q84.64375 194.2113 84.64375 195.49255Q84.64375 197.00818 84.33125 197.93005Q84.03438 198.85193 83.40938 199.36755Q82.8 199.86755 81.84688 199.86755Q80.6125 199.86755 79.89375 198.97693Q79.05 197.91443 79.05 195.49255ZM80.12813 195.49255Q80.12813 197.60193 80.62813 198.30505Q81.12813 199.00818 81.84688 199.00818Q82.58125 199.00818 83.06563 198.30505Q83.56563 197.60193 83.56563 195.49255Q83.56563 193.36755 83.06563 192.68005Q82.58125 191.97693 81.83125 191.97693Q81.1125 191.97693 80.675 192.5863Q80.12813 193.36755 80.12813 195.49255ZM86.05 195.49255Q86.05 193.9613 86.3625 193.03943Q86.675 192.10193 87.28438 191.60193Q87.90938 191.10193 88.84688 191.10193Q89.53438 191.10193 90.05 191.38318Q90.58125 191.66443 90.925 192.19568Q91.26875 192.7113 91.45625 193.4613Q91.64375 194.2113 91.64375 195.49255Q91.64375 197.00818 91.33125 197.93005Q91.03438 198.85193 90.40938 199.36755Q89.8 199.86755 88.84688 199.86755Q87.6125 199.86755 86.89375 198.97693Q86.05 197.91443 86.05 195.49255ZM87.12813 195.49255Q87.12813 197.60193 87.62813 198.30505Q88.12813 199.00818 88.84688 199.00818Q89.58125 199.00818 90.06563 198.30505Q90.56563 197.60193 90.56563 195.49255Q90.56563 193.36755 90.06563 192.68005Q89.58125 191.97693 88.83125 191.97693Q88.1125 191.97693 87.675 192.5863Q87.12813 193.36755 87.12813 195.49255Z" fill-rule="nonzero"/><path fill="#000000" d="M54.425 164.81924L54.425 162.75674L50.70625 162.75674L50.70625 161.788L54.628124 156.2255L55.4875 156.2255L55.4875 161.788L56.64375 161.788L56.64375 162.75674L55.4875 162.75674L55.4875 164.81924L54.425 164.81924ZM54.425 161.788L54.425 157.92862L51.7375 161.788L54.425 161.788ZM58.05 160.58487Q58.05 159.05362 58.3625 158.13174Q58.675 157.19424 59.284374 156.69424Q59.909374 156.19424 60.846874 156.19424Q61.534374 156.19424 62.05 156.4755Q62.58125 156.75674 62.925 157.288Q63.26875 157.80362 63.45625 158.55362Q63.64375 159.30362 63.64375 160.58487Q63.64375 162.1005 63.33125 163.02237Q63.034374 163.94424 62.409374 164.45987Q61.8 164.95987 60.846874 164.95987Q59.6125 164.95987 58.89375 164.06924Q58.05 163.00674 58.05 160.58487ZM59.128124 160.58487Q59.128124 162.69424 59.628124 163.39737Q60.128124 164.1005 60.846874 164.1005Q61.58125 164.1005 62.065624 163.39737Q62.565624 162.69424 62.565624 160.58487Q62.565624 158.45987 62.065624 157.77237Q61.58125 157.06924 60.83125 157.06924Q60.1125 157.06924 59.675 157.67862Q59.128124 158.45987 59.128124 160.58487ZM65.05 160.58487Q65.05 159.05362 65.3625 158.13174Q65.675 157.19424 66.28438 156.69424Q66.90938 156.19424 67.84688 156.19424Q68.53438 156.19424 69.05 156.4755Q69.58125 156.75674 69.925 157.288Q70.26875 157.80362 70.45625 158.55362Q70.64375 159.30362 70.64375 160.58487Q70.64375 162.1005 70.33125 163.02237Q70.03438 163.94424 69.40938 164.45987Q68.8 164.95987 67.84688 164.95987Q66.6125 164.95987 65.89375 164.06924Q65.05 163.00674 65.05 160.58487ZM66.12813 160.58487Q66.12813 162.69424 66.62813 163.39737Q67.12813 164.1005 67.84688 164.1005Q68.58125 164.1005 69.06563 163.39737Q69.56563 162.69424 69.56563 160.58487Q69.56563 158.45987 69.06563 157.77237Q68.58125 157.06924 67.83125 157.06924Q67.1125 157.06924 66.675 157.67862Q66.12813 158.45987 66.12813 160.58487ZM72.05 160.58487Q72.05 159.05362 72.3625 158.13174Q72.675 157.19424 73.28438 156.69424Q73.90938 156.19424 74.84688 156.19424Q75.53438 156.19424 76.05 156.4755Q76.58125 156.75674 76.925 157.288Q77.26875 157.80362 77.45625 158.55362Q77.64375 159.30362 77.64375 160.58487Q77.64375 162.1005 77.33125 163.02237Q77.03438 163.94424 76.40938 164.45987Q75.8 164.95987 74.84688 164.95987Q73.6125 164.95987 72.89375 164.06924Q72.05 163.00674 72.05 160.58487ZM73.12813 160.58487Q73.12813 162.69424 73.62813 163.39737Q74.12813 164.1005 74.84688 164.1005Q75.58125 164.1005 76.06563 163.39737Q76.56563 162.69424 76.56563 160.58487Q76.56563 158.45987 76.06563 157.77237Q75.58125 157.06924 74.83125 157.06924Q74.1125 157.06924 73.675 157.67862Q73.12813 158.45987 73.12813 160.58487ZM79.05 160.58487Q79.05 159.05362 79.3625 158.13174Q79.675 157.19424 80.28438 156.69424Q80.90938 156.19424 81.84688 156.19424Q82.53438 156.19424 83.05 156.4755Q83.58125 156.75674 83.925 157.288Q84.26875 157.80362 84.45625 158.55362Q84.64375 159.30362 84.64375 160.58487Q84.64375 162.1005 84.33125 163.02237Q84.03438 163.94424 83.40938 164.45987Q82.8 164.95987 81.84688 164.95987Q80.6125 164.95987 79.89375 164.06924Q79.05 163.00674 79.05 160.58487ZM80.12813 160.58487Q80.12813 162.69424 80.62813 163.39737Q81.12813 164.1005 81.84688 164.1005Q82.58125 164.1005 83.06563 163.39737Q83.56563 162.69424 83.56563 160.58487Q83.56563 158.45987 83.06563 157.77237Q82.58125 157.06924 81.83125 157.06924Q81.1125 157.06924 80.675 157.67862Q80.12813 158.45987 80.12813 160.58487ZM86.05 160.58487Q86.05 159.05362 86.3625 158.13174Q86.675 157.19424 87.28438 156.69424Q87.90938 156.19424 88.84688 156.19424Q89.53438 156.19424 90.05 156.4755Q90.58125 156.75674 90.925 157.288Q91.26875 157.80362 91.45625 158.55362Q91.64375 159.30362 91.64375 160.58487Q91.64375 162.1005 91.33125 163.02237Q91.03438 163.94424 90.40938 164.45987Q89.8 164.95987 88.84688 164.95987Q87.6125 164.95987 86.89375 164.06924Q86.05 163.00674 86.05 160.58487ZM87.12813 160.58487Q87.12813 162.69424 87.62813 163.39737Q88.12813 164.1005 88.84688 164.1005Q89.58125 164.1005 90.06563 163.39737Q90.56563 162.69424 90.56563 160.58487Q90.56563 158.45987 90.06563 157.77237Q89.58125 157.06924 88.83125 157.06924Q88.1125 157.06924 87.675 157.67862Q87.12813 158.45987 87.12813 160.58487Z" fill-rule="nonzero"/><path fill="#000000" d="M51.05 127.661545L52.159374 127.567795Q52.284374 128.3803 52.721874 128.78654Q53.175 129.1928 53.815624 129.1928Q54.565624 129.1928 55.096874 128.61467Q55.628124 128.03654 55.628124 127.099045Q55.628124 126.192795 55.1125 125.67717Q54.6125 125.14592 53.784374 125.14592Q53.284374 125.14592 52.8625 125.380295Q52.45625 125.61467 52.221874 125.974045L51.2375 125.849045L52.065624 121.442795L56.346874 121.442795L56.346874 122.442795L52.909374 122.442795L52.45625 124.755295Q53.221874 124.20842 54.065624 124.20842Q55.190624 124.20842 55.95625 124.98967Q56.7375 125.77092 56.7375 127.005295Q56.7375 128.16154 56.065624 129.02092Q55.2375 130.05217 53.815624 130.05217Q52.64375 130.05217 51.89375 129.39592Q51.159374 128.73967 51.05 127.661545ZM58.05 125.67717Q58.05 124.14592 58.3625 123.224045Q58.675 122.286545 59.284374 121.786545Q59.909374 121.286545 60.846874 121.286545Q61.534374 121.286545 62.05 121.567795Q62.58125 121.849045 62.925 122.380295Q63.26875 122.89592 63.45625 123.64592Q63.64375 124.39592 63.64375 125.67717Q63.64375 127.192795 63.33125 128.11467Q63.034374 129.03654 62.409374 129.55217Q61.8 130.05217 60.846874 130.05217Q59.6125 130.05217 58.89375 129.16154Q58.05 128.09904 58.05 125.67717ZM59.128124 125.67717Q59.128124 127.786545 59.628124 128.48967Q60.128124 129.1928 60.846874 129.1928Q61.58125 129.1928 62.065624 128.48967Q62.565624 127.786545 62.565624 125.67717Q62.565624 123.55217 62.065624 122.86467Q61.58125 122.161545 60.83125 122.161545Q60.1125 122.161545 59.675 122.77092Q59.128124 123.55217 59.128124 125.67717ZM65.05 125.67717Q65.05 124.14592 65.3625 123.224045Q65.675 122.286545 66.28438 121.786545Q66.90938 121.286545 67.84688 121.286545Q68.53438 121.286545 69.05 121.567795Q69.58125 121.849045 69.925 122.380295Q70.26875 122.89592 70.45625 123.64592Q70.64375 124.39592 70.64375 125.67717Q70.64375 127.192795 70.33125 128.11467Q70.03438 129.03654 69.40938 129.55217Q68.8 130.05217 67.84688 130.05217Q66.6125 130.05217 65.89375 129.16154Q65.05 128.09904 65.05 125.67717ZM66.12813 125.67717Q66.12813 127.786545 66.62813 128.48967Q67.12813 129.1928 67.84688 129.1928Q68.58125 129.1928 69.06563 128.48967Q69.56563 127.786545 69.56563 125.67717Q69.56563 123.55217 69.06563 122.86467Q68.58125 122.161545 67.83125 122.161545Q67.1125 122.161545 66.675 122.77092Q66.12813 123.55217 66.12813 125.67717ZM72.05 125.67717Q72.05 124.14592 72.3625 123.224045Q72.675 122.286545 73.28438 121.786545Q73.90938 121.286545 74.84688 121.286545Q75.53438 121.286545 76.05 121.567795Q76.58125 121.849045 76.925 122.380295Q77.26875 122.89592 77.45625 123.64592Q77.64375 124.39592 77.64375 125.67717Q77.64375 127.192795 77.33125 128.11467Q77.03438 129.03654 76.40938 129.55217Q75.8 130.05217 74.84688 130.05217Q73.6125 130.05217 72.89375 129.16154Q72.05 128.09904 72.05 125.67717ZM73.12813 125.67717Q73.12813 127.786545 73.62813 128.48967Q74.12813 129.1928 74.84688 129.1928Q75.58125 129.1928 76.06563 128.48967Q76.56563 127.786545 76.56563 125.67717Q76.56563 123.55217 76.06563 122.86467Q75.58125 122.161545 74.83125 122.161545Q74.1125 122.161545 73.675 122.77092Q73.12813 123.55217 73.12813 125.67717ZM79.05 125.67717Q79.05 124.14592 79.3625 123.224045Q79.675 122.286545 80.28438 121.786545Q80.90938 121.286545 81.84688 121.286545Q82.53438 121.286545 83.05 121.567795Q83.58125 121.849045 83.925 122.380295Q84.26875 122.89592 84.45625 123.64592Q84.64375 124.39592 84.64375 125.67717Q84.64375 127.192795 84.33125 128.11467Q84.03438 129.03654 83.40938 129.55217Q82.8 130.05217 81.84688 130.05217Q80.6125 130.05217 79.89375 129.16154Q79.05 128.09904 79.05 125.67717ZM80.12813 125.67717Q80.12813 127.786545 80.62813 128.48967Q81.12813 129.1928 81.84688 129.1928Q82.58125 129.1928 83.06563 128.48967Q83.56563 127.786545 83.56563 125.67717Q83.56563 123.55217 83.06563 122.86467Q82.58125 122.161545 81.83125 122.161545Q81.1125 122.161545 80.675 122.77092Q80.12813 123.55217 80.12813 125.67717ZM86.05 125.67717Q86.05 124.14592 86.3625 123.224045Q86.675 122.286545 87.28438 121.786545Q87.90938 121.286545 88.84688 121.286545Q89.53438 121.286545 90.05 121.567795Q90.58125 121.849045 90.925 122.380295Q91.26875 122.89592 91.45625 123.64592Q91.64375 124.39592 91.64375 125.67717Q91.64375 127.192795 91.33125 128.11467Q91.03438 129.03654 90.40938 129.55217Q89.8 130.05217 88.84688 130.05217Q87.6125 130.05217 86.89375 129.16154Q86.05 128.09904 86.05 125.67717ZM87.12813 125.67717Q87.12813 127.786545 87.62813 128.48967Q88.12813 129.1928 88.84688 129.1928Q89.58125 129.1928 90.06563 128.48967Q90.56563 127.786545 90.56563 125.67717Q90.56563 123.55217 90.06563 122.86467Q89.58125 122.161545 88.83125 122.161545Q88.1125 122.161545 87.675 122.77092Q87.12813 123.55217 87.12813 125.67717Z" fill-rule="nonzero"/><path fill="#000000" d="M56.51875 88.51948L55.471874 88.5976Q55.33125 87.9726 55.08125 87.69135Q54.64375 87.23823 54.01875 87.23823Q53.51875 87.23823 53.128124 87.51948Q52.64375 87.89448 52.346874 88.5976Q52.065624 89.2851 52.05 90.56635Q52.425 89.98823 52.971874 89.70698Q53.534374 89.42573 54.14375 89.42573Q55.190624 89.42573 55.925 90.20698Q56.675 90.98823 56.675 92.20698Q56.675 93.01948 56.315624 93.7226Q55.971874 94.4101 55.3625 94.7851Q54.753124 95.14448 53.9875 95.14448Q52.659374 95.14448 51.83125 94.17573Q51.003124 93.20698 51.003124 90.98823Q51.003124 88.48823 51.925 87.36323Q52.721874 86.37885 54.08125 86.37885Q55.096874 86.37885 55.7375 86.95698Q56.39375 87.51948 56.51875 88.51948ZM52.221874 92.2226Q52.221874 92.76948 52.440624 93.26948Q52.675 93.75385 53.08125 94.01948Q53.503124 94.2851 53.971874 94.2851Q54.628124 94.2851 55.1125 93.75385Q55.596874 93.20698 55.596874 92.2851Q55.596874 91.39448 55.1125 90.87885Q54.64375 90.36323 53.925 90.36323Q53.20625 90.36323 52.70625 90.87885Q52.221874 91.39448 52.221874 92.2226ZM58.05 90.76948Q58.05 89.23823 58.3625 88.31635Q58.675 87.37885 59.284374 86.87885Q59.909374 86.37885 60.846874 86.37885Q61.534374 86.37885 62.05 86.6601Q62.58125 86.94135 62.925 87.4726Q63.26875 87.98823 63.45625 88.73823Q63.64375 89.48823 63.64375 90.76948Q63.64375 92.2851 63.33125 93.20698Q63.034374 94.12885 62.409374 94.64448Q61.8 95.14448 60.846874 95.14448Q59.6125 95.14448 58.89375 94.25385Q58.05 93.19135 58.05 90.76948ZM59.128124 90.76948Q59.128124 92.87885 59.628124 93.58198Q60.128124 94.2851 60.846874 94.2851Q61.58125 94.2851 62.065624 93.58198Q62.565624 92.87885 62.565624 90.76948Q62.565624 88.64448 62.065624 87.95698Q61.58125 87.25385 60.83125 87.25385Q60.1125 87.25385 59.675 87.86323Q59.128124 88.64448 59.128124 90.76948ZM65.05 90.76948Q65.05 89.23823 65.3625 88.31635Q65.675 87.37885 66.28438 86.87885Q66.90938 86.37885 67.84688 86.37885Q68.53438 86.37885 69.05 86.6601Q69.58125 86.94135 69.925 87.4726Q70.26875 87.98823 70.45625 88.73823Q70.64375 89.48823 70.64375 90.76948Q70.64375 92.2851 70.33125 93.20698Q70.03438 94.12885 69.40938 94.64448Q68.8 95.14448 67.84688 95.14448Q66.6125 95.14448 65.89375 94.25385Q65.05 93.19135 65.05 90.76948ZM66.12813 90.76948Q66.12813 92.87885 66.62813 93.58198Q67.12813 94.2851 67.84688 94.2851Q68.58125 94.2851 69.06563 93.58198Q69.56563 92.87885 69.56563 90.76948Q69.56563 88.64448 69.06563 87.95698Q68.58125 87.25385 67.83125 87.25385Q67.1125 87.25385 66.675 87.86323Q66.12813 88.64448 66.12813 90.76948ZM72.05 90.76948Q72.05 89.23823 72.3625 88.31635Q72.675 87.37885 73.28438 86.87885Q73.90938 86.37885 74.84688 86.37885Q75.53438 86.37885 76.05 86.6601Q76.58125 86.94135 76.925 87.4726Q77.26875 87.98823 77.45625 88.73823Q77.64375 89.48823 77.64375 90.76948Q77.64375 92.2851 77.33125 93.20698Q77.03438 94.12885 76.40938 94.64448Q75.8 95.14448 74.84688 95.14448Q73.6125 95.14448 72.89375 94.25385Q72.05 93.19135 72.05 90.76948ZM73.12813 90.76948Q73.12813 92.87885 73.62813 93.58198Q74.12813 94.2851 74.84688 94.2851Q75.58125 94.2851 76.06563 93.58198Q76.56563 92.87885 76.56563 90.76948Q76.56563 88.64448 76.06563 87.95698Q75.58125 87.25385 74.83125 87.25385Q74.1125 87.25385 73.675 87.86323Q73.12813 88.64448 73.12813 90.76948ZM79.05 90.76948Q79.05 89.23823 79.3625 88.31635Q79.675 87.37885 80.28438 86.87885Q80.90938 86.37885 81.84688 86.37885Q82.53438 86.37885 83.05 86.6601Q83.58125 86.94135 83.925 87.4726Q84.26875 87.98823 84.45625 88.73823Q84.64375 89.48823 84.64375 90.76948Q84.64375 92.2851 84.33125 93.20698Q84.03438 94.12885 83.40938 94.64448Q82.8 95.14448 81.84688 95.14448Q80.6125 95.14448 79.89375 94.25385Q79.05 93.19135 79.05 90.76948ZM80.12813 90.76948Q80.12813 92.87885 80.62813 93.58198Q81.12813 94.2851 81.84688 94.2851Q82.58125 94.2851 83.06563 93.58198Q83.56563 92.87885 83.56563 90.76948Q83.56563 88.64448 83.06563 87.95698Q82.58125 87.25385 81.83125 87.25385Q81.1125 87.25385 80.675 87.86323Q80.12813 88.64448 80.12813 90.76948ZM86.05 90.76948Q86.05 89.23823 86.3625 88.31635Q86.675 87.37885 87.28438 86.87885Q87.90938 86.37885 88.84688 86.37885Q89.53438 86.37885 90.05 86.6601Q90.58125 86.94135 90.925 87.4726Q91.26875 87.98823 91.45625 88.73823Q91.64375 89.48823 91.64375 90.76948Q91.64375 92.2851 91.33125 93.20698Q91.03438 94.12885 90.40938 94.64448Q89.8 95.14448 88.84688 95.14448Q87.6125 95.14448 86.89375 94.25385Q86.05 93.19135 86.05 90.76948ZM87.12813 90.76948Q87.12813 92.87885 87.62813 93.58198Q88.12813 94.2851 88.84688 94.2851Q89.58125 94.2851 90.06563 93.58198Q90.56563 92.87885 90.56563 90.76948Q90.56563 88.64448 90.06563 87.95698Q89.58125 87.25385 88.83125 87.25385Q88.1125 87.25385 87.675 87.86323Q87.12813 88.64448 87.12813 90.76948Z" fill-rule="nonzero"/><path fill="#000000" d="M51.1125 52.627415L51.1125 51.61179L56.675 51.61179L56.675 52.439915Q55.8625 53.314915 55.05 54.76804Q54.253124 56.20554 53.815624 57.73679Q53.4875 58.814915 53.409374 60.096165L52.315624 60.096165Q52.33125 59.08054 52.70625 57.64304Q53.096874 56.20554 53.8 54.877415Q54.51875 53.54929 55.33125 52.627415L51.1125 52.627415ZM58.05 55.86179Q58.05 54.33054 58.3625 53.408665Q58.675 52.471165 59.284374 51.971165Q59.909374 51.471165 60.846874 51.471165Q61.534374 51.471165 62.05 51.752415Q62.58125 52.033665 62.925 52.564915Q63.26875 53.08054 63.45625 53.83054Q63.64375 54.58054 63.64375 55.86179Q63.64375 57.377415 63.33125 58.29929Q63.034374 59.221165 62.409374 59.73679Q61.8 60.23679 60.846874 60.23679Q59.6125 60.23679 58.89375 59.346165Q58.05 58.283665 58.05 55.86179ZM59.128124 55.86179Q59.128124 57.971165 59.628124 58.67429Q60.128124 59.377415 60.846874 59.377415Q61.58125 59.377415 62.065624 58.67429Q62.565624 57.971165 62.565624 55.86179Q62.565624 53.73679 62.065624 53.04929Q61.58125 52.346165 60.83125 52.346165Q60.1125 52.346165 59.675 52.95554Q59.128124 53.73679 59.128124 55.86179ZM65.05 55.86179Q65.05 54.33054 65.3625 53.408665Q65.675 52.471165 66.28438 51.971165Q66.90938 51.471165 67.84688 51.471165Q68.53438 51.471165 69.05 51.752415Q69.58125 52.033665 69.925 52.564915Q70.26875 53.08054 70.45625 53.83054Q70.64375 54.58054 70.64375 55.86179Q70.64375 57.377415 70.33125 58.29929Q70.03438 59.221165 69.40938 59.73679Q68.8 60.23679 67.84688 60.23679Q66.6125 60.23679 65.89375 59.346165Q65.05 58.283665 65.05 55.86179ZM66.12813 55.86179Q66.12813 57.971165 66.62813 58.67429Q67.12813 59.377415 67.84688 59.377415Q68.58125 59.377415 69.06563 58.67429Q69.56563 57.971165 69.56563 55.86179Q69.56563 53.73679 69.06563 53.04929Q68.58125 52.346165 67.83125 52.346165Q67.1125 52.346165 66.675 52.95554Q66.12813 53.73679 66.12813 55.86179ZM72.05 55.86179Q72.05 54.33054 72.3625 53.408665Q72.675 52.471165 73.28438 51.971165Q73.90938 51.471165 74.84688 51.471165Q75.53438 51.471165 76.05 51.752415Q76.58125 52.033665 76.925 52.564915Q77.26875 53.08054 77.45625 53.83054Q77.64375 54.58054 77.64375 55.86179Q77.64375 57.377415 77.33125 58.29929Q77.03438 59.221165 76.40938 59.73679Q75.8 60.23679 74.84688 60.23679Q73.6125 60.23679 72.89375 59.346165Q72.05 58.283665 72.05 55.86179ZM73.12813 55.86179Q73.12813 57.971165 73.62813 58.67429Q74.12813 59.377415 74.84688 59.377415Q75.58125 59.377415 76.06563 58.67429Q76.56563 57.971165 76.56563 55.86179Q76.56563 53.73679 76.06563 53.04929Q75.58125 52.346165 74.83125 52.346165Q74.1125 52.346165 73.675 52.95554Q73.12813 53.73679 73.12813 55.86179ZM79.05 55.86179Q79.05 54.33054 79.3625 53.408665Q79.675 52.471165 80.28438 51.971165Q80.90938 51.471165 81.84688 51.471165Q82.53438 51.471165 83.05 51.752415Q83.58125 52.033665 83.925 52.564915Q84.26875 53.08054 84.45625 53.83054Q84.64375 54.58054 84.64375 55.86179Q84.64375 57.377415 84.33125 58.29929Q84.03438 59.221165 83.40938 59.73679Q82.8 60.23679 81.84688 60.23679Q80.6125 60.23679 79.89375 59.346165Q79.05 58.283665 79.05 55.86179ZM80.12813 55.86179Q80.12813 57.971165 80.62813 58.67429Q81.12813 59.377415 81.84688 59.377415Q82.58125 59.377415 83.06563 58.67429Q83.56563 57.971165 83.56563 55.86179Q83.56563 53.73679 83.06563 53.04929Q82.58125 52.346165 81.83125 52.346165Q81.1125 52.346165 80.675 52.95554Q80.12813 53.73679 80.12813 55.86179ZM86.05 55.86179Q86.05 54.33054 86.3625 53.408665Q86.675 52.471165 87.28438 51.971165Q87.90938 51.471165 88.84688 51.471165Q89.53438 51.471165 90.05 51.752415Q90.58125 52.033665 90.925 52.564915Q91.26875 53.08054 91.45625 53.83054Q91.64375 54.58054 91.64375 55.86179Q91.64375 57.377415 91.33125 58.29929Q91.03438 59.221165 90.40938 59.73679Q89.8 60.23679 88.84688 60.23679Q87.6125 60.23679 86.89375 59.346165Q86.05 58.283665 86.05 55.86179ZM87.12813 55.86179Q87.12813 57.971165 87.62813 58.67429Q88.12813 59.377415 88.84688 59.377415Q89.58125 59.377415 90.06563 58.67429Q90.56563 57.971165 90.56563 55.86179Q90.56563 53.73679 90.06563 53.04929Q89.58125 52.346165 88.83125 52.346165Q88.1125 52.346165 87.675 52.95554Q87.12813 53.73679 87.12813 55.86179Z" fill-rule="nonzero"/><path fill="#000000" d="M146.8819 313.21564Q146.8819 311.6844 147.1944 310.7625Q147.5069 309.825 148.11627 309.325Q148.74127 308.825 149.67877 308.825Q150.36627 308.825 150.8819 309.10626Q151.41315 309.3875 151.7569 309.91876Q152.10065 310.4344 152.28815 311.1844Q152.47565 311.9344 152.47565 313.21564Q152.47565 314.73126 152.16315 315.65314Q151.86627 316.575 151.24127 317.09064Q150.6319 317.59064 149.67877 317.59064Q148.4444 317.59064 147.72565 316.7Q146.8819 315.6375 146.8819 313.21564ZM147.96002 313.21564Q147.96002 315.325 148.46002 316.02814Q148.96002 316.73126 149.67877 316.73126Q150.41315 316.73126 150.89752 316.02814Q151.39752 315.325 151.39752 313.21564Q151.39752 311.09064 150.89752 310.40314Q150.41315 309.7 149.66315 309.7Q148.9444 309.7 148.5069 310.3094Q147.96002 311.09064 147.96002 313.21564Z" fill-rule="nonzero"/><path fill="#000000" d="M223.39789 317.45L222.35101 317.45L222.35101 310.73126Q221.96039 311.09064 221.33539 311.46564Q220.72601 311.825 220.24164 311.9969L220.24164 310.98126Q221.11664 310.5594 221.77289 309.98126Q222.44476 309.3875 222.72601 308.825L223.39789 308.825L223.39789 317.45ZM226.42914 313.21564Q226.42914 311.6844 226.74164 310.7625Q227.05414 309.825 227.66351 309.325Q228.28851 308.825 229.22601 308.825Q229.91351 308.825 230.42914 309.10626Q230.96039 309.3875 231.30414 309.91876Q231.64789 310.4344 231.83539 311.1844Q232.02289 311.9344 232.02289 313.21564Q232.02289 314.73126 231.71039 315.65314Q231.41351 316.575 230.78851 317.09064Q230.17914 317.59064 229.22601 317.59064Q227.99164 317.59064 227.27289 316.7Q226.42914 315.6375 226.42914 313.21564ZM227.50726 313.21564Q227.50726 315.325 228.00726 316.02814Q228.50726 316.73126 229.22601 316.73126Q229.96039 316.73126 230.44476 316.02814Q230.94476 315.325 230.94476 313.21564Q230.94476 311.09064 230.44476 310.40314Q229.96039 309.7 229.21039 309.7Q228.49164 309.7 228.05414 310.3094Q227.50726 311.09064 227.50726 313.21564Z" fill-rule="nonzero"/><path fill="#000000" d="M295.94513 317.45L294.89825 317.45L294.89825 310.73126Q294.50763 311.09064 293.88263 311.46564Q293.27325 311.825 292.78888 311.9969L292.78888 310.98126Q293.66388 310.5594 294.32013 309.98126Q294.992 309.3875 295.27325 308.825L295.94513 308.825L295.94513 317.45ZM298.97638 313.21564Q298.97638 311.6844 299.28888 310.7625Q299.60138 309.825 300.21075 309.325Q300.83575 308.825 301.77325 308.825Q302.46075 308.825 302.97638 309.10626Q303.50763 309.3875 303.85138 309.91876Q304.19513 310.4344 304.38263 311.1844Q304.57013 311.9344 304.57013 313.21564Q304.57013 314.73126 304.25763 315.65314Q303.96075 316.575 303.33575 317.09064Q302.72638 317.59064 301.77325 317.59064Q300.53888 317.59064 299.82013 316.7Q298.97638 315.6375 298.97638 313.21564ZM300.0545 313.21564Q300.0545 315.325 300.5545 316.02814Q301.0545 316.73126 301.77325 316.73126Q302.50763 316.73126 302.992 316.02814Q303.492 315.325 303.492 313.21564Q303.492 311.09064 302.992 310.40314Q302.50763 309.7 301.75763 309.7Q301.03888 309.7 300.60138 310.3094Q300.0545 311.09064 300.0545 313.21564ZM305.97638 313.21564Q305.97638 311.6844 306.28888 310.7625Q306.60138 309.825 307.21075 309.325Q307.83575 308.825 308.77325 308.825Q309.46075 308.825 309.97638 309.10626Q310.50763 309.3875 310.85138 309.91876Q311.19513 310.4344 311.38263 311.1844Q311.57013 311.9344 311.57013 313.21564Q311.57013 314.73126 311.25763 315.65314Q310.96075 316.575 310.33575 317.09064Q309.72638 317.59064 308.77325 317.59064Q307.53888 317.59064 306.82013 316.7Q305.97638 315.6375 305.97638 313.21564ZM307.0545 313.21564Q307.0545 315.325 307.5545 316.02814Q308.0545 316.73126 308.77325 316.73126Q309.50763 316.73126 309.992 316.02814Q310.492 315.325 310.492 313.21564Q310.492 311.09064 309.992 310.40314Q309.50763 309.7 308.75763 309.7Q308.03888 309.7 307.60138 310.3094Q307.0545 311.09064 307.0545 313.21564Z" fill-rule="nonzero"/><path fill="#000000" d="M368.49237 317.45L367.4455 317.45L367.4455 310.73126Q367.05487 311.09064 366.42987 311.46564Q365.8205 311.825 365.33612 311.9969L365.33612 310.98126Q366.21112 310.5594 366.86737 309.98126Q367.53925 309.3875 367.8205 308.825L368.49237 308.825L368.49237 317.45ZM371.52362 313.21564Q371.52362 311.6844 371.83612 310.7625Q372.14862 309.825 372.758 309.325Q373.383 308.825 374.3205 308.825Q375.008 308.825 375.52362 309.10626Q376.05487 309.3875 376.39862 309.91876Q376.74237 310.4344 376.92987 311.1844Q377.11737 311.9344 377.11737 313.21564Q377.11737 314.73126 376.80487 315.65314Q376.508 316.575 375.883 317.09064Q375.27362 317.59064 374.3205 317.59064Q373.08612 317.59064 372.36737 316.7Q371.52362 315.6375 371.52362 313.21564ZM372.60175 313.21564Q372.60175 315.325 373.10175 316.02814Q373.60175 316.73126 374.3205 316.73126Q375.05487 316.73126 375.53925 316.02814Q376.03925 315.325 376.03925 313.21564Q376.03925 311.09064 375.53925 310.40314Q375.05487 309.7 374.30487 309.7Q373.58612 309.7 373.14862 310.3094Q372.60175 311.09064 372.60175 313.21564ZM378.52362 313.21564Q378.52362 311.6844 378.83612 310.7625Q379.14862 309.825 379.758 309.325Q380.383 308.825 381.3205 308.825Q382.008 308.825 382.52362 309.10626Q383.05487 309.3875 383.39862 309.91876Q383.74237 310.4344 383.92987 311.1844Q384.11737 311.9344 384.11737 313.21564Q384.11737 314.73126 383.80487 315.65314Q383.508 316.575 382.883 317.09064Q382.27362 317.59064 381.3205 317.59064Q380.08612 317.59064 379.36737 316.7Q378.52362 315.6375 378.52362 313.21564ZM379.60175 313.21564Q379.60175 315.325 380.10175 316.02814Q380.60175 316.73126 381.3205 316.73126Q382.05487 316.73126 382.53925 316.02814Q383.03925 315.325 383.03925 313.21564Q383.03925 311.09064 382.53925 310.40314Q382.05487 309.7 381.30487 309.7Q380.58612 309.7 380.14862 310.3094Q379.60175 311.09064 379.60175 313.21564ZM385.52362 313.21564Q385.52362 311.6844 385.83612 310.7625Q386.14862 309.825 386.758 309.325Q387.383 308.825 388.3205 308.825Q389.008 308.825 389.52362 309.10626Q390.05487 309.3875 390.39862 309.91876Q390.74237 310.4344 390.92987 311.1844Q391.11737 311.9344 391.11737 313.21564Q391.11737 314.73126 390.80487 315.65314Q390.508 316.575 389.883 317.09064Q389.27362 317.59064 388.3205 317.59064Q387.08612 317.59064 386.36737 316.7Q385.52362 315.6375 385.52362 313.21564ZM386.60175 313.21564Q386.60175 315.325 387.10175 316.02814Q387.60175 316.73126 388.3205 316.73126Q389.05487 316.73126 389.53925 316.02814Q390.03925 315.325 390.03925 313.21564Q390.03925 311.09064 389.53925 310.40314Q389.05487 309.7 388.30487 309.7Q387.58612 309.7 387.14862 310.3094Q386.60175 311.09064 386.60175 313.21564Z" fill-rule="nonzero"/><path fill="#000000" d="M441.0396 317.45L439.99274 317.45L439.99274 310.73126Q439.6021 311.09064 438.9771 311.46564Q438.36774 311.825 437.88336 311.9969L437.88336 310.98126Q438.75836 310.5594 439.4146 309.98126Q440.0865 309.3875 440.36774 308.825L441.0396 308.825L441.0396 317.45ZM444.07086 313.21564Q444.07086 311.6844 444.38336 310.7625Q444.69586 309.825 445.30524 309.325Q445.93024 308.825 446.86774 308.825Q447.55524 308.825 448.07086 309.10626Q448.6021 309.3875 448.94586 309.91876Q449.2896 310.4344 449.4771 311.1844Q449.6646 311.9344 449.6646 313.21564Q449.6646 314.73126 449.3521 315.65314Q449.05524 316.575 448.43024 317.09064Q447.82086 317.59064 446.86774 317.59064Q445.63336 317.59064 444.9146 316.7Q444.07086 315.6375 444.07086 313.21564ZM445.149 313.21564Q445.149 315.325 445.649 316.02814Q446.149 316.73126 446.86774 316.73126Q447.6021 316.73126 448.0865 316.02814Q448.5865 315.325 448.5865 313.21564Q448.5865 311.09064 448.0865 310.40314Q447.6021 309.7 446.8521 309.7Q446.13336 309.7 445.69586 310.3094Q445.149 311.09064 445.149 313.21564ZM451.07086 313.21564Q451.07086 311.6844 451.38336 310.7625Q451.69586 309.825 452.30524 309.325Q452.93024 308.825 453.86774 308.825Q454.55524 308.825 455.07086 309.10626Q455.6021 309.3875 455.94586 309.91876Q456.2896 310.4344 456.4771 311.1844Q456.6646 311.9344 456.6646 313.21564Q456.6646 314.73126 456.3521 315.65314Q456.05524 316.575 455.43024 317.09064Q454.82086 317.59064 453.86774 317.59064Q452.63336 317.59064 451.9146 316.7Q451.07086 315.6375 451.07086 313.21564ZM452.149 313.21564Q452.149 315.325 452.649 316.02814Q453.149 316.73126 453.86774 316.73126Q454.6021 316.73126 455.0865 316.02814Q455.5865 315.325 455.5865 313.21564Q455.5865 311.09064 455.0865 310.40314Q454.6021 309.7 453.8521 309.7Q453.13336 309.7 452.69586 310.3094Q452.149 311.09064 452.149 313.21564ZM458.07086 313.21564Q458.07086 311.6844 458.38336 310.7625Q458.69586 309.825 459.30524 309.325Q459.93024 308.825 460.86774 308.825Q461.55524 308.825 462.07086 309.10626Q462.6021 309.3875 462.94586 309.91876Q463.2896 310.4344 463.4771 311.1844Q463.6646 311.9344 463.6646 313.21564Q463.6646 314.73126 463.3521 315.65314Q463.05524 316.575 462.43024 317.09064Q461.82086 317.59064 460.86774 317.59064Q459.63336 317.59064 458.9146 316.7Q458.07086 315.6375 458.07086 313.21564ZM459.149 313.21564Q459.149 315.325 459.649 316.02814Q460.149 316.73126 460.86774 316.73126Q461.6021 316.73126 462.0865 316.02814Q462.5865 315.325 462.5865 313.21564Q462.5865 311.09064 462.0865 310.40314Q461.6021 309.7 460.8521 309.7Q460.13336 309.7 459.69586 310.3094Q459.149 311.09064 459.149 313.21564ZM465.07086 313.21564Q465.07086 311.6844 465.38336 310.7625Q465.69586 309.825 466.30524 309.325Q466.93024 308.825 467.86774 308.825Q468.55524 308.825 469.07086 309.10626Q469.6021 309.3875 469.94586 309.91876Q470.2896 310.4344 470.4771 311.1844Q470.6646 311.9344 470.6646 313.21564Q470.6646 314.73126 470.3521 315.65314Q470.05524 316.575 469.43024 317.09064Q468.82086 317.59064 467.86774 317.59064Q466.63336 317.59064 465.9146 316.7Q465.07086 315.6375 465.07086 313.21564ZM466.149 313.21564Q466.149 315.325 466.649 316.02814Q467.149 316.73126 467.86774 316.73126Q468.6021 316.73126 469.0865 316.02814Q469.5865 315.325 469.5865 313.21564Q469.5865 311.09064 469.0865 310.40314Q468.6021 309.7 467.8521 309.7Q467.13336 309.7 466.69586 310.3094Q466.149 311.09064 466.149 313.21564Z" fill-rule="nonzero"/><path fill="#000000" d="M506.53998 317.45L506.53998 308.85626L507.69623 308.85626L512.21185 315.60626L512.21185 308.85626L513.3056 308.85626L513.3056 317.45L512.1337 317.45L507.6181 310.7L507.6181 317.45L506.53998 317.45ZM515.02435 314.34064Q515.02435 312.60626 515.9775 311.77814Q516.77435 311.09064 517.9306 311.09064Q519.21185 311.09064 520.02435 311.9344Q520.8525 312.7625 520.8525 314.2469Q520.8525 315.45 520.4931 316.1375Q520.1337 316.825 519.4306 317.21564Q518.7431 317.59064 517.9306 317.59064Q516.6337 317.59064 515.8212 316.7625Q515.02435 315.91876 515.02435 314.34064ZM516.1025 314.34064Q516.1025 315.52814 516.6181 316.1219Q517.14935 316.71564 517.9306 316.71564Q518.7275 316.71564 519.2431 316.1219Q519.7587 315.52814 519.7587 314.3094Q519.7587 313.15314 519.2275 312.5594Q518.71185 311.96564 517.9306 311.96564Q517.14935 311.96564 516.6181 312.5594Q516.1025 313.1375 516.1025 314.34064ZM525.415 310.075L525.415 308.85626L526.4775 308.85626L526.4775 310.075L525.415 310.075ZM525.415 317.45L525.415 311.23126L526.4775 311.23126L526.4775 317.45L525.415 317.45ZM528.415 317.45L528.415 311.23126L529.3525 311.23126L529.3525 312.10626Q530.04 311.09064 531.33685 311.09064Q531.89935 311.09064 532.3681 311.29376Q532.8525 311.4969 533.08685 311.825Q533.3212 312.15314 533.415 312.59064Q533.46185 312.8875 533.46185 313.6219L533.46185 317.45L532.415 317.45L532.415 313.66876Q532.415 313.0125 532.29 312.7Q532.165 312.3875 531.8525 312.2Q531.54 311.9969 531.1181 311.9969Q530.4462 311.9969 529.9462 312.4344Q529.46185 312.85626 529.46185 314.04376L529.46185 317.45L528.415 317.45ZM539.4462 317.45L539.4462 316.66876Q538.8525 317.59064 537.71185 317.59064Q536.96185 317.59064 536.33685 317.1844Q535.71185 316.7625 535.3681 316.02814Q535.02435 315.29376 535.02435 314.34064Q535.02435 313.41876 535.33685 312.65314Q535.64935 311.8875 536.27435 311.4969Q536.89935 311.09064 537.665 311.09064Q538.2275 311.09064 538.665 311.325Q539.1025 311.5594 539.3837 311.9344L539.3837 308.85626L540.4306 308.85626L540.4306 317.45L539.4462 317.45ZM536.1181 314.34064Q536.1181 315.54376 536.6181 316.1375Q537.1181 316.71564 537.8056 316.71564Q538.4931 316.71564 538.9775 316.15314Q539.46185 315.59064 539.46185 314.4344Q539.46185 313.15314 538.96185 312.5594Q538.4775 311.96564 537.7587 311.96564Q537.0556 311.96564 536.58685 312.54376Q536.1181 313.10626 536.1181 314.34064ZM546.665 315.45L547.7587 315.575Q547.5087 316.52814 546.8056 317.0594Q546.1025 317.59064 545.02435 317.59064Q543.665 317.59064 542.8525 316.7469Q542.0556 315.90314 542.0556 314.3875Q542.0556 312.825 542.8681 311.96564Q543.6806 311.09064 544.96185 311.09064Q546.21185 311.09064 546.9931 311.9344Q547.79 312.77814 547.79 314.325Q547.79 314.41876 547.79 314.60626L543.14935 314.60626Q543.21185 315.6375 543.7275 316.1844Q544.2431 316.71564 545.02435 316.71564Q545.6025 316.71564 546.0087 316.41876Q546.4306 316.10626 546.665 315.45ZM543.21185 313.7469L546.6806 313.7469Q546.6181 312.95 546.29 312.5594Q545.77435 311.95 544.9775 311.95Q544.2431 311.95 543.7431 312.4344Q543.2587 312.91876 543.21185 313.7469ZM548.71185 317.45L550.9775 314.21564L548.8837 311.23126L550.1962 311.23126L551.14935 312.6844Q551.415 313.10626 551.58685 313.3875Q551.83685 312.9969 552.0556 312.7L553.1025 311.23126L554.3681 311.23126L552.21185 314.15314L554.52435 317.45L553.2431 317.45L551.96185 315.5125L551.6181 314.9969L549.9775 317.45L548.71185 317.45Z" fill-rule="nonzero"/><path fill="#4285f4" d="M194.5 20.55C194.5 19.997715 194.94771 19.55 195.5 19.55L205.5 19.55C206.05229 19.55 206.5 19.997715 206.5 20.55L206.5 30.55C206.5 31.102285 206.05229 31.55 205.5 31.55L195.5 31.55C194.94771 31.55 194.5 31.102285 194.5 30.55Z" fill-rule="nonzero"/><path fill="#1a1a1a" d="M215.42188 29.55L215.42188 20.95625L218.67188 20.95625Q219.51562 20.95625 219.96875 21.034374Q220.60938 21.14375 221.03125 21.440624Q221.46875 21.7375 221.71875 22.26875Q221.98438 22.8 221.98438 23.440624Q221.98438 24.534374 221.28125 25.3Q220.59375 26.05 218.76562 26.05L216.5625 26.05L216.5625 29.55L215.42188 29.55ZM216.5625 25.05L218.78125 25.05Q219.89062 25.05 220.34375 24.64375Q220.8125 24.221874 220.8125 23.471874Q220.8125 22.940624 220.53125 22.565624Q220.26562 22.175 219.82812 22.05Q219.53125 21.971874 218.76562 21.971874L216.5625 21.971874L216.5625 25.05ZM223.26562 29.55L223.26562 20.95625L224.32812 20.95625L224.32812 29.55L223.26562 29.55ZM230.35938 28.784374Q229.76562 29.284374 229.21875 29.4875Q228.6875 29.690624 228.0625 29.690624Q227.03125 29.690624 226.48438 29.190624Q225.9375 28.690624 225.9375 27.909374Q225.9375 27.45625 226.14062 27.08125Q226.34375 26.690624 226.6875 26.471874Q227.03125 26.2375 227.45312 26.128124Q227.75 26.034374 228.39062 25.95625Q229.65625 25.815624 230.26562 25.596874Q230.26562 25.378124 230.26562 25.33125Q230.26562 24.675 229.96875 24.409374Q229.5625 24.065624 228.76562 24.065624Q228.03125 24.065624 227.67188 24.33125Q227.3125 24.58125 227.14062 25.2375L226.10938 25.096874Q226.25 24.440624 226.57812 24.034374Q226.90625 23.628124 227.51562 23.409374Q228.125 23.190624 228.92188 23.190624Q229.71875 23.190624 230.21875 23.378124Q230.71875 23.565624 230.95312 23.846874Q231.1875 24.128124 231.28125 24.565624Q231.32812 24.83125 231.32812 25.534374L231.32812 26.940624Q231.32812 28.409374 231.39062 28.8Q231.46875 29.190624 231.67188 29.55L230.5625 29.55Q230.40625 29.221874 230.35938 28.784374ZM230.26562 26.425Q229.6875 26.659374 228.54688 26.83125Q227.89062 26.925 227.625 27.05Q227.35938 27.159374 227.20312 27.378124Q227.0625 27.596874 227.0625 27.878124Q227.0625 28.3 227.375 28.58125Q227.70312 28.8625 228.3125 28.8625Q228.92188 28.8625 229.39062 28.596874Q229.875 28.33125 230.09375 27.8625Q230.26562 27.503124 230.26562 26.815624L230.26562 26.425ZM233.29688 29.55L233.29688 23.33125L234.23438 23.33125L234.23438 24.20625Q234.92188 23.190624 236.21875 23.190624Q236.78125 23.190624 237.25 23.39375Q237.73438 23.596874 237.96875 23.925Q238.20312 24.253124 238.29688 24.690624Q238.34375 24.9875 238.34375 25.721874L238.34375 29.55L237.29688 29.55L237.29688 25.76875Q237.29688 25.1125 237.17188 24.8Q237.04688 24.4875 236.73438 24.3Q236.42188 24.096874 236.0 24.096874Q235.32812 24.096874 234.82812 24.534374Q234.34375 24.95625 234.34375 26.14375L234.34375 29.55L233.29688 29.55ZM240.29688 29.55L240.29688 23.33125L241.23438 23.33125L241.23438 24.20625Q241.92188 23.190624 243.21875 23.190624Q243.78125 23.190624 244.25 23.39375Q244.73438 23.596874 244.96875 23.925Q245.20312 24.253124 245.29688 24.690624Q245.34375 24.9875 245.34375 25.721874L245.34375 29.55L244.29688 29.55L244.29688 25.76875Q244.29688 25.1125 244.17188 24.8Q244.04688 24.4875 243.73438 24.3Q243.42188 24.096874 243.0 24.096874Q242.32812 24.096874 241.82812 24.534374Q241.34375 24.95625 241.34375 26.14375L241.34375 29.55L240.29688 29.55ZM247.29688 22.175L247.29688 20.95625L248.35938 20.95625L248.35938 22.175L247.29688 22.175ZM247.29688 29.55L247.29688 23.33125L248.35938 23.33125L248.35938 29.55L247.29688 29.55ZM250.29688 29.55L250.29688 23.33125L251.23438 23.33125L251.23438 24.20625Q251.92188 23.190624 253.21875 23.190624Q253.78125 23.190624 254.25 23.39375Q254.73438 23.596874 254.96875 23.925Q255.20312 24.253124 255.29688 24.690624Q255.34375 24.9875 255.34375 25.721874L255.34375 29.55L254.29688 29.55L254.29688 25.76875Q254.29688 25.1125 254.17188 24.8Q254.04688 24.4875 253.73438 24.3Q253.42188 24.096874 253.0 24.096874Q252.32812 24.096874 251.82812 24.534374Q251.34375 24.95625 251.34375 26.14375L251.34375 29.55L250.29688 29.55ZM257.09375 30.065624L258.125 30.221874Q258.1875 30.690624 258.48438 30.909374Q258.875 31.20625 259.54688 31.20625Q260.28125 31.20625 260.67188 30.909374Q261.07812 30.6125 261.21875 30.096874Q261.3125 29.76875 261.29688 28.7375Q260.60938 29.55 259.57812 29.55Q258.29688 29.55 257.59375 28.628124Q256.89062 27.690624 256.89062 26.409374Q256.89062 25.51875 257.20312 24.76875Q257.53125 24.003124 258.14062 23.596874Q258.75 23.190624 259.57812 23.190624Q260.6875 23.190624 261.40625 24.08125L261.40625 23.33125L262.375 23.33125L262.375 28.70625Q262.375 30.159374 262.07812 30.76875Q261.78125 31.378124 261.14062 31.721874Q260.5 32.08125 259.5625 32.08125Q258.45312 32.08125 257.76562 31.58125Q257.07812 31.08125 257.09375 30.065624ZM257.96875 26.33125Q257.96875 27.55 258.45312 28.1125Q258.9375 28.675 259.67188 28.675Q260.40625 28.675 260.89062 28.1125Q261.39062 27.55 261.39062 26.3625Q261.39062 25.221874 260.875 24.64375Q260.375 24.065624 259.65625 24.065624Q258.95312 24.065624 258.45312 24.64375Q257.96875 25.20625 257.96875 26.33125ZM269.59375 28.6125L269.75 29.534374Q269.29688 29.628124 268.95312 29.628124Q268.375 29.628124 268.0625 29.45625Q267.75 29.26875 267.60938 28.971874Q267.48438 28.675 267.48438 27.721874L267.48438 24.14375L266.71875 24.14375L266.71875 23.33125L267.48438 23.33125L267.48438 21.784374L268.53125 21.159374L268.53125 23.33125L269.59375 23.33125L269.59375 24.14375L268.53125 24.14375L268.53125 27.784374Q268.53125 28.2375 268.57812 28.3625Q268.64062 28.4875 268.76562 28.565624Q268.89062 28.64375 269.125 28.64375Q269.3125 28.64375 269.59375 28.6125ZM270.29688 22.175L270.29688 20.95625L271.35938 20.95625L271.35938 22.175L270.29688 22.175ZM270.29688 29.55L270.29688 23.33125L271.35938 23.33125L271.35938 29.55L270.29688 29.55ZM273.29688 29.55L273.29688 23.33125L274.23438 23.33125L274.23438 24.20625Q274.53125 23.7375 275.01562 23.471874Q275.5 23.190624 276.125 23.190624Q276.8125 23.190624 277.25 23.471874Q277.70312 23.753124 277.875 24.26875Q278.625 23.190624 279.79688 23.190624Q280.73438 23.190624 281.21875 23.70625Q281.71875 24.20625 281.71875 25.284374L281.71875 29.55L280.67188 29.55L280.67188 25.628124Q280.67188 25.003124 280.5625 24.721874Q280.46875 24.440624 280.20312 24.26875Q279.9375 24.096874 279.5625 24.096874Q278.90625 24.096874 278.46875 24.534374Q278.04688 24.971874 278.04688 25.940624L278.04688 29.55L276.98438 29.55L276.98438 25.503124Q276.98438 24.8 276.71875 24.45625Q276.46875 24.096874 275.89062 24.096874Q275.4375 24.096874 275.0625 24.33125Q274.6875 24.565624 274.51562 25.01875Q274.34375 25.471874 274.34375 26.315624L274.34375 29.55L273.29688 29.55ZM287.54688 27.55L288.64062 27.675Q288.39062 28.628124 287.6875 29.159374Q286.98438 29.690624 285.90625 29.690624Q284.54688 29.690624 283.73438 28.846874Q282.9375 28.003124 282.9375 26.4875Q282.9375 24.925 283.75 24.065624Q284.5625 23.190624 285.84375 23.190624Q287.09375 23.190624 287.875 24.034374Q288.67188 24.878124 288.67188 26.425Q288.67188 26.51875 288.67188 26.70625L284.03125 26.70625Q284.09375 27.7375 284.60938 28.284374Q285.125 28.815624 285.90625 28.815624Q286.48438 28.815624 286.89062 28.51875Q287.3125 28.20625 287.54688 27.55ZM284.09375 25.846874L287.5625 25.846874Q287.5 25.05 287.17188 24.659374Q286.65625 24.05 285.85938 24.05Q285.125 24.05 284.625 24.534374Q284.14062 25.01875 284.09375 25.846874Z" fill-rule="nonzero"/><path fill="#ea4335" d="M305.5 20.55C305.5 19.997715 305.94772 19.55 306.5 19.55L316.5 19.55C317.05228 19.55 317.5 19.997715 317.5 20.55L317.5 30.55C317.5 31.102285 317.05228 31.55 316.5 31.55L306.5 31.55C305.94772 31.55 305.5 31.102285 305.5 30.55Z" fill-rule="nonzero"/><path fill="#1a1a1a" d="M326.45312 29.55L326.45312 20.95625L332.65625 20.95625L332.65625 21.971874L327.59375 21.971874L327.59375 24.596874L332.34375 24.596874L332.34375 25.6125L327.59375 25.6125L327.59375 28.534374L332.85938 28.534374L332.85938 29.55L326.45312 29.55ZM333.59375 29.55L335.85938 26.315624L333.76562 23.33125L335.07812 23.33125L336.03125 24.784374Q336.29688 25.20625 336.46875 25.4875Q336.71875 25.096874 336.9375 24.8L337.98438 23.33125L339.25 23.33125L337.09375 26.253124L339.40625 29.55L338.125 29.55L336.84375 27.6125L336.5 27.096874L334.85938 29.55L333.59375 29.55ZM344.54688 27.55L345.64062 27.675Q345.39062 28.628124 344.6875 29.159374Q343.98438 29.690624 342.90625 29.690624Q341.54688 29.690624 340.73438 28.846874Q339.9375 28.003124 339.9375 26.4875Q339.9375 24.925 340.75 24.065624Q341.5625 23.190624 342.84375 23.190624Q344.09375 23.190624 344.875 24.034374Q345.67188 24.878124 345.67188 26.425Q345.67188 26.51875 345.67188 26.70625L341.03125 26.70625Q341.09375 27.7375 341.60938 28.284374Q342.125 28.815624 342.90625 28.815624Q343.48438 28.815624 343.89062 28.51875Q344.3125 28.20625 344.54688 27.55ZM341.09375 25.846874L344.5625 25.846874Q344.5 25.05 344.17188 24.659374Q343.65625 24.05 342.85938 24.05Q342.125 24.05 341.625 24.534374Q341.14062 25.01875 341.09375 25.846874ZM351.35938 27.26875L352.39062 27.409374Q352.21875 28.471874 351.51562 29.08125Q350.8125 29.690624 349.79688 29.690624Q348.51562 29.690624 347.73438 28.8625Q346.96875 28.01875 346.96875 26.45625Q346.96875 25.45625 347.29688 24.70625Q347.64062 23.940624 348.3125 23.565624Q349.0 23.190624 349.8125 23.190624Q350.8125 23.190624 351.45312 23.70625Q352.10938 24.20625 352.29688 25.159374L351.26562 25.315624Q351.125 24.690624 350.75 24.378124Q350.375 24.05 349.84375 24.05Q349.04688 24.05 348.54688 24.628124Q348.04688 25.190624 348.04688 26.425Q348.04688 27.690624 348.53125 28.253124Q349.01562 28.815624 349.78125 28.815624Q350.40625 28.815624 350.8125 28.440624Q351.23438 28.065624 351.35938 27.26875ZM357.375 29.55L357.375 28.628124Q356.64062 29.690624 355.39062 29.690624Q354.84375 29.690624 354.35938 29.4875Q353.89062 29.26875 353.65625 28.95625Q353.42188 28.628124 353.32812 28.159374Q353.26562 27.8625 353.26562 27.175L353.26562 23.33125L354.32812 23.33125L354.32812 26.784374Q354.32812 27.596874 354.39062 27.89375Q354.48438 28.3 354.79688 28.55Q355.125 28.784374 355.60938 28.784374Q356.07812 28.784374 356.48438 28.55Q356.90625 28.3 357.07812 27.878124Q357.26562 27.45625 357.26562 26.659374L357.26562 23.33125L358.3125 23.33125L358.3125 29.55L357.375 29.55ZM362.59375 28.6125L362.75 29.534374Q362.29688 29.628124 361.95312 29.628124Q361.375 29.628124 361.0625 29.45625Q360.75 29.26875 360.60938 28.971874Q360.48438 28.675 360.48438 27.721874L360.48438 24.14375L359.71875 24.14375L359.71875 23.33125L360.48438 23.33125L360.48438 21.784374L361.53125 21.159374L361.53125 23.33125L362.59375 23.33125L362.59375 24.14375L361.53125 24.14375L361.53125 27.784374Q361.53125 28.2375 361.57812 28.3625Q361.64062 28.4875 361.76562 28.565624Q361.89062 28.64375 362.125 28.64375Q362.3125 28.64375 362.59375 28.6125ZM363.29688 22.175L363.29688 20.95625L364.35938 20.95625L364.35938 22.175L363.29688 22.175ZM363.29688 29.55L363.29688 23.33125L364.35938 23.33125L364.35938 29.55L363.29688 29.55ZM365.90625 26.440624Q365.90625 24.70625 366.85938 23.878124Q367.65625 23.190624 368.8125 23.190624Q370.09375 23.190624 370.90625 24.034374Q371.73438 24.8625 371.73438 26.346874Q371.73438 27.55 371.375 28.2375Q371.01562 28.925 370.3125 29.315624Q369.625 29.690624 368.8125 29.690624Q367.51562 29.690624 366.70312 28.8625Q365.90625 28.01875 365.90625 26.440624ZM366.98438 26.440624Q366.98438 27.628124 367.5 28.221874Q368.03125 28.815624 368.8125 28.815624Q369.60938 28.815624 370.125 28.221874Q370.64062 27.628124 370.64062 26.409374Q370.64062 25.253124 370.10938 24.659374Q369.59375 24.065624 368.8125 24.065624Q368.03125 24.065624 367.5 24.659374Q366.98438 25.2375 366.98438 26.440624ZM373.29688 29.55L373.29688 23.33125L374.23438 23.33125L374.23438 24.20625Q374.92188 23.190624 376.21875 23.190624Q376.78125 23.190624 377.25 23.39375Q377.73438 23.596874 377.96875 23.925Q378.20312 24.253124 378.29688 24.690624Q378.34375 24.9875 378.34375 25.721874L378.34375 29.55L377.29688 29.55L377.29688 25.76875Q377.29688 25.1125 377.17188 24.8Q377.04688 24.4875 376.73438 24.3Q376.42188 24.096874 376.0 24.096874Q375.32812 24.096874 374.82812 24.534374Q374.34375 24.95625 374.34375 26.14375L374.34375 29.55L373.29688 29.55ZM385.59375 28.6125L385.75 29.534374Q385.29688 29.628124 384.95312 29.628124Q384.375 29.628124 384.0625 29.45625Q383.75 29.26875 383.60938 28.971874Q383.48438 28.675 383.48438 27.721874L383.48438 24.14375L382.71875 24.14375L382.71875 23.33125L383.48438 23.33125L383.48438 21.784374L384.53125 21.159374L384.53125 23.33125L385.59375 23.33125L385.59375 24.14375L384.53125 24.14375L384.53125 27.784374Q384.53125 28.2375 384.57812 28.3625Q384.64062 28.4875 384.76562 28.565624Q384.89062 28.64375 385.125 28.64375Q385.3125 28.64375 385.59375 28.6125ZM386.29688 22.175L386.29688 20.95625L387.35938 20.95625L387.35938 22.175L386.29688 22.175ZM386.29688 29.55L386.29688 23.33125L387.35938 23.33125L387.35938 29.55L386.29688 29.55ZM389.29688 29.55L389.29688 23.33125L390.23438 23.33125L390.23438 24.20625Q390.53125 23.7375 391.01562 23.471874Q391.5 23.190624 392.125 23.190624Q392.8125 23.190624 393.25 23.471874Q393.70312 23.753124 393.875 24.26875Q394.625 23.190624 395.79688 23.190624Q396.73438 23.190624 397.21875 23.70625Q397.71875 24.20625 397.71875 25.284374L397.71875 29.55L396.67188 29.55L396.67188 25.628124Q396.67188 25.003124 396.5625 24.721874Q396.46875 24.440624 396.20312 24.26875Q395.9375 24.096874 395.5625 24.096874Q394.90625 24.096874 394.46875 24.534374Q394.04688 24.971874 394.04688 25.940624L394.04688 29.55L392.98438 29.55L392.98438 25.503124Q392.98438 24.8 392.71875 24.45625Q392.46875 24.096874 391.89062 24.096874Q391.4375 24.096874 391.0625 24.33125Q390.6875 24.565624 390.51562 25.01875Q390.34375 25.471874 390.34375 26.315624L390.34375 29.55L389.29688 29.55ZM403.54688 27.55L404.64062 27.675Q404.39062 28.628124 403.6875 29.159374Q402.98438 29.690624 401.90625 29.690624Q400.54688 29.690624 399.73438 28.846874Q398.9375 28.003124 398.9375 26.4875Q398.9375 24.925 399.75 24.065624Q400.5625 23.190624 401.84375 23.190624Q403.09375 23.190624 403.875 24.034374Q404.67188 24.878124 404.67188 26.425Q404.67188 26.51875 404.67188 26.70625L400.03125 26.70625Q400.09375 27.7375 400.60938 28.284374Q401.125 28.815624 401.90625 28.815624Q402.48438 28.815624 402.89062 28.51875Q403.3125 28.20625 403.54688 27.55ZM400.09375 25.846874L403.5625 25.846874Q403.5 25.05 403.17188 24.659374Q402.65625 24.05 401.85938 24.05Q401.125 24.05 400.625 24.534374Q400.14062 25.01875 400.09375 25.846874Z" fill-rule="nonzero"/></svg>