<svg version="1.1" viewBox="0.0 0.0 600.0 371.0" fill="none" stroke="none" stroke-linecap="square" stroke-miterlimit="10" width="600" height="371" xmlns:xlink="http://www.w3.org/1999/xlink" xmlns="http://www.w3.org/2000/svg"><path fill="#ffffff" d="M0 0L600.0 0L600.0 371.0L0 371.0L0 0Z" fill-rule="nonzero"/><path stroke="#cccccc" stroke-width="1.0" stroke-linecap="butt" d="M105.5 300.5L581.5 300.5" fill-rule="nonzero"/><path stroke="#cccccc" stroke-width="1.0" stroke-linecap="butt" d="M105.5 238.5L581.5 238.5" fill-rule="nonzero"/><path stroke="#cccccc" stroke-width="1.0" stroke-linecap="butt" d="M105.5 177.5L581.5 177.5" fill-rule="nonzero"/><path stroke="#cccccc" stroke-width="1.0" stroke-linecap="butt" d="M105.5 115.5L581.5 115.5" fill-rule="nonzero"/><path stroke="#cccccc" stroke-width="1.0" stroke-linecap="butt" d="M105.5 53.5L581.5 53.5" fill-rule="nonzero"/><clipPath id="id_0"><path d="M105.55 51.916668L581.45 51.916668L581.45 300.45L105.55 300.45L105.55 51.916668Z" clip-rule="nonzero"/></clipPath><path stroke="#000000" stroke-width="0.0" stroke-linecap="butt" stroke-opacity="0.0" clip-path="url(#id_0)" d="M155.0 300.0L132.0 300.0L132.0 226.0C132.0 224.89543 132.89543 224.0 134.0 224.0L153.0 224.0C154.10457 224.0 155.0 224.89543 155.0 226.0Z" fill-rule="nonzero"/><path fill="#4285f4" clip-path="url(#id_0)" d="M155.0 300.0L132.0 300.0L132.0 226.0C132.0 224.89543 132.89543 224.0 134.0 224.0L153.0 224.0C154.10457 224.0 155.0 224.89543 155.0 226.0Z" fill-rule="nonzero"/><path stroke="#000000" stroke-width="0.0" stroke-linecap="butt" stroke-opacity="0.0" clip-path="url(#id_0)" d="M230.0 300.0L207.0 300.0L207.0 225.0C207.0 223.89543 207.89543 223.0 209.0 223.0L228.0 223.0C229.10457 223.0 230.0 223.89543 230.0 225.0Z" fill-rule="nonzero"/><path fill="#4285f4" clip-path="url(#id_0)" d="M230.0 300.0L207.0 300.0L207.0 225.0C207.0 223.89543 207.89543 223.0 209.0 223.0L228.0 223.0C229.10457 223.0 230.0 223.89543 230.0 225.0Z" fill-rule="nonzero"/><path stroke="#000000" stroke-width="0.0" stroke-linecap="butt" stroke-opacity="0.0" clip-path="url(#id_0)" d="M305.0 300.0L282.0 300.0L282.0 219.0C282.0 217.89543 282.89542 217.0 284.0 217.0L303.0 217.0C304.10458 217.0 305.0 217.89543 305.0 219.0Z" fill-rule="nonzero"/><path fill="#4285f4" clip-path="url(#id_0)" d="M305.0 300.0L282.0 300.0L282.0 219.0C282.0 217.89543 282.89542 217.0 284.0 217.0L303.0 217.0C304.10458 217.0 305.0 217.89543 305.0 219.0Z" fill-rule="nonzero"/><path stroke="#000000" stroke-width="0.0" stroke-linecap="butt" stroke-opacity="0.0" clip-path="url(#id_0)" d="M380.0 300.0L357.0 300.0L357.0 221.0C357.0 219.89543 357.89542 219.0 359.0 219.0L378.0 219.0C379.10458 219.0 380.0 219.89543 380.0 221.0Z" fill-rule="nonzero"/><path fill="#4285f4" clip-path="url(#id_0)" d="M380.0 300.0L357.0 300.0L357.0 221.0C357.0 219.89543 357.89542 219.0 359.0 219.0L378.0 219.0C379.10458 219.0 380.0 219.89543 380.0 221.0Z" fill-rule="nonzero"/><path stroke="#000000" stroke-width="0.0" stroke-linecap="butt" stroke-opacity="0.0" clip-path="url(#id_0)" d="M455.0 300.0L432.0 300.0L432.0 224.0C432.0 222.89543 432.89542 222.0 434.0 222.0L453.0 222.0C454.10458 222.0 455.0 222.89543 455.0 224.0Z" fill-rule="nonzero"/><path fill="#4285f4" clip-path="url(#id_0)" d="M455.0 300.0L432.0 300.0L432.0 224.0C432.0 222.89543 432.89542 222.0 434.0 222.0L453.0 222.0C454.10458 222.0 455.0 222.89543 455.0 224.0Z" fill-rule="nonzero"/><path stroke="#000000" stroke-width="0.0" stroke-linecap="butt" stroke-opacity="0.0" clip-path="url(#id_0)" d="M530.0 300.0L507.0 300.0L507.0 216.0C507.0 214.89543 507.89542 214.0 509.0 214.0L528.0 214.0C529.10455 214.0 530.0 214.89543 530.0 216.0Z" fill-rule="nonzero"/><path fill="#4285f4" clip-path="url(#id_0)" d="M530.0 300.0L507.0 300.0L507.0 216.0C507.0 214.89543 507.89542 214.0 509.0 214.0L528.0 214.0C529.10455 214.0 530.0 214.89543 530.0 216.0Z" fill-rule="nonzero"/><path stroke="#000000" stroke-width="0.0" stroke-linecap="butt" stroke-opacity="0.0" clip-path="url(#id_0)" d="M179.0 300.0L156.0 300.0L156.0 280.0C156.0 278.89542 156.89543 278.0 158.0 278.0L177.0 278.0C178.10457 278.0 179.0 278.89542 179.0 280.0Z" fill-rule="nonzero"/><path fill="#ea4335" clip-path="url(#id_0)" d="M179.0 300.0L156.0 300.0L156.0 280.0C156.0 278.89542 156.89543 278.0 158.0 278.0L177.0 278.0C178.10457 278.0 179.0 278.89542 179.0 280.0Z" fill-rule="nonzero"/><path stroke="#000000" stroke-width="0.0" stroke-linecap="butt" stroke-opacity="0.0" clip-path="url(#id_0)" d="M254.0 300.0L231.0 300.0L231.0 271.0C231.0 269.89542 231.89543 269.0 233.0 269.0L252.0 269.0C253.10457 269.0 254.0 269.89542 254.0 271.0Z" fill-rule="nonzero"/><path fill="#ea4335" clip-path="url(#id_0)" d="M254.0 300.0L231.0 300.0L231.0 271.0C231.0 269.89542 231.89543 269.0 233.0 269.0L252.0 269.0C253.10457 269.0 254.0 269.89542 254.0 271.0Z" fill-rule="nonzero"/><path stroke="#000000" stroke-width="0.0" stroke-linecap="butt" stroke-opacity="0.0" clip-path="url(#id_0)" d="M329.0 300.0L306.0 300.0L306.0 241.0C306.0 239.89543 306.89542 239.0 308.0 239.0L327.0 239.0C328.10458 239.0 329.0 239.89543 329.0 241.0Z" fill-rule="nonzero"/><path fill="#ea4335" clip-path="url(#id_0)" d="M329.0 300.0L306.0 300.0L306.0 241.0C306.0 239.89543 306.89542 239.0 308.0 239.0L327.0 239.0C328.10458 239.0 329.0 239.89543 329.0 241.0Z" fill-rule="nonzero"/><path stroke="#000000" stroke-width="0.0" stroke-linecap="butt" stroke-opacity="0.0" clip-path="url(#id_0)" d="M404.0 300.0L381.0 300.0L381.0 190.0C381.0 188.89543 381.89542 188.0 383.0 188.0L402.0 188.0C403.10458 188.0 404.0 188.89543 404.0 190.0Z" fill-rule="nonzero"/><path fill="#ea4335" clip-path="url(#id_0)" d="M404.0 300.0L381.0 300.0L381.0 190.0C381.0 188.89543 381.89542 188.0 383.0 188.0L402.0 188.0C403.10458 188.0 404.0 188.89543 404.0 190.0Z" fill-rule="nonzero"/><path stroke="#000000" stroke-width="0.0" stroke-linecap="butt" stroke-opacity="0.0" clip-path="url(#id_0)" d="M479.0 300.0L456.0 300.0L456.0 143.0C456.0 141.89543 456.89542 141.0 458.0 141.0L477.0 141.0C478.10458 141.0 479.0 141.89543 479.0 143.0Z" fill-rule="nonzero"/><path fill="#ea4335" clip-path="url(#id_0)" d="M479.0 300.0L456.0 300.0L456.0 143.0C456.0 141.89543 456.89542 141.0 458.0 141.0L477.0 141.0C478.10458 141.0 479.0 141.89543 479.0 143.0Z" fill-rule="nonzero"/><path stroke="#000000" stroke-width="0.0" stroke-linecap="butt" stroke-opacity="0.0" clip-path="url(#id_0)" d="M554.0 300.0L531.0 300.0L531.0 54.0C531.0 52.89543 531.89545 52.0 533.0 52.0L552.0 52.0C553.10455 52.0 554.0 52.89543 554.0 54.0Z" fill-rule="nonzero"/><path fill="#ea4335" clip-path="url(#id_0)" d="M554.0 300.0L531.0 300.0L531.0 54.0C531.0 52.89543 531.89545 52.0 533.0 52.0L552.0 52.0C553.10455 52.0 554.0 52.89543 554.0 54.0Z" fill-rule="nonzero"/><path fill="#000000" d="M328.57812 345.2625Q328.57812 343.1219 329.71875 341.91876Q330.875 340.7 332.6875 340.7Q333.89062 340.7 334.84375 341.27814Q335.79688 341.84064 336.29688 342.85626Q336.79688 343.8719 336.79688 345.16876Q336.79688 346.46564 336.26562 347.4969Q335.73438 348.52814 334.76562 349.0594Q333.8125 349.59064 332.6875 349.59064Q331.46875 349.59064 330.51562 349.0125Q329.5625 348.41876 329.0625 347.41876Q328.57812 346.40314 328.57812 345.2625ZM329.75 345.27814Q329.75 346.84064 330.57812 347.73126Q331.42188 348.6219 332.6875 348.6219Q333.96875 348.6219 334.79688 347.73126Q335.625 346.825 335.625 345.15314Q335.625 344.10626 335.26562 343.325Q334.92188 342.54376 334.23438 342.1219Q333.54688 341.6844 332.70312 341.6844Q331.5 341.6844 330.625 342.5125Q329.75 343.34064 329.75 345.27814ZM338.04688 349.45L338.04688 344.04376L337.10938 344.04376L337.10938 343.23126L338.04688 343.23126L338.04688 342.5594Q338.04688 341.9344 338.15625 341.6375Q338.3125 341.21564 338.6875 340.96564Q339.07812 340.71564 339.76562 340.71564Q340.21875 340.71564 340.75 340.825L340.59375 341.73126Q340.26562 341.6844 339.96875 341.6844Q339.48438 341.6844 339.28125 341.8875Q339.09375 342.09064 339.09375 342.65314L339.09375 343.23126L340.3125 343.23126L340.3125 344.04376L339.09375 344.04376L339.09375 349.45L338.04688 349.45ZM341.04688 349.45L341.04688 344.04376L340.10938 344.04376L340.10938 343.23126L341.04688 343.23126L341.04688 342.5594Q341.04688 341.9344 341.15625 341.6375Q341.3125 341.21564 341.6875 340.96564Q342.07812 340.71564 342.76562 340.71564Q343.21875 340.71564 343.75 340.825L343.59375 341.73126Q343.26562 341.6844 342.96875 341.6844Q342.48438 341.6844 342.28125 341.8875Q342.09375 342.09064 342.09375 342.65314L342.09375 343.23126L343.3125 343.23126L343.3125 344.04376L342.09375 344.04376L342.09375 349.45L341.04688 349.45ZM343.375 347.59064L344.40625 347.4344Q344.5 348.0594 344.89062 348.3875Q345.29688 348.71564 346.03125 348.71564Q346.75 348.71564 347.09375 348.4344Q347.45312 348.1375 347.45312 347.73126Q347.45312 347.3719 347.14062 347.16876Q346.92188 347.02814 346.0625 346.8094Q344.90625 346.5125 344.45312 346.3094Q344.01562 346.09064 343.78125 345.71564Q343.54688 345.34064 343.54688 344.8719Q343.54688 344.46564 343.73438 344.10626Q343.92188 343.7469 344.25 343.5125Q344.5 343.34064 344.92188 343.21564Q345.34375 343.09064 345.84375 343.09064Q346.5625 343.09064 347.10938 343.3094Q347.67188 343.5125 347.9375 343.8719Q348.20312 344.23126 348.29688 344.825L347.26562 344.96564Q347.20312 344.4969 346.85938 344.23126Q346.53125 343.95 345.90625 343.95Q345.1875 343.95 344.875 344.2Q344.5625 344.4344 344.5625 344.7625Q344.5625 344.96564 344.6875 345.1219Q344.82812 345.29376 345.09375 345.40314Q345.25 345.46564 346.03125 345.66876Q347.15625 345.98126 347.59375 346.16876Q348.03125 346.35626 348.28125 346.71564Q348.53125 347.075 348.53125 347.6219Q348.53125 348.15314 348.21875 348.6219Q347.92188 349.075 347.34375 349.34064Q346.76562 349.59064 346.03125 349.59064Q344.8125 349.59064 344.17188 349.09064Q343.54688 348.575 343.375 347.59064ZM354.04688 347.45L355.14062 347.575Q354.89062 348.52814 354.1875 349.0594Q353.48438 349.59064 352.40625 349.59064Q351.04688 349.59064 350.23438 348.7469Q349.4375 347.90314 349.4375 346.3875Q349.4375 344.825 350.25 343.96564Q351.0625 343.09064 352.34375 343.09064Q353.59375 343.09064 354.375 343.9344Q355.17188 344.77814 355.17188 346.325Q355.17188 346.41876 355.17188 346.60626L350.53125 346.60626Q350.59375 347.6375 351.10938 348.1844Q351.625 348.71564 352.40625 348.71564Q352.98438 348.71564 353.39062 348.41876Q353.8125 348.10626 354.04688 347.45ZM350.59375 345.7469L354.0625 345.7469Q354.0 344.95 353.67188 344.5594Q353.15625 343.95 352.35938 343.95Q351.625 343.95 351.125 344.4344Q350.64062 344.91876 350.59375 345.7469ZM359.09375 348.5125L359.25 349.4344Q358.79688 349.52814 358.45312 349.52814Q357.875 349.52814 357.5625 349.35626Q357.25 349.16876 357.10938 348.8719Q356.98438 348.575 356.98438 347.6219L356.98438 344.04376L356.21875 344.04376L356.21875 343.23126L356.98438 343.23126L356.98438 341.6844L358.03125 341.0594L358.03125 343.23126L359.09375 343.23126L359.09375 344.04376L358.03125 344.04376L358.03125 347.6844Q358.03125 348.1375 358.07812 348.2625Q358.14062 348.3875 358.26562 348.46564Q358.39062 348.54376 358.625 348.54376Q358.8125 348.54376 359.09375 348.5125Z" fill-rule="nonzero"/><path fill="#000000" d="M29.550013 233.57396L21.971888 233.57396L21.971888 236.40208L20.956263 236.40208L20.956263 229.58958L21.971888 229.58958L21.971888 232.43333L29.550013 232.43333L29.550013 233.57396ZM22.175013 228.88646L20.956263 228.88646L20.956263 227.82396L22.175013 227.82396L22.175013 228.88646ZM29.550013 228.88646L23.331263 228.88646L23.331263 227.82396L29.550013 227.82396L29.550013 228.88646ZM29.550013 225.88646L23.331263 225.88646L23.331263 224.94896L24.206263 224.94896Q23.737513 224.65208 23.471888 224.16771Q23.190638 223.68333 23.190638 223.05833Q23.190638 222.37083 23.471888 221.93333Q23.753138 221.48021 24.268763 221.30833Q23.190638 220.55833 23.190638 219.38646Q23.190638 218.44896 23.706263 217.96458Q24.206263 217.46458 25.284388 217.46458L29.550013 217.46458L29.550013 218.51146L25.628138 218.51146Q25.003138 218.51146 24.721888 218.62083Q24.440638 218.71458 24.268763 218.98021Q24.096888 219.24583 24.096888 219.62083Q24.096888 220.27708 24.534388 220.71458Q24.971888 221.13646 25.940638 221.13646L29.550013 221.13646L29.550013 222.19896L25.503138 222.19896Q24.800013 222.19896 24.456263 222.46458Q24.096888 222.71458 24.096888 223.29271Q24.096888 223.74583 24.331263 224.12083Q24.565638 224.49583 25.018763 224.66771Q25.471888 224.83958 26.315638 224.83958L29.550013 224.83958L29.550013 225.88646ZM27.550013 211.63646L27.675013 210.54271Q28.628138 210.79271 29.159388 211.49583Q29.690638 212.19896 29.690638 213.27708Q29.690638 214.63646 28.846888 215.44896Q28.003138 216.24583 26.487513 216.24583Q24.925013 216.24583 24.065638 215.43333Q23.190638 214.62083 23.190638 213.33958Q23.190638 212.08958 24.034388 211.30833Q24.878138 210.51146 26.425013 210.51146Q26.518763 210.51146 26.706263 210.51146L26.706263 215.15208Q27.737513 215.08958 28.284388 214.57396Q28.815638 214.05833 28.815638 213.27708Q28.815638 212.69896 28.518763 212.29271Q28.206263 211.87083 27.550013 211.63646ZM25.846888 215.08958L25.846888 211.62083Q25.050013 211.68333 24.659388 212.01146Q24.050013 212.52708 24.050013 213.32396Q24.050013 214.05833 24.534388 214.55833Q25.018763 215.04271 25.846888 215.08958ZM32.08126 203.87083Q30.971888 204.74583 29.503138 205.35521Q28.018763 205.94896 26.440638 205.94896Q25.050013 205.94896 23.768763 205.51146Q22.284388 204.98021 20.815638 203.87083L20.815638 203.12083Q22.034388 203.82396 22.550013 204.05833Q23.362513 204.41771 24.237513 204.62083Q25.331263 204.87083 26.440638 204.87083Q29.268763 204.87083 32.08126 203.12083L32.08126 203.87083ZM29.550013 201.88646L23.331263 201.88646L23.331263 200.94896L24.206263 200.94896Q23.737513 200.65208 23.471888 200.16771Q23.190638 199.68333 23.190638 199.05833Q23.190638 198.37083 23.471888 197.93333Q23.753138 197.48021 24.268763 197.30833Q23.190638 196.55833 23.190638 195.38646Q23.190638 194.44896 23.706263 193.96458Q24.206263 193.46458 25.284388 193.46458L29.550013 193.46458L29.550013 194.51146L25.628138 194.51146Q25.003138 194.51146 24.721888 194.62083Q24.440638 194.71458 24.268763 194.98021Q24.096888 195.24583 24.096888 195.62083Q24.096888 196.27708 24.534388 196.71458Q24.971888 197.13646 25.940638 197.13646L29.550013 197.13646L29.550013 198.19896L25.503138 198.19896Q24.800013 198.19896 24.456263 198.46458Q24.096888 198.71458 24.096888 199.29271Q24.096888 199.74583 24.331263 200.12083Q24.565638 200.49583 25.018763 200.66771Q25.471888 200.83958 26.315638 200.83958L29.550013 200.83958L29.550013 201.88646ZM22.175013 191.88646L20.956263 191.88646L20.956263 190.82396L22.175013 190.82396L22.175013 191.88646ZM29.550013 191.88646L23.331263 191.88646L23.331263 190.82396L29.550013 190.82396L29.550013 191.88646ZM27.268763 184.82396L27.409388 183.79271Q28.471888 183.96458 29.081263 184.66771Q29.690638 185.37083 29.690638 186.38646Q29.690638 187.66771 28.862513 188.44896Q28.018763 189.21458 26.456263 189.21458Q25.456263 189.21458 24.706263 188.88646Q23.940638 188.54271 23.565638 187.87083Q23.190638 187.18333 23.190638 186.37083Q23.190638 185.37083 23.706263 184.73021Q24.206263 184.07396 25.159388 183.88646L25.315638 184.91771Q24.690638 185.05833 24.378138 185.43333Q24.050013 185.80833 24.050013 186.33958Q24.050013 187.13646 24.628138 187.63646Q25.190638 188.13646 26.425013 188.13646Q27.690638 188.13646 28.253138 187.65208Q28.815638 187.16771 28.815638 186.40208Q28.815638 185.77708 28.440638 185.37083Q28.065638 184.94896 27.268763 184.82396ZM29.550013 182.90208L23.331263 182.90208L23.331263 181.94896L24.268763 181.94896Q23.612513 181.58958 23.409388 181.29271Q23.190638 180.98021 23.190638 180.60521Q23.190638 180.07396 23.518763 179.52708L24.503138 179.88646Q24.268763 180.27708 24.268763 180.65208Q24.268763 181.01146 24.487513 181.29271Q24.690638 181.55833 25.065638 181.66771Q25.628138 181.85521 26.284388 181.85521L29.550013 181.85521L29.550013 182.90208ZM26.440638 179.27708Q24.706263 179.27708 23.878138 178.32396Q23.190638 177.52708 23.190638 176.37083Q23.190638 175.08958 24.034388 174.27708Q24.862513 173.44896 26.346888 173.44896Q27.550013 173.44896 28.237513 173.80833Q28.925013 174.16771 29.315638 174.87083Q29.690638 175.55833 29.690638 176.37083Q29.690638 177.66771 28.862513 178.48021Q28.018763 179.27708 26.440638 179.27708ZM26.440638 178.19896Q27.628138 178.19896 28.221888 177.68333Q28.815638 177.15208 28.815638 176.37083Q28.815638 175.57396 28.221888 175.05833Q27.628138 174.54271 26.409388 174.54271Q25.253138 174.54271 24.659388 175.07396Q24.065638 175.58958 24.065638 176.37083Q24.065638 177.15208 24.659388 177.68333Q25.237513 178.19896 26.440638 178.19896ZM27.690638 172.30833L27.534388 171.27708Q28.159388 171.18333 28.487513 170.79271Q28.815638 170.38646 28.815638 169.65208Q28.815638 168.93333 28.534388 168.58958Q28.237513 168.23021 27.831263 168.23021Q27.471888 168.23021 27.268763 168.54271Q27.128138 168.76146 26.909388 169.62083Q26.612513 170.77708 26.409388 171.23021Q26.190638 171.66771 25.815638 171.90208Q25.440638 172.13646 24.971888 172.13646Q24.565638 172.13646 24.206263 171.94896Q23.846888 171.76146 23.612513 171.43333Q23.440638 171.18333 23.315638 170.76146Q23.190638 170.33958 23.190638 169.83958Q23.190638 169.12083 23.409388 168.57396Q23.612513 168.01146 23.971888 167.74583Q24.331263 167.48021 24.925013 167.38646L25.065638 168.41771Q24.596888 168.48021 24.331263 168.82396Q24.050013 169.15208 24.050013 169.77708Q24.050013 170.49583 24.300013 170.80833Q24.534388 171.12083 24.862513 171.12083Q25.065638 171.12083 25.221888 170.99583Q25.393763 170.85521 25.503138 170.58958Q25.565638 170.43333 25.768763 169.65208Q26.081263 168.52708 26.268763 168.08958Q26.456263 167.65208 26.815638 167.40208Q27.175013 167.15208 27.721888 167.15208Q28.253138 167.15208 28.721888 167.46458Q29.175013 167.76146 29.440638 168.33958Q29.690638 168.91771 29.690638 169.65208Q29.690638 170.87083 29.190638 171.51146Q28.675013 172.13646 27.690638 172.30833ZM27.550013 161.63646L27.675013 160.54271Q28.628138 160.79271 29.159388 161.49583Q29.690638 162.19896 29.690638 163.27708Q29.690638 164.63646 28.846888 165.44896Q28.003138 166.24583 26.487513 166.24583Q24.925013 166.24583 24.065638 165.43333Q23.190638 164.62083 23.190638 163.33958Q23.190638 162.08958 24.034388 161.30833Q24.878138 160.51146 26.425013 160.51146Q26.518763 160.51146 26.706263 160.51146L26.706263 165.15208Q27.737513 165.08958 28.284388 164.57396Q28.815638 164.05833 28.815638 163.27708Q28.815638 162.69896 28.518763 162.29271Q28.206263 161.87083 27.550013 161.63646ZM25.846888 165.08958L25.846888 161.62083Q25.050013 161.68333 24.659388 162.01146Q24.050013 162.52708 24.050013 163.32396Q24.050013 164.05833 24.534388 164.55833Q25.018763 165.04271 25.846888 165.08958ZM27.268763 154.82396L27.409388 153.79271Q28.471888 153.96458 29.081263 154.66771Q29.690638 155.37083 29.690638 156.38646Q29.690638 157.66771 28.862513 158.44896Q28.018763 159.21458 26.456263 159.21458Q25.456263 159.21458 24.706263 158.88646Q23.940638 158.54271 23.565638 157.87083Q23.190638 157.18333 23.190638 156.37083Q23.190638 155.37083 23.706263 154.73021Q24.206263 154.07396 25.159388 153.88646L25.315638 154.91771Q24.690638 155.05833 24.378138 155.43333Q24.050013 155.80833 24.050013 156.33958Q24.050013 157.13646 24.628138 157.63646Q25.190638 158.13646 26.425013 158.13646Q27.690638 158.13646 28.253138 157.65208Q28.815638 157.16771 28.815638 156.40208Q28.815638 155.77708 28.440638 155.37083Q28.065638 154.94896 27.268763 154.82396ZM26.440638 153.27708Q24.706263 153.27708 23.878138 152.32396Q23.190638 151.52708 23.190638 150.37083Q23.190638 149.08958 24.034388 148.27708Q24.862513 147.44896 26.346888 147.44896Q27.550013 147.44896 28.237513 147.80833Q28.925013 148.16771 29.315638 148.87083Q29.690638 149.55833 29.690638 150.37083Q29.690638 151.66771 28.862513 152.48021Q28.018763 153.27708 26.440638 153.27708ZM26.440638 152.19896Q27.628138 152.19896 28.221888 151.68333Q28.815638 151.15208 28.815638 150.37083Q28.815638 149.57396 28.221888 149.05833Q27.628138 148.54271 26.409388 148.54271Q25.253138 148.54271 24.659388 149.07396Q24.065638 149.58958 24.065638 150.37083Q24.065638 151.15208 24.659388 151.68333Q25.237513 152.19896 26.440638 152.19896ZM29.550013 145.88646L23.331263 145.88646L23.331263 144.94896L24.206263 144.94896Q23.190638 144.26146 23.190638 142.96458Q23.190638 142.40208 23.393763 141.93333Q23.596888 141.44896 23.925013 141.21458Q24.253138 140.98021 24.690638 140.88646Q24.987513 140.83958 25.721888 140.83958L29.550013 140.83958L29.550013 141.88646L25.768763 141.88646Q25.112513 141.88646 24.800013 142.01146Q24.487513 142.13646 24.300013 142.44896Q24.096888 142.76146 24.096888 143.18333Q24.096888 143.85521 24.534388 144.35521Q24.956263 144.83958 26.143763 144.83958L29.550013 144.83958L29.550013 145.88646ZM29.550013 134.85521L28.768763 134.85521Q29.690638 135.44896 29.690638 136.58958Q29.690638 137.33958 29.284388 137.96458Q28.862513 138.58958 28.128138 138.93333Q27.393763 139.27708 26.440638 139.27708Q25.518763 139.27708 24.753138 138.96458Q23.987513 138.65208 23.596888 138.02708Q23.190638 137.40208 23.190638 136.63646Q23.190638 136.07396 23.425013 135.63646Q23.659388 135.19896 24.034388 134.91771L20.956263 134.91771L20.956263 133.87083L29.550013 133.87083L29.550013 134.85521ZM26.440638 138.18333Q27.643763 138.18333 28.237513 137.68333Q28.815638 137.18333 28.815638 136.49583Q28.815638 135.80833 28.253138 135.32396Q27.690638 134.83958 26.534388 134.83958Q25.253138 134.83958 24.659388 135.33958Q24.065638 135.82396 24.065638 136.54271Q24.065638 137.24583 24.643763 137.71458Q25.206263 138.18333 26.440638 138.18333ZM32.08126 131.19896L32.08126 131.94896Q29.268763 130.19896 26.440638 130.19896Q25.346888 130.19896 24.253138 130.44896Q23.378138 130.65208 22.565638 131.01146Q22.050013 131.24583 20.815638 131.94896L20.815638 131.19896Q22.284388 130.10521 23.768763 129.57396Q25.050013 129.12083 26.440638 129.12083Q28.018763 129.12083 29.503138 129.73021Q30.971888 130.33958 32.08126 131.19896Z" fill-rule="nonzero"/><path fill="#000000" d="M83.01875 304.45L81.97188 304.45L81.97188 297.73126Q81.58125 298.09064 80.95625 298.46564Q80.34688 298.825 79.8625 298.9969L79.8625 297.98126Q80.7375 297.5594 81.39375 296.98126Q82.06563 296.3875 82.34688 295.825L83.01875 295.825L83.01875 304.45ZM86.05 300.21564Q86.05 298.6844 86.3625 297.7625Q86.675 296.825 87.28438 296.325Q87.90938 295.825 88.84688 295.825Q89.53438 295.825 90.05 296.10626Q90.58125 296.3875 90.925 296.91876Q91.26875 297.4344 91.45625 298.1844Q91.64375 298.9344 91.64375 300.21564Q91.64375 301.73126 91.33125 302.65314Q91.03438 303.575 90.40938 304.09064Q89.8 304.59064 88.84688 304.59064Q87.6125 304.59064 86.89375 303.7Q86.05 302.6375 86.05 300.21564ZM87.12813 300.21564Q87.12813 302.325 87.62813 303.02814Q88.12813 303.73126 88.84688 303.73126Q89.58125 303.73126 90.06563 303.02814Q90.56563 302.325 90.56563 300.21564Q90.56563 298.09064 90.06563 297.40314Q89.58125 296.7 88.83125 296.7Q88.1125 296.7 87.675 297.3094Q87.12813 298.09064 87.12813 300.21564ZM93.05 300.21564Q93.05 298.6844 93.3625 297.7625Q93.675 296.825 94.28438 296.325Q94.90938 295.825 95.84688 295.825Q96.53438 295.825 97.05 296.10626Q97.58125 296.3875 97.925 296.91876Q98.26875 297.4344 98.45625 298.1844Q98.64375 298.9344 98.64375 300.21564Q98.64375 301.73126 98.33125 302.65314Q98.03438 303.575 97.40938 304.09064Q96.8 304.59064 95.84688 304.59064Q94.6125 304.59064 93.89375 303.7Q93.05 302.6375 93.05 300.21564ZM94.12813 300.21564Q94.12813 302.325 94.62813 303.02814Q95.12813 303.73126 95.84688 303.73126Q96.58125 303.73126 97.06563 303.02814Q97.56563 302.325 97.56563 300.21564Q97.56563 298.09064 97.06563 297.40314Q96.58125 296.7 95.83125 296.7Q95.1125 296.7 94.675 297.3094Q94.12813 298.09064 94.12813 300.21564Z" fill-rule="nonzero"/><path fill="#000000" d="M76.01875 242.82397L74.97188 242.82397L74.97188 236.10522Q74.58125 236.4646 73.95625 236.8396Q73.34688 237.19897 72.8625 237.37085L72.8625 236.35522Q73.7375 235.93335 74.39375 235.35522Q75.06563 234.76147 75.34688 234.19897L76.01875 234.19897L76.01875 242.82397ZM79.05 238.5896Q79.05 237.05835 79.3625 236.13647Q79.675 235.19897 80.28438 234.69897Q80.90938 234.19897 81.84688 234.19897Q82.53438 234.19897 83.05 234.48022Q83.58125 234.76147 83.925 235.29272Q84.26875 235.80835 84.45625 236.55835Q84.64375 237.30835 84.64375 238.5896Q84.64375 240.10522 84.33125 241.0271Q84.03438 241.94897 83.40938 242.4646Q82.8 242.9646 81.84688 242.9646Q80.6125 242.9646 79.89375 242.07397Q79.05 241.01147 79.05 238.5896ZM80.12813 238.5896Q80.12813 240.69897 80.62813 241.4021Q81.12813 242.10522 81.84688 242.10522Q82.58125 242.10522 83.06563 241.4021Q83.56563 240.69897 83.56563 238.5896Q83.56563 236.4646 83.06563 235.7771Q82.58125 235.07397 81.83125 235.07397Q81.1125 235.07397 80.675 235.68335Q80.12813 236.4646 80.12813 238.5896ZM86.05 238.5896Q86.05 237.05835 86.3625 236.13647Q86.675 235.19897 87.28438 234.69897Q87.90938 234.19897 88.84688 234.19897Q89.53438 234.19897 90.05 234.48022Q90.58125 234.76147 90.925 235.29272Q91.26875 235.80835 91.45625 236.55835Q91.64375 237.30835 91.64375 238.5896Q91.64375 240.10522 91.33125 241.0271Q91.03438 241.94897 90.40938 242.4646Q89.8 242.9646 88.84688 242.9646Q87.6125 242.9646 86.89375 242.07397Q86.05 241.01147 86.05 238.5896ZM87.12813 238.5896Q87.12813 240.69897 87.62813 241.4021Q88.12813 242.10522 88.84688 242.10522Q89.58125 242.10522 90.06563 241.4021Q90.56563 240.69897 90.56563 238.5896Q90.56563 236.4646 90.06563 235.7771Q89.58125 235.07397 88.83125 235.07397Q88.1125 235.07397 87.675 235.68335Q87.12813 236.4646 87.12813 238.5896ZM93.05 238.5896Q93.05 237.05835 93.3625 236.13647Q93.675 235.19897 94.28438 234.69897Q94.90938 234.19897 95.84688 234.19897Q96.53438 234.19897 97.05 234.48022Q97.58125 234.76147 97.925 235.29272Q98.26875 235.80835 98.45625 236.55835Q98.64375 237.30835 98.64375 238.5896Q98.64375 240.10522 98.33125 241.0271Q98.03438 241.94897 97.40938 242.4646Q96.8 242.9646 95.84688 242.9646Q94.6125 242.9646 93.89375 242.07397Q93.05 241.01147 93.05 238.5896ZM94.12813 238.5896Q94.12813 240.69897 94.62813 241.4021Q95.12813 242.10522 95.84688 242.10522Q96.58125 242.10522 97.06563 241.4021Q97.56563 240.69897 97.56563 238.5896Q97.56563 236.4646 97.06563 235.7771Q96.58125 235.07397 95.83125 235.07397Q95.1125 235.07397 94.675 235.68335Q94.12813 236.4646 94.12813 238.5896Z" fill-rule="nonzero"/><path fill="#000000" d="M69.01875 181.19795L67.97188 181.19795L67.97188 174.4792Q67.58125 174.83858 66.95625 175.21358Q66.34688 175.57295 65.8625 175.74483L65.8625 174.7292Q66.7375 174.30733 67.39375 173.7292Q68.06563 173.13545 68.34688 172.57295L69.01875 172.57295L69.01875 181.19795ZM72.05 176.96358Q72.05 175.43233 72.3625 174.51045Q72.675 173.57295 73.28438 173.07295Q73.90938 172.57295 74.84688 172.57295Q75.53438 172.57295 76.05 172.8542Q76.58125 173.13545 76.925 173.6667Q77.26875 174.18233 77.45625 174.93233Q77.64375 175.68233 77.64375 176.96358Q77.64375 178.4792 77.33125 179.40108Q77.03438 180.32295 76.40938 180.83858Q75.8 181.33858 74.84688 181.33858Q73.6125 181.33858 72.89375 180.44795Q72.05 179.38545 72.05 176.96358ZM73.12813 176.96358Q73.12813 179.07295 73.62813 179.77608Q74.12813 180.4792 74.84688 180.4792Q75.58125 180.4792 76.06563 179.77608Q76.56563 179.07295 76.56563 176.96358Q76.56563 174.83858 76.06563 174.15108Q75.58125 173.44795 74.83125 173.44795Q74.1125 173.44795 73.675 174.05733Q73.12813 174.83858 73.12813 176.96358ZM79.05 176.96358Q79.05 175.43233 79.3625 174.51045Q79.675 173.57295 80.28438 173.07295Q80.90938 172.57295 81.84688 172.57295Q82.53438 172.57295 83.05 172.8542Q83.58125 173.13545 83.925 173.6667Q84.26875 174.18233 84.45625 174.93233Q84.64375 175.68233 84.64375 176.96358Q84.64375 178.4792 84.33125 179.40108Q84.03438 180.32295 83.40938 180.83858Q82.8 181.33858 81.84688 181.33858Q80.6125 181.33858 79.89375 180.44795Q79.05 179.38545 79.05 176.96358ZM80.12813 176.96358Q80.12813 179.07295 80.62813 179.77608Q81.12813 180.4792 81.84688 180.4792Q82.58125 180.4792 83.06563 179.77608Q83.56563 179.07295 83.56563 176.96358Q83.56563 174.83858 83.06563 174.15108Q82.58125 173.44795 81.83125 173.44795Q81.1125 173.44795 80.675 174.05733Q80.12813 174.83858 80.12813 176.96358ZM86.05 176.96358Q86.05 175.43233 86.3625 174.51045Q86.675 173.57295 87.28438 173.07295Q87.90938 172.57295 88.84688 172.57295Q89.53438 172.57295 90.05 172.8542Q90.58125 173.13545 90.925 173.6667Q91.26875 174.18233 91.45625 174.93233Q91.64375 175.68233 91.64375 176.96358Q91.64375 178.4792 91.33125 179.40108Q91.03438 180.32295 90.40938 180.83858Q89.8 181.33858 88.84688 181.33858Q87.6125 181.33858 86.89375 180.44795Q86.05 179.38545 86.05 176.96358ZM87.12813 176.96358Q87.12813 179.07295 87.62813 179.77608Q88.12813 180.4792 88.84688 180.4792Q89.58125 180.4792 90.06563 179.77608Q90.56563 179.07295 90.56563 176.96358Q90.56563 174.83858 90.06563 174.15108Q89.58125 173.44795 88.83125 173.44795Q88.1125 173.44795 87.675 174.05733Q87.12813 174.83858 87.12813 176.96358ZM93.05 176.96358Q93.05 175.43233 93.3625 174.51045Q93.675 173.57295 94.28438 173.07295Q94.90938 172.57295 95.84688 172.57295Q96.53438 172.57295 97.05 172.8542Q97.58125 173.13545 97.925 173.6667Q98.26875 174.18233 98.45625 174.93233Q98.64375 175.68233 98.64375 176.96358Q98.64375 178.4792 98.33125 179.40108Q98.03438 180.32295 97.40938 180.83858Q96.8 181.33858 95.84688 181.33858Q94.6125 181.33858 93.89375 180.44795Q93.05 179.38545 93.05 176.96358ZM94.12813 176.96358Q94.12813 179.07295 94.62813 179.77608Q95.12813 180.4792 95.84688 180.4792Q96.58125 180.4792 97.06563 179.77608Q97.56563 179.07295 97.56563 176.96358Q97.56563 174.83858 97.06563 174.15108Q96.58125 173.44795 95.83125 173.44795Q95.1125 173.44795 94.675 174.05733Q94.12813 174.83858 94.12813 176.96358Z" fill-rule="nonzero"/><path fill="#000000" d="M62.01875 119.57192L60.971874 119.57192L60.971874 112.85317Q60.58125 113.21255 59.95625 113.58755Q59.346874 113.94692 58.8625 114.1188L58.8625 113.10317Q59.7375 112.6813 60.39375 112.10317Q61.065624 111.50942 61.346874 110.94692L62.01875 110.94692L62.01875 119.57192ZM65.05 115.33755Q65.05 113.8063 65.3625 112.88442Q65.675 111.94692 66.28438 111.44692Q66.90938 110.94692 67.84688 110.94692Q68.53438 110.94692 69.05 111.22817Q69.58125 111.50942 69.925 112.04067Q70.26875 112.5563 70.45625 113.3063Q70.64375 114.0563 70.64375 115.33755Q70.64375 116.85317 70.33125 117.77505Q70.03438 118.69692 69.40938 119.21255Q68.8 119.71255 67.84688 119.71255Q66.6125 119.71255 65.89375 118.82192Q65.05 117.75942 65.05 115.33755ZM66.12813 115.33755Q66.12813 117.44692 66.62813 118.15005Q67.12813 118.85317 67.84688 118.85317Q68.58125 118.85317 69.06563 118.15005Q69.56563 117.44692 69.56563 115.33755Q69.56563 113.21255 69.06563 112.52505Q68.58125 111.82192 67.83125 111.82192Q67.1125 111.82192 66.675 112.4313Q66.12813 113.21255 66.12813 115.33755ZM72.05 115.33755Q72.05 113.8063 72.3625 112.88442Q72.675 111.94692 73.28438 111.44692Q73.90938 110.94692 74.84688 110.94692Q75.53438 110.94692 76.05 111.22817Q76.58125 111.50942 76.925 112.04067Q77.26875 112.5563 77.45625 113.3063Q77.64375 114.0563 77.64375 115.33755Q77.64375 116.85317 77.33125 117.77505Q77.03438 118.69692 76.40938 119.21255Q75.8 119.71255 74.84688 119.71255Q73.6125 119.71255 72.89375 118.82192Q72.05 117.75942 72.05 115.33755ZM73.12813 115.33755Q73.12813 117.44692 73.62813 118.15005Q74.12813 118.85317 74.84688 118.85317Q75.58125 118.85317 76.06563 118.15005Q76.56563 117.44692 76.56563 115.33755Q76.56563 113.21255 76.06563 112.52505Q75.58125 111.82192 74.83125 111.82192Q74.1125 111.82192 73.675 112.4313Q73.12813 113.21255 73.12813 115.33755ZM79.05 115.33755Q79.05 113.8063 79.3625 112.88442Q79.675 111.94692 80.28438 111.44692Q80.90938 110.94692 81.84688 110.94692Q82.53438 110.94692 83.05 111.22817Q83.58125 111.50942 83.925 112.04067Q84.26875 112.5563 84.45625 113.3063Q84.64375 114.0563 84.64375 115.33755Q84.64375 116.85317 84.33125 117.77505Q84.03438 118.69692 83.40938 119.21255Q82.8 119.71255 81.84688 119.71255Q80.6125 119.71255 79.89375 118.82192Q79.05 117.75942 79.05 115.33755ZM80.12813 115.33755Q80.12813 117.44692 80.62813 118.15005Q81.12813 118.85317 81.84688 118.85317Q82.58125 118.85317 83.06563 118.15005Q83.56563 117.44692 83.56563 115.33755Q83.56563 113.21255 83.06563 112.52505Q82.58125 111.82192 81.83125 111.82192Q81.1125 111.82192 80.675 112.4313Q80.12813 113.21255 80.12813 115.33755ZM86.05 115.33755Q86.05 113.8063 86.3625 112.88442Q86.675 111.94692 87.28438 111.44692Q87.90938 110.94692 88.84688 110.94692Q89.53438 110.94692 90.05 111.22817Q90.58125 111.50942 90.925 112.04067Q91.26875 112.5563 91.45625 113.3063Q91.64375 114.0563 91.64375 115.33755Q91.64375 116.85317 91.33125 117.77505Q91.03438 118.69692 90.40938 119.21255Q89.8 119.71255 88.84688 119.71255Q87.6125 119.71255 86.89375 118.82192Q86.05 117.75942 86.05 115.33755ZM87.12813 115.33755Q87.12813 117.44692 87.62813 118.15005Q88.12813 118.85317 88.84688 118.85317Q89.58125 118.85317 90.06563 118.15005Q90.56563 117.44692 90.56563 115.33755Q90.56563 113.21255 90.06563 112.52505Q89.58125 111.82192 88.83125 111.82192Q88.1125 111.82192 87.675 112.4313Q87.12813 113.21255 87.12813 115.33755ZM93.05 115.33755Q93.05 113.8063 93.3625 112.88442Q93.675 111.94692 94.28438 111.44692Q94.90938 110.94692 95.84688 110.94692Q96.53438 110.94692 97.05 111.22817Q97.58125 111.50942 97.925 112.04067Q98.26875 112.5563 98.45625 113.3063Q98.64375 114.0563 98.64375 115.33755Q98.64375 116.85317 98.33125 117.77505Q98.03438 118.69692 97.40938 119.21255Q96.8 119.71255 95.84688 119.71255Q94.6125 119.71255 93.89375 118.82192Q93.05 117.75942 93.05 115.33755ZM94.12813 115.33755Q94.12813 117.44692 94.62813 118.15005Q95.12813 118.85317 95.84688 118.85317Q96.58125 118.85317 97.06563 118.15005Q97.56563 117.44692 97.56563 115.33755Q97.56563 113.21255 97.06563 112.52505Q96.58125 111.82192 95.83125 111.82192Q95.1125 111.82192 94.675 112.4313Q94.12813 113.21255 94.12813 115.33755Z" fill-rule="nonzero"/><path fill="#000000" d="M55.01875 57.945892L53.971874 57.945892L53.971874 51.227142Q53.58125 51.586517 52.95625 51.961517Q52.346874 52.320892 51.8625 52.492767L51.8625 51.477142Q52.7375 51.055267 53.39375 50.477142Q54.065624 49.883392 54.346874 49.320892L55.01875 49.320892L55.01875 57.945892ZM58.05 53.711517Q58.05 52.180267 58.3625 51.258392Q58.675 50.320892 59.284374 49.820892Q59.909374 49.320892 60.846874 49.320892Q61.534374 49.320892 62.05 49.602142Q62.58125 49.883392 62.925 50.414642Q63.26875 50.930267 63.45625 51.680267Q63.64375 52.430267 63.64375 53.711517Q63.64375 55.227142 63.33125 56.149017Q63.034374 57.070892 62.409374 57.586517Q61.8 58.086517 60.846874 58.086517Q59.6125 58.086517 58.89375 57.195892Q58.05 56.133392 58.05 53.711517ZM59.128124 53.711517Q59.128124 55.820892 59.628124 56.524017Q60.128124 57.227142 60.846874 57.227142Q61.58125 57.227142 62.065624 56.524017Q62.565624 55.820892 62.565624 53.711517Q62.565624 51.586517 62.065624 50.899017Q61.58125 50.195892 60.83125 50.195892Q60.1125 50.195892 59.675 50.805267Q59.128124 51.586517 59.128124 53.711517ZM65.05 53.711517Q65.05 52.180267 65.3625 51.258392Q65.675 50.320892 66.28438 49.820892Q66.90938 49.320892 67.84688 49.320892Q68.53438 49.320892 69.05 49.602142Q69.58125 49.883392 69.925 50.414642Q70.26875 50.930267 70.45625 51.680267Q70.64375 52.430267 70.64375 53.711517Q70.64375 55.227142 70.33125 56.149017Q70.03438 57.070892 69.40938 57.586517Q68.8 58.086517 67.84688 58.086517Q66.6125 58.086517 65.89375 57.195892Q65.05 56.133392 65.05 53.711517ZM66.12813 53.711517Q66.12813 55.820892 66.62813 56.524017Q67.12813 57.227142 67.84688 57.227142Q68.58125 57.227142 69.06563 56.524017Q69.56563 55.820892 69.56563 53.711517Q69.56563 51.586517 69.06563 50.899017Q68.58125 50.195892 67.83125 50.195892Q67.1125 50.195892 66.675 50.805267Q66.12813 51.586517 66.12813 53.711517ZM72.05 53.711517Q72.05 52.180267 72.3625 51.258392Q72.675 50.320892 73.28438 49.820892Q73.90938 49.320892 74.84688 49.320892Q75.53438 49.320892 76.05 49.602142Q76.58125 49.883392 76.925 50.414642Q77.26875 50.930267 77.45625 51.680267Q77.64375 52.430267 77.64375 53.711517Q77.64375 55.227142 77.33125 56.149017Q77.03438 57.070892 76.40938 57.586517Q75.8 58.086517 74.84688 58.086517Q73.6125 58.086517 72.89375 57.195892Q72.05 56.133392 72.05 53.711517ZM73.12813 53.711517Q73.12813 55.820892 73.62813 56.524017Q74.12813 57.227142 74.84688 57.227142Q75.58125 57.227142 76.06563 56.524017Q76.56563 55.820892 76.56563 53.711517Q76.56563 51.586517 76.06563 50.899017Q75.58125 50.195892 74.83125 50.195892Q74.1125 50.195892 73.675 50.805267Q73.12813 51.586517 73.12813 53.711517ZM79.05 53.711517Q79.05 52.180267 79.3625 51.258392Q79.675 50.320892 80.28438 49.820892Q80.90938 49.320892 81.84688 49.320892Q82.53438 49.320892 83.05 49.602142Q83.58125 49.883392 83.925 50.414642Q84.26875 50.930267 84.45625 51.680267Q84.64375 52.430267 84.64375 53.711517Q84.64375 55.227142 84.33125 56.149017Q84.03438 57.070892 83.40938 57.586517Q82.8 58.086517 81.84688 58.086517Q80.6125 58.086517 79.89375 57.195892Q79.05 56.133392 79.05 53.711517ZM80.12813 53.711517Q80.12813 55.820892 80.62813 56.524017Q81.12813 57.227142 81.84688 57.227142Q82.58125 57.227142 83.06563 56.524017Q83.56563 55.820892 83.56563 53.711517Q83.56563 51.586517 83.06563 50.899017Q82.58125 50.195892 81.83125 50.195892Q81.1125 50.195892 80.675 50.805267Q80.12813 51.586517 80.12813 53.711517ZM86.05 53.711517Q86.05 52.180267 86.3625 51.258392Q86.675 50.320892 87.28438 49.820892Q87.90938 49.320892 88.84688 49.320892Q89.53438 49.320892 90.05 49.602142Q90.58125 49.883392 90.925 50.414642Q91.26875 50.930267 91.45625 51.680267Q91.64375 52.430267 91.64375 53.711517Q91.64375 55.227142 91.33125 56.149017Q91.03438 57.070892 90.40938 57.586517Q89.8 58.086517 88.84688 58.086517Q87.6125 58.086517 86.89375 57.195892Q86.05 56.133392 86.05 53.711517ZM87.12813 53.711517Q87.12813 55.820892 87.62813 56.524017Q88.12813 57.227142 88.84688 57.227142Q89.58125 57.227142 90.06563 56.524017Q90.56563 55.820892 90.56563 53.711517Q90.56563 51.586517 90.06563 50.899017Q89.58125 50.195892 88.83125 50.195892Q88.1125 50.195892 87.675 50.805267Q87.12813 51.586517 87.12813 53.711517ZM93.05 53.711517Q93.05 52.180267 93.3625 51.258392Q93.675 50.320892 94.28438 49.820892Q94.90938 49.320892 95.84688 49.320892Q96.53438 49.320892 97.05 49.602142Q97.58125 49.883392 97.925 50.414642Q98.26875 50.930267 98.45625 51.680267Q98.64375 52.430267 98.64375 53.711517Q98.64375 55.227142 98.33125 56.149017Q98.03438 57.070892 97.40938 57.586517Q96.8 58.086517 95.84688 58.086517Q94.6125 58.086517 93.89375 57.195892Q93.05 56.133392 93.05 53.711517ZM94.12813 53.711517Q94.12813 55.820892 94.62813 56.524017Q95.12813 57.227142 95.84688 57.227142Q96.58125 57.227142 97.06563 56.524017Q97.56563 55.820892 97.56563 53.711517Q97.56563 51.586517 97.06563 50.899017Q96.58125 50.195892 95.83125 50.195892Q95.1125 50.195892 94.675 50.805267Q94.12813 51.586517 94.12813 53.711517Z" fill-rule="nonzero"/><path fill="#000000" d="M153.1378 313.21564Q153.1378 311.6844 153.4503 310.7625Q153.7628 309.825 154.37218 309.325Q154.99718 308.825 155.93468 308.825Q156.62218 308.825 157.1378 309.10626Q157.66905 309.3875 158.0128 309.91876Q158.35655 310.4344 158.54405 311.1844Q158.73155 311.9344 158.73155 313.21564Q158.73155 314.73126 158.41905 315.65314Q158.12218 316.575 157.49718 317.09064Q156.8878 317.59064 155.93468 317.59064Q154.7003 317.59064 153.98155 316.7Q153.1378 315.6375 153.1378 313.21564ZM154.21593 313.21564Q154.21593 315.325 154.71593 316.02814Q155.21593 316.73126 155.93468 316.73126Q156.66905 316.73126 157.15343 316.02814Q157.65343 315.325 157.65343 313.21564Q157.65343 311.09064 157.15343 310.40314Q156.66905 309.7 155.91905 309.7Q155.2003 309.7 154.7628 310.3094Q154.21593 311.09064 154.21593 313.21564Z" fill-rule="nonzero"/><path fill="#000000" d="M228.55142 317.45L227.50455 317.45L227.50455 310.73126Q227.11392 311.09064 226.48892 311.46564Q225.87955 311.825 225.39517 311.9969L225.39517 310.98126Q226.27017 310.5594 226.92642 309.98126Q227.5983 309.3875 227.87955 308.825L228.55142 308.825L228.55142 317.45ZM231.58267 313.21564Q231.58267 311.6844 231.89517 310.7625Q232.20767 309.825 232.81705 309.325Q233.44205 308.825 234.37955 308.825Q235.06705 308.825 235.58267 309.10626Q236.11392 309.3875 236.45767 309.91876Q236.80142 310.4344 236.98892 311.1844Q237.17642 311.9344 237.17642 313.21564Q237.17642 314.73126 236.86392 315.65314Q236.56705 316.575 235.94205 317.09064Q235.33267 317.59064 234.37955 317.59064Q233.14517 317.59064 232.42642 316.7Q231.58267 315.6375 231.58267 313.21564ZM232.6608 313.21564Q232.6608 315.325 233.1608 316.02814Q233.6608 316.73126 234.37955 316.73126Q235.11392 316.73126 235.5983 316.02814Q236.0983 315.325 236.0983 313.21564Q236.0983 311.09064 235.5983 310.40314Q235.11392 309.7 234.36392 309.7Q233.64517 309.7 233.20767 310.3094Q232.6608 311.09064 232.6608 313.21564Z" fill-rule="nonzero"/><path fill="#000000" d="M299.9963 317.45L298.94943 317.45L298.94943 310.73126Q298.5588 311.09064 297.9338 311.46564Q297.32443 311.825 296.84006 311.9969L296.84006 310.98126Q297.71506 310.5594 298.3713 309.98126Q299.04318 309.3875 299.32443 308.825L299.9963 308.825L299.9963 317.45ZM303.02756 313.21564Q303.02756 311.6844 303.34006 310.7625Q303.65256 309.825 304.26193 309.325Q304.88693 308.825 305.82443 308.825Q306.51193 308.825 307.02756 309.10626Q307.5588 309.3875 307.90256 309.91876Q308.2463 310.4344 308.4338 311.1844Q308.6213 311.9344 308.6213 313.21564Q308.6213 314.73126 308.3088 315.65314Q308.01193 316.575 307.38693 317.09064Q306.77756 317.59064 305.82443 317.59064Q304.59006 317.59064 303.8713 316.7Q303.02756 315.6375 303.02756 313.21564ZM304.10568 313.21564Q304.10568 315.325 304.60568 316.02814Q305.10568 316.73126 305.82443 316.73126Q306.5588 316.73126 307.04318 316.02814Q307.54318 315.325 307.54318 313.21564Q307.54318 311.09064 307.04318 310.40314Q306.5588 309.7 305.8088 309.7Q305.09006 309.7 304.65256 310.3094Q304.10568 311.09064 304.10568 313.21564ZM310.02756 313.21564Q310.02756 311.6844 310.34006 310.7625Q310.65256 309.825 311.26193 309.325Q311.88693 308.825 312.82443 308.825Q313.51193 308.825 314.02756 309.10626Q314.5588 309.3875 314.90256 309.91876Q315.2463 310.4344 315.4338 311.1844Q315.6213 311.9344 315.6213 313.21564Q315.6213 314.73126 315.3088 315.65314Q315.01193 316.575 314.38693 317.09064Q313.77756 317.59064 312.82443 317.59064Q311.59006 317.59064 310.8713 316.7Q310.02756 315.6375 310.02756 313.21564ZM311.10568 313.21564Q311.10568 315.325 311.60568 316.02814Q312.10568 316.73126 312.82443 316.73126Q313.5588 316.73126 314.04318 316.02814Q314.54318 315.325 314.54318 313.21564Q314.54318 311.09064 314.04318 310.40314Q313.5588 309.7 312.8088 309.7Q312.09006 309.7 311.65256 310.3094Q311.10568 311.09064 311.10568 313.21564Z" fill-rule="nonzero"/><path fill="#000000" d="M371.4412 317.45L370.39432 317.45L370.39432 310.73126Q370.0037 311.09064 369.3787 311.46564Q368.76932 311.825 368.28494 311.9969L368.28494 310.98126Q369.15994 310.5594 369.8162 309.98126Q370.48807 309.3875 370.76932 308.825L371.4412 308.825L371.4412 317.45ZM374.47244 313.21564Q374.47244 311.6844 374.78494 310.7625Q375.09744 309.825 375.70682 309.325Q376.33182 308.825 377.26932 308.825Q377.95682 308.825 378.47244 309.10626Q379.0037 309.3875 379.34744 309.91876Q379.6912 310.4344 379.8787 311.1844Q380.0662 311.9344 380.0662 313.21564Q380.0662 314.73126 379.7537 315.65314Q379.45682 316.575 378.83182 317.09064Q378.22244 317.59064 377.26932 317.59064Q376.03494 317.59064 375.3162 316.7Q374.47244 315.6375 374.47244 313.21564ZM375.55057 313.21564Q375.55057 315.325 376.05057 316.02814Q376.55057 316.73126 377.26932 316.73126Q378.0037 316.73126 378.48807 316.02814Q378.98807 315.325 378.98807 313.21564Q378.98807 311.09064 378.48807 310.40314Q378.0037 309.7 377.2537 309.7Q376.53494 309.7 376.09744 310.3094Q375.55057 311.09064 375.55057 313.21564ZM381.47244 313.21564Q381.47244 311.6844 381.78494 310.7625Q382.09744 309.825 382.70682 309.325Q383.33182 308.825 384.26932 308.825Q384.95682 308.825 385.47244 309.10626Q386.0037 309.3875 386.34744 309.91876Q386.6912 310.4344 386.8787 311.1844Q387.0662 311.9344 387.0662 313.21564Q387.0662 314.73126 386.7537 315.65314Q386.45682 316.575 385.83182 317.09064Q385.22244 317.59064 384.26932 317.59064Q383.03494 317.59064 382.3162 316.7Q381.47244 315.6375 381.47244 313.21564ZM382.55057 313.21564Q382.55057 315.325 383.05057 316.02814Q383.55057 316.73126 384.26932 316.73126Q385.0037 316.73126 385.48807 316.02814Q385.98807 315.325 385.98807 313.21564Q385.98807 311.09064 385.48807 310.40314Q385.0037 309.7 384.2537 309.7Q383.53494 309.7 383.09744 310.3094Q382.55057 311.09064 382.55057 313.21564ZM388.47244 313.21564Q388.47244 311.6844 388.78494 310.7625Q389.09744 309.825 389.70682 309.325Q390.33182 308.825 391.26932 308.825Q391.95682 308.825 392.47244 309.10626Q393.0037 309.3875 393.34744 309.91876Q393.6912 310.4344 393.8787 311.1844Q394.0662 311.9344 394.0662 313.21564Q394.0662 314.73126 393.7537 315.65314Q393.45682 316.575 392.83182 317.09064Q392.22244 317.59064 391.26932 317.59064Q390.03494 317.59064 389.3162 316.7Q388.47244 315.6375 388.47244 313.21564ZM389.55057 313.21564Q389.55057 315.325 390.05057 316.02814Q390.55057 316.73126 391.26932 316.73126Q392.0037 316.73126 392.48807 316.02814Q392.98807 315.325 392.98807 313.21564Q392.98807 311.09064 392.48807 310.40314Q392.0037 309.7 391.2537 309.7Q390.53494 309.7 390.09744 310.3094Q389.55057 311.09064 389.55057 313.21564Z" fill-rule="nonzero"/><path fill="#000000" d="M442.88608 317.45L441.8392 317.45L441.8392 310.73126Q441.44858 311.09064 440.82358 311.46564Q440.2142 311.825 439.72983 311.9969L439.72983 310.98126Q440.60483 310.5594 441.26108 309.98126Q441.93295 309.3875 442.2142 308.825L442.88608 308.825L442.88608 317.45ZM445.91733 313.21564Q445.91733 311.6844 446.22983 310.7625Q446.54233 309.825 447.1517 309.325Q447.7767 308.825 448.7142 308.825Q449.4017 308.825 449.91733 309.10626Q450.44858 309.3875 450.79233 309.91876Q451.13608 310.4344 451.32358 311.1844Q451.51108 311.9344 451.51108 313.21564Q451.51108 314.73126 451.19858 315.65314Q450.9017 316.575 450.2767 317.09064Q449.66733 317.59064 448.7142 317.59064Q447.47983 317.59064 446.76108 316.7Q445.91733 315.6375 445.91733 313.21564ZM446.99545 313.21564Q446.99545 315.325 447.49545 316.02814Q447.99545 316.73126 448.7142 316.73126Q449.44858 316.73126 449.93295 316.02814Q450.43295 315.325 450.43295 313.21564Q450.43295 311.09064 449.93295 310.40314Q449.44858 309.7 448.69858 309.7Q447.97983 309.7 447.54233 310.3094Q446.99545 311.09064 446.99545 313.21564ZM452.91733 313.21564Q452.91733 311.6844 453.22983 310.7625Q453.54233 309.825 454.1517 309.325Q454.7767 308.825 455.7142 308.825Q456.4017 308.825 456.91733 309.10626Q457.44858 309.3875 457.79233 309.91876Q458.13608 310.4344 458.32358 311.1844Q458.51108 311.9344 458.51108 313.21564Q458.51108 314.73126 458.19858 315.65314Q457.9017 316.575 457.2767 317.09064Q456.66733 317.59064 455.7142 317.59064Q454.47983 317.59064 453.76108 316.7Q452.91733 315.6375 452.91733 313.21564ZM453.99545 313.21564Q453.99545 315.325 454.49545 316.02814Q454.99545 316.73126 455.7142 316.73126Q456.44858 316.73126 456.93295 316.02814Q457.43295 315.325 457.43295 313.21564Q457.43295 311.09064 456.93295 310.40314Q456.44858 309.7 455.69858 309.7Q454.97983 309.7 454.54233 310.3094Q453.99545 311.09064 453.99545 313.21564ZM459.91733 313.21564Q459.91733 311.6844 460.22983 310.7625Q460.54233 309.825 461.1517 309.325Q461.7767 308.825 462.7142 308.825Q463.4017 308.825 463.91733 309.10626Q464.44858 309.3875 464.79233 309.91876Q465.13608 310.4344 465.32358 311.1844Q465.51108 311.9344 465.51108 313.21564Q465.51108 314.73126 465.19858 315.65314Q464.9017 316.575 464.2767 317.09064Q463.66733 317.59064 462.7142 317.59064Q461.47983 317.59064 460.76108 316.7Q459.91733 315.6375 459.91733 313.21564ZM460.99545 313.21564Q460.99545 315.325 461.49545 316.02814Q461.99545 316.73126 462.7142 316.73126Q463.44858 316.73126 463.93295 316.02814Q464.43295 315.325 464.43295 313.21564Q464.43295 311.09064 463.93295 310.40314Q463.44858 309.7 462.69858 309.7Q461.97983 309.7 461.54233 310.3094Q460.99545 311.09064 460.99545 313.21564ZM466.91733 313.21564Q466.91733 311.6844 467.22983 310.7625Q467.54233 309.825 468.1517 309.325Q468.7767 308.825 469.7142 308.825Q470.4017 308.825 470.91733 309.10626Q471.44858 309.3875 471.79233 309.91876Q472.13608 310.4344 472.32358 311.1844Q472.51108 311.9344 472.51108 313.21564Q472.51108 314.73126 472.19858 315.65314Q471.9017 316.575 471.2767 317.09064Q470.66733 317.59064 469.7142 317.59064Q468.47983 317.59064 467.76108 316.7Q466.91733 315.6375 466.91733 313.21564ZM467.99545 313.21564Q467.99545 315.325 468.49545 316.02814Q468.99545 316.73126 469.7142 316.73126Q470.44858 316.73126 470.93295 316.02814Q471.43295 315.325 471.43295 313.21564Q471.43295 311.09064 470.93295 310.40314Q470.44858 309.7 469.69858 309.7Q468.97983 309.7 468.54233 310.3094Q467.99545 311.09064 467.99545 313.21564Z" fill-rule="nonzero"/><path fill="#000000" d="M507.2841 317.45L507.2841 308.85626L508.44034 308.85626L512.95593 315.60626L512.95593 308.85626L514.0497 308.85626L514.0497 317.45L512.8778 317.45L508.3622 310.7L508.3622 317.45L507.2841 317.45ZM515.76843 314.34064Q515.76843 312.60626 516.72156 311.77814Q517.51843 311.09064 518.6747 311.09064Q519.95593 311.09064 520.76843 311.9344Q521.59656 312.7625 521.59656 314.2469Q521.59656 315.45 521.2372 316.1375Q520.8778 316.825 520.1747 317.21564Q519.4872 317.59064 518.6747 317.59064Q517.3778 317.59064 516.5653 316.7625Q515.76843 315.91876 515.76843 314.34064ZM516.84656 314.34064Q516.84656 315.52814 517.3622 316.1219Q517.89343 316.71564 518.6747 316.71564Q519.47156 316.71564 519.9872 316.1219Q520.5028 315.52814 520.5028 314.3094Q520.5028 313.15314 519.97156 312.5594Q519.45593 311.96564 518.6747 311.96564Q517.89343 311.96564 517.3622 312.5594Q516.84656 313.1375 516.84656 314.34064ZM526.15906 310.075L526.15906 308.85626L527.22156 308.85626L527.22156 310.075L526.15906 310.075ZM526.15906 317.45L526.15906 311.23126L527.22156 311.23126L527.22156 317.45L526.15906 317.45ZM529.15906 317.45L529.15906 311.23126L530.09656 311.23126L530.09656 312.10626Q530.78406 311.09064 532.08093 311.09064Q532.64343 311.09064 533.1122 311.29376Q533.59656 311.4969 533.83093 311.825Q534.0653 312.15314 534.15906 312.59064Q534.20593 312.8875 534.20593 313.6219L534.20593 317.45L533.15906 317.45L533.15906 313.66876Q533.15906 313.0125 533.03406 312.7Q532.90906 312.3875 532.59656 312.2Q532.28406 311.9969 531.8622 311.9969Q531.1903 311.9969 530.6903 312.4344Q530.20593 312.85626 530.20593 314.04376L530.20593 317.45L529.15906 317.45ZM540.1903 317.45L540.1903 316.66876Q539.59656 317.59064 538.45593 317.59064Q537.70593 317.59064 537.08093 317.1844Q536.45593 316.7625 536.1122 316.02814Q535.76843 315.29376 535.76843 314.34064Q535.76843 313.41876 536.08093 312.65314Q536.39343 311.8875 537.01843 311.4969Q537.64343 311.09064 538.40906 311.09064Q538.97156 311.09064 539.40906 311.325Q539.84656 311.5594 540.1278 311.9344L540.1278 308.85626L541.1747 308.85626L541.1747 317.45L540.1903 317.45ZM536.8622 314.34064Q536.8622 315.54376 537.3622 316.1375Q537.8622 316.71564 538.5497 316.71564Q539.2372 316.71564 539.72156 316.15314Q540.20593 315.59064 540.20593 314.4344Q540.20593 313.15314 539.70593 312.5594Q539.22156 311.96564 538.5028 311.96564Q537.7997 311.96564 537.33093 312.54376Q536.8622 313.10626 536.8622 314.34064ZM547.40906 315.45L548.5028 315.575Q548.2528 316.52814 547.5497 317.0594Q546.84656 317.59064 545.76843 317.59064Q544.40906 317.59064 543.59656 316.7469Q542.7997 315.90314 542.7997 314.3875Q542.7997 312.825 543.6122 311.96564Q544.4247 311.09064 545.70593 311.09064Q546.95593 311.09064 547.7372 311.9344Q548.53406 312.77814 548.53406 314.325Q548.53406 314.41876 548.53406 314.60626L543.89343 314.60626Q543.95593 315.6375 544.47156 316.1844Q544.9872 316.71564 545.76843 316.71564Q546.34656 316.71564 546.7528 316.41876Q547.1747 316.10626 547.40906 315.45ZM543.95593 313.7469L547.4247 313.7469Q547.3622 312.95 547.03406 312.5594Q546.51843 311.95 545.72156 311.95Q544.9872 311.95 544.4872 312.4344Q544.0028 312.91876 543.95593 313.7469ZM549.45593 317.45L551.72156 314.21564L549.6278 311.23126L550.9403 311.23126L551.89343 312.6844Q552.15906 313.10626 552.33093 313.3875Q552.58093 312.9969 552.7997 312.7L553.84656 311.23126L555.1122 311.23126L552.95593 314.15314L555.26843 317.45L553.9872 317.45L552.70593 315.5125L552.3622 314.9969L550.72156 317.45L549.45593 317.45Z" fill-rule="nonzero"/><path fill="#4285f4" d="M194.5 20.55C194.5 19.997715 194.94771 19.55 195.5 19.55L205.5 19.55C206.05229 19.55 206.5 19.997715 206.5 20.55L206.5 30.55C206.5 31.102285 206.05229 31.55 205.5 31.55L195.5 31.55C194.94771 31.55 194.5 31.102285 194.5 30.55Z" fill-rule="nonzero"/><path fill="#1a1a1a" d="M215.42188 29.55L215.42188 20.95625L218.67188 20.95625Q219.51562 20.95625 219.96875 21.034374Q220.60938 21.14375 221.03125 21.440624Q221.46875 21.7375 221.71875 22.26875Q221.98438 22.8 221.98438 23.440624Q221.98438 24.534374 221.28125 25.3Q220.59375 26.05 218.76562 26.05L216.5625 26.05L216.5625 29.55L215.42188 29.55ZM216.5625 25.05L218.78125 25.05Q219.89062 25.05 220.34375 24.64375Q220.8125 24.221874 220.8125 23.471874Q220.8125 22.940624 220.53125 22.565624Q220.26562 22.175 219.82812 22.05Q219.53125 21.971874 218.76562 21.971874L216.5625 21.971874L216.5625 25.05ZM223.26562 29.55L223.26562 20.95625L224.32812 20.95625L224.32812 29.55L223.26562 29.55ZM230.35938 28.784374Q229.76562 29.284374 229.21875 29.4875Q228.6875 29.690624 228.0625 29.690624Q227.03125 29.690624 226.48438 29.190624Q225.9375 28.690624 225.9375 27.909374Q225.9375 27.45625 226.14062 27.08125Q226.34375 26.690624 226.6875 26.471874Q227.03125 26.2375 227.45312 26.128124Q227.75 26.034374 228.39062 25.95625Q229.65625 25.815624 230.26562 25.596874Q230.26562 25.378124 230.26562 25.33125Q230.26562 24.675 229.96875 24.409374Q229.5625 24.065624 228.76562 24.065624Q228.03125 24.065624 227.67188 24.33125Q227.3125 24.58125 227.14062 25.2375L226.10938 25.096874Q226.25 24.440624 226.57812 24.034374Q226.90625 23.628124 227.51562 23.409374Q228.125 23.190624 228.92188 23.190624Q229.71875 23.190624 230.21875 23.378124Q230.71875 23.565624 230.95312 23.846874Q231.1875 24.128124 231.28125 24.565624Q231.32812 24.83125 231.32812 25.534374L231.32812 26.940624Q231.32812 28.409374 231.39062 28.8Q231.46875 29.190624 231.67188 29.55L230.5625 29.55Q230.40625 29.221874 230.35938 28.784374ZM230.26562 26.425Q229.6875 26.659374 228.54688 26.83125Q227.89062 26.925 227.625 27.05Q227.35938 27.159374 227.20312 27.378124Q227.0625 27.596874 227.0625 27.878124Q227.0625 28.3 227.375 28.58125Q227.70312 28.8625 228.3125 28.8625Q228.92188 28.8625 229.39062 28.596874Q229.875 28.33125 230.09375 27.8625Q230.26562 27.503124 230.26562 26.815624L230.26562 26.425ZM233.29688 29.55L233.29688 23.33125L234.23438 23.33125L234.23438 24.20625Q234.92188 23.190624 236.21875 23.190624Q236.78125 23.190624 237.25 23.39375Q237.73438 23.596874 237.96875 23.925Q238.20312 24.253124 238.29688 24.690624Q238.34375 24.9875 238.34375 25.721874L238.34375 29.55L237.29688 29.55L237.29688 25.76875Q237.29688 25.1125 237.17188 24.8Q237.04688 24.4875 236.73438 24.3Q236.42188 24.096874 236.0 24.096874Q235.32812 24.096874 234.82812 24.534374Q234.34375 24.95625 234.34375 26.14375L234.34375 29.55L233.29688 29.55ZM240.29688 29.55L240.29688 23.33125L241.23438 23.33125L241.23438 24.20625Q241.92188 23.190624 243.21875 23.190624Q243.78125 23.190624 244.25 23.39375Q244.73438 23.596874 244.96875 23.925Q245.20312 24.253124 245.29688 24.690624Q245.34375 24.9875 245.34375 25.721874L245.34375 29.55L244.29688 29.55L244.29688 25.76875Q244.29688 25.1125 244.17188 24.8Q244.04688 24.4875 243.73438 24.3Q243.42188 24.096874 243.0 24.096874Q242.32812 24.096874 241.82812 24.534374Q241.34375 24.95625 241.34375 26.14375L241.34375 29.55L240.29688 29.55ZM247.29688 22.175L247.29688 20.95625L248.35938 20.95625L248.35938 22.175L247.29688 22.175ZM247.29688 29.55L247.29688 23.33125L248.35938 23.33125L248.35938 29.55L247.29688 29.55ZM250.29688 29.55L250.29688 23.33125L251.23438 23.33125L251.23438 24.20625Q251.92188 23.190624 253.21875 23.190624Q253.78125 23.190624 254.25 23.39375Q254.73438 23.596874 254.96875 23.925Q255.20312 24.253124 255.29688 24.690624Q255.34375 24.9875 255.34375 25.721874L255.34375 29.55L254.29688 29.55L254.29688 25.76875Q254.29688 25.1125 254.17188 24.8Q254.04688 24.4875 253.73438 24.3Q253.42188 24.096874 253.0 24.096874Q252.32812 24.096874 251.82812 24.534374Q251.34375 24.95625 251.34375 26.14375L251.34375 29.55L250.29688 29.55ZM257.09375 30.065624L258.125 30.221874Q258.1875 30.690624 258.48438 30.909374Q258.875 31.20625 259.54688 31.20625Q260.28125 31.20625 260.67188 30.909374Q261.07812 30.6125 261.21875 30.096874Q261.3125 29.76875 261.29688 28.7375Q260.60938 29.55 259.57812 29.55Q258.29688 29.55 257.59375 28.628124Q256.89062 27.690624 256.89062 26.409374Q256.89062 25.51875 257.20312 24.76875Q257.53125 24.003124 258.14062 23.596874Q258.75 23.190624 259.57812 23.190624Q260.6875 23.190624 261.40625 24.08125L261.40625 23.33125L262.375 23.33125L262.375 28.70625Q262.375 30.159374 262.07812 30.76875Q261.78125 31.378124 261.14062 31.721874Q260.5 32.08125 259.5625 32.08125Q258.45312 32.08125 257.76562 31.58125Q257.07812 31.08125 257.09375 30.065624ZM257.96875 26.33125Q257.96875 27.55 258.45312 28.1125Q258.9375 28.675 259.67188 28.675Q260.40625 28.675 260.89062 28.1125Q261.39062 27.55 261.39062 26.3625Q261.39062 25.221874 260.875 24.64375Q260.375 24.065624 259.65625 24.065624Q258.95312 24.065624 258.45312 24.64375Q257.96875 25.20625 257.96875 26.33125ZM269.59375 28.6125L269.75 29.534374Q269.29688 29.628124 268.95312 29.628124Q268.375 29.628124 268.0625 29.45625Q267.75 29.26875 267.60938 28.971874Q267.48438 28.675 267.48438 27.721874L267.48438 24.14375L266.71875 24.14375L266.71875 23.33125L267.48438 23.33125L267.48438 21.784374L268.53125 21.159374L268.53125 23.33125L269.59375 23.33125L269.59375 24.14375L268.53125 24.14375L268.53125 27.784374Q268.53125 28.2375 268.57812 28.3625Q268.64062 28.4875 268.76562 28.565624Q268.89062 28.64375 269.125 28.64375Q269.3125 28.64375 269.59375 28.6125ZM270.29688 22.175L270.29688 20.95625L271.35938 20.95625L271.35938 22.175L270.29688 22.175ZM270.29688 29.55L270.29688 23.33125L271.35938 23.33125L271.35938 29.55L270.29688 29.55ZM273.29688 29.55L273.29688 23.33125L274.23438 23.33125L274.23438 24.20625Q274.53125 23.7375 275.01562 23.471874Q275.5 23.190624 276.125 23.190624Q276.8125 23.190624 277.25 23.471874Q277.70312 23.753124 277.875 24.26875Q278.625 23.190624 279.79688 23.190624Q280.73438 23.190624 281.21875 23.70625Q281.71875 24.20625 281.71875 25.284374L281.71875 29.55L280.67188 29.55L280.67188 25.628124Q280.67188 25.003124 280.5625 24.721874Q280.46875 24.440624 280.20312 24.26875Q279.9375 24.096874 279.5625 24.096874Q278.90625 24.096874 278.46875 24.534374Q278.04688 24.971874 278.04688 25.940624L278.04688 29.55L276.98438 29.55L276.98438 25.503124Q276.98438 24.8 276.71875 24.45625Q276.46875 24.096874 275.89062 24.096874Q275.4375 24.096874 275.0625 24.33125Q274.6875 24.565624 274.51562 25.01875Q274.34375 25.471874 274.34375 26.315624L274.34375 29.55L273.29688 29.55ZM287.54688 27.55L288.64062 27.675Q288.39062 28.628124 287.6875 29.159374Q286.98438 29.690624 285.90625 29.690624Q284.54688 29.690624 283.73438 28.846874Q282.9375 28.003124 282.9375 26.4875Q282.9375 24.925 283.75 24.065624Q284.5625 23.190624 285.84375 23.190624Q287.09375 23.190624 287.875 24.034374Q288.67188 24.878124 288.67188 26.425Q288.67188 26.51875 288.67188 26.70625L284.03125 26.70625Q284.09375 27.7375 284.60938 28.284374Q285.125 28.815624 285.90625 28.815624Q286.48438 28.815624 286.89062 28.51875Q287.3125 28.20625 287.54688 27.55ZM284.09375 25.846874L287.5625 25.846874Q287.5 25.05 287.17188 24.659374Q286.65625 24.05 285.85938 24.05Q285.125 24.05 284.625 24.534374Q284.14062 25.01875 284.09375 25.846874Z" fill-rule="nonzero"/><path fill="#ea4335" d="M305.5 20.55C305.5 19.997715 305.94772 19.55 306.5 19.55L316.5 19.55C317.05228 19.55 317.5 19.997715 317.5 20.55L317.5 30.55C317.5 31.102285 317.05228 31.55 316.5 31.55L306.5 31.55C305.94772 31.55 305.5 31.102285 305.5 30.55Z" fill-rule="nonzero"/><path fill="#1a1a1a" d="M326.45312 29.55L326.45312 20.95625L332.65625 20.95625L332.65625 21.971874L327.59375 21.971874L327.59375 24.596874L332.34375 24.596874L332.34375 25.6125L327.59375 25.6125L327.59375 28.534374L332.85938 28.534374L332.85938 29.55L326.45312 29.55ZM333.59375 29.55L335.85938 26.315624L333.76562 23.33125L335.07812 23.33125L336.03125 24.784374Q336.29688 25.20625 336.46875 25.4875Q336.71875 25.096874 336.9375 24.8L337.98438 23.33125L339.25 23.33125L337.09375 26.253124L339.40625 29.55L338.125 29.55L336.84375 27.6125L336.5 27.096874L334.85938 29.55L333.59375 29.55ZM344.54688 27.55L345.64062 27.675Q345.39062 28.628124 344.6875 29.159374Q343.98438 29.690624 342.90625 29.690624Q341.54688 29.690624 340.73438 28.846874Q339.9375 28.003124 339.9375 26.4875Q339.9375 24.925 340.75 24.065624Q341.5625 23.190624 342.84375 23.190624Q344.09375 23.190624 344.875 24.034374Q345.67188 24.878124 345.67188 26.425Q345.67188 26.51875 345.67188 26.70625L341.03125 26.70625Q341.09375 27.7375 341.60938 28.284374Q342.125 28.815624 342.90625 28.815624Q343.48438 28.815624 343.89062 28.51875Q344.3125 28.20625 344.54688 27.55ZM341.09375 25.846874L344.5625 25.846874Q344.5 25.05 344.17188 24.659374Q343.65625 24.05 342.85938 24.05Q342.125 24.05 341.625 24.534374Q341.14062 25.01875 341.09375 25.846874ZM351.35938 27.26875L352.39062 27.409374Q352.21875 28.471874 351.51562 29.08125Q350.8125 29.690624 349.79688 29.690624Q348.51562 29.690624 347.73438 28.8625Q346.96875 28.01875 346.96875 26.45625Q346.96875 25.45625 347.29688 24.70625Q347.64062 23.940624 348.3125 23.565624Q349.0 23.190624 349.8125 23.190624Q350.8125 23.190624 351.45312 23.70625Q352.10938 24.20625 352.29688 25.159374L351.26562 25.315624Q351.125 24.690624 350.75 24.378124Q350.375 24.05 349.84375 24.05Q349.04688 24.05 348.54688 24.628124Q348.04688 25.190624 348.04688 26.425Q348.04688 27.690624 348.53125 28.253124Q349.01562 28.815624 349.78125 28.815624Q350.40625 28.815624 350.8125 28.440624Q351.23438 28.065624 351.35938 27.26875ZM357.375 29.55L357.375 28.628124Q356.64062 29.690624 355.39062 29.690624Q354.84375 29.690624 354.35938 29.4875Q353.89062 29.26875 353.65625 28.95625Q353.42188 28.628124 353.32812 28.159374Q353.26562 27.8625 353.26562 27.175L353.26562 23.33125L354.32812 23.33125L354.32812 26.784374Q354.32812 27.596874 354.39062 27.89375Q354.48438 28.3 354.79688 28.55Q355.125 28.784374 355.60938 28.784374Q356.07812 28.784374 356.48438 28.55Q356.90625 28.3 357.07812 27.878124Q357.26562 27.45625 357.26562 26.659374L357.26562 23.33125L358.3125 23.33125L358.3125 29.55L357.375 29.55ZM362.59375 28.6125L362.75 29.534374Q362.29688 29.628124 361.95312 29.628124Q361.375 29.628124 361.0625 29.45625Q360.75 29.26875 360.60938 28.971874Q360.48438 28.675 360.48438 27.721874L360.48438 24.14375L359.71875 24.14375L359.71875 23.33125L360.48438 23.33125L360.48438 21.784374L361.53125 21.159374L361.53125 23.33125L362.59375 23.33125L362.59375 24.14375L361.53125 24.14375L361.53125 27.784374Q361.53125 28.2375 361.57812 28.3625Q361.64062 28.4875 361.76562 28.565624Q361.89062 28.64375 362.125 28.64375Q362.3125 28.64375 362.59375 28.6125ZM363.29688 22.175L363.29688 20.95625L364.35938 20.95625L364.35938 22.175L363.29688 22.175ZM363.29688 29.55L363.29688 23.33125L364.35938 23.33125L364.35938 29.55L363.29688 29.55ZM365.90625 26.440624Q365.90625 24.70625 366.85938 23.878124Q367.65625 23.190624 368.8125 23.190624Q370.09375 23.190624 370.90625 24.034374Q371.73438 24.8625 371.73438 26.346874Q371.73438 27.55 371.375 28.2375Q371.01562 28.925 370.3125 29.315624Q369.625 29.690624 368.8125 29.690624Q367.51562 29.690624 366.70312 28.8625Q365.90625 28.01875 365.90625 26.440624ZM366.98438 26.440624Q366.98438 27.628124 367.5 28.221874Q368.03125 28.815624 368.8125 28.815624Q369.60938 28.815624 370.125 28.221874Q370.64062 27.628124 370.64062 26.409374Q370.64062 25.253124 370.10938 24.659374Q369.59375 24.065624 368.8125 24.065624Q368.03125 24.065624 367.5 24.659374Q366.98438 25.2375 366.98438 26.440624ZM373.29688 29.55L373.29688 23.33125L374.23438 23.33125L374.23438 24.20625Q374.92188 23.190624 376.21875 23.190624Q376.78125 23.190624 377.25 23.39375Q377.73438 23.596874 377.96875 23.925Q378.20312 24.253124 378.29688 24.690624Q378.34375 24.9875 378.34375 25.721874L378.34375 29.55L377.29688 29.55L377.29688 25.76875Q377.29688 25.1125 377.17188 24.8Q377.04688 24.4875 376.73438 24.3Q376.42188 24.096874 376.0 24.096874Q375.32812 24.096874 374.82812 24.534374Q374.34375 24.95625 374.34375 26.14375L374.34375 29.55L373.29688 29.55ZM385.59375 28.6125L385.75 29.534374Q385.29688 29.628124 384.95312 29.628124Q384.375 29.628124 384.0625 29.45625Q383.75 29.26875 383.60938 28.971874Q383.48438 28.675 383.48438 27.721874L383.48438 24.14375L382.71875 24.14375L382.71875 23.33125L383.48438 23.33125L383.48438 21.784374L384.53125 21.159374L384.53125 23.33125L385.59375 23.33125L385.59375 24.14375L384.53125 24.14375L384.53125 27.784374Q384.53125 28.2375 384.57812 28.3625Q384.64062 28.4875 384.76562 28.565624Q384.89062 28.64375 385.125 28.64375Q385.3125 28.64375 385.59375 28.6125ZM386.29688 22.175L386.29688 20.95625L387.35938 20.95625L387.35938 22.175L386.29688 22.175ZM386.29688 29.55L386.29688 23.33125L387.35938 23.33125L387.35938 29.55L386.29688 29.55ZM389.29688 29.55L389.29688 23.33125L390.23438 23.33125L390.23438 24.20625Q390.53125 23.7375 391.01562 23.471874Q391.5 23.190624 392.125 23.190624Q392.8125 23.190624 393.25 23.471874Q393.70312 23.753124 393.875 24.26875Q394.625 23.190624 395.79688 23.190624Q396.73438 23.190624 397.21875 23.70625Q397.71875 24.20625 397.71875 25.284374L397.71875 29.55L396.67188 29.55L396.67188 25.628124Q396.67188 25.003124 396.5625 24.721874Q396.46875 24.440624 396.20312 24.26875Q395.9375 24.096874 395.5625 24.096874Q394.90625 24.096874 394.46875 24.534374Q394.04688 24.971874 394.04688 25.940624L394.04688 29.55L392.98438 29.55L392.98438 25.503124Q392.98438 24.8 392.71875 24.45625Q392.46875 24.096874 391.89062 24.096874Q391.4375 24.096874 391.0625 24.33125Q390.6875 24.565624 390.51562 25.01875Q390.34375 25.471874 390.34375 26.315624L390.34375 29.55L389.29688 29.55ZM403.54688 27.55L404.64062 27.675Q404.39062 28.628124 403.6875 29.159374Q402.98438 29.690624 401.90625 29.690624Q400.54688 29.690624 399.73438 28.846874Q398.9375 28.003124 398.9375 26.4875Q398.9375 24.925 399.75 24.065624Q400.5625 23.190624 401.84375 23.190624Q403.09375 23.190624 403.875 24.034374Q404.67188 24.878124 404.67188 26.425Q404.67188 26.51875 404.67188 26.70625L400.03125 26.70625Q400.09375 27.7375 400.60938 28.284374Q401.125 28.815624 401.90625 28.815624Q402.48438 28.815624 402.89062 28.51875Q403.3125 28.20625 403.54688 27.55ZM400.09375 25.846874L403.5625 25.846874Q403.5 25.05 403.17188 24.659374Q402.65625 24.05 401.85938 24.05Q401.125 24.05 400.625 24.534374Q400.14062 25.01875 400.09375 25.846874Z" fill-rule="nonzero"/></svg>