<svg version="1.1" viewBox="0.0 0.0 600.0 371.0" fill="none" stroke="none" stroke-linecap="square" stroke-miterlimit="10" width="600" height="371" xmlns:xlink="http://www.w3.org/1999/xlink" xmlns="http://www.w3.org/2000/svg"><path fill="#ffffff" d="M0 0L600.0 0L600.0 371.0L0 371.0L0 0Z" fill-rule="nonzero"/><path stroke="#cccccc" stroke-width="1.0" stroke-linecap="butt" d="M98.5 300.5L581.5 300.5" fill-rule="nonzero"/><path stroke="#cccccc" stroke-width="1.0" stroke-linecap="butt" d="M98.5 255.5L581.5 255.5" fill-rule="nonzero"/><path stroke="#cccccc" stroke-width="1.0" stroke-linecap="butt" d="M98.5 235.5L581.5 235.5" fill-rule="nonzero"/><path stroke="#cccccc" stroke-width="1.0" stroke-linecap="butt" d="M98.5 190.5L581.5 190.5" fill-rule="nonzero"/><path stroke="#cccccc" stroke-width="1.0" stroke-linecap="butt" d="M98.5 171.5L581.5 171.5" fill-rule="nonzero"/><path stroke="#cccccc" stroke-width="1.0" stroke-linecap="butt" d="M98.5 126.5L581.5 126.5" fill-rule="nonzero"/><path stroke="#cccccc" stroke-width="1.0" stroke-linecap="butt" d="M98.5 106.5L581.5 106.5" fill-rule="nonzero"/><path stroke="#cccccc" stroke-width="1.0" stroke-linecap="butt" d="M98.5 61.5L581.5 61.5" fill-rule="nonzero"/><clipPath id="id_0"><path d="M98.55 51.916668L581.45 51.916668L581.45 300.45L98.55 300.45L98.55 51.916668Z" clip-rule="nonzero"/></clipPath><path stroke="#000000" stroke-width="0.0" stroke-linecap="butt" stroke-opacity="0.0" clip-path="url(#id_0)" d="M149.0 300.0L125.0 300.0L125.0 222.0C125.0 220.89543 125.89543 220.0 127.0 220.0L147.0 220.0C148.10457 220.0 149.0 220.89543 149.0 222.0Z" fill-rule="nonzero"/><path fill="#4285f4" clip-path="url(#id_0)" d="M149.0 300.0L125.0 300.0L125.0 222.0C125.0 220.89543 125.89543 220.0 127.0 220.0L147.0 220.0C148.10457 220.0 149.0 220.89543 149.0 222.0Z" fill-rule="nonzero"/><path stroke="#000000" stroke-width="0.0" stroke-linecap="butt" stroke-opacity="0.0" clip-path="url(#id_0)" d="M225.0 300.0L201.0 300.0L201.0 221.0C201.0 219.89543 201.89543 219.0 203.0 219.0L223.0 219.0C224.10457 219.0 225.0 219.89543 225.0 221.0Z" fill-rule="nonzero"/><path fill="#4285f4" clip-path="url(#id_0)" d="M225.0 300.0L201.0 300.0L201.0 221.0C201.0 219.89543 201.89543 219.0 203.0 219.0L223.0 219.0C224.10457 219.0 225.0 219.89543 225.0 221.0Z" fill-rule="nonzero"/><path stroke="#000000" stroke-width="0.0" stroke-linecap="butt" stroke-opacity="0.0" clip-path="url(#id_0)" d="M301.0 300.0L277.0 300.0L277.0 215.0C277.0 213.89543 277.89542 213.0 279.0 213.0L299.0 213.0C300.10458 213.0 301.0 213.89543 301.0 215.0Z" fill-rule="nonzero"/><path fill="#4285f4" clip-path="url(#id_0)" d="M301.0 300.0L277.0 300.0L277.0 215.0C277.0 213.89543 277.89542 213.0 279.0 213.0L299.0 213.0C300.10458 213.0 301.0 213.89543 301.0 215.0Z" fill-rule="nonzero"/><path stroke="#000000" stroke-width="0.0" stroke-linecap="butt" stroke-opacity="0.0" clip-path="url(#id_0)" d="M377.0 300.0L353.0 300.0L353.0 218.0C353.0 216.89543 353.89542 216.0 355.0 216.0L375.0 216.0C376.10458 216.0 377.0 216.89543 377.0 218.0Z" fill-rule="nonzero"/><path fill="#4285f4" clip-path="url(#id_0)" d="M377.0 300.0L353.0 300.0L353.0 218.0C353.0 216.89543 353.89542 216.0 355.0 216.0L375.0 216.0C376.10458 216.0 377.0 216.89543 377.0 218.0Z" fill-rule="nonzero"/><path stroke="#000000" stroke-width="0.0" stroke-linecap="butt" stroke-opacity="0.0" clip-path="url(#id_0)" d="M453.0 300.0L429.0 300.0L429.0 220.0C429.0 218.89543 429.89542 218.0 431.0 218.0L451.0 218.0C452.10458 218.0 453.0 218.89543 453.0 220.0Z" fill-rule="nonzero"/><path fill="#4285f4" clip-path="url(#id_0)" d="M453.0 300.0L429.0 300.0L429.0 220.0C429.0 218.89543 429.89542 218.0 431.0 218.0L451.0 218.0C452.10458 218.0 453.0 218.89543 453.0 220.0Z" fill-rule="nonzero"/><path stroke="#000000" stroke-width="0.0" stroke-linecap="butt" stroke-opacity="0.0" clip-path="url(#id_0)" d="M529.0 300.0L505.0 300.0L505.0 221.0C505.0 219.89543 505.89542 219.0 507.0 219.0L527.0 219.0C528.10455 219.0 529.0 219.89543 529.0 221.0Z" fill-rule="nonzero"/><path fill="#4285f4" clip-path="url(#id_0)" d="M529.0 300.0L505.0 300.0L505.0 221.0C505.0 219.89543 505.89542 219.0 507.0 219.0L527.0 219.0C528.10455 219.0 529.0 219.89543 529.0 221.0Z" fill-rule="nonzero"/><path stroke="#000000" stroke-width="0.0" stroke-linecap="butt" stroke-opacity="0.0" clip-path="url(#id_0)" d="M174.0 300.0L150.0 300.0L150.0 279.0C150.0 277.89542 150.89543 277.0 152.0 277.0L172.0 277.0C173.10457 277.0 174.0 277.89542 174.0 279.0Z" fill-rule="nonzero"/><path fill="#ea4335" clip-path="url(#id_0)" d="M174.0 300.0L150.0 300.0L150.0 279.0C150.0 277.89542 150.89543 277.0 152.0 277.0L172.0 277.0C173.10457 277.0 174.0 277.89542 174.0 279.0Z" fill-rule="nonzero"/><path stroke="#000000" stroke-width="0.0" stroke-linecap="butt" stroke-opacity="0.0" clip-path="url(#id_0)" d="M250.0 300.0L226.0 300.0L226.0 270.0C226.0 268.89542 226.89543 268.0 228.0 268.0L248.0 268.0C249.10457 268.0 250.0 268.89542 250.0 270.0Z" fill-rule="nonzero"/><path fill="#ea4335" clip-path="url(#id_0)" d="M250.0 300.0L226.0 300.0L226.0 270.0C226.0 268.89542 226.89543 268.0 228.0 268.0L248.0 268.0C249.10457 268.0 250.0 268.89542 250.0 270.0Z" fill-rule="nonzero"/><path stroke="#000000" stroke-width="0.0" stroke-linecap="butt" stroke-opacity="0.0" clip-path="url(#id_0)" d="M326.0 300.0L302.0 300.0L302.0 238.0C302.0 236.89543 302.89542 236.0 304.0 236.0L324.0 236.0C325.10458 236.0 326.0 236.89543 326.0 238.0Z" fill-rule="nonzero"/><path fill="#ea4335" clip-path="url(#id_0)" d="M326.0 300.0L302.0 300.0L302.0 238.0C302.0 236.89543 302.89542 236.0 304.0 236.0L324.0 236.0C325.10458 236.0 326.0 236.89543 326.0 238.0Z" fill-rule="nonzero"/><path stroke="#000000" stroke-width="0.0" stroke-linecap="butt" stroke-opacity="0.0" clip-path="url(#id_0)" d="M402.0 300.0L378.0 300.0L378.0 185.0C378.0 183.89543 378.89542 183.0 380.0 183.0L400.0 183.0C401.10458 183.0 402.0 183.89543 402.0 185.0Z" fill-rule="nonzero"/><path fill="#ea4335" clip-path="url(#id_0)" d="M402.0 300.0L378.0 300.0L378.0 185.0C378.0 183.89543 378.89542 183.0 380.0 183.0L400.0 183.0C401.10458 183.0 402.0 183.89543 402.0 185.0Z" fill-rule="nonzero"/><path stroke="#000000" stroke-width="0.0" stroke-linecap="butt" stroke-opacity="0.0" clip-path="url(#id_0)" d="M478.0 300.0L454.0 300.0L454.0 136.0C454.0 134.89543 454.89542 134.0 456.0 134.0L476.0 134.0C477.10458 134.0 478.0 134.89543 478.0 136.0Z" fill-rule="nonzero"/><path fill="#ea4335" clip-path="url(#id_0)" d="M478.0 300.0L454.0 300.0L454.0 136.0C454.0 134.89543 454.89542 134.0 456.0 134.0L476.0 134.0C477.10458 134.0 478.0 134.89543 478.0 136.0Z" fill-rule="nonzero"/><path stroke="#000000" stroke-width="0.0" stroke-linecap="butt" stroke-opacity="0.0" clip-path="url(#id_0)" d="M554.0 300.0L530.0 300.0L530.0 54.0C530.0 52.89543 530.89545 52.0 532.0 52.0L552.0 52.0C553.10455 52.0 554.0 52.89543 554.0 54.0Z" fill-rule="nonzero"/><path fill="#ea4335" clip-path="url(#id_0)" d="M554.0 300.0L530.0 300.0L530.0 54.0C530.0 52.89543 530.89545 52.0 532.0 52.0L552.0 52.0C553.10455 52.0 554.0 52.89543 554.0 54.0Z" fill-rule="nonzero"/><path fill="#000000" d="M325.07812 345.2625Q325.07812 343.1219 326.21875 341.91876Q327.375 340.7 329.1875 340.7Q330.39062 340.7 331.34375 341.27814Q332.29688 341.84064 332.79688 342.85626Q333.29688 343.8719 333.29688 345.16876Q333.29688 346.46564 332.76562 347.4969Q332.23438 348.52814 331.26562 349.0594Q330.3125 349.59064 329.1875 349.59064Q327.96875 349.59064 327.01562 349.0125Q326.0625 348.41876 325.5625 347.41876Q325.07812 346.40314 325.07812 345.2625ZM326.25 345.27814Q326.25 346.84064 327.07812 347.73126Q327.92188 348.6219 329.1875 348.6219Q330.46875 348.6219 331.29688 347.73126Q332.125 346.825 332.125 345.15314Q332.125 344.10626 331.76562 343.325Q331.42188 342.54376 330.73438 342.1219Q330.04688 341.6844 329.20312 341.6844Q328.0 341.6844 327.125 342.5125Q326.25 343.34064 326.25 345.27814ZM334.54688 349.45L334.54688 344.04376L333.60938 344.04376L333.60938 343.23126L334.54688 343.23126L334.54688 342.5594Q334.54688 341.9344 334.65625 341.6375Q334.8125 341.21564 335.1875 340.96564Q335.57812 340.71564 336.26562 340.71564Q336.71875 340.71564 337.25 340.825L337.09375 341.73126Q336.76562 341.6844 336.46875 341.6844Q335.98438 341.6844 335.78125 341.8875Q335.59375 342.09064 335.59375 342.65314L335.59375 343.23126L336.8125 343.23126L336.8125 344.04376L335.59375 344.04376L335.59375 349.45L334.54688 349.45ZM337.54688 349.45L337.54688 344.04376L336.60938 344.04376L336.60938 343.23126L337.54688 343.23126L337.54688 342.5594Q337.54688 341.9344 337.65625 341.6375Q337.8125 341.21564 338.1875 340.96564Q338.57812 340.71564 339.26562 340.71564Q339.71875 340.71564 340.25 340.825L340.09375 341.73126Q339.76562 341.6844 339.46875 341.6844Q338.98438 341.6844 338.78125 341.8875Q338.59375 342.09064 338.59375 342.65314L338.59375 343.23126L339.8125 343.23126L339.8125 344.04376L338.59375 344.04376L338.59375 349.45L337.54688 349.45ZM339.875 347.59064L340.90625 347.4344Q341.0 348.0594 341.39062 348.3875Q341.79688 348.71564 342.53125 348.71564Q343.25 348.71564 343.59375 348.4344Q343.95312 348.1375 343.95312 347.73126Q343.95312 347.3719 343.64062 347.16876Q343.42188 347.02814 342.5625 346.8094Q341.40625 346.5125 340.95312 346.3094Q340.51562 346.09064 340.28125 345.71564Q340.04688 345.34064 340.04688 344.8719Q340.04688 344.46564 340.23438 344.10626Q340.42188 343.7469 340.75 343.5125Q341.0 343.34064 341.42188 343.21564Q341.84375 343.09064 342.34375 343.09064Q343.0625 343.09064 343.60938 343.3094Q344.17188 343.5125 344.4375 343.8719Q344.70312 344.23126 344.79688 344.825L343.76562 344.96564Q343.70312 344.4969 343.35938 344.23126Q343.03125 343.95 342.40625 343.95Q341.6875 343.95 341.375 344.2Q341.0625 344.4344 341.0625 344.7625Q341.0625 344.96564 341.1875 345.1219Q341.32812 345.29376 341.59375 345.40314Q341.75 345.46564 342.53125 345.66876Q343.65625 345.98126 344.09375 346.16876Q344.53125 346.35626 344.78125 346.71564Q345.03125 347.075 345.03125 347.6219Q345.03125 348.15314 344.71875 348.6219Q344.42188 349.075 343.84375 349.34064Q343.26562 349.59064 342.53125 349.59064Q341.3125 349.59064 340.67188 349.09064Q340.04688 348.575 339.875 347.59064ZM350.54688 347.45L351.64062 347.575Q351.39062 348.52814 350.6875 349.0594Q349.98438 349.59064 348.90625 349.59064Q347.54688 349.59064 346.73438 348.7469Q345.9375 347.90314 345.9375 346.3875Q345.9375 344.825 346.75 343.96564Q347.5625 343.09064 348.84375 343.09064Q350.09375 343.09064 350.875 343.9344Q351.67188 344.77814 351.67188 346.325Q351.67188 346.41876 351.67188 346.60626L347.03125 346.60626Q347.09375 347.6375 347.60938 348.1844Q348.125 348.71564 348.90625 348.71564Q349.48438 348.71564 349.89062 348.41876Q350.3125 348.10626 350.54688 347.45ZM347.09375 345.7469L350.5625 345.7469Q350.5 344.95 350.17188 344.5594Q349.65625 343.95 348.85938 343.95Q348.125 343.95 347.625 344.4344Q347.14062 344.91876 347.09375 345.7469ZM355.59375 348.5125L355.75 349.4344Q355.29688 349.52814 354.95312 349.52814Q354.375 349.52814 354.0625 349.35626Q353.75 349.16876 353.60938 348.8719Q353.48438 348.575 353.48438 347.6219L353.48438 344.04376L352.71875 344.04376L352.71875 343.23126L353.48438 343.23126L353.48438 341.6844L354.53125 341.0594L354.53125 343.23126L355.59375 343.23126L355.59375 344.04376L354.53125 344.04376L354.53125 347.6844Q354.53125 348.1375 354.57812 348.2625Q354.64062 348.3875 354.76562 348.46564Q354.89062 348.54376 355.125 348.54376Q355.3125 348.54376 355.59375 348.5125Z" fill-rule="nonzero"/><path fill="#000000" d="M29.550013 233.57396L21.971888 233.57396L21.971888 236.40208L20.956263 236.40208L20.956263 229.58958L21.971888 229.58958L21.971888 232.43333L29.550013 232.43333L29.550013 233.57396ZM22.175013 228.88646L20.956263 228.88646L20.956263 227.82396L22.175013 227.82396L22.175013 228.88646ZM29.550013 228.88646L23.331263 228.88646L23.331263 227.82396L29.550013 227.82396L29.550013 228.88646ZM29.550013 225.88646L23.331263 225.88646L23.331263 224.94896L24.206263 224.94896Q23.737513 224.65208 23.471888 224.16771Q23.190638 223.68333 23.190638 223.05833Q23.190638 222.37083 23.471888 221.93333Q23.753138 221.48021 24.268763 221.30833Q23.190638 220.55833 23.190638 219.38646Q23.190638 218.44896 23.706263 217.96458Q24.206263 217.46458 25.284388 217.46458L29.550013 217.46458L29.550013 218.51146L25.628138 218.51146Q25.003138 218.51146 24.721888 218.62083Q24.440638 218.71458 24.268763 218.98021Q24.096888 219.24583 24.096888 219.62083Q24.096888 220.27708 24.534388 220.71458Q24.971888 221.13646 25.940638 221.13646L29.550013 221.13646L29.550013 222.19896L25.503138 222.19896Q24.800013 222.19896 24.456263 222.46458Q24.096888 222.71458 24.096888 223.29271Q24.096888 223.74583 24.331263 224.12083Q24.565638 224.49583 25.018763 224.66771Q25.471888 224.83958 26.315638 224.83958L29.550013 224.83958L29.550013 225.88646ZM27.550013 211.63646L27.675013 210.54271Q28.628138 210.79271 29.159388 211.49583Q29.690638 212.19896 29.690638 213.27708Q29.690638 214.63646 28.846888 215.44896Q28.003138 216.24583 26.487513 216.24583Q24.925013 216.24583 24.065638 215.43333Q23.190638 214.62083 23.190638 213.33958Q23.190638 212.08958 24.034388 211.30833Q24.878138 210.51146 26.425013 210.51146Q26.518763 210.51146 26.706263 210.51146L26.706263 215.15208Q27.737513 215.08958 28.284388 214.57396Q28.815638 214.05833 28.815638 213.27708Q28.815638 212.69896 28.518763 212.29271Q28.206263 211.87083 27.550013 211.63646ZM25.846888 215.08958L25.846888 211.62083Q25.050013 211.68333 24.659388 212.01146Q24.050013 212.52708 24.050013 213.32396Q24.050013 214.05833 24.534388 214.55833Q25.018763 215.04271 25.846888 215.08958ZM32.08126 203.87083Q30.971888 204.74583 29.503138 205.35521Q28.018763 205.94896 26.440638 205.94896Q25.050013 205.94896 23.768763 205.51146Q22.284388 204.98021 20.815638 203.87083L20.815638 203.12083Q22.034388 203.82396 22.550013 204.05833Q23.362513 204.41771 24.237513 204.62083Q25.331263 204.87083 26.440638 204.87083Q29.268763 204.87083 32.08126 203.12083L32.08126 203.87083ZM29.550013 201.88646L23.331263 201.88646L23.331263 200.94896L24.206263 200.94896Q23.737513 200.65208 23.471888 200.16771Q23.190638 199.68333 23.190638 199.05833Q23.190638 198.37083 23.471888 197.93333Q23.753138 197.48021 24.268763 197.30833Q23.190638 196.55833 23.190638 195.38646Q23.190638 194.44896 23.706263 193.96458Q24.206263 193.46458 25.284388 193.46458L29.550013 193.46458L29.550013 194.51146L25.628138 194.51146Q25.003138 194.51146 24.721888 194.62083Q24.440638 194.71458 24.268763 194.98021Q24.096888 195.24583 24.096888 195.62083Q24.096888 196.27708 24.534388 196.71458Q24.971888 197.13646 25.940638 197.13646L29.550013 197.13646L29.550013 198.19896L25.503138 198.19896Q24.800013 198.19896 24.456263 198.46458Q24.096888 198.71458 24.096888 199.29271Q24.096888 199.74583 24.331263 200.12083Q24.565638 200.49583 25.018763 200.66771Q25.471888 200.83958 26.315638 200.83958L29.550013 200.83958L29.550013 201.88646ZM22.175013 191.88646L20.956263 191.88646L20.956263 190.82396L22.175013 190.82396L22.175013 191.88646ZM29.550013 191.88646L23.331263 191.88646L23.331263 190.82396L29.550013 190.82396L29.550013 191.88646ZM27.268763 184.82396L27.409388 183.79271Q28.471888 183.96458 29.081263 184.66771Q29.690638 185.37083 29.690638 186.38646Q29.690638 187.66771 28.862513 188.44896Q28.018763 189.21458 26.456263 189.21458Q25.456263 189.21458 24.706263 188.88646Q23.940638 188.54271 23.565638 187.87083Q23.190638 187.18333 23.190638 186.37083Q23.190638 185.37083 23.706263 184.73021Q24.206263 184.07396 25.159388 183.88646L25.315638 184.91771Q24.690638 185.05833 24.378138 185.43333Q24.050013 185.80833 24.050013 186.33958Q24.050013 187.13646 24.628138 187.63646Q25.190638 188.13646 26.425013 188.13646Q27.690638 188.13646 28.253138 187.65208Q28.815638 187.16771 28.815638 186.40208Q28.815638 185.77708 28.440638 185.37083Q28.065638 184.94896 27.268763 184.82396ZM29.550013 182.90208L23.331263 182.90208L23.331263 181.94896L24.268763 181.94896Q23.612513 181.58958 23.409388 181.29271Q23.190638 180.98021 23.190638 180.60521Q23.190638 180.07396 23.518763 179.52708L24.503138 179.88646Q24.268763 180.27708 24.268763 180.65208Q24.268763 181.01146 24.487513 181.29271Q24.690638 181.55833 25.065638 181.66771Q25.628138 181.85521 26.284388 181.85521L29.550013 181.85521L29.550013 182.90208ZM26.440638 179.27708Q24.706263 179.27708 23.878138 178.32396Q23.190638 177.52708 23.190638 176.37083Q23.190638 175.08958 24.034388 174.27708Q24.862513 173.44896 26.346888 173.44896Q27.550013 173.44896 28.237513 173.80833Q28.925013 174.16771 29.315638 174.87083Q29.690638 175.55833 29.690638 176.37083Q29.690638 177.66771 28.862513 178.48021Q28.018763 179.27708 26.440638 179.27708ZM26.440638 178.19896Q27.628138 178.19896 28.221888 177.68333Q28.815638 177.15208 28.815638 176.37083Q28.815638 175.57396 28.221888 175.05833Q27.628138 174.54271 26.409388 174.54271Q25.253138 174.54271 24.659388 175.07396Q24.065638 175.58958 24.065638 176.37083Q24.065638 177.15208 24.659388 177.68333Q25.237513 178.19896 26.440638 178.19896ZM27.690638 172.30833L27.534388 171.27708Q28.159388 171.18333 28.487513 170.79271Q28.815638 170.38646 28.815638 169.65208Q28.815638 168.93333 28.534388 168.58958Q28.237513 168.23021 27.831263 168.23021Q27.471888 168.23021 27.268763 168.54271Q27.128138 168.76146 26.909388 169.62083Q26.612513 170.77708 26.409388 171.23021Q26.190638 171.66771 25.815638 171.90208Q25.440638 172.13646 24.971888 172.13646Q24.565638 172.13646 24.206263 171.94896Q23.846888 171.76146 23.612513 171.43333Q23.440638 171.18333 23.315638 170.76146Q23.190638 170.33958 23.190638 169.83958Q23.190638 169.12083 23.409388 168.57396Q23.612513 168.01146 23.971888 167.74583Q24.331263 167.48021 24.925013 167.38646L25.065638 168.41771Q24.596888 168.48021 24.331263 168.82396Q24.050013 169.15208 24.050013 169.77708Q24.050013 170.49583 24.300013 170.80833Q24.534388 171.12083 24.862513 171.12083Q25.065638 171.12083 25.221888 170.99583Q25.393763 170.85521 25.503138 170.58958Q25.565638 170.43333 25.768763 169.65208Q26.081263 168.52708 26.268763 168.08958Q26.456263 167.65208 26.815638 167.40208Q27.175013 167.15208 27.721888 167.15208Q28.253138 167.15208 28.721888 167.46458Q29.175013 167.76146 29.440638 168.33958Q29.690638 168.91771 29.690638 169.65208Q29.690638 170.87083 29.190638 171.51146Q28.675013 172.13646 27.690638 172.30833ZM27.550013 161.63646L27.675013 160.54271Q28.628138 160.79271 29.159388 161.49583Q29.690638 162.19896 29.690638 163.27708Q29.690638 164.63646 28.846888 165.44896Q28.003138 166.24583 26.487513 166.24583Q24.925013 166.24583 24.065638 165.43333Q23.190638 164.62083 23.190638 163.33958Q23.190638 162.08958 24.034388 161.30833Q24.878138 160.51146 26.425013 160.51146Q26.518763 160.51146 26.706263 160.51146L26.706263 165.15208Q27.737513 165.08958 28.284388 164.57396Q28.815638 164.05833 28.815638 163.27708Q28.815638 162.69896 28.518763 162.29271Q28.206263 161.87083 27.550013 161.63646ZM25.846888 165.08958L25.846888 161.62083Q25.050013 161.68333 24.659388 162.01146Q24.050013 162.52708 24.050013 163.32396Q24.050013 164.05833 24.534388 164.55833Q25.018763 165.04271 25.846888 165.08958ZM27.268763 154.82396L27.409388 153.79271Q28.471888 153.96458 29.081263 154.66771Q29.690638 155.37083 29.690638 156.38646Q29.690638 157.66771 28.862513 158.44896Q28.018763 159.21458 26.456263 159.21458Q25.456263 159.21458 24.706263 158.88646Q23.940638 158.54271 23.565638 157.87083Q23.190638 157.18333 23.190638 156.37083Q23.190638 155.37083 23.706263 154.73021Q24.206263 154.07396 25.159388 153.88646L25.315638 154.91771Q24.690638 155.05833 24.378138 155.43333Q24.050013 155.80833 24.050013 156.33958Q24.050013 157.13646 24.628138 157.63646Q25.190638 158.13646 26.425013 158.13646Q27.690638 158.13646 28.253138 157.65208Q28.815638 157.16771 28.815638 156.40208Q28.815638 155.77708 28.440638 155.37083Q28.065638 154.94896 27.268763 154.82396ZM26.440638 153.27708Q24.706263 153.27708 23.878138 152.32396Q23.190638 151.52708 23.190638 150.37083Q23.190638 149.08958 24.034388 148.27708Q24.862513 147.44896 26.346888 147.44896Q27.550013 147.44896 28.237513 147.80833Q28.925013 148.16771 29.315638 148.87083Q29.690638 149.55833 29.690638 150.37083Q29.690638 151.66771 28.862513 152.48021Q28.018763 153.27708 26.440638 153.27708ZM26.440638 152.19896Q27.628138 152.19896 28.221888 151.68333Q28.815638 151.15208 28.815638 150.37083Q28.815638 149.57396 28.221888 149.05833Q27.628138 148.54271 26.409388 148.54271Q25.253138 148.54271 24.659388 149.07396Q24.065638 149.58958 24.065638 150.37083Q24.065638 151.15208 24.659388 151.68333Q25.237513 152.19896 26.440638 152.19896ZM29.550013 145.88646L23.331263 145.88646L23.331263 144.94896L24.206263 144.94896Q23.190638 144.26146 23.190638 142.96458Q23.190638 142.40208 23.393763 141.93333Q23.596888 141.44896 23.925013 141.21458Q24.253138 140.98021 24.690638 140.88646Q24.987513 140.83958 25.721888 140.83958L29.550013 140.83958L29.550013 141.88646L25.768763 141.88646Q25.112513 141.88646 24.800013 142.01146Q24.487513 142.13646 24.300013 142.44896Q24.096888 142.76146 24.096888 143.18333Q24.096888 143.85521 24.534388 144.35521Q24.956263 144.83958 26.143763 144.83958L29.550013 144.83958L29.550013 145.88646ZM29.550013 134.85521L28.768763 134.85521Q29.690638 135.44896 29.690638 136.58958Q29.690638 137.33958 29.284388 137.96458Q28.862513 138.58958 28.128138 138.93333Q27.393763 139.27708 26.440638 139.27708Q25.518763 139.27708 24.753138 138.96458Q23.987513 138.65208 23.596888 138.02708Q23.190638 137.40208 23.190638 136.63646Q23.190638 136.07396 23.425013 135.63646Q23.659388 135.19896 24.034388 134.91771L20.956263 134.91771L20.956263 133.87083L29.550013 133.87083L29.550013 134.85521ZM26.440638 138.18333Q27.643763 138.18333 28.237513 137.68333Q28.815638 137.18333 28.815638 136.49583Q28.815638 135.80833 28.253138 135.32396Q27.690638 134.83958 26.534388 134.83958Q25.253138 134.83958 24.659388 135.33958Q24.065638 135.82396 24.065638 136.54271Q24.065638 137.24583 24.643763 137.71458Q25.206263 138.18333 26.440638 138.18333ZM32.08126 131.19896L32.08126 131.94896Q29.268763 130.19896 26.440638 130.19896Q25.346888 130.19896 24.253138 130.44896Q23.378138 130.65208 22.565638 131.01146Q22.050013 131.24583 20.815638 131.94896L20.815638 131.19896Q22.284388 130.10521 23.768763 129.57396Q25.050013 129.12083 26.440638 129.12083Q28.018763 129.12083 29.503138 129.73021Q30.971888 130.33958 32.08126 131.19896Z" fill-rule="nonzero"/><path fill="#000000" d="M76.01875 304.45L74.97188 304.45L74.97188 297.73126Q74.58125 298.09064 73.95625 298.46564Q73.34688 298.825 72.8625 298.9969L72.8625 297.98126Q73.7375 297.5594 74.39375 296.98126Q75.06563 296.3875 75.34688 295.825L76.01875 295.825L76.01875 304.45ZM79.05 300.21564Q79.05 298.6844 79.3625 297.7625Q79.675 296.825 80.28438 296.325Q80.90938 295.825 81.84688 295.825Q82.53438 295.825 83.05 296.10626Q83.58125 296.3875 83.925 296.91876Q84.26875 297.4344 84.45625 298.1844Q84.64375 298.9344 84.64375 300.21564Q84.64375 301.73126 84.33125 302.65314Q84.03438 303.575 83.40938 304.09064Q82.8 304.59064 81.84688 304.59064Q80.6125 304.59064 79.89375 303.7Q79.05 302.6375 79.05 300.21564ZM80.12813 300.21564Q80.12813 302.325 80.62813 303.02814Q81.12813 303.73126 81.84688 303.73126Q82.58125 303.73126 83.06563 303.02814Q83.56563 302.325 83.56563 300.21564Q83.56563 298.09064 83.06563 297.40314Q82.58125 296.7 81.83125 296.7Q81.1125 296.7 80.675 297.3094Q80.12813 298.09064 80.12813 300.21564ZM86.05 300.21564Q86.05 298.6844 86.3625 297.7625Q86.675 296.825 87.28438 296.325Q87.90938 295.825 88.84688 295.825Q89.53438 295.825 90.05 296.10626Q90.58125 296.3875 90.925 296.91876Q91.26875 297.4344 91.45625 298.1844Q91.64375 298.9344 91.64375 300.21564Q91.64375 301.73126 91.33125 302.65314Q91.03438 303.575 90.40938 304.09064Q89.8 304.59064 88.84688 304.59064Q87.6125 304.59064 86.89375 303.7Q86.05 302.6375 86.05 300.21564ZM87.12813 300.21564Q87.12813 302.325 87.62813 303.02814Q88.12813 303.73126 88.84688 303.73126Q89.58125 303.73126 90.06563 303.02814Q90.56563 302.325 90.56563 300.21564Q90.56563 298.09064 90.06563 297.40314Q89.58125 296.7 88.83125 296.7Q88.1125 296.7 87.675 297.3094Q87.12813 298.09064 87.12813 300.21564Z" fill-rule="nonzero"/><path fill="#000000" d="M72.05 257.10745L73.15938 257.0137Q73.28438 257.8262 73.72188 258.23245Q74.175 258.6387 74.81563 258.6387Q75.56563 258.6387 76.09688 258.06058Q76.62813 257.48245 76.62813 256.54495Q76.62813 255.6387 76.1125 255.12308Q75.6125 254.59183 74.78438 254.59183Q74.28438 254.59183 73.8625 254.8262Q73.45625 255.06058 73.22188 255.41995L72.2375 255.29495L73.06563 250.8887L77.34688 250.8887L77.34688 251.8887L73.90938 251.8887L73.45625 254.2012Q74.22188 253.65433 75.06563 253.65433Q76.19063 253.65433 76.95625 254.43558Q77.7375 255.21683 77.7375 256.4512Q77.7375 257.60745 77.06563 258.46683Q76.2375 259.49808 74.81563 259.49808Q73.64375 259.49808 72.89375 258.84183Q72.15938 258.18558 72.05 257.10745ZM79.05 255.12308Q79.05 253.59183 79.3625 252.66995Q79.675 251.73245 80.28438 251.23245Q80.90938 250.73245 81.84688 250.73245Q82.53438 250.73245 83.05 251.0137Q83.58125 251.29495 83.925 251.8262Q84.26875 252.34183 84.45625 253.09183Q84.64375 253.84183 84.64375 255.12308Q84.64375 256.6387 84.33125 257.56058Q84.03438 258.48245 83.40938 258.99808Q82.8 259.49808 81.84688 259.49808Q80.6125 259.49808 79.89375 258.60745Q79.05 257.54495 79.05 255.12308ZM80.12813 255.12308Q80.12813 257.23245 80.62813 257.93558Q81.12813 258.6387 81.84688 258.6387Q82.58125 258.6387 83.06563 257.93558Q83.56563 257.23245 83.56563 255.12308Q83.56563 252.99808 83.06563 252.31058Q82.58125 251.60745 81.83125 251.60745Q81.1125 251.60745 80.675 252.21683Q80.12813 252.99808 80.12813 255.12308ZM86.05 255.12308Q86.05 253.59183 86.3625 252.66995Q86.675 251.73245 87.28438 251.23245Q87.90938 250.73245 88.84688 250.73245Q89.53438 250.73245 90.05 251.0137Q90.58125 251.29495 90.925 251.8262Q91.26875 252.34183 91.45625 253.09183Q91.64375 253.84183 91.64375 255.12308Q91.64375 256.6387 91.33125 257.56058Q91.03438 258.48245 90.40938 258.99808Q89.8 259.49808 88.84688 259.49808Q87.6125 259.49808 86.89375 258.60745Q86.05 257.54495 86.05 255.12308ZM87.12813 255.12308Q87.12813 257.23245 87.62813 257.93558Q88.12813 258.6387 88.84688 258.6387Q89.58125 258.6387 90.06563 257.93558Q90.56563 257.23245 90.56563 255.12308Q90.56563 252.99808 90.06563 252.31058Q89.58125 251.60745 88.83125 251.60745Q88.1125 251.60745 87.675 252.21683Q87.12813 252.99808 87.12813 255.12308Z" fill-rule="nonzero"/><path fill="#000000" d="M69.01875 239.93716L67.97188 239.93716L67.97188 233.21841Q67.58125 233.57779 66.95625 233.95279Q66.34688 234.31216 65.8625 234.48404L65.8625 233.46841Q66.7375 233.04654 67.39375 232.46841Q68.06563 231.87466 68.34688 231.31216L69.01875 231.31216L69.01875 239.93716ZM72.05 235.70279Q72.05 234.17154 72.3625 233.24966Q72.675 232.31216 73.28438 231.81216Q73.90938 231.31216 74.84688 231.31216Q75.53438 231.31216 76.05 231.59341Q76.58125 231.87466 76.925 232.40591Q77.26875 232.92154 77.45625 233.67154Q77.64375 234.42154 77.64375 235.70279Q77.64375 237.21841 77.33125 238.14029Q77.03438 239.06216 76.40938 239.57779Q75.8 240.07779 74.84688 240.07779Q73.6125 240.07779 72.89375 239.18716Q72.05 238.12466 72.05 235.70279ZM73.12813 235.70279Q73.12813 237.81216 73.62813 238.51529Q74.12813 239.21841 74.84688 239.21841Q75.58125 239.21841 76.06563 238.51529Q76.56563 237.81216 76.56563 235.70279Q76.56563 233.57779 76.06563 232.89029Q75.58125 232.18716 74.83125 232.18716Q74.1125 232.18716 73.675 232.79654Q73.12813 233.57779 73.12813 235.70279ZM79.05 235.70279Q79.05 234.17154 79.3625 233.24966Q79.675 232.31216 80.28438 231.81216Q80.90938 231.31216 81.84688 231.31216Q82.53438 231.31216 83.05 231.59341Q83.58125 231.87466 83.925 232.40591Q84.26875 232.92154 84.45625 233.67154Q84.64375 234.42154 84.64375 235.70279Q84.64375 237.21841 84.33125 238.14029Q84.03438 239.06216 83.40938 239.57779Q82.8 240.07779 81.84688 240.07779Q80.6125 240.07779 79.89375 239.18716Q79.05 238.12466 79.05 235.70279ZM80.12813 235.70279Q80.12813 237.81216 80.62813 238.51529Q81.12813 239.21841 81.84688 239.21841Q82.58125 239.21841 83.06563 238.51529Q83.56563 237.81216 83.56563 235.70279Q83.56563 233.57779 83.06563 232.89029Q82.58125 232.18716 81.83125 232.18716Q81.1125 232.18716 80.675 232.79654Q80.12813 233.57779 80.12813 235.70279ZM86.05 235.70279Q86.05 234.17154 86.3625 233.24966Q86.675 232.31216 87.28438 231.81216Q87.90938 231.31216 88.84688 231.31216Q89.53438 231.31216 90.05 231.59341Q90.58125 231.87466 90.925 232.40591Q91.26875 232.92154 91.45625 233.67154Q91.64375 234.42154 91.64375 235.70279Q91.64375 237.21841 91.33125 238.14029Q91.03438 239.06216 90.40938 239.57779Q89.8 240.07779 88.84688 240.07779Q87.6125 240.07779 86.89375 239.18716Q86.05 238.12466 86.05 235.70279ZM87.12813 235.70279Q87.12813 237.81216 87.62813 238.51529Q88.12813 239.21841 88.84688 239.21841Q89.58125 239.21841 90.06563 238.51529Q90.56563 237.81216 90.56563 235.70279Q90.56563 233.57779 90.06563 232.89029Q89.58125 232.18716 88.83125 232.18716Q88.1125 232.18716 87.675 232.79654Q87.12813 233.57779 87.12813 235.70279Z" fill-rule="nonzero"/><path fill="#000000" d="M65.05 192.59464L66.15938 192.50089Q66.28438 193.31339 66.72188 193.71964Q67.175 194.12589 67.81563 194.12589Q68.56563 194.12589 69.09688 193.54776Q69.62813 192.96964 69.62813 192.03214Q69.62813 191.12589 69.1125 190.61026Q68.6125 190.07901 67.78438 190.07901Q67.28438 190.07901 66.8625 190.31339Q66.45625 190.54776 66.22188 190.90714L65.2375 190.78214L66.06563 186.37589L70.34688 186.37589L70.34688 187.37589L66.90938 187.37589L66.45625 189.68839Q67.22188 189.14151 68.06563 189.14151Q69.19063 189.14151 69.95625 189.92276Q70.7375 190.70401 70.7375 191.93839Q70.7375 193.09464 70.06563 193.95401Q69.2375 194.98526 67.81563 194.98526Q66.64375 194.98526 65.89375 194.32901Q65.15938 193.67276 65.05 192.59464ZM72.05 190.61026Q72.05 189.07901 72.3625 188.15714Q72.675 187.21964 73.28438 186.71964Q73.90938 186.21964 74.84688 186.21964Q75.53438 186.21964 76.05 186.50089Q76.58125 186.78214 76.925 187.31339Q77.26875 187.82901 77.45625 188.57901Q77.64375 189.32901 77.64375 190.61026Q77.64375 192.12589 77.33125 193.04776Q77.03438 193.96964 76.40938 194.48526Q75.8 194.98526 74.84688 194.98526Q73.6125 194.98526 72.89375 194.09464Q72.05 193.03214 72.05 190.61026ZM73.12813 190.61026Q73.12813 192.71964 73.62813 193.42276Q74.12813 194.12589 74.84688 194.12589Q75.58125 194.12589 76.06563 193.42276Q76.56563 192.71964 76.56563 190.61026Q76.56563 188.48526 76.06563 187.79776Q75.58125 187.09464 74.83125 187.09464Q74.1125 187.09464 73.675 187.70401Q73.12813 188.48526 73.12813 190.61026ZM79.05 190.61026Q79.05 189.07901 79.3625 188.15714Q79.675 187.21964 80.28438 186.71964Q80.90938 186.21964 81.84688 186.21964Q82.53438 186.21964 83.05 186.50089Q83.58125 186.78214 83.925 187.31339Q84.26875 187.82901 84.45625 188.57901Q84.64375 189.32901 84.64375 190.61026Q84.64375 192.12589 84.33125 193.04776Q84.03438 193.96964 83.40938 194.48526Q82.8 194.98526 81.84688 194.98526Q80.6125 194.98526 79.89375 194.09464Q79.05 193.03214 79.05 190.61026ZM80.12813 190.61026Q80.12813 192.71964 80.62813 193.42276Q81.12813 194.12589 81.84688 194.12589Q82.58125 194.12589 83.06563 193.42276Q83.56563 192.71964 83.56563 190.61026Q83.56563 188.48526 83.06563 187.79776Q82.58125 187.09464 81.83125 187.09464Q81.1125 187.09464 80.675 187.70401Q80.12813 188.48526 80.12813 190.61026ZM86.05 190.61026Q86.05 189.07901 86.3625 188.15714Q86.675 187.21964 87.28438 186.71964Q87.90938 186.21964 88.84688 186.21964Q89.53438 186.21964 90.05 186.50089Q90.58125 186.78214 90.925 187.31339Q91.26875 187.82901 91.45625 188.57901Q91.64375 189.32901 91.64375 190.61026Q91.64375 192.12589 91.33125 193.04776Q91.03438 193.96964 90.40938 194.48526Q89.8 194.98526 88.84688 194.98526Q87.6125 194.98526 86.89375 194.09464Q86.05 193.03214 86.05 190.61026ZM87.12813 190.61026Q87.12813 192.71964 87.62813 193.42276Q88.12813 194.12589 88.84688 194.12589Q89.58125 194.12589 90.06563 193.42276Q90.56563 192.71964 90.56563 190.61026Q90.56563 188.48526 90.06563 187.79776Q89.58125 187.09464 88.83125 187.09464Q88.1125 187.09464 87.675 187.70401Q87.12813 188.48526 87.12813 190.61026Z" fill-rule="nonzero"/><path fill="#000000" d="M62.01875 175.42433L60.971874 175.42433L60.971874 168.70558Q60.58125 169.06496 59.95625 169.43996Q59.346874 169.79933 58.8625 169.9712L58.8625 168.95558Q59.7375 168.5337 60.39375 167.95558Q61.065624 167.36183 61.346874 166.79933L62.01875 166.79933L62.01875 175.42433ZM65.05 171.18996Q65.05 169.6587 65.3625 168.73683Q65.675 167.79933 66.28438 167.29933Q66.90938 166.79933 67.84688 166.79933Q68.53438 166.79933 69.05 167.08058Q69.58125 167.36183 69.925 167.89308Q70.26875 168.4087 70.45625 169.1587Q70.64375 169.9087 70.64375 171.18996Q70.64375 172.70558 70.33125 173.62746Q70.03438 174.54933 69.40938 175.06496Q68.8 175.56496 67.84688 175.56496Q66.6125 175.56496 65.89375 174.67433Q65.05 173.61183 65.05 171.18996ZM66.12813 171.18996Q66.12813 173.29933 66.62813 174.00246Q67.12813 174.70558 67.84688 174.70558Q68.58125 174.70558 69.06563 174.00246Q69.56563 173.29933 69.56563 171.18996Q69.56563 169.06496 69.06563 168.37746Q68.58125 167.67433 67.83125 167.67433Q67.1125 167.67433 66.675 168.2837Q66.12813 169.06496 66.12813 171.18996ZM72.05 171.18996Q72.05 169.6587 72.3625 168.73683Q72.675 167.79933 73.28438 167.29933Q73.90938 166.79933 74.84688 166.79933Q75.53438 166.79933 76.05 167.08058Q76.58125 167.36183 76.925 167.89308Q77.26875 168.4087 77.45625 169.1587Q77.64375 169.9087 77.64375 171.18996Q77.64375 172.70558 77.33125 173.62746Q77.03438 174.54933 76.40938 175.06496Q75.8 175.56496 74.84688 175.56496Q73.6125 175.56496 72.89375 174.67433Q72.05 173.61183 72.05 171.18996ZM73.12813 171.18996Q73.12813 173.29933 73.62813 174.00246Q74.12813 174.70558 74.84688 174.70558Q75.58125 174.70558 76.06563 174.00246Q76.56563 173.29933 76.56563 171.18996Q76.56563 169.06496 76.06563 168.37746Q75.58125 167.67433 74.83125 167.67433Q74.1125 167.67433 73.675 168.2837Q73.12813 169.06496 73.12813 171.18996ZM79.05 171.18996Q79.05 169.6587 79.3625 168.73683Q79.675 167.79933 80.28438 167.29933Q80.90938 166.79933 81.84688 166.79933Q82.53438 166.79933 83.05 167.08058Q83.58125 167.36183 83.925 167.89308Q84.26875 168.4087 84.45625 169.1587Q84.64375 169.9087 84.64375 171.18996Q84.64375 172.70558 84.33125 173.62746Q84.03438 174.54933 83.40938 175.06496Q82.8 175.56496 81.84688 175.56496Q80.6125 175.56496 79.89375 174.67433Q79.05 173.61183 79.05 171.18996ZM80.12813 171.18996Q80.12813 173.29933 80.62813 174.00246Q81.12813 174.70558 81.84688 174.70558Q82.58125 174.70558 83.06563 174.00246Q83.56563 173.29933 83.56563 171.18996Q83.56563 169.06496 83.06563 168.37746Q82.58125 167.67433 81.83125 167.67433Q81.1125 167.67433 80.675 168.2837Q80.12813 169.06496 80.12813 171.18996ZM86.05 171.18996Q86.05 169.6587 86.3625 168.73683Q86.675 167.79933 87.28438 167.29933Q87.90938 166.79933 88.84688 166.79933Q89.53438 166.79933 90.05 167.08058Q90.58125 167.36183 90.925 167.89308Q91.26875 168.4087 91.45625 169.1587Q91.64375 169.9087 91.64375 171.18996Q91.64375 172.70558 91.33125 173.62746Q91.03438 174.54933 90.40938 175.06496Q89.8 175.56496 88.84688 175.56496Q87.6125 175.56496 86.89375 174.67433Q86.05 173.61183 86.05 171.18996ZM87.12813 171.18996Q87.12813 173.29933 87.62813 174.00246Q88.12813 174.70558 88.84688 174.70558Q89.58125 174.70558 90.06563 174.00246Q90.56563 173.29933 90.56563 171.18996Q90.56563 169.06496 90.06563 168.37746Q89.58125 167.67433 88.83125 167.67433Q88.1125 167.67433 87.675 168.2837Q87.12813 169.06496 87.12813 171.18996Z" fill-rule="nonzero"/><path fill="#000000" d="M58.05 128.0818L59.159374 127.98805Q59.284374 128.80055 59.721874 129.2068Q60.175 129.61305 60.815624 129.61305Q61.565624 129.61305 62.096874 129.03493Q62.628124 128.4568 62.628124 127.5193Q62.628124 126.61305 62.1125 126.09743Q61.6125 125.56618 60.784374 125.56618Q60.284374 125.56618 59.8625 125.80055Q59.45625 126.03493 59.221874 126.3943L58.2375 126.2693L59.065624 121.86305L63.346874 121.86305L63.346874 122.86305L59.909374 122.86305L59.45625 125.17555Q60.221874 124.62868 61.065624 124.62868Q62.190624 124.62868 62.95625 125.40993Q63.7375 126.19118 63.7375 127.42555Q63.7375 128.5818 63.065624 129.44118Q62.2375 130.47243 60.815624 130.47243Q59.64375 130.47243 58.89375 129.81618Q58.159374 129.15993 58.05 128.0818ZM65.05 126.09743Q65.05 124.56618 65.3625 123.6443Q65.675 122.7068 66.28438 122.2068Q66.90938 121.7068 67.84688 121.7068Q68.53438 121.7068 69.05 121.98805Q69.58125 122.2693 69.925 122.80055Q70.26875 123.31618 70.45625 124.06618Q70.64375 124.81618 70.64375 126.09743Q70.64375 127.61305 70.33125 128.53493Q70.03438 129.4568 69.40938 129.97243Q68.8 130.47243 67.84688 130.47243Q66.6125 130.47243 65.89375 129.5818Q65.05 128.5193 65.05 126.09743ZM66.12813 126.09743Q66.12813 128.2068 66.62813 128.90993Q67.12813 129.61305 67.84688 129.61305Q68.58125 129.61305 69.06563 128.90993Q69.56563 128.2068 69.56563 126.09743Q69.56563 123.97243 69.06563 123.28493Q68.58125 122.5818 67.83125 122.5818Q67.1125 122.5818 66.675 123.19118Q66.12813 123.97243 66.12813 126.09743ZM72.05 126.09743Q72.05 124.56618 72.3625 123.6443Q72.675 122.7068 73.28438 122.2068Q73.90938 121.7068 74.84688 121.7068Q75.53438 121.7068 76.05 121.98805Q76.58125 122.2693 76.925 122.80055Q77.26875 123.31618 77.45625 124.06618Q77.64375 124.81618 77.64375 126.09743Q77.64375 127.61305 77.33125 128.53493Q77.03438 129.4568 76.40938 129.97243Q75.8 130.47243 74.84688 130.47243Q73.6125 130.47243 72.89375 129.5818Q72.05 128.5193 72.05 126.09743ZM73.12813 126.09743Q73.12813 128.2068 73.62813 128.90993Q74.12813 129.61305 74.84688 129.61305Q75.58125 129.61305 76.06563 128.90993Q76.56563 128.2068 76.56563 126.09743Q76.56563 123.97243 76.06563 123.28493Q75.58125 122.5818 74.83125 122.5818Q74.1125 122.5818 73.675 123.19118Q73.12813 123.97243 73.12813 126.09743ZM79.05 126.09743Q79.05 124.56618 79.3625 123.6443Q79.675 122.7068 80.28438 122.2068Q80.90938 121.7068 81.84688 121.7068Q82.53438 121.7068 83.05 121.98805Q83.58125 122.2693 83.925 122.80055Q84.26875 123.31618 84.45625 124.06618Q84.64375 124.81618 84.64375 126.09743Q84.64375 127.61305 84.33125 128.53493Q84.03438 129.4568 83.40938 129.97243Q82.8 130.47243 81.84688 130.47243Q80.6125 130.47243 79.89375 129.5818Q79.05 128.5193 79.05 126.09743ZM80.12813 126.09743Q80.12813 128.2068 80.62813 128.90993Q81.12813 129.61305 81.84688 129.61305Q82.58125 129.61305 83.06563 128.90993Q83.56563 128.2068 83.56563 126.09743Q83.56563 123.97243 83.06563 123.28493Q82.58125 122.5818 81.83125 122.5818Q81.1125 122.5818 80.675 123.19118Q80.12813 123.97243 80.12813 126.09743ZM86.05 126.09743Q86.05 124.56618 86.3625 123.6443Q86.675 122.7068 87.28438 122.2068Q87.90938 121.7068 88.84688 121.7068Q89.53438 121.7068 90.05 121.98805Q90.58125 122.2693 90.925 122.80055Q91.26875 123.31618 91.45625 124.06618Q91.64375 124.81618 91.64375 126.09743Q91.64375 127.61305 91.33125 128.53493Q91.03438 129.4568 90.40938 129.97243Q89.8 130.47243 88.84688 130.47243Q87.6125 130.47243 86.89375 129.5818Q86.05 128.5193 86.05 126.09743ZM87.12813 126.09743Q87.12813 128.2068 87.62813 128.90993Q88.12813 129.61305 88.84688 129.61305Q89.58125 129.61305 90.06563 128.90993Q90.56563 128.2068 90.56563 126.09743Q90.56563 123.97243 90.06563 123.28493Q89.58125 122.5818 88.83125 122.5818Q88.1125 122.5818 87.675 123.19118Q87.12813 123.97243 87.12813 126.09743Z" fill-rule="nonzero"/><path fill="#000000" d="M55.01875 110.91151L53.971874 110.91151L53.971874 104.19276Q53.58125 104.55213 52.95625 104.92713Q52.346874 105.28651 51.8625 105.45838L51.8625 104.44276Q52.7375 104.02088 53.39375 103.44276Q54.065624 102.84901 54.346874 102.28651L55.01875 102.28651L55.01875 110.91151ZM58.05 106.67713Q58.05 105.14588 58.3625 104.22401Q58.675 103.28651 59.284374 102.78651Q59.909374 102.28651 60.846874 102.28651Q61.534374 102.28651 62.05 102.56776Q62.58125 102.84901 62.925 103.38026Q63.26875 103.89588 63.45625 104.64588Q63.64375 105.39588 63.64375 106.67713Q63.64375 108.19276 63.33125 109.11463Q63.034374 110.03651 62.409374 110.55213Q61.8 111.05213 60.846874 111.05213Q59.6125 111.05213 58.89375 110.16151Q58.05 109.09901 58.05 106.67713ZM59.128124 106.67713Q59.128124 108.78651 59.628124 109.48963Q60.128124 110.19276 60.846874 110.19276Q61.58125 110.19276 62.065624 109.48963Q62.565624 108.78651 62.565624 106.67713Q62.565624 104.55213 62.065624 103.86463Q61.58125 103.16151 60.83125 103.16151Q60.1125 103.16151 59.675 103.77088Q59.128124 104.55213 59.128124 106.67713ZM65.05 106.67713Q65.05 105.14588 65.3625 104.22401Q65.675 103.28651 66.28438 102.78651Q66.90938 102.28651 67.84688 102.28651Q68.53438 102.28651 69.05 102.56776Q69.58125 102.84901 69.925 103.38026Q70.26875 103.89588 70.45625 104.64588Q70.64375 105.39588 70.64375 106.67713Q70.64375 108.19276 70.33125 109.11463Q70.03438 110.03651 69.40938 110.55213Q68.8 111.05213 67.84688 111.05213Q66.6125 111.05213 65.89375 110.16151Q65.05 109.09901 65.05 106.67713ZM66.12813 106.67713Q66.12813 108.78651 66.62813 109.48963Q67.12813 110.19276 67.84688 110.19276Q68.58125 110.19276 69.06563 109.48963Q69.56563 108.78651 69.56563 106.67713Q69.56563 104.55213 69.06563 103.86463Q68.58125 103.16151 67.83125 103.16151Q67.1125 103.16151 66.675 103.77088Q66.12813 104.55213 66.12813 106.67713ZM72.05 106.67713Q72.05 105.14588 72.3625 104.22401Q72.675 103.28651 73.28438 102.78651Q73.90938 102.28651 74.84688 102.28651Q75.53438 102.28651 76.05 102.56776Q76.58125 102.84901 76.925 103.38026Q77.26875 103.89588 77.45625 104.64588Q77.64375 105.39588 77.64375 106.67713Q77.64375 108.19276 77.33125 109.11463Q77.03438 110.03651 76.40938 110.55213Q75.8 111.05213 74.84688 111.05213Q73.6125 111.05213 72.89375 110.16151Q72.05 109.09901 72.05 106.67713ZM73.12813 106.67713Q73.12813 108.78651 73.62813 109.48963Q74.12813 110.19276 74.84688 110.19276Q75.58125 110.19276 76.06563 109.48963Q76.56563 108.78651 76.56563 106.67713Q76.56563 104.55213 76.06563 103.86463Q75.58125 103.16151 74.83125 103.16151Q74.1125 103.16151 73.675 103.77088Q73.12813 104.55213 73.12813 106.67713ZM79.05 106.67713Q79.05 105.14588 79.3625 104.22401Q79.675 103.28651 80.28438 102.78651Q80.90938 102.28651 81.84688 102.28651Q82.53438 102.28651 83.05 102.56776Q83.58125 102.84901 83.925 103.38026Q84.26875 103.89588 84.45625 104.64588Q84.64375 105.39588 84.64375 106.67713Q84.64375 108.19276 84.33125 109.11463Q84.03438 110.03651 83.40938 110.55213Q82.8 111.05213 81.84688 111.05213Q80.6125 111.05213 79.89375 110.16151Q79.05 109.09901 79.05 106.67713ZM80.12813 106.67713Q80.12813 108.78651 80.62813 109.48963Q81.12813 110.19276 81.84688 110.19276Q82.58125 110.19276 83.06563 109.48963Q83.56563 108.78651 83.56563 106.67713Q83.56563 104.55213 83.06563 103.86463Q82.58125 103.16151 81.83125 103.16151Q81.1125 103.16151 80.675 103.77088Q80.12813 104.55213 80.12813 106.67713ZM86.05 106.67713Q86.05 105.14588 86.3625 104.22401Q86.675 103.28651 87.28438 102.78651Q87.90938 102.28651 88.84688 102.28651Q89.53438 102.28651 90.05 102.56776Q90.58125 102.84901 90.925 103.38026Q91.26875 103.89588 91.45625 104.64588Q91.64375 105.39588 91.64375 106.67713Q91.64375 108.19276 91.33125 109.11463Q91.03438 110.03651 90.40938 110.55213Q89.8 111.05213 88.84688 111.05213Q87.6125 111.05213 86.89375 110.16151Q86.05 109.09901 86.05 106.67713ZM87.12813 106.67713Q87.12813 108.78651 87.62813 109.48963Q88.12813 110.19276 88.84688 110.19276Q89.58125 110.19276 90.06563 109.48963Q90.56563 108.78651 90.56563 106.67713Q90.56563 104.55213 90.06563 103.86463Q89.58125 103.16151 88.83125 103.16151Q88.1125 103.16151 87.675 103.77088Q87.12813 104.55213 87.12813 106.67713Z" fill-rule="nonzero"/><path fill="#000000" d="M51.05 63.56897L52.159374 63.47522Q52.284374 64.28772 52.721874 64.69397Q53.175 65.10022 53.815624 65.10022Q54.565624 65.10022 55.096874 64.522095Q55.628124 63.94397 55.628124 63.00647Q55.628124 62.10022 55.1125 61.584595Q54.6125 61.053345 53.784374 61.053345Q53.284374 61.053345 52.8625 61.28772Q52.45625 61.522095 52.221874 61.88147L51.2375 61.75647L52.065624 57.35022L56.346874 57.35022L56.346874 58.35022L52.909374 58.35022L52.45625 60.66272Q53.221874 60.115845 54.065624 60.115845Q55.190624 60.115845 55.95625 60.897095Q56.7375 61.678345 56.7375 62.91272Q56.7375 64.06897 56.065624 64.928345Q55.2375 65.959595 53.815624 65.959595Q52.64375 65.959595 51.89375 65.303345Q51.159374 64.647095 51.05 63.56897ZM58.05 61.584595Q58.05 60.053345 58.3625 59.13147Q58.675 58.19397 59.284374 57.69397Q59.909374 57.19397 60.846874 57.19397Q61.534374 57.19397 62.05 57.47522Q62.58125 57.75647 62.925 58.28772Q63.26875 58.803345 63.45625 59.553345Q63.64375 60.303345 63.64375 61.584595Q63.64375 63.10022 63.33125 64.022095Q63.034374 64.94397 62.409374 65.459595Q61.8 65.959595 60.846874 65.959595Q59.6125 65.959595 58.89375 65.06897Q58.05 64.00647 58.05 61.584595ZM59.128124 61.584595Q59.128124 63.69397 59.628124 64.397095Q60.128124 65.10022 60.846874 65.10022Q61.58125 65.10022 62.065624 64.397095Q62.565624 63.69397 62.565624 61.584595Q62.565624 59.459595 62.065624 58.772095Q61.58125 58.06897 60.83125 58.06897Q60.1125 58.06897 59.675 58.678345Q59.128124 59.459595 59.128124 61.584595ZM65.05 61.584595Q65.05 60.053345 65.3625 59.13147Q65.675 58.19397 66.28438 57.69397Q66.90938 57.19397 67.84688 57.19397Q68.53438 57.19397 69.05 57.47522Q69.58125 57.75647 69.925 58.28772Q70.26875 58.803345 70.45625 59.553345Q70.64375 60.303345 70.64375 61.584595Q70.64375 63.10022 70.33125 64.022095Q70.03438 64.94397 69.40938 65.459595Q68.8 65.959595 67.84688 65.959595Q66.6125 65.959595 65.89375 65.06897Q65.05 64.00647 65.05 61.584595ZM66.12813 61.584595Q66.12813 63.69397 66.62813 64.397095Q67.12813 65.10022 67.84688 65.10022Q68.58125 65.10022 69.06563 64.397095Q69.56563 63.69397 69.56563 61.584595Q69.56563 59.459595 69.06563 58.772095Q68.58125 58.06897 67.83125 58.06897Q67.1125 58.06897 66.675 58.678345Q66.12813 59.459595 66.12813 61.584595ZM72.05 61.584595Q72.05 60.053345 72.3625 59.13147Q72.675 58.19397 73.28438 57.69397Q73.90938 57.19397 74.84688 57.19397Q75.53438 57.19397 76.05 57.47522Q76.58125 57.75647 76.925 58.28772Q77.26875 58.803345 77.45625 59.553345Q77.64375 60.303345 77.64375 61.584595Q77.64375 63.10022 77.33125 64.022095Q77.03438 64.94397 76.40938 65.459595Q75.8 65.959595 74.84688 65.959595Q73.6125 65.959595 72.89375 65.06897Q72.05 64.00647 72.05 61.584595ZM73.12813 61.584595Q73.12813 63.69397 73.62813 64.397095Q74.12813 65.10022 74.84688 65.10022Q75.58125 65.10022 76.06563 64.397095Q76.56563 63.69397 76.56563 61.584595Q76.56563 59.459595 76.06563 58.772095Q75.58125 58.06897 74.83125 58.06897Q74.1125 58.06897 73.675 58.678345Q73.12813 59.459595 73.12813 61.584595ZM79.05 61.584595Q79.05 60.053345 79.3625 59.13147Q79.675 58.19397 80.28438 57.69397Q80.90938 57.19397 81.84688 57.19397Q82.53438 57.19397 83.05 57.47522Q83.58125 57.75647 83.925 58.28772Q84.26875 58.803345 84.45625 59.553345Q84.64375 60.303345 84.64375 61.584595Q84.64375 63.10022 84.33125 64.022095Q84.03438 64.94397 83.40938 65.459595Q82.8 65.959595 81.84688 65.959595Q80.6125 65.959595 79.89375 65.06897Q79.05 64.00647 79.05 61.584595ZM80.12813 61.584595Q80.12813 63.69397 80.62813 64.397095Q81.12813 65.10022 81.84688 65.10022Q82.58125 65.10022 83.06563 64.397095Q83.56563 63.69397 83.56563 61.584595Q83.56563 59.459595 83.06563 58.772095Q82.58125 58.06897 81.83125 58.06897Q81.1125 58.06897 80.675 58.678345Q80.12813 59.459595 80.12813 61.584595ZM86.05 61.584595Q86.05 60.053345 86.3625 59.13147Q86.675 58.19397 87.28438 57.69397Q87.90938 57.19397 88.84688 57.19397Q89.53438 57.19397 90.05 57.47522Q90.58125 57.75647 90.925 58.28772Q91.26875 58.803345 91.45625 59.553345Q91.64375 60.303345 91.64375 61.584595Q91.64375 63.10022 91.33125 64.022095Q91.03438 64.94397 90.40938 65.459595Q89.8 65.959595 88.84688 65.959595Q87.6125 65.959595 86.89375 65.06897Q86.05 64.00647 86.05 61.584595ZM87.12813 61.584595Q87.12813 63.69397 87.62813 64.397095Q88.12813 65.10022 88.84688 65.10022Q89.58125 65.10022 90.06563 64.397095Q90.56563 63.69397 90.56563 61.584595Q90.56563 59.459595 90.06563 58.772095Q89.58125 58.06897 88.83125 58.06897Q88.1125 58.06897 87.675 58.678345Q87.12813 59.459595 87.12813 61.584595Z" fill-rule="nonzero"/><path fill="#000000" d="M146.8819 313.21564Q146.8819 311.6844 147.1944 310.7625Q147.5069 309.825 148.11627 309.325Q148.74127 308.825 149.67877 308.825Q150.36627 308.825 150.8819 309.10626Q151.41315 309.3875 151.7569 309.91876Q152.10065 310.4344 152.28815 311.1844Q152.47565 311.9344 152.47565 313.21564Q152.47565 314.73126 152.16315 315.65314Q151.86627 316.575 151.24127 317.09064Q150.6319 317.59064 149.67877 317.59064Q148.4444 317.59064 147.72565 316.7Q146.8819 315.6375 146.8819 313.21564ZM147.96002 313.21564Q147.96002 315.325 148.46002 316.02814Q148.96002 316.73126 149.67877 316.73126Q150.41315 316.73126 150.89752 316.02814Q151.39752 315.325 151.39752 313.21564Q151.39752 311.09064 150.89752 310.40314Q150.41315 309.7 149.66315 309.7Q148.9444 309.7 148.5069 310.3094Q147.96002 311.09064 147.96002 313.21564Z" fill-rule="nonzero"/><path fill="#000000" d="M223.39789 317.45L222.35101 317.45L222.35101 310.73126Q221.96039 311.09064 221.33539 311.46564Q220.72601 311.825 220.24164 311.9969L220.24164 310.98126Q221.11664 310.5594 221.77289 309.98126Q222.44476 309.3875 222.72601 308.825L223.39789 308.825L223.39789 317.45ZM226.42914 313.21564Q226.42914 311.6844 226.74164 310.7625Q227.05414 309.825 227.66351 309.325Q228.28851 308.825 229.22601 308.825Q229.91351 308.825 230.42914 309.10626Q230.96039 309.3875 231.30414 309.91876Q231.64789 310.4344 231.83539 311.1844Q232.02289 311.9344 232.02289 313.21564Q232.02289 314.73126 231.71039 315.65314Q231.41351 316.575 230.78851 317.09064Q230.17914 317.59064 229.22601 317.59064Q227.99164 317.59064 227.27289 316.7Q226.42914 315.6375 226.42914 313.21564ZM227.50726 313.21564Q227.50726 315.325 228.00726 316.02814Q228.50726 316.73126 229.22601 316.73126Q229.96039 316.73126 230.44476 316.02814Q230.94476 315.325 230.94476 313.21564Q230.94476 311.09064 230.44476 310.40314Q229.96039 309.7 229.21039 309.7Q228.49164 309.7 228.05414 310.3094Q227.50726 311.09064 227.50726 313.21564Z" fill-rule="nonzero"/><path fill="#000000" d="M295.94513 317.45L294.89825 317.45L294.89825 310.73126Q294.50763 311.09064 293.88263 311.46564Q293.27325 311.825 292.78888 311.9969L292.78888 310.98126Q293.66388 310.5594 294.32013 309.98126Q294.992 309.3875 295.27325 308.825L295.94513 308.825L295.94513 317.45ZM298.97638 313.21564Q298.97638 311.6844 299.28888 310.7625Q299.60138 309.825 300.21075 309.325Q300.83575 308.825 301.77325 308.825Q302.46075 308.825 302.97638 309.10626Q303.50763 309.3875 303.85138 309.91876Q304.19513 310.4344 304.38263 311.1844Q304.57013 311.9344 304.57013 313.21564Q304.57013 314.73126 304.25763 315.65314Q303.96075 316.575 303.33575 317.09064Q302.72638 317.59064 301.77325 317.59064Q300.53888 317.59064 299.82013 316.7Q298.97638 315.6375 298.97638 313.21564ZM300.0545 313.21564Q300.0545 315.325 300.5545 316.02814Q301.0545 316.73126 301.77325 316.73126Q302.50763 316.73126 302.992 316.02814Q303.492 315.325 303.492 313.21564Q303.492 311.09064 302.992 310.40314Q302.50763 309.7 301.75763 309.7Q301.03888 309.7 300.60138 310.3094Q300.0545 311.09064 300.0545 313.21564ZM305.97638 313.21564Q305.97638 311.6844 306.28888 310.7625Q306.60138 309.825 307.21075 309.325Q307.83575 308.825 308.77325 308.825Q309.46075 308.825 309.97638 309.10626Q310.50763 309.3875 310.85138 309.91876Q311.19513 310.4344 311.38263 311.1844Q311.57013 311.9344 311.57013 313.21564Q311.57013 314.73126 311.25763 315.65314Q310.96075 316.575 310.33575 317.09064Q309.72638 317.59064 308.77325 317.59064Q307.53888 317.59064 306.82013 316.7Q305.97638 315.6375 305.97638 313.21564ZM307.0545 313.21564Q307.0545 315.325 307.5545 316.02814Q308.0545 316.73126 308.77325 316.73126Q309.50763 316.73126 309.992 316.02814Q310.492 315.325 310.492 313.21564Q310.492 311.09064 309.992 310.40314Q309.50763 309.7 308.75763 309.7Q308.03888 309.7 307.60138 310.3094Q307.0545 311.09064 307.0545 313.21564Z" fill-rule="nonzero"/><path fill="#000000" d="M368.49237 317.45L367.4455 317.45L367.4455 310.73126Q367.05487 311.09064 366.42987 311.46564Q365.8205 311.825 365.33612 311.9969L365.33612 310.98126Q366.21112 310.5594 366.86737 309.98126Q367.53925 309.3875 367.8205 308.825L368.49237 308.825L368.49237 317.45ZM371.52362 313.21564Q371.52362 311.6844 371.83612 310.7625Q372.14862 309.825 372.758 309.325Q373.383 308.825 374.3205 308.825Q375.008 308.825 375.52362 309.10626Q376.05487 309.3875 376.39862 309.91876Q376.74237 310.4344 376.92987 311.1844Q377.11737 311.9344 377.11737 313.21564Q377.11737 314.73126 376.80487 315.65314Q376.508 316.575 375.883 317.09064Q375.27362 317.59064 374.3205 317.59064Q373.08612 317.59064 372.36737 316.7Q371.52362 315.6375 371.52362 313.21564ZM372.60175 313.21564Q372.60175 315.325 373.10175 316.02814Q373.60175 316.73126 374.3205 316.73126Q375.05487 316.73126 375.53925 316.02814Q376.03925 315.325 376.03925 313.21564Q376.03925 311.09064 375.53925 310.40314Q375.05487 309.7 374.30487 309.7Q373.58612 309.7 373.14862 310.3094Q372.60175 311.09064 372.60175 313.21564ZM378.52362 313.21564Q378.52362 311.6844 378.83612 310.7625Q379.14862 309.825 379.758 309.325Q380.383 308.825 381.3205 308.825Q382.008 308.825 382.52362 309.10626Q383.05487 309.3875 383.39862 309.91876Q383.74237 310.4344 383.92987 311.1844Q384.11737 311.9344 384.11737 313.21564Q384.11737 314.73126 383.80487 315.65314Q383.508 316.575 382.883 317.09064Q382.27362 317.59064 381.3205 317.59064Q380.08612 317.59064 379.36737 316.7Q378.52362 315.6375 378.52362 313.21564ZM379.60175 313.21564Q379.60175 315.325 380.10175 316.02814Q380.60175 316.73126 381.3205 316.73126Q382.05487 316.73126 382.53925 316.02814Q383.03925 315.325 383.03925 313.21564Q383.03925 311.09064 382.53925 310.40314Q382.05487 309.7 381.30487 309.7Q380.58612 309.7 380.14862 310.3094Q379.60175 311.09064 379.60175 313.21564ZM385.52362 313.21564Q385.52362 311.6844 385.83612 310.7625Q386.14862 309.825 386.758 309.325Q387.383 308.825 388.3205 308.825Q389.008 308.825 389.52362 309.10626Q390.05487 309.3875 390.39862 309.91876Q390.74237 310.4344 390.92987 311.1844Q391.11737 311.9344 391.11737 313.21564Q391.11737 314.73126 390.80487 315.65314Q390.508 316.575 389.883 317.09064Q389.27362 317.59064 388.3205 317.59064Q387.08612 317.59064 386.36737 316.7Q385.52362 315.6375 385.52362 313.21564ZM386.60175 313.21564Q386.60175 315.325 387.10175 316.02814Q387.60175 316.73126 388.3205 316.73126Q389.05487 316.73126 389.53925 316.02814Q390.03925 315.325 390.03925 313.21564Q390.03925 311.09064 389.53925 310.40314Q389.05487 309.7 388.30487 309.7Q387.58612 309.7 387.14862 310.3094Q386.60175 311.09064 386.60175 313.21564Z" fill-rule="nonzero"/><path fill="#000000" d="M441.0396 317.45L439.99274 317.45L439.99274 310.73126Q439.6021 311.09064 438.9771 311.46564Q438.36774 311.825 437.88336 311.9969L437.88336 310.98126Q438.75836 310.5594 439.4146 309.98126Q440.0865 309.3875 440.36774 308.825L441.0396 308.825L441.0396 317.45ZM444.07086 313.21564Q444.07086 311.6844 444.38336 310.7625Q444.69586 309.825 445.30524 309.325Q445.93024 308.825 446.86774 308.825Q447.55524 308.825 448.07086 309.10626Q448.6021 309.3875 448.94586 309.91876Q449.2896 310.4344 449.4771 311.1844Q449.6646 311.9344 449.6646 313.21564Q449.6646 314.73126 449.3521 315.65314Q449.05524 316.575 448.43024 317.09064Q447.82086 317.59064 446.86774 317.59064Q445.63336 317.59064 444.9146 316.7Q444.07086 315.6375 444.07086 313.21564ZM445.149 313.21564Q445.149 315.325 445.649 316.02814Q446.149 316.73126 446.86774 316.73126Q447.6021 316.73126 448.0865 316.02814Q448.5865 315.325 448.5865 313.21564Q448.5865 311.09064 448.0865 310.40314Q447.6021 309.7 446.8521 309.7Q446.13336 309.7 445.69586 310.3094Q445.149 311.09064 445.149 313.21564ZM451.07086 313.21564Q451.07086 311.6844 451.38336 310.7625Q451.69586 309.825 452.30524 309.325Q452.93024 308.825 453.86774 308.825Q454.55524 308.825 455.07086 309.10626Q455.6021 309.3875 455.94586 309.91876Q456.2896 310.4344 456.4771 311.1844Q456.6646 311.9344 456.6646 313.21564Q456.6646 314.73126 456.3521 315.65314Q456.05524 316.575 455.43024 317.09064Q454.82086 317.59064 453.86774 317.59064Q452.63336 317.59064 451.9146 316.7Q451.07086 315.6375 451.07086 313.21564ZM452.149 313.21564Q452.149 315.325 452.649 316.02814Q453.149 316.73126 453.86774 316.73126Q454.6021 316.73126 455.0865 316.02814Q455.5865 315.325 455.5865 313.21564Q455.5865 311.09064 455.0865 310.40314Q454.6021 309.7 453.8521 309.7Q453.13336 309.7 452.69586 310.3094Q452.149 311.09064 452.149 313.21564ZM458.07086 313.21564Q458.07086 311.6844 458.38336 310.7625Q458.69586 309.825 459.30524 309.325Q459.93024 308.825 460.86774 308.825Q461.55524 308.825 462.07086 309.10626Q462.6021 309.3875 462.94586 309.91876Q463.2896 310.4344 463.4771 311.1844Q463.6646 311.9344 463.6646 313.21564Q463.6646 314.73126 463.3521 315.65314Q463.05524 316.575 462.43024 317.09064Q461.82086 317.59064 460.86774 317.59064Q459.63336 317.59064 458.9146 316.7Q458.07086 315.6375 458.07086 313.21564ZM459.149 313.21564Q459.149 315.325 459.649 316.02814Q460.149 316.73126 460.86774 316.73126Q461.6021 316.73126 462.0865 316.02814Q462.5865 315.325 462.5865 313.21564Q462.5865 311.09064 462.0865 310.40314Q461.6021 309.7 460.8521 309.7Q460.13336 309.7 459.69586 310.3094Q459.149 311.09064 459.149 313.21564ZM465.07086 313.21564Q465.07086 311.6844 465.38336 310.7625Q465.69586 309.825 466.30524 309.325Q466.93024 308.825 467.86774 308.825Q468.55524 308.825 469.07086 309.10626Q469.6021 309.3875 469.94586 309.91876Q470.2896 310.4344 470.4771 311.1844Q470.6646 311.9344 470.6646 313.21564Q470.6646 314.73126 470.3521 315.65314Q470.05524 316.575 469.43024 317.09064Q468.82086 317.59064 467.86774 317.59064Q466.63336 317.59064 465.9146 316.7Q465.07086 315.6375 465.07086 313.21564ZM466.149 313.21564Q466.149 315.325 466.649 316.02814Q467.149 316.73126 467.86774 316.73126Q468.6021 316.73126 469.0865 316.02814Q469.5865 315.325 469.5865 313.21564Q469.5865 311.09064 469.0865 310.40314Q468.6021 309.7 467.8521 309.7Q467.13336 309.7 466.69586 310.3094Q466.149 311.09064 466.149 313.21564Z" fill-rule="nonzero"/><path fill="#000000" d="M506.53998 317.45L506.53998 308.85626L507.69623 308.85626L512.21185 315.60626L512.21185 308.85626L513.3056 308.85626L513.3056 317.45L512.1337 317.45L507.6181 310.7L507.6181 317.45L506.53998 317.45ZM515.02435 314.34064Q515.02435 312.60626 515.9775 311.77814Q516.77435 311.09064 517.9306 311.09064Q519.21185 311.09064 520.02435 311.9344Q520.8525 312.7625 520.8525 314.2469Q520.8525 315.45 520.4931 316.1375Q520.1337 316.825 519.4306 317.21564Q518.7431 317.59064 517.9306 317.59064Q516.6337 317.59064 515.8212 316.7625Q515.02435 315.91876 515.02435 314.34064ZM516.1025 314.34064Q516.1025 315.52814 516.6181 316.1219Q517.14935 316.71564 517.9306 316.71564Q518.7275 316.71564 519.2431 316.1219Q519.7587 315.52814 519.7587 314.3094Q519.7587 313.15314 519.2275 312.5594Q518.71185 311.96564 517.9306 311.96564Q517.14935 311.96564 516.6181 312.5594Q516.1025 313.1375 516.1025 314.34064ZM525.415 310.075L525.415 308.85626L526.4775 308.85626L526.4775 310.075L525.415 310.075ZM525.415 317.45L525.415 311.23126L526.4775 311.23126L526.4775 317.45L525.415 317.45ZM528.415 317.45L528.415 311.23126L529.3525 311.23126L529.3525 312.10626Q530.04 311.09064 531.33685 311.09064Q531.89935 311.09064 532.3681 311.29376Q532.8525 311.4969 533.08685 311.825Q533.3212 312.15314 533.415 312.59064Q533.46185 312.8875 533.46185 313.6219L533.46185 317.45L532.415 317.45L532.415 313.66876Q532.415 313.0125 532.29 312.7Q532.165 312.3875 531.8525 312.2Q531.54 311.9969 531.1181 311.9969Q530.4462 311.9969 529.9462 312.4344Q529.46185 312.85626 529.46185 314.04376L529.46185 317.45L528.415 317.45ZM539.4462 317.45L539.4462 316.66876Q538.8525 317.59064 537.71185 317.59064Q536.96185 317.59064 536.33685 317.1844Q535.71185 316.7625 535.3681 316.02814Q535.02435 315.29376 535.02435 314.34064Q535.02435 313.41876 535.33685 312.65314Q535.64935 311.8875 536.27435 311.4969Q536.89935 311.09064 537.665 311.09064Q538.2275 311.09064 538.665 311.325Q539.1025 311.5594 539.3837 311.9344L539.3837 308.85626L540.4306 308.85626L540.4306 317.45L539.4462 317.45ZM536.1181 314.34064Q536.1181 315.54376 536.6181 316.1375Q537.1181 316.71564 537.8056 316.71564Q538.4931 316.71564 538.9775 316.15314Q539.46185 315.59064 539.46185 314.4344Q539.46185 313.15314 538.96185 312.5594Q538.4775 311.96564 537.7587 311.96564Q537.0556 311.96564 536.58685 312.54376Q536.1181 313.10626 536.1181 314.34064ZM546.665 315.45L547.7587 315.575Q547.5087 316.52814 546.8056 317.0594Q546.1025 317.59064 545.02435 317.59064Q543.665 317.59064 542.8525 316.7469Q542.0556 315.90314 542.0556 314.3875Q542.0556 312.825 542.8681 311.96564Q543.6806 311.09064 544.96185 311.09064Q546.21185 311.09064 546.9931 311.9344Q547.79 312.77814 547.79 314.325Q547.79 314.41876 547.79 314.60626L543.14935 314.60626Q543.21185 315.6375 543.7275 316.1844Q544.2431 316.71564 545.02435 316.71564Q545.6025 316.71564 546.0087 316.41876Q546.4306 316.10626 546.665 315.45ZM543.21185 313.7469L546.6806 313.7469Q546.6181 312.95 546.29 312.5594Q545.77435 311.95 544.9775 311.95Q544.2431 311.95 543.7431 312.4344Q543.2587 312.91876 543.21185 313.7469ZM548.71185 317.45L550.9775 314.21564L548.8837 311.23126L550.1962 311.23126L551.14935 312.6844Q551.415 313.10626 551.58685 313.3875Q551.83685 312.9969 552.0556 312.7L553.1025 311.23126L554.3681 311.23126L552.21185 314.15314L554.52435 317.45L553.2431 317.45L551.96185 315.5125L551.6181 314.9969L549.9775 317.45L548.71185 317.45Z" fill-rule="nonzero"/><path fill="#4285f4" d="M194.5 20.55C194.5 19.997715 194.94771 19.55 195.5 19.55L205.5 19.55C206.05229 19.55 206.5 19.997715 206.5 20.55L206.5 30.55C206.5 31.102285 206.05229 31.55 205.5 31.55L195.5 31.55C194.94771 31.55 194.5 31.102285 194.5 30.55Z" fill-rule="nonzero"/><path fill="#1a1a1a" d="M215.42188 29.55L215.42188 20.95625L218.67188 20.95625Q219.51562 20.95625 219.96875 21.034374Q220.60938 21.14375 221.03125 21.440624Q221.46875 21.7375 221.71875 22.26875Q221.98438 22.8 221.98438 23.440624Q221.98438 24.534374 221.28125 25.3Q220.59375 26.05 218.76562 26.05L216.5625 26.05L216.5625 29.55L215.42188 29.55ZM216.5625 25.05L218.78125 25.05Q219.89062 25.05 220.34375 24.64375Q220.8125 24.221874 220.8125 23.471874Q220.8125 22.940624 220.53125 22.565624Q220.26562 22.175 219.82812 22.05Q219.53125 21.971874 218.76562 21.971874L216.5625 21.971874L216.5625 25.05ZM223.26562 29.55L223.26562 20.95625L224.32812 20.95625L224.32812 29.55L223.26562 29.55ZM230.35938 28.784374Q229.76562 29.284374 229.21875 29.4875Q228.6875 29.690624 228.0625 29.690624Q227.03125 29.690624 226.48438 29.190624Q225.9375 28.690624 225.9375 27.909374Q225.9375 27.45625 226.14062 27.08125Q226.34375 26.690624 226.6875 26.471874Q227.03125 26.2375 227.45312 26.128124Q227.75 26.034374 228.39062 25.95625Q229.65625 25.815624 230.26562 25.596874Q230.26562 25.378124 230.26562 25.33125Q230.26562 24.675 229.96875 24.409374Q229.5625 24.065624 228.76562 24.065624Q228.03125 24.065624 227.67188 24.33125Q227.3125 24.58125 227.14062 25.2375L226.10938 25.096874Q226.25 24.440624 226.57812 24.034374Q226.90625 23.628124 227.51562 23.409374Q228.125 23.190624 228.92188 23.190624Q229.71875 23.190624 230.21875 23.378124Q230.71875 23.565624 230.95312 23.846874Q231.1875 24.128124 231.28125 24.565624Q231.32812 24.83125 231.32812 25.534374L231.32812 26.940624Q231.32812 28.409374 231.39062 28.8Q231.46875 29.190624 231.67188 29.55L230.5625 29.55Q230.40625 29.221874 230.35938 28.784374ZM230.26562 26.425Q229.6875 26.659374 228.54688 26.83125Q227.89062 26.925 227.625 27.05Q227.35938 27.159374 227.20312 27.378124Q227.0625 27.596874 227.0625 27.878124Q227.0625 28.3 227.375 28.58125Q227.70312 28.8625 228.3125 28.8625Q228.92188 28.8625 229.39062 28.596874Q229.875 28.33125 230.09375 27.8625Q230.26562 27.503124 230.26562 26.815624L230.26562 26.425ZM233.29688 29.55L233.29688 23.33125L234.23438 23.33125L234.23438 24.20625Q234.92188 23.190624 236.21875 23.190624Q236.78125 23.190624 237.25 23.39375Q237.73438 23.596874 237.96875 23.925Q238.20312 24.253124 238.29688 24.690624Q238.34375 24.9875 238.34375 25.721874L238.34375 29.55L237.29688 29.55L237.29688 25.76875Q237.29688 25.1125 237.17188 24.8Q237.04688 24.4875 236.73438 24.3Q236.42188 24.096874 236.0 24.096874Q235.32812 24.096874 234.82812 24.534374Q234.34375 24.95625 234.34375 26.14375L234.34375 29.55L233.29688 29.55ZM240.29688 29.55L240.29688 23.33125L241.23438 23.33125L241.23438 24.20625Q241.92188 23.190624 243.21875 23.190624Q243.78125 23.190624 244.25 23.39375Q244.73438 23.596874 244.96875 23.925Q245.20312 24.253124 245.29688 24.690624Q245.34375 24.9875 245.34375 25.721874L245.34375 29.55L244.29688 29.55L244.29688 25.76875Q244.29688 25.1125 244.17188 24.8Q244.04688 24.4875 243.73438 24.3Q243.42188 24.096874 243.0 24.096874Q242.32812 24.096874 241.82812 24.534374Q241.34375 24.95625 241.34375 26.14375L241.34375 29.55L240.29688 29.55ZM247.29688 22.175L247.29688 20.95625L248.35938 20.95625L248.35938 22.175L247.29688 22.175ZM247.29688 29.55L247.29688 23.33125L248.35938 23.33125L248.35938 29.55L247.29688 29.55ZM250.29688 29.55L250.29688 23.33125L251.23438 23.33125L251.23438 24.20625Q251.92188 23.190624 253.21875 23.190624Q253.78125 23.190624 254.25 23.39375Q254.73438 23.596874 254.96875 23.925Q255.20312 24.253124 255.29688 24.690624Q255.34375 24.9875 255.34375 25.721874L255.34375 29.55L254.29688 29.55L254.29688 25.76875Q254.29688 25.1125 254.17188 24.8Q254.04688 24.4875 253.73438 24.3Q253.42188 24.096874 253.0 24.096874Q252.32812 24.096874 251.82812 24.534374Q251.34375 24.95625 251.34375 26.14375L251.34375 29.55L250.29688 29.55ZM257.09375 30.065624L258.125 30.221874Q258.1875 30.690624 258.48438 30.909374Q258.875 31.20625 259.54688 31.20625Q260.28125 31.20625 260.67188 30.909374Q261.07812 30.6125 261.21875 30.096874Q261.3125 29.76875 261.29688 28.7375Q260.60938 29.55 259.57812 29.55Q258.29688 29.55 257.59375 28.628124Q256.89062 27.690624 256.89062 26.409374Q256.89062 25.51875 257.20312 24.76875Q257.53125 24.003124 258.14062 23.596874Q258.75 23.190624 259.57812 23.190624Q260.6875 23.190624 261.40625 24.08125L261.40625 23.33125L262.375 23.33125L262.375 28.70625Q262.375 30.159374 262.07812 30.76875Q261.78125 31.378124 261.14062 31.721874Q260.5 32.08125 259.5625 32.08125Q258.45312 32.08125 257.76562 31.58125Q257.07812 31.08125 257.09375 30.065624ZM257.96875 26.33125Q257.96875 27.55 258.45312 28.1125Q258.9375 28.675 259.67188 28.675Q260.40625 28.675 260.89062 28.1125Q261.39062 27.55 261.39062 26.3625Q261.39062 25.221874 260.875 24.64375Q260.375 24.065624 259.65625 24.065624Q258.95312 24.065624 258.45312 24.64375Q257.96875 25.20625 257.96875 26.33125ZM269.59375 28.6125L269.75 29.534374Q269.29688 29.628124 268.95312 29.628124Q268.375 29.628124 268.0625 29.45625Q267.75 29.26875 267.60938 28.971874Q267.48438 28.675 267.48438 27.721874L267.48438 24.14375L266.71875 24.14375L266.71875 23.33125L267.48438 23.33125L267.48438 21.784374L268.53125 21.159374L268.53125 23.33125L269.59375 23.33125L269.59375 24.14375L268.53125 24.14375L268.53125 27.784374Q268.53125 28.2375 268.57812 28.3625Q268.64062 28.4875 268.76562 28.565624Q268.89062 28.64375 269.125 28.64375Q269.3125 28.64375 269.59375 28.6125ZM270.29688 22.175L270.29688 20.95625L271.35938 20.95625L271.35938 22.175L270.29688 22.175ZM270.29688 29.55L270.29688 23.33125L271.35938 23.33125L271.35938 29.55L270.29688 29.55ZM273.29688 29.55L273.29688 23.33125L274.23438 23.33125L274.23438 24.20625Q274.53125 23.7375 275.01562 23.471874Q275.5 23.190624 276.125 23.190624Q276.8125 23.190624 277.25 23.471874Q277.70312 23.753124 277.875 24.26875Q278.625 23.190624 279.79688 23.190624Q280.73438 23.190624 281.21875 23.70625Q281.71875 24.20625 281.71875 25.284374L281.71875 29.55L280.67188 29.55L280.67188 25.628124Q280.67188 25.003124 280.5625 24.721874Q280.46875 24.440624 280.20312 24.26875Q279.9375 24.096874 279.5625 24.096874Q278.90625 24.096874 278.46875 24.534374Q278.04688 24.971874 278.04688 25.940624L278.04688 29.55L276.98438 29.55L276.98438 25.503124Q276.98438 24.8 276.71875 24.45625Q276.46875 24.096874 275.89062 24.096874Q275.4375 24.096874 275.0625 24.33125Q274.6875 24.565624 274.51562 25.01875Q274.34375 25.471874 274.34375 26.315624L274.34375 29.55L273.29688 29.55ZM287.54688 27.55L288.64062 27.675Q288.39062 28.628124 287.6875 29.159374Q286.98438 29.690624 285.90625 29.690624Q284.54688 29.690624 283.73438 28.846874Q282.9375 28.003124 282.9375 26.4875Q282.9375 24.925 283.75 24.065624Q284.5625 23.190624 285.84375 23.190624Q287.09375 23.190624 287.875 24.034374Q288.67188 24.878124 288.67188 26.425Q288.67188 26.51875 288.67188 26.70625L284.03125 26.70625Q284.09375 27.7375 284.60938 28.284374Q285.125 28.815624 285.90625 28.815624Q286.48438 28.815624 286.89062 28.51875Q287.3125 28.20625 287.54688 27.55ZM284.09375 25.846874L287.5625 25.846874Q287.5 25.05 287.17188 24.659374Q286.65625 24.05 285.85938 24.05Q285.125 24.05 284.625 24.534374Q284.14062 25.01875 284.09375 25.846874Z" fill-rule="nonzero"/><path fill="#ea4335" d="M305.5 20.55C305.5 19.997715 305.94772 19.55 306.5 19.55L316.5 19.55C317.05228 19.55 317.5 19.997715 317.5 20.55L317.5 30.55C317.5 31.102285 317.05228 31.55 316.5 31.55L306.5 31.55C305.94772 31.55 305.5 31.102285 305.5 30.55Z" fill-rule="nonzero"/><path fill="#1a1a1a" d="M326.45312 29.55L326.45312 20.95625L332.65625 20.95625L332.65625 21.971874L327.59375 21.971874L327.59375 24.596874L332.34375 24.596874L332.34375 25.6125L327.59375 25.6125L327.59375 28.534374L332.85938 28.534374L332.85938 29.55L326.45312 29.55ZM333.59375 29.55L335.85938 26.315624L333.76562 23.33125L335.07812 23.33125L336.03125 24.784374Q336.29688 25.20625 336.46875 25.4875Q336.71875 25.096874 336.9375 24.8L337.98438 23.33125L339.25 23.33125L337.09375 26.253124L339.40625 29.55L338.125 29.55L336.84375 27.6125L336.5 27.096874L334.85938 29.55L333.59375 29.55ZM344.54688 27.55L345.64062 27.675Q345.39062 28.628124 344.6875 29.159374Q343.98438 29.690624 342.90625 29.690624Q341.54688 29.690624 340.73438 28.846874Q339.9375 28.003124 339.9375 26.4875Q339.9375 24.925 340.75 24.065624Q341.5625 23.190624 342.84375 23.190624Q344.09375 23.190624 344.875 24.034374Q345.67188 24.878124 345.67188 26.425Q345.67188 26.51875 345.67188 26.70625L341.03125 26.70625Q341.09375 27.7375 341.60938 28.284374Q342.125 28.815624 342.90625 28.815624Q343.48438 28.815624 343.89062 28.51875Q344.3125 28.20625 344.54688 27.55ZM341.09375 25.846874L344.5625 25.846874Q344.5 25.05 344.17188 24.659374Q343.65625 24.05 342.85938 24.05Q342.125 24.05 341.625 24.534374Q341.14062 25.01875 341.09375 25.846874ZM351.35938 27.26875L352.39062 27.409374Q352.21875 28.471874 351.51562 29.08125Q350.8125 29.690624 349.79688 29.690624Q348.51562 29.690624 347.73438 28.8625Q346.96875 28.01875 346.96875 26.45625Q346.96875 25.45625 347.29688 24.70625Q347.64062 23.940624 348.3125 23.565624Q349.0 23.190624 349.8125 23.190624Q350.8125 23.190624 351.45312 23.70625Q352.10938 24.20625 352.29688 25.159374L351.26562 25.315624Q351.125 24.690624 350.75 24.378124Q350.375 24.05 349.84375 24.05Q349.04688 24.05 348.54688 24.628124Q348.04688 25.190624 348.04688 26.425Q348.04688 27.690624 348.53125 28.253124Q349.01562 28.815624 349.78125 28.815624Q350.40625 28.815624 350.8125 28.440624Q351.23438 28.065624 351.35938 27.26875ZM357.375 29.55L357.375 28.628124Q356.64062 29.690624 355.39062 29.690624Q354.84375 29.690624 354.35938 29.4875Q353.89062 29.26875 353.65625 28.95625Q353.42188 28.628124 353.32812 28.159374Q353.26562 27.8625 353.26562 27.175L353.26562 23.33125L354.32812 23.33125L354.32812 26.784374Q354.32812 27.596874 354.39062 27.89375Q354.48438 28.3 354.79688 28.55Q355.125 28.784374 355.60938 28.784374Q356.07812 28.784374 356.48438 28.55Q356.90625 28.3 357.07812 27.878124Q357.26562 27.45625 357.26562 26.659374L357.26562 23.33125L358.3125 23.33125L358.3125 29.55L357.375 29.55ZM362.59375 28.6125L362.75 29.534374Q362.29688 29.628124 361.95312 29.628124Q361.375 29.628124 361.0625 29.45625Q360.75 29.26875 360.60938 28.971874Q360.48438 28.675 360.48438 27.721874L360.48438 24.14375L359.71875 24.14375L359.71875 23.33125L360.48438 23.33125L360.48438 21.784374L361.53125 21.159374L361.53125 23.33125L362.59375 23.33125L362.59375 24.14375L361.53125 24.14375L361.53125 27.784374Q361.53125 28.2375 361.57812 28.3625Q361.64062 28.4875 361.76562 28.565624Q361.89062 28.64375 362.125 28.64375Q362.3125 28.64375 362.59375 28.6125ZM363.29688 22.175L363.29688 20.95625L364.35938 20.95625L364.35938 22.175L363.29688 22.175ZM363.29688 29.55L363.29688 23.33125L364.35938 23.33125L364.35938 29.55L363.29688 29.55ZM365.90625 26.440624Q365.90625 24.70625 366.85938 23.878124Q367.65625 23.190624 368.8125 23.190624Q370.09375 23.190624 370.90625 24.034374Q371.73438 24.8625 371.73438 26.346874Q371.73438 27.55 371.375 28.2375Q371.01562 28.925 370.3125 29.315624Q369.625 29.690624 368.8125 29.690624Q367.51562 29.690624 366.70312 28.8625Q365.90625 28.01875 365.90625 26.440624ZM366.98438 26.440624Q366.98438 27.628124 367.5 28.221874Q368.03125 28.815624 368.8125 28.815624Q369.60938 28.815624 370.125 28.221874Q370.64062 27.628124 370.64062 26.409374Q370.64062 25.253124 370.10938 24.659374Q369.59375 24.065624 368.8125 24.065624Q368.03125 24.065624 367.5 24.659374Q366.98438 25.2375 366.98438 26.440624ZM373.29688 29.55L373.29688 23.33125L374.23438 23.33125L374.23438 24.20625Q374.92188 23.190624 376.21875 23.190624Q376.78125 23.190624 377.25 23.39375Q377.73438 23.596874 377.96875 23.925Q378.20312 24.253124 378.29688 24.690624Q378.34375 24.9875 378.34375 25.721874L378.34375 29.55L377.29688 29.55L377.29688 25.76875Q377.29688 25.1125 377.17188 24.8Q377.04688 24.4875 376.73438 24.3Q376.42188 24.096874 376.0 24.096874Q375.32812 24.096874 374.82812 24.534374Q374.34375 24.95625 374.34375 26.14375L374.34375 29.55L373.29688 29.55ZM385.59375 28.6125L385.75 29.534374Q385.29688 29.628124 384.95312 29.628124Q384.375 29.628124 384.0625 29.45625Q383.75 29.26875 383.60938 28.971874Q383.48438 28.675 383.48438 27.721874L383.48438 24.14375L382.71875 24.14375L382.71875 23.33125L383.48438 23.33125L383.48438 21.784374L384.53125 21.159374L384.53125 23.33125L385.59375 23.33125L385.59375 24.14375L384.53125 24.14375L384.53125 27.784374Q384.53125 28.2375 384.57812 28.3625Q384.64062 28.4875 384.76562 28.565624Q384.89062 28.64375 385.125 28.64375Q385.3125 28.64375 385.59375 28.6125ZM386.29688 22.175L386.29688 20.95625L387.35938 20.95625L387.35938 22.175L386.29688 22.175ZM386.29688 29.55L386.29688 23.33125L387.35938 23.33125L387.35938 29.55L386.29688 29.55ZM389.29688 29.55L389.29688 23.33125L390.23438 23.33125L390.23438 24.20625Q390.53125 23.7375 391.01562 23.471874Q391.5 23.190624 392.125 23.190624Q392.8125 23.190624 393.25 23.471874Q393.70312 23.753124 393.875 24.26875Q394.625 23.190624 395.79688 23.190624Q396.73438 23.190624 397.21875 23.70625Q397.71875 24.20625 397.71875 25.284374L397.71875 29.55L396.67188 29.55L396.67188 25.628124Q396.67188 25.003124 396.5625 24.721874Q396.46875 24.440624 396.20312 24.26875Q395.9375 24.096874 395.5625 24.096874Q394.90625 24.096874 394.46875 24.534374Q394.04688 24.971874 394.04688 25.940624L394.04688 29.55L392.98438 29.55L392.98438 25.503124Q392.98438 24.8 392.71875 24.45625Q392.46875 24.096874 391.89062 24.096874Q391.4375 24.096874 391.0625 24.33125Q390.6875 24.565624 390.51562 25.01875Q390.34375 25.471874 390.34375 26.315624L390.34375 29.55L389.29688 29.55ZM403.54688 27.55L404.64062 27.675Q404.39062 28.628124 403.6875 29.159374Q402.98438 29.690624 401.90625 29.690624Q400.54688 29.690624 399.73438 28.846874Q398.9375 28.003124 398.9375 26.4875Q398.9375 24.925 399.75 24.065624Q400.5625 23.190624 401.84375 23.190624Q403.09375 23.190624 403.875 24.034374Q404.67188 24.878124 404.67188 26.425Q404.67188 26.51875 404.67188 26.70625L400.03125 26.70625Q400.09375 27.7375 400.60938 28.284374Q401.125 28.815624 401.90625 28.815624Q402.48438 28.815624 402.89062 28.51875Q403.3125 28.20625 403.54688 27.55ZM400.09375 25.846874L403.5625 25.846874Q403.5 25.05 403.17188 24.659374Q402.65625 24.05 401.85938 24.05Q401.125 24.05 400.625 24.534374Q400.14062 25.01875 400.09375 25.846874Z" fill-rule="nonzero"/></svg>