<svg version="1.1" viewBox="0.0 0.0 600.0 371.0" fill="none" stroke="none" stroke-linecap="square" stroke-miterlimit="10" width="600" height="371" xmlns:xlink="http://www.w3.org/1999/xlink" xmlns="http://www.w3.org/2000/svg"><path fill="#ffffff" d="M0 0L600.0 0L600.0 371.0L0 371.0L0 0Z" fill-rule="nonzero"/><path stroke="#333333" stroke-width="1.0" stroke-linecap="butt" d="M95.5 300.5L581.5 300.5" fill-rule="nonzero"/><path stroke="#cccccc" stroke-width="1.0" stroke-linecap="butt" d="M95.5 264.5L581.5 264.5" fill-rule="nonzero"/><path stroke="#cccccc" stroke-width="1.0" stroke-linecap="butt" d="M95.5 229.5L581.5 229.5" fill-rule="nonzero"/><path stroke="#cccccc" stroke-width="1.0" stroke-linecap="butt" d="M95.5 193.5L581.5 193.5" fill-rule="nonzero"/><path stroke="#cccccc" stroke-width="1.0" stroke-linecap="butt" d="M95.5 158.5L581.5 158.5" fill-rule="nonzero"/><path stroke="#cccccc" stroke-width="1.0" stroke-linecap="butt" d="M95.5 122.5L581.5 122.5" fill-rule="nonzero"/><path stroke="#cccccc" stroke-width="1.0" stroke-linecap="butt" d="M95.5 87.5L581.5 87.5" fill-rule="nonzero"/><path stroke="#cccccc" stroke-width="1.0" stroke-linecap="butt" d="M95.5 51.5L581.5 51.5" fill-rule="nonzero"/><clipPath id="id_0"><path d="M95.55 51.916668L581.45 51.916668L581.45 300.45L95.55 300.45L95.55 51.916668Z" clip-rule="nonzero"/></clipPath><path stroke="#000000" stroke-width="0.0" stroke-linecap="butt" stroke-opacity="0.0" clip-path="url(#id_0)" d="M192.0 300.0L146.0 300.0L146.0 300.0C146.0 300.0 146.0 300.0 146.0 300.0L192.0 300.0C192.0 300.0 192.0 300.0 192.0 300.0Z" fill-rule="nonzero"/><path fill="#4285f4" clip-path="url(#id_0)" d="M192.0 300.0L146.0 300.0L146.0 300.0C146.0 300.0 146.0 300.0 146.0 300.0L192.0 300.0C192.0 300.0 192.0 300.0 192.0 300.0Z" fill-rule="nonzero"/><path stroke="#000000" stroke-width="0.0" stroke-linecap="butt" stroke-opacity="0.0" clip-path="url(#id_0)" d="M338.0 300.0L292.0 300.0L292.0 295.0C292.0 293.89542 292.89542 293.0 294.0 293.0L336.0 293.0C337.10458 293.0 338.0 293.89542 338.0 295.0Z" fill-rule="nonzero"/><path fill="#4285f4" clip-path="url(#id_0)" d="M338.0 300.0L292.0 300.0L292.0 295.0C292.0 293.89542 292.89542 293.0 294.0 293.0L336.0 293.0C337.10458 293.0 338.0 293.89542 338.0 295.0Z" fill-rule="nonzero"/><path stroke="#000000" stroke-width="0.0" stroke-linecap="butt" stroke-opacity="0.0" clip-path="url(#id_0)" d="M483.0 300.0L437.0 300.0L437.0 183.0C437.0 181.89543 437.89542 181.0 439.0 181.0L481.0 181.0C482.10458 181.0 483.0 181.89543 483.0 183.0Z" fill-rule="nonzero"/><path fill="#4285f4" clip-path="url(#id_0)" d="M483.0 300.0L437.0 300.0L437.0 183.0C437.0 181.89543 437.89542 181.0 439.0 181.0L481.0 181.0C482.10458 181.0 483.0 181.89543 483.0 183.0Z" fill-rule="nonzero"/><path stroke="#000000" stroke-width="0.0" stroke-linecap="butt" stroke-opacity="0.0" clip-path="url(#id_0)" d="M239.0 300.0L193.0 300.0L193.0 300.0C193.0 300.0 193.0 300.0 193.0 300.0L239.0 300.0C239.0 300.0 239.0 300.0 239.0 300.0Z" fill-rule="nonzero"/><path fill="#ea4335" clip-path="url(#id_0)" d="M239.0 300.0L193.0 300.0L193.0 300.0C193.0 300.0 193.0 300.0 193.0 300.0L239.0 300.0C239.0 300.0 239.0 300.0 239.0 300.0Z" fill-rule="nonzero"/><path stroke="#000000" stroke-width="0.0" stroke-linecap="butt" stroke-opacity="0.0" clip-path="url(#id_0)" d="M385.0 300.0L339.0 300.0L339.0 288.0C339.0 286.89542 339.89542 286.0 341.0 286.0L383.0 286.0C384.10458 286.0 385.0 286.89542 385.0 288.0Z" fill-rule="nonzero"/><path fill="#ea4335" clip-path="url(#id_0)" d="M385.0 300.0L339.0 300.0L339.0 288.0C339.0 286.89542 339.89542 286.0 341.0 286.0L383.0 286.0C384.10458 286.0 385.0 286.89542 385.0 288.0Z" fill-rule="nonzero"/><path stroke="#000000" stroke-width="0.0" stroke-linecap="butt" stroke-opacity="0.0" clip-path="url(#id_0)" d="M530.0 300.0L484.0 300.0L484.0 114.0C484.0 112.89543 484.89542 112.0 486.0 112.0L528.0 112.0C529.10455 112.0 530.0 112.89543 530.0 114.0Z" fill-rule="nonzero"/><path fill="#ea4335" clip-path="url(#id_0)" d="M530.0 300.0L484.0 300.0L484.0 114.0C484.0 112.89543 484.89542 112.0 486.0 112.0L528.0 112.0C529.10455 112.0 530.0 112.89543 530.0 114.0Z" fill-rule="nonzero"/><path fill="#000000" d="M286.92188 349.45L286.92188 340.85626L288.07812 340.85626L292.59375 347.60626L292.59375 340.85626L293.6875 340.85626L293.6875 349.45L292.51562 349.45L288.0 342.7L288.0 349.45L286.92188 349.45ZM299.875 349.45L299.875 348.52814Q299.14062 349.59064 297.89062 349.59064Q297.34375 349.59064 296.85938 349.3875Q296.39062 349.16876 296.15625 348.85626Q295.92188 348.52814 295.82812 348.0594Q295.76562 347.7625 295.76562 347.075L295.76562 343.23126L296.82812 343.23126L296.82812 346.6844Q296.82812 347.4969 296.89062 347.79376Q296.98438 348.2 297.29688 348.45Q297.625 348.6844 298.10938 348.6844Q298.57812 348.6844 298.98438 348.45Q299.40625 348.2 299.57812 347.77814Q299.76562 347.35626 299.76562 346.5594L299.76562 343.23126L300.8125 343.23126L300.8125 349.45L299.875 349.45ZM302.79688 349.45L302.79688 343.23126L303.73438 343.23126L303.73438 344.10626Q304.03125 343.6375 304.51562 343.3719Q305.0 343.09064 305.625 343.09064Q306.3125 343.09064 306.75 343.3719Q307.20312 343.65314 307.375 344.16876Q308.125 343.09064 309.29688 343.09064Q310.23438 343.09064 310.71875 343.60626Q311.21875 344.10626 311.21875 345.1844L311.21875 349.45L310.17188 349.45L310.17188 345.52814Q310.17188 344.90314 310.0625 344.6219Q309.96875 344.34064 309.70312 344.16876Q309.4375 343.9969 309.0625 343.9969Q308.40625 343.9969 307.96875 344.4344Q307.54688 344.8719 307.54688 345.84064L307.54688 349.45L306.48438 349.45L306.48438 345.40314Q306.48438 344.7 306.21875 344.35626Q305.96875 343.9969 305.39062 343.9969Q304.9375 343.9969 304.5625 344.23126Q304.1875 344.46564 304.01562 344.91876Q303.84375 345.3719 303.84375 346.21564L303.84375 349.45L302.79688 349.45ZM313.76562 349.45L312.78125 349.45L312.78125 340.85626L313.84375 340.85626L313.84375 343.91876Q314.51562 343.09064 315.54688 343.09064Q316.125 343.09064 316.625 343.325Q317.14062 343.54376 317.46875 343.96564Q317.8125 344.3875 318.0 344.98126Q318.1875 345.575 318.1875 346.2469Q318.1875 347.84064 317.39062 348.71564Q316.59375 349.59064 315.5 349.59064Q314.39062 349.59064 313.76562 348.66876L313.76562 349.45ZM313.75 346.29376Q313.75 347.40314 314.0625 347.90314Q314.5625 348.71564 315.40625 348.71564Q316.09375 348.71564 316.59375 348.1219Q317.10938 347.52814 317.10938 346.325Q317.10938 345.10626 316.625 344.52814Q316.14062 343.95 315.45312 343.95Q314.76562 343.95 314.25 344.5594Q313.75 345.15314 313.75 346.29376ZM324.04688 347.45L325.14062 347.575Q324.89062 348.52814 324.1875 349.0594Q323.48438 349.59064 322.40625 349.59064Q321.04688 349.59064 320.23438 348.7469Q319.4375 347.90314 319.4375 346.3875Q319.4375 344.825 320.25 343.96564Q321.0625 343.09064 322.34375 343.09064Q323.59375 343.09064 324.375 343.9344Q325.17188 344.77814 325.17188 346.325Q325.17188 346.41876 325.17188 346.60626L320.53125 346.60626Q320.59375 347.6375 321.10938 348.1844Q321.625 348.71564 322.40625 348.71564Q322.98438 348.71564 323.39062 348.41876Q323.8125 348.10626 324.04688 347.45ZM320.59375 345.7469L324.0625 345.7469Q324.0 344.95 323.67188 344.5594Q323.15625 343.95 322.35938 343.95Q321.625 343.95 321.125 344.4344Q320.64062 344.91876 320.59375 345.7469ZM326.78125 349.45L326.78125 343.23126L327.73438 343.23126L327.73438 344.16876Q328.09375 343.5125 328.39062 343.3094Q328.70312 343.09064 329.07812 343.09064Q329.60938 343.09064 330.15625 343.41876L329.79688 344.40314Q329.40625 344.16876 329.03125 344.16876Q328.67188 344.16876 328.39062 344.3875Q328.125 344.59064 328.01562 344.96564Q327.82812 345.52814 327.82812 346.1844L327.82812 349.45L326.78125 349.45ZM333.40625 346.34064Q333.40625 344.60626 334.35938 343.77814Q335.15625 343.09064 336.3125 343.09064Q337.59375 343.09064 338.40625 343.9344Q339.23438 344.7625 339.23438 346.2469Q339.23438 347.45 338.875 348.1375Q338.51562 348.825 337.8125 349.21564Q337.125 349.59064 336.3125 349.59064Q335.01562 349.59064 334.20312 348.7625Q333.40625 347.91876 333.40625 346.34064ZM334.48438 346.34064Q334.48438 347.52814 335.0 348.1219Q335.53125 348.71564 336.3125 348.71564Q337.10938 348.71564 337.625 348.1219Q338.14062 347.52814 338.14062 346.3094Q338.14062 345.15314 337.60938 344.5594Q337.09375 343.96564 336.3125 343.96564Q335.53125 343.96564 335.0 344.5594Q334.48438 345.1375 334.48438 346.34064ZM341.04688 349.45L341.04688 344.04376L340.10938 344.04376L340.10938 343.23126L341.04688 343.23126L341.04688 342.5594Q341.04688 341.9344 341.15625 341.6375Q341.3125 341.21564 341.6875 340.96564Q342.07812 340.71564 342.76562 340.71564Q343.21875 340.71564 343.75 340.825L343.59375 341.73126Q343.26562 341.6844 342.96875 341.6844Q342.48438 341.6844 342.28125 341.8875Q342.09375 342.09064 342.09375 342.65314L342.09375 343.23126L343.3125 343.23126L343.3125 344.04376L342.09375 344.04376L342.09375 349.45L341.04688 349.45ZM349.10938 349.45L349.10938 341.8719L346.28125 341.8719L346.28125 340.85626L353.09375 340.85626L353.09375 341.8719L350.25 341.8719L350.25 349.45L349.10938 349.45ZM353.79688 349.45L353.79688 340.85626L354.84375 340.85626L354.84375 343.9344Q355.57812 343.09064 356.70312 343.09064Q357.40625 343.09064 357.90625 343.3719Q358.42188 343.6375 358.64062 344.1219Q358.85938 344.59064 358.85938 345.5125L358.85938 349.45L357.8125 349.45L357.8125 345.5125Q357.8125 344.71564 357.46875 344.35626Q357.125 343.9969 356.5 343.9969Q356.03125 343.9969 355.60938 344.2469Q355.20312 344.48126 355.01562 344.90314Q354.84375 345.3094 354.84375 346.04376L354.84375 349.45L353.79688 349.45ZM360.78125 349.45L360.78125 343.23126L361.73438 343.23126L361.73438 344.16876Q362.09375 343.5125 362.39062 343.3094Q362.70312 343.09064 363.07812 343.09064Q363.60938 343.09064 364.15625 343.41876L363.79688 344.40314Q363.40625 344.16876 363.03125 344.16876Q362.67188 344.16876 362.39062 344.3875Q362.125 344.59064 362.01562 344.96564Q361.82812 345.52814 361.82812 346.1844L361.82812 349.45L360.78125 349.45ZM369.04688 347.45L370.14062 347.575Q369.89062 348.52814 369.1875 349.0594Q368.48438 349.59064 367.40625 349.59064Q366.04688 349.59064 365.23438 348.7469Q364.4375 347.90314 364.4375 346.3875Q364.4375 344.825 365.25 343.96564Q366.0625 343.09064 367.34375 343.09064Q368.59375 343.09064 369.375 343.9344Q370.17188 344.77814 370.17188 346.325Q370.17188 346.41876 370.17188 346.60626L365.53125 346.60626Q365.59375 347.6375 366.10938 348.1844Q366.625 348.71564 367.40625 348.71564Q367.98438 348.71564 368.39062 348.41876Q368.8125 348.10626 369.04688 347.45ZM365.59375 345.7469L369.0625 345.7469Q369.0 344.95 368.67188 344.5594Q368.15625 343.95 367.35938 343.95Q366.625 343.95 366.125 344.4344Q365.64062 344.91876 365.59375 345.7469ZM375.85938 348.6844Q375.26562 349.1844 374.71875 349.3875Q374.1875 349.59064 373.5625 349.59064Q372.53125 349.59064 371.98438 349.09064Q371.4375 348.59064 371.4375 347.8094Q371.4375 347.35626 371.64062 346.98126Q371.84375 346.59064 372.1875 346.3719Q372.53125 346.1375 372.95312 346.02814Q373.25 345.9344 373.89062 345.85626Q375.15625 345.71564 375.76562 345.4969Q375.76562 345.27814 375.76562 345.23126Q375.76562 344.575 375.46875 344.3094Q375.0625 343.96564 374.26562 343.96564Q373.53125 343.96564 373.17188 344.23126Q372.8125 344.48126 372.64062 345.1375L371.60938 344.9969Q371.75 344.34064 372.07812 343.9344Q372.40625 343.52814 373.01562 343.3094Q373.625 343.09064 374.42188 343.09064Q375.21875 343.09064 375.71875 343.27814Q376.21875 343.46564 376.45312 343.7469Q376.6875 344.02814 376.78125 344.46564Q376.82812 344.73126 376.82812 345.4344L376.82812 346.84064Q376.82812 348.3094 376.89062 348.7Q376.96875 349.09064 377.17188 349.45L376.0625 349.45Q375.90625 349.1219 375.85938 348.6844ZM375.76562 346.325Q375.1875 346.5594 374.04688 346.73126Q373.39062 346.825 373.125 346.95Q372.85938 347.0594 372.70312 347.27814Q372.5625 347.4969 372.5625 347.77814Q372.5625 348.2 372.875 348.48126Q373.20312 348.7625 373.8125 348.7625Q374.42188 348.7625 374.89062 348.4969Q375.375 348.23126 375.59375 347.7625Q375.76562 347.40314 375.76562 346.71564L375.76562 346.325ZM382.82812 349.45L382.82812 348.66876Q382.23438 349.59064 381.09375 349.59064Q380.34375 349.59064 379.71875 349.1844Q379.09375 348.7625 378.75 348.02814Q378.40625 347.29376 378.40625 346.34064Q378.40625 345.41876 378.71875 344.65314Q379.03125 343.8875 379.65625 343.4969Q380.28125 343.09064 381.04688 343.09064Q381.60938 343.09064 382.04688 343.325Q382.48438 343.5594 382.76562 343.9344L382.76562 340.85626L383.8125 340.85626L383.8125 349.45L382.82812 349.45ZM379.5 346.34064Q379.5 347.54376 380.0 348.1375Q380.5 348.71564 381.1875 348.71564Q381.875 348.71564 382.35938 348.15314Q382.84375 347.59064 382.84375 346.4344Q382.84375 345.15314 382.34375 344.5594Q381.85938 343.96564 381.14062 343.96564Q380.4375 343.96564 379.96875 344.54376Q379.5 345.10626 379.5 346.34064ZM385.375 347.59064L386.40625 347.4344Q386.5 348.0594 386.89062 348.3875Q387.29688 348.71564 388.03125 348.71564Q388.75 348.71564 389.09375 348.4344Q389.45312 348.1375 389.45312 347.73126Q389.45312 347.3719 389.14062 347.16876Q388.92188 347.02814 388.0625 346.8094Q386.90625 346.5125 386.45312 346.3094Q386.01562 346.09064 385.78125 345.71564Q385.54688 345.34064 385.54688 344.8719Q385.54688 344.46564 385.73438 344.10626Q385.92188 343.7469 386.25 343.5125Q386.5 343.34064 386.92188 343.21564Q387.34375 343.09064 387.84375 343.09064Q388.5625 343.09064 389.10938 343.3094Q389.67188 343.5125 389.9375 343.8719Q390.20312 344.23126 390.29688 344.825L389.26562 344.96564Q389.20312 344.4969 388.85938 344.23126Q388.53125 343.95 387.90625 343.95Q387.1875 343.95 386.875 344.2Q386.5625 344.4344 386.5625 344.7625Q386.5625 344.96564 386.6875 345.1219Q386.82812 345.29376 387.09375 345.40314Q387.25 345.46564 388.03125 345.66876Q389.15625 345.98126 389.59375 346.16876Q390.03125 346.35626 390.28125 346.71564Q390.53125 347.075 390.53125 347.6219Q390.53125 348.15314 390.21875 348.6219Q389.92188 349.075 389.34375 349.34064Q388.76562 349.59064 388.03125 349.59064Q386.8125 349.59064 386.17188 349.09064Q385.54688 348.575 385.375 347.59064Z" fill-rule="nonzero"/><path fill="#000000" d="M29.550013 233.57396L21.971888 233.57396L21.971888 236.40208L20.956263 236.40208L20.956263 229.58958L21.971888 229.58958L21.971888 232.43333L29.550013 232.43333L29.550013 233.57396ZM22.175013 228.88646L20.956263 228.88646L20.956263 227.82396L22.175013 227.82396L22.175013 228.88646ZM29.550013 228.88646L23.331263 228.88646L23.331263 227.82396L29.550013 227.82396L29.550013 228.88646ZM29.550013 225.88646L23.331263 225.88646L23.331263 224.94896L24.206263 224.94896Q23.737513 224.65208 23.471888 224.16771Q23.190638 223.68333 23.190638 223.05833Q23.190638 222.37083 23.471888 221.93333Q23.753138 221.48021 24.268763 221.30833Q23.190638 220.55833 23.190638 219.38646Q23.190638 218.44896 23.706263 217.96458Q24.206263 217.46458 25.284388 217.46458L29.550013 217.46458L29.550013 218.51146L25.628138 218.51146Q25.003138 218.51146 24.721888 218.62083Q24.440638 218.71458 24.268763 218.98021Q24.096888 219.24583 24.096888 219.62083Q24.096888 220.27708 24.534388 220.71458Q24.971888 221.13646 25.940638 221.13646L29.550013 221.13646L29.550013 222.19896L25.503138 222.19896Q24.800013 222.19896 24.456263 222.46458Q24.096888 222.71458 24.096888 223.29271Q24.096888 223.74583 24.331263 224.12083Q24.565638 224.49583 25.018763 224.66771Q25.471888 224.83958 26.315638 224.83958L29.550013 224.83958L29.550013 225.88646ZM27.550013 211.63646L27.675013 210.54271Q28.628138 210.79271 29.159388 211.49583Q29.690638 212.19896 29.690638 213.27708Q29.690638 214.63646 28.846888 215.44896Q28.003138 216.24583 26.487513 216.24583Q24.925013 216.24583 24.065638 215.43333Q23.190638 214.62083 23.190638 213.33958Q23.190638 212.08958 24.034388 211.30833Q24.878138 210.51146 26.425013 210.51146Q26.518763 210.51146 26.706263 210.51146L26.706263 215.15208Q27.737513 215.08958 28.284388 214.57396Q28.815638 214.05833 28.815638 213.27708Q28.815638 212.69896 28.518763 212.29271Q28.206263 211.87083 27.550013 211.63646ZM25.846888 215.08958L25.846888 211.62083Q25.050013 211.68333 24.659388 212.01146Q24.050013 212.52708 24.050013 213.32396Q24.050013 214.05833 24.534388 214.55833Q25.018763 215.04271 25.846888 215.08958ZM32.08126 203.87083Q30.971888 204.74583 29.503138 205.35521Q28.018763 205.94896 26.440638 205.94896Q25.050013 205.94896 23.768763 205.51146Q22.284388 204.98021 20.815638 203.87083L20.815638 203.12083Q22.034388 203.82396 22.550013 204.05833Q23.362513 204.41771 24.237513 204.62083Q25.331263 204.87083 26.440638 204.87083Q29.268763 204.87083 32.08126 203.12083L32.08126 203.87083ZM29.550013 201.88646L23.331263 201.88646L23.331263 200.94896L24.206263 200.94896Q23.737513 200.65208 23.471888 200.16771Q23.190638 199.68333 23.190638 199.05833Q23.190638 198.37083 23.471888 197.93333Q23.753138 197.48021 24.268763 197.30833Q23.190638 196.55833 23.190638 195.38646Q23.190638 194.44896 23.706263 193.96458Q24.206263 193.46458 25.284388 193.46458L29.550013 193.46458L29.550013 194.51146L25.628138 194.51146Q25.003138 194.51146 24.721888 194.62083Q24.440638 194.71458 24.268763 194.98021Q24.096888 195.24583 24.096888 195.62083Q24.096888 196.27708 24.534388 196.71458Q24.971888 197.13646 25.940638 197.13646L29.550013 197.13646L29.550013 198.19896L25.503138 198.19896Q24.800013 198.19896 24.456263 198.46458Q24.096888 198.71458 24.096888 199.29271Q24.096888 199.74583 24.331263 200.12083Q24.565638 200.49583 25.018763 200.66771Q25.471888 200.83958 26.315638 200.83958L29.550013 200.83958L29.550013 201.88646ZM22.175013 191.88646L20.956263 191.88646L20.956263 190.82396L22.175013 190.82396L22.175013 191.88646ZM29.550013 191.88646L23.331263 191.88646L23.331263 190.82396L29.550013 190.82396L29.550013 191.88646ZM27.268763 184.82396L27.409388 183.79271Q28.471888 183.96458 29.081263 184.66771Q29.690638 185.37083 29.690638 186.38646Q29.690638 187.66771 28.862513 188.44896Q28.018763 189.21458 26.456263 189.21458Q25.456263 189.21458 24.706263 188.88646Q23.940638 188.54271 23.565638 187.87083Q23.190638 187.18333 23.190638 186.37083Q23.190638 185.37083 23.706263 184.73021Q24.206263 184.07396 25.159388 183.88646L25.315638 184.91771Q24.690638 185.05833 24.378138 185.43333Q24.050013 185.80833 24.050013 186.33958Q24.050013 187.13646 24.628138 187.63646Q25.190638 188.13646 26.425013 188.13646Q27.690638 188.13646 28.253138 187.65208Q28.815638 187.16771 28.815638 186.40208Q28.815638 185.77708 28.440638 185.37083Q28.065638 184.94896 27.268763 184.82396ZM29.550013 182.90208L23.331263 182.90208L23.331263 181.94896L24.268763 181.94896Q23.612513 181.58958 23.409388 181.29271Q23.190638 180.98021 23.190638 180.60521Q23.190638 180.07396 23.518763 179.52708L24.503138 179.88646Q24.268763 180.27708 24.268763 180.65208Q24.268763 181.01146 24.487513 181.29271Q24.690638 181.55833 25.065638 181.66771Q25.628138 181.85521 26.284388 181.85521L29.550013 181.85521L29.550013 182.90208ZM26.440638 179.27708Q24.706263 179.27708 23.878138 178.32396Q23.190638 177.52708 23.190638 176.37083Q23.190638 175.08958 24.034388 174.27708Q24.862513 173.44896 26.346888 173.44896Q27.550013 173.44896 28.237513 173.80833Q28.925013 174.16771 29.315638 174.87083Q29.690638 175.55833 29.690638 176.37083Q29.690638 177.66771 28.862513 178.48021Q28.018763 179.27708 26.440638 179.27708ZM26.440638 178.19896Q27.628138 178.19896 28.221888 177.68333Q28.815638 177.15208 28.815638 176.37083Q28.815638 175.57396 28.221888 175.05833Q27.628138 174.54271 26.409388 174.54271Q25.253138 174.54271 24.659388 175.07396Q24.065638 175.58958 24.065638 176.37083Q24.065638 177.15208 24.659388 177.68333Q25.237513 178.19896 26.440638 178.19896ZM27.690638 172.30833L27.534388 171.27708Q28.159388 171.18333 28.487513 170.79271Q28.815638 170.38646 28.815638 169.65208Q28.815638 168.93333 28.534388 168.58958Q28.237513 168.23021 27.831263 168.23021Q27.471888 168.23021 27.268763 168.54271Q27.128138 168.76146 26.909388 169.62083Q26.612513 170.77708 26.409388 171.23021Q26.190638 171.66771 25.815638 171.90208Q25.440638 172.13646 24.971888 172.13646Q24.565638 172.13646 24.206263 171.94896Q23.846888 171.76146 23.612513 171.43333Q23.440638 171.18333 23.315638 170.76146Q23.190638 170.33958 23.190638 169.83958Q23.190638 169.12083 23.409388 168.57396Q23.612513 168.01146 23.971888 167.74583Q24.331263 167.48021 24.925013 167.38646L25.065638 168.41771Q24.596888 168.48021 24.331263 168.82396Q24.050013 169.15208 24.050013 169.77708Q24.050013 170.49583 24.300013 170.80833Q24.534388 171.12083 24.862513 171.12083Q25.065638 171.12083 25.221888 170.99583Q25.393763 170.85521 25.503138 170.58958Q25.565638 170.43333 25.768763 169.65208Q26.081263 168.52708 26.268763 168.08958Q26.456263 167.65208 26.815638 167.40208Q27.175013 167.15208 27.721888 167.15208Q28.253138 167.15208 28.721888 167.46458Q29.175013 167.76146 29.440638 168.33958Q29.690638 168.91771 29.690638 169.65208Q29.690638 170.87083 29.190638 171.51146Q28.675013 172.13646 27.690638 172.30833ZM27.550013 161.63646L27.675013 160.54271Q28.628138 160.79271 29.159388 161.49583Q29.690638 162.19896 29.690638 163.27708Q29.690638 164.63646 28.846888 165.44896Q28.003138 166.24583 26.487513 166.24583Q24.925013 166.24583 24.065638 165.43333Q23.190638 164.62083 23.190638 163.33958Q23.190638 162.08958 24.034388 161.30833Q24.878138 160.51146 26.425013 160.51146Q26.518763 160.51146 26.706263 160.51146L26.706263 165.15208Q27.737513 165.08958 28.284388 164.57396Q28.815638 164.05833 28.815638 163.27708Q28.815638 162.69896 28.518763 162.29271Q28.206263 161.87083 27.550013 161.63646ZM25.846888 165.08958L25.846888 161.62083Q25.050013 161.68333 24.659388 162.01146Q24.050013 162.52708 24.050013 163.32396Q24.050013 164.05833 24.534388 164.55833Q25.018763 165.04271 25.846888 165.08958ZM27.268763 154.82396L27.409388 153.79271Q28.471888 153.96458 29.081263 154.66771Q29.690638 155.37083 29.690638 156.38646Q29.690638 157.66771 28.862513 158.44896Q28.018763 159.21458 26.456263 159.21458Q25.456263 159.21458 24.706263 158.88646Q23.940638 158.54271 23.565638 157.87083Q23.190638 157.18333 23.190638 156.37083Q23.190638 155.37083 23.706263 154.73021Q24.206263 154.07396 25.159388 153.88646L25.315638 154.91771Q24.690638 155.05833 24.378138 155.43333Q24.050013 155.80833 24.050013 156.33958Q24.050013 157.13646 24.628138 157.63646Q25.190638 158.13646 26.425013 158.13646Q27.690638 158.13646 28.253138 157.65208Q28.815638 157.16771 28.815638 156.40208Q28.815638 155.77708 28.440638 155.37083Q28.065638 154.94896 27.268763 154.82396ZM26.440638 153.27708Q24.706263 153.27708 23.878138 152.32396Q23.190638 151.52708 23.190638 150.37083Q23.190638 149.08958 24.034388 148.27708Q24.862513 147.44896 26.346888 147.44896Q27.550013 147.44896 28.237513 147.80833Q28.925013 148.16771 29.315638 148.87083Q29.690638 149.55833 29.690638 150.37083Q29.690638 151.66771 28.862513 152.48021Q28.018763 153.27708 26.440638 153.27708ZM26.440638 152.19896Q27.628138 152.19896 28.221888 151.68333Q28.815638 151.15208 28.815638 150.37083Q28.815638 149.57396 28.221888 149.05833Q27.628138 148.54271 26.409388 148.54271Q25.253138 148.54271 24.659388 149.07396Q24.065638 149.58958 24.065638 150.37083Q24.065638 151.15208 24.659388 151.68333Q25.237513 152.19896 26.440638 152.19896ZM29.550013 145.88646L23.331263 145.88646L23.331263 144.94896L24.206263 144.94896Q23.190638 144.26146 23.190638 142.96458Q23.190638 142.40208 23.393763 141.93333Q23.596888 141.44896 23.925013 141.21458Q24.253138 140.98021 24.690638 140.88646Q24.987513 140.83958 25.721888 140.83958L29.550013 140.83958L29.550013 141.88646L25.768763 141.88646Q25.112513 141.88646 24.800013 142.01146Q24.487513 142.13646 24.300013 142.44896Q24.096888 142.76146 24.096888 143.18333Q24.096888 143.85521 24.534388 144.35521Q24.956263 144.83958 26.143763 144.83958L29.550013 144.83958L29.550013 145.88646ZM29.550013 134.85521L28.768763 134.85521Q29.690638 135.44896 29.690638 136.58958Q29.690638 137.33958 29.284388 137.96458Q28.862513 138.58958 28.128138 138.93333Q27.393763 139.27708 26.440638 139.27708Q25.518763 139.27708 24.753138 138.96458Q23.987513 138.65208 23.596888 138.02708Q23.190638 137.40208 23.190638 136.63646Q23.190638 136.07396 23.425013 135.63646Q23.659388 135.19896 24.034388 134.91771L20.956263 134.91771L20.956263 133.87083L29.550013 133.87083L29.550013 134.85521ZM26.440638 138.18333Q27.643763 138.18333 28.237513 137.68333Q28.815638 137.18333 28.815638 136.49583Q28.815638 135.80833 28.253138 135.32396Q27.690638 134.83958 26.534388 134.83958Q25.253138 134.83958 24.659388 135.33958Q24.065638 135.82396 24.065638 136.54271Q24.065638 137.24583 24.643763 137.71458Q25.206263 138.18333 26.440638 138.18333ZM32.08126 131.19896L32.08126 131.94896Q29.268763 130.19896 26.440638 130.19896Q25.346888 130.19896 24.253138 130.44896Q23.378138 130.65208 22.565638 131.01146Q22.050013 131.24583 20.815638 131.94896L20.815638 131.19896Q22.284388 130.10521 23.768763 129.57396Q25.050013 129.12083 26.440638 129.12083Q28.018763 129.12083 29.503138 129.73021Q30.971888 130.33958 32.08126 131.19896Z" fill-rule="nonzero"/><path fill="#000000" d="M83.05 300.21564Q83.05 298.6844 83.3625 297.7625Q83.675 296.825 84.28438 296.325Q84.90938 295.825 85.84688 295.825Q86.53438 295.825 87.05 296.10626Q87.58125 296.3875 87.925 296.91876Q88.26875 297.4344 88.45625 298.1844Q88.64375 298.9344 88.64375 300.21564Q88.64375 301.73126 88.33125 302.65314Q88.03438 303.575 87.40938 304.09064Q86.8 304.59064 85.84688 304.59064Q84.6125 304.59064 83.89375 303.7Q83.05 302.6375 83.05 300.21564ZM84.12813 300.21564Q84.12813 302.325 84.62813 303.02814Q85.12813 303.73126 85.84688 303.73126Q86.58125 303.73126 87.06563 303.02814Q87.56563 302.325 87.56563 300.21564Q87.56563 298.09064 87.06563 297.40314Q86.58125 296.7 85.83125 296.7Q85.1125 296.7 84.675 297.3094Q84.12813 298.09064 84.12813 300.21564Z" fill-rule="nonzero"/><path fill="#000000" d="M56.596874 267.92963L56.596874 268.94525L50.909374 268.94525Q50.909374 268.57025 51.034374 268.21088Q51.253124 267.63275 51.721874 267.07025Q52.20625 266.50775 53.1125 265.77338Q54.51875 264.61713 55.003124 263.94525Q55.503124 263.27338 55.503124 262.67963Q55.503124 262.05463 55.05 261.63275Q54.596874 261.19525 53.878124 261.19525Q53.1125 261.19525 52.659374 261.64838Q52.20625 262.1015 52.190624 262.914L51.1125 262.80463Q51.221874 261.58588 51.940624 260.96088Q52.675 260.32025 53.909374 260.32025Q55.14375 260.32025 55.8625 261.00775Q56.58125 261.69525 56.58125 262.71088Q56.58125 263.2265 56.3625 263.7265Q56.159374 264.21088 55.659374 264.77338Q55.175 265.32025 54.05 266.27338Q53.096874 267.07025 52.815624 267.36713Q52.55 267.64838 52.378124 267.92963L56.596874 267.92963ZM58.64375 268.94525L58.64375 267.74213L59.846874 267.74213L59.846874 268.94525L58.64375 268.94525ZM61.05 264.71088Q61.05 263.17963 61.3625 262.25775Q61.675 261.32025 62.284374 260.82025Q62.909374 260.32025 63.846874 260.32025Q64.53438 260.32025 65.05 260.6015Q65.58125 260.88275 65.925 261.414Q66.26875 261.92963 66.45625 262.67963Q66.64375 263.42963 66.64375 264.71088Q66.64375 266.2265 66.33125 267.14838Q66.03438 268.07025 65.40938 268.58588Q64.8 269.08588 63.846874 269.08588Q62.6125 269.08588 61.89375 268.19525Q61.05 267.13275 61.05 264.71088ZM62.128124 264.71088Q62.128124 266.82025 62.628124 267.52338Q63.128124 268.2265 63.846874 268.2265Q64.58125 268.2265 65.06563 267.52338Q65.56563 266.82025 65.56563 264.71088Q65.56563 262.58588 65.06563 261.89838Q64.58125 261.19525 63.83125 261.19525Q63.1125 261.19525 62.675 261.80463Q62.128124 262.58588 62.128124 264.71088ZM68.50313 268.94525L68.50313 260.3515L74.70625 260.3515L74.70625 261.36713L69.64375 261.36713L69.64375 263.99213L74.39375 263.99213L74.39375 265.00775L69.64375 265.00775L69.64375 267.92963L74.90938 267.92963L74.90938 268.94525L68.50313 268.94525ZM78.55 267.55463L78.55 265.19525L76.22188 265.19525L76.22188 264.21088L78.55 264.21088L78.55 261.88275L79.55 261.88275L79.55 264.21088L81.89375 264.21088L81.89375 265.19525L79.55 265.19525L79.55 267.55463L78.55 267.55463ZM88.51875 262.46088L87.47188 262.539Q87.33125 261.914 87.08125 261.63275Q86.64375 261.17963 86.01875 261.17963Q85.51875 261.17963 85.12813 261.46088Q84.64375 261.83588 84.34688 262.539Q84.06563 263.2265 84.05 264.50775Q84.425 263.92963 84.97188 263.64838Q85.53438 263.36713 86.14375 263.36713Q87.19063 263.36713 87.925 264.14838Q88.675 264.92963 88.675 266.14838Q88.675 266.96088 88.31563 267.664Q87.97188 268.3515 87.3625 268.7265Q86.75313 269.08588 85.9875 269.08588Q84.65938 269.08588 83.83125 268.11713Q83.00313 267.14838 83.00313 264.92963Q83.00313 262.42963 83.925 261.30463Q84.72188 260.32025 86.08125 260.32025Q87.09688 260.32025 87.7375 260.89838Q88.39375 261.46088 88.51875 262.46088ZM84.22188 266.164Q84.22188 266.71088 84.44063 267.21088Q84.675 267.69525 85.08125 267.96088Q85.50313 268.2265 85.97188 268.2265Q86.62813 268.2265 87.1125 267.69525Q87.59688 267.14838 87.59688 266.2265Q87.59688 265.33588 87.1125 264.82025Q86.64375 264.30463 85.925 264.30463Q85.20625 264.30463 84.70625 264.82025Q84.22188 265.33588 84.22188 266.164Z" fill-rule="nonzero"/><path fill="#000000" d="M54.425 233.44048L54.425 231.37798L50.70625 231.37798L50.70625 230.40923L54.628124 224.84673L55.4875 224.84673L55.4875 230.40923L56.64375 230.40923L56.64375 231.37798L55.4875 231.37798L55.4875 233.44048L54.425 233.44048ZM54.425 230.40923L54.425 226.54985L51.7375 230.40923L54.425 230.40923ZM58.64375 233.44048L58.64375 232.23735L59.846874 232.23735L59.846874 233.44048L58.64375 233.44048ZM61.05 229.2061Q61.05 227.67485 61.3625 226.75298Q61.675 225.81548 62.284374 225.31548Q62.909374 224.81548 63.846874 224.81548Q64.53438 224.81548 65.05 225.09673Q65.58125 225.37798 65.925 225.90923Q66.26875 226.42485 66.45625 227.17485Q66.64375 227.92485 66.64375 229.2061Q66.64375 230.72173 66.33125 231.6436Q66.03438 232.56548 65.40938 233.0811Q64.8 233.5811 63.846874 233.5811Q62.6125 233.5811 61.89375 232.69048Q61.05 231.62798 61.05 229.2061ZM62.128124 229.2061Q62.128124 231.31548 62.628124 232.0186Q63.128124 232.72173 63.846874 232.72173Q64.58125 232.72173 65.06563 232.0186Q65.56563 231.31548 65.56563 229.2061Q65.56563 227.0811 65.06563 226.3936Q64.58125 225.69048 63.83125 225.69048Q63.1125 225.69048 62.675 226.29985Q62.128124 227.0811 62.128124 229.2061ZM68.50313 233.44048L68.50313 224.84673L74.70625 224.84673L74.70625 225.86235L69.64375 225.86235L69.64375 228.48735L74.39375 228.48735L74.39375 229.50298L69.64375 229.50298L69.64375 232.42485L74.90938 232.42485L74.90938 233.44048L68.50313 233.44048ZM78.55 232.04985L78.55 229.69048L76.22188 229.69048L76.22188 228.7061L78.55 228.7061L78.55 226.37798L79.55 226.37798L79.55 228.7061L81.89375 228.7061L81.89375 229.69048L79.55 229.69048L79.55 232.04985L78.55 232.04985ZM88.51875 226.9561L87.47188 227.03423Q87.33125 226.40923 87.08125 226.12798Q86.64375 225.67485 86.01875 225.67485Q85.51875 225.67485 85.12813 225.9561Q84.64375 226.3311 84.34688 227.03423Q84.06563 227.72173 84.05 229.00298Q84.425 228.42485 84.97188 228.1436Q85.53438 227.86235 86.14375 227.86235Q87.19063 227.86235 87.925 228.6436Q88.675 229.42485 88.675 230.6436Q88.675 231.4561 88.31563 232.15923Q87.97188 232.84673 87.3625 233.22173Q86.75313 233.5811 85.9875 233.5811Q84.65938 233.5811 83.83125 232.61235Q83.00313 231.6436 83.00313 229.42485Q83.00313 226.92485 83.925 225.79985Q84.72188 224.81548 86.08125 224.81548Q87.09688 224.81548 87.7375 225.3936Q88.39375 225.9561 88.51875 226.9561ZM84.22188 230.65923Q84.22188 231.2061 84.44063 231.7061Q84.675 232.19048 85.08125 232.4561Q85.50313 232.72173 85.97188 232.72173Q86.62813 232.72173 87.1125 232.19048Q87.59688 231.6436 87.59688 230.72173Q87.59688 229.8311 87.1125 229.31548Q86.64375 228.79985 85.925 228.79985Q85.20625 228.79985 84.70625 229.31548Q84.22188 229.8311 84.22188 230.65923Z" fill-rule="nonzero"/><path fill="#000000" d="M56.51875 191.45134L55.471874 191.52946Q55.33125 190.90446 55.08125 190.62321Q54.64375 190.17009 54.01875 190.17009Q53.51875 190.17009 53.128124 190.45134Q52.64375 190.82634 52.346874 191.52946Q52.065624 192.21696 52.05 193.49821Q52.425 192.92009 52.971874 192.63884Q53.534374 192.35759 54.14375 192.35759Q55.190624 192.35759 55.925 193.13884Q56.675 193.92009 56.675 195.13884Q56.675 195.95134 56.315624 196.65446Q55.971874 197.34196 55.3625 197.71696Q54.753124 198.07634 53.9875 198.07634Q52.659374 198.07634 51.83125 197.10759Q51.003124 196.13884 51.003124 193.92009Q51.003124 191.42009 51.925 190.29509Q52.721874 189.31071 54.08125 189.31071Q55.096874 189.31071 55.7375 189.88884Q56.39375 190.45134 56.51875 191.45134ZM52.221874 195.15446Q52.221874 195.70134 52.440624 196.20134Q52.675 196.68571 53.08125 196.95134Q53.503124 197.21696 53.971874 197.21696Q54.628124 197.21696 55.1125 196.68571Q55.596874 196.13884 55.596874 195.21696Q55.596874 194.32634 55.1125 193.81071Q54.64375 193.29509 53.925 193.29509Q53.20625 193.29509 52.70625 193.81071Q52.221874 194.32634 52.221874 195.15446ZM58.64375 197.93571L58.64375 196.73259L59.846874 196.73259L59.846874 197.93571L58.64375 197.93571ZM61.05 193.70134Q61.05 192.17009 61.3625 191.24821Q61.675 190.31071 62.284374 189.81071Q62.909374 189.31071 63.846874 189.31071Q64.53438 189.31071 65.05 189.59196Q65.58125 189.87321 65.925 190.40446Q66.26875 190.92009 66.45625 191.67009Q66.64375 192.42009 66.64375 193.70134Q66.64375 195.21696 66.33125 196.13884Q66.03438 197.06071 65.40938 197.57634Q64.8 198.07634 63.846874 198.07634Q62.6125 198.07634 61.89375 197.18571Q61.05 196.12321 61.05 193.70134ZM62.128124 193.70134Q62.128124 195.81071 62.628124 196.51384Q63.128124 197.21696 63.846874 197.21696Q64.58125 197.21696 65.06563 196.51384Q65.56563 195.81071 65.56563 193.70134Q65.56563 191.57634 65.06563 190.88884Q64.58125 190.18571 63.83125 190.18571Q63.1125 190.18571 62.675 190.79509Q62.128124 191.57634 62.128124 193.70134ZM68.50313 197.93571L68.50313 189.34196L74.70625 189.34196L74.70625 190.35759L69.64375 190.35759L69.64375 192.98259L74.39375 192.98259L74.39375 193.99821L69.64375 193.99821L69.64375 196.92009L74.90938 196.92009L74.90938 197.93571L68.50313 197.93571ZM78.55 196.54509L78.55 194.18571L76.22188 194.18571L76.22188 193.20134L78.55 193.20134L78.55 190.87321L79.55 190.87321L79.55 193.20134L81.89375 193.20134L81.89375 194.18571L79.55 194.18571L79.55 196.54509L78.55 196.54509ZM88.51875 191.45134L87.47188 191.52946Q87.33125 190.90446 87.08125 190.62321Q86.64375 190.17009 86.01875 190.17009Q85.51875 190.17009 85.12813 190.45134Q84.64375 190.82634 84.34688 191.52946Q84.06563 192.21696 84.05 193.49821Q84.425 192.92009 84.97188 192.63884Q85.53438 192.35759 86.14375 192.35759Q87.19063 192.35759 87.925 193.13884Q88.675 193.92009 88.675 195.13884Q88.675 195.95134 88.31563 196.65446Q87.97188 197.34196 87.3625 197.71696Q86.75313 198.07634 85.9875 198.07634Q84.65938 198.07634 83.83125 197.10759Q83.00313 196.13884 83.00313 193.92009Q83.00313 191.42009 83.925 190.29509Q84.72188 189.31071 86.08125 189.31071Q87.09688 189.31071 87.7375 189.88884Q88.39375 190.45134 88.51875 191.45134ZM84.22188 195.15446Q84.22188 195.70134 84.44063 196.20134Q84.675 196.68571 85.08125 196.95134Q85.50313 197.21696 85.97188 197.21696Q86.62813 197.21696 87.1125 196.68571Q87.59688 196.13884 87.59688 195.21696Q87.59688 194.32634 87.1125 193.81071Q86.64375 193.29509 85.925 193.29509Q85.20625 193.29509 84.70625 193.81071Q84.22188 194.32634 84.22188 195.15446Z" fill-rule="nonzero"/><path fill="#000000" d="M52.675 157.7747Q52.01875 157.5247 51.690624 157.0872Q51.378124 156.63408 51.378124 156.0247Q51.378124 155.0872 52.05 154.44658Q52.7375 153.80595 53.846874 153.80595Q54.971874 153.80595 55.659374 154.4622Q56.346874 155.11845 56.346874 156.05595Q56.346874 156.6497 56.034374 157.0872Q55.721874 157.5247 55.08125 157.7747Q55.878124 158.0247 56.284374 158.60283Q56.690624 159.18095 56.690624 159.97783Q56.690624 161.07158 55.909374 161.82158Q55.14375 162.57158 53.8625 162.57158Q52.596874 162.57158 51.815624 161.82158Q51.034374 161.07158 51.034374 159.94658Q51.034374 159.10283 51.45625 158.54033Q51.89375 157.97783 52.675 157.7747ZM52.45625 155.97783Q52.45625 156.5872 52.846874 156.97783Q53.253124 157.36845 53.878124 157.36845Q54.4875 157.36845 54.878124 156.99345Q55.26875 156.60283 55.26875 156.04033Q55.26875 155.4622 54.8625 155.07158Q54.45625 154.66533 53.8625 154.66533Q53.253124 154.66533 52.846874 155.05595Q52.45625 155.44658 52.45625 155.97783ZM52.128124 159.94658Q52.128124 160.3997 52.33125 160.82158Q52.55 161.24345 52.971874 161.47783Q53.39375 161.7122 53.878124 161.7122Q54.628124 161.7122 55.1125 161.22783Q55.6125 160.74345 55.6125 159.99345Q55.6125 159.22783 55.1125 158.72783Q54.6125 158.22783 53.846874 158.22783Q53.096874 158.22783 52.6125 158.72783Q52.128124 159.2122 52.128124 159.94658ZM58.64375 162.43095L58.64375 161.22783L59.846874 161.22783L59.846874 162.43095L58.64375 162.43095ZM61.05 158.19658Q61.05 156.66533 61.3625 155.74345Q61.675 154.80595 62.284374 154.30595Q62.909374 153.80595 63.846874 153.80595Q64.53438 153.80595 65.05 154.0872Q65.58125 154.36845 65.925 154.8997Q66.26875 155.41533 66.45625 156.16533Q66.64375 156.91533 66.64375 158.19658Q66.64375 159.7122 66.33125 160.63408Q66.03438 161.55595 65.40938 162.07158Q64.8 162.57158 63.846874 162.57158Q62.6125 162.57158 61.89375 161.68095Q61.05 160.61845 61.05 158.19658ZM62.128124 158.19658Q62.128124 160.30595 62.628124 161.00908Q63.128124 161.7122 63.846874 161.7122Q64.58125 161.7122 65.06563 161.00908Q65.56563 160.30595 65.56563 158.19658Q65.56563 156.07158 65.06563 155.38408Q64.58125 154.68095 63.83125 154.68095Q63.1125 154.68095 62.675 155.29033Q62.128124 156.07158 62.128124 158.19658ZM68.50313 162.43095L68.50313 153.8372L74.70625 153.8372L74.70625 154.85283L69.64375 154.85283L69.64375 157.47783L74.39375 157.47783L74.39375 158.49345L69.64375 158.49345L69.64375 161.41533L74.90938 161.41533L74.90938 162.43095L68.50313 162.43095ZM78.55 161.04033L78.55 158.68095L76.22188 158.68095L76.22188 157.69658L78.55 157.69658L78.55 155.36845L79.55 155.36845L79.55 157.69658L81.89375 157.69658L81.89375 158.68095L79.55 158.68095L79.55 161.04033L78.55 161.04033ZM88.51875 155.94658L87.47188 156.0247Q87.33125 155.3997 87.08125 155.11845Q86.64375 154.66533 86.01875 154.66533Q85.51875 154.66533 85.12813 154.94658Q84.64375 155.32158 84.34688 156.0247Q84.06563 156.7122 84.05 157.99345Q84.425 157.41533 84.97188 157.13408Q85.53438 156.85283 86.14375 156.85283Q87.19063 156.85283 87.925 157.63408Q88.675 158.41533 88.675 159.63408Q88.675 160.44658 88.31563 161.1497Q87.97188 161.8372 87.3625 162.2122Q86.75313 162.57158 85.9875 162.57158Q84.65938 162.57158 83.83125 161.60283Q83.00313 160.63408 83.00313 158.41533Q83.00313 155.91533 83.925 154.79033Q84.72188 153.80595 86.08125 153.80595Q87.09688 153.80595 87.7375 154.38408Q88.39375 154.94658 88.51875 155.94658ZM84.22188 159.6497Q84.22188 160.19658 84.44063 160.69658Q84.675 161.18095 85.08125 161.44658Q85.50313 161.7122 85.97188 161.7122Q86.62813 161.7122 87.1125 161.18095Q87.59688 160.63408 87.59688 159.7122Q87.59688 158.82158 87.1125 158.30595Q86.64375 157.79033 85.925 157.79033Q85.20625 157.79033 84.70625 158.30595Q84.22188 158.82158 84.22188 159.6497Z" fill-rule="nonzero"/><path fill="#000000" d="M55.01875 126.92619L53.971874 126.92619L53.971874 120.20744Q53.58125 120.56682 52.95625 120.94182Q52.346874 121.30119 51.8625 121.47307L51.8625 120.45744Q52.7375 120.03557 53.39375 119.45744Q54.065624 118.86369 54.346874 118.30119L55.01875 118.30119L55.01875 126.92619ZM58.64375 126.92619L58.64375 125.72307L59.846874 125.72307L59.846874 126.92619L58.64375 126.92619ZM61.05 122.69182Q61.05 121.16057 61.3625 120.23869Q61.675 119.30119 62.284374 118.80119Q62.909374 118.30119 63.846874 118.30119Q64.53438 118.30119 65.05 118.58244Q65.58125 118.86369 65.925 119.39494Q66.26875 119.91057 66.45625 120.66057Q66.64375 121.41057 66.64375 122.69182Q66.64375 124.20744 66.33125 125.12932Q66.03438 126.05119 65.40938 126.56682Q64.8 127.06682 63.846874 127.06682Q62.6125 127.06682 61.89375 126.17619Q61.05 125.11369 61.05 122.69182ZM62.128124 122.69182Q62.128124 124.80119 62.628124 125.50432Q63.128124 126.20744 63.846874 126.20744Q64.58125 126.20744 65.06563 125.50432Q65.56563 124.80119 65.56563 122.69182Q65.56563 120.56682 65.06563 119.87932Q64.58125 119.17619 63.83125 119.17619Q63.1125 119.17619 62.675 119.78557Q62.128124 120.56682 62.128124 122.69182ZM68.50313 126.92619L68.50313 118.33244L74.70625 118.33244L74.70625 119.34807L69.64375 119.34807L69.64375 121.97307L74.39375 121.97307L74.39375 122.98869L69.64375 122.98869L69.64375 125.91057L74.90938 125.91057L74.90938 126.92619L68.50313 126.92619ZM78.55 125.53557L78.55 123.17619L76.22188 123.17619L76.22188 122.19182L78.55 122.19182L78.55 119.86369L79.55 119.86369L79.55 122.19182L81.89375 122.19182L81.89375 123.17619L79.55 123.17619L79.55 125.53557L78.55 125.53557ZM83.1125 119.45744L83.1125 118.44182L88.675 118.44182L88.675 119.26994Q87.8625 120.14494 87.05 121.59807Q86.25313 123.03557 85.81563 124.56682Q85.4875 125.64494 85.40938 126.92619L84.31563 126.92619Q84.33125 125.91057 84.70625 124.47307Q85.09688 123.03557 85.8 121.70744Q86.51875 120.37932 87.33125 119.45744L83.1125 119.45744Z" fill-rule="nonzero"/><path fill="#000000" d="M55.01875 91.421425L53.971874 91.421425L53.971874 84.702675Q53.58125 85.06205 52.95625 85.43705Q52.346874 85.796425 51.8625 85.9683L51.8625 84.952675Q52.7375 84.5308 53.39375 83.952675Q54.065624 83.358925 54.346874 82.796425L55.01875 82.796425L55.01875 91.421425ZM58.64375 91.421425L58.64375 90.2183L59.846874 90.2183L59.846874 91.421425L58.64375 91.421425ZM66.59688 90.4058L66.59688 91.421425L60.909374 91.421425Q60.909374 91.046425 61.034374 90.68705Q61.253124 90.108925 61.721874 89.546425Q62.20625 88.983925 63.1125 88.24955Q64.51875 87.0933 65.00313 86.421425Q65.50313 85.74955 65.50313 85.1558Q65.50313 84.5308 65.05 84.108925Q64.59688 83.671425 63.878124 83.671425Q63.1125 83.671425 62.659374 84.12455Q62.20625 84.577675 62.190624 85.390175L61.1125 85.2808Q61.221874 84.06205 61.940624 83.43705Q62.675 82.796425 63.909374 82.796425Q65.14375 82.796425 65.8625 83.483925Q66.58125 84.171425 66.58125 85.18705Q66.58125 85.702675 66.3625 86.202675Q66.15938 86.68705 65.65938 87.24955Q65.175 87.796425 64.05 88.74955Q63.096874 89.546425 62.815624 89.8433Q62.55 90.12455 62.378124 90.4058L66.59688 90.4058ZM68.50313 91.421425L68.50313 82.827675L74.70625 82.827675L74.70625 83.8433L69.64375 83.8433L69.64375 86.4683L74.39375 86.4683L74.39375 87.483925L69.64375 87.483925L69.64375 90.4058L74.90938 90.4058L74.90938 91.421425L68.50313 91.421425ZM78.55 90.0308L78.55 87.671425L76.22188 87.671425L76.22188 86.68705L78.55 86.68705L78.55 84.358925L79.55 84.358925L79.55 86.68705L81.89375 86.68705L81.89375 87.671425L79.55 87.671425L79.55 90.0308L78.55 90.0308ZM83.1125 83.952675L83.1125 82.93705L88.675 82.93705L88.675 83.765175Q87.8625 84.640175 87.05 86.0933Q86.25313 87.5308 85.81563 89.06205Q85.4875 90.140175 85.40938 91.421425L84.31563 91.421425Q84.33125 90.4058 84.70625 88.9683Q85.09688 87.5308 85.8 86.202675Q86.51875 84.87455 87.33125 83.952675L83.1125 83.952675Z" fill-rule="nonzero"/><path fill="#000000" d="M55.01875 55.916668L53.971874 55.916668L53.971874 49.197918Q53.58125 49.557293 52.95625 49.932293Q52.346874 50.291668 51.8625 50.463543L51.8625 49.447918Q52.7375 49.026043 53.39375 48.447918Q54.065624 47.854168 54.346874 47.291668L55.01875 47.291668L55.01875 55.916668ZM58.64375 55.916668L58.64375 54.713543L59.846874 54.713543L59.846874 55.916668L58.64375 55.916668ZM64.425 55.916668L64.425 53.854168L60.70625 53.854168L60.70625 52.885418L64.62813 47.322918L65.4875 47.322918L65.4875 52.885418L66.64375 52.885418L66.64375 53.854168L65.4875 53.854168L65.4875 55.916668L64.425 55.916668ZM64.425 52.885418L64.425 49.026043L61.7375 52.885418L64.425 52.885418ZM68.50313 55.916668L68.50313 47.322918L74.70625 47.322918L74.70625 48.338543L69.64375 48.338543L69.64375 50.963543L74.39375 50.963543L74.39375 51.979168L69.64375 51.979168L69.64375 54.901043L74.90938 54.901043L74.90938 55.916668L68.50313 55.916668ZM78.55 54.526043L78.55 52.166668L76.22188 52.166668L76.22188 51.182293L78.55 51.182293L78.55 48.854168L79.55 48.854168L79.55 51.182293L81.89375 51.182293L81.89375 52.166668L79.55 52.166668L79.55 54.526043L78.55 54.526043ZM83.1125 48.447918L83.1125 47.432293L88.675 47.432293L88.675 48.260418Q87.8625 49.135418 87.05 50.588543Q86.25313 52.026043 85.81563 53.557293Q85.4875 54.635418 85.40938 55.916668L84.31563 55.916668Q84.33125 54.901043 84.70625 53.463543Q85.09688 52.026043 85.8 50.697918Q86.51875 49.369793 87.33125 48.447918L83.1125 48.447918Z" fill-rule="nonzero"/><path fill="#000000" d="M194.42398 317.45L193.3771 317.45L193.3771 310.73126Q192.98648 311.09064 192.36148 311.46564Q191.7521 311.825 191.26773 311.9969L191.26773 310.98126Q192.14273 310.5594 192.79898 309.98126Q193.47086 309.3875 193.7521 308.825L194.42398 308.825L194.42398 317.45Z" fill-rule="nonzero"/><path fill="#000000" d="M335.96875 317.45L334.92188 317.45L334.92188 310.73126Q334.53125 311.09064 333.90625 311.46564Q333.29688 311.825 332.8125 311.9969L332.8125 310.98126Q333.6875 310.5594 334.34375 309.98126Q335.01562 309.3875 335.29688 308.825L335.96875 308.825L335.96875 317.45ZM339.0 313.21564Q339.0 311.6844 339.3125 310.7625Q339.625 309.825 340.23438 309.325Q340.85938 308.825 341.79688 308.825Q342.48438 308.825 343.0 309.10626Q343.53125 309.3875 343.875 309.91876Q344.21875 310.4344 344.40625 311.1844Q344.59375 311.9344 344.59375 313.21564Q344.59375 314.73126 344.28125 315.65314Q343.98438 316.575 343.35938 317.09064Q342.75 317.59064 341.79688 317.59064Q340.5625 317.59064 339.84375 316.7Q339.0 315.6375 339.0 313.21564ZM340.07812 313.21564Q340.07812 315.325 340.57812 316.02814Q341.07812 316.73126 341.79688 316.73126Q342.53125 316.73126 343.01562 316.02814Q343.51562 315.325 343.51562 313.21564Q343.51562 311.09064 343.01562 310.40314Q342.53125 309.7 341.78125 309.7Q341.0625 309.7 340.625 310.3094Q340.07812 311.09064 340.07812 313.21564Z" fill-rule="nonzero"/><path fill="#000000" d="M477.51352 317.45L476.46664 317.45L476.46664 310.73126Q476.07602 311.09064 475.45102 311.46564Q474.84164 311.825 474.35727 311.9969L474.35727 310.98126Q475.23227 310.5594 475.88852 309.98126Q476.5604 309.3875 476.84164 308.825L477.51352 308.825L477.51352 317.45ZM480.54477 313.21564Q480.54477 311.6844 480.85727 310.7625Q481.16977 309.825 481.77914 309.325Q482.40414 308.825 483.34164 308.825Q484.02914 308.825 484.54477 309.10626Q485.07602 309.3875 485.41977 309.91876Q485.76352 310.4344 485.95102 311.1844Q486.13852 311.9344 486.13852 313.21564Q486.13852 314.73126 485.82602 315.65314Q485.52914 316.575 484.90414 317.09064Q484.29477 317.59064 483.34164 317.59064Q482.10727 317.59064 481.38852 316.7Q480.54477 315.6375 480.54477 313.21564ZM481.6229 313.21564Q481.6229 315.325 482.1229 316.02814Q482.6229 316.73126 483.34164 316.73126Q484.07602 316.73126 484.5604 316.02814Q485.0604 315.325 485.0604 313.21564Q485.0604 311.09064 484.5604 310.40314Q484.07602 309.7 483.32602 309.7Q482.60727 309.7 482.16977 310.3094Q481.6229 311.09064 481.6229 313.21564ZM487.54477 313.21564Q487.54477 311.6844 487.85727 310.7625Q488.16977 309.825 488.77914 309.325Q489.40414 308.825 490.34164 308.825Q491.02914 308.825 491.54477 309.10626Q492.07602 309.3875 492.41977 309.91876Q492.76352 310.4344 492.95102 311.1844Q493.13852 311.9344 493.13852 313.21564Q493.13852 314.73126 492.82602 315.65314Q492.52914 316.575 491.90414 317.09064Q491.29477 317.59064 490.34164 317.59064Q489.10727 317.59064 488.38852 316.7Q487.54477 315.6375 487.54477 313.21564ZM488.6229 313.21564Q488.6229 315.325 489.1229 316.02814Q489.6229 316.73126 490.34164 316.73126Q491.07602 316.73126 491.5604 316.02814Q492.0604 315.325 492.0604 313.21564Q492.0604 311.09064 491.5604 310.40314Q491.07602 309.7 490.32602 309.7Q489.60727 309.7 489.16977 310.3094Q488.6229 311.09064 488.6229 313.21564Z" fill-rule="nonzero"/><path fill="#4285f4" d="M208.5 20.55C208.5 19.997715 208.94771 19.55 209.5 19.55L219.5 19.55C220.05229 19.55 220.5 19.997715 220.5 20.55L220.5 30.55C220.5 31.102285 220.05229 31.55 219.5 31.55L209.5 31.55C208.94771 31.55 208.5 31.102285 208.5 30.55Z" fill-rule="nonzero"/><path fill="#1a1a1a" d="M228.48438 29.55L231.78125 20.95625L233.0 20.95625L236.51562 29.55L235.23438 29.55L234.21875 26.940624L230.64062 26.940624L229.6875 29.55L228.48438 29.55ZM230.96875 26.01875L233.875 26.01875L232.98438 23.64375Q232.5625 22.565624 232.375 21.8625Q232.20312 22.690624 231.90625 23.503124L230.96875 26.01875ZM239.01562 29.55L236.65625 23.33125L237.76562 23.33125L239.10938 27.05Q239.3125 27.659374 239.5 28.3Q239.64062 27.815624 239.89062 27.128124L241.28125 23.33125L242.35938 23.33125L240.0 29.55L239.01562 29.55ZM247.54688 27.55L248.64062 27.675Q248.39062 28.628124 247.6875 29.159374Q246.98438 29.690624 245.90625 29.690624Q244.54688 29.690624 243.73438 28.846874Q242.9375 28.003124 242.9375 26.4875Q242.9375 24.925 243.75 24.065624Q244.5625 23.190624 245.84375 23.190624Q247.09375 23.190624 247.875 24.034374Q248.67188 24.878124 248.67188 26.425Q248.67188 26.51875 248.67188 26.70625L244.03125 26.70625Q244.09375 27.7375 244.60938 28.284374Q245.125 28.815624 245.90625 28.815624Q246.48438 28.815624 246.89062 28.51875Q247.3125 28.20625 247.54688 27.55ZM244.09375 25.846874L247.5625 25.846874Q247.5 25.05 247.17188 24.659374Q246.65625 24.05 245.85938 24.05Q245.125 24.05 244.625 24.534374Q244.14062 25.01875 244.09375 25.846874ZM250.28125 29.55L250.28125 23.33125L251.23438 23.33125L251.23438 24.26875Q251.59375 23.6125 251.89062 23.409374Q252.20312 23.190624 252.57812 23.190624Q253.10938 23.190624 253.65625 23.51875L253.29688 24.503124Q252.90625 24.26875 252.53125 24.26875Q252.17188 24.26875 251.89062 24.4875Q251.625 24.690624 251.51562 25.065624Q251.32812 25.628124 251.32812 26.284374L251.32812 29.55L250.28125 29.55ZM258.35938 28.784374Q257.76562 29.284374 257.21875 29.4875Q256.6875 29.690624 256.0625 29.690624Q255.03125 29.690624 254.48438 29.190624Q253.9375 28.690624 253.9375 27.909374Q253.9375 27.45625 254.14062 27.08125Q254.34375 26.690624 254.6875 26.471874Q255.03125 26.2375 255.45312 26.128124Q255.75 26.034374 256.39062 25.95625Q257.65625 25.815624 258.26562 25.596874Q258.26562 25.378124 258.26562 25.33125Q258.26562 24.675 257.96875 24.409374Q257.5625 24.065624 256.76562 24.065624Q256.03125 24.065624 255.67188 24.33125Q255.3125 24.58125 255.14062 25.2375L254.10938 25.096874Q254.25 24.440624 254.57812 24.034374Q254.90625 23.628124 255.51562 23.409374Q256.125 23.190624 256.92188 23.190624Q257.71875 23.190624 258.21875 23.378124Q258.71875 23.565624 258.95312 23.846874Q259.1875 24.128124 259.28125 24.565624Q259.32812 24.83125 259.32812 25.534374L259.32812 26.940624Q259.32812 28.409374 259.39062 28.8Q259.46875 29.190624 259.67188 29.55L258.5625 29.55Q258.40625 29.221874 258.35938 28.784374ZM258.26562 26.425Q257.6875 26.659374 256.54688 26.83125Q255.89062 26.925 255.625 27.05Q255.35938 27.159374 255.20312 27.378124Q255.0625 27.596874 255.0625 27.878124Q255.0625 28.3 255.375 28.58125Q255.70312 28.8625 256.3125 28.8625Q256.92188 28.8625 257.39062 28.596874Q257.875 28.33125 258.09375 27.8625Q258.26562 27.503124 258.26562 26.815624L258.26562 26.425ZM261.09375 30.065624L262.125 30.221874Q262.1875 30.690624 262.48438 30.909374Q262.875 31.20625 263.54688 31.20625Q264.28125 31.20625 264.67188 30.909374Q265.07812 30.6125 265.21875 30.096874Q265.3125 29.76875 265.29688 28.7375Q264.60938 29.55 263.57812 29.55Q262.29688 29.55 261.59375 28.628124Q260.89062 27.690624 260.89062 26.409374Q260.89062 25.51875 261.20312 24.76875Q261.53125 24.003124 262.14062 23.596874Q262.75 23.190624 263.57812 23.190624Q264.6875 23.190624 265.40625 24.08125L265.40625 23.33125L266.375 23.33125L266.375 28.70625Q266.375 30.159374 266.07812 30.76875Q265.78125 31.378124 265.14062 31.721874Q264.5 32.08125 263.5625 32.08125Q262.45312 32.08125 261.76562 31.58125Q261.07812 31.08125 261.09375 30.065624ZM261.96875 26.33125Q261.96875 27.55 262.45312 28.1125Q262.9375 28.675 263.67188 28.675Q264.40625 28.675 264.89062 28.1125Q265.39062 27.55 265.39062 26.3625Q265.39062 25.221874 264.875 24.64375Q264.375 24.065624 263.65625 24.065624Q262.95312 24.065624 262.45312 24.64375Q261.96875 25.20625 261.96875 26.33125ZM272.54688 27.55L273.64062 27.675Q273.39062 28.628124 272.6875 29.159374Q271.98438 29.690624 270.90625 29.690624Q269.54688 29.690624 268.73438 28.846874Q267.9375 28.003124 267.9375 26.4875Q267.9375 24.925 268.75 24.065624Q269.5625 23.190624 270.84375 23.190624Q272.09375 23.190624 272.875 24.034374Q273.67188 24.878124 273.67188 26.425Q273.67188 26.51875 273.67188 26.70625L269.03125 26.70625Q269.09375 27.7375 269.60938 28.284374Q270.125 28.815624 270.90625 28.815624Q271.48438 28.815624 271.89062 28.51875Q272.3125 28.20625 272.54688 27.55ZM269.09375 25.846874L272.5625 25.846874Q272.5 25.05 272.17188 24.659374Q271.65625 24.05 270.85938 24.05Q270.125 24.05 269.625 24.534374Q269.14062 25.01875 269.09375 25.846874Z" fill-rule="nonzero"/><path fill="#ea4335" d="M290.5 20.55C290.5 19.997715 290.94772 19.55 291.5 19.55L301.5 19.55C302.05228 19.55 302.5 19.997715 302.5 20.55L302.5 30.55C302.5 31.102285 302.05228 31.55 301.5 31.55L291.5 31.55C290.94772 31.55 290.5 31.102285 290.5 30.55Z" fill-rule="nonzero"/><path fill="#1a1a1a" d="M311.15625 27.565624L312.17188 27.471874Q312.29688 28.190624 312.65625 28.51875Q313.03125 28.83125 313.59375 28.83125Q314.07812 28.83125 314.4375 28.6125Q314.8125 28.378124 315.04688 28.01875Q315.28125 27.64375 315.4375 27.01875Q315.59375 26.378124 315.59375 25.721874Q315.59375 25.64375 315.59375 25.503124Q315.28125 26.003124 314.73438 26.33125Q314.1875 26.64375 313.54688 26.64375Q312.46875 26.64375 311.73438 25.878124Q311.0 25.096874 311.0 23.83125Q311.0 22.51875 311.76562 21.721874Q312.54688 20.925 313.70312 20.925Q314.53125 20.925 315.21875 21.378124Q315.92188 21.83125 316.28125 22.675Q316.64062 23.503124 316.64062 25.08125Q316.64062 26.721874 316.28125 27.70625Q315.9375 28.675 315.21875 29.190624Q314.51562 29.690624 313.57812 29.690624Q312.5625 29.690624 311.92188 29.14375Q311.28125 28.58125 311.15625 27.565624ZM315.46875 23.76875Q315.46875 22.8625 314.98438 22.33125Q314.51562 21.8 313.82812 21.8Q313.125 21.8 312.59375 22.378124Q312.07812 22.940624 312.07812 23.8625Q312.07812 24.675 312.57812 25.190624Q313.07812 25.70625 313.79688 25.70625Q314.53125 25.70625 315.0 25.190624Q315.46875 24.675 315.46875 23.76875ZM318.0 25.315624Q318.0 23.784374 318.3125 22.8625Q318.625 21.925 319.23438 21.425Q319.85938 20.925 320.79688 20.925Q321.48438 20.925 322.0 21.20625Q322.53125 21.4875 322.875 22.01875Q323.21875 22.534374 323.40625 23.284374Q323.59375 24.034374 323.59375 25.315624Q323.59375 26.83125 323.28125 27.753124Q322.98438 28.675 322.35938 29.190624Q321.75 29.690624 320.79688 29.690624Q319.5625 29.690624 318.84375 28.8Q318.0 27.7375 318.0 25.315624ZM319.07812 25.315624Q319.07812 27.425 319.57812 28.128124Q320.07812 28.83125 320.79688 28.83125Q321.53125 28.83125 322.01562 28.128124Q322.51562 27.425 322.51562 25.315624Q322.51562 23.190624 322.01562 22.503124Q321.53125 21.8 320.78125 21.8Q320.0625 21.8 319.625 22.409374Q319.07812 23.190624 319.07812 25.315624ZM327.59375 28.6125L327.75 29.534374Q327.29688 29.628124 326.95312 29.628124Q326.375 29.628124 326.0625 29.45625Q325.75 29.26875 325.60938 28.971874Q325.48438 28.675 325.48438 27.721874L325.48438 24.14375L324.71875 24.14375L324.71875 23.33125L325.48438 23.33125L325.48438 21.784374L326.53125 21.159374L326.53125 23.33125L327.59375 23.33125L327.59375 24.14375L326.53125 24.14375L326.53125 27.784374Q326.53125 28.2375 326.57812 28.3625Q326.64062 28.4875 326.76562 28.565624Q326.89062 28.64375 327.125 28.64375Q327.3125 28.64375 327.59375 28.6125ZM328.29688 29.55L328.29688 20.95625L329.34375 20.95625L329.34375 24.034374Q330.07812 23.190624 331.20312 23.190624Q331.90625 23.190624 332.40625 23.471874Q332.92188 23.7375 333.14062 24.221874Q333.35938 24.690624 333.35938 25.6125L333.35938 29.55L332.3125 29.55L332.3125 25.6125Q332.3125 24.815624 331.96875 24.45625Q331.625 24.096874 331.0 24.096874Q330.53125 24.096874 330.10938 24.346874Q329.70312 24.58125 329.51562 25.003124Q329.34375 25.409374 329.34375 26.14375L329.34375 29.55L328.29688 29.55ZM338.29688 31.940624L338.29688 23.33125L339.25 23.33125L339.25 24.128124Q339.59375 23.659374 340.01562 23.425Q340.45312 23.190624 341.0625 23.190624Q341.85938 23.190624 342.46875 23.596874Q343.07812 24.003124 343.375 24.753124Q343.6875 25.503124 343.6875 26.39375Q343.6875 27.346874 343.34375 28.1125Q343.01562 28.878124 342.35938 29.284374Q341.70312 29.690624 340.98438 29.690624Q340.45312 29.690624 340.03125 29.471874Q339.60938 29.2375 339.34375 28.909374L339.34375 31.940624L338.29688 31.940624ZM339.25 26.471874Q339.25 27.675 339.73438 28.253124Q340.21875 28.815624 340.90625 28.815624Q341.60938 28.815624 342.10938 28.221874Q342.60938 27.628124 342.60938 26.378124Q342.60938 25.190624 342.125 24.6125Q341.64062 24.01875 340.95312 24.01875Q340.28125 24.01875 339.76562 24.64375Q339.25 25.26875 339.25 26.471874ZM349.54688 27.55L350.64062 27.675Q350.39062 28.628124 349.6875 29.159374Q348.98438 29.690624 347.90625 29.690624Q346.54688 29.690624 345.73438 28.846874Q344.9375 28.003124 344.9375 26.4875Q344.9375 24.925 345.75 24.065624Q346.5625 23.190624 347.84375 23.190624Q349.09375 23.190624 349.875 24.034374Q350.67188 24.878124 350.67188 26.425Q350.67188 26.51875 350.67188 26.70625L346.03125 26.70625Q346.09375 27.7375 346.60938 28.284374Q347.125 28.815624 347.90625 28.815624Q348.48438 28.815624 348.89062 28.51875Q349.3125 28.20625 349.54688 27.55ZM346.09375 25.846874L349.5625 25.846874Q349.5 25.05 349.17188 24.659374Q348.65625 24.05 347.85938 24.05Q347.125 24.05 346.625 24.534374Q346.14062 25.01875 346.09375 25.846874ZM352.28125 29.55L352.28125 23.33125L353.23438 23.33125L353.23438 24.26875Q353.59375 23.6125 353.89062 23.409374Q354.20312 23.190624 354.57812 23.190624Q355.10938 23.190624 355.65625 23.51875L355.29688 24.503124Q354.90625 24.26875 354.53125 24.26875Q354.17188 24.26875 353.89062 24.4875Q353.625 24.690624 353.51562 25.065624Q353.32812 25.628124 353.32812 26.284374L353.32812 29.55L352.28125 29.55ZM360.35938 27.26875L361.39062 27.409374Q361.21875 28.471874 360.51562 29.08125Q359.8125 29.690624 358.79688 29.690624Q357.51562 29.690624 356.73438 28.8625Q355.96875 28.01875 355.96875 26.45625Q355.96875 25.45625 356.29688 24.70625Q356.64062 23.940624 357.3125 23.565624Q358.0 23.190624 358.8125 23.190624Q359.8125 23.190624 360.45312 23.70625Q361.10938 24.20625 361.29688 25.159374L360.26562 25.315624Q360.125 24.690624 359.75 24.378124Q359.375 24.05 358.84375 24.05Q358.04688 24.05 357.54688 24.628124Q357.04688 25.190624 357.04688 26.425Q357.04688 27.690624 357.53125 28.253124Q358.01562 28.815624 358.78125 28.815624Q359.40625 28.815624 359.8125 28.440624Q360.23438 28.065624 360.35938 27.26875ZM366.54688 27.55L367.64062 27.675Q367.39062 28.628124 366.6875 29.159374Q365.98438 29.690624 364.90625 29.690624Q363.54688 29.690624 362.73438 28.846874Q361.9375 28.003124 361.9375 26.4875Q361.9375 24.925 362.75 24.065624Q363.5625 23.190624 364.84375 23.190624Q366.09375 23.190624 366.875 24.034374Q367.67188 24.878124 367.67188 26.425Q367.67188 26.51875 367.67188 26.70625L363.03125 26.70625Q363.09375 27.7375 363.60938 28.284374Q364.125 28.815624 364.90625 28.815624Q365.48438 28.815624 365.89062 28.51875Q366.3125 28.20625 366.54688 27.55ZM363.09375 25.846874L366.5625 25.846874Q366.5 25.05 366.17188 24.659374Q365.65625 24.05 364.85938 24.05Q364.125 24.05 363.625 24.534374Q363.14062 25.01875 363.09375 25.846874ZM369.29688 29.55L369.29688 23.33125L370.23438 23.33125L370.23438 24.20625Q370.92188 23.190624 372.21875 23.190624Q372.78125 23.190624 373.25 23.39375Q373.73438 23.596874 373.96875 23.925Q374.20312 24.253124 374.29688 24.690624Q374.34375 24.9875 374.34375 25.721874L374.34375 29.55L373.29688 29.55L373.29688 25.76875Q373.29688 25.1125 373.17188 24.8Q373.04688 24.4875 372.73438 24.3Q372.42188 24.096874 372.0 24.096874Q371.32812 24.096874 370.82812 24.534374Q370.34375 24.95625 370.34375 26.14375L370.34375 29.55L369.29688 29.55ZM378.59375 28.6125L378.75 29.534374Q378.29688 29.628124 377.95312 29.628124Q377.375 29.628124 377.0625 29.45625Q376.75 29.26875 376.60938 28.971874Q376.48438 28.675 376.48438 27.721874L376.48438 24.14375L375.71875 24.14375L375.71875 23.33125L376.48438 23.33125L376.48438 21.784374L377.53125 21.159374L377.53125 23.33125L378.59375 23.33125L378.59375 24.14375L377.53125 24.14375L377.53125 27.784374Q377.53125 28.2375 377.57812 28.3625Q377.64062 28.4875 377.76562 28.565624Q377.89062 28.64375 378.125 28.64375Q378.3125 28.64375 378.59375 28.6125ZM379.29688 22.175L379.29688 20.95625L380.35938 20.95625L380.35938 22.175L379.29688 22.175ZM379.29688 29.55L379.29688 23.33125L380.35938 23.33125L380.35938 29.55L379.29688 29.55ZM382.26562 29.55L382.26562 20.95625L383.32812 20.95625L383.32812 29.55L382.26562 29.55ZM389.54688 27.55L390.64062 27.675Q390.39062 28.628124 389.6875 29.159374Q388.98438 29.690624 387.90625 29.690624Q386.54688 29.690624 385.73438 28.846874Q384.9375 28.003124 384.9375 26.4875Q384.9375 24.925 385.75 24.065624Q386.5625 23.190624 387.84375 23.190624Q389.09375 23.190624 389.875 24.034374Q390.67188 24.878124 390.67188 26.425Q390.67188 26.51875 390.67188 26.70625L386.03125 26.70625Q386.09375 27.7375 386.60938 28.284374Q387.125 28.815624 387.90625 28.815624Q388.48438 28.815624 388.89062 28.51875Q389.3125 28.20625 389.54688 27.55ZM386.09375 25.846874L389.5625 25.846874Q389.5 25.05 389.17188 24.659374Q388.65625 24.05 387.85938 24.05Q387.125 24.05 386.625 24.534374Q386.14062 25.01875 386.09375 25.846874Z" fill-rule="nonzero"/></svg>