<svg version="1.1" viewBox="0.0 0.0 600.0 371.0" fill="none" stroke="none" stroke-linecap="square" stroke-miterlimit="10" width="600" height="371" xmlns:xlink="http://www.w3.org/1999/xlink" xmlns="http://www.w3.org/2000/svg"><path fill="#ffffff" d="M0 0L600.0 0L600.0 371.0L0 371.0L0 0Z" fill-rule="nonzero"/><path stroke="#cccccc" stroke-width="1.0" stroke-linecap="butt" d="M112.5 300.5L581.5 300.5" fill-rule="nonzero"/><path stroke="#cccccc" stroke-width="1.0" stroke-linecap="butt" d="M112.5 243.5L581.5 243.5" fill-rule="nonzero"/><path stroke="#cccccc" stroke-width="1.0" stroke-linecap="butt" d="M112.5 218.5L581.5 218.5" fill-rule="nonzero"/><path stroke="#cccccc" stroke-width="1.0" stroke-linecap="butt" d="M112.5 160.5L581.5 160.5" fill-rule="nonzero"/><path stroke="#cccccc" stroke-width="1.0" stroke-linecap="butt" d="M112.5 136.5L581.5 136.5" fill-rule="nonzero"/><path stroke="#cccccc" stroke-width="1.0" stroke-linecap="butt" d="M112.5 78.5L581.5 78.5" fill-rule="nonzero"/><path stroke="#cccccc" stroke-width="1.0" stroke-linecap="butt" d="M112.5 54.5L581.5 54.5" fill-rule="nonzero"/><clipPath id="id_0"><path d="M112.55 51.916668L581.45 51.916668L581.45 300.45L112.55 300.45L112.55 51.916668Z" clip-rule="nonzero"/></clipPath><path stroke="#000000" stroke-width="0.0" stroke-linecap="butt" stroke-opacity="0.0" clip-path="url(#id_0)" d="M206.0 300.0L162.0 300.0L162.0 268.0C162.0 266.89542 162.89543 266.0 164.0 266.0L204.0 266.0C205.10457 266.0 206.0 266.89542 206.0 268.0Z" fill-rule="nonzero"/><path fill="#4285f4" clip-path="url(#id_0)" d="M206.0 300.0L162.0 300.0L162.0 268.0C162.0 266.89542 162.89543 266.0 164.0 266.0L204.0 266.0C205.10457 266.0 206.0 266.89542 206.0 268.0Z" fill-rule="nonzero"/><path stroke="#000000" stroke-width="0.0" stroke-linecap="butt" stroke-opacity="0.0" clip-path="url(#id_0)" d="M346.0 300.0L302.0 300.0L302.0 171.0C302.0 169.89543 302.89542 169.0 304.0 169.0L344.0 169.0C345.10458 169.0 346.0 169.89543 346.0 171.0Z" fill-rule="nonzero"/><path fill="#4285f4" clip-path="url(#id_0)" d="M346.0 300.0L302.0 300.0L302.0 171.0C302.0 169.89543 302.89542 169.0 304.0 169.0L344.0 169.0C345.10458 169.0 346.0 169.89543 346.0 171.0Z" fill-rule="nonzero"/><path stroke="#000000" stroke-width="0.0" stroke-linecap="butt" stroke-opacity="0.0" clip-path="url(#id_0)" d="M486.0 300.0L442.0 300.0L442.0 70.0C442.0 68.89543 442.89542 68.0 444.0 68.0L484.0 68.0C485.10458 68.0 486.0 68.89543 486.0 70.0Z" fill-rule="nonzero"/><path fill="#4285f4" clip-path="url(#id_0)" d="M486.0 300.0L442.0 300.0L442.0 70.0C442.0 68.89543 442.89542 68.0 444.0 68.0L484.0 68.0C485.10458 68.0 486.0 68.89543 486.0 70.0Z" fill-rule="nonzero"/><path stroke="#000000" stroke-width="0.0" stroke-linecap="butt" stroke-opacity="0.0" clip-path="url(#id_0)" d="M251.0 300.0L207.0 300.0L207.0 267.0C207.0 265.89542 207.89543 265.0 209.0 265.0L249.0 265.0C250.10457 265.0 251.0 265.89542 251.0 267.0Z" fill-rule="nonzero"/><path fill="#ea4335" clip-path="url(#id_0)" d="M251.0 300.0L207.0 300.0L207.0 267.0C207.0 265.89542 207.89543 265.0 209.0 265.0L249.0 265.0C250.10457 265.0 251.0 265.89542 251.0 267.0Z" fill-rule="nonzero"/><path stroke="#000000" stroke-width="0.0" stroke-linecap="butt" stroke-opacity="0.0" clip-path="url(#id_0)" d="M391.0 300.0L347.0 300.0L347.0 145.0C347.0 143.89543 347.89542 143.0 349.0 143.0L389.0 143.0C390.10458 143.0 391.0 143.89543 391.0 145.0Z" fill-rule="nonzero"/><path fill="#ea4335" clip-path="url(#id_0)" d="M391.0 300.0L347.0 300.0L347.0 145.0C347.0 143.89543 347.89542 143.0 349.0 143.0L389.0 143.0C390.10458 143.0 391.0 143.89543 391.0 145.0Z" fill-rule="nonzero"/><path stroke="#000000" stroke-width="0.0" stroke-linecap="butt" stroke-opacity="0.0" clip-path="url(#id_0)" d="M531.0 300.0L487.0 300.0L487.0 54.0C487.0 52.89543 487.89542 52.0 489.0 52.0L529.0 52.0C530.10455 52.0 531.0 52.89543 531.0 54.0Z" fill-rule="nonzero"/><path fill="#ea4335" clip-path="url(#id_0)" d="M531.0 300.0L487.0 300.0L487.0 54.0C487.0 52.89543 487.89542 52.0 489.0 52.0L529.0 52.0C530.10455 52.0 531.0 52.89543 531.0 54.0Z" fill-rule="nonzero"/><path fill="#000000" d="M295.42188 349.45L295.42188 340.85626L296.57812 340.85626L301.09375 347.60626L301.09375 340.85626L302.1875 340.85626L302.1875 349.45L301.01562 349.45L296.5 342.7L296.5 349.45L295.42188 349.45ZM308.375 349.45L308.375 348.52814Q307.64062 349.59064 306.39062 349.59064Q305.84375 349.59064 305.35938 349.3875Q304.89062 349.16876 304.65625 348.85626Q304.42188 348.52814 304.32812 348.0594Q304.26562 347.7625 304.26562 347.075L304.26562 343.23126L305.32812 343.23126L305.32812 346.6844Q305.32812 347.4969 305.39062 347.79376Q305.48438 348.2 305.79688 348.45Q306.125 348.6844 306.60938 348.6844Q307.07812 348.6844 307.48438 348.45Q307.90625 348.2 308.07812 347.77814Q308.26562 347.35626 308.26562 346.5594L308.26562 343.23126L309.3125 343.23126L309.3125 349.45L308.375 349.45ZM311.29688 349.45L311.29688 343.23126L312.23438 343.23126L312.23438 344.10626Q312.53125 343.6375 313.01562 343.3719Q313.5 343.09064 314.125 343.09064Q314.8125 343.09064 315.25 343.3719Q315.70312 343.65314 315.875 344.16876Q316.625 343.09064 317.79688 343.09064Q318.73438 343.09064 319.21875 343.60626Q319.71875 344.10626 319.71875 345.1844L319.71875 349.45L318.67188 349.45L318.67188 345.52814Q318.67188 344.90314 318.5625 344.6219Q318.46875 344.34064 318.20312 344.16876Q317.9375 343.9969 317.5625 343.9969Q316.90625 343.9969 316.46875 344.4344Q316.04688 344.8719 316.04688 345.84064L316.04688 349.45L314.98438 349.45L314.98438 345.40314Q314.98438 344.7 314.71875 344.35626Q314.46875 343.9969 313.89062 343.9969Q313.4375 343.9969 313.0625 344.23126Q312.6875 344.46564 312.51562 344.91876Q312.34375 345.3719 312.34375 346.21564L312.34375 349.45L311.29688 349.45ZM322.26562 349.45L321.28125 349.45L321.28125 340.85626L322.34375 340.85626L322.34375 343.91876Q323.01562 343.09064 324.04688 343.09064Q324.625 343.09064 325.125 343.325Q325.64062 343.54376 325.96875 343.96564Q326.3125 344.3875 326.5 344.98126Q326.6875 345.575 326.6875 346.2469Q326.6875 347.84064 325.89062 348.71564Q325.09375 349.59064 324.0 349.59064Q322.89062 349.59064 322.26562 348.66876L322.26562 349.45ZM322.25 346.29376Q322.25 347.40314 322.5625 347.90314Q323.0625 348.71564 323.90625 348.71564Q324.59375 348.71564 325.09375 348.1219Q325.60938 347.52814 325.60938 346.325Q325.60938 345.10626 325.125 344.52814Q324.64062 343.95 323.95312 343.95Q323.26562 343.95 322.75 344.5594Q322.25 345.15314 322.25 346.29376ZM332.54688 347.45L333.64062 347.575Q333.39062 348.52814 332.6875 349.0594Q331.98438 349.59064 330.90625 349.59064Q329.54688 349.59064 328.73438 348.7469Q327.9375 347.90314 327.9375 346.3875Q327.9375 344.825 328.75 343.96564Q329.5625 343.09064 330.84375 343.09064Q332.09375 343.09064 332.875 343.9344Q333.67188 344.77814 333.67188 346.325Q333.67188 346.41876 333.67188 346.60626L329.03125 346.60626Q329.09375 347.6375 329.60938 348.1844Q330.125 348.71564 330.90625 348.71564Q331.48438 348.71564 331.89062 348.41876Q332.3125 348.10626 332.54688 347.45ZM329.09375 345.7469L332.5625 345.7469Q332.5 344.95 332.17188 344.5594Q331.65625 343.95 330.85938 343.95Q330.125 343.95 329.625 344.4344Q329.14062 344.91876 329.09375 345.7469ZM335.28125 349.45L335.28125 343.23126L336.23438 343.23126L336.23438 344.16876Q336.59375 343.5125 336.89062 343.3094Q337.20312 343.09064 337.57812 343.09064Q338.10938 343.09064 338.65625 343.41876L338.29688 344.40314Q337.90625 344.16876 337.53125 344.16876Q337.17188 344.16876 336.89062 344.3875Q336.625 344.59064 336.51562 344.96564Q336.32812 345.52814 336.32812 346.1844L336.32812 349.45L335.28125 349.45ZM341.90625 346.34064Q341.90625 344.60626 342.85938 343.77814Q343.65625 343.09064 344.8125 343.09064Q346.09375 343.09064 346.90625 343.9344Q347.73438 344.7625 347.73438 346.2469Q347.73438 347.45 347.375 348.1375Q347.01562 348.825 346.3125 349.21564Q345.625 349.59064 344.8125 349.59064Q343.51562 349.59064 342.70312 348.7625Q341.90625 347.91876 341.90625 346.34064ZM342.98438 346.34064Q342.98438 347.52814 343.5 348.1219Q344.03125 348.71564 344.8125 348.71564Q345.60938 348.71564 346.125 348.1219Q346.64062 347.52814 346.64062 346.3094Q346.64062 345.15314 346.10938 344.5594Q345.59375 343.96564 344.8125 343.96564Q344.03125 343.96564 343.5 344.5594Q342.98438 345.1375 342.98438 346.34064ZM349.54688 349.45L349.54688 344.04376L348.60938 344.04376L348.60938 343.23126L349.54688 343.23126L349.54688 342.5594Q349.54688 341.9344 349.65625 341.6375Q349.8125 341.21564 350.1875 340.96564Q350.57812 340.71564 351.26562 340.71564Q351.71875 340.71564 352.25 340.825L352.09375 341.73126Q351.76562 341.6844 351.46875 341.6844Q350.98438 341.6844 350.78125 341.8875Q350.59375 342.09064 350.59375 342.65314L350.59375 343.23126L351.8125 343.23126L351.8125 344.04376L350.59375 344.04376L350.59375 349.45L349.54688 349.45ZM357.60938 349.45L357.60938 341.8719L354.78125 341.8719L354.78125 340.85626L361.59375 340.85626L361.59375 341.8719L358.75 341.8719L358.75 349.45L357.60938 349.45ZM362.29688 349.45L362.29688 340.85626L363.34375 340.85626L363.34375 343.9344Q364.07812 343.09064 365.20312 343.09064Q365.90625 343.09064 366.40625 343.3719Q366.92188 343.6375 367.14062 344.1219Q367.35938 344.59064 367.35938 345.5125L367.35938 349.45L366.3125 349.45L366.3125 345.5125Q366.3125 344.71564 365.96875 344.35626Q365.625 343.9969 365.0 343.9969Q364.53125 343.9969 364.10938 344.2469Q363.70312 344.48126 363.51562 344.90314Q363.34375 345.3094 363.34375 346.04376L363.34375 349.45L362.29688 349.45ZM369.28125 349.45L369.28125 343.23126L370.23438 343.23126L370.23438 344.16876Q370.59375 343.5125 370.89062 343.3094Q371.20312 343.09064 371.57812 343.09064Q372.10938 343.09064 372.65625 343.41876L372.29688 344.40314Q371.90625 344.16876 371.53125 344.16876Q371.17188 344.16876 370.89062 344.3875Q370.625 344.59064 370.51562 344.96564Q370.32812 345.52814 370.32812 346.1844L370.32812 349.45L369.28125 349.45ZM377.54688 347.45L378.64062 347.575Q378.39062 348.52814 377.6875 349.0594Q376.98438 349.59064 375.90625 349.59064Q374.54688 349.59064 373.73438 348.7469Q372.9375 347.90314 372.9375 346.3875Q372.9375 344.825 373.75 343.96564Q374.5625 343.09064 375.84375 343.09064Q377.09375 343.09064 377.875 343.9344Q378.67188 344.77814 378.67188 346.325Q378.67188 346.41876 378.67188 346.60626L374.03125 346.60626Q374.09375 347.6375 374.60938 348.1844Q375.125 348.71564 375.90625 348.71564Q376.48438 348.71564 376.89062 348.41876Q377.3125 348.10626 377.54688 347.45ZM374.09375 345.7469L377.5625 345.7469Q377.5 344.95 377.17188 344.5594Q376.65625 343.95 375.85938 343.95Q375.125 343.95 374.625 344.4344Q374.14062 344.91876 374.09375 345.7469ZM384.35938 348.6844Q383.76562 349.1844 383.21875 349.3875Q382.6875 349.59064 382.0625 349.59064Q381.03125 349.59064 380.48438 349.09064Q379.9375 348.59064 379.9375 347.8094Q379.9375 347.35626 380.14062 346.98126Q380.34375 346.59064 380.6875 346.3719Q381.03125 346.1375 381.45312 346.02814Q381.75 345.9344 382.39062 345.85626Q383.65625 345.71564 384.26562 345.4969Q384.26562 345.27814 384.26562 345.23126Q384.26562 344.575 383.96875 344.3094Q383.5625 343.96564 382.76562 343.96564Q382.03125 343.96564 381.67188 344.23126Q381.3125 344.48126 381.14062 345.1375L380.10938 344.9969Q380.25 344.34064 380.57812 343.9344Q380.90625 343.52814 381.51562 343.3094Q382.125 343.09064 382.92188 343.09064Q383.71875 343.09064 384.21875 343.27814Q384.71875 343.46564 384.95312 343.7469Q385.1875 344.02814 385.28125 344.46564Q385.32812 344.73126 385.32812 345.4344L385.32812 346.84064Q385.32812 348.3094 385.39062 348.7Q385.46875 349.09064 385.67188 349.45L384.5625 349.45Q384.40625 349.1219 384.35938 348.6844ZM384.26562 346.325Q383.6875 346.5594 382.54688 346.73126Q381.89062 346.825 381.625 346.95Q381.35938 347.0594 381.20312 347.27814Q381.0625 347.4969 381.0625 347.77814Q381.0625 348.2 381.375 348.48126Q381.70312 348.7625 382.3125 348.7625Q382.92188 348.7625 383.39062 348.4969Q383.875 348.23126 384.09375 347.7625Q384.26562 347.40314 384.26562 346.71564L384.26562 346.325ZM391.32812 349.45L391.32812 348.66876Q390.73438 349.59064 389.59375 349.59064Q388.84375 349.59064 388.21875 349.1844Q387.59375 348.7625 387.25 348.02814Q386.90625 347.29376 386.90625 346.34064Q386.90625 345.41876 387.21875 344.65314Q387.53125 343.8875 388.15625 343.4969Q388.78125 343.09064 389.54688 343.09064Q390.10938 343.09064 390.54688 343.325Q390.98438 343.5594 391.26562 343.9344L391.26562 340.85626L392.3125 340.85626L392.3125 349.45L391.32812 349.45ZM388.0 346.34064Q388.0 347.54376 388.5 348.1375Q389.0 348.71564 389.6875 348.71564Q390.375 348.71564 390.85938 348.15314Q391.34375 347.59064 391.34375 346.4344Q391.34375 345.15314 390.84375 344.5594Q390.35938 343.96564 389.64062 343.96564Q388.9375 343.96564 388.46875 344.54376Q388.0 345.10626 388.0 346.34064ZM393.875 347.59064L394.90625 347.4344Q395.0 348.0594 395.39062 348.3875Q395.79688 348.71564 396.53125 348.71564Q397.25 348.71564 397.59375 348.4344Q397.95312 348.1375 397.95312 347.73126Q397.95312 347.3719 397.64062 347.16876Q397.42188 347.02814 396.5625 346.8094Q395.40625 346.5125 394.95312 346.3094Q394.51562 346.09064 394.28125 345.71564Q394.04688 345.34064 394.04688 344.8719Q394.04688 344.46564 394.23438 344.10626Q394.42188 343.7469 394.75 343.5125Q395.0 343.34064 395.42188 343.21564Q395.84375 343.09064 396.34375 343.09064Q397.0625 343.09064 397.60938 343.3094Q398.17188 343.5125 398.4375 343.8719Q398.70312 344.23126 398.79688 344.825L397.76562 344.96564Q397.70312 344.4969 397.35938 344.23126Q397.03125 343.95 396.40625 343.95Q395.6875 343.95 395.375 344.2Q395.0625 344.4344 395.0625 344.7625Q395.0625 344.96564 395.1875 345.1219Q395.32812 345.29376 395.59375 345.40314Q395.75 345.46564 396.53125 345.66876Q397.65625 345.98126 398.09375 346.16876Q398.53125 346.35626 398.78125 346.71564Q399.03125 347.075 399.03125 347.6219Q399.03125 348.15314 398.71875 348.6219Q398.42188 349.075 397.84375 349.34064Q397.26562 349.59064 396.53125 349.59064Q395.3125 349.59064 394.67188 349.09064Q394.04688 348.575 393.875 347.59064Z" fill-rule="nonzero"/><path fill="#000000" d="M29.550013 233.57396L21.971888 233.57396L21.971888 236.40208L20.956263 236.40208L20.956263 229.58958L21.971888 229.58958L21.971888 232.43333L29.550013 232.43333L29.550013 233.57396ZM22.175013 228.88646L20.956263 228.88646L20.956263 227.82396L22.175013 227.82396L22.175013 228.88646ZM29.550013 228.88646L23.331263 228.88646L23.331263 227.82396L29.550013 227.82396L29.550013 228.88646ZM29.550013 225.88646L23.331263 225.88646L23.331263 224.94896L24.206263 224.94896Q23.737513 224.65208 23.471888 224.16771Q23.190638 223.68333 23.190638 223.05833Q23.190638 222.37083 23.471888 221.93333Q23.753138 221.48021 24.268763 221.30833Q23.190638 220.55833 23.190638 219.38646Q23.190638 218.44896 23.706263 217.96458Q24.206263 217.46458 25.284388 217.46458L29.550013 217.46458L29.550013 218.51146L25.628138 218.51146Q25.003138 218.51146 24.721888 218.62083Q24.440638 218.71458 24.268763 218.98021Q24.096888 219.24583 24.096888 219.62083Q24.096888 220.27708 24.534388 220.71458Q24.971888 221.13646 25.940638 221.13646L29.550013 221.13646L29.550013 222.19896L25.503138 222.19896Q24.800013 222.19896 24.456263 222.46458Q24.096888 222.71458 24.096888 223.29271Q24.096888 223.74583 24.331263 224.12083Q24.565638 224.49583 25.018763 224.66771Q25.471888 224.83958 26.315638 224.83958L29.550013 224.83958L29.550013 225.88646ZM27.550013 211.63646L27.675013 210.54271Q28.628138 210.79271 29.159388 211.49583Q29.690638 212.19896 29.690638 213.27708Q29.690638 214.63646 28.846888 215.44896Q28.003138 216.24583 26.487513 216.24583Q24.925013 216.24583 24.065638 215.43333Q23.190638 214.62083 23.190638 213.33958Q23.190638 212.08958 24.034388 211.30833Q24.878138 210.51146 26.425013 210.51146Q26.518763 210.51146 26.706263 210.51146L26.706263 215.15208Q27.737513 215.08958 28.284388 214.57396Q28.815638 214.05833 28.815638 213.27708Q28.815638 212.69896 28.518763 212.29271Q28.206263 211.87083 27.550013 211.63646ZM25.846888 215.08958L25.846888 211.62083Q25.050013 211.68333 24.659388 212.01146Q24.050013 212.52708 24.050013 213.32396Q24.050013 214.05833 24.534388 214.55833Q25.018763 215.04271 25.846888 215.08958ZM32.08126 203.87083Q30.971888 204.74583 29.503138 205.35521Q28.018763 205.94896 26.440638 205.94896Q25.050013 205.94896 23.768763 205.51146Q22.284388 204.98021 20.815638 203.87083L20.815638 203.12083Q22.034388 203.82396 22.550013 204.05833Q23.362513 204.41771 24.237513 204.62083Q25.331263 204.87083 26.440638 204.87083Q29.268763 204.87083 32.08126 203.12083L32.08126 203.87083ZM29.550013 201.88646L23.331263 201.88646L23.331263 200.94896L24.206263 200.94896Q23.737513 200.65208 23.471888 200.16771Q23.190638 199.68333 23.190638 199.05833Q23.190638 198.37083 23.471888 197.93333Q23.753138 197.48021 24.268763 197.30833Q23.190638 196.55833 23.190638 195.38646Q23.190638 194.44896 23.706263 193.96458Q24.206263 193.46458 25.284388 193.46458L29.550013 193.46458L29.550013 194.51146L25.628138 194.51146Q25.003138 194.51146 24.721888 194.62083Q24.440638 194.71458 24.268763 194.98021Q24.096888 195.24583 24.096888 195.62083Q24.096888 196.27708 24.534388 196.71458Q24.971888 197.13646 25.940638 197.13646L29.550013 197.13646L29.550013 198.19896L25.503138 198.19896Q24.800013 198.19896 24.456263 198.46458Q24.096888 198.71458 24.096888 199.29271Q24.096888 199.74583 24.331263 200.12083Q24.565638 200.49583 25.018763 200.66771Q25.471888 200.83958 26.315638 200.83958L29.550013 200.83958L29.550013 201.88646ZM22.175013 191.88646L20.956263 191.88646L20.956263 190.82396L22.175013 190.82396L22.175013 191.88646ZM29.550013 191.88646L23.331263 191.88646L23.331263 190.82396L29.550013 190.82396L29.550013 191.88646ZM27.268763 184.82396L27.409388 183.79271Q28.471888 183.96458 29.081263 184.66771Q29.690638 185.37083 29.690638 186.38646Q29.690638 187.66771 28.862513 188.44896Q28.018763 189.21458 26.456263 189.21458Q25.456263 189.21458 24.706263 188.88646Q23.940638 188.54271 23.565638 187.87083Q23.190638 187.18333 23.190638 186.37083Q23.190638 185.37083 23.706263 184.73021Q24.206263 184.07396 25.159388 183.88646L25.315638 184.91771Q24.690638 185.05833 24.378138 185.43333Q24.050013 185.80833 24.050013 186.33958Q24.050013 187.13646 24.628138 187.63646Q25.190638 188.13646 26.425013 188.13646Q27.690638 188.13646 28.253138 187.65208Q28.815638 187.16771 28.815638 186.40208Q28.815638 185.77708 28.440638 185.37083Q28.065638 184.94896 27.268763 184.82396ZM29.550013 182.90208L23.331263 182.90208L23.331263 181.94896L24.268763 181.94896Q23.612513 181.58958 23.409388 181.29271Q23.190638 180.98021 23.190638 180.60521Q23.190638 180.07396 23.518763 179.52708L24.503138 179.88646Q24.268763 180.27708 24.268763 180.65208Q24.268763 181.01146 24.487513 181.29271Q24.690638 181.55833 25.065638 181.66771Q25.628138 181.85521 26.284388 181.85521L29.550013 181.85521L29.550013 182.90208ZM26.440638 179.27708Q24.706263 179.27708 23.878138 178.32396Q23.190638 177.52708 23.190638 176.37083Q23.190638 175.08958 24.034388 174.27708Q24.862513 173.44896 26.346888 173.44896Q27.550013 173.44896 28.237513 173.80833Q28.925013 174.16771 29.315638 174.87083Q29.690638 175.55833 29.690638 176.37083Q29.690638 177.66771 28.862513 178.48021Q28.018763 179.27708 26.440638 179.27708ZM26.440638 178.19896Q27.628138 178.19896 28.221888 177.68333Q28.815638 177.15208 28.815638 176.37083Q28.815638 175.57396 28.221888 175.05833Q27.628138 174.54271 26.409388 174.54271Q25.253138 174.54271 24.659388 175.07396Q24.065638 175.58958 24.065638 176.37083Q24.065638 177.15208 24.659388 177.68333Q25.237513 178.19896 26.440638 178.19896ZM27.690638 172.30833L27.534388 171.27708Q28.159388 171.18333 28.487513 170.79271Q28.815638 170.38646 28.815638 169.65208Q28.815638 168.93333 28.534388 168.58958Q28.237513 168.23021 27.831263 168.23021Q27.471888 168.23021 27.268763 168.54271Q27.128138 168.76146 26.909388 169.62083Q26.612513 170.77708 26.409388 171.23021Q26.190638 171.66771 25.815638 171.90208Q25.440638 172.13646 24.971888 172.13646Q24.565638 172.13646 24.206263 171.94896Q23.846888 171.76146 23.612513 171.43333Q23.440638 171.18333 23.315638 170.76146Q23.190638 170.33958 23.190638 169.83958Q23.190638 169.12083 23.409388 168.57396Q23.612513 168.01146 23.971888 167.74583Q24.331263 167.48021 24.925013 167.38646L25.065638 168.41771Q24.596888 168.48021 24.331263 168.82396Q24.050013 169.15208 24.050013 169.77708Q24.050013 170.49583 24.300013 170.80833Q24.534388 171.12083 24.862513 171.12083Q25.065638 171.12083 25.221888 170.99583Q25.393763 170.85521 25.503138 170.58958Q25.565638 170.43333 25.768763 169.65208Q26.081263 168.52708 26.268763 168.08958Q26.456263 167.65208 26.815638 167.40208Q27.175013 167.15208 27.721888 167.15208Q28.253138 167.15208 28.721888 167.46458Q29.175013 167.76146 29.440638 168.33958Q29.690638 168.91771 29.690638 169.65208Q29.690638 170.87083 29.190638 171.51146Q28.675013 172.13646 27.690638 172.30833ZM27.550013 161.63646L27.675013 160.54271Q28.628138 160.79271 29.159388 161.49583Q29.690638 162.19896 29.690638 163.27708Q29.690638 164.63646 28.846888 165.44896Q28.003138 166.24583 26.487513 166.24583Q24.925013 166.24583 24.065638 165.43333Q23.190638 164.62083 23.190638 163.33958Q23.190638 162.08958 24.034388 161.30833Q24.878138 160.51146 26.425013 160.51146Q26.518763 160.51146 26.706263 160.51146L26.706263 165.15208Q27.737513 165.08958 28.284388 164.57396Q28.815638 164.05833 28.815638 163.27708Q28.815638 162.69896 28.518763 162.29271Q28.206263 161.87083 27.550013 161.63646ZM25.846888 165.08958L25.846888 161.62083Q25.050013 161.68333 24.659388 162.01146Q24.050013 162.52708 24.050013 163.32396Q24.050013 164.05833 24.534388 164.55833Q25.018763 165.04271 25.846888 165.08958ZM27.268763 154.82396L27.409388 153.79271Q28.471888 153.96458 29.081263 154.66771Q29.690638 155.37083 29.690638 156.38646Q29.690638 157.66771 28.862513 158.44896Q28.018763 159.21458 26.456263 159.21458Q25.456263 159.21458 24.706263 158.88646Q23.940638 158.54271 23.565638 157.87083Q23.190638 157.18333 23.190638 156.37083Q23.190638 155.37083 23.706263 154.73021Q24.206263 154.07396 25.159388 153.88646L25.315638 154.91771Q24.690638 155.05833 24.378138 155.43333Q24.050013 155.80833 24.050013 156.33958Q24.050013 157.13646 24.628138 157.63646Q25.190638 158.13646 26.425013 158.13646Q27.690638 158.13646 28.253138 157.65208Q28.815638 157.16771 28.815638 156.40208Q28.815638 155.77708 28.440638 155.37083Q28.065638 154.94896 27.268763 154.82396ZM26.440638 153.27708Q24.706263 153.27708 23.878138 152.32396Q23.190638 151.52708 23.190638 150.37083Q23.190638 149.08958 24.034388 148.27708Q24.862513 147.44896 26.346888 147.44896Q27.550013 147.44896 28.237513 147.80833Q28.925013 148.16771 29.315638 148.87083Q29.690638 149.55833 29.690638 150.37083Q29.690638 151.66771 28.862513 152.48021Q28.018763 153.27708 26.440638 153.27708ZM26.440638 152.19896Q27.628138 152.19896 28.221888 151.68333Q28.815638 151.15208 28.815638 150.37083Q28.815638 149.57396 28.221888 149.05833Q27.628138 148.54271 26.409388 148.54271Q25.253138 148.54271 24.659388 149.07396Q24.065638 149.58958 24.065638 150.37083Q24.065638 151.15208 24.659388 151.68333Q25.237513 152.19896 26.440638 152.19896ZM29.550013 145.88646L23.331263 145.88646L23.331263 144.94896L24.206263 144.94896Q23.190638 144.26146 23.190638 142.96458Q23.190638 142.40208 23.393763 141.93333Q23.596888 141.44896 23.925013 141.21458Q24.253138 140.98021 24.690638 140.88646Q24.987513 140.83958 25.721888 140.83958L29.550013 140.83958L29.550013 141.88646L25.768763 141.88646Q25.112513 141.88646 24.800013 142.01146Q24.487513 142.13646 24.300013 142.44896Q24.096888 142.76146 24.096888 143.18333Q24.096888 143.85521 24.534388 144.35521Q24.956263 144.83958 26.143763 144.83958L29.550013 144.83958L29.550013 145.88646ZM29.550013 134.85521L28.768763 134.85521Q29.690638 135.44896 29.690638 136.58958Q29.690638 137.33958 29.284388 137.96458Q28.862513 138.58958 28.128138 138.93333Q27.393763 139.27708 26.440638 139.27708Q25.518763 139.27708 24.753138 138.96458Q23.987513 138.65208 23.596888 138.02708Q23.190638 137.40208 23.190638 136.63646Q23.190638 136.07396 23.425013 135.63646Q23.659388 135.19896 24.034388 134.91771L20.956263 134.91771L20.956263 133.87083L29.550013 133.87083L29.550013 134.85521ZM26.440638 138.18333Q27.643763 138.18333 28.237513 137.68333Q28.815638 137.18333 28.815638 136.49583Q28.815638 135.80833 28.253138 135.32396Q27.690638 134.83958 26.534388 134.83958Q25.253138 134.83958 24.659388 135.33958Q24.065638 135.82396 24.065638 136.54271Q24.065638 137.24583 24.643763 137.71458Q25.206263 138.18333 26.440638 138.18333ZM32.08126 131.19896L32.08126 131.94896Q29.268763 130.19896 26.440638 130.19896Q25.346888 130.19896 24.253138 130.44896Q23.378138 130.65208 22.565638 131.01146Q22.050013 131.24583 20.815638 131.94896L20.815638 131.19896Q22.284388 130.10521 23.768763 129.57396Q25.050013 129.12083 26.440638 129.12083Q28.018763 129.12083 29.503138 129.73021Q30.971888 130.33958 32.08126 131.19896Z" fill-rule="nonzero"/><path fill="#000000" d="M76.01875 304.45L74.97188 304.45L74.97188 297.73126Q74.58125 298.09064 73.95625 298.46564Q73.34688 298.825 72.8625 298.9969L72.8625 297.98126Q73.7375 297.5594 74.39375 296.98126Q75.06563 296.3875 75.34688 295.825L76.01875 295.825L76.01875 304.45ZM79.05 300.21564Q79.05 298.6844 79.3625 297.7625Q79.675 296.825 80.28438 296.325Q80.90938 295.825 81.84688 295.825Q82.53438 295.825 83.05 296.10626Q83.58125 296.3875 83.925 296.91876Q84.26875 297.4344 84.45625 298.1844Q84.64375 298.9344 84.64375 300.21564Q84.64375 301.73126 84.33125 302.65314Q84.03438 303.575 83.40938 304.09064Q82.8 304.59064 81.84688 304.59064Q80.6125 304.59064 79.89375 303.7Q79.05 302.6375 79.05 300.21564ZM80.12813 300.21564Q80.12813 302.325 80.62813 303.02814Q81.12813 303.73126 81.84688 303.73126Q82.58125 303.73126 83.06563 303.02814Q83.56563 302.325 83.56563 300.21564Q83.56563 298.09064 83.06563 297.40314Q82.58125 296.7 81.83125 296.7Q81.1125 296.7 80.675 297.3094Q80.12813 298.09064 80.12813 300.21564ZM86.05 300.21564Q86.05 298.6844 86.3625 297.7625Q86.675 296.825 87.28438 296.325Q87.90938 295.825 88.84688 295.825Q89.53438 295.825 90.05 296.10626Q90.58125 296.3875 90.925 296.91876Q91.26875 297.4344 91.45625 298.1844Q91.64375 298.9344 91.64375 300.21564Q91.64375 301.73126 91.33125 302.65314Q91.03438 303.575 90.40938 304.09064Q89.8 304.59064 88.84688 304.59064Q87.6125 304.59064 86.89375 303.7Q86.05 302.6375 86.05 300.21564ZM87.12813 300.21564Q87.12813 302.325 87.62813 303.02814Q88.12813 303.73126 88.84688 303.73126Q89.58125 303.73126 90.06563 303.02814Q90.56563 302.325 90.56563 300.21564Q90.56563 298.09064 90.06563 297.40314Q89.58125 296.7 88.83125 296.7Q88.1125 296.7 87.675 297.3094Q87.12813 298.09064 87.12813 300.21564ZM93.05 300.21564Q93.05 298.6844 93.3625 297.7625Q93.675 296.825 94.28438 296.325Q94.90938 295.825 95.84688 295.825Q96.53438 295.825 97.05 296.10626Q97.58125 296.3875 97.925 296.91876Q98.26875 297.4344 98.45625 298.1844Q98.64375 298.9344 98.64375 300.21564Q98.64375 301.73126 98.33125 302.65314Q98.03438 303.575 97.40938 304.09064Q96.8 304.59064 95.84688 304.59064Q94.6125 304.59064 93.89375 303.7Q93.05 302.6375 93.05 300.21564ZM94.12813 300.21564Q94.12813 302.325 94.62813 303.02814Q95.12813 303.73126 95.84688 303.73126Q96.58125 303.73126 97.06563 303.02814Q97.56563 302.325 97.56563 300.21564Q97.56563 298.09064 97.06563 297.40314Q96.58125 296.7 95.83125 296.7Q95.1125 296.7 94.675 297.3094Q94.12813 298.09064 94.12813 300.21564ZM100.05 300.21564Q100.05 298.6844 100.3625 297.7625Q100.675 296.825 101.28438 296.325Q101.90938 295.825 102.84688 295.825Q103.53438 295.825 104.05 296.10626Q104.58125 296.3875 104.925 296.91876Q105.26875 297.4344 105.45625 298.1844Q105.64375 298.9344 105.64375 300.21564Q105.64375 301.73126 105.33125 302.65314Q105.03438 303.575 104.40938 304.09064Q103.8 304.59064 102.84688 304.59064Q101.6125 304.59064 100.89375 303.7Q100.05 302.6375 100.05 300.21564ZM101.12813 300.21564Q101.12813 302.325 101.62813 303.02814Q102.12813 303.73126 102.84688 303.73126Q103.58125 303.73126 104.06563 303.02814Q104.56563 302.325 104.56563 300.21564Q104.56563 298.09064 104.06563 297.40314Q103.58125 296.7 102.83125 296.7Q102.1125 296.7 101.675 297.3094Q101.12813 298.09064 101.12813 300.21564Z" fill-rule="nonzero"/><path fill="#000000" d="M72.05 244.81178L73.15938 244.71803Q73.28438 245.53053 73.72188 245.93678Q74.175 246.34303 74.81563 246.34303Q75.56563 246.34303 76.09688 245.76491Q76.62813 245.18678 76.62813 244.24928Q76.62813 243.34303 76.1125 242.82741Q75.6125 242.29616 74.78438 242.29616Q74.28438 242.29616 73.8625 242.53053Q73.45625 242.76491 73.22188 243.12428L72.2375 242.99928L73.06563 238.59303L77.34688 238.59303L77.34688 239.59303L73.90938 239.59303L73.45625 241.90553Q74.22188 241.35866 75.06563 241.35866Q76.19063 241.35866 76.95625 242.13991Q77.7375 242.92116 77.7375 244.15553Q77.7375 245.31178 77.06563 246.17116Q76.2375 247.20241 74.81563 247.20241Q73.64375 247.20241 72.89375 246.54616Q72.15938 245.88991 72.05 244.81178ZM79.05 242.82741Q79.05 241.29616 79.3625 240.37428Q79.675 239.43678 80.28438 238.93678Q80.90938 238.43678 81.84688 238.43678Q82.53438 238.43678 83.05 238.71803Q83.58125 238.99928 83.925 239.53053Q84.26875 240.04616 84.45625 240.79616Q84.64375 241.54616 84.64375 242.82741Q84.64375 244.34303 84.33125 245.26491Q84.03438 246.18678 83.40938 246.70241Q82.8 247.20241 81.84688 247.20241Q80.6125 247.20241 79.89375 246.31178Q79.05 245.24928 79.05 242.82741ZM80.12813 242.82741Q80.12813 244.93678 80.62813 245.63991Q81.12813 246.34303 81.84688 246.34303Q82.58125 246.34303 83.06563 245.63991Q83.56563 244.93678 83.56563 242.82741Q83.56563 240.70241 83.06563 240.01491Q82.58125 239.31178 81.83125 239.31178Q81.1125 239.31178 80.675 239.92116Q80.12813 240.70241 80.12813 242.82741ZM86.05 242.82741Q86.05 241.29616 86.3625 240.37428Q86.675 239.43678 87.28438 238.93678Q87.90938 238.43678 88.84688 238.43678Q89.53438 238.43678 90.05 238.71803Q90.58125 238.99928 90.925 239.53053Q91.26875 240.04616 91.45625 240.79616Q91.64375 241.54616 91.64375 242.82741Q91.64375 244.34303 91.33125 245.26491Q91.03438 246.18678 90.40938 246.70241Q89.8 247.20241 88.84688 247.20241Q87.6125 247.20241 86.89375 246.31178Q86.05 245.24928 86.05 242.82741ZM87.12813 242.82741Q87.12813 244.93678 87.62813 245.63991Q88.12813 246.34303 88.84688 246.34303Q89.58125 246.34303 90.06563 245.63991Q90.56563 244.93678 90.56563 242.82741Q90.56563 240.70241 90.06563 240.01491Q89.58125 239.31178 88.83125 239.31178Q88.1125 239.31178 87.675 239.92116Q87.12813 240.70241 87.12813 242.82741ZM93.05 242.82741Q93.05 241.29616 93.3625 240.37428Q93.675 239.43678 94.28438 238.93678Q94.90938 238.43678 95.84688 238.43678Q96.53438 238.43678 97.05 238.71803Q97.58125 238.99928 97.925 239.53053Q98.26875 240.04616 98.45625 240.79616Q98.64375 241.54616 98.64375 242.82741Q98.64375 244.34303 98.33125 245.26491Q98.03438 246.18678 97.40938 246.70241Q96.8 247.20241 95.84688 247.20241Q94.6125 247.20241 93.89375 246.31178Q93.05 245.24928 93.05 242.82741ZM94.12813 242.82741Q94.12813 244.93678 94.62813 245.63991Q95.12813 246.34303 95.84688 246.34303Q96.58125 246.34303 97.06563 245.63991Q97.56563 244.93678 97.56563 242.82741Q97.56563 240.70241 97.06563 240.01491Q96.58125 239.31178 95.83125 239.31178Q95.1125 239.31178 94.675 239.92116Q94.12813 240.70241 94.12813 242.82741ZM100.05 242.82741Q100.05 241.29616 100.3625 240.37428Q100.675 239.43678 101.28438 238.93678Q101.90938 238.43678 102.84688 238.43678Q103.53438 238.43678 104.05 238.71803Q104.58125 238.99928 104.925 239.53053Q105.26875 240.04616 105.45625 240.79616Q105.64375 241.54616 105.64375 242.82741Q105.64375 244.34303 105.33125 245.26491Q105.03438 246.18678 104.40938 246.70241Q103.8 247.20241 102.84688 247.20241Q101.6125 247.20241 100.89375 246.31178Q100.05 245.24928 100.05 242.82741ZM101.12813 242.82741Q101.12813 244.93678 101.62813 245.63991Q102.12813 246.34303 102.84688 246.34303Q103.58125 246.34303 104.06563 245.63991Q104.56563 244.93678 104.56563 242.82741Q104.56563 240.70241 104.06563 240.01491Q103.58125 239.31178 102.83125 239.31178Q102.1125 239.31178 101.675 239.92116Q101.12813 240.70241 101.12813 242.82741Z" fill-rule="nonzero"/><path fill="#000000" d="M69.01875 222.34602L67.97188 222.34602L67.97188 215.62727Q67.58125 215.98665 66.95625 216.36165Q66.34688 216.72102 65.8625 216.8929L65.8625 215.87727Q66.7375 215.4554 67.39375 214.87727Q68.06563 214.28352 68.34688 213.72102L69.01875 213.72102L69.01875 222.34602ZM72.05 218.11165Q72.05 216.5804 72.3625 215.65852Q72.675 214.72102 73.28438 214.22102Q73.90938 213.72102 74.84688 213.72102Q75.53438 213.72102 76.05 214.00227Q76.58125 214.28352 76.925 214.81477Q77.26875 215.3304 77.45625 216.0804Q77.64375 216.8304 77.64375 218.11165Q77.64375 219.62727 77.33125 220.54915Q77.03438 221.47102 76.40938 221.98665Q75.8 222.48665 74.84688 222.48665Q73.6125 222.48665 72.89375 221.59602Q72.05 220.53352 72.05 218.11165ZM73.12813 218.11165Q73.12813 220.22102 73.62813 220.92415Q74.12813 221.62727 74.84688 221.62727Q75.58125 221.62727 76.06563 220.92415Q76.56563 220.22102 76.56563 218.11165Q76.56563 215.98665 76.06563 215.29915Q75.58125 214.59602 74.83125 214.59602Q74.1125 214.59602 73.675 215.2054Q73.12813 215.98665 73.12813 218.11165ZM79.05 218.11165Q79.05 216.5804 79.3625 215.65852Q79.675 214.72102 80.28438 214.22102Q80.90938 213.72102 81.84688 213.72102Q82.53438 213.72102 83.05 214.00227Q83.58125 214.28352 83.925 214.81477Q84.26875 215.3304 84.45625 216.0804Q84.64375 216.8304 84.64375 218.11165Q84.64375 219.62727 84.33125 220.54915Q84.03438 221.47102 83.40938 221.98665Q82.8 222.48665 81.84688 222.48665Q80.6125 222.48665 79.89375 221.59602Q79.05 220.53352 79.05 218.11165ZM80.12813 218.11165Q80.12813 220.22102 80.62813 220.92415Q81.12813 221.62727 81.84688 221.62727Q82.58125 221.62727 83.06563 220.92415Q83.56563 220.22102 83.56563 218.11165Q83.56563 215.98665 83.06563 215.29915Q82.58125 214.59602 81.83125 214.59602Q81.1125 214.59602 80.675 215.2054Q80.12813 215.98665 80.12813 218.11165ZM86.05 218.11165Q86.05 216.5804 86.3625 215.65852Q86.675 214.72102 87.28438 214.22102Q87.90938 213.72102 88.84688 213.72102Q89.53438 213.72102 90.05 214.00227Q90.58125 214.28352 90.925 214.81477Q91.26875 215.3304 91.45625 216.0804Q91.64375 216.8304 91.64375 218.11165Q91.64375 219.62727 91.33125 220.54915Q91.03438 221.47102 90.40938 221.98665Q89.8 222.48665 88.84688 222.48665Q87.6125 222.48665 86.89375 221.59602Q86.05 220.53352 86.05 218.11165ZM87.12813 218.11165Q87.12813 220.22102 87.62813 220.92415Q88.12813 221.62727 88.84688 221.62727Q89.58125 221.62727 90.06563 220.92415Q90.56563 220.22102 90.56563 218.11165Q90.56563 215.98665 90.06563 215.29915Q89.58125 214.59602 88.83125 214.59602Q88.1125 214.59602 87.675 215.2054Q87.12813 215.98665 87.12813 218.11165ZM93.05 218.11165Q93.05 216.5804 93.3625 215.65852Q93.675 214.72102 94.28438 214.22102Q94.90938 213.72102 95.84688 213.72102Q96.53438 213.72102 97.05 214.00227Q97.58125 214.28352 97.925 214.81477Q98.26875 215.3304 98.45625 216.0804Q98.64375 216.8304 98.64375 218.11165Q98.64375 219.62727 98.33125 220.54915Q98.03438 221.47102 97.40938 221.98665Q96.8 222.48665 95.84688 222.48665Q94.6125 222.48665 93.89375 221.59602Q93.05 220.53352 93.05 218.11165ZM94.12813 218.11165Q94.12813 220.22102 94.62813 220.92415Q95.12813 221.62727 95.84688 221.62727Q96.58125 221.62727 97.06563 220.92415Q97.56563 220.22102 97.56563 218.11165Q97.56563 215.98665 97.06563 215.29915Q96.58125 214.59602 95.83125 214.59602Q95.1125 214.59602 94.675 215.2054Q94.12813 215.98665 94.12813 218.11165ZM100.05 218.11165Q100.05 216.5804 100.3625 215.65852Q100.675 214.72102 101.28438 214.22102Q101.90938 213.72102 102.84688 213.72102Q103.53438 213.72102 104.05 214.00227Q104.58125 214.28352 104.925 214.81477Q105.26875 215.3304 105.45625 216.0804Q105.64375 216.8304 105.64375 218.11165Q105.64375 219.62727 105.33125 220.54915Q105.03438 221.47102 104.40938 221.98665Q103.8 222.48665 102.84688 222.48665Q101.6125 222.48665 100.89375 221.59602Q100.05 220.53352 100.05 218.11165ZM101.12813 218.11165Q101.12813 220.22102 101.62813 220.92415Q102.12813 221.62727 102.84688 221.62727Q103.58125 221.62727 104.06563 220.92415Q104.56563 220.22102 104.56563 218.11165Q104.56563 215.98665 104.06563 215.29915Q103.58125 214.59602 102.83125 214.59602Q102.1125 214.59602 101.675 215.2054Q101.12813 215.98665 101.12813 218.11165Z" fill-rule="nonzero"/><path fill="#000000" d="M65.05 162.7078L66.15938 162.61404Q66.28438 163.42654 66.72188 163.8328Q67.175 164.23904 67.81563 164.23904Q68.56563 164.23904 69.09688 163.66092Q69.62813 163.0828 69.62813 162.1453Q69.62813 161.23904 69.1125 160.72342Q68.6125 160.19217 67.78438 160.19217Q67.28438 160.19217 66.8625 160.42654Q66.45625 160.66092 66.22188 161.0203L65.2375 160.8953L66.06563 156.48904L70.34688 156.48904L70.34688 157.48904L66.90938 157.48904L66.45625 159.80154Q67.22188 159.25467 68.06563 159.25467Q69.19063 159.25467 69.95625 160.03592Q70.7375 160.81717 70.7375 162.05154Q70.7375 163.2078 70.06563 164.06717Q69.2375 165.09842 67.81563 165.09842Q66.64375 165.09842 65.89375 164.44217Q65.15938 163.78592 65.05 162.7078ZM72.05 160.72342Q72.05 159.19217 72.3625 158.2703Q72.675 157.3328 73.28438 156.8328Q73.90938 156.3328 74.84688 156.3328Q75.53438 156.3328 76.05 156.61404Q76.58125 156.8953 76.925 157.42654Q77.26875 157.94217 77.45625 158.69217Q77.64375 159.44217 77.64375 160.72342Q77.64375 162.23904 77.33125 163.16092Q77.03438 164.0828 76.40938 164.59842Q75.8 165.09842 74.84688 165.09842Q73.6125 165.09842 72.89375 164.2078Q72.05 163.1453 72.05 160.72342ZM73.12813 160.72342Q73.12813 162.8328 73.62813 163.53592Q74.12813 164.23904 74.84688 164.23904Q75.58125 164.23904 76.06563 163.53592Q76.56563 162.8328 76.56563 160.72342Q76.56563 158.59842 76.06563 157.91092Q75.58125 157.2078 74.83125 157.2078Q74.1125 157.2078 73.675 157.81717Q73.12813 158.59842 73.12813 160.72342ZM79.05 160.72342Q79.05 159.19217 79.3625 158.2703Q79.675 157.3328 80.28438 156.8328Q80.90938 156.3328 81.84688 156.3328Q82.53438 156.3328 83.05 156.61404Q83.58125 156.8953 83.925 157.42654Q84.26875 157.94217 84.45625 158.69217Q84.64375 159.44217 84.64375 160.72342Q84.64375 162.23904 84.33125 163.16092Q84.03438 164.0828 83.40938 164.59842Q82.8 165.09842 81.84688 165.09842Q80.6125 165.09842 79.89375 164.2078Q79.05 163.1453 79.05 160.72342ZM80.12813 160.72342Q80.12813 162.8328 80.62813 163.53592Q81.12813 164.23904 81.84688 164.23904Q82.58125 164.23904 83.06563 163.53592Q83.56563 162.8328 83.56563 160.72342Q83.56563 158.59842 83.06563 157.91092Q82.58125 157.2078 81.83125 157.2078Q81.1125 157.2078 80.675 157.81717Q80.12813 158.59842 80.12813 160.72342ZM86.05 160.72342Q86.05 159.19217 86.3625 158.2703Q86.675 157.3328 87.28438 156.8328Q87.90938 156.3328 88.84688 156.3328Q89.53438 156.3328 90.05 156.61404Q90.58125 156.8953 90.925 157.42654Q91.26875 157.94217 91.45625 158.69217Q91.64375 159.44217 91.64375 160.72342Q91.64375 162.23904 91.33125 163.16092Q91.03438 164.0828 90.40938 164.59842Q89.8 165.09842 88.84688 165.09842Q87.6125 165.09842 86.89375 164.2078Q86.05 163.1453 86.05 160.72342ZM87.12813 160.72342Q87.12813 162.8328 87.62813 163.53592Q88.12813 164.23904 88.84688 164.23904Q89.58125 164.23904 90.06563 163.53592Q90.56563 162.8328 90.56563 160.72342Q90.56563 158.59842 90.06563 157.91092Q89.58125 157.2078 88.83125 157.2078Q88.1125 157.2078 87.675 157.81717Q87.12813 158.59842 87.12813 160.72342ZM93.05 160.72342Q93.05 159.19217 93.3625 158.2703Q93.675 157.3328 94.28438 156.8328Q94.90938 156.3328 95.84688 156.3328Q96.53438 156.3328 97.05 156.61404Q97.58125 156.8953 97.925 157.42654Q98.26875 157.94217 98.45625 158.69217Q98.64375 159.44217 98.64375 160.72342Q98.64375 162.23904 98.33125 163.16092Q98.03438 164.0828 97.40938 164.59842Q96.8 165.09842 95.84688 165.09842Q94.6125 165.09842 93.89375 164.2078Q93.05 163.1453 93.05 160.72342ZM94.12813 160.72342Q94.12813 162.8328 94.62813 163.53592Q95.12813 164.23904 95.84688 164.23904Q96.58125 164.23904 97.06563 163.53592Q97.56563 162.8328 97.56563 160.72342Q97.56563 158.59842 97.06563 157.91092Q96.58125 157.2078 95.83125 157.2078Q95.1125 157.2078 94.675 157.81717Q94.12813 158.59842 94.12813 160.72342ZM100.05 160.72342Q100.05 159.19217 100.3625 158.2703Q100.675 157.3328 101.28438 156.8328Q101.90938 156.3328 102.84688 156.3328Q103.53438 156.3328 104.05 156.61404Q104.58125 156.8953 104.925 157.42654Q105.26875 157.94217 105.45625 158.69217Q105.64375 159.44217 105.64375 160.72342Q105.64375 162.23904 105.33125 163.16092Q105.03438 164.0828 104.40938 164.59842Q103.8 165.09842 102.84688 165.09842Q101.6125 165.09842 100.89375 164.2078Q100.05 163.1453 100.05 160.72342ZM101.12813 160.72342Q101.12813 162.8328 101.62813 163.53592Q102.12813 164.23904 102.84688 164.23904Q103.58125 164.23904 104.06563 163.53592Q104.56563 162.8328 104.56563 160.72342Q104.56563 158.59842 104.06563 157.91092Q103.58125 157.2078 102.83125 157.2078Q102.1125 157.2078 101.675 157.81717Q101.12813 158.59842 101.12813 160.72342Z" fill-rule="nonzero"/><path fill="#000000" d="M62.01875 140.24203L60.971874 140.24203L60.971874 133.52328Q60.58125 133.88266 59.95625 134.25766Q59.346874 134.61703 58.8625 134.78891L58.8625 133.77328Q59.7375 133.35141 60.39375 132.77328Q61.065624 132.17953 61.346874 131.61703L62.01875 131.61703L62.01875 140.24203ZM65.05 136.00766Q65.05 134.47641 65.3625 133.55453Q65.675 132.61703 66.28438 132.11703Q66.90938 131.61703 67.84688 131.61703Q68.53438 131.61703 69.05 131.89828Q69.58125 132.17953 69.925 132.71078Q70.26875 133.22641 70.45625 133.97641Q70.64375 134.72641 70.64375 136.00766Q70.64375 137.52328 70.33125 138.44516Q70.03438 139.36703 69.40938 139.88266Q68.8 140.38266 67.84688 140.38266Q66.6125 140.38266 65.89375 139.49203Q65.05 138.42953 65.05 136.00766ZM66.12813 136.00766Q66.12813 138.11703 66.62813 138.82016Q67.12813 139.52328 67.84688 139.52328Q68.58125 139.52328 69.06563 138.82016Q69.56563 138.11703 69.56563 136.00766Q69.56563 133.88266 69.06563 133.19516Q68.58125 132.49203 67.83125 132.49203Q67.1125 132.49203 66.675 133.10141Q66.12813 133.88266 66.12813 136.00766ZM72.05 136.00766Q72.05 134.47641 72.3625 133.55453Q72.675 132.61703 73.28438 132.11703Q73.90938 131.61703 74.84688 131.61703Q75.53438 131.61703 76.05 131.89828Q76.58125 132.17953 76.925 132.71078Q77.26875 133.22641 77.45625 133.97641Q77.64375 134.72641 77.64375 136.00766Q77.64375 137.52328 77.33125 138.44516Q77.03438 139.36703 76.40938 139.88266Q75.8 140.38266 74.84688 140.38266Q73.6125 140.38266 72.89375 139.49203Q72.05 138.42953 72.05 136.00766ZM73.12813 136.00766Q73.12813 138.11703 73.62813 138.82016Q74.12813 139.52328 74.84688 139.52328Q75.58125 139.52328 76.06563 138.82016Q76.56563 138.11703 76.56563 136.00766Q76.56563 133.88266 76.06563 133.19516Q75.58125 132.49203 74.83125 132.49203Q74.1125 132.49203 73.675 133.10141Q73.12813 133.88266 73.12813 136.00766ZM79.05 136.00766Q79.05 134.47641 79.3625 133.55453Q79.675 132.61703 80.28438 132.11703Q80.90938 131.61703 81.84688 131.61703Q82.53438 131.61703 83.05 131.89828Q83.58125 132.17953 83.925 132.71078Q84.26875 133.22641 84.45625 133.97641Q84.64375 134.72641 84.64375 136.00766Q84.64375 137.52328 84.33125 138.44516Q84.03438 139.36703 83.40938 139.88266Q82.8 140.38266 81.84688 140.38266Q80.6125 140.38266 79.89375 139.49203Q79.05 138.42953 79.05 136.00766ZM80.12813 136.00766Q80.12813 138.11703 80.62813 138.82016Q81.12813 139.52328 81.84688 139.52328Q82.58125 139.52328 83.06563 138.82016Q83.56563 138.11703 83.56563 136.00766Q83.56563 133.88266 83.06563 133.19516Q82.58125 132.49203 81.83125 132.49203Q81.1125 132.49203 80.675 133.10141Q80.12813 133.88266 80.12813 136.00766ZM86.05 136.00766Q86.05 134.47641 86.3625 133.55453Q86.675 132.61703 87.28438 132.11703Q87.90938 131.61703 88.84688 131.61703Q89.53438 131.61703 90.05 131.89828Q90.58125 132.17953 90.925 132.71078Q91.26875 133.22641 91.45625 133.97641Q91.64375 134.72641 91.64375 136.00766Q91.64375 137.52328 91.33125 138.44516Q91.03438 139.36703 90.40938 139.88266Q89.8 140.38266 88.84688 140.38266Q87.6125 140.38266 86.89375 139.49203Q86.05 138.42953 86.05 136.00766ZM87.12813 136.00766Q87.12813 138.11703 87.62813 138.82016Q88.12813 139.52328 88.84688 139.52328Q89.58125 139.52328 90.06563 138.82016Q90.56563 138.11703 90.56563 136.00766Q90.56563 133.88266 90.06563 133.19516Q89.58125 132.49203 88.83125 132.49203Q88.1125 132.49203 87.675 133.10141Q87.12813 133.88266 87.12813 136.00766ZM93.05 136.00766Q93.05 134.47641 93.3625 133.55453Q93.675 132.61703 94.28438 132.11703Q94.90938 131.61703 95.84688 131.61703Q96.53438 131.61703 97.05 131.89828Q97.58125 132.17953 97.925 132.71078Q98.26875 133.22641 98.45625 133.97641Q98.64375 134.72641 98.64375 136.00766Q98.64375 137.52328 98.33125 138.44516Q98.03438 139.36703 97.40938 139.88266Q96.8 140.38266 95.84688 140.38266Q94.6125 140.38266 93.89375 139.49203Q93.05 138.42953 93.05 136.00766ZM94.12813 136.00766Q94.12813 138.11703 94.62813 138.82016Q95.12813 139.52328 95.84688 139.52328Q96.58125 139.52328 97.06563 138.82016Q97.56563 138.11703 97.56563 136.00766Q97.56563 133.88266 97.06563 133.19516Q96.58125 132.49203 95.83125 132.49203Q95.1125 132.49203 94.675 133.10141Q94.12813 133.88266 94.12813 136.00766ZM100.05 136.00766Q100.05 134.47641 100.3625 133.55453Q100.675 132.61703 101.28438 132.11703Q101.90938 131.61703 102.84688 131.61703Q103.53438 131.61703 104.05 131.89828Q104.58125 132.17953 104.925 132.71078Q105.26875 133.22641 105.45625 133.97641Q105.64375 134.72641 105.64375 136.00766Q105.64375 137.52328 105.33125 138.44516Q105.03438 139.36703 104.40938 139.88266Q103.8 140.38266 102.84688 140.38266Q101.6125 140.38266 100.89375 139.49203Q100.05 138.42953 100.05 136.00766ZM101.12813 136.00766Q101.12813 138.11703 101.62813 138.82016Q102.12813 139.52328 102.84688 139.52328Q103.58125 139.52328 104.06563 138.82016Q104.56563 138.11703 104.56563 136.00766Q104.56563 133.88266 104.06563 133.19516Q103.58125 132.49203 102.83125 132.49203Q102.1125 132.49203 101.675 133.10141Q101.12813 133.88266 101.12813 136.00766Z" fill-rule="nonzero"/><path fill="#000000" d="M58.05 80.60382L59.159374 80.51007Q59.284374 81.32257 59.721874 81.72882Q60.175 82.13507 60.815624 82.13507Q61.565624 82.13507 62.096874 81.556946Q62.628124 80.97882 62.628124 80.04132Q62.628124 79.13507 62.1125 78.619446Q61.6125 78.088196 60.784374 78.088196Q60.284374 78.088196 59.8625 78.32257Q59.45625 78.556946 59.221874 78.91632L58.2375 78.79132L59.065624 74.38507L63.346874 74.38507L63.346874 75.38507L59.909374 75.38507L59.45625 77.69757Q60.221874 77.150696 61.065624 77.150696Q62.190624 77.150696 62.95625 77.931946Q63.7375 78.713196 63.7375 79.94757Q63.7375 81.10382 63.065624 81.963196Q62.2375 82.994446 60.815624 82.994446Q59.64375 82.994446 58.89375 82.338196Q58.159374 81.681946 58.05 80.60382ZM65.05 78.619446Q65.05 77.088196 65.3625 76.16632Q65.675 75.22882 66.28438 74.72882Q66.90938 74.22882 67.84688 74.22882Q68.53438 74.22882 69.05 74.51007Q69.58125 74.79132 69.925 75.32257Q70.26875 75.838196 70.45625 76.588196Q70.64375 77.338196 70.64375 78.619446Q70.64375 80.13507 70.33125 81.056946Q70.03438 81.97882 69.40938 82.494446Q68.8 82.994446 67.84688 82.994446Q66.6125 82.994446 65.89375 82.10382Q65.05 81.04132 65.05 78.619446ZM66.12813 78.619446Q66.12813 80.72882 66.62813 81.431946Q67.12813 82.13507 67.84688 82.13507Q68.58125 82.13507 69.06563 81.431946Q69.56563 80.72882 69.56563 78.619446Q69.56563 76.494446 69.06563 75.806946Q68.58125 75.10382 67.83125 75.10382Q67.1125 75.10382 66.675 75.713196Q66.12813 76.494446 66.12813 78.619446ZM72.05 78.619446Q72.05 77.088196 72.3625 76.16632Q72.675 75.22882 73.28438 74.72882Q73.90938 74.22882 74.84688 74.22882Q75.53438 74.22882 76.05 74.51007Q76.58125 74.79132 76.925 75.32257Q77.26875 75.838196 77.45625 76.588196Q77.64375 77.338196 77.64375 78.619446Q77.64375 80.13507 77.33125 81.056946Q77.03438 81.97882 76.40938 82.494446Q75.8 82.994446 74.84688 82.994446Q73.6125 82.994446 72.89375 82.10382Q72.05 81.04132 72.05 78.619446ZM73.12813 78.619446Q73.12813 80.72882 73.62813 81.431946Q74.12813 82.13507 74.84688 82.13507Q75.58125 82.13507 76.06563 81.431946Q76.56563 80.72882 76.56563 78.619446Q76.56563 76.494446 76.06563 75.806946Q75.58125 75.10382 74.83125 75.10382Q74.1125 75.10382 73.675 75.713196Q73.12813 76.494446 73.12813 78.619446ZM79.05 78.619446Q79.05 77.088196 79.3625 76.16632Q79.675 75.22882 80.28438 74.72882Q80.90938 74.22882 81.84688 74.22882Q82.53438 74.22882 83.05 74.51007Q83.58125 74.79132 83.925 75.32257Q84.26875 75.838196 84.45625 76.588196Q84.64375 77.338196 84.64375 78.619446Q84.64375 80.13507 84.33125 81.056946Q84.03438 81.97882 83.40938 82.494446Q82.8 82.994446 81.84688 82.994446Q80.6125 82.994446 79.89375 82.10382Q79.05 81.04132 79.05 78.619446ZM80.12813 78.619446Q80.12813 80.72882 80.62813 81.431946Q81.12813 82.13507 81.84688 82.13507Q82.58125 82.13507 83.06563 81.431946Q83.56563 80.72882 83.56563 78.619446Q83.56563 76.494446 83.06563 75.806946Q82.58125 75.10382 81.83125 75.10382Q81.1125 75.10382 80.675 75.713196Q80.12813 76.494446 80.12813 78.619446ZM86.05 78.619446Q86.05 77.088196 86.3625 76.16632Q86.675 75.22882 87.28438 74.72882Q87.90938 74.22882 88.84688 74.22882Q89.53438 74.22882 90.05 74.51007Q90.58125 74.79132 90.925 75.32257Q91.26875 75.838196 91.45625 76.588196Q91.64375 77.338196 91.64375 78.619446Q91.64375 80.13507 91.33125 81.056946Q91.03438 81.97882 90.40938 82.494446Q89.8 82.994446 88.84688 82.994446Q87.6125 82.994446 86.89375 82.10382Q86.05 81.04132 86.05 78.619446ZM87.12813 78.619446Q87.12813 80.72882 87.62813 81.431946Q88.12813 82.13507 88.84688 82.13507Q89.58125 82.13507 90.06563 81.431946Q90.56563 80.72882 90.56563 78.619446Q90.56563 76.494446 90.06563 75.806946Q89.58125 75.10382 88.83125 75.10382Q88.1125 75.10382 87.675 75.713196Q87.12813 76.494446 87.12813 78.619446ZM93.05 78.619446Q93.05 77.088196 93.3625 76.16632Q93.675 75.22882 94.28438 74.72882Q94.90938 74.22882 95.84688 74.22882Q96.53438 74.22882 97.05 74.51007Q97.58125 74.79132 97.925 75.32257Q98.26875 75.838196 98.45625 76.588196Q98.64375 77.338196 98.64375 78.619446Q98.64375 80.13507 98.33125 81.056946Q98.03438 81.97882 97.40938 82.494446Q96.8 82.994446 95.84688 82.994446Q94.6125 82.994446 93.89375 82.10382Q93.05 81.04132 93.05 78.619446ZM94.12813 78.619446Q94.12813 80.72882 94.62813 81.431946Q95.12813 82.13507 95.84688 82.13507Q96.58125 82.13507 97.06563 81.431946Q97.56563 80.72882 97.56563 78.619446Q97.56563 76.494446 97.06563 75.806946Q96.58125 75.10382 95.83125 75.10382Q95.1125 75.10382 94.675 75.713196Q94.12813 76.494446 94.12813 78.619446ZM100.05 78.619446Q100.05 77.088196 100.3625 76.16632Q100.675 75.22882 101.28438 74.72882Q101.90938 74.22882 102.84688 74.22882Q103.53438 74.22882 104.05 74.51007Q104.58125 74.79132 104.925 75.32257Q105.26875 75.838196 105.45625 76.588196Q105.64375 77.338196 105.64375 78.619446Q105.64375 80.13507 105.33125 81.056946Q105.03438 81.97882 104.40938 82.494446Q103.8 82.994446 102.84688 82.994446Q101.6125 82.994446 100.89375 82.10382Q100.05 81.04132 100.05 78.619446ZM101.12813 78.619446Q101.12813 80.72882 101.62813 81.431946Q102.12813 82.13507 102.84688 82.13507Q103.58125 82.13507 104.06563 81.431946Q104.56563 80.72882 104.56563 78.619446Q104.56563 76.494446 104.06563 75.806946Q103.58125 75.10382 102.83125 75.10382Q102.1125 75.10382 101.675 75.713196Q101.12813 76.494446 101.12813 78.619446Z" fill-rule="nonzero"/><path fill="#000000" d="M55.01875 58.138058L53.971874 58.138058L53.971874 51.419308Q53.58125 51.778683 52.95625 52.153683Q52.346874 52.513058 51.8625 52.684933L51.8625 51.669308Q52.7375 51.247433 53.39375 50.669308Q54.065624 50.075558 54.346874 49.513058L55.01875 49.513058L55.01875 58.138058ZM58.05 53.903683Q58.05 52.372433 58.3625 51.450558Q58.675 50.513058 59.284374 50.013058Q59.909374 49.513058 60.846874 49.513058Q61.534374 49.513058 62.05 49.794308Q62.58125 50.075558 62.925 50.606808Q63.26875 51.122433 63.45625 51.872433Q63.64375 52.622433 63.64375 53.903683Q63.64375 55.419308 63.33125 56.341183Q63.034374 57.263058 62.409374 57.778683Q61.8 58.278683 60.846874 58.278683Q59.6125 58.278683 58.89375 57.388058Q58.05 56.325558 58.05 53.903683ZM59.128124 53.903683Q59.128124 56.013058 59.628124 56.716183Q60.128124 57.419308 60.846874 57.419308Q61.58125 57.419308 62.065624 56.716183Q62.565624 56.013058 62.565624 53.903683Q62.565624 51.778683 62.065624 51.091183Q61.58125 50.388058 60.83125 50.388058Q60.1125 50.388058 59.675 50.997433Q59.128124 51.778683 59.128124 53.903683ZM65.05 53.903683Q65.05 52.372433 65.3625 51.450558Q65.675 50.513058 66.28438 50.013058Q66.90938 49.513058 67.84688 49.513058Q68.53438 49.513058 69.05 49.794308Q69.58125 50.075558 69.925 50.606808Q70.26875 51.122433 70.45625 51.872433Q70.64375 52.622433 70.64375 53.903683Q70.64375 55.419308 70.33125 56.341183Q70.03438 57.263058 69.40938 57.778683Q68.8 58.278683 67.84688 58.278683Q66.6125 58.278683 65.89375 57.388058Q65.05 56.325558 65.05 53.903683ZM66.12813 53.903683Q66.12813 56.013058 66.62813 56.716183Q67.12813 57.419308 67.84688 57.419308Q68.58125 57.419308 69.06563 56.716183Q69.56563 56.013058 69.56563 53.903683Q69.56563 51.778683 69.06563 51.091183Q68.58125 50.388058 67.83125 50.388058Q67.1125 50.388058 66.675 50.997433Q66.12813 51.778683 66.12813 53.903683ZM72.05 53.903683Q72.05 52.372433 72.3625 51.450558Q72.675 50.513058 73.28438 50.013058Q73.90938 49.513058 74.84688 49.513058Q75.53438 49.513058 76.05 49.794308Q76.58125 50.075558 76.925 50.606808Q77.26875 51.122433 77.45625 51.872433Q77.64375 52.622433 77.64375 53.903683Q77.64375 55.419308 77.33125 56.341183Q77.03438 57.263058 76.40938 57.778683Q75.8 58.278683 74.84688 58.278683Q73.6125 58.278683 72.89375 57.388058Q72.05 56.325558 72.05 53.903683ZM73.12813 53.903683Q73.12813 56.013058 73.62813 56.716183Q74.12813 57.419308 74.84688 57.419308Q75.58125 57.419308 76.06563 56.716183Q76.56563 56.013058 76.56563 53.903683Q76.56563 51.778683 76.06563 51.091183Q75.58125 50.388058 74.83125 50.388058Q74.1125 50.388058 73.675 50.997433Q73.12813 51.778683 73.12813 53.903683ZM79.05 53.903683Q79.05 52.372433 79.3625 51.450558Q79.675 50.513058 80.28438 50.013058Q80.90938 49.513058 81.84688 49.513058Q82.53438 49.513058 83.05 49.794308Q83.58125 50.075558 83.925 50.606808Q84.26875 51.122433 84.45625 51.872433Q84.64375 52.622433 84.64375 53.903683Q84.64375 55.419308 84.33125 56.341183Q84.03438 57.263058 83.40938 57.778683Q82.8 58.278683 81.84688 58.278683Q80.6125 58.278683 79.89375 57.388058Q79.05 56.325558 79.05 53.903683ZM80.12813 53.903683Q80.12813 56.013058 80.62813 56.716183Q81.12813 57.419308 81.84688 57.419308Q82.58125 57.419308 83.06563 56.716183Q83.56563 56.013058 83.56563 53.903683Q83.56563 51.778683 83.06563 51.091183Q82.58125 50.388058 81.83125 50.388058Q81.1125 50.388058 80.675 50.997433Q80.12813 51.778683 80.12813 53.903683ZM86.05 53.903683Q86.05 52.372433 86.3625 51.450558Q86.675 50.513058 87.28438 50.013058Q87.90938 49.513058 88.84688 49.513058Q89.53438 49.513058 90.05 49.794308Q90.58125 50.075558 90.925 50.606808Q91.26875 51.122433 91.45625 51.872433Q91.64375 52.622433 91.64375 53.903683Q91.64375 55.419308 91.33125 56.341183Q91.03438 57.263058 90.40938 57.778683Q89.8 58.278683 88.84688 58.278683Q87.6125 58.278683 86.89375 57.388058Q86.05 56.325558 86.05 53.903683ZM87.12813 53.903683Q87.12813 56.013058 87.62813 56.716183Q88.12813 57.419308 88.84688 57.419308Q89.58125 57.419308 90.06563 56.716183Q90.56563 56.013058 90.56563 53.903683Q90.56563 51.778683 90.06563 51.091183Q89.58125 50.388058 88.83125 50.388058Q88.1125 50.388058 87.675 50.997433Q87.12813 51.778683 87.12813 53.903683ZM93.05 53.903683Q93.05 52.372433 93.3625 51.450558Q93.675 50.513058 94.28438 50.013058Q94.90938 49.513058 95.84688 49.513058Q96.53438 49.513058 97.05 49.794308Q97.58125 50.075558 97.925 50.606808Q98.26875 51.122433 98.45625 51.872433Q98.64375 52.622433 98.64375 53.903683Q98.64375 55.419308 98.33125 56.341183Q98.03438 57.263058 97.40938 57.778683Q96.8 58.278683 95.84688 58.278683Q94.6125 58.278683 93.89375 57.388058Q93.05 56.325558 93.05 53.903683ZM94.12813 53.903683Q94.12813 56.013058 94.62813 56.716183Q95.12813 57.419308 95.84688 57.419308Q96.58125 57.419308 97.06563 56.716183Q97.56563 56.013058 97.56563 53.903683Q97.56563 51.778683 97.06563 51.091183Q96.58125 50.388058 95.83125 50.388058Q95.1125 50.388058 94.675 50.997433Q94.12813 51.778683 94.12813 53.903683ZM100.05 53.903683Q100.05 52.372433 100.3625 51.450558Q100.675 50.513058 101.28438 50.013058Q101.90938 49.513058 102.84688 49.513058Q103.53438 49.513058 104.05 49.794308Q104.58125 50.075558 104.925 50.606808Q105.26875 51.122433 105.45625 51.872433Q105.64375 52.622433 105.64375 53.903683Q105.64375 55.419308 105.33125 56.341183Q105.03438 57.263058 104.40938 57.778683Q103.8 58.278683 102.84688 58.278683Q101.6125 58.278683 100.89375 57.388058Q100.05 56.325558 100.05 53.903683ZM101.12813 53.903683Q101.12813 56.013058 101.62813 56.716183Q102.12813 57.419308 102.84688 57.419308Q103.58125 57.419308 104.06563 56.716183Q104.56563 56.013058 104.56563 53.903683Q104.56563 51.778683 104.06563 51.091183Q103.58125 50.388058 102.83125 50.388058Q102.1125 50.388058 101.675 50.997433Q101.12813 51.778683 101.12813 53.903683Z" fill-rule="nonzero"/><path fill="#000000" d="M207.9986 317.45L206.95172 317.45L206.95172 310.73126Q206.5611 311.09064 205.9361 311.46564Q205.32672 311.825 204.84235 311.9969L204.84235 310.98126Q205.71735 310.5594 206.3736 309.98126Q207.04547 309.3875 207.32672 308.825L207.9986 308.825L207.9986 317.45Z" fill-rule="nonzero"/><path fill="#000000" d="M344.46875 317.45L343.42188 317.45L343.42188 310.73126Q343.03125 311.09064 342.40625 311.46564Q341.79688 311.825 341.3125 311.9969L341.3125 310.98126Q342.1875 310.5594 342.84375 309.98126Q343.51562 309.3875 343.79688 308.825L344.46875 308.825L344.46875 317.45ZM347.5 313.21564Q347.5 311.6844 347.8125 310.7625Q348.125 309.825 348.73438 309.325Q349.35938 308.825 350.29688 308.825Q350.98438 308.825 351.5 309.10626Q352.03125 309.3875 352.375 309.91876Q352.71875 310.4344 352.90625 311.1844Q353.09375 311.9344 353.09375 313.21564Q353.09375 314.73126 352.78125 315.65314Q352.48438 316.575 351.85938 317.09064Q351.25 317.59064 350.29688 317.59064Q349.0625 317.59064 348.34375 316.7Q347.5 315.6375 347.5 313.21564ZM348.57812 313.21564Q348.57812 315.325 349.07812 316.02814Q349.57812 316.73126 350.29688 316.73126Q351.03125 316.73126 351.51562 316.02814Q352.01562 315.325 352.01562 313.21564Q352.01562 311.09064 351.51562 310.40314Q351.03125 309.7 350.28125 309.7Q349.5625 309.7 349.125 310.3094Q348.57812 311.09064 348.57812 313.21564Z" fill-rule="nonzero"/><path fill="#000000" d="M480.9389 317.45L479.89203 317.45L479.89203 310.73126Q479.5014 311.09064 478.8764 311.46564Q478.26703 311.825 477.78265 311.9969L477.78265 310.98126Q478.65765 310.5594 479.3139 309.98126Q479.98578 309.3875 480.26703 308.825L480.9389 308.825L480.9389 317.45ZM483.97015 313.21564Q483.97015 311.6844 484.28265 310.7625Q484.59515 309.825 485.20453 309.325Q485.82953 308.825 486.76703 308.825Q487.45453 308.825 487.97015 309.10626Q488.5014 309.3875 488.84515 309.91876Q489.1889 310.4344 489.3764 311.1844Q489.5639 311.9344 489.5639 313.21564Q489.5639 314.73126 489.2514 315.65314Q488.95453 316.575 488.32953 317.09064Q487.72015 317.59064 486.76703 317.59064Q485.53265 317.59064 484.8139 316.7Q483.97015 315.6375 483.97015 313.21564ZM485.04828 313.21564Q485.04828 315.325 485.54828 316.02814Q486.04828 316.73126 486.76703 316.73126Q487.5014 316.73126 487.98578 316.02814Q488.48578 315.325 488.48578 313.21564Q488.48578 311.09064 487.98578 310.40314Q487.5014 309.7 486.7514 309.7Q486.03265 309.7 485.59515 310.3094Q485.04828 311.09064 485.04828 313.21564ZM490.97015 313.21564Q490.97015 311.6844 491.28265 310.7625Q491.59515 309.825 492.20453 309.325Q492.82953 308.825 493.76703 308.825Q494.45453 308.825 494.97015 309.10626Q495.5014 309.3875 495.84515 309.91876Q496.1889 310.4344 496.3764 311.1844Q496.5639 311.9344 496.5639 313.21564Q496.5639 314.73126 496.2514 315.65314Q495.95453 316.575 495.32953 317.09064Q494.72015 317.59064 493.76703 317.59064Q492.53265 317.59064 491.8139 316.7Q490.97015 315.6375 490.97015 313.21564ZM492.04828 313.21564Q492.04828 315.325 492.54828 316.02814Q493.04828 316.73126 493.76703 316.73126Q494.5014 316.73126 494.98578 316.02814Q495.48578 315.325 495.48578 313.21564Q495.48578 311.09064 494.98578 310.40314Q494.5014 309.7 493.7514 309.7Q493.03265 309.7 492.59515 310.3094Q492.04828 311.09064 492.04828 313.21564Z" fill-rule="nonzero"/><path fill="#4285f4" d="M208.5 20.55C208.5 19.997715 208.94771 19.55 209.5 19.55L219.5 19.55C220.05229 19.55 220.5 19.997715 220.5 20.55L220.5 30.55C220.5 31.102285 220.05229 31.55 219.5 31.55L209.5 31.55C208.94771 31.55 208.5 31.102285 208.5 30.55Z" fill-rule="nonzero"/><path fill="#1a1a1a" d="M228.48438 29.55L231.78125 20.95625L233.0 20.95625L236.51562 29.55L235.23438 29.55L234.21875 26.940624L230.64062 26.940624L229.6875 29.55L228.48438 29.55ZM230.96875 26.01875L233.875 26.01875L232.98438 23.64375Q232.5625 22.565624 232.375 21.8625Q232.20312 22.690624 231.90625 23.503124L230.96875 26.01875ZM239.01562 29.55L236.65625 23.33125L237.76562 23.33125L239.10938 27.05Q239.3125 27.659374 239.5 28.3Q239.64062 27.815624 239.89062 27.128124L241.28125 23.33125L242.35938 23.33125L240.0 29.55L239.01562 29.55ZM247.54688 27.55L248.64062 27.675Q248.39062 28.628124 247.6875 29.159374Q246.98438 29.690624 245.90625 29.690624Q244.54688 29.690624 243.73438 28.846874Q242.9375 28.003124 242.9375 26.4875Q242.9375 24.925 243.75 24.065624Q244.5625 23.190624 245.84375 23.190624Q247.09375 23.190624 247.875 24.034374Q248.67188 24.878124 248.67188 26.425Q248.67188 26.51875 248.67188 26.70625L244.03125 26.70625Q244.09375 27.7375 244.60938 28.284374Q245.125 28.815624 245.90625 28.815624Q246.48438 28.815624 246.89062 28.51875Q247.3125 28.20625 247.54688 27.55ZM244.09375 25.846874L247.5625 25.846874Q247.5 25.05 247.17188 24.659374Q246.65625 24.05 245.85938 24.05Q245.125 24.05 244.625 24.534374Q244.14062 25.01875 244.09375 25.846874ZM250.28125 29.55L250.28125 23.33125L251.23438 23.33125L251.23438 24.26875Q251.59375 23.6125 251.89062 23.409374Q252.20312 23.190624 252.57812 23.190624Q253.10938 23.190624 253.65625 23.51875L253.29688 24.503124Q252.90625 24.26875 252.53125 24.26875Q252.17188 24.26875 251.89062 24.4875Q251.625 24.690624 251.51562 25.065624Q251.32812 25.628124 251.32812 26.284374L251.32812 29.55L250.28125 29.55ZM258.35938 28.784374Q257.76562 29.284374 257.21875 29.4875Q256.6875 29.690624 256.0625 29.690624Q255.03125 29.690624 254.48438 29.190624Q253.9375 28.690624 253.9375 27.909374Q253.9375 27.45625 254.14062 27.08125Q254.34375 26.690624 254.6875 26.471874Q255.03125 26.2375 255.45312 26.128124Q255.75 26.034374 256.39062 25.95625Q257.65625 25.815624 258.26562 25.596874Q258.26562 25.378124 258.26562 25.33125Q258.26562 24.675 257.96875 24.409374Q257.5625 24.065624 256.76562 24.065624Q256.03125 24.065624 255.67188 24.33125Q255.3125 24.58125 255.14062 25.2375L254.10938 25.096874Q254.25 24.440624 254.57812 24.034374Q254.90625 23.628124 255.51562 23.409374Q256.125 23.190624 256.92188 23.190624Q257.71875 23.190624 258.21875 23.378124Q258.71875 23.565624 258.95312 23.846874Q259.1875 24.128124 259.28125 24.565624Q259.32812 24.83125 259.32812 25.534374L259.32812 26.940624Q259.32812 28.409374 259.39062 28.8Q259.46875 29.190624 259.67188 29.55L258.5625 29.55Q258.40625 29.221874 258.35938 28.784374ZM258.26562 26.425Q257.6875 26.659374 256.54688 26.83125Q255.89062 26.925 255.625 27.05Q255.35938 27.159374 255.20312 27.378124Q255.0625 27.596874 255.0625 27.878124Q255.0625 28.3 255.375 28.58125Q255.70312 28.8625 256.3125 28.8625Q256.92188 28.8625 257.39062 28.596874Q257.875 28.33125 258.09375 27.8625Q258.26562 27.503124 258.26562 26.815624L258.26562 26.425ZM261.09375 30.065624L262.125 30.221874Q262.1875 30.690624 262.48438 30.909374Q262.875 31.20625 263.54688 31.20625Q264.28125 31.20625 264.67188 30.909374Q265.07812 30.6125 265.21875 30.096874Q265.3125 29.76875 265.29688 28.7375Q264.60938 29.55 263.57812 29.55Q262.29688 29.55 261.59375 28.628124Q260.89062 27.690624 260.89062 26.409374Q260.89062 25.51875 261.20312 24.76875Q261.53125 24.003124 262.14062 23.596874Q262.75 23.190624 263.57812 23.190624Q264.6875 23.190624 265.40625 24.08125L265.40625 23.33125L266.375 23.33125L266.375 28.70625Q266.375 30.159374 266.07812 30.76875Q265.78125 31.378124 265.14062 31.721874Q264.5 32.08125 263.5625 32.08125Q262.45312 32.08125 261.76562 31.58125Q261.07812 31.08125 261.09375 30.065624ZM261.96875 26.33125Q261.96875 27.55 262.45312 28.1125Q262.9375 28.675 263.67188 28.675Q264.40625 28.675 264.89062 28.1125Q265.39062 27.55 265.39062 26.3625Q265.39062 25.221874 264.875 24.64375Q264.375 24.065624 263.65625 24.065624Q262.95312 24.065624 262.45312 24.64375Q261.96875 25.20625 261.96875 26.33125ZM272.54688 27.55L273.64062 27.675Q273.39062 28.628124 272.6875 29.159374Q271.98438 29.690624 270.90625 29.690624Q269.54688 29.690624 268.73438 28.846874Q267.9375 28.003124 267.9375 26.4875Q267.9375 24.925 268.75 24.065624Q269.5625 23.190624 270.84375 23.190624Q272.09375 23.190624 272.875 24.034374Q273.67188 24.878124 273.67188 26.425Q273.67188 26.51875 273.67188 26.70625L269.03125 26.70625Q269.09375 27.7375 269.60938 28.284374Q270.125 28.815624 270.90625 28.815624Q271.48438 28.815624 271.89062 28.51875Q272.3125 28.20625 272.54688 27.55ZM269.09375 25.846874L272.5625 25.846874Q272.5 25.05 272.17188 24.659374Q271.65625 24.05 270.85938 24.05Q270.125 24.05 269.625 24.534374Q269.14062 25.01875 269.09375 25.846874Z" fill-rule="nonzero"/><path fill="#ea4335" d="M290.5 20.55C290.5 19.997715 290.94772 19.55 291.5 19.55L301.5 19.55C302.05228 19.55 302.5 19.997715 302.5 20.55L302.5 30.55C302.5 31.102285 302.05228 31.55 301.5 31.55L291.5 31.55C290.94772 31.55 290.5 31.102285 290.5 30.55Z" fill-rule="nonzero"/><path fill="#1a1a1a" d="M311.15625 27.565624L312.17188 27.471874Q312.29688 28.190624 312.65625 28.51875Q313.03125 28.83125 313.59375 28.83125Q314.07812 28.83125 314.4375 28.6125Q314.8125 28.378124 315.04688 28.01875Q315.28125 27.64375 315.4375 27.01875Q315.59375 26.378124 315.59375 25.721874Q315.59375 25.64375 315.59375 25.503124Q315.28125 26.003124 314.73438 26.33125Q314.1875 26.64375 313.54688 26.64375Q312.46875 26.64375 311.73438 25.878124Q311.0 25.096874 311.0 23.83125Q311.0 22.51875 311.76562 21.721874Q312.54688 20.925 313.70312 20.925Q314.53125 20.925 315.21875 21.378124Q315.92188 21.83125 316.28125 22.675Q316.64062 23.503124 316.64062 25.08125Q316.64062 26.721874 316.28125 27.70625Q315.9375 28.675 315.21875 29.190624Q314.51562 29.690624 313.57812 29.690624Q312.5625 29.690624 311.92188 29.14375Q311.28125 28.58125 311.15625 27.565624ZM315.46875 23.76875Q315.46875 22.8625 314.98438 22.33125Q314.51562 21.8 313.82812 21.8Q313.125 21.8 312.59375 22.378124Q312.07812 22.940624 312.07812 23.8625Q312.07812 24.675 312.57812 25.190624Q313.07812 25.70625 313.79688 25.70625Q314.53125 25.70625 315.0 25.190624Q315.46875 24.675 315.46875 23.76875ZM318.0 25.315624Q318.0 23.784374 318.3125 22.8625Q318.625 21.925 319.23438 21.425Q319.85938 20.925 320.79688 20.925Q321.48438 20.925 322.0 21.20625Q322.53125 21.4875 322.875 22.01875Q323.21875 22.534374 323.40625 23.284374Q323.59375 24.034374 323.59375 25.315624Q323.59375 26.83125 323.28125 27.753124Q322.98438 28.675 322.35938 29.190624Q321.75 29.690624 320.79688 29.690624Q319.5625 29.690624 318.84375 28.8Q318.0 27.7375 318.0 25.315624ZM319.07812 25.315624Q319.07812 27.425 319.57812 28.128124Q320.07812 28.83125 320.79688 28.83125Q321.53125 28.83125 322.01562 28.128124Q322.51562 27.425 322.51562 25.315624Q322.51562 23.190624 322.01562 22.503124Q321.53125 21.8 320.78125 21.8Q320.0625 21.8 319.625 22.409374Q319.07812 23.190624 319.07812 25.315624ZM327.59375 28.6125L327.75 29.534374Q327.29688 29.628124 326.95312 29.628124Q326.375 29.628124 326.0625 29.45625Q325.75 29.26875 325.60938 28.971874Q325.48438 28.675 325.48438 27.721874L325.48438 24.14375L324.71875 24.14375L324.71875 23.33125L325.48438 23.33125L325.48438 21.784374L326.53125 21.159374L326.53125 23.33125L327.59375 23.33125L327.59375 24.14375L326.53125 24.14375L326.53125 27.784374Q326.53125 28.2375 326.57812 28.3625Q326.64062 28.4875 326.76562 28.565624Q326.89062 28.64375 327.125 28.64375Q327.3125 28.64375 327.59375 28.6125ZM328.29688 29.55L328.29688 20.95625L329.34375 20.95625L329.34375 24.034374Q330.07812 23.190624 331.20312 23.190624Q331.90625 23.190624 332.40625 23.471874Q332.92188 23.7375 333.14062 24.221874Q333.35938 24.690624 333.35938 25.6125L333.35938 29.55L332.3125 29.55L332.3125 25.6125Q332.3125 24.815624 331.96875 24.45625Q331.625 24.096874 331.0 24.096874Q330.53125 24.096874 330.10938 24.346874Q329.70312 24.58125 329.51562 25.003124Q329.34375 25.409374 329.34375 26.14375L329.34375 29.55L328.29688 29.55ZM338.29688 31.940624L338.29688 23.33125L339.25 23.33125L339.25 24.128124Q339.59375 23.659374 340.01562 23.425Q340.45312 23.190624 341.0625 23.190624Q341.85938 23.190624 342.46875 23.596874Q343.07812 24.003124 343.375 24.753124Q343.6875 25.503124 343.6875 26.39375Q343.6875 27.346874 343.34375 28.1125Q343.01562 28.878124 342.35938 29.284374Q341.70312 29.690624 340.98438 29.690624Q340.45312 29.690624 340.03125 29.471874Q339.60938 29.2375 339.34375 28.909374L339.34375 31.940624L338.29688 31.940624ZM339.25 26.471874Q339.25 27.675 339.73438 28.253124Q340.21875 28.815624 340.90625 28.815624Q341.60938 28.815624 342.10938 28.221874Q342.60938 27.628124 342.60938 26.378124Q342.60938 25.190624 342.125 24.6125Q341.64062 24.01875 340.95312 24.01875Q340.28125 24.01875 339.76562 24.64375Q339.25 25.26875 339.25 26.471874ZM349.54688 27.55L350.64062 27.675Q350.39062 28.628124 349.6875 29.159374Q348.98438 29.690624 347.90625 29.690624Q346.54688 29.690624 345.73438 28.846874Q344.9375 28.003124 344.9375 26.4875Q344.9375 24.925 345.75 24.065624Q346.5625 23.190624 347.84375 23.190624Q349.09375 23.190624 349.875 24.034374Q350.67188 24.878124 350.67188 26.425Q350.67188 26.51875 350.67188 26.70625L346.03125 26.70625Q346.09375 27.7375 346.60938 28.284374Q347.125 28.815624 347.90625 28.815624Q348.48438 28.815624 348.89062 28.51875Q349.3125 28.20625 349.54688 27.55ZM346.09375 25.846874L349.5625 25.846874Q349.5 25.05 349.17188 24.659374Q348.65625 24.05 347.85938 24.05Q347.125 24.05 346.625 24.534374Q346.14062 25.01875 346.09375 25.846874ZM352.28125 29.55L352.28125 23.33125L353.23438 23.33125L353.23438 24.26875Q353.59375 23.6125 353.89062 23.409374Q354.20312 23.190624 354.57812 23.190624Q355.10938 23.190624 355.65625 23.51875L355.29688 24.503124Q354.90625 24.26875 354.53125 24.26875Q354.17188 24.26875 353.89062 24.4875Q353.625 24.690624 353.51562 25.065624Q353.32812 25.628124 353.32812 26.284374L353.32812 29.55L352.28125 29.55ZM360.35938 27.26875L361.39062 27.409374Q361.21875 28.471874 360.51562 29.08125Q359.8125 29.690624 358.79688 29.690624Q357.51562 29.690624 356.73438 28.8625Q355.96875 28.01875 355.96875 26.45625Q355.96875 25.45625 356.29688 24.70625Q356.64062 23.940624 357.3125 23.565624Q358.0 23.190624 358.8125 23.190624Q359.8125 23.190624 360.45312 23.70625Q361.10938 24.20625 361.29688 25.159374L360.26562 25.315624Q360.125 24.690624 359.75 24.378124Q359.375 24.05 358.84375 24.05Q358.04688 24.05 357.54688 24.628124Q357.04688 25.190624 357.04688 26.425Q357.04688 27.690624 357.53125 28.253124Q358.01562 28.815624 358.78125 28.815624Q359.40625 28.815624 359.8125 28.440624Q360.23438 28.065624 360.35938 27.26875ZM366.54688 27.55L367.64062 27.675Q367.39062 28.628124 366.6875 29.159374Q365.98438 29.690624 364.90625 29.690624Q363.54688 29.690624 362.73438 28.846874Q361.9375 28.003124 361.9375 26.4875Q361.9375 24.925 362.75 24.065624Q363.5625 23.190624 364.84375 23.190624Q366.09375 23.190624 366.875 24.034374Q367.67188 24.878124 367.67188 26.425Q367.67188 26.51875 367.67188 26.70625L363.03125 26.70625Q363.09375 27.7375 363.60938 28.284374Q364.125 28.815624 364.90625 28.815624Q365.48438 28.815624 365.89062 28.51875Q366.3125 28.20625 366.54688 27.55ZM363.09375 25.846874L366.5625 25.846874Q366.5 25.05 366.17188 24.659374Q365.65625 24.05 364.85938 24.05Q364.125 24.05 363.625 24.534374Q363.14062 25.01875 363.09375 25.846874ZM369.29688 29.55L369.29688 23.33125L370.23438 23.33125L370.23438 24.20625Q370.92188 23.190624 372.21875 23.190624Q372.78125 23.190624 373.25 23.39375Q373.73438 23.596874 373.96875 23.925Q374.20312 24.253124 374.29688 24.690624Q374.34375 24.9875 374.34375 25.721874L374.34375 29.55L373.29688 29.55L373.29688 25.76875Q373.29688 25.1125 373.17188 24.8Q373.04688 24.4875 372.73438 24.3Q372.42188 24.096874 372.0 24.096874Q371.32812 24.096874 370.82812 24.534374Q370.34375 24.95625 370.34375 26.14375L370.34375 29.55L369.29688 29.55ZM378.59375 28.6125L378.75 29.534374Q378.29688 29.628124 377.95312 29.628124Q377.375 29.628124 377.0625 29.45625Q376.75 29.26875 376.60938 28.971874Q376.48438 28.675 376.48438 27.721874L376.48438 24.14375L375.71875 24.14375L375.71875 23.33125L376.48438 23.33125L376.48438 21.784374L377.53125 21.159374L377.53125 23.33125L378.59375 23.33125L378.59375 24.14375L377.53125 24.14375L377.53125 27.784374Q377.53125 28.2375 377.57812 28.3625Q377.64062 28.4875 377.76562 28.565624Q377.89062 28.64375 378.125 28.64375Q378.3125 28.64375 378.59375 28.6125ZM379.29688 22.175L379.29688 20.95625L380.35938 20.95625L380.35938 22.175L379.29688 22.175ZM379.29688 29.55L379.29688 23.33125L380.35938 23.33125L380.35938 29.55L379.29688 29.55ZM382.26562 29.55L382.26562 20.95625L383.32812 20.95625L383.32812 29.55L382.26562 29.55ZM389.54688 27.55L390.64062 27.675Q390.39062 28.628124 389.6875 29.159374Q388.98438 29.690624 387.90625 29.690624Q386.54688 29.690624 385.73438 28.846874Q384.9375 28.003124 384.9375 26.4875Q384.9375 24.925 385.75 24.065624Q386.5625 23.190624 387.84375 23.190624Q389.09375 23.190624 389.875 24.034374Q390.67188 24.878124 390.67188 26.425Q390.67188 26.51875 390.67188 26.70625L386.03125 26.70625Q386.09375 27.7375 386.60938 28.284374Q387.125 28.815624 387.90625 28.815624Q388.48438 28.815624 388.89062 28.51875Q389.3125 28.20625 389.54688 27.55ZM386.09375 25.846874L389.5625 25.846874Q389.5 25.05 389.17188 24.659374Q388.65625 24.05 387.85938 24.05Q387.125 24.05 386.625 24.534374Q386.14062 25.01875 386.09375 25.846874Z" fill-rule="nonzero"/></svg>