<svg version="1.1" viewBox="0.0 0.0 600.0 371.0" fill="none" stroke="none" stroke-linecap="square" stroke-miterlimit="10" width="600" height="371" xmlns:xlink="http://www.w3.org/1999/xlink" xmlns="http://www.w3.org/2000/svg"><path fill="#ffffff" d="M0 0L600.0 0L600.0 371.0L0 371.0L0 0Z" fill-rule="nonzero"/><path stroke="#333333" stroke-width="1.0" stroke-linecap="butt" d="M105.5 300.5L581.5 300.5" fill-rule="nonzero"/><path stroke="#cccccc" stroke-width="1.0" stroke-linecap="butt" d="M105.5 265.5L581.5 265.5" fill-rule="nonzero"/><path stroke="#cccccc" stroke-width="1.0" stroke-linecap="butt" d="M105.5 230.5L581.5 230.5" fill-rule="nonzero"/><path stroke="#cccccc" stroke-width="1.0" stroke-linecap="butt" d="M105.5 195.5L581.5 195.5" fill-rule="nonzero"/><path stroke="#cccccc" stroke-width="1.0" stroke-linecap="butt" d="M105.5 161.5L581.5 161.5" fill-rule="nonzero"/><path stroke="#cccccc" stroke-width="1.0" stroke-linecap="butt" d="M105.5 126.5L581.5 126.5" fill-rule="nonzero"/><path stroke="#cccccc" stroke-width="1.0" stroke-linecap="butt" d="M105.5 91.5L581.5 91.5" fill-rule="nonzero"/><path stroke="#cccccc" stroke-width="1.0" stroke-linecap="butt" d="M105.5 56.5L581.5 56.5" fill-rule="nonzero"/><clipPath id="id_0"><path d="M105.55 51.916668L581.45 51.916668L581.45 300.45L105.55 300.45L105.55 51.916668Z" clip-rule="nonzero"/></clipPath><path stroke="#000000" stroke-width="0.0" stroke-linecap="butt" stroke-opacity="0.0" clip-path="url(#id_0)" d="M200.0 300.0L155.0 300.0L155.0 298.5C155.0 297.67157 155.67157 297.0 156.5 297.0L198.5 297.0C199.32843 297.0 200.0 297.67157 200.0 298.5Z" fill-rule="nonzero"/><path fill="#4285f4" clip-path="url(#id_0)" d="M200.0 300.0L155.0 300.0L155.0 298.5C155.0 297.67157 155.67157 297.0 156.5 297.0L198.5 297.0C199.32843 297.0 200.0 297.67157 200.0 298.5Z" fill-rule="nonzero"/><path stroke="#000000" stroke-width="0.0" stroke-linecap="butt" stroke-opacity="0.0" clip-path="url(#id_0)" d="M343.0 300.0L298.0 300.0L298.0 278.0C298.0 276.89542 298.89542 276.0 300.0 276.0L341.0 276.0C342.10458 276.0 343.0 276.89542 343.0 278.0Z" fill-rule="nonzero"/><path fill="#4285f4" clip-path="url(#id_0)" d="M343.0 300.0L298.0 300.0L298.0 278.0C298.0 276.89542 298.89542 276.0 300.0 276.0L341.0 276.0C342.10458 276.0 343.0 276.89542 343.0 278.0Z" fill-rule="nonzero"/><path stroke="#000000" stroke-width="0.0" stroke-linecap="butt" stroke-opacity="0.0" clip-path="url(#id_0)" d="M485.0 300.0L440.0 300.0L440.0 72.0C440.0 70.89543 440.89542 70.0 442.0 70.0L483.0 70.0C484.10458 70.0 485.0 70.89543 485.0 72.0Z" fill-rule="nonzero"/><path fill="#4285f4" clip-path="url(#id_0)" d="M485.0 300.0L440.0 300.0L440.0 72.0C440.0 70.89543 440.89542 70.0 442.0 70.0L483.0 70.0C484.10458 70.0 485.0 70.89543 485.0 72.0Z" fill-rule="nonzero"/><path stroke="#000000" stroke-width="0.0" stroke-linecap="butt" stroke-opacity="0.0" clip-path="url(#id_0)" d="M246.0 300.0L201.0 300.0L201.0 296.0C201.0 294.89542 201.89543 294.0 203.0 294.0L244.0 294.0C245.10457 294.0 246.0 294.89542 246.0 296.0Z" fill-rule="nonzero"/><path fill="#ea4335" clip-path="url(#id_0)" d="M246.0 300.0L201.0 300.0L201.0 296.0C201.0 294.89542 201.89543 294.0 203.0 294.0L244.0 294.0C245.10457 294.0 246.0 294.89542 246.0 296.0Z" fill-rule="nonzero"/><path stroke="#000000" stroke-width="0.0" stroke-linecap="butt" stroke-opacity="0.0" clip-path="url(#id_0)" d="M389.0 300.0L344.0 300.0L344.0 258.0C344.0 256.89542 344.89542 256.0 346.0 256.0L387.0 256.0C388.10458 256.0 389.0 256.89542 389.0 258.0Z" fill-rule="nonzero"/><path fill="#ea4335" clip-path="url(#id_0)" d="M389.0 300.0L344.0 300.0L344.0 258.0C344.0 256.89542 344.89542 256.0 346.0 256.0L387.0 256.0C388.10458 256.0 389.0 256.89542 389.0 258.0Z" fill-rule="nonzero"/><path stroke="#000000" stroke-width="0.0" stroke-linecap="butt" stroke-opacity="0.0" clip-path="url(#id_0)" d="M531.0 300.0L486.0 300.0L486.0 54.0C486.0 52.89543 486.89542 52.0 488.0 52.0L529.0 52.0C530.10455 52.0 531.0 52.89543 531.0 54.0Z" fill-rule="nonzero"/><path fill="#ea4335" clip-path="url(#id_0)" d="M531.0 300.0L486.0 300.0L486.0 54.0C486.0 52.89543 486.89542 52.0 488.0 52.0L529.0 52.0C530.10455 52.0 531.0 52.89543 531.0 54.0Z" fill-rule="nonzero"/><path fill="#000000" d="M291.92188 349.45L291.92188 340.85626L293.07812 340.85626L297.59375 347.60626L297.59375 340.85626L298.6875 340.85626L298.6875 349.45L297.51562 349.45L293.0 342.7L293.0 349.45L291.92188 349.45ZM304.875 349.45L304.875 348.52814Q304.14062 349.59064 302.89062 349.59064Q302.34375 349.59064 301.85938 349.3875Q301.39062 349.16876 301.15625 348.85626Q300.92188 348.52814 300.82812 348.0594Q300.76562 347.7625 300.76562 347.075L300.76562 343.23126L301.82812 343.23126L301.82812 346.6844Q301.82812 347.4969 301.89062 347.79376Q301.98438 348.2 302.29688 348.45Q302.625 348.6844 303.10938 348.6844Q303.57812 348.6844 303.98438 348.45Q304.40625 348.2 304.57812 347.77814Q304.76562 347.35626 304.76562 346.5594L304.76562 343.23126L305.8125 343.23126L305.8125 349.45L304.875 349.45ZM307.79688 349.45L307.79688 343.23126L308.73438 343.23126L308.73438 344.10626Q309.03125 343.6375 309.51562 343.3719Q310.0 343.09064 310.625 343.09064Q311.3125 343.09064 311.75 343.3719Q312.20312 343.65314 312.375 344.16876Q313.125 343.09064 314.29688 343.09064Q315.23438 343.09064 315.71875 343.60626Q316.21875 344.10626 316.21875 345.1844L316.21875 349.45L315.17188 349.45L315.17188 345.52814Q315.17188 344.90314 315.0625 344.6219Q314.96875 344.34064 314.70312 344.16876Q314.4375 343.9969 314.0625 343.9969Q313.40625 343.9969 312.96875 344.4344Q312.54688 344.8719 312.54688 345.84064L312.54688 349.45L311.48438 349.45L311.48438 345.40314Q311.48438 344.7 311.21875 344.35626Q310.96875 343.9969 310.39062 343.9969Q309.9375 343.9969 309.5625 344.23126Q309.1875 344.46564 309.01562 344.91876Q308.84375 345.3719 308.84375 346.21564L308.84375 349.45L307.79688 349.45ZM318.76562 349.45L317.78125 349.45L317.78125 340.85626L318.84375 340.85626L318.84375 343.91876Q319.51562 343.09064 320.54688 343.09064Q321.125 343.09064 321.625 343.325Q322.14062 343.54376 322.46875 343.96564Q322.8125 344.3875 323.0 344.98126Q323.1875 345.575 323.1875 346.2469Q323.1875 347.84064 322.39062 348.71564Q321.59375 349.59064 320.5 349.59064Q319.39062 349.59064 318.76562 348.66876L318.76562 349.45ZM318.75 346.29376Q318.75 347.40314 319.0625 347.90314Q319.5625 348.71564 320.40625 348.71564Q321.09375 348.71564 321.59375 348.1219Q322.10938 347.52814 322.10938 346.325Q322.10938 345.10626 321.625 344.52814Q321.14062 343.95 320.45312 343.95Q319.76562 343.95 319.25 344.5594Q318.75 345.15314 318.75 346.29376ZM329.04688 347.45L330.14062 347.575Q329.89062 348.52814 329.1875 349.0594Q328.48438 349.59064 327.40625 349.59064Q326.04688 349.59064 325.23438 348.7469Q324.4375 347.90314 324.4375 346.3875Q324.4375 344.825 325.25 343.96564Q326.0625 343.09064 327.34375 343.09064Q328.59375 343.09064 329.375 343.9344Q330.17188 344.77814 330.17188 346.325Q330.17188 346.41876 330.17188 346.60626L325.53125 346.60626Q325.59375 347.6375 326.10938 348.1844Q326.625 348.71564 327.40625 348.71564Q327.98438 348.71564 328.39062 348.41876Q328.8125 348.10626 329.04688 347.45ZM325.59375 345.7469L329.0625 345.7469Q329.0 344.95 328.67188 344.5594Q328.15625 343.95 327.35938 343.95Q326.625 343.95 326.125 344.4344Q325.64062 344.91876 325.59375 345.7469ZM331.78125 349.45L331.78125 343.23126L332.73438 343.23126L332.73438 344.16876Q333.09375 343.5125 333.39062 343.3094Q333.70312 343.09064 334.07812 343.09064Q334.60938 343.09064 335.15625 343.41876L334.79688 344.40314Q334.40625 344.16876 334.03125 344.16876Q333.67188 344.16876 333.39062 344.3875Q333.125 344.59064 333.01562 344.96564Q332.82812 345.52814 332.82812 346.1844L332.82812 349.45L331.78125 349.45ZM338.40625 346.34064Q338.40625 344.60626 339.35938 343.77814Q340.15625 343.09064 341.3125 343.09064Q342.59375 343.09064 343.40625 343.9344Q344.23438 344.7625 344.23438 346.2469Q344.23438 347.45 343.875 348.1375Q343.51562 348.825 342.8125 349.21564Q342.125 349.59064 341.3125 349.59064Q340.01562 349.59064 339.20312 348.7625Q338.40625 347.91876 338.40625 346.34064ZM339.48438 346.34064Q339.48438 347.52814 340.0 348.1219Q340.53125 348.71564 341.3125 348.71564Q342.10938 348.71564 342.625 348.1219Q343.14062 347.52814 343.14062 346.3094Q343.14062 345.15314 342.60938 344.5594Q342.09375 343.96564 341.3125 343.96564Q340.53125 343.96564 340.0 344.5594Q339.48438 345.1375 339.48438 346.34064ZM346.04688 349.45L346.04688 344.04376L345.10938 344.04376L345.10938 343.23126L346.04688 343.23126L346.04688 342.5594Q346.04688 341.9344 346.15625 341.6375Q346.3125 341.21564 346.6875 340.96564Q347.07812 340.71564 347.76562 340.71564Q348.21875 340.71564 348.75 340.825L348.59375 341.73126Q348.26562 341.6844 347.96875 341.6844Q347.48438 341.6844 347.28125 341.8875Q347.09375 342.09064 347.09375 342.65314L347.09375 343.23126L348.3125 343.23126L348.3125 344.04376L347.09375 344.04376L347.09375 349.45L346.04688 349.45ZM354.10938 349.45L354.10938 341.8719L351.28125 341.8719L351.28125 340.85626L358.09375 340.85626L358.09375 341.8719L355.25 341.8719L355.25 349.45L354.10938 349.45ZM358.79688 349.45L358.79688 340.85626L359.84375 340.85626L359.84375 343.9344Q360.57812 343.09064 361.70312 343.09064Q362.40625 343.09064 362.90625 343.3719Q363.42188 343.6375 363.64062 344.1219Q363.85938 344.59064 363.85938 345.5125L363.85938 349.45L362.8125 349.45L362.8125 345.5125Q362.8125 344.71564 362.46875 344.35626Q362.125 343.9969 361.5 343.9969Q361.03125 343.9969 360.60938 344.2469Q360.20312 344.48126 360.01562 344.90314Q359.84375 345.3094 359.84375 346.04376L359.84375 349.45L358.79688 349.45ZM365.78125 349.45L365.78125 343.23126L366.73438 343.23126L366.73438 344.16876Q367.09375 343.5125 367.39062 343.3094Q367.70312 343.09064 368.07812 343.09064Q368.60938 343.09064 369.15625 343.41876L368.79688 344.40314Q368.40625 344.16876 368.03125 344.16876Q367.67188 344.16876 367.39062 344.3875Q367.125 344.59064 367.01562 344.96564Q366.82812 345.52814 366.82812 346.1844L366.82812 349.45L365.78125 349.45ZM374.04688 347.45L375.14062 347.575Q374.89062 348.52814 374.1875 349.0594Q373.48438 349.59064 372.40625 349.59064Q371.04688 349.59064 370.23438 348.7469Q369.4375 347.90314 369.4375 346.3875Q369.4375 344.825 370.25 343.96564Q371.0625 343.09064 372.34375 343.09064Q373.59375 343.09064 374.375 343.9344Q375.17188 344.77814 375.17188 346.325Q375.17188 346.41876 375.17188 346.60626L370.53125 346.60626Q370.59375 347.6375 371.10938 348.1844Q371.625 348.71564 372.40625 348.71564Q372.98438 348.71564 373.39062 348.41876Q373.8125 348.10626 374.04688 347.45ZM370.59375 345.7469L374.0625 345.7469Q374.0 344.95 373.67188 344.5594Q373.15625 343.95 372.35938 343.95Q371.625 343.95 371.125 344.4344Q370.64062 344.91876 370.59375 345.7469ZM380.85938 348.6844Q380.26562 349.1844 379.71875 349.3875Q379.1875 349.59064 378.5625 349.59064Q377.53125 349.59064 376.98438 349.09064Q376.4375 348.59064 376.4375 347.8094Q376.4375 347.35626 376.64062 346.98126Q376.84375 346.59064 377.1875 346.3719Q377.53125 346.1375 377.95312 346.02814Q378.25 345.9344 378.89062 345.85626Q380.15625 345.71564 380.76562 345.4969Q380.76562 345.27814 380.76562 345.23126Q380.76562 344.575 380.46875 344.3094Q380.0625 343.96564 379.26562 343.96564Q378.53125 343.96564 378.17188 344.23126Q377.8125 344.48126 377.64062 345.1375L376.60938 344.9969Q376.75 344.34064 377.07812 343.9344Q377.40625 343.52814 378.01562 343.3094Q378.625 343.09064 379.42188 343.09064Q380.21875 343.09064 380.71875 343.27814Q381.21875 343.46564 381.45312 343.7469Q381.6875 344.02814 381.78125 344.46564Q381.82812 344.73126 381.82812 345.4344L381.82812 346.84064Q381.82812 348.3094 381.89062 348.7Q381.96875 349.09064 382.17188 349.45L381.0625 349.45Q380.90625 349.1219 380.85938 348.6844ZM380.76562 346.325Q380.1875 346.5594 379.04688 346.73126Q378.39062 346.825 378.125 346.95Q377.85938 347.0594 377.70312 347.27814Q377.5625 347.4969 377.5625 347.77814Q377.5625 348.2 377.875 348.48126Q378.20312 348.7625 378.8125 348.7625Q379.42188 348.7625 379.89062 348.4969Q380.375 348.23126 380.59375 347.7625Q380.76562 347.40314 380.76562 346.71564L380.76562 346.325ZM387.82812 349.45L387.82812 348.66876Q387.23438 349.59064 386.09375 349.59064Q385.34375 349.59064 384.71875 349.1844Q384.09375 348.7625 383.75 348.02814Q383.40625 347.29376 383.40625 346.34064Q383.40625 345.41876 383.71875 344.65314Q384.03125 343.8875 384.65625 343.4969Q385.28125 343.09064 386.04688 343.09064Q386.60938 343.09064 387.04688 343.325Q387.48438 343.5594 387.76562 343.9344L387.76562 340.85626L388.8125 340.85626L388.8125 349.45L387.82812 349.45ZM384.5 346.34064Q384.5 347.54376 385.0 348.1375Q385.5 348.71564 386.1875 348.71564Q386.875 348.71564 387.35938 348.15314Q387.84375 347.59064 387.84375 346.4344Q387.84375 345.15314 387.34375 344.5594Q386.85938 343.96564 386.14062 343.96564Q385.4375 343.96564 384.96875 344.54376Q384.5 345.10626 384.5 346.34064ZM390.375 347.59064L391.40625 347.4344Q391.5 348.0594 391.89062 348.3875Q392.29688 348.71564 393.03125 348.71564Q393.75 348.71564 394.09375 348.4344Q394.45312 348.1375 394.45312 347.73126Q394.45312 347.3719 394.14062 347.16876Q393.92188 347.02814 393.0625 346.8094Q391.90625 346.5125 391.45312 346.3094Q391.01562 346.09064 390.78125 345.71564Q390.54688 345.34064 390.54688 344.8719Q390.54688 344.46564 390.73438 344.10626Q390.92188 343.7469 391.25 343.5125Q391.5 343.34064 391.92188 343.21564Q392.34375 343.09064 392.84375 343.09064Q393.5625 343.09064 394.10938 343.3094Q394.67188 343.5125 394.9375 343.8719Q395.20312 344.23126 395.29688 344.825L394.26562 344.96564Q394.20312 344.4969 393.85938 344.23126Q393.53125 343.95 392.90625 343.95Q392.1875 343.95 391.875 344.2Q391.5625 344.4344 391.5625 344.7625Q391.5625 344.96564 391.6875 345.1219Q391.82812 345.29376 392.09375 345.40314Q392.25 345.46564 393.03125 345.66876Q394.15625 345.98126 394.59375 346.16876Q395.03125 346.35626 395.28125 346.71564Q395.53125 347.075 395.53125 347.6219Q395.53125 348.15314 395.21875 348.6219Q394.92188 349.075 394.34375 349.34064Q393.76562 349.59064 393.03125 349.59064Q391.8125 349.59064 391.17188 349.09064Q390.54688 348.575 390.375 347.59064Z" fill-rule="nonzero"/><path fill="#000000" d="M29.550013 233.57396L21.971888 233.57396L21.971888 236.40208L20.956263 236.40208L20.956263 229.58958L21.971888 229.58958L21.971888 232.43333L29.550013 232.43333L29.550013 233.57396ZM22.175013 228.88646L20.956263 228.88646L20.956263 227.82396L22.175013 227.82396L22.175013 228.88646ZM29.550013 228.88646L23.331263 228.88646L23.331263 227.82396L29.550013 227.82396L29.550013 228.88646ZM29.550013 225.88646L23.331263 225.88646L23.331263 224.94896L24.206263 224.94896Q23.737513 224.65208 23.471888 224.16771Q23.190638 223.68333 23.190638 223.05833Q23.190638 222.37083 23.471888 221.93333Q23.753138 221.48021 24.268763 221.30833Q23.190638 220.55833 23.190638 219.38646Q23.190638 218.44896 23.706263 217.96458Q24.206263 217.46458 25.284388 217.46458L29.550013 217.46458L29.550013 218.51146L25.628138 218.51146Q25.003138 218.51146 24.721888 218.62083Q24.440638 218.71458 24.268763 218.98021Q24.096888 219.24583 24.096888 219.62083Q24.096888 220.27708 24.534388 220.71458Q24.971888 221.13646 25.940638 221.13646L29.550013 221.13646L29.550013 222.19896L25.503138 222.19896Q24.800013 222.19896 24.456263 222.46458Q24.096888 222.71458 24.096888 223.29271Q24.096888 223.74583 24.331263 224.12083Q24.565638 224.49583 25.018763 224.66771Q25.471888 224.83958 26.315638 224.83958L29.550013 224.83958L29.550013 225.88646ZM27.550013 211.63646L27.675013 210.54271Q28.628138 210.79271 29.159388 211.49583Q29.690638 212.19896 29.690638 213.27708Q29.690638 214.63646 28.846888 215.44896Q28.003138 216.24583 26.487513 216.24583Q24.925013 216.24583 24.065638 215.43333Q23.190638 214.62083 23.190638 213.33958Q23.190638 212.08958 24.034388 211.30833Q24.878138 210.51146 26.425013 210.51146Q26.518763 210.51146 26.706263 210.51146L26.706263 215.15208Q27.737513 215.08958 28.284388 214.57396Q28.815638 214.05833 28.815638 213.27708Q28.815638 212.69896 28.518763 212.29271Q28.206263 211.87083 27.550013 211.63646ZM25.846888 215.08958L25.846888 211.62083Q25.050013 211.68333 24.659388 212.01146Q24.050013 212.52708 24.050013 213.32396Q24.050013 214.05833 24.534388 214.55833Q25.018763 215.04271 25.846888 215.08958ZM32.08126 203.87083Q30.971888 204.74583 29.503138 205.35521Q28.018763 205.94896 26.440638 205.94896Q25.050013 205.94896 23.768763 205.51146Q22.284388 204.98021 20.815638 203.87083L20.815638 203.12083Q22.034388 203.82396 22.550013 204.05833Q23.362513 204.41771 24.237513 204.62083Q25.331263 204.87083 26.440638 204.87083Q29.268763 204.87083 32.08126 203.12083L32.08126 203.87083ZM29.550013 201.88646L23.331263 201.88646L23.331263 200.94896L24.206263 200.94896Q23.737513 200.65208 23.471888 200.16771Q23.190638 199.68333 23.190638 199.05833Q23.190638 198.37083 23.471888 197.93333Q23.753138 197.48021 24.268763 197.30833Q23.190638 196.55833 23.190638 195.38646Q23.190638 194.44896 23.706263 193.96458Q24.206263 193.46458 25.284388 193.46458L29.550013 193.46458L29.550013 194.51146L25.628138 194.51146Q25.003138 194.51146 24.721888 194.62083Q24.440638 194.71458 24.268763 194.98021Q24.096888 195.24583 24.096888 195.62083Q24.096888 196.27708 24.534388 196.71458Q24.971888 197.13646 25.940638 197.13646L29.550013 197.13646L29.550013 198.19896L25.503138 198.19896Q24.800013 198.19896 24.456263 198.46458Q24.096888 198.71458 24.096888 199.29271Q24.096888 199.74583 24.331263 200.12083Q24.565638 200.49583 25.018763 200.66771Q25.471888 200.83958 26.315638 200.83958L29.550013 200.83958L29.550013 201.88646ZM22.175013 191.88646L20.956263 191.88646L20.956263 190.82396L22.175013 190.82396L22.175013 191.88646ZM29.550013 191.88646L23.331263 191.88646L23.331263 190.82396L29.550013 190.82396L29.550013 191.88646ZM27.268763 184.82396L27.409388 183.79271Q28.471888 183.96458 29.081263 184.66771Q29.690638 185.37083 29.690638 186.38646Q29.690638 187.66771 28.862513 188.44896Q28.018763 189.21458 26.456263 189.21458Q25.456263 189.21458 24.706263 188.88646Q23.940638 188.54271 23.565638 187.87083Q23.190638 187.18333 23.190638 186.37083Q23.190638 185.37083 23.706263 184.73021Q24.206263 184.07396 25.159388 183.88646L25.315638 184.91771Q24.690638 185.05833 24.378138 185.43333Q24.050013 185.80833 24.050013 186.33958Q24.050013 187.13646 24.628138 187.63646Q25.190638 188.13646 26.425013 188.13646Q27.690638 188.13646 28.253138 187.65208Q28.815638 187.16771 28.815638 186.40208Q28.815638 185.77708 28.440638 185.37083Q28.065638 184.94896 27.268763 184.82396ZM29.550013 182.90208L23.331263 182.90208L23.331263 181.94896L24.268763 181.94896Q23.612513 181.58958 23.409388 181.29271Q23.190638 180.98021 23.190638 180.60521Q23.190638 180.07396 23.518763 179.52708L24.503138 179.88646Q24.268763 180.27708 24.268763 180.65208Q24.268763 181.01146 24.487513 181.29271Q24.690638 181.55833 25.065638 181.66771Q25.628138 181.85521 26.284388 181.85521L29.550013 181.85521L29.550013 182.90208ZM26.440638 179.27708Q24.706263 179.27708 23.878138 178.32396Q23.190638 177.52708 23.190638 176.37083Q23.190638 175.08958 24.034388 174.27708Q24.862513 173.44896 26.346888 173.44896Q27.550013 173.44896 28.237513 173.80833Q28.925013 174.16771 29.315638 174.87083Q29.690638 175.55833 29.690638 176.37083Q29.690638 177.66771 28.862513 178.48021Q28.018763 179.27708 26.440638 179.27708ZM26.440638 178.19896Q27.628138 178.19896 28.221888 177.68333Q28.815638 177.15208 28.815638 176.37083Q28.815638 175.57396 28.221888 175.05833Q27.628138 174.54271 26.409388 174.54271Q25.253138 174.54271 24.659388 175.07396Q24.065638 175.58958 24.065638 176.37083Q24.065638 177.15208 24.659388 177.68333Q25.237513 178.19896 26.440638 178.19896ZM27.690638 172.30833L27.534388 171.27708Q28.159388 171.18333 28.487513 170.79271Q28.815638 170.38646 28.815638 169.65208Q28.815638 168.93333 28.534388 168.58958Q28.237513 168.23021 27.831263 168.23021Q27.471888 168.23021 27.268763 168.54271Q27.128138 168.76146 26.909388 169.62083Q26.612513 170.77708 26.409388 171.23021Q26.190638 171.66771 25.815638 171.90208Q25.440638 172.13646 24.971888 172.13646Q24.565638 172.13646 24.206263 171.94896Q23.846888 171.76146 23.612513 171.43333Q23.440638 171.18333 23.315638 170.76146Q23.190638 170.33958 23.190638 169.83958Q23.190638 169.12083 23.409388 168.57396Q23.612513 168.01146 23.971888 167.74583Q24.331263 167.48021 24.925013 167.38646L25.065638 168.41771Q24.596888 168.48021 24.331263 168.82396Q24.050013 169.15208 24.050013 169.77708Q24.050013 170.49583 24.300013 170.80833Q24.534388 171.12083 24.862513 171.12083Q25.065638 171.12083 25.221888 170.99583Q25.393763 170.85521 25.503138 170.58958Q25.565638 170.43333 25.768763 169.65208Q26.081263 168.52708 26.268763 168.08958Q26.456263 167.65208 26.815638 167.40208Q27.175013 167.15208 27.721888 167.15208Q28.253138 167.15208 28.721888 167.46458Q29.175013 167.76146 29.440638 168.33958Q29.690638 168.91771 29.690638 169.65208Q29.690638 170.87083 29.190638 171.51146Q28.675013 172.13646 27.690638 172.30833ZM27.550013 161.63646L27.675013 160.54271Q28.628138 160.79271 29.159388 161.49583Q29.690638 162.19896 29.690638 163.27708Q29.690638 164.63646 28.846888 165.44896Q28.003138 166.24583 26.487513 166.24583Q24.925013 166.24583 24.065638 165.43333Q23.190638 164.62083 23.190638 163.33958Q23.190638 162.08958 24.034388 161.30833Q24.878138 160.51146 26.425013 160.51146Q26.518763 160.51146 26.706263 160.51146L26.706263 165.15208Q27.737513 165.08958 28.284388 164.57396Q28.815638 164.05833 28.815638 163.27708Q28.815638 162.69896 28.518763 162.29271Q28.206263 161.87083 27.550013 161.63646ZM25.846888 165.08958L25.846888 161.62083Q25.050013 161.68333 24.659388 162.01146Q24.050013 162.52708 24.050013 163.32396Q24.050013 164.05833 24.534388 164.55833Q25.018763 165.04271 25.846888 165.08958ZM27.268763 154.82396L27.409388 153.79271Q28.471888 153.96458 29.081263 154.66771Q29.690638 155.37083 29.690638 156.38646Q29.690638 157.66771 28.862513 158.44896Q28.018763 159.21458 26.456263 159.21458Q25.456263 159.21458 24.706263 158.88646Q23.940638 158.54271 23.565638 157.87083Q23.190638 157.18333 23.190638 156.37083Q23.190638 155.37083 23.706263 154.73021Q24.206263 154.07396 25.159388 153.88646L25.315638 154.91771Q24.690638 155.05833 24.378138 155.43333Q24.050013 155.80833 24.050013 156.33958Q24.050013 157.13646 24.628138 157.63646Q25.190638 158.13646 26.425013 158.13646Q27.690638 158.13646 28.253138 157.65208Q28.815638 157.16771 28.815638 156.40208Q28.815638 155.77708 28.440638 155.37083Q28.065638 154.94896 27.268763 154.82396ZM26.440638 153.27708Q24.706263 153.27708 23.878138 152.32396Q23.190638 151.52708 23.190638 150.37083Q23.190638 149.08958 24.034388 148.27708Q24.862513 147.44896 26.346888 147.44896Q27.550013 147.44896 28.237513 147.80833Q28.925013 148.16771 29.315638 148.87083Q29.690638 149.55833 29.690638 150.37083Q29.690638 151.66771 28.862513 152.48021Q28.018763 153.27708 26.440638 153.27708ZM26.440638 152.19896Q27.628138 152.19896 28.221888 151.68333Q28.815638 151.15208 28.815638 150.37083Q28.815638 149.57396 28.221888 149.05833Q27.628138 148.54271 26.409388 148.54271Q25.253138 148.54271 24.659388 149.07396Q24.065638 149.58958 24.065638 150.37083Q24.065638 151.15208 24.659388 151.68333Q25.237513 152.19896 26.440638 152.19896ZM29.550013 145.88646L23.331263 145.88646L23.331263 144.94896L24.206263 144.94896Q23.190638 144.26146 23.190638 142.96458Q23.190638 142.40208 23.393763 141.93333Q23.596888 141.44896 23.925013 141.21458Q24.253138 140.98021 24.690638 140.88646Q24.987513 140.83958 25.721888 140.83958L29.550013 140.83958L29.550013 141.88646L25.768763 141.88646Q25.112513 141.88646 24.800013 142.01146Q24.487513 142.13646 24.300013 142.44896Q24.096888 142.76146 24.096888 143.18333Q24.096888 143.85521 24.534388 144.35521Q24.956263 144.83958 26.143763 144.83958L29.550013 144.83958L29.550013 145.88646ZM29.550013 134.85521L28.768763 134.85521Q29.690638 135.44896 29.690638 136.58958Q29.690638 137.33958 29.284388 137.96458Q28.862513 138.58958 28.128138 138.93333Q27.393763 139.27708 26.440638 139.27708Q25.518763 139.27708 24.753138 138.96458Q23.987513 138.65208 23.596888 138.02708Q23.190638 137.40208 23.190638 136.63646Q23.190638 136.07396 23.425013 135.63646Q23.659388 135.19896 24.034388 134.91771L20.956263 134.91771L20.956263 133.87083L29.550013 133.87083L29.550013 134.85521ZM26.440638 138.18333Q27.643763 138.18333 28.237513 137.68333Q28.815638 137.18333 28.815638 136.49583Q28.815638 135.80833 28.253138 135.32396Q27.690638 134.83958 26.534388 134.83958Q25.253138 134.83958 24.659388 135.33958Q24.065638 135.82396 24.065638 136.54271Q24.065638 137.24583 24.643763 137.71458Q25.206263 138.18333 26.440638 138.18333ZM32.08126 131.19896L32.08126 131.94896Q29.268763 130.19896 26.440638 130.19896Q25.346888 130.19896 24.253138 130.44896Q23.378138 130.65208 22.565638 131.01146Q22.050013 131.24583 20.815638 131.94896L20.815638 131.19896Q22.284388 130.10521 23.768763 129.57396Q25.050013 129.12083 26.440638 129.12083Q28.018763 129.12083 29.503138 129.73021Q30.971888 130.33958 32.08126 131.19896Z" fill-rule="nonzero"/><path fill="#000000" d="M93.05 300.21564Q93.05 298.6844 93.3625 297.7625Q93.675 296.825 94.28438 296.325Q94.90938 295.825 95.84688 295.825Q96.53438 295.825 97.05 296.10626Q97.58125 296.3875 97.925 296.91876Q98.26875 297.4344 98.45625 298.1844Q98.64375 298.9344 98.64375 300.21564Q98.64375 301.73126 98.33125 302.65314Q98.03438 303.575 97.40938 304.09064Q96.8 304.59064 95.84688 304.59064Q94.6125 304.59064 93.89375 303.7Q93.05 302.6375 93.05 300.21564ZM94.12813 300.21564Q94.12813 302.325 94.62813 303.02814Q95.12813 303.73126 95.84688 303.73126Q96.58125 303.73126 97.06563 303.02814Q97.56563 302.325 97.56563 300.21564Q97.56563 298.09064 97.06563 297.40314Q96.58125 296.7 95.83125 296.7Q95.1125 296.7 94.675 297.3094Q94.12813 298.09064 94.12813 300.21564Z" fill-rule="nonzero"/><path fill="#000000" d="M63.596874 268.5879L63.596874 269.60352L57.909374 269.60352Q57.909374 269.22852 58.034374 268.86914Q58.253124 268.29102 58.721874 267.72852Q59.20625 267.16602 60.1125 266.43164Q61.51875 265.2754 62.003124 264.60352Q62.503124 263.93164 62.503124 263.3379Q62.503124 262.7129 62.05 262.29102Q61.596874 261.85352 60.878124 261.85352Q60.1125 261.85352 59.659374 262.30664Q59.20625 262.75977 59.190624 263.57227L58.1125 263.4629Q58.221874 262.24414 58.940624 261.61914Q59.675 260.97852 60.909374 260.97852Q62.14375 260.97852 62.8625 261.66602Q63.58125 262.35352 63.58125 263.36914Q63.58125 263.88477 63.3625 264.38477Q63.159374 264.86914 62.659374 265.43164Q62.175 265.97852 61.05 266.93164Q60.096874 267.72852 59.815624 268.0254Q59.55 268.30664 59.378124 268.5879L63.596874 268.5879ZM65.05 265.36914Q65.05 263.8379 65.3625 262.91602Q65.675 261.97852 66.28438 261.47852Q66.90938 260.97852 67.84688 260.97852Q68.53438 260.97852 69.05 261.25977Q69.58125 261.54102 69.925 262.07227Q70.26875 262.5879 70.45625 263.3379Q70.64375 264.0879 70.64375 265.36914Q70.64375 266.88477 70.33125 267.80664Q70.03438 268.72852 69.40938 269.24414Q68.8 269.74414 67.84688 269.74414Q66.6125 269.74414 65.89375 268.85352Q65.05 267.79102 65.05 265.36914ZM66.12813 265.36914Q66.12813 267.47852 66.62813 268.18164Q67.12813 268.88477 67.84688 268.88477Q68.58125 268.88477 69.06563 268.18164Q69.56563 267.47852 69.56563 265.36914Q69.56563 263.24414 69.06563 262.55664Q68.58125 261.85352 67.83125 261.85352Q67.1125 261.85352 66.675 262.4629Q66.12813 263.24414 66.12813 265.36914ZM72.05 265.36914Q72.05 263.8379 72.3625 262.91602Q72.675 261.97852 73.28438 261.47852Q73.90938 260.97852 74.84688 260.97852Q75.53438 260.97852 76.05 261.25977Q76.58125 261.54102 76.925 262.07227Q77.26875 262.5879 77.45625 263.3379Q77.64375 264.0879 77.64375 265.36914Q77.64375 266.88477 77.33125 267.80664Q77.03438 268.72852 76.40938 269.24414Q75.8 269.74414 74.84688 269.74414Q73.6125 269.74414 72.89375 268.85352Q72.05 267.79102 72.05 265.36914ZM73.12813 265.36914Q73.12813 267.47852 73.62813 268.18164Q74.12813 268.88477 74.84688 268.88477Q75.58125 268.88477 76.06563 268.18164Q76.56563 267.47852 76.56563 265.36914Q76.56563 263.24414 76.06563 262.55664Q75.58125 261.85352 74.83125 261.85352Q74.1125 261.85352 73.675 262.4629Q73.12813 263.24414 73.12813 265.36914ZM79.05 265.36914Q79.05 263.8379 79.3625 262.91602Q79.675 261.97852 80.28438 261.47852Q80.90938 260.97852 81.84688 260.97852Q82.53438 260.97852 83.05 261.25977Q83.58125 261.54102 83.925 262.07227Q84.26875 262.5879 84.45625 263.3379Q84.64375 264.0879 84.64375 265.36914Q84.64375 266.88477 84.33125 267.80664Q84.03438 268.72852 83.40938 269.24414Q82.8 269.74414 81.84688 269.74414Q80.6125 269.74414 79.89375 268.85352Q79.05 267.79102 79.05 265.36914ZM80.12813 265.36914Q80.12813 267.47852 80.62813 268.18164Q81.12813 268.88477 81.84688 268.88477Q82.58125 268.88477 83.06563 268.18164Q83.56563 267.47852 83.56563 265.36914Q83.56563 263.24414 83.06563 262.55664Q82.58125 261.85352 81.83125 261.85352Q81.1125 261.85352 80.675 262.4629Q80.12813 263.24414 80.12813 265.36914ZM86.05 265.36914Q86.05 263.8379 86.3625 262.91602Q86.675 261.97852 87.28438 261.47852Q87.90938 260.97852 88.84688 260.97852Q89.53438 260.97852 90.05 261.25977Q90.58125 261.54102 90.925 262.07227Q91.26875 262.5879 91.45625 263.3379Q91.64375 264.0879 91.64375 265.36914Q91.64375 266.88477 91.33125 267.80664Q91.03438 268.72852 90.40938 269.24414Q89.8 269.74414 88.84688 269.74414Q87.6125 269.74414 86.89375 268.85352Q86.05 267.79102 86.05 265.36914ZM87.12813 265.36914Q87.12813 267.47852 87.62813 268.18164Q88.12813 268.88477 88.84688 268.88477Q89.58125 268.88477 90.06563 268.18164Q90.56563 267.47852 90.56563 265.36914Q90.56563 263.24414 90.06563 262.55664Q89.58125 261.85352 88.83125 261.85352Q88.1125 261.85352 87.675 262.4629Q87.12813 263.24414 87.12813 265.36914ZM93.05 265.36914Q93.05 263.8379 93.3625 262.91602Q93.675 261.97852 94.28438 261.47852Q94.90938 260.97852 95.84688 260.97852Q96.53438 260.97852 97.05 261.25977Q97.58125 261.54102 97.925 262.07227Q98.26875 262.5879 98.45625 263.3379Q98.64375 264.0879 98.64375 265.36914Q98.64375 266.88477 98.33125 267.80664Q98.03438 268.72852 97.40938 269.24414Q96.8 269.74414 95.84688 269.74414Q94.6125 269.74414 93.89375 268.85352Q93.05 267.79102 93.05 265.36914ZM94.12813 265.36914Q94.12813 267.47852 94.62813 268.18164Q95.12813 268.88477 95.84688 268.88477Q96.58125 268.88477 97.06563 268.18164Q97.56563 267.47852 97.56563 265.36914Q97.56563 263.24414 97.06563 262.55664Q96.58125 261.85352 95.83125 261.85352Q95.1125 261.85352 94.675 262.4629Q94.12813 263.24414 94.12813 265.36914Z" fill-rule="nonzero"/><path fill="#000000" d="M61.425 234.75702L61.425 232.69452L57.70625 232.69452L57.70625 231.72577L61.628124 226.16327L62.4875 226.16327L62.4875 231.72577L63.64375 231.72577L63.64375 232.69452L62.4875 232.69452L62.4875 234.75702L61.425 234.75702ZM61.425 231.72577L61.425 227.8664L58.7375 231.72577L61.425 231.72577ZM65.05 230.52264Q65.05 228.9914 65.3625 228.06952Q65.675 227.13202 66.28438 226.63202Q66.90938 226.13202 67.84688 226.13202Q68.53438 226.13202 69.05 226.41327Q69.58125 226.69452 69.925 227.22577Q70.26875 227.7414 70.45625 228.4914Q70.64375 229.2414 70.64375 230.52264Q70.64375 232.03827 70.33125 232.96014Q70.03438 233.88202 69.40938 234.39764Q68.8 234.89764 67.84688 234.89764Q66.6125 234.89764 65.89375 234.00702Q65.05 232.94452 65.05 230.52264ZM66.12813 230.52264Q66.12813 232.63202 66.62813 233.33514Q67.12813 234.03827 67.84688 234.03827Q68.58125 234.03827 69.06563 233.33514Q69.56563 232.63202 69.56563 230.52264Q69.56563 228.39764 69.06563 227.71014Q68.58125 227.00702 67.83125 227.00702Q67.1125 227.00702 66.675 227.6164Q66.12813 228.39764 66.12813 230.52264ZM72.05 230.52264Q72.05 228.9914 72.3625 228.06952Q72.675 227.13202 73.28438 226.63202Q73.90938 226.13202 74.84688 226.13202Q75.53438 226.13202 76.05 226.41327Q76.58125 226.69452 76.925 227.22577Q77.26875 227.7414 77.45625 228.4914Q77.64375 229.2414 77.64375 230.52264Q77.64375 232.03827 77.33125 232.96014Q77.03438 233.88202 76.40938 234.39764Q75.8 234.89764 74.84688 234.89764Q73.6125 234.89764 72.89375 234.00702Q72.05 232.94452 72.05 230.52264ZM73.12813 230.52264Q73.12813 232.63202 73.62813 233.33514Q74.12813 234.03827 74.84688 234.03827Q75.58125 234.03827 76.06563 233.33514Q76.56563 232.63202 76.56563 230.52264Q76.56563 228.39764 76.06563 227.71014Q75.58125 227.00702 74.83125 227.00702Q74.1125 227.00702 73.675 227.6164Q73.12813 228.39764 73.12813 230.52264ZM79.05 230.52264Q79.05 228.9914 79.3625 228.06952Q79.675 227.13202 80.28438 226.63202Q80.90938 226.13202 81.84688 226.13202Q82.53438 226.13202 83.05 226.41327Q83.58125 226.69452 83.925 227.22577Q84.26875 227.7414 84.45625 228.4914Q84.64375 229.2414 84.64375 230.52264Q84.64375 232.03827 84.33125 232.96014Q84.03438 233.88202 83.40938 234.39764Q82.8 234.89764 81.84688 234.89764Q80.6125 234.89764 79.89375 234.00702Q79.05 232.94452 79.05 230.52264ZM80.12813 230.52264Q80.12813 232.63202 80.62813 233.33514Q81.12813 234.03827 81.84688 234.03827Q82.58125 234.03827 83.06563 233.33514Q83.56563 232.63202 83.56563 230.52264Q83.56563 228.39764 83.06563 227.71014Q82.58125 227.00702 81.83125 227.00702Q81.1125 227.00702 80.675 227.6164Q80.12813 228.39764 80.12813 230.52264ZM86.05 230.52264Q86.05 228.9914 86.3625 228.06952Q86.675 227.13202 87.28438 226.63202Q87.90938 226.13202 88.84688 226.13202Q89.53438 226.13202 90.05 226.41327Q90.58125 226.69452 90.925 227.22577Q91.26875 227.7414 91.45625 228.4914Q91.64375 229.2414 91.64375 230.52264Q91.64375 232.03827 91.33125 232.96014Q91.03438 233.88202 90.40938 234.39764Q89.8 234.89764 88.84688 234.89764Q87.6125 234.89764 86.89375 234.00702Q86.05 232.94452 86.05 230.52264ZM87.12813 230.52264Q87.12813 232.63202 87.62813 233.33514Q88.12813 234.03827 88.84688 234.03827Q89.58125 234.03827 90.06563 233.33514Q90.56563 232.63202 90.56563 230.52264Q90.56563 228.39764 90.06563 227.71014Q89.58125 227.00702 88.83125 227.00702Q88.1125 227.00702 87.675 227.6164Q87.12813 228.39764 87.12813 230.52264ZM93.05 230.52264Q93.05 228.9914 93.3625 228.06952Q93.675 227.13202 94.28438 226.63202Q94.90938 226.13202 95.84688 226.13202Q96.53438 226.13202 97.05 226.41327Q97.58125 226.69452 97.925 227.22577Q98.26875 227.7414 98.45625 228.4914Q98.64375 229.2414 98.64375 230.52264Q98.64375 232.03827 98.33125 232.96014Q98.03438 233.88202 97.40938 234.39764Q96.8 234.89764 95.84688 234.89764Q94.6125 234.89764 93.89375 234.00702Q93.05 232.94452 93.05 230.52264ZM94.12813 230.52264Q94.12813 232.63202 94.62813 233.33514Q95.12813 234.03827 95.84688 234.03827Q96.58125 234.03827 97.06563 233.33514Q97.56563 232.63202 97.56563 230.52264Q97.56563 228.39764 97.06563 227.71014Q96.58125 227.00702 95.83125 227.00702Q95.1125 227.00702 94.675 227.6164Q94.12813 228.39764 94.12813 230.52264Z" fill-rule="nonzero"/><path fill="#000000" d="M63.51875 193.42616L62.471874 193.50429Q62.33125 192.87929 62.08125 192.59804Q61.64375 192.14491 61.01875 192.14491Q60.51875 192.14491 60.128124 192.42616Q59.64375 192.80116 59.346874 193.50429Q59.065624 194.19179 59.05 195.47304Q59.425 194.89491 59.971874 194.61366Q60.534374 194.33241 61.14375 194.33241Q62.190624 194.33241 62.925 195.11366Q63.675 195.89491 63.675 197.11366Q63.675 197.92616 63.315624 198.62929Q62.971874 199.31679 62.3625 199.69179Q61.753124 200.05116 60.9875 200.05116Q59.659374 200.05116 58.83125 199.08241Q58.003124 198.11366 58.003124 195.89491Q58.003124 193.39491 58.925 192.26991Q59.721874 191.28554 61.08125 191.28554Q62.096874 191.28554 62.7375 191.86366Q63.39375 192.42616 63.51875 193.42616ZM59.221874 197.12929Q59.221874 197.67616 59.440624 198.17616Q59.675 198.66054 60.08125 198.92616Q60.503124 199.19179 60.971874 199.19179Q61.628124 199.19179 62.1125 198.66054Q62.596874 198.11366 62.596874 197.19179Q62.596874 196.30116 62.1125 195.78554Q61.64375 195.26991 60.925 195.26991Q60.20625 195.26991 59.70625 195.78554Q59.221874 196.30116 59.221874 197.12929ZM65.05 195.67616Q65.05 194.14491 65.3625 193.22304Q65.675 192.28554 66.28438 191.78554Q66.90938 191.28554 67.84688 191.28554Q68.53438 191.28554 69.05 191.56679Q69.58125 191.84804 69.925 192.37929Q70.26875 192.89491 70.45625 193.64491Q70.64375 194.39491 70.64375 195.67616Q70.64375 197.19179 70.33125 198.11366Q70.03438 199.03554 69.40938 199.55116Q68.8 200.05116 67.84688 200.05116Q66.6125 200.05116 65.89375 199.16054Q65.05 198.09804 65.05 195.67616ZM66.12813 195.67616Q66.12813 197.78554 66.62813 198.48866Q67.12813 199.19179 67.84688 199.19179Q68.58125 199.19179 69.06563 198.48866Q69.56563 197.78554 69.56563 195.67616Q69.56563 193.55116 69.06563 192.86366Q68.58125 192.16054 67.83125 192.16054Q67.1125 192.16054 66.675 192.76991Q66.12813 193.55116 66.12813 195.67616ZM72.05 195.67616Q72.05 194.14491 72.3625 193.22304Q72.675 192.28554 73.28438 191.78554Q73.90938 191.28554 74.84688 191.28554Q75.53438 191.28554 76.05 191.56679Q76.58125 191.84804 76.925 192.37929Q77.26875 192.89491 77.45625 193.64491Q77.64375 194.39491 77.64375 195.67616Q77.64375 197.19179 77.33125 198.11366Q77.03438 199.03554 76.40938 199.55116Q75.8 200.05116 74.84688 200.05116Q73.6125 200.05116 72.89375 199.16054Q72.05 198.09804 72.05 195.67616ZM73.12813 195.67616Q73.12813 197.78554 73.62813 198.48866Q74.12813 199.19179 74.84688 199.19179Q75.58125 199.19179 76.06563 198.48866Q76.56563 197.78554 76.56563 195.67616Q76.56563 193.55116 76.06563 192.86366Q75.58125 192.16054 74.83125 192.16054Q74.1125 192.16054 73.675 192.76991Q73.12813 193.55116 73.12813 195.67616ZM79.05 195.67616Q79.05 194.14491 79.3625 193.22304Q79.675 192.28554 80.28438 191.78554Q80.90938 191.28554 81.84688 191.28554Q82.53438 191.28554 83.05 191.56679Q83.58125 191.84804 83.925 192.37929Q84.26875 192.89491 84.45625 193.64491Q84.64375 194.39491 84.64375 195.67616Q84.64375 197.19179 84.33125 198.11366Q84.03438 199.03554 83.40938 199.55116Q82.8 200.05116 81.84688 200.05116Q80.6125 200.05116 79.89375 199.16054Q79.05 198.09804 79.05 195.67616ZM80.12813 195.67616Q80.12813 197.78554 80.62813 198.48866Q81.12813 199.19179 81.84688 199.19179Q82.58125 199.19179 83.06563 198.48866Q83.56563 197.78554 83.56563 195.67616Q83.56563 193.55116 83.06563 192.86366Q82.58125 192.16054 81.83125 192.16054Q81.1125 192.16054 80.675 192.76991Q80.12813 193.55116 80.12813 195.67616ZM86.05 195.67616Q86.05 194.14491 86.3625 193.22304Q86.675 192.28554 87.28438 191.78554Q87.90938 191.28554 88.84688 191.28554Q89.53438 191.28554 90.05 191.56679Q90.58125 191.84804 90.925 192.37929Q91.26875 192.89491 91.45625 193.64491Q91.64375 194.39491 91.64375 195.67616Q91.64375 197.19179 91.33125 198.11366Q91.03438 199.03554 90.40938 199.55116Q89.8 200.05116 88.84688 200.05116Q87.6125 200.05116 86.89375 199.16054Q86.05 198.09804 86.05 195.67616ZM87.12813 195.67616Q87.12813 197.78554 87.62813 198.48866Q88.12813 199.19179 88.84688 199.19179Q89.58125 199.19179 90.06563 198.48866Q90.56563 197.78554 90.56563 195.67616Q90.56563 193.55116 90.06563 192.86366Q89.58125 192.16054 88.83125 192.16054Q88.1125 192.16054 87.675 192.76991Q87.12813 193.55116 87.12813 195.67616ZM93.05 195.67616Q93.05 194.14491 93.3625 193.22304Q93.675 192.28554 94.28438 191.78554Q94.90938 191.28554 95.84688 191.28554Q96.53438 191.28554 97.05 191.56679Q97.58125 191.84804 97.925 192.37929Q98.26875 192.89491 98.45625 193.64491Q98.64375 194.39491 98.64375 195.67616Q98.64375 197.19179 98.33125 198.11366Q98.03438 199.03554 97.40938 199.55116Q96.8 200.05116 95.84688 200.05116Q94.6125 200.05116 93.89375 199.16054Q93.05 198.09804 93.05 195.67616ZM94.12813 195.67616Q94.12813 197.78554 94.62813 198.48866Q95.12813 199.19179 95.84688 199.19179Q96.58125 199.19179 97.06563 198.48866Q97.56563 197.78554 97.56563 195.67616Q97.56563 193.55116 97.06563 192.86366Q96.58125 192.16054 95.83125 192.16054Q95.1125 192.16054 94.675 192.76991Q94.12813 193.55116 94.12813 195.67616Z" fill-rule="nonzero"/><path fill="#000000" d="M59.675 160.4078Q59.01875 160.1578 58.690624 159.7203Q58.378124 159.26718 58.378124 158.6578Q58.378124 157.7203 59.05 157.07968Q59.7375 156.43906 60.846874 156.43906Q61.971874 156.43906 62.659374 157.0953Q63.346874 157.75156 63.346874 158.68906Q63.346874 159.2828 63.034374 159.7203Q62.721874 160.1578 62.08125 160.4078Q62.878124 160.6578 63.284374 161.23593Q63.690624 161.81406 63.690624 162.61093Q63.690624 163.70468 62.909374 164.45468Q62.14375 165.20468 60.8625 165.20468Q59.596874 165.20468 58.815624 164.45468Q58.034374 163.70468 58.034374 162.57968Q58.034374 161.73593 58.45625 161.17343Q58.89375 160.61093 59.675 160.4078ZM59.45625 158.61093Q59.45625 159.2203 59.846874 159.61093Q60.253124 160.00156 60.878124 160.00156Q61.4875 160.00156 61.878124 159.62656Q62.26875 159.23593 62.26875 158.67343Q62.26875 158.0953 61.8625 157.70468Q61.45625 157.29843 60.8625 157.29843Q60.253124 157.29843 59.846874 157.68906Q59.45625 158.07968 59.45625 158.61093ZM59.128124 162.57968Q59.128124 163.0328 59.33125 163.45468Q59.55 163.87656 59.971874 164.11093Q60.39375 164.3453 60.878124 164.3453Q61.628124 164.3453 62.1125 163.86093Q62.6125 163.37656 62.6125 162.62656Q62.6125 161.86093 62.1125 161.36093Q61.6125 160.86093 60.846874 160.86093Q60.096874 160.86093 59.6125 161.36093Q59.128124 161.8453 59.128124 162.57968ZM65.05 160.82968Q65.05 159.29843 65.3625 158.37656Q65.675 157.43906 66.28438 156.93906Q66.90938 156.43906 67.84688 156.43906Q68.53438 156.43906 69.05 156.7203Q69.58125 157.00156 69.925 157.5328Q70.26875 158.04843 70.45625 158.79843Q70.64375 159.54843 70.64375 160.82968Q70.64375 162.3453 70.33125 163.26718Q70.03438 164.18906 69.40938 164.70468Q68.8 165.20468 67.84688 165.20468Q66.6125 165.20468 65.89375 164.31406Q65.05 163.25156 65.05 160.82968ZM66.12813 160.82968Q66.12813 162.93906 66.62813 163.64218Q67.12813 164.3453 67.84688 164.3453Q68.58125 164.3453 69.06563 163.64218Q69.56563 162.93906 69.56563 160.82968Q69.56563 158.70468 69.06563 158.01718Q68.58125 157.31406 67.83125 157.31406Q67.1125 157.31406 66.675 157.92343Q66.12813 158.70468 66.12813 160.82968ZM72.05 160.82968Q72.05 159.29843 72.3625 158.37656Q72.675 157.43906 73.28438 156.93906Q73.90938 156.43906 74.84688 156.43906Q75.53438 156.43906 76.05 156.7203Q76.58125 157.00156 76.925 157.5328Q77.26875 158.04843 77.45625 158.79843Q77.64375 159.54843 77.64375 160.82968Q77.64375 162.3453 77.33125 163.26718Q77.03438 164.18906 76.40938 164.70468Q75.8 165.20468 74.84688 165.20468Q73.6125 165.20468 72.89375 164.31406Q72.05 163.25156 72.05 160.82968ZM73.12813 160.82968Q73.12813 162.93906 73.62813 163.64218Q74.12813 164.3453 74.84688 164.3453Q75.58125 164.3453 76.06563 163.64218Q76.56563 162.93906 76.56563 160.82968Q76.56563 158.70468 76.06563 158.01718Q75.58125 157.31406 74.83125 157.31406Q74.1125 157.31406 73.675 157.92343Q73.12813 158.70468 73.12813 160.82968ZM79.05 160.82968Q79.05 159.29843 79.3625 158.37656Q79.675 157.43906 80.28438 156.93906Q80.90938 156.43906 81.84688 156.43906Q82.53438 156.43906 83.05 156.7203Q83.58125 157.00156 83.925 157.5328Q84.26875 158.04843 84.45625 158.79843Q84.64375 159.54843 84.64375 160.82968Q84.64375 162.3453 84.33125 163.26718Q84.03438 164.18906 83.40938 164.70468Q82.8 165.20468 81.84688 165.20468Q80.6125 165.20468 79.89375 164.31406Q79.05 163.25156 79.05 160.82968ZM80.12813 160.82968Q80.12813 162.93906 80.62813 163.64218Q81.12813 164.3453 81.84688 164.3453Q82.58125 164.3453 83.06563 163.64218Q83.56563 162.93906 83.56563 160.82968Q83.56563 158.70468 83.06563 158.01718Q82.58125 157.31406 81.83125 157.31406Q81.1125 157.31406 80.675 157.92343Q80.12813 158.70468 80.12813 160.82968ZM86.05 160.82968Q86.05 159.29843 86.3625 158.37656Q86.675 157.43906 87.28438 156.93906Q87.90938 156.43906 88.84688 156.43906Q89.53438 156.43906 90.05 156.7203Q90.58125 157.00156 90.925 157.5328Q91.26875 158.04843 91.45625 158.79843Q91.64375 159.54843 91.64375 160.82968Q91.64375 162.3453 91.33125 163.26718Q91.03438 164.18906 90.40938 164.70468Q89.8 165.20468 88.84688 165.20468Q87.6125 165.20468 86.89375 164.31406Q86.05 163.25156 86.05 160.82968ZM87.12813 160.82968Q87.12813 162.93906 87.62813 163.64218Q88.12813 164.3453 88.84688 164.3453Q89.58125 164.3453 90.06563 163.64218Q90.56563 162.93906 90.56563 160.82968Q90.56563 158.70468 90.06563 158.01718Q89.58125 157.31406 88.83125 157.31406Q88.1125 157.31406 87.675 157.92343Q87.12813 158.70468 87.12813 160.82968ZM93.05 160.82968Q93.05 159.29843 93.3625 158.37656Q93.675 157.43906 94.28438 156.93906Q94.90938 156.43906 95.84688 156.43906Q96.53438 156.43906 97.05 156.7203Q97.58125 157.00156 97.925 157.5328Q98.26875 158.04843 98.45625 158.79843Q98.64375 159.54843 98.64375 160.82968Q98.64375 162.3453 98.33125 163.26718Q98.03438 164.18906 97.40938 164.70468Q96.8 165.20468 95.84688 165.20468Q94.6125 165.20468 93.89375 164.31406Q93.05 163.25156 93.05 160.82968ZM94.12813 160.82968Q94.12813 162.93906 94.62813 163.64218Q95.12813 164.3453 95.84688 164.3453Q96.58125 164.3453 97.06563 163.64218Q97.56563 162.93906 97.56563 160.82968Q97.56563 158.70468 97.06563 158.01718Q96.58125 157.31406 95.83125 157.31406Q95.1125 157.31406 94.675 157.92343Q94.12813 158.70468 94.12813 160.82968Z" fill-rule="nonzero"/><path fill="#000000" d="M55.01875 130.21756L53.971874 130.21756L53.971874 123.49881Q53.58125 123.858185 52.95625 124.233185Q52.346874 124.59256 51.8625 124.764435L51.8625 123.74881Q52.7375 123.326935 53.39375 122.74881Q54.065624 122.15506 54.346874 121.59256L55.01875 121.59256L55.01875 130.21756ZM58.05 125.983185Q58.05 124.451935 58.3625 123.53006Q58.675 122.59256 59.284374 122.09256Q59.909374 121.59256 60.846874 121.59256Q61.534374 121.59256 62.05 121.87381Q62.58125 122.15506 62.925 122.68631Q63.26875 123.201935 63.45625 123.951935Q63.64375 124.701935 63.64375 125.983185Q63.64375 127.49881 63.33125 128.42068Q63.034374 129.34256 62.409374 129.85818Q61.8 130.35818 60.846874 130.35818Q59.6125 130.35818 58.89375 129.46756Q58.05 128.40506 58.05 125.983185ZM59.128124 125.983185Q59.128124 128.09256 59.628124 128.79568Q60.128124 129.49881 60.846874 129.49881Q61.58125 129.49881 62.065624 128.79568Q62.565624 128.09256 62.565624 125.983185Q62.565624 123.858185 62.065624 123.170685Q61.58125 122.46756 60.83125 122.46756Q60.1125 122.46756 59.675 123.076935Q59.128124 123.858185 59.128124 125.983185ZM65.05 125.983185Q65.05 124.451935 65.3625 123.53006Q65.675 122.59256 66.28438 122.09256Q66.90938 121.59256 67.84688 121.59256Q68.53438 121.59256 69.05 121.87381Q69.58125 122.15506 69.925 122.68631Q70.26875 123.201935 70.45625 123.951935Q70.64375 124.701935 70.64375 125.983185Q70.64375 127.49881 70.33125 128.42068Q70.03438 129.34256 69.40938 129.85818Q68.8 130.35818 67.84688 130.35818Q66.6125 130.35818 65.89375 129.46756Q65.05 128.40506 65.05 125.983185ZM66.12813 125.983185Q66.12813 128.09256 66.62813 128.79568Q67.12813 129.49881 67.84688 129.49881Q68.58125 129.49881 69.06563 128.79568Q69.56563 128.09256 69.56563 125.983185Q69.56563 123.858185 69.06563 123.170685Q68.58125 122.46756 67.83125 122.46756Q67.1125 122.46756 66.675 123.076935Q66.12813 123.858185 66.12813 125.983185ZM72.05 125.983185Q72.05 124.451935 72.3625 123.53006Q72.675 122.59256 73.28438 122.09256Q73.90938 121.59256 74.84688 121.59256Q75.53438 121.59256 76.05 121.87381Q76.58125 122.15506 76.925 122.68631Q77.26875 123.201935 77.45625 123.951935Q77.64375 124.701935 77.64375 125.983185Q77.64375 127.49881 77.33125 128.42068Q77.03438 129.34256 76.40938 129.85818Q75.8 130.35818 74.84688 130.35818Q73.6125 130.35818 72.89375 129.46756Q72.05 128.40506 72.05 125.983185ZM73.12813 125.983185Q73.12813 128.09256 73.62813 128.79568Q74.12813 129.49881 74.84688 129.49881Q75.58125 129.49881 76.06563 128.79568Q76.56563 128.09256 76.56563 125.983185Q76.56563 123.858185 76.06563 123.170685Q75.58125 122.46756 74.83125 122.46756Q74.1125 122.46756 73.675 123.076935Q73.12813 123.858185 73.12813 125.983185ZM79.05 125.983185Q79.05 124.451935 79.3625 123.53006Q79.675 122.59256 80.28438 122.09256Q80.90938 121.59256 81.84688 121.59256Q82.53438 121.59256 83.05 121.87381Q83.58125 122.15506 83.925 122.68631Q84.26875 123.201935 84.45625 123.951935Q84.64375 124.701935 84.64375 125.983185Q84.64375 127.49881 84.33125 128.42068Q84.03438 129.34256 83.40938 129.85818Q82.8 130.35818 81.84688 130.35818Q80.6125 130.35818 79.89375 129.46756Q79.05 128.40506 79.05 125.983185ZM80.12813 125.983185Q80.12813 128.09256 80.62813 128.79568Q81.12813 129.49881 81.84688 129.49881Q82.58125 129.49881 83.06563 128.79568Q83.56563 128.09256 83.56563 125.983185Q83.56563 123.858185 83.06563 123.170685Q82.58125 122.46756 81.83125 122.46756Q81.1125 122.46756 80.675 123.076935Q80.12813 123.858185 80.12813 125.983185ZM86.05 125.983185Q86.05 124.451935 86.3625 123.53006Q86.675 122.59256 87.28438 122.09256Q87.90938 121.59256 88.84688 121.59256Q89.53438 121.59256 90.05 121.87381Q90.58125 122.15506 90.925 122.68631Q91.26875 123.201935 91.45625 123.951935Q91.64375 124.701935 91.64375 125.983185Q91.64375 127.49881 91.33125 128.42068Q91.03438 129.34256 90.40938 129.85818Q89.8 130.35818 88.84688 130.35818Q87.6125 130.35818 86.89375 129.46756Q86.05 128.40506 86.05 125.983185ZM87.12813 125.983185Q87.12813 128.09256 87.62813 128.79568Q88.12813 129.49881 88.84688 129.49881Q89.58125 129.49881 90.06563 128.79568Q90.56563 128.09256 90.56563 125.983185Q90.56563 123.858185 90.06563 123.170685Q89.58125 122.46756 88.83125 122.46756Q88.1125 122.46756 87.675 123.076935Q87.12813 123.858185 87.12813 125.983185ZM93.05 125.983185Q93.05 124.451935 93.3625 123.53006Q93.675 122.59256 94.28438 122.09256Q94.90938 121.59256 95.84688 121.59256Q96.53438 121.59256 97.05 121.87381Q97.58125 122.15506 97.925 122.68631Q98.26875 123.201935 98.45625 123.951935Q98.64375 124.701935 98.64375 125.983185Q98.64375 127.49881 98.33125 128.42068Q98.03438 129.34256 97.40938 129.85818Q96.8 130.35818 95.84688 130.35818Q94.6125 130.35818 93.89375 129.46756Q93.05 128.40506 93.05 125.983185ZM94.12813 125.983185Q94.12813 128.09256 94.62813 128.79568Q95.12813 129.49881 95.84688 129.49881Q96.58125 129.49881 97.06563 128.79568Q97.56563 128.09256 97.56563 125.983185Q97.56563 123.858185 97.06563 123.170685Q96.58125 122.46756 95.83125 122.46756Q95.1125 122.46756 94.675 123.076935Q94.12813 123.858185 94.12813 125.983185Z" fill-rule="nonzero"/><path fill="#000000" d="M55.01875 95.37108L53.971874 95.37108L53.971874 88.65233Q53.58125 89.0117 52.95625 89.3867Q52.346874 89.74608 51.8625 89.91795L51.8625 88.90233Q52.7375 88.48045 53.39375 87.90233Q54.065624 87.30858 54.346874 86.74608L55.01875 86.74608L55.01875 95.37108ZM63.596874 94.35545L63.596874 95.37108L57.909374 95.37108Q57.909374 94.99608 58.034374 94.6367Q58.253124 94.05858 58.721874 93.49608Q59.20625 92.93358 60.1125 92.1992Q61.51875 91.04295 62.003124 90.37108Q62.503124 89.6992 62.503124 89.10545Q62.503124 88.48045 62.05 88.05858Q61.596874 87.62108 60.878124 87.62108Q60.1125 87.62108 59.659374 88.0742Q59.20625 88.52733 59.190624 89.33983L58.1125 89.23045Q58.221874 88.0117 58.940624 87.3867Q59.675 86.74608 60.909374 86.74608Q62.14375 86.74608 62.8625 87.43358Q63.58125 88.12108 63.58125 89.1367Q63.58125 89.65233 63.3625 90.15233Q63.159374 90.6367 62.659374 91.1992Q62.175 91.74608 61.05 92.6992Q60.096874 93.49608 59.815624 93.79295Q59.55 94.0742 59.378124 94.35545L63.596874 94.35545ZM65.05 91.1367Q65.05 89.60545 65.3625 88.68358Q65.675 87.74608 66.28438 87.24608Q66.90938 86.74608 67.84688 86.74608Q68.53438 86.74608 69.05 87.02733Q69.58125 87.30858 69.925 87.83983Q70.26875 88.35545 70.45625 89.10545Q70.64375 89.85545 70.64375 91.1367Q70.64375 92.65233 70.33125 93.5742Q70.03438 94.49608 69.40938 95.0117Q68.8 95.5117 67.84688 95.5117Q66.6125 95.5117 65.89375 94.62108Q65.05 93.55858 65.05 91.1367ZM66.12813 91.1367Q66.12813 93.24608 66.62813 93.9492Q67.12813 94.65233 67.84688 94.65233Q68.58125 94.65233 69.06563 93.9492Q69.56563 93.24608 69.56563 91.1367Q69.56563 89.0117 69.06563 88.3242Q68.58125 87.62108 67.83125 87.62108Q67.1125 87.62108 66.675 88.23045Q66.12813 89.0117 66.12813 91.1367ZM72.05 91.1367Q72.05 89.60545 72.3625 88.68358Q72.675 87.74608 73.28438 87.24608Q73.90938 86.74608 74.84688 86.74608Q75.53438 86.74608 76.05 87.02733Q76.58125 87.30858 76.925 87.83983Q77.26875 88.35545 77.45625 89.10545Q77.64375 89.85545 77.64375 91.1367Q77.64375 92.65233 77.33125 93.5742Q77.03438 94.49608 76.40938 95.0117Q75.8 95.5117 74.84688 95.5117Q73.6125 95.5117 72.89375 94.62108Q72.05 93.55858 72.05 91.1367ZM73.12813 91.1367Q73.12813 93.24608 73.62813 93.9492Q74.12813 94.65233 74.84688 94.65233Q75.58125 94.65233 76.06563 93.9492Q76.56563 93.24608 76.56563 91.1367Q76.56563 89.0117 76.06563 88.3242Q75.58125 87.62108 74.83125 87.62108Q74.1125 87.62108 73.675 88.23045Q73.12813 89.0117 73.12813 91.1367ZM79.05 91.1367Q79.05 89.60545 79.3625 88.68358Q79.675 87.74608 80.28438 87.24608Q80.90938 86.74608 81.84688 86.74608Q82.53438 86.74608 83.05 87.02733Q83.58125 87.30858 83.925 87.83983Q84.26875 88.35545 84.45625 89.10545Q84.64375 89.85545 84.64375 91.1367Q84.64375 92.65233 84.33125 93.5742Q84.03438 94.49608 83.40938 95.0117Q82.8 95.5117 81.84688 95.5117Q80.6125 95.5117 79.89375 94.62108Q79.05 93.55858 79.05 91.1367ZM80.12813 91.1367Q80.12813 93.24608 80.62813 93.9492Q81.12813 94.65233 81.84688 94.65233Q82.58125 94.65233 83.06563 93.9492Q83.56563 93.24608 83.56563 91.1367Q83.56563 89.0117 83.06563 88.3242Q82.58125 87.62108 81.83125 87.62108Q81.1125 87.62108 80.675 88.23045Q80.12813 89.0117 80.12813 91.1367ZM86.05 91.1367Q86.05 89.60545 86.3625 88.68358Q86.675 87.74608 87.28438 87.24608Q87.90938 86.74608 88.84688 86.74608Q89.53438 86.74608 90.05 87.02733Q90.58125 87.30858 90.925 87.83983Q91.26875 88.35545 91.45625 89.10545Q91.64375 89.85545 91.64375 91.1367Q91.64375 92.65233 91.33125 93.5742Q91.03438 94.49608 90.40938 95.0117Q89.8 95.5117 88.84688 95.5117Q87.6125 95.5117 86.89375 94.62108Q86.05 93.55858 86.05 91.1367ZM87.12813 91.1367Q87.12813 93.24608 87.62813 93.9492Q88.12813 94.65233 88.84688 94.65233Q89.58125 94.65233 90.06563 93.9492Q90.56563 93.24608 90.56563 91.1367Q90.56563 89.0117 90.06563 88.3242Q89.58125 87.62108 88.83125 87.62108Q88.1125 87.62108 87.675 88.23045Q87.12813 89.0117 87.12813 91.1367ZM93.05 91.1367Q93.05 89.60545 93.3625 88.68358Q93.675 87.74608 94.28438 87.24608Q94.90938 86.74608 95.84688 86.74608Q96.53438 86.74608 97.05 87.02733Q97.58125 87.30858 97.925 87.83983Q98.26875 88.35545 98.45625 89.10545Q98.64375 89.85545 98.64375 91.1367Q98.64375 92.65233 98.33125 93.5742Q98.03438 94.49608 97.40938 95.0117Q96.8 95.5117 95.84688 95.5117Q94.6125 95.5117 93.89375 94.62108Q93.05 93.55858 93.05 91.1367ZM94.12813 91.1367Q94.12813 93.24608 94.62813 93.9492Q95.12813 94.65233 95.84688 94.65233Q96.58125 94.65233 97.06563 93.9492Q97.56563 93.24608 97.56563 91.1367Q97.56563 89.0117 97.06563 88.3242Q96.58125 87.62108 95.83125 87.62108Q95.1125 87.62108 94.675 88.23045Q94.12813 89.0117 94.12813 91.1367Z" fill-rule="nonzero"/><path fill="#000000" d="M55.01875 60.524593L53.971874 60.524593L53.971874 53.805843Q53.58125 54.16522 52.95625 54.54022Q52.346874 54.899593 51.8625 55.07147L51.8625 54.055843Q52.7375 53.63397 53.39375 53.055843Q54.065624 52.462093 54.346874 51.899593L55.01875 51.899593L55.01875 60.524593ZM61.425 60.524593L61.425 58.462093L57.70625 58.462093L57.70625 57.493343L61.628124 51.930843L62.4875 51.930843L62.4875 57.493343L63.64375 57.493343L63.64375 58.462093L62.4875 58.462093L62.4875 60.524593L61.425 60.524593ZM61.425 57.493343L61.425 53.63397L58.7375 57.493343L61.425 57.493343ZM65.05 56.29022Q65.05 54.75897 65.3625 53.837093Q65.675 52.899593 66.28438 52.399593Q66.90938 51.899593 67.84688 51.899593Q68.53438 51.899593 69.05 52.180843Q69.58125 52.462093 69.925 52.993343Q70.26875 53.50897 70.45625 54.25897Q70.64375 55.00897 70.64375 56.29022Q70.64375 57.805843 70.33125 58.72772Q70.03438 59.649593 69.40938 60.16522Q68.8 60.66522 67.84688 60.66522Q66.6125 60.66522 65.89375 59.774593Q65.05 58.712093 65.05 56.29022ZM66.12813 56.29022Q66.12813 58.399593 66.62813 59.10272Q67.12813 59.805843 67.84688 59.805843Q68.58125 59.805843 69.06563 59.10272Q69.56563 58.399593 69.56563 56.29022Q69.56563 54.16522 69.06563 53.47772Q68.58125 52.774593 67.83125 52.774593Q67.1125 52.774593 66.675 53.38397Q66.12813 54.16522 66.12813 56.29022ZM72.05 56.29022Q72.05 54.75897 72.3625 53.837093Q72.675 52.899593 73.28438 52.399593Q73.90938 51.899593 74.84688 51.899593Q75.53438 51.899593 76.05 52.180843Q76.58125 52.462093 76.925 52.993343Q77.26875 53.50897 77.45625 54.25897Q77.64375 55.00897 77.64375 56.29022Q77.64375 57.805843 77.33125 58.72772Q77.03438 59.649593 76.40938 60.16522Q75.8 60.66522 74.84688 60.66522Q73.6125 60.66522 72.89375 59.774593Q72.05 58.712093 72.05 56.29022ZM73.12813 56.29022Q73.12813 58.399593 73.62813 59.10272Q74.12813 59.805843 74.84688 59.805843Q75.58125 59.805843 76.06563 59.10272Q76.56563 58.399593 76.56563 56.29022Q76.56563 54.16522 76.06563 53.47772Q75.58125 52.774593 74.83125 52.774593Q74.1125 52.774593 73.675 53.38397Q73.12813 54.16522 73.12813 56.29022ZM79.05 56.29022Q79.05 54.75897 79.3625 53.837093Q79.675 52.899593 80.28438 52.399593Q80.90938 51.899593 81.84688 51.899593Q82.53438 51.899593 83.05 52.180843Q83.58125 52.462093 83.925 52.993343Q84.26875 53.50897 84.45625 54.25897Q84.64375 55.00897 84.64375 56.29022Q84.64375 57.805843 84.33125 58.72772Q84.03438 59.649593 83.40938 60.16522Q82.8 60.66522 81.84688 60.66522Q80.6125 60.66522 79.89375 59.774593Q79.05 58.712093 79.05 56.29022ZM80.12813 56.29022Q80.12813 58.399593 80.62813 59.10272Q81.12813 59.805843 81.84688 59.805843Q82.58125 59.805843 83.06563 59.10272Q83.56563 58.399593 83.56563 56.29022Q83.56563 54.16522 83.06563 53.47772Q82.58125 52.774593 81.83125 52.774593Q81.1125 52.774593 80.675 53.38397Q80.12813 54.16522 80.12813 56.29022ZM86.05 56.29022Q86.05 54.75897 86.3625 53.837093Q86.675 52.899593 87.28438 52.399593Q87.90938 51.899593 88.84688 51.899593Q89.53438 51.899593 90.05 52.180843Q90.58125 52.462093 90.925 52.993343Q91.26875 53.50897 91.45625 54.25897Q91.64375 55.00897 91.64375 56.29022Q91.64375 57.805843 91.33125 58.72772Q91.03438 59.649593 90.40938 60.16522Q89.8 60.66522 88.84688 60.66522Q87.6125 60.66522 86.89375 59.774593Q86.05 58.712093 86.05 56.29022ZM87.12813 56.29022Q87.12813 58.399593 87.62813 59.10272Q88.12813 59.805843 88.84688 59.805843Q89.58125 59.805843 90.06563 59.10272Q90.56563 58.399593 90.56563 56.29022Q90.56563 54.16522 90.06563 53.47772Q89.58125 52.774593 88.83125 52.774593Q88.1125 52.774593 87.675 53.38397Q87.12813 54.16522 87.12813 56.29022ZM93.05 56.29022Q93.05 54.75897 93.3625 53.837093Q93.675 52.899593 94.28438 52.399593Q94.90938 51.899593 95.84688 51.899593Q96.53438 51.899593 97.05 52.180843Q97.58125 52.462093 97.925 52.993343Q98.26875 53.50897 98.45625 54.25897Q98.64375 55.00897 98.64375 56.29022Q98.64375 57.805843 98.33125 58.72772Q98.03438 59.649593 97.40938 60.16522Q96.8 60.66522 95.84688 60.66522Q94.6125 60.66522 93.89375 59.774593Q93.05 58.712093 93.05 56.29022ZM94.12813 56.29022Q94.12813 58.399593 94.62813 59.10272Q95.12813 59.805843 95.84688 59.805843Q96.58125 59.805843 97.06563 59.10272Q97.56563 58.399593 97.56563 56.29022Q97.56563 54.16522 97.06563 53.47772Q96.58125 52.774593 95.83125 52.774593Q95.1125 52.774593 94.675 53.38397Q94.12813 54.16522 94.12813 56.29022Z" fill-rule="nonzero"/><path fill="#000000" d="M202.40904 317.45L201.36217 317.45L201.36217 310.73126Q200.97154 311.09064 200.34654 311.46564Q199.73717 311.825 199.25279 311.9969L199.25279 310.98126Q200.12779 310.5594 200.78404 309.98126Q201.45592 309.3875 201.73717 308.825L202.40904 308.825L202.40904 317.45Z" fill-rule="nonzero"/><path fill="#000000" d="M340.96875 317.45L339.92188 317.45L339.92188 310.73126Q339.53125 311.09064 338.90625 311.46564Q338.29688 311.825 337.8125 311.9969L337.8125 310.98126Q338.6875 310.5594 339.34375 309.98126Q340.01562 309.3875 340.29688 308.825L340.96875 308.825L340.96875 317.45ZM344.0 313.21564Q344.0 311.6844 344.3125 310.7625Q344.625 309.825 345.23438 309.325Q345.85938 308.825 346.79688 308.825Q347.48438 308.825 348.0 309.10626Q348.53125 309.3875 348.875 309.91876Q349.21875 310.4344 349.40625 311.1844Q349.59375 311.9344 349.59375 313.21564Q349.59375 314.73126 349.28125 315.65314Q348.98438 316.575 348.35938 317.09064Q347.75 317.59064 346.79688 317.59064Q345.5625 317.59064 344.84375 316.7Q344.0 315.6375 344.0 313.21564ZM345.07812 313.21564Q345.07812 315.325 345.57812 316.02814Q346.07812 316.73126 346.79688 316.73126Q347.53125 316.73126 348.01562 316.02814Q348.51562 315.325 348.51562 313.21564Q348.51562 311.09064 348.01562 310.40314Q347.53125 309.7 346.78125 309.7Q346.0625 309.7 345.625 310.3094Q345.07812 311.09064 345.07812 313.21564Z" fill-rule="nonzero"/><path fill="#000000" d="M479.52844 317.45L478.48157 317.45L478.48157 310.73126Q478.09094 311.09064 477.46594 311.46564Q476.85657 311.825 476.3722 311.9969L476.3722 310.98126Q477.2472 310.5594 477.90344 309.98126Q478.57532 309.3875 478.85657 308.825L479.52844 308.825L479.52844 317.45ZM482.5597 313.21564Q482.5597 311.6844 482.8722 310.7625Q483.1847 309.825 483.79407 309.325Q484.41907 308.825 485.35657 308.825Q486.04407 308.825 486.5597 309.10626Q487.09094 309.3875 487.4347 309.91876Q487.77844 310.4344 487.96594 311.1844Q488.15344 311.9344 488.15344 313.21564Q488.15344 314.73126 487.84094 315.65314Q487.54407 316.575 486.91907 317.09064Q486.3097 317.59064 485.35657 317.59064Q484.1222 317.59064 483.40344 316.7Q482.5597 315.6375 482.5597 313.21564ZM483.63782 313.21564Q483.63782 315.325 484.13782 316.02814Q484.63782 316.73126 485.35657 316.73126Q486.09094 316.73126 486.57532 316.02814Q487.07532 315.325 487.07532 313.21564Q487.07532 311.09064 486.57532 310.40314Q486.09094 309.7 485.34094 309.7Q484.6222 309.7 484.1847 310.3094Q483.63782 311.09064 483.63782 313.21564ZM489.5597 313.21564Q489.5597 311.6844 489.8722 310.7625Q490.1847 309.825 490.79407 309.325Q491.41907 308.825 492.35657 308.825Q493.04407 308.825 493.5597 309.10626Q494.09094 309.3875 494.4347 309.91876Q494.77844 310.4344 494.96594 311.1844Q495.15344 311.9344 495.15344 313.21564Q495.15344 314.73126 494.84094 315.65314Q494.54407 316.575 493.91907 317.09064Q493.3097 317.59064 492.35657 317.59064Q491.1222 317.59064 490.40344 316.7Q489.5597 315.6375 489.5597 313.21564ZM490.63782 313.21564Q490.63782 315.325 491.13782 316.02814Q491.63782 316.73126 492.35657 316.73126Q493.09094 316.73126 493.57532 316.02814Q494.07532 315.325 494.07532 313.21564Q494.07532 311.09064 493.57532 310.40314Q493.09094 309.7 492.34094 309.7Q491.6222 309.7 491.1847 310.3094Q490.63782 311.09064 490.63782 313.21564Z" fill-rule="nonzero"/><path fill="#4285f4" d="M208.5 20.55C208.5 19.997715 208.94771 19.55 209.5 19.55L219.5 19.55C220.05229 19.55 220.5 19.997715 220.5 20.55L220.5 30.55C220.5 31.102285 220.05229 31.55 219.5 31.55L209.5 31.55C208.94771 31.55 208.5 31.102285 208.5 30.55Z" fill-rule="nonzero"/><path fill="#1a1a1a" d="M228.48438 29.55L231.78125 20.95625L233.0 20.95625L236.51562 29.55L235.23438 29.55L234.21875 26.940624L230.64062 26.940624L229.6875 29.55L228.48438 29.55ZM230.96875 26.01875L233.875 26.01875L232.98438 23.64375Q232.5625 22.565624 232.375 21.8625Q232.20312 22.690624 231.90625 23.503124L230.96875 26.01875ZM239.01562 29.55L236.65625 23.33125L237.76562 23.33125L239.10938 27.05Q239.3125 27.659374 239.5 28.3Q239.64062 27.815624 239.89062 27.128124L241.28125 23.33125L242.35938 23.33125L240.0 29.55L239.01562 29.55ZM247.54688 27.55L248.64062 27.675Q248.39062 28.628124 247.6875 29.159374Q246.98438 29.690624 245.90625 29.690624Q244.54688 29.690624 243.73438 28.846874Q242.9375 28.003124 242.9375 26.4875Q242.9375 24.925 243.75 24.065624Q244.5625 23.190624 245.84375 23.190624Q247.09375 23.190624 247.875 24.034374Q248.67188 24.878124 248.67188 26.425Q248.67188 26.51875 248.67188 26.70625L244.03125 26.70625Q244.09375 27.7375 244.60938 28.284374Q245.125 28.815624 245.90625 28.815624Q246.48438 28.815624 246.89062 28.51875Q247.3125 28.20625 247.54688 27.55ZM244.09375 25.846874L247.5625 25.846874Q247.5 25.05 247.17188 24.659374Q246.65625 24.05 245.85938 24.05Q245.125 24.05 244.625 24.534374Q244.14062 25.01875 244.09375 25.846874ZM250.28125 29.55L250.28125 23.33125L251.23438 23.33125L251.23438 24.26875Q251.59375 23.6125 251.89062 23.409374Q252.20312 23.190624 252.57812 23.190624Q253.10938 23.190624 253.65625 23.51875L253.29688 24.503124Q252.90625 24.26875 252.53125 24.26875Q252.17188 24.26875 251.89062 24.4875Q251.625 24.690624 251.51562 25.065624Q251.32812 25.628124 251.32812 26.284374L251.32812 29.55L250.28125 29.55ZM258.35938 28.784374Q257.76562 29.284374 257.21875 29.4875Q256.6875 29.690624 256.0625 29.690624Q255.03125 29.690624 254.48438 29.190624Q253.9375 28.690624 253.9375 27.909374Q253.9375 27.45625 254.14062 27.08125Q254.34375 26.690624 254.6875 26.471874Q255.03125 26.2375 255.45312 26.128124Q255.75 26.034374 256.39062 25.95625Q257.65625 25.815624 258.26562 25.596874Q258.26562 25.378124 258.26562 25.33125Q258.26562 24.675 257.96875 24.409374Q257.5625 24.065624 256.76562 24.065624Q256.03125 24.065624 255.67188 24.33125Q255.3125 24.58125 255.14062 25.2375L254.10938 25.096874Q254.25 24.440624 254.57812 24.034374Q254.90625 23.628124 255.51562 23.409374Q256.125 23.190624 256.92188 23.190624Q257.71875 23.190624 258.21875 23.378124Q258.71875 23.565624 258.95312 23.846874Q259.1875 24.128124 259.28125 24.565624Q259.32812 24.83125 259.32812 25.534374L259.32812 26.940624Q259.32812 28.409374 259.39062 28.8Q259.46875 29.190624 259.67188 29.55L258.5625 29.55Q258.40625 29.221874 258.35938 28.784374ZM258.26562 26.425Q257.6875 26.659374 256.54688 26.83125Q255.89062 26.925 255.625 27.05Q255.35938 27.159374 255.20312 27.378124Q255.0625 27.596874 255.0625 27.878124Q255.0625 28.3 255.375 28.58125Q255.70312 28.8625 256.3125 28.8625Q256.92188 28.8625 257.39062 28.596874Q257.875 28.33125 258.09375 27.8625Q258.26562 27.503124 258.26562 26.815624L258.26562 26.425ZM261.09375 30.065624L262.125 30.221874Q262.1875 30.690624 262.48438 30.909374Q262.875 31.20625 263.54688 31.20625Q264.28125 31.20625 264.67188 30.909374Q265.07812 30.6125 265.21875 30.096874Q265.3125 29.76875 265.29688 28.7375Q264.60938 29.55 263.57812 29.55Q262.29688 29.55 261.59375 28.628124Q260.89062 27.690624 260.89062 26.409374Q260.89062 25.51875 261.20312 24.76875Q261.53125 24.003124 262.14062 23.596874Q262.75 23.190624 263.57812 23.190624Q264.6875 23.190624 265.40625 24.08125L265.40625 23.33125L266.375 23.33125L266.375 28.70625Q266.375 30.159374 266.07812 30.76875Q265.78125 31.378124 265.14062 31.721874Q264.5 32.08125 263.5625 32.08125Q262.45312 32.08125 261.76562 31.58125Q261.07812 31.08125 261.09375 30.065624ZM261.96875 26.33125Q261.96875 27.55 262.45312 28.1125Q262.9375 28.675 263.67188 28.675Q264.40625 28.675 264.89062 28.1125Q265.39062 27.55 265.39062 26.3625Q265.39062 25.221874 264.875 24.64375Q264.375 24.065624 263.65625 24.065624Q262.95312 24.065624 262.45312 24.64375Q261.96875 25.20625 261.96875 26.33125ZM272.54688 27.55L273.64062 27.675Q273.39062 28.628124 272.6875 29.159374Q271.98438 29.690624 270.90625 29.690624Q269.54688 29.690624 268.73438 28.846874Q267.9375 28.003124 267.9375 26.4875Q267.9375 24.925 268.75 24.065624Q269.5625 23.190624 270.84375 23.190624Q272.09375 23.190624 272.875 24.034374Q273.67188 24.878124 273.67188 26.425Q273.67188 26.51875 273.67188 26.70625L269.03125 26.70625Q269.09375 27.7375 269.60938 28.284374Q270.125 28.815624 270.90625 28.815624Q271.48438 28.815624 271.89062 28.51875Q272.3125 28.20625 272.54688 27.55ZM269.09375 25.846874L272.5625 25.846874Q272.5 25.05 272.17188 24.659374Q271.65625 24.05 270.85938 24.05Q270.125 24.05 269.625 24.534374Q269.14062 25.01875 269.09375 25.846874Z" fill-rule="nonzero"/><path fill="#ea4335" d="M290.5 20.55C290.5 19.997715 290.94772 19.55 291.5 19.55L301.5 19.55C302.05228 19.55 302.5 19.997715 302.5 20.55L302.5 30.55C302.5 31.102285 302.05228 31.55 301.5 31.55L291.5 31.55C290.94772 31.55 290.5 31.102285 290.5 30.55Z" fill-rule="nonzero"/><path fill="#1a1a1a" d="M311.15625 27.565624L312.17188 27.471874Q312.29688 28.190624 312.65625 28.51875Q313.03125 28.83125 313.59375 28.83125Q314.07812 28.83125 314.4375 28.6125Q314.8125 28.378124 315.04688 28.01875Q315.28125 27.64375 315.4375 27.01875Q315.59375 26.378124 315.59375 25.721874Q315.59375 25.64375 315.59375 25.503124Q315.28125 26.003124 314.73438 26.33125Q314.1875 26.64375 313.54688 26.64375Q312.46875 26.64375 311.73438 25.878124Q311.0 25.096874 311.0 23.83125Q311.0 22.51875 311.76562 21.721874Q312.54688 20.925 313.70312 20.925Q314.53125 20.925 315.21875 21.378124Q315.92188 21.83125 316.28125 22.675Q316.64062 23.503124 316.64062 25.08125Q316.64062 26.721874 316.28125 27.70625Q315.9375 28.675 315.21875 29.190624Q314.51562 29.690624 313.57812 29.690624Q312.5625 29.690624 311.92188 29.14375Q311.28125 28.58125 311.15625 27.565624ZM315.46875 23.76875Q315.46875 22.8625 314.98438 22.33125Q314.51562 21.8 313.82812 21.8Q313.125 21.8 312.59375 22.378124Q312.07812 22.940624 312.07812 23.8625Q312.07812 24.675 312.57812 25.190624Q313.07812 25.70625 313.79688 25.70625Q314.53125 25.70625 315.0 25.190624Q315.46875 24.675 315.46875 23.76875ZM318.0 25.315624Q318.0 23.784374 318.3125 22.8625Q318.625 21.925 319.23438 21.425Q319.85938 20.925 320.79688 20.925Q321.48438 20.925 322.0 21.20625Q322.53125 21.4875 322.875 22.01875Q323.21875 22.534374 323.40625 23.284374Q323.59375 24.034374 323.59375 25.315624Q323.59375 26.83125 323.28125 27.753124Q322.98438 28.675 322.35938 29.190624Q321.75 29.690624 320.79688 29.690624Q319.5625 29.690624 318.84375 28.8Q318.0 27.7375 318.0 25.315624ZM319.07812 25.315624Q319.07812 27.425 319.57812 28.128124Q320.07812 28.83125 320.79688 28.83125Q321.53125 28.83125 322.01562 28.128124Q322.51562 27.425 322.51562 25.315624Q322.51562 23.190624 322.01562 22.503124Q321.53125 21.8 320.78125 21.8Q320.0625 21.8 319.625 22.409374Q319.07812 23.190624 319.07812 25.315624ZM327.59375 28.6125L327.75 29.534374Q327.29688 29.628124 326.95312 29.628124Q326.375 29.628124 326.0625 29.45625Q325.75 29.26875 325.60938 28.971874Q325.48438 28.675 325.48438 27.721874L325.48438 24.14375L324.71875 24.14375L324.71875 23.33125L325.48438 23.33125L325.48438 21.784374L326.53125 21.159374L326.53125 23.33125L327.59375 23.33125L327.59375 24.14375L326.53125 24.14375L326.53125 27.784374Q326.53125 28.2375 326.57812 28.3625Q326.64062 28.4875 326.76562 28.565624Q326.89062 28.64375 327.125 28.64375Q327.3125 28.64375 327.59375 28.6125ZM328.29688 29.55L328.29688 20.95625L329.34375 20.95625L329.34375 24.034374Q330.07812 23.190624 331.20312 23.190624Q331.90625 23.190624 332.40625 23.471874Q332.92188 23.7375 333.14062 24.221874Q333.35938 24.690624 333.35938 25.6125L333.35938 29.55L332.3125 29.55L332.3125 25.6125Q332.3125 24.815624 331.96875 24.45625Q331.625 24.096874 331.0 24.096874Q330.53125 24.096874 330.10938 24.346874Q329.70312 24.58125 329.51562 25.003124Q329.34375 25.409374 329.34375 26.14375L329.34375 29.55L328.29688 29.55ZM338.29688 31.940624L338.29688 23.33125L339.25 23.33125L339.25 24.128124Q339.59375 23.659374 340.01562 23.425Q340.45312 23.190624 341.0625 23.190624Q341.85938 23.190624 342.46875 23.596874Q343.07812 24.003124 343.375 24.753124Q343.6875 25.503124 343.6875 26.39375Q343.6875 27.346874 343.34375 28.1125Q343.01562 28.878124 342.35938 29.284374Q341.70312 29.690624 340.98438 29.690624Q340.45312 29.690624 340.03125 29.471874Q339.60938 29.2375 339.34375 28.909374L339.34375 31.940624L338.29688 31.940624ZM339.25 26.471874Q339.25 27.675 339.73438 28.253124Q340.21875 28.815624 340.90625 28.815624Q341.60938 28.815624 342.10938 28.221874Q342.60938 27.628124 342.60938 26.378124Q342.60938 25.190624 342.125 24.6125Q341.64062 24.01875 340.95312 24.01875Q340.28125 24.01875 339.76562 24.64375Q339.25 25.26875 339.25 26.471874ZM349.54688 27.55L350.64062 27.675Q350.39062 28.628124 349.6875 29.159374Q348.98438 29.690624 347.90625 29.690624Q346.54688 29.690624 345.73438 28.846874Q344.9375 28.003124 344.9375 26.4875Q344.9375 24.925 345.75 24.065624Q346.5625 23.190624 347.84375 23.190624Q349.09375 23.190624 349.875 24.034374Q350.67188 24.878124 350.67188 26.425Q350.67188 26.51875 350.67188 26.70625L346.03125 26.70625Q346.09375 27.7375 346.60938 28.284374Q347.125 28.815624 347.90625 28.815624Q348.48438 28.815624 348.89062 28.51875Q349.3125 28.20625 349.54688 27.55ZM346.09375 25.846874L349.5625 25.846874Q349.5 25.05 349.17188 24.659374Q348.65625 24.05 347.85938 24.05Q347.125 24.05 346.625 24.534374Q346.14062 25.01875 346.09375 25.846874ZM352.28125 29.55L352.28125 23.33125L353.23438 23.33125L353.23438 24.26875Q353.59375 23.6125 353.89062 23.409374Q354.20312 23.190624 354.57812 23.190624Q355.10938 23.190624 355.65625 23.51875L355.29688 24.503124Q354.90625 24.26875 354.53125 24.26875Q354.17188 24.26875 353.89062 24.4875Q353.625 24.690624 353.51562 25.065624Q353.32812 25.628124 353.32812 26.284374L353.32812 29.55L352.28125 29.55ZM360.35938 27.26875L361.39062 27.409374Q361.21875 28.471874 360.51562 29.08125Q359.8125 29.690624 358.79688 29.690624Q357.51562 29.690624 356.73438 28.8625Q355.96875 28.01875 355.96875 26.45625Q355.96875 25.45625 356.29688 24.70625Q356.64062 23.940624 357.3125 23.565624Q358.0 23.190624 358.8125 23.190624Q359.8125 23.190624 360.45312 23.70625Q361.10938 24.20625 361.29688 25.159374L360.26562 25.315624Q360.125 24.690624 359.75 24.378124Q359.375 24.05 358.84375 24.05Q358.04688 24.05 357.54688 24.628124Q357.04688 25.190624 357.04688 26.425Q357.04688 27.690624 357.53125 28.253124Q358.01562 28.815624 358.78125 28.815624Q359.40625 28.815624 359.8125 28.440624Q360.23438 28.065624 360.35938 27.26875ZM366.54688 27.55L367.64062 27.675Q367.39062 28.628124 366.6875 29.159374Q365.98438 29.690624 364.90625 29.690624Q363.54688 29.690624 362.73438 28.846874Q361.9375 28.003124 361.9375 26.4875Q361.9375 24.925 362.75 24.065624Q363.5625 23.190624 364.84375 23.190624Q366.09375 23.190624 366.875 24.034374Q367.67188 24.878124 367.67188 26.425Q367.67188 26.51875 367.67188 26.70625L363.03125 26.70625Q363.09375 27.7375 363.60938 28.284374Q364.125 28.815624 364.90625 28.815624Q365.48438 28.815624 365.89062 28.51875Q366.3125 28.20625 366.54688 27.55ZM363.09375 25.846874L366.5625 25.846874Q366.5 25.05 366.17188 24.659374Q365.65625 24.05 364.85938 24.05Q364.125 24.05 363.625 24.534374Q363.14062 25.01875 363.09375 25.846874ZM369.29688 29.55L369.29688 23.33125L370.23438 23.33125L370.23438 24.20625Q370.92188 23.190624 372.21875 23.190624Q372.78125 23.190624 373.25 23.39375Q373.73438 23.596874 373.96875 23.925Q374.20312 24.253124 374.29688 24.690624Q374.34375 24.9875 374.34375 25.721874L374.34375 29.55L373.29688 29.55L373.29688 25.76875Q373.29688 25.1125 373.17188 24.8Q373.04688 24.4875 372.73438 24.3Q372.42188 24.096874 372.0 24.096874Q371.32812 24.096874 370.82812 24.534374Q370.34375 24.95625 370.34375 26.14375L370.34375 29.55L369.29688 29.55ZM378.59375 28.6125L378.75 29.534374Q378.29688 29.628124 377.95312 29.628124Q377.375 29.628124 377.0625 29.45625Q376.75 29.26875 376.60938 28.971874Q376.48438 28.675 376.48438 27.721874L376.48438 24.14375L375.71875 24.14375L375.71875 23.33125L376.48438 23.33125L376.48438 21.784374L377.53125 21.159374L377.53125 23.33125L378.59375 23.33125L378.59375 24.14375L377.53125 24.14375L377.53125 27.784374Q377.53125 28.2375 377.57812 28.3625Q377.64062 28.4875 377.76562 28.565624Q377.89062 28.64375 378.125 28.64375Q378.3125 28.64375 378.59375 28.6125ZM379.29688 22.175L379.29688 20.95625L380.35938 20.95625L380.35938 22.175L379.29688 22.175ZM379.29688 29.55L379.29688 23.33125L380.35938 23.33125L380.35938 29.55L379.29688 29.55ZM382.26562 29.55L382.26562 20.95625L383.32812 20.95625L383.32812 29.55L382.26562 29.55ZM389.54688 27.55L390.64062 27.675Q390.39062 28.628124 389.6875 29.159374Q388.98438 29.690624 387.90625 29.690624Q386.54688 29.690624 385.73438 28.846874Q384.9375 28.003124 384.9375 26.4875Q384.9375 24.925 385.75 24.065624Q386.5625 23.190624 387.84375 23.190624Q389.09375 23.190624 389.875 24.034374Q390.67188 24.878124 390.67188 26.425Q390.67188 26.51875 390.67188 26.70625L386.03125 26.70625Q386.09375 27.7375 386.60938 28.284374Q387.125 28.815624 387.90625 28.815624Q388.48438 28.815624 388.89062 28.51875Q389.3125 28.20625 389.54688 27.55ZM386.09375 25.846874L389.5625 25.846874Q389.5 25.05 389.17188 24.659374Q388.65625 24.05 387.85938 24.05Q387.125 24.05 386.625 24.534374Q386.14062 25.01875 386.09375 25.846874Z" fill-rule="nonzero"/></svg>