<svg version="1.1" viewBox="0.0 0.0 600.0 371.0" fill="none" stroke="none" stroke-linecap="square" stroke-miterlimit="10" width="600" height="371" xmlns:xlink="http://www.w3.org/1999/xlink" xmlns="http://www.w3.org/2000/svg"><path fill="#ffffff" d="M0 0L600.0 0L600.0 371.0L0 371.0L0 0Z" fill-rule="nonzero"/><path stroke="#cccccc" stroke-width="1.0" stroke-linecap="butt" d="M105.5 300.5L581.5 300.5" fill-rule="nonzero"/><path stroke="#cccccc" stroke-width="1.0" stroke-linecap="butt" d="M105.5 265.5L581.5 265.5" fill-rule="nonzero"/><path stroke="#cccccc" stroke-width="1.0" stroke-linecap="butt" d="M105.5 230.5L581.5 230.5" fill-rule="nonzero"/><path stroke="#cccccc" stroke-width="1.0" stroke-linecap="butt" d="M105.5 210.5L581.5 210.5" fill-rule="nonzero"/><path stroke="#cccccc" stroke-width="1.0" stroke-linecap="butt" d="M105.5 196.5L581.5 196.5" fill-rule="nonzero"/><path stroke="#cccccc" stroke-width="1.0" stroke-linecap="butt" d="M105.5 185.5L581.5 185.5" fill-rule="nonzero"/><path stroke="#cccccc" stroke-width="1.0" stroke-linecap="butt" d="M105.5 150.5L581.5 150.5" fill-rule="nonzero"/><path stroke="#cccccc" stroke-width="1.0" stroke-linecap="butt" d="M105.5 115.5L581.5 115.5" fill-rule="nonzero"/><path stroke="#cccccc" stroke-width="1.0" stroke-linecap="butt" d="M105.5 95.5L581.5 95.5" fill-rule="nonzero"/><path stroke="#cccccc" stroke-width="1.0" stroke-linecap="butt" d="M105.5 80.5L581.5 80.5" fill-rule="nonzero"/><path stroke="#cccccc" stroke-width="1.0" stroke-linecap="butt" d="M105.5 69.5L581.5 69.5" fill-rule="nonzero"/><clipPath id="id_0"><path d="M105.55 51.916668L581.45 51.916668L581.45 300.45L105.55 300.45L105.55 51.916668Z" clip-rule="nonzero"/></clipPath><path stroke="#000000" stroke-width="0.0" stroke-linecap="butt" stroke-opacity="0.0" clip-path="url(#id_0)" d="M200.0 300.0L155.0 300.0L155.0 268.0C155.0 266.89542 155.89543 266.0 157.0 266.0L198.0 266.0C199.10457 266.0 200.0 266.89542 200.0 268.0Z" fill-rule="nonzero"/><path fill="#4285f4" clip-path="url(#id_0)" d="M200.0 300.0L155.0 300.0L155.0 268.0C155.0 266.89542 155.89543 266.0 157.0 266.0L198.0 266.0C199.10457 266.0 200.0 266.89542 200.0 268.0Z" fill-rule="nonzero"/><path stroke="#000000" stroke-width="0.0" stroke-linecap="butt" stroke-opacity="0.0" clip-path="url(#id_0)" d="M343.0 300.0L298.0 300.0L298.0 169.0C298.0 167.89543 298.89542 167.0 300.0 167.0L341.0 167.0C342.10458 167.0 343.0 167.89543 343.0 169.0Z" fill-rule="nonzero"/><path fill="#4285f4" clip-path="url(#id_0)" d="M343.0 300.0L298.0 300.0L298.0 169.0C298.0 167.89543 298.89542 167.0 300.0 167.0L341.0 167.0C342.10458 167.0 343.0 167.89543 343.0 169.0Z" fill-rule="nonzero"/><path stroke="#000000" stroke-width="0.0" stroke-linecap="butt" stroke-opacity="0.0" clip-path="url(#id_0)" d="M485.0 300.0L440.0 300.0L440.0 58.0C440.0 56.89543 440.89542 56.0 442.0 56.0L483.0 56.0C484.10458 56.0 485.0 56.89543 485.0 58.0Z" fill-rule="nonzero"/><path fill="#4285f4" clip-path="url(#id_0)" d="M485.0 300.0L440.0 300.0L440.0 58.0C440.0 56.89543 440.89542 56.0 442.0 56.0L483.0 56.0C484.10458 56.0 485.0 56.89543 485.0 58.0Z" fill-rule="nonzero"/><path stroke="#000000" stroke-width="0.0" stroke-linecap="butt" stroke-opacity="0.0" clip-path="url(#id_0)" d="M246.0 300.0L201.0 300.0L201.0 238.0C201.0 236.89543 201.89543 236.0 203.0 236.0L244.0 236.0C245.10457 236.0 246.0 236.89543 246.0 238.0Z" fill-rule="nonzero"/><path fill="#ea4335" clip-path="url(#id_0)" d="M246.0 300.0L201.0 300.0L201.0 238.0C201.0 236.89543 201.89543 236.0 203.0 236.0L244.0 236.0C245.10457 236.0 246.0 236.89543 246.0 238.0Z" fill-rule="nonzero"/><path stroke="#000000" stroke-width="0.0" stroke-linecap="butt" stroke-opacity="0.0" clip-path="url(#id_0)" d="M389.0 300.0L344.0 300.0L344.0 140.0C344.0 138.89543 344.89542 138.0 346.0 138.0L387.0 138.0C388.10458 138.0 389.0 138.89543 389.0 140.0Z" fill-rule="nonzero"/><path fill="#ea4335" clip-path="url(#id_0)" d="M389.0 300.0L344.0 300.0L344.0 140.0C344.0 138.89543 344.89542 138.0 346.0 138.0L387.0 138.0C388.10458 138.0 389.0 138.89543 389.0 140.0Z" fill-rule="nonzero"/><path stroke="#000000" stroke-width="0.0" stroke-linecap="butt" stroke-opacity="0.0" clip-path="url(#id_0)" d="M531.0 300.0L486.0 300.0L486.0 54.0C486.0 52.89543 486.89542 52.0 488.0 52.0L529.0 52.0C530.10455 52.0 531.0 52.89543 531.0 54.0Z" fill-rule="nonzero"/><path fill="#ea4335" clip-path="url(#id_0)" d="M531.0 300.0L486.0 300.0L486.0 54.0C486.0 52.89543 486.89542 52.0 488.0 52.0L529.0 52.0C530.10455 52.0 531.0 52.89543 531.0 54.0Z" fill-rule="nonzero"/><path fill="#000000" d="M291.92188 349.45L291.92188 340.85626L293.07812 340.85626L297.59375 347.60626L297.59375 340.85626L298.6875 340.85626L298.6875 349.45L297.51562 349.45L293.0 342.7L293.0 349.45L291.92188 349.45ZM304.875 349.45L304.875 348.52814Q304.14062 349.59064 302.89062 349.59064Q302.34375 349.59064 301.85938 349.3875Q301.39062 349.16876 301.15625 348.85626Q300.92188 348.52814 300.82812 348.0594Q300.76562 347.7625 300.76562 347.075L300.76562 343.23126L301.82812 343.23126L301.82812 346.6844Q301.82812 347.4969 301.89062 347.79376Q301.98438 348.2 302.29688 348.45Q302.625 348.6844 303.10938 348.6844Q303.57812 348.6844 303.98438 348.45Q304.40625 348.2 304.57812 347.77814Q304.76562 347.35626 304.76562 346.5594L304.76562 343.23126L305.8125 343.23126L305.8125 349.45L304.875 349.45ZM307.79688 349.45L307.79688 343.23126L308.73438 343.23126L308.73438 344.10626Q309.03125 343.6375 309.51562 343.3719Q310.0 343.09064 310.625 343.09064Q311.3125 343.09064 311.75 343.3719Q312.20312 343.65314 312.375 344.16876Q313.125 343.09064 314.29688 343.09064Q315.23438 343.09064 315.71875 343.60626Q316.21875 344.10626 316.21875 345.1844L316.21875 349.45L315.17188 349.45L315.17188 345.52814Q315.17188 344.90314 315.0625 344.6219Q314.96875 344.34064 314.70312 344.16876Q314.4375 343.9969 314.0625 343.9969Q313.40625 343.9969 312.96875 344.4344Q312.54688 344.8719 312.54688 345.84064L312.54688 349.45L311.48438 349.45L311.48438 345.40314Q311.48438 344.7 311.21875 344.35626Q310.96875 343.9969 310.39062 343.9969Q309.9375 343.9969 309.5625 344.23126Q309.1875 344.46564 309.01562 344.91876Q308.84375 345.3719 308.84375 346.21564L308.84375 349.45L307.79688 349.45ZM318.76562 349.45L317.78125 349.45L317.78125 340.85626L318.84375 340.85626L318.84375 343.91876Q319.51562 343.09064 320.54688 343.09064Q321.125 343.09064 321.625 343.325Q322.14062 343.54376 322.46875 343.96564Q322.8125 344.3875 323.0 344.98126Q323.1875 345.575 323.1875 346.2469Q323.1875 347.84064 322.39062 348.71564Q321.59375 349.59064 320.5 349.59064Q319.39062 349.59064 318.76562 348.66876L318.76562 349.45ZM318.75 346.29376Q318.75 347.40314 319.0625 347.90314Q319.5625 348.71564 320.40625 348.71564Q321.09375 348.71564 321.59375 348.1219Q322.10938 347.52814 322.10938 346.325Q322.10938 345.10626 321.625 344.52814Q321.14062 343.95 320.45312 343.95Q319.76562 343.95 319.25 344.5594Q318.75 345.15314 318.75 346.29376ZM329.04688 347.45L330.14062 347.575Q329.89062 348.52814 329.1875 349.0594Q328.48438 349.59064 327.40625 349.59064Q326.04688 349.59064 325.23438 348.7469Q324.4375 347.90314 324.4375 346.3875Q324.4375 344.825 325.25 343.96564Q326.0625 343.09064 327.34375 343.09064Q328.59375 343.09064 329.375 343.9344Q330.17188 344.77814 330.17188 346.325Q330.17188 346.41876 330.17188 346.60626L325.53125 346.60626Q325.59375 347.6375 326.10938 348.1844Q326.625 348.71564 327.40625 348.71564Q327.98438 348.71564 328.39062 348.41876Q328.8125 348.10626 329.04688 347.45ZM325.59375 345.7469L329.0625 345.7469Q329.0 344.95 328.67188 344.5594Q328.15625 343.95 327.35938 343.95Q326.625 343.95 326.125 344.4344Q325.64062 344.91876 325.59375 345.7469ZM331.78125 349.45L331.78125 343.23126L332.73438 343.23126L332.73438 344.16876Q333.09375 343.5125 333.39062 343.3094Q333.70312 343.09064 334.07812 343.09064Q334.60938 343.09064 335.15625 343.41876L334.79688 344.40314Q334.40625 344.16876 334.03125 344.16876Q333.67188 344.16876 333.39062 344.3875Q333.125 344.59064 333.01562 344.96564Q332.82812 345.52814 332.82812 346.1844L332.82812 349.45L331.78125 349.45ZM338.40625 346.34064Q338.40625 344.60626 339.35938 343.77814Q340.15625 343.09064 341.3125 343.09064Q342.59375 343.09064 343.40625 343.9344Q344.23438 344.7625 344.23438 346.2469Q344.23438 347.45 343.875 348.1375Q343.51562 348.825 342.8125 349.21564Q342.125 349.59064 341.3125 349.59064Q340.01562 349.59064 339.20312 348.7625Q338.40625 347.91876 338.40625 346.34064ZM339.48438 346.34064Q339.48438 347.52814 340.0 348.1219Q340.53125 348.71564 341.3125 348.71564Q342.10938 348.71564 342.625 348.1219Q343.14062 347.52814 343.14062 346.3094Q343.14062 345.15314 342.60938 344.5594Q342.09375 343.96564 341.3125 343.96564Q340.53125 343.96564 340.0 344.5594Q339.48438 345.1375 339.48438 346.34064ZM346.04688 349.45L346.04688 344.04376L345.10938 344.04376L345.10938 343.23126L346.04688 343.23126L346.04688 342.5594Q346.04688 341.9344 346.15625 341.6375Q346.3125 341.21564 346.6875 340.96564Q347.07812 340.71564 347.76562 340.71564Q348.21875 340.71564 348.75 340.825L348.59375 341.73126Q348.26562 341.6844 347.96875 341.6844Q347.48438 341.6844 347.28125 341.8875Q347.09375 342.09064 347.09375 342.65314L347.09375 343.23126L348.3125 343.23126L348.3125 344.04376L347.09375 344.04376L347.09375 349.45L346.04688 349.45ZM354.10938 349.45L354.10938 341.8719L351.28125 341.8719L351.28125 340.85626L358.09375 340.85626L358.09375 341.8719L355.25 341.8719L355.25 349.45L354.10938 349.45ZM358.79688 349.45L358.79688 340.85626L359.84375 340.85626L359.84375 343.9344Q360.57812 343.09064 361.70312 343.09064Q362.40625 343.09064 362.90625 343.3719Q363.42188 343.6375 363.64062 344.1219Q363.85938 344.59064 363.85938 345.5125L363.85938 349.45L362.8125 349.45L362.8125 345.5125Q362.8125 344.71564 362.46875 344.35626Q362.125 343.9969 361.5 343.9969Q361.03125 343.9969 360.60938 344.2469Q360.20312 344.48126 360.01562 344.90314Q359.84375 345.3094 359.84375 346.04376L359.84375 349.45L358.79688 349.45ZM365.78125 349.45L365.78125 343.23126L366.73438 343.23126L366.73438 344.16876Q367.09375 343.5125 367.39062 343.3094Q367.70312 343.09064 368.07812 343.09064Q368.60938 343.09064 369.15625 343.41876L368.79688 344.40314Q368.40625 344.16876 368.03125 344.16876Q367.67188 344.16876 367.39062 344.3875Q367.125 344.59064 367.01562 344.96564Q366.82812 345.52814 366.82812 346.1844L366.82812 349.45L365.78125 349.45ZM374.04688 347.45L375.14062 347.575Q374.89062 348.52814 374.1875 349.0594Q373.48438 349.59064 372.40625 349.59064Q371.04688 349.59064 370.23438 348.7469Q369.4375 347.90314 369.4375 346.3875Q369.4375 344.825 370.25 343.96564Q371.0625 343.09064 372.34375 343.09064Q373.59375 343.09064 374.375 343.9344Q375.17188 344.77814 375.17188 346.325Q375.17188 346.41876 375.17188 346.60626L370.53125 346.60626Q370.59375 347.6375 371.10938 348.1844Q371.625 348.71564 372.40625 348.71564Q372.98438 348.71564 373.39062 348.41876Q373.8125 348.10626 374.04688 347.45ZM370.59375 345.7469L374.0625 345.7469Q374.0 344.95 373.67188 344.5594Q373.15625 343.95 372.35938 343.95Q371.625 343.95 371.125 344.4344Q370.64062 344.91876 370.59375 345.7469ZM380.85938 348.6844Q380.26562 349.1844 379.71875 349.3875Q379.1875 349.59064 378.5625 349.59064Q377.53125 349.59064 376.98438 349.09064Q376.4375 348.59064 376.4375 347.8094Q376.4375 347.35626 376.64062 346.98126Q376.84375 346.59064 377.1875 346.3719Q377.53125 346.1375 377.95312 346.02814Q378.25 345.9344 378.89062 345.85626Q380.15625 345.71564 380.76562 345.4969Q380.76562 345.27814 380.76562 345.23126Q380.76562 344.575 380.46875 344.3094Q380.0625 343.96564 379.26562 343.96564Q378.53125 343.96564 378.17188 344.23126Q377.8125 344.48126 377.64062 345.1375L376.60938 344.9969Q376.75 344.34064 377.07812 343.9344Q377.40625 343.52814 378.01562 343.3094Q378.625 343.09064 379.42188 343.09064Q380.21875 343.09064 380.71875 343.27814Q381.21875 343.46564 381.45312 343.7469Q381.6875 344.02814 381.78125 344.46564Q381.82812 344.73126 381.82812 345.4344L381.82812 346.84064Q381.82812 348.3094 381.89062 348.7Q381.96875 349.09064 382.17188 349.45L381.0625 349.45Q380.90625 349.1219 380.85938 348.6844ZM380.76562 346.325Q380.1875 346.5594 379.04688 346.73126Q378.39062 346.825 378.125 346.95Q377.85938 347.0594 377.70312 347.27814Q377.5625 347.4969 377.5625 347.77814Q377.5625 348.2 377.875 348.48126Q378.20312 348.7625 378.8125 348.7625Q379.42188 348.7625 379.89062 348.4969Q380.375 348.23126 380.59375 347.7625Q380.76562 347.40314 380.76562 346.71564L380.76562 346.325ZM387.82812 349.45L387.82812 348.66876Q387.23438 349.59064 386.09375 349.59064Q385.34375 349.59064 384.71875 349.1844Q384.09375 348.7625 383.75 348.02814Q383.40625 347.29376 383.40625 346.34064Q383.40625 345.41876 383.71875 344.65314Q384.03125 343.8875 384.65625 343.4969Q385.28125 343.09064 386.04688 343.09064Q386.60938 343.09064 387.04688 343.325Q387.48438 343.5594 387.76562 343.9344L387.76562 340.85626L388.8125 340.85626L388.8125 349.45L387.82812 349.45ZM384.5 346.34064Q384.5 347.54376 385.0 348.1375Q385.5 348.71564 386.1875 348.71564Q386.875 348.71564 387.35938 348.15314Q387.84375 347.59064 387.84375 346.4344Q387.84375 345.15314 387.34375 344.5594Q386.85938 343.96564 386.14062 343.96564Q385.4375 343.96564 384.96875 344.54376Q384.5 345.10626 384.5 346.34064ZM390.375 347.59064L391.40625 347.4344Q391.5 348.0594 391.89062 348.3875Q392.29688 348.71564 393.03125 348.71564Q393.75 348.71564 394.09375 348.4344Q394.45312 348.1375 394.45312 347.73126Q394.45312 347.3719 394.14062 347.16876Q393.92188 347.02814 393.0625 346.8094Q391.90625 346.5125 391.45312 346.3094Q391.01562 346.09064 390.78125 345.71564Q390.54688 345.34064 390.54688 344.8719Q390.54688 344.46564 390.73438 344.10626Q390.92188 343.7469 391.25 343.5125Q391.5 343.34064 391.92188 343.21564Q392.34375 343.09064 392.84375 343.09064Q393.5625 343.09064 394.10938 343.3094Q394.67188 343.5125 394.9375 343.8719Q395.20312 344.23126 395.29688 344.825L394.26562 344.96564Q394.20312 344.4969 393.85938 344.23126Q393.53125 343.95 392.90625 343.95Q392.1875 343.95 391.875 344.2Q391.5625 344.4344 391.5625 344.7625Q391.5625 344.96564 391.6875 345.1219Q391.82812 345.29376 392.09375 345.40314Q392.25 345.46564 393.03125 345.66876Q394.15625 345.98126 394.59375 346.16876Q395.03125 346.35626 395.28125 346.71564Q395.53125 347.075 395.53125 347.6219Q395.53125 348.15314 395.21875 348.6219Q394.92188 349.075 394.34375 349.34064Q393.76562 349.59064 393.03125 349.59064Q391.8125 349.59064 391.17188 349.09064Q390.54688 348.575 390.375 347.59064Z" fill-rule="nonzero"/><path fill="#000000" d="M29.550013 233.57396L21.971888 233.57396L21.971888 236.40208L20.956263 236.40208L20.956263 229.58958L21.971888 229.58958L21.971888 232.43333L29.550013 232.43333L29.550013 233.57396ZM22.175013 228.88646L20.956263 228.88646L20.956263 227.82396L22.175013 227.82396L22.175013 228.88646ZM29.550013 228.88646L23.331263 228.88646L23.331263 227.82396L29.550013 227.82396L29.550013 228.88646ZM29.550013 225.88646L23.331263 225.88646L23.331263 224.94896L24.206263 224.94896Q23.737513 224.65208 23.471888 224.16771Q23.190638 223.68333 23.190638 223.05833Q23.190638 222.37083 23.471888 221.93333Q23.753138 221.48021 24.268763 221.30833Q23.190638 220.55833 23.190638 219.38646Q23.190638 218.44896 23.706263 217.96458Q24.206263 217.46458 25.284388 217.46458L29.550013 217.46458L29.550013 218.51146L25.628138 218.51146Q25.003138 218.51146 24.721888 218.62083Q24.440638 218.71458 24.268763 218.98021Q24.096888 219.24583 24.096888 219.62083Q24.096888 220.27708 24.534388 220.71458Q24.971888 221.13646 25.940638 221.13646L29.550013 221.13646L29.550013 222.19896L25.503138 222.19896Q24.800013 222.19896 24.456263 222.46458Q24.096888 222.71458 24.096888 223.29271Q24.096888 223.74583 24.331263 224.12083Q24.565638 224.49583 25.018763 224.66771Q25.471888 224.83958 26.315638 224.83958L29.550013 224.83958L29.550013 225.88646ZM27.550013 211.63646L27.675013 210.54271Q28.628138 210.79271 29.159388 211.49583Q29.690638 212.19896 29.690638 213.27708Q29.690638 214.63646 28.846888 215.44896Q28.003138 216.24583 26.487513 216.24583Q24.925013 216.24583 24.065638 215.43333Q23.190638 214.62083 23.190638 213.33958Q23.190638 212.08958 24.034388 211.30833Q24.878138 210.51146 26.425013 210.51146Q26.518763 210.51146 26.706263 210.51146L26.706263 215.15208Q27.737513 215.08958 28.284388 214.57396Q28.815638 214.05833 28.815638 213.27708Q28.815638 212.69896 28.518763 212.29271Q28.206263 211.87083 27.550013 211.63646ZM25.846888 215.08958L25.846888 211.62083Q25.050013 211.68333 24.659388 212.01146Q24.050013 212.52708 24.050013 213.32396Q24.050013 214.05833 24.534388 214.55833Q25.018763 215.04271 25.846888 215.08958ZM32.08126 203.87083Q30.971888 204.74583 29.503138 205.35521Q28.018763 205.94896 26.440638 205.94896Q25.050013 205.94896 23.768763 205.51146Q22.284388 204.98021 20.815638 203.87083L20.815638 203.12083Q22.034388 203.82396 22.550013 204.05833Q23.362513 204.41771 24.237513 204.62083Q25.331263 204.87083 26.440638 204.87083Q29.268763 204.87083 32.08126 203.12083L32.08126 203.87083ZM29.550013 201.88646L23.331263 201.88646L23.331263 200.94896L24.206263 200.94896Q23.737513 200.65208 23.471888 200.16771Q23.190638 199.68333 23.190638 199.05833Q23.190638 198.37083 23.471888 197.93333Q23.753138 197.48021 24.268763 197.30833Q23.190638 196.55833 23.190638 195.38646Q23.190638 194.44896 23.706263 193.96458Q24.206263 193.46458 25.284388 193.46458L29.550013 193.46458L29.550013 194.51146L25.628138 194.51146Q25.003138 194.51146 24.721888 194.62083Q24.440638 194.71458 24.268763 194.98021Q24.096888 195.24583 24.096888 195.62083Q24.096888 196.27708 24.534388 196.71458Q24.971888 197.13646 25.940638 197.13646L29.550013 197.13646L29.550013 198.19896L25.503138 198.19896Q24.800013 198.19896 24.456263 198.46458Q24.096888 198.71458 24.096888 199.29271Q24.096888 199.74583 24.331263 200.12083Q24.565638 200.49583 25.018763 200.66771Q25.471888 200.83958 26.315638 200.83958L29.550013 200.83958L29.550013 201.88646ZM22.175013 191.88646L20.956263 191.88646L20.956263 190.82396L22.175013 190.82396L22.175013 191.88646ZM29.550013 191.88646L23.331263 191.88646L23.331263 190.82396L29.550013 190.82396L29.550013 191.88646ZM27.268763 184.82396L27.409388 183.79271Q28.471888 183.96458 29.081263 184.66771Q29.690638 185.37083 29.690638 186.38646Q29.690638 187.66771 28.862513 188.44896Q28.018763 189.21458 26.456263 189.21458Q25.456263 189.21458 24.706263 188.88646Q23.940638 188.54271 23.565638 187.87083Q23.190638 187.18333 23.190638 186.37083Q23.190638 185.37083 23.706263 184.73021Q24.206263 184.07396 25.159388 183.88646L25.315638 184.91771Q24.690638 185.05833 24.378138 185.43333Q24.050013 185.80833 24.050013 186.33958Q24.050013 187.13646 24.628138 187.63646Q25.190638 188.13646 26.425013 188.13646Q27.690638 188.13646 28.253138 187.65208Q28.815638 187.16771 28.815638 186.40208Q28.815638 185.77708 28.440638 185.37083Q28.065638 184.94896 27.268763 184.82396ZM29.550013 182.90208L23.331263 182.90208L23.331263 181.94896L24.268763 181.94896Q23.612513 181.58958 23.409388 181.29271Q23.190638 180.98021 23.190638 180.60521Q23.190638 180.07396 23.518763 179.52708L24.503138 179.88646Q24.268763 180.27708 24.268763 180.65208Q24.268763 181.01146 24.487513 181.29271Q24.690638 181.55833 25.065638 181.66771Q25.628138 181.85521 26.284388 181.85521L29.550013 181.85521L29.550013 182.90208ZM26.440638 179.27708Q24.706263 179.27708 23.878138 178.32396Q23.190638 177.52708 23.190638 176.37083Q23.190638 175.08958 24.034388 174.27708Q24.862513 173.44896 26.346888 173.44896Q27.550013 173.44896 28.237513 173.80833Q28.925013 174.16771 29.315638 174.87083Q29.690638 175.55833 29.690638 176.37083Q29.690638 177.66771 28.862513 178.48021Q28.018763 179.27708 26.440638 179.27708ZM26.440638 178.19896Q27.628138 178.19896 28.221888 177.68333Q28.815638 177.15208 28.815638 176.37083Q28.815638 175.57396 28.221888 175.05833Q27.628138 174.54271 26.409388 174.54271Q25.253138 174.54271 24.659388 175.07396Q24.065638 175.58958 24.065638 176.37083Q24.065638 177.15208 24.659388 177.68333Q25.237513 178.19896 26.440638 178.19896ZM27.690638 172.30833L27.534388 171.27708Q28.159388 171.18333 28.487513 170.79271Q28.815638 170.38646 28.815638 169.65208Q28.815638 168.93333 28.534388 168.58958Q28.237513 168.23021 27.831263 168.23021Q27.471888 168.23021 27.268763 168.54271Q27.128138 168.76146 26.909388 169.62083Q26.612513 170.77708 26.409388 171.23021Q26.190638 171.66771 25.815638 171.90208Q25.440638 172.13646 24.971888 172.13646Q24.565638 172.13646 24.206263 171.94896Q23.846888 171.76146 23.612513 171.43333Q23.440638 171.18333 23.315638 170.76146Q23.190638 170.33958 23.190638 169.83958Q23.190638 169.12083 23.409388 168.57396Q23.612513 168.01146 23.971888 167.74583Q24.331263 167.48021 24.925013 167.38646L25.065638 168.41771Q24.596888 168.48021 24.331263 168.82396Q24.050013 169.15208 24.050013 169.77708Q24.050013 170.49583 24.300013 170.80833Q24.534388 171.12083 24.862513 171.12083Q25.065638 171.12083 25.221888 170.99583Q25.393763 170.85521 25.503138 170.58958Q25.565638 170.43333 25.768763 169.65208Q26.081263 168.52708 26.268763 168.08958Q26.456263 167.65208 26.815638 167.40208Q27.175013 167.15208 27.721888 167.15208Q28.253138 167.15208 28.721888 167.46458Q29.175013 167.76146 29.440638 168.33958Q29.690638 168.91771 29.690638 169.65208Q29.690638 170.87083 29.190638 171.51146Q28.675013 172.13646 27.690638 172.30833ZM27.550013 161.63646L27.675013 160.54271Q28.628138 160.79271 29.159388 161.49583Q29.690638 162.19896 29.690638 163.27708Q29.690638 164.63646 28.846888 165.44896Q28.003138 166.24583 26.487513 166.24583Q24.925013 166.24583 24.065638 165.43333Q23.190638 164.62083 23.190638 163.33958Q23.190638 162.08958 24.034388 161.30833Q24.878138 160.51146 26.425013 160.51146Q26.518763 160.51146 26.706263 160.51146L26.706263 165.15208Q27.737513 165.08958 28.284388 164.57396Q28.815638 164.05833 28.815638 163.27708Q28.815638 162.69896 28.518763 162.29271Q28.206263 161.87083 27.550013 161.63646ZM25.846888 165.08958L25.846888 161.62083Q25.050013 161.68333 24.659388 162.01146Q24.050013 162.52708 24.050013 163.32396Q24.050013 164.05833 24.534388 164.55833Q25.018763 165.04271 25.846888 165.08958ZM27.268763 154.82396L27.409388 153.79271Q28.471888 153.96458 29.081263 154.66771Q29.690638 155.37083 29.690638 156.38646Q29.690638 157.66771 28.862513 158.44896Q28.018763 159.21458 26.456263 159.21458Q25.456263 159.21458 24.706263 158.88646Q23.940638 158.54271 23.565638 157.87083Q23.190638 157.18333 23.190638 156.37083Q23.190638 155.37083 23.706263 154.73021Q24.206263 154.07396 25.159388 153.88646L25.315638 154.91771Q24.690638 155.05833 24.378138 155.43333Q24.050013 155.80833 24.050013 156.33958Q24.050013 157.13646 24.628138 157.63646Q25.190638 158.13646 26.425013 158.13646Q27.690638 158.13646 28.253138 157.65208Q28.815638 157.16771 28.815638 156.40208Q28.815638 155.77708 28.440638 155.37083Q28.065638 154.94896 27.268763 154.82396ZM26.440638 153.27708Q24.706263 153.27708 23.878138 152.32396Q23.190638 151.52708 23.190638 150.37083Q23.190638 149.08958 24.034388 148.27708Q24.862513 147.44896 26.346888 147.44896Q27.550013 147.44896 28.237513 147.80833Q28.925013 148.16771 29.315638 148.87083Q29.690638 149.55833 29.690638 150.37083Q29.690638 151.66771 28.862513 152.48021Q28.018763 153.27708 26.440638 153.27708ZM26.440638 152.19896Q27.628138 152.19896 28.221888 151.68333Q28.815638 151.15208 28.815638 150.37083Q28.815638 149.57396 28.221888 149.05833Q27.628138 148.54271 26.409388 148.54271Q25.253138 148.54271 24.659388 149.07396Q24.065638 149.58958 24.065638 150.37083Q24.065638 151.15208 24.659388 151.68333Q25.237513 152.19896 26.440638 152.19896ZM29.550013 145.88646L23.331263 145.88646L23.331263 144.94896L24.206263 144.94896Q23.190638 144.26146 23.190638 142.96458Q23.190638 142.40208 23.393763 141.93333Q23.596888 141.44896 23.925013 141.21458Q24.253138 140.98021 24.690638 140.88646Q24.987513 140.83958 25.721888 140.83958L29.550013 140.83958L29.550013 141.88646L25.768763 141.88646Q25.112513 141.88646 24.800013 142.01146Q24.487513 142.13646 24.300013 142.44896Q24.096888 142.76146 24.096888 143.18333Q24.096888 143.85521 24.534388 144.35521Q24.956263 144.83958 26.143763 144.83958L29.550013 144.83958L29.550013 145.88646ZM29.550013 134.85521L28.768763 134.85521Q29.690638 135.44896 29.690638 136.58958Q29.690638 137.33958 29.284388 137.96458Q28.862513 138.58958 28.128138 138.93333Q27.393763 139.27708 26.440638 139.27708Q25.518763 139.27708 24.753138 138.96458Q23.987513 138.65208 23.596888 138.02708Q23.190638 137.40208 23.190638 136.63646Q23.190638 136.07396 23.425013 135.63646Q23.659388 135.19896 24.034388 134.91771L20.956263 134.91771L20.956263 133.87083L29.550013 133.87083L29.550013 134.85521ZM26.440638 138.18333Q27.643763 138.18333 28.237513 137.68333Q28.815638 137.18333 28.815638 136.49583Q28.815638 135.80833 28.253138 135.32396Q27.690638 134.83958 26.534388 134.83958Q25.253138 134.83958 24.659388 135.33958Q24.065638 135.82396 24.065638 136.54271Q24.065638 137.24583 24.643763 137.71458Q25.206263 138.18333 26.440638 138.18333ZM32.08126 131.19896L32.08126 131.94896Q29.268763 130.19896 26.440638 130.19896Q25.346888 130.19896 24.253138 130.44896Q23.378138 130.65208 22.565638 131.01146Q22.050013 131.24583 20.815638 131.94896L20.815638 131.19896Q22.284388 130.10521 23.768763 129.57396Q25.050013 129.12083 26.440638 129.12083Q28.018763 129.12083 29.503138 129.73021Q30.971888 130.33958 32.08126 131.19896Z" fill-rule="nonzero"/><path fill="#000000" d="M69.01875 304.45L67.97188 304.45L67.97188 297.73126Q67.58125 298.09064 66.95625 298.46564Q66.34688 298.825 65.8625 298.9969L65.8625 297.98126Q66.7375 297.5594 67.39375 296.98126Q68.06563 296.3875 68.34688 295.825L69.01875 295.825L69.01875 304.45ZM72.05 300.21564Q72.05 298.6844 72.3625 297.7625Q72.675 296.825 73.28438 296.325Q73.90938 295.825 74.84688 295.825Q75.53438 295.825 76.05 296.10626Q76.58125 296.3875 76.925 296.91876Q77.26875 297.4344 77.45625 298.1844Q77.64375 298.9344 77.64375 300.21564Q77.64375 301.73126 77.33125 302.65314Q77.03438 303.575 76.40938 304.09064Q75.8 304.59064 74.84688 304.59064Q73.6125 304.59064 72.89375 303.7Q72.05 302.6375 72.05 300.21564ZM73.12813 300.21564Q73.12813 302.325 73.62813 303.02814Q74.12813 303.73126 74.84688 303.73126Q75.58125 303.73126 76.06563 303.02814Q76.56563 302.325 76.56563 300.21564Q76.56563 298.09064 76.06563 297.40314Q75.58125 296.7 74.83125 296.7Q74.1125 296.7 73.675 297.3094Q73.12813 298.09064 73.12813 300.21564ZM79.05 300.21564Q79.05 298.6844 79.3625 297.7625Q79.675 296.825 80.28438 296.325Q80.90938 295.825 81.84688 295.825Q82.53438 295.825 83.05 296.10626Q83.58125 296.3875 83.925 296.91876Q84.26875 297.4344 84.45625 298.1844Q84.64375 298.9344 84.64375 300.21564Q84.64375 301.73126 84.33125 302.65314Q84.03438 303.575 83.40938 304.09064Q82.8 304.59064 81.84688 304.59064Q80.6125 304.59064 79.89375 303.7Q79.05 302.6375 79.05 300.21564ZM80.12813 300.21564Q80.12813 302.325 80.62813 303.02814Q81.12813 303.73126 81.84688 303.73126Q82.58125 303.73126 83.06563 303.02814Q83.56563 302.325 83.56563 300.21564Q83.56563 298.09064 83.06563 297.40314Q82.58125 296.7 81.83125 296.7Q81.1125 296.7 80.675 297.3094Q80.12813 298.09064 80.12813 300.21564ZM86.05 300.21564Q86.05 298.6844 86.3625 297.7625Q86.675 296.825 87.28438 296.325Q87.90938 295.825 88.84688 295.825Q89.53438 295.825 90.05 296.10626Q90.58125 296.3875 90.925 296.91876Q91.26875 297.4344 91.45625 298.1844Q91.64375 298.9344 91.64375 300.21564Q91.64375 301.73126 91.33125 302.65314Q91.03438 303.575 90.40938 304.09064Q89.8 304.59064 88.84688 304.59064Q87.6125 304.59064 86.89375 303.7Q86.05 302.6375 86.05 300.21564ZM87.12813 300.21564Q87.12813 302.325 87.62813 303.02814Q88.12813 303.73126 88.84688 303.73126Q89.58125 303.73126 90.06563 303.02814Q90.56563 302.325 90.56563 300.21564Q90.56563 298.09064 90.06563 297.40314Q89.58125 296.7 88.83125 296.7Q88.1125 296.7 87.675 297.3094Q87.12813 298.09064 87.12813 300.21564ZM93.05 300.21564Q93.05 298.6844 93.3625 297.7625Q93.675 296.825 94.28438 296.325Q94.90938 295.825 95.84688 295.825Q96.53438 295.825 97.05 296.10626Q97.58125 296.3875 97.925 296.91876Q98.26875 297.4344 98.45625 298.1844Q98.64375 298.9344 98.64375 300.21564Q98.64375 301.73126 98.33125 302.65314Q98.03438 303.575 97.40938 304.09064Q96.8 304.59064 95.84688 304.59064Q94.6125 304.59064 93.89375 303.7Q93.05 302.6375 93.05 300.21564ZM94.12813 300.21564Q94.12813 302.325 94.62813 303.02814Q95.12813 303.73126 95.84688 303.73126Q96.58125 303.73126 97.06563 303.02814Q97.56563 302.325 97.56563 300.21564Q97.56563 298.09064 97.06563 297.40314Q96.58125 296.7 95.83125 296.7Q95.1125 296.7 94.675 297.3094Q94.12813 298.09064 94.12813 300.21564Z" fill-rule="nonzero"/><path fill="#000000" d="M70.59688 268.705L70.59688 269.7206L64.90938 269.7206Q64.90938 269.3456 65.03438 268.98624Q65.25313 268.4081 65.72188 267.8456Q66.20625 267.2831 67.1125 266.54874Q68.51875 265.3925 69.00313 264.7206Q69.50313 264.04874 69.50313 263.455Q69.50313 262.83 69.05 262.4081Q68.59688 261.9706 67.87813 261.9706Q67.1125 261.9706 66.65938 262.42374Q66.20625 262.87686 66.19063 263.68936L65.1125 263.58Q65.22188 262.36124 65.94063 261.73624Q66.675 261.0956 67.90938 261.0956Q69.14375 261.0956 69.8625 261.7831Q70.58125 262.4706 70.58125 263.48624Q70.58125 264.00186 70.3625 264.50186Q70.15938 264.98624 69.65938 265.54874Q69.175 266.0956 68.05 267.04874Q67.09688 267.8456 66.81563 268.1425Q66.55 268.42374 66.37813 268.705L70.59688 268.705ZM72.05 265.48624Q72.05 263.955 72.3625 263.0331Q72.675 262.0956 73.28438 261.5956Q73.90938 261.0956 74.84688 261.0956Q75.53438 261.0956 76.05 261.37686Q76.58125 261.6581 76.925 262.18936Q77.26875 262.705 77.45625 263.455Q77.64375 264.205 77.64375 265.48624Q77.64375 267.00186 77.33125 267.92374Q77.03438 268.8456 76.40938 269.36124Q75.8 269.86124 74.84688 269.86124Q73.6125 269.86124 72.89375 268.9706Q72.05 267.9081 72.05 265.48624ZM73.12813 265.48624Q73.12813 267.5956 73.62813 268.29874Q74.12813 269.00186 74.84688 269.00186Q75.58125 269.00186 76.06563 268.29874Q76.56563 267.5956 76.56563 265.48624Q76.56563 263.36124 76.06563 262.67374Q75.58125 261.9706 74.83125 261.9706Q74.1125 261.9706 73.675 262.58Q73.12813 263.36124 73.12813 265.48624ZM79.05 265.48624Q79.05 263.955 79.3625 263.0331Q79.675 262.0956 80.28438 261.5956Q80.90938 261.0956 81.84688 261.0956Q82.53438 261.0956 83.05 261.37686Q83.58125 261.6581 83.925 262.18936Q84.26875 262.705 84.45625 263.455Q84.64375 264.205 84.64375 265.48624Q84.64375 267.00186 84.33125 267.92374Q84.03438 268.8456 83.40938 269.36124Q82.8 269.86124 81.84688 269.86124Q80.6125 269.86124 79.89375 268.9706Q79.05 267.9081 79.05 265.48624ZM80.12813 265.48624Q80.12813 267.5956 80.62813 268.29874Q81.12813 269.00186 81.84688 269.00186Q82.58125 269.00186 83.06563 268.29874Q83.56563 267.5956 83.56563 265.48624Q83.56563 263.36124 83.06563 262.67374Q82.58125 261.9706 81.83125 261.9706Q81.1125 261.9706 80.675 262.58Q80.12813 263.36124 80.12813 265.48624ZM86.05 265.48624Q86.05 263.955 86.3625 263.0331Q86.675 262.0956 87.28438 261.5956Q87.90938 261.0956 88.84688 261.0956Q89.53438 261.0956 90.05 261.37686Q90.58125 261.6581 90.925 262.18936Q91.26875 262.705 91.45625 263.455Q91.64375 264.205 91.64375 265.48624Q91.64375 267.00186 91.33125 267.92374Q91.03438 268.8456 90.40938 269.36124Q89.8 269.86124 88.84688 269.86124Q87.6125 269.86124 86.89375 268.9706Q86.05 267.9081 86.05 265.48624ZM87.12813 265.48624Q87.12813 267.5956 87.62813 268.29874Q88.12813 269.00186 88.84688 269.00186Q89.58125 269.00186 90.06563 268.29874Q90.56563 267.5956 90.56563 265.48624Q90.56563 263.36124 90.06563 262.67374Q89.58125 261.9706 88.83125 261.9706Q88.1125 261.9706 87.675 262.58Q87.12813 263.36124 87.12813 265.48624ZM93.05 265.48624Q93.05 263.955 93.3625 263.0331Q93.675 262.0956 94.28438 261.5956Q94.90938 261.0956 95.84688 261.0956Q96.53438 261.0956 97.05 261.37686Q97.58125 261.6581 97.925 262.18936Q98.26875 262.705 98.45625 263.455Q98.64375 264.205 98.64375 265.48624Q98.64375 267.00186 98.33125 267.92374Q98.03438 268.8456 97.40938 269.36124Q96.8 269.86124 95.84688 269.86124Q94.6125 269.86124 93.89375 268.9706Q93.05 267.9081 93.05 265.48624ZM94.12813 265.48624Q94.12813 267.5956 94.62813 268.29874Q95.12813 269.00186 95.84688 269.00186Q96.58125 269.00186 97.06563 268.29874Q97.56563 267.5956 97.56563 265.48624Q97.56563 263.36124 97.06563 262.67374Q96.58125 261.9706 95.83125 261.9706Q95.1125 261.9706 94.675 262.58Q94.12813 263.36124 94.12813 265.48624Z" fill-rule="nonzero"/><path fill="#000000" d="M68.425 234.99121L68.425 232.92871L64.70625 232.92871L64.70625 231.95996L68.62813 226.39746L69.4875 226.39746L69.4875 231.95996L70.64375 231.95996L70.64375 232.92871L69.4875 232.92871L69.4875 234.99121L68.425 234.99121ZM68.425 231.95996L68.425 228.10059L65.7375 231.95996L68.425 231.95996ZM72.05 230.75684Q72.05 229.22559 72.3625 228.30371Q72.675 227.36621 73.28438 226.86621Q73.90938 226.36621 74.84688 226.36621Q75.53438 226.36621 76.05 226.64746Q76.58125 226.92871 76.925 227.45996Q77.26875 227.97559 77.45625 228.72559Q77.64375 229.47559 77.64375 230.75684Q77.64375 232.27246 77.33125 233.19434Q77.03438 234.11621 76.40938 234.63184Q75.8 235.13184 74.84688 235.13184Q73.6125 235.13184 72.89375 234.24121Q72.05 233.17871 72.05 230.75684ZM73.12813 230.75684Q73.12813 232.86621 73.62813 233.56934Q74.12813 234.27246 74.84688 234.27246Q75.58125 234.27246 76.06563 233.56934Q76.56563 232.86621 76.56563 230.75684Q76.56563 228.63184 76.06563 227.94434Q75.58125 227.24121 74.83125 227.24121Q74.1125 227.24121 73.675 227.85059Q73.12813 228.63184 73.12813 230.75684ZM79.05 230.75684Q79.05 229.22559 79.3625 228.30371Q79.675 227.36621 80.28438 226.86621Q80.90938 226.36621 81.84688 226.36621Q82.53438 226.36621 83.05 226.64746Q83.58125 226.92871 83.925 227.45996Q84.26875 227.97559 84.45625 228.72559Q84.64375 229.47559 84.64375 230.75684Q84.64375 232.27246 84.33125 233.19434Q84.03438 234.11621 83.40938 234.63184Q82.8 235.13184 81.84688 235.13184Q80.6125 235.13184 79.89375 234.24121Q79.05 233.17871 79.05 230.75684ZM80.12813 230.75684Q80.12813 232.86621 80.62813 233.56934Q81.12813 234.27246 81.84688 234.27246Q82.58125 234.27246 83.06563 233.56934Q83.56563 232.86621 83.56563 230.75684Q83.56563 228.63184 83.06563 227.94434Q82.58125 227.24121 81.83125 227.24121Q81.1125 227.24121 80.675 227.85059Q80.12813 228.63184 80.12813 230.75684ZM86.05 230.75684Q86.05 229.22559 86.3625 228.30371Q86.675 227.36621 87.28438 226.86621Q87.90938 226.36621 88.84688 226.36621Q89.53438 226.36621 90.05 226.64746Q90.58125 226.92871 90.925 227.45996Q91.26875 227.97559 91.45625 228.72559Q91.64375 229.47559 91.64375 230.75684Q91.64375 232.27246 91.33125 233.19434Q91.03438 234.11621 90.40938 234.63184Q89.8 235.13184 88.84688 235.13184Q87.6125 235.13184 86.89375 234.24121Q86.05 233.17871 86.05 230.75684ZM87.12813 230.75684Q87.12813 232.86621 87.62813 233.56934Q88.12813 234.27246 88.84688 234.27246Q89.58125 234.27246 90.06563 233.56934Q90.56563 232.86621 90.56563 230.75684Q90.56563 228.63184 90.06563 227.94434Q89.58125 227.24121 88.83125 227.24121Q88.1125 227.24121 87.675 227.85059Q87.12813 228.63184 87.12813 230.75684ZM93.05 230.75684Q93.05 229.22559 93.3625 228.30371Q93.675 227.36621 94.28438 226.86621Q94.90938 226.36621 95.84688 226.36621Q96.53438 226.36621 97.05 226.64746Q97.58125 226.92871 97.925 227.45996Q98.26875 227.97559 98.45625 228.72559Q98.64375 229.47559 98.64375 230.75684Q98.64375 232.27246 98.33125 233.19434Q98.03438 234.11621 97.40938 234.63184Q96.8 235.13184 95.84688 235.13184Q94.6125 235.13184 93.89375 234.24121Q93.05 233.17871 93.05 230.75684ZM94.12813 230.75684Q94.12813 232.86621 94.62813 233.56934Q95.12813 234.27246 95.84688 234.27246Q96.58125 234.27246 97.06563 233.56934Q97.56563 232.86621 97.56563 230.75684Q97.56563 228.63184 97.06563 227.94434Q96.58125 227.24121 95.83125 227.24121Q95.1125 227.24121 94.675 227.85059Q94.12813 228.63184 94.12813 230.75684Z" fill-rule="nonzero"/><path fill="#000000" d="M70.51875 208.19145L69.47188 208.26958Q69.33125 207.64458 69.08125 207.36333Q68.64375 206.9102 68.01875 206.9102Q67.51875 206.9102 67.12813 207.19145Q66.64375 207.56645 66.34688 208.26958Q66.06563 208.95708 66.05 210.23833Q66.425 209.6602 66.97188 209.37895Q67.53438 209.0977 68.14375 209.0977Q69.19063 209.0977 69.925 209.87895Q70.675 210.6602 70.675 211.87895Q70.675 212.69145 70.31563 213.39458Q69.97188 214.08208 69.3625 214.45708Q68.75313 214.81645 67.9875 214.81645Q66.65938 214.81645 65.83125 213.8477Q65.00313 212.87895 65.00313 210.6602Q65.00313 208.1602 65.925 207.0352Q66.72188 206.05083 68.08125 206.05083Q69.09688 206.05083 69.7375 206.62895Q70.39375 207.19145 70.51875 208.19145ZM66.22188 211.89458Q66.22188 212.44145 66.44063 212.94145Q66.675 213.42583 67.08125 213.69145Q67.50313 213.95708 67.97188 213.95708Q68.62813 213.95708 69.1125 213.42583Q69.59688 212.87895 69.59688 211.95708Q69.59688 211.06645 69.1125 210.55083Q68.64375 210.0352 67.925 210.0352Q67.20625 210.0352 66.70625 210.55083Q66.22188 211.06645 66.22188 211.89458ZM72.05 210.44145Q72.05 208.9102 72.3625 207.98833Q72.675 207.05083 73.28438 206.55083Q73.90938 206.05083 74.84688 206.05083Q75.53438 206.05083 76.05 206.33208Q76.58125 206.61333 76.925 207.14458Q77.26875 207.6602 77.45625 208.4102Q77.64375 209.1602 77.64375 210.44145Q77.64375 211.95708 77.33125 212.87895Q77.03438 213.80083 76.40938 214.31645Q75.8 214.81645 74.84688 214.81645Q73.6125 214.81645 72.89375 213.92583Q72.05 212.86333 72.05 210.44145ZM73.12813 210.44145Q73.12813 212.55083 73.62813 213.25395Q74.12813 213.95708 74.84688 213.95708Q75.58125 213.95708 76.06563 213.25395Q76.56563 212.55083 76.56563 210.44145Q76.56563 208.31645 76.06563 207.62895Q75.58125 206.92583 74.83125 206.92583Q74.1125 206.92583 73.675 207.5352Q73.12813 208.31645 73.12813 210.44145ZM79.05 210.44145Q79.05 208.9102 79.3625 207.98833Q79.675 207.05083 80.28438 206.55083Q80.90938 206.05083 81.84688 206.05083Q82.53438 206.05083 83.05 206.33208Q83.58125 206.61333 83.925 207.14458Q84.26875 207.6602 84.45625 208.4102Q84.64375 209.1602 84.64375 210.44145Q84.64375 211.95708 84.33125 212.87895Q84.03438 213.80083 83.40938 214.31645Q82.8 214.81645 81.84688 214.81645Q80.6125 214.81645 79.89375 213.92583Q79.05 212.86333 79.05 210.44145ZM80.12813 210.44145Q80.12813 212.55083 80.62813 213.25395Q81.12813 213.95708 81.84688 213.95708Q82.58125 213.95708 83.06563 213.25395Q83.56563 212.55083 83.56563 210.44145Q83.56563 208.31645 83.06563 207.62895Q82.58125 206.92583 81.83125 206.92583Q81.1125 206.92583 80.675 207.5352Q80.12813 208.31645 80.12813 210.44145ZM86.05 210.44145Q86.05 208.9102 86.3625 207.98833Q86.675 207.05083 87.28438 206.55083Q87.90938 206.05083 88.84688 206.05083Q89.53438 206.05083 90.05 206.33208Q90.58125 206.61333 90.925 207.14458Q91.26875 207.6602 91.45625 208.4102Q91.64375 209.1602 91.64375 210.44145Q91.64375 211.95708 91.33125 212.87895Q91.03438 213.80083 90.40938 214.31645Q89.8 214.81645 88.84688 214.81645Q87.6125 214.81645 86.89375 213.92583Q86.05 212.86333 86.05 210.44145ZM87.12813 210.44145Q87.12813 212.55083 87.62813 213.25395Q88.12813 213.95708 88.84688 213.95708Q89.58125 213.95708 90.06563 213.25395Q90.56563 212.55083 90.56563 210.44145Q90.56563 208.31645 90.06563 207.62895Q89.58125 206.92583 88.83125 206.92583Q88.1125 206.92583 87.675 207.5352Q87.12813 208.31645 87.12813 210.44145ZM93.05 210.44145Q93.05 208.9102 93.3625 207.98833Q93.675 207.05083 94.28438 206.55083Q94.90938 206.05083 95.84688 206.05083Q96.53438 206.05083 97.05 206.33208Q97.58125 206.61333 97.925 207.14458Q98.26875 207.6602 98.45625 208.4102Q98.64375 209.1602 98.64375 210.44145Q98.64375 211.95708 98.33125 212.87895Q98.03438 213.80083 97.40938 214.31645Q96.8 214.81645 95.84688 214.81645Q94.6125 214.81645 93.89375 213.92583Q93.05 212.86333 93.05 210.44145ZM94.12813 210.44145Q94.12813 212.55083 94.62813 213.25395Q95.12813 213.95708 95.84688 213.95708Q96.58125 213.95708 97.06563 213.25395Q97.56563 212.55083 97.56563 210.44145Q97.56563 208.31645 97.06563 207.62895Q96.58125 206.92583 95.83125 206.92583Q95.1125 206.92583 94.675 207.5352Q94.12813 208.31645 94.12813 210.44145Z" fill-rule="nonzero"/><path fill="#000000" d="M66.675 195.60558Q66.01875 195.35558 65.69063 194.91808Q65.37813 194.46495 65.37813 193.85558Q65.37813 192.91808 66.05 192.27745Q66.7375 191.63683 67.84688 191.63683Q68.97188 191.63683 69.65938 192.29308Q70.34688 192.94933 70.34688 193.88683Q70.34688 194.48058 70.03438 194.91808Q69.72188 195.35558 69.08125 195.60558Q69.87813 195.85558 70.28438 196.4337Q70.69063 197.01183 70.69063 197.8087Q70.69063 198.90245 69.90938 199.65245Q69.14375 200.40245 67.8625 200.40245Q66.59688 200.40245 65.81563 199.65245Q65.03438 198.90245 65.03438 197.77745Q65.03438 196.9337 65.45625 196.3712Q65.89375 195.8087 66.675 195.60558ZM66.45625 193.8087Q66.45625 194.41808 66.84688 194.8087Q67.25313 195.19933 67.87813 195.19933Q68.4875 195.19933 68.87813 194.82433Q69.26875 194.4337 69.26875 193.8712Q69.26875 193.29308 68.8625 192.90245Q68.45625 192.4962 67.8625 192.4962Q67.25313 192.4962 66.84688 192.88683Q66.45625 193.27745 66.45625 193.8087ZM66.12813 197.77745Q66.12813 198.23058 66.33125 198.65245Q66.55 199.07433 66.97188 199.3087Q67.39375 199.54308 67.87813 199.54308Q68.62813 199.54308 69.1125 199.0587Q69.6125 198.57433 69.6125 197.82433Q69.6125 197.0587 69.1125 196.5587Q68.6125 196.0587 67.84688 196.0587Q67.09688 196.0587 66.6125 196.5587Q66.12813 197.04308 66.12813 197.77745ZM72.05 196.02745Q72.05 194.4962 72.3625 193.57433Q72.675 192.63683 73.28438 192.13683Q73.90938 191.63683 74.84688 191.63683Q75.53438 191.63683 76.05 191.91808Q76.58125 192.19933 76.925 192.73058Q77.26875 193.2462 77.45625 193.9962Q77.64375 194.7462 77.64375 196.02745Q77.64375 197.54308 77.33125 198.46495Q77.03438 199.38683 76.40938 199.90245Q75.8 200.40245 74.84688 200.40245Q73.6125 200.40245 72.89375 199.51183Q72.05 198.44933 72.05 196.02745ZM73.12813 196.02745Q73.12813 198.13683 73.62813 198.83995Q74.12813 199.54308 74.84688 199.54308Q75.58125 199.54308 76.06563 198.83995Q76.56563 198.13683 76.56563 196.02745Q76.56563 193.90245 76.06563 193.21495Q75.58125 192.51183 74.83125 192.51183Q74.1125 192.51183 73.675 193.1212Q73.12813 193.90245 73.12813 196.02745ZM79.05 196.02745Q79.05 194.4962 79.3625 193.57433Q79.675 192.63683 80.28438 192.13683Q80.90938 191.63683 81.84688 191.63683Q82.53438 191.63683 83.05 191.91808Q83.58125 192.19933 83.925 192.73058Q84.26875 193.2462 84.45625 193.9962Q84.64375 194.7462 84.64375 196.02745Q84.64375 197.54308 84.33125 198.46495Q84.03438 199.38683 83.40938 199.90245Q82.8 200.40245 81.84688 200.40245Q80.6125 200.40245 79.89375 199.51183Q79.05 198.44933 79.05 196.02745ZM80.12813 196.02745Q80.12813 198.13683 80.62813 198.83995Q81.12813 199.54308 81.84688 199.54308Q82.58125 199.54308 83.06563 198.83995Q83.56563 198.13683 83.56563 196.02745Q83.56563 193.90245 83.06563 193.21495Q82.58125 192.51183 81.83125 192.51183Q81.1125 192.51183 80.675 193.1212Q80.12813 193.90245 80.12813 196.02745ZM86.05 196.02745Q86.05 194.4962 86.3625 193.57433Q86.675 192.63683 87.28438 192.13683Q87.90938 191.63683 88.84688 191.63683Q89.53438 191.63683 90.05 191.91808Q90.58125 192.19933 90.925 192.73058Q91.26875 193.2462 91.45625 193.9962Q91.64375 194.7462 91.64375 196.02745Q91.64375 197.54308 91.33125 198.46495Q91.03438 199.38683 90.40938 199.90245Q89.8 200.40245 88.84688 200.40245Q87.6125 200.40245 86.89375 199.51183Q86.05 198.44933 86.05 196.02745ZM87.12813 196.02745Q87.12813 198.13683 87.62813 198.83995Q88.12813 199.54308 88.84688 199.54308Q89.58125 199.54308 90.06563 198.83995Q90.56563 198.13683 90.56563 196.02745Q90.56563 193.90245 90.06563 193.21495Q89.58125 192.51183 88.83125 192.51183Q88.1125 192.51183 87.675 193.1212Q87.12813 193.90245 87.12813 196.02745ZM93.05 196.02745Q93.05 194.4962 93.3625 193.57433Q93.675 192.63683 94.28438 192.13683Q94.90938 191.63683 95.84688 191.63683Q96.53438 191.63683 97.05 191.91808Q97.58125 192.19933 97.925 192.73058Q98.26875 193.2462 98.45625 193.9962Q98.64375 194.7462 98.64375 196.02745Q98.64375 197.54308 98.33125 198.46495Q98.03438 199.38683 97.40938 199.90245Q96.8 200.40245 95.84688 200.40245Q94.6125 200.40245 93.89375 199.51183Q93.05 198.44933 93.05 196.02745ZM94.12813 196.02745Q94.12813 198.13683 94.62813 198.83995Q95.12813 199.54308 95.84688 199.54308Q96.58125 199.54308 97.06563 198.83995Q97.56563 198.13683 97.56563 196.02745Q97.56563 193.90245 97.06563 193.21495Q96.58125 192.51183 95.83125 192.51183Q95.1125 192.51183 94.675 193.1212Q94.12813 193.90245 94.12813 196.02745Z" fill-rule="nonzero"/><path fill="#000000" d="M63.596874 153.33644L63.596874 154.35207L57.909374 154.35207Q57.909374 153.97707 58.034374 153.61769Q58.253124 153.03957 58.721874 152.47707Q59.20625 151.91457 60.1125 151.18019Q61.51875 150.02394 62.003124 149.35207Q62.503124 148.68019 62.503124 148.08644Q62.503124 147.46144 62.05 147.03957Q61.596874 146.60207 60.878124 146.60207Q60.1125 146.60207 59.659374 147.05519Q59.20625 147.50832 59.190624 148.32082L58.1125 148.21144Q58.221874 146.99269 58.940624 146.36769Q59.675 145.72707 60.909374 145.72707Q62.14375 145.72707 62.8625 146.41457Q63.58125 147.10207 63.58125 148.11769Q63.58125 148.63332 63.3625 149.13332Q63.159374 149.61769 62.659374 150.18019Q62.175 150.72707 61.05 151.68019Q60.096874 152.47707 59.815624 152.77394Q59.55 153.05519 59.378124 153.33644L63.596874 153.33644ZM65.05 150.11769Q65.05 148.58644 65.3625 147.66457Q65.675 146.72707 66.28438 146.22707Q66.90938 145.72707 67.84688 145.72707Q68.53438 145.72707 69.05 146.00832Q69.58125 146.28957 69.925 146.82082Q70.26875 147.33644 70.45625 148.08644Q70.64375 148.83644 70.64375 150.11769Q70.64375 151.63332 70.33125 152.55519Q70.03438 153.47707 69.40938 153.99269Q68.8 154.49269 67.84688 154.49269Q66.6125 154.49269 65.89375 153.60207Q65.05 152.53957 65.05 150.11769ZM66.12813 150.11769Q66.12813 152.22707 66.62813 152.93019Q67.12813 153.63332 67.84688 153.63332Q68.58125 153.63332 69.06563 152.93019Q69.56563 152.22707 69.56563 150.11769Q69.56563 147.99269 69.06563 147.30519Q68.58125 146.60207 67.83125 146.60207Q67.1125 146.60207 66.675 147.21144Q66.12813 147.99269 66.12813 150.11769ZM72.05 150.11769Q72.05 148.58644 72.3625 147.66457Q72.675 146.72707 73.28438 146.22707Q73.90938 145.72707 74.84688 145.72707Q75.53438 145.72707 76.05 146.00832Q76.58125 146.28957 76.925 146.82082Q77.26875 147.33644 77.45625 148.08644Q77.64375 148.83644 77.64375 150.11769Q77.64375 151.63332 77.33125 152.55519Q77.03438 153.47707 76.40938 153.99269Q75.8 154.49269 74.84688 154.49269Q73.6125 154.49269 72.89375 153.60207Q72.05 152.53957 72.05 150.11769ZM73.12813 150.11769Q73.12813 152.22707 73.62813 152.93019Q74.12813 153.63332 74.84688 153.63332Q75.58125 153.63332 76.06563 152.93019Q76.56563 152.22707 76.56563 150.11769Q76.56563 147.99269 76.06563 147.30519Q75.58125 146.60207 74.83125 146.60207Q74.1125 146.60207 73.675 147.21144Q73.12813 147.99269 73.12813 150.11769ZM79.05 150.11769Q79.05 148.58644 79.3625 147.66457Q79.675 146.72707 80.28438 146.22707Q80.90938 145.72707 81.84688 145.72707Q82.53438 145.72707 83.05 146.00832Q83.58125 146.28957 83.925 146.82082Q84.26875 147.33644 84.45625 148.08644Q84.64375 148.83644 84.64375 150.11769Q84.64375 151.63332 84.33125 152.55519Q84.03438 153.47707 83.40938 153.99269Q82.8 154.49269 81.84688 154.49269Q80.6125 154.49269 79.89375 153.60207Q79.05 152.53957 79.05 150.11769ZM80.12813 150.11769Q80.12813 152.22707 80.62813 152.93019Q81.12813 153.63332 81.84688 153.63332Q82.58125 153.63332 83.06563 152.93019Q83.56563 152.22707 83.56563 150.11769Q83.56563 147.99269 83.06563 147.30519Q82.58125 146.60207 81.83125 146.60207Q81.1125 146.60207 80.675 147.21144Q80.12813 147.99269 80.12813 150.11769ZM86.05 150.11769Q86.05 148.58644 86.3625 147.66457Q86.675 146.72707 87.28438 146.22707Q87.90938 145.72707 88.84688 145.72707Q89.53438 145.72707 90.05 146.00832Q90.58125 146.28957 90.925 146.82082Q91.26875 147.33644 91.45625 148.08644Q91.64375 148.83644 91.64375 150.11769Q91.64375 151.63332 91.33125 152.55519Q91.03438 153.47707 90.40938 153.99269Q89.8 154.49269 88.84688 154.49269Q87.6125 154.49269 86.89375 153.60207Q86.05 152.53957 86.05 150.11769ZM87.12813 150.11769Q87.12813 152.22707 87.62813 152.93019Q88.12813 153.63332 88.84688 153.63332Q89.58125 153.63332 90.06563 152.93019Q90.56563 152.22707 90.56563 150.11769Q90.56563 147.99269 90.06563 147.30519Q89.58125 146.60207 88.83125 146.60207Q88.1125 146.60207 87.675 147.21144Q87.12813 147.99269 87.12813 150.11769ZM93.05 150.11769Q93.05 148.58644 93.3625 147.66457Q93.675 146.72707 94.28438 146.22707Q94.90938 145.72707 95.84688 145.72707Q96.53438 145.72707 97.05 146.00832Q97.58125 146.28957 97.925 146.82082Q98.26875 147.33644 98.45625 148.08644Q98.64375 148.83644 98.64375 150.11769Q98.64375 151.63332 98.33125 152.55519Q98.03438 153.47707 97.40938 153.99269Q96.8 154.49269 95.84688 154.49269Q94.6125 154.49269 93.89375 153.60207Q93.05 152.53957 93.05 150.11769ZM94.12813 150.11769Q94.12813 152.22707 94.62813 152.93019Q95.12813 153.63332 95.84688 153.63332Q96.58125 153.63332 97.06563 152.93019Q97.56563 152.22707 97.56563 150.11769Q97.56563 147.99269 97.06563 147.30519Q96.58125 146.60207 95.83125 146.60207Q95.1125 146.60207 94.675 147.21144Q94.12813 147.99269 94.12813 150.11769Z" fill-rule="nonzero"/><path fill="#000000" d="M61.425 119.62267L61.425 117.56017L57.70625 117.56017L57.70625 116.59142L61.628124 111.02892L62.4875 111.02892L62.4875 116.59142L63.64375 116.59142L63.64375 117.56017L62.4875 117.56017L62.4875 119.62267L61.425 119.62267ZM61.425 116.59142L61.425 112.73205L58.7375 116.59142L61.425 116.59142ZM65.05 115.3883Q65.05 113.85705 65.3625 112.93517Q65.675 111.99767 66.28438 111.49767Q66.90938 110.99767 67.84688 110.99767Q68.53438 110.99767 69.05 111.27892Q69.58125 111.56017 69.925 112.09142Q70.26875 112.60705 70.45625 113.35705Q70.64375 114.10705 70.64375 115.3883Q70.64375 116.90392 70.33125 117.8258Q70.03438 118.74767 69.40938 119.2633Q68.8 119.7633 67.84688 119.7633Q66.6125 119.7633 65.89375 118.87267Q65.05 117.81017 65.05 115.3883ZM66.12813 115.3883Q66.12813 117.49767 66.62813 118.2008Q67.12813 118.90392 67.84688 118.90392Q68.58125 118.90392 69.06563 118.2008Q69.56563 117.49767 69.56563 115.3883Q69.56563 113.2633 69.06563 112.5758Q68.58125 111.87267 67.83125 111.87267Q67.1125 111.87267 66.675 112.48205Q66.12813 113.2633 66.12813 115.3883ZM72.05 115.3883Q72.05 113.85705 72.3625 112.93517Q72.675 111.99767 73.28438 111.49767Q73.90938 110.99767 74.84688 110.99767Q75.53438 110.99767 76.05 111.27892Q76.58125 111.56017 76.925 112.09142Q77.26875 112.60705 77.45625 113.35705Q77.64375 114.10705 77.64375 115.3883Q77.64375 116.90392 77.33125 117.8258Q77.03438 118.74767 76.40938 119.2633Q75.8 119.7633 74.84688 119.7633Q73.6125 119.7633 72.89375 118.87267Q72.05 117.81017 72.05 115.3883ZM73.12813 115.3883Q73.12813 117.49767 73.62813 118.2008Q74.12813 118.90392 74.84688 118.90392Q75.58125 118.90392 76.06563 118.2008Q76.56563 117.49767 76.56563 115.3883Q76.56563 113.2633 76.06563 112.5758Q75.58125 111.87267 74.83125 111.87267Q74.1125 111.87267 73.675 112.48205Q73.12813 113.2633 73.12813 115.3883ZM79.05 115.3883Q79.05 113.85705 79.3625 112.93517Q79.675 111.99767 80.28438 111.49767Q80.90938 110.99767 81.84688 110.99767Q82.53438 110.99767 83.05 111.27892Q83.58125 111.56017 83.925 112.09142Q84.26875 112.60705 84.45625 113.35705Q84.64375 114.10705 84.64375 115.3883Q84.64375 116.90392 84.33125 117.8258Q84.03438 118.74767 83.40938 119.2633Q82.8 119.7633 81.84688 119.7633Q80.6125 119.7633 79.89375 118.87267Q79.05 117.81017 79.05 115.3883ZM80.12813 115.3883Q80.12813 117.49767 80.62813 118.2008Q81.12813 118.90392 81.84688 118.90392Q82.58125 118.90392 83.06563 118.2008Q83.56563 117.49767 83.56563 115.3883Q83.56563 113.2633 83.06563 112.5758Q82.58125 111.87267 81.83125 111.87267Q81.1125 111.87267 80.675 112.48205Q80.12813 113.2633 80.12813 115.3883ZM86.05 115.3883Q86.05 113.85705 86.3625 112.93517Q86.675 111.99767 87.28438 111.49767Q87.90938 110.99767 88.84688 110.99767Q89.53438 110.99767 90.05 111.27892Q90.58125 111.56017 90.925 112.09142Q91.26875 112.60705 91.45625 113.35705Q91.64375 114.10705 91.64375 115.3883Q91.64375 116.90392 91.33125 117.8258Q91.03438 118.74767 90.40938 119.2633Q89.8 119.7633 88.84688 119.7633Q87.6125 119.7633 86.89375 118.87267Q86.05 117.81017 86.05 115.3883ZM87.12813 115.3883Q87.12813 117.49767 87.62813 118.2008Q88.12813 118.90392 88.84688 118.90392Q89.58125 118.90392 90.06563 118.2008Q90.56563 117.49767 90.56563 115.3883Q90.56563 113.2633 90.06563 112.5758Q89.58125 111.87267 88.83125 111.87267Q88.1125 111.87267 87.675 112.48205Q87.12813 113.2633 87.12813 115.3883ZM93.05 115.3883Q93.05 113.85705 93.3625 112.93517Q93.675 111.99767 94.28438 111.49767Q94.90938 110.99767 95.84688 110.99767Q96.53438 110.99767 97.05 111.27892Q97.58125 111.56017 97.925 112.09142Q98.26875 112.60705 98.45625 113.35705Q98.64375 114.10705 98.64375 115.3883Q98.64375 116.90392 98.33125 117.8258Q98.03438 118.74767 97.40938 119.2633Q96.8 119.7633 95.84688 119.7633Q94.6125 119.7633 93.89375 118.87267Q93.05 117.81017 93.05 115.3883ZM94.12813 115.3883Q94.12813 117.49767 94.62813 118.2008Q95.12813 118.90392 95.84688 118.90392Q96.58125 118.90392 97.06563 118.2008Q97.56563 117.49767 97.56563 115.3883Q97.56563 113.2633 97.06563 112.5758Q96.58125 111.87267 95.83125 111.87267Q95.1125 111.87267 94.675 112.48205Q94.12813 113.2633 94.12813 115.3883Z" fill-rule="nonzero"/><path fill="#000000" d="M63.51875 92.82291L62.471874 92.90103Q62.33125 92.27603 62.08125 91.99478Q61.64375 91.54166 61.01875 91.54166Q60.51875 91.54166 60.128124 91.82291Q59.64375 92.19791 59.346874 92.90103Q59.065624 93.58853 59.05 94.86978Q59.425 94.29166 59.971874 94.01041Q60.534374 93.72916 61.14375 93.72916Q62.190624 93.72916 62.925 94.51041Q63.675 95.29166 63.675 96.51041Q63.675 97.32291 63.315624 98.02603Q62.971874 98.71353 62.3625 99.08853Q61.753124 99.44791 60.9875 99.44791Q59.659374 99.44791 58.83125 98.47916Q58.003124 97.51041 58.003124 95.29166Q58.003124 92.79166 58.925 91.66666Q59.721874 90.68228 61.08125 90.68228Q62.096874 90.68228 62.7375 91.26041Q63.39375 91.82291 63.51875 92.82291ZM59.221874 96.52603Q59.221874 97.07291 59.440624 97.57291Q59.675 98.05728 60.08125 98.32291Q60.503124 98.58853 60.971874 98.58853Q61.628124 98.58853 62.1125 98.05728Q62.596874 97.51041 62.596874 96.58853Q62.596874 95.69791 62.1125 95.18228Q61.64375 94.66666 60.925 94.66666Q60.20625 94.66666 59.70625 95.18228Q59.221874 95.69791 59.221874 96.52603ZM65.05 95.07291Q65.05 93.54166 65.3625 92.61978Q65.675 91.68228 66.28438 91.18228Q66.90938 90.68228 67.84688 90.68228Q68.53438 90.68228 69.05 90.96353Q69.58125 91.24478 69.925 91.77603Q70.26875 92.29166 70.45625 93.04166Q70.64375 93.79166 70.64375 95.07291Q70.64375 96.58853 70.33125 97.51041Q70.03438 98.43228 69.40938 98.94791Q68.8 99.44791 67.84688 99.44791Q66.6125 99.44791 65.89375 98.55728Q65.05 97.49478 65.05 95.07291ZM66.12813 95.07291Q66.12813 97.18228 66.62813 97.88541Q67.12813 98.58853 67.84688 98.58853Q68.58125 98.58853 69.06563 97.88541Q69.56563 97.18228 69.56563 95.07291Q69.56563 92.94791 69.06563 92.26041Q68.58125 91.55728 67.83125 91.55728Q67.1125 91.55728 66.675 92.16666Q66.12813 92.94791 66.12813 95.07291ZM72.05 95.07291Q72.05 93.54166 72.3625 92.61978Q72.675 91.68228 73.28438 91.18228Q73.90938 90.68228 74.84688 90.68228Q75.53438 90.68228 76.05 90.96353Q76.58125 91.24478 76.925 91.77603Q77.26875 92.29166 77.45625 93.04166Q77.64375 93.79166 77.64375 95.07291Q77.64375 96.58853 77.33125 97.51041Q77.03438 98.43228 76.40938 98.94791Q75.8 99.44791 74.84688 99.44791Q73.6125 99.44791 72.89375 98.55728Q72.05 97.49478 72.05 95.07291ZM73.12813 95.07291Q73.12813 97.18228 73.62813 97.88541Q74.12813 98.58853 74.84688 98.58853Q75.58125 98.58853 76.06563 97.88541Q76.56563 97.18228 76.56563 95.07291Q76.56563 92.94791 76.06563 92.26041Q75.58125 91.55728 74.83125 91.55728Q74.1125 91.55728 73.675 92.16666Q73.12813 92.94791 73.12813 95.07291ZM79.05 95.07291Q79.05 93.54166 79.3625 92.61978Q79.675 91.68228 80.28438 91.18228Q80.90938 90.68228 81.84688 90.68228Q82.53438 90.68228 83.05 90.96353Q83.58125 91.24478 83.925 91.77603Q84.26875 92.29166 84.45625 93.04166Q84.64375 93.79166 84.64375 95.07291Q84.64375 96.58853 84.33125 97.51041Q84.03438 98.43228 83.40938 98.94791Q82.8 99.44791 81.84688 99.44791Q80.6125 99.44791 79.89375 98.55728Q79.05 97.49478 79.05 95.07291ZM80.12813 95.07291Q80.12813 97.18228 80.62813 97.88541Q81.12813 98.58853 81.84688 98.58853Q82.58125 98.58853 83.06563 97.88541Q83.56563 97.18228 83.56563 95.07291Q83.56563 92.94791 83.06563 92.26041Q82.58125 91.55728 81.83125 91.55728Q81.1125 91.55728 80.675 92.16666Q80.12813 92.94791 80.12813 95.07291ZM86.05 95.07291Q86.05 93.54166 86.3625 92.61978Q86.675 91.68228 87.28438 91.18228Q87.90938 90.68228 88.84688 90.68228Q89.53438 90.68228 90.05 90.96353Q90.58125 91.24478 90.925 91.77603Q91.26875 92.29166 91.45625 93.04166Q91.64375 93.79166 91.64375 95.07291Q91.64375 96.58853 91.33125 97.51041Q91.03438 98.43228 90.40938 98.94791Q89.8 99.44791 88.84688 99.44791Q87.6125 99.44791 86.89375 98.55728Q86.05 97.49478 86.05 95.07291ZM87.12813 95.07291Q87.12813 97.18228 87.62813 97.88541Q88.12813 98.58853 88.84688 98.58853Q89.58125 98.58853 90.06563 97.88541Q90.56563 97.18228 90.56563 95.07291Q90.56563 92.94791 90.06563 92.26041Q89.58125 91.55728 88.83125 91.55728Q88.1125 91.55728 87.675 92.16666Q87.12813 92.94791 87.12813 95.07291ZM93.05 95.07291Q93.05 93.54166 93.3625 92.61978Q93.675 91.68228 94.28438 91.18228Q94.90938 90.68228 95.84688 90.68228Q96.53438 90.68228 97.05 90.96353Q97.58125 91.24478 97.925 91.77603Q98.26875 92.29166 98.45625 93.04166Q98.64375 93.79166 98.64375 95.07291Q98.64375 96.58853 98.33125 97.51041Q98.03438 98.43228 97.40938 98.94791Q96.8 99.44791 95.84688 99.44791Q94.6125 99.44791 93.89375 98.55728Q93.05 97.49478 93.05 95.07291ZM94.12813 95.07291Q94.12813 97.18228 94.62813 97.88541Q95.12813 98.58853 95.84688 98.58853Q96.58125 98.58853 97.06563 97.88541Q97.56563 97.18228 97.56563 95.07291Q97.56563 92.94791 97.06563 92.26041Q96.58125 91.55728 95.83125 91.55728Q95.1125 91.55728 94.675 92.16666Q94.12813 92.94791 94.12813 95.07291Z" fill-rule="nonzero"/><path fill="#000000" d="M59.675 80.23703Q59.01875 79.98703 58.690624 79.54953Q58.378124 79.096405 58.378124 78.48703Q58.378124 77.54953 59.05 76.908905Q59.7375 76.26828 60.846874 76.26828Q61.971874 76.26828 62.659374 76.92453Q63.346874 77.58078 63.346874 78.51828Q63.346874 79.11203 63.034374 79.54953Q62.721874 79.98703 62.08125 80.23703Q62.878124 80.48703 63.284374 81.065155Q63.690624 81.64328 63.690624 82.440155Q63.690624 83.533905 62.909374 84.283905Q62.14375 85.033905 60.8625 85.033905Q59.596874 85.033905 58.815624 84.283905Q58.034374 83.533905 58.034374 82.408905Q58.034374 81.565155 58.45625 81.002655Q58.89375 80.440155 59.675 80.23703ZM59.45625 78.440155Q59.45625 79.04953 59.846874 79.440155Q60.253124 79.83078 60.878124 79.83078Q61.4875 79.83078 61.878124 79.45578Q62.26875 79.065155 62.26875 78.502655Q62.26875 77.92453 61.8625 77.533905Q61.45625 77.127655 60.8625 77.127655Q60.253124 77.127655 59.846874 77.51828Q59.45625 77.908905 59.45625 78.440155ZM59.128124 82.408905Q59.128124 82.86203 59.33125 83.283905Q59.55 83.70578 59.971874 83.940155Q60.39375 84.17453 60.878124 84.17453Q61.628124 84.17453 62.1125 83.690155Q62.6125 83.20578 62.6125 82.45578Q62.6125 81.690155 62.1125 81.190155Q61.6125 80.690155 60.846874 80.690155Q60.096874 80.690155 59.6125 81.190155Q59.128124 81.67453 59.128124 82.408905ZM65.05 80.658905Q65.05 79.127655 65.3625 78.20578Q65.675 77.26828 66.28438 76.76828Q66.90938 76.26828 67.84688 76.26828Q68.53438 76.26828 69.05 76.54953Q69.58125 76.83078 69.925 77.36203Q70.26875 77.877655 70.45625 78.627655Q70.64375 79.377655 70.64375 80.658905Q70.64375 82.17453 70.33125 83.096405Q70.03438 84.01828 69.40938 84.533905Q68.8 85.033905 67.84688 85.033905Q66.6125 85.033905 65.89375 84.14328Q65.05 83.08078 65.05 80.658905ZM66.12813 80.658905Q66.12813 82.76828 66.62813 83.471405Q67.12813 84.17453 67.84688 84.17453Q68.58125 84.17453 69.06563 83.471405Q69.56563 82.76828 69.56563 80.658905Q69.56563 78.533905 69.06563 77.846405Q68.58125 77.14328 67.83125 77.14328Q67.1125 77.14328 66.675 77.752655Q66.12813 78.533905 66.12813 80.658905ZM72.05 80.658905Q72.05 79.127655 72.3625 78.20578Q72.675 77.26828 73.28438 76.76828Q73.90938 76.26828 74.84688 76.26828Q75.53438 76.26828 76.05 76.54953Q76.58125 76.83078 76.925 77.36203Q77.26875 77.877655 77.45625 78.627655Q77.64375 79.377655 77.64375 80.658905Q77.64375 82.17453 77.33125 83.096405Q77.03438 84.01828 76.40938 84.533905Q75.8 85.033905 74.84688 85.033905Q73.6125 85.033905 72.89375 84.14328Q72.05 83.08078 72.05 80.658905ZM73.12813 80.658905Q73.12813 82.76828 73.62813 83.471405Q74.12813 84.17453 74.84688 84.17453Q75.58125 84.17453 76.06563 83.471405Q76.56563 82.76828 76.56563 80.658905Q76.56563 78.533905 76.06563 77.846405Q75.58125 77.14328 74.83125 77.14328Q74.1125 77.14328 73.675 77.752655Q73.12813 78.533905 73.12813 80.658905ZM79.05 80.658905Q79.05 79.127655 79.3625 78.20578Q79.675 77.26828 80.28438 76.76828Q80.90938 76.26828 81.84688 76.26828Q82.53438 76.26828 83.05 76.54953Q83.58125 76.83078 83.925 77.36203Q84.26875 77.877655 84.45625 78.627655Q84.64375 79.377655 84.64375 80.658905Q84.64375 82.17453 84.33125 83.096405Q84.03438 84.01828 83.40938 84.533905Q82.8 85.033905 81.84688 85.033905Q80.6125 85.033905 79.89375 84.14328Q79.05 83.08078 79.05 80.658905ZM80.12813 80.658905Q80.12813 82.76828 80.62813 83.471405Q81.12813 84.17453 81.84688 84.17453Q82.58125 84.17453 83.06563 83.471405Q83.56563 82.76828 83.56563 80.658905Q83.56563 78.533905 83.06563 77.846405Q82.58125 77.14328 81.83125 77.14328Q81.1125 77.14328 80.675 77.752655Q80.12813 78.533905 80.12813 80.658905ZM86.05 80.658905Q86.05 79.127655 86.3625 78.20578Q86.675 77.26828 87.28438 76.76828Q87.90938 76.26828 88.84688 76.26828Q89.53438 76.26828 90.05 76.54953Q90.58125 76.83078 90.925 77.36203Q91.26875 77.877655 91.45625 78.627655Q91.64375 79.377655 91.64375 80.658905Q91.64375 82.17453 91.33125 83.096405Q91.03438 84.01828 90.40938 84.533905Q89.8 85.033905 88.84688 85.033905Q87.6125 85.033905 86.89375 84.14328Q86.05 83.08078 86.05 80.658905ZM87.12813 80.658905Q87.12813 82.76828 87.62813 83.471405Q88.12813 84.17453 88.84688 84.17453Q89.58125 84.17453 90.06563 83.471405Q90.56563 82.76828 90.56563 80.658905Q90.56563 78.533905 90.06563 77.846405Q89.58125 77.14328 88.83125 77.14328Q88.1125 77.14328 87.675 77.752655Q87.12813 78.533905 87.12813 80.658905ZM93.05 80.658905Q93.05 79.127655 93.3625 78.20578Q93.675 77.26828 94.28438 76.76828Q94.90938 76.26828 95.84688 76.26828Q96.53438 76.26828 97.05 76.54953Q97.58125 76.83078 97.925 77.36203Q98.26875 77.877655 98.45625 78.627655Q98.64375 79.377655 98.64375 80.658905Q98.64375 82.17453 98.33125 83.096405Q98.03438 84.01828 97.40938 84.533905Q96.8 85.033905 95.84688 85.033905Q94.6125 85.033905 93.89375 84.14328Q93.05 83.08078 93.05 80.658905ZM94.12813 80.658905Q94.12813 82.76828 94.62813 83.471405Q95.12813 84.17453 95.84688 84.17453Q96.58125 84.17453 97.06563 83.471405Q97.56563 82.76828 97.56563 80.658905Q97.56563 78.533905 97.06563 77.846405Q96.58125 77.14328 95.83125 77.14328Q95.1125 77.14328 94.675 77.752655Q94.12813 78.533905 94.12813 80.658905Z" fill-rule="nonzero"/><path fill="#000000" d="M202.40904 317.45L201.36217 317.45L201.36217 310.73126Q200.97154 311.09064 200.34654 311.46564Q199.73717 311.825 199.25279 311.9969L199.25279 310.98126Q200.12779 310.5594 200.78404 309.98126Q201.45592 309.3875 201.73717 308.825L202.40904 308.825L202.40904 317.45Z" fill-rule="nonzero"/><path fill="#000000" d="M340.96875 317.45L339.92188 317.45L339.92188 310.73126Q339.53125 311.09064 338.90625 311.46564Q338.29688 311.825 337.8125 311.9969L337.8125 310.98126Q338.6875 310.5594 339.34375 309.98126Q340.01562 309.3875 340.29688 308.825L340.96875 308.825L340.96875 317.45ZM344.0 313.21564Q344.0 311.6844 344.3125 310.7625Q344.625 309.825 345.23438 309.325Q345.85938 308.825 346.79688 308.825Q347.48438 308.825 348.0 309.10626Q348.53125 309.3875 348.875 309.91876Q349.21875 310.4344 349.40625 311.1844Q349.59375 311.9344 349.59375 313.21564Q349.59375 314.73126 349.28125 315.65314Q348.98438 316.575 348.35938 317.09064Q347.75 317.59064 346.79688 317.59064Q345.5625 317.59064 344.84375 316.7Q344.0 315.6375 344.0 313.21564ZM345.07812 313.21564Q345.07812 315.325 345.57812 316.02814Q346.07812 316.73126 346.79688 316.73126Q347.53125 316.73126 348.01562 316.02814Q348.51562 315.325 348.51562 313.21564Q348.51562 311.09064 348.01562 310.40314Q347.53125 309.7 346.78125 309.7Q346.0625 309.7 345.625 310.3094Q345.07812 311.09064 345.07812 313.21564Z" fill-rule="nonzero"/><path fill="#000000" d="M479.52844 317.45L478.48157 317.45L478.48157 310.73126Q478.09094 311.09064 477.46594 311.46564Q476.85657 311.825 476.3722 311.9969L476.3722 310.98126Q477.2472 310.5594 477.90344 309.98126Q478.57532 309.3875 478.85657 308.825L479.52844 308.825L479.52844 317.45ZM482.5597 313.21564Q482.5597 311.6844 482.8722 310.7625Q483.1847 309.825 483.79407 309.325Q484.41907 308.825 485.35657 308.825Q486.04407 308.825 486.5597 309.10626Q487.09094 309.3875 487.4347 309.91876Q487.77844 310.4344 487.96594 311.1844Q488.15344 311.9344 488.15344 313.21564Q488.15344 314.73126 487.84094 315.65314Q487.54407 316.575 486.91907 317.09064Q486.3097 317.59064 485.35657 317.59064Q484.1222 317.59064 483.40344 316.7Q482.5597 315.6375 482.5597 313.21564ZM483.63782 313.21564Q483.63782 315.325 484.13782 316.02814Q484.63782 316.73126 485.35657 316.73126Q486.09094 316.73126 486.57532 316.02814Q487.07532 315.325 487.07532 313.21564Q487.07532 311.09064 486.57532 310.40314Q486.09094 309.7 485.34094 309.7Q484.6222 309.7 484.1847 310.3094Q483.63782 311.09064 483.63782 313.21564ZM489.5597 313.21564Q489.5597 311.6844 489.8722 310.7625Q490.1847 309.825 490.79407 309.325Q491.41907 308.825 492.35657 308.825Q493.04407 308.825 493.5597 309.10626Q494.09094 309.3875 494.4347 309.91876Q494.77844 310.4344 494.96594 311.1844Q495.15344 311.9344 495.15344 313.21564Q495.15344 314.73126 494.84094 315.65314Q494.54407 316.575 493.91907 317.09064Q493.3097 317.59064 492.35657 317.59064Q491.1222 317.59064 490.40344 316.7Q489.5597 315.6375 489.5597 313.21564ZM490.63782 313.21564Q490.63782 315.325 491.13782 316.02814Q491.63782 316.73126 492.35657 316.73126Q493.09094 316.73126 493.57532 316.02814Q494.07532 315.325 494.07532 313.21564Q494.07532 311.09064 493.57532 310.40314Q493.09094 309.7 492.34094 309.7Q491.6222 309.7 491.1847 310.3094Q490.63782 311.09064 490.63782 313.21564Z" fill-rule="nonzero"/><path fill="#4285f4" d="M208.5 20.55C208.5 19.997715 208.94771 19.55 209.5 19.55L219.5 19.55C220.05229 19.55 220.5 19.997715 220.5 20.55L220.5 30.55C220.5 31.102285 220.05229 31.55 219.5 31.55L209.5 31.55C208.94771 31.55 208.5 31.102285 208.5 30.55Z" fill-rule="nonzero"/><path fill="#1a1a1a" d="M228.48438 29.55L231.78125 20.95625L233.0 20.95625L236.51562 29.55L235.23438 29.55L234.21875 26.940624L230.64062 26.940624L229.6875 29.55L228.48438 29.55ZM230.96875 26.01875L233.875 26.01875L232.98438 23.64375Q232.5625 22.565624 232.375 21.8625Q232.20312 22.690624 231.90625 23.503124L230.96875 26.01875ZM239.01562 29.55L236.65625 23.33125L237.76562 23.33125L239.10938 27.05Q239.3125 27.659374 239.5 28.3Q239.64062 27.815624 239.89062 27.128124L241.28125 23.33125L242.35938 23.33125L240.0 29.55L239.01562 29.55ZM247.54688 27.55L248.64062 27.675Q248.39062 28.628124 247.6875 29.159374Q246.98438 29.690624 245.90625 29.690624Q244.54688 29.690624 243.73438 28.846874Q242.9375 28.003124 242.9375 26.4875Q242.9375 24.925 243.75 24.065624Q244.5625 23.190624 245.84375 23.190624Q247.09375 23.190624 247.875 24.034374Q248.67188 24.878124 248.67188 26.425Q248.67188 26.51875 248.67188 26.70625L244.03125 26.70625Q244.09375 27.7375 244.60938 28.284374Q245.125 28.815624 245.90625 28.815624Q246.48438 28.815624 246.89062 28.51875Q247.3125 28.20625 247.54688 27.55ZM244.09375 25.846874L247.5625 25.846874Q247.5 25.05 247.17188 24.659374Q246.65625 24.05 245.85938 24.05Q245.125 24.05 244.625 24.534374Q244.14062 25.01875 244.09375 25.846874ZM250.28125 29.55L250.28125 23.33125L251.23438 23.33125L251.23438 24.26875Q251.59375 23.6125 251.89062 23.409374Q252.20312 23.190624 252.57812 23.190624Q253.10938 23.190624 253.65625 23.51875L253.29688 24.503124Q252.90625 24.26875 252.53125 24.26875Q252.17188 24.26875 251.89062 24.4875Q251.625 24.690624 251.51562 25.065624Q251.32812 25.628124 251.32812 26.284374L251.32812 29.55L250.28125 29.55ZM258.35938 28.784374Q257.76562 29.284374 257.21875 29.4875Q256.6875 29.690624 256.0625 29.690624Q255.03125 29.690624 254.48438 29.190624Q253.9375 28.690624 253.9375 27.909374Q253.9375 27.45625 254.14062 27.08125Q254.34375 26.690624 254.6875 26.471874Q255.03125 26.2375 255.45312 26.128124Q255.75 26.034374 256.39062 25.95625Q257.65625 25.815624 258.26562 25.596874Q258.26562 25.378124 258.26562 25.33125Q258.26562 24.675 257.96875 24.409374Q257.5625 24.065624 256.76562 24.065624Q256.03125 24.065624 255.67188 24.33125Q255.3125 24.58125 255.14062 25.2375L254.10938 25.096874Q254.25 24.440624 254.57812 24.034374Q254.90625 23.628124 255.51562 23.409374Q256.125 23.190624 256.92188 23.190624Q257.71875 23.190624 258.21875 23.378124Q258.71875 23.565624 258.95312 23.846874Q259.1875 24.128124 259.28125 24.565624Q259.32812 24.83125 259.32812 25.534374L259.32812 26.940624Q259.32812 28.409374 259.39062 28.8Q259.46875 29.190624 259.67188 29.55L258.5625 29.55Q258.40625 29.221874 258.35938 28.784374ZM258.26562 26.425Q257.6875 26.659374 256.54688 26.83125Q255.89062 26.925 255.625 27.05Q255.35938 27.159374 255.20312 27.378124Q255.0625 27.596874 255.0625 27.878124Q255.0625 28.3 255.375 28.58125Q255.70312 28.8625 256.3125 28.8625Q256.92188 28.8625 257.39062 28.596874Q257.875 28.33125 258.09375 27.8625Q258.26562 27.503124 258.26562 26.815624L258.26562 26.425ZM261.09375 30.065624L262.125 30.221874Q262.1875 30.690624 262.48438 30.909374Q262.875 31.20625 263.54688 31.20625Q264.28125 31.20625 264.67188 30.909374Q265.07812 30.6125 265.21875 30.096874Q265.3125 29.76875 265.29688 28.7375Q264.60938 29.55 263.57812 29.55Q262.29688 29.55 261.59375 28.628124Q260.89062 27.690624 260.89062 26.409374Q260.89062 25.51875 261.20312 24.76875Q261.53125 24.003124 262.14062 23.596874Q262.75 23.190624 263.57812 23.190624Q264.6875 23.190624 265.40625 24.08125L265.40625 23.33125L266.375 23.33125L266.375 28.70625Q266.375 30.159374 266.07812 30.76875Q265.78125 31.378124 265.14062 31.721874Q264.5 32.08125 263.5625 32.08125Q262.45312 32.08125 261.76562 31.58125Q261.07812 31.08125 261.09375 30.065624ZM261.96875 26.33125Q261.96875 27.55 262.45312 28.1125Q262.9375 28.675 263.67188 28.675Q264.40625 28.675 264.89062 28.1125Q265.39062 27.55 265.39062 26.3625Q265.39062 25.221874 264.875 24.64375Q264.375 24.065624 263.65625 24.065624Q262.95312 24.065624 262.45312 24.64375Q261.96875 25.20625 261.96875 26.33125ZM272.54688 27.55L273.64062 27.675Q273.39062 28.628124 272.6875 29.159374Q271.98438 29.690624 270.90625 29.690624Q269.54688 29.690624 268.73438 28.846874Q267.9375 28.003124 267.9375 26.4875Q267.9375 24.925 268.75 24.065624Q269.5625 23.190624 270.84375 23.190624Q272.09375 23.190624 272.875 24.034374Q273.67188 24.878124 273.67188 26.425Q273.67188 26.51875 273.67188 26.70625L269.03125 26.70625Q269.09375 27.7375 269.60938 28.284374Q270.125 28.815624 270.90625 28.815624Q271.48438 28.815624 271.89062 28.51875Q272.3125 28.20625 272.54688 27.55ZM269.09375 25.846874L272.5625 25.846874Q272.5 25.05 272.17188 24.659374Q271.65625 24.05 270.85938 24.05Q270.125 24.05 269.625 24.534374Q269.14062 25.01875 269.09375 25.846874Z" fill-rule="nonzero"/><path fill="#ea4335" d="M290.5 20.55C290.5 19.997715 290.94772 19.55 291.5 19.55L301.5 19.55C302.05228 19.55 302.5 19.997715 302.5 20.55L302.5 30.55C302.5 31.102285 302.05228 31.55 301.5 31.55L291.5 31.55C290.94772 31.55 290.5 31.102285 290.5 30.55Z" fill-rule="nonzero"/><path fill="#1a1a1a" d="M311.15625 27.565624L312.17188 27.471874Q312.29688 28.190624 312.65625 28.51875Q313.03125 28.83125 313.59375 28.83125Q314.07812 28.83125 314.4375 28.6125Q314.8125 28.378124 315.04688 28.01875Q315.28125 27.64375 315.4375 27.01875Q315.59375 26.378124 315.59375 25.721874Q315.59375 25.64375 315.59375 25.503124Q315.28125 26.003124 314.73438 26.33125Q314.1875 26.64375 313.54688 26.64375Q312.46875 26.64375 311.73438 25.878124Q311.0 25.096874 311.0 23.83125Q311.0 22.51875 311.76562 21.721874Q312.54688 20.925 313.70312 20.925Q314.53125 20.925 315.21875 21.378124Q315.92188 21.83125 316.28125 22.675Q316.64062 23.503124 316.64062 25.08125Q316.64062 26.721874 316.28125 27.70625Q315.9375 28.675 315.21875 29.190624Q314.51562 29.690624 313.57812 29.690624Q312.5625 29.690624 311.92188 29.14375Q311.28125 28.58125 311.15625 27.565624ZM315.46875 23.76875Q315.46875 22.8625 314.98438 22.33125Q314.51562 21.8 313.82812 21.8Q313.125 21.8 312.59375 22.378124Q312.07812 22.940624 312.07812 23.8625Q312.07812 24.675 312.57812 25.190624Q313.07812 25.70625 313.79688 25.70625Q314.53125 25.70625 315.0 25.190624Q315.46875 24.675 315.46875 23.76875ZM318.0 25.315624Q318.0 23.784374 318.3125 22.8625Q318.625 21.925 319.23438 21.425Q319.85938 20.925 320.79688 20.925Q321.48438 20.925 322.0 21.20625Q322.53125 21.4875 322.875 22.01875Q323.21875 22.534374 323.40625 23.284374Q323.59375 24.034374 323.59375 25.315624Q323.59375 26.83125 323.28125 27.753124Q322.98438 28.675 322.35938 29.190624Q321.75 29.690624 320.79688 29.690624Q319.5625 29.690624 318.84375 28.8Q318.0 27.7375 318.0 25.315624ZM319.07812 25.315624Q319.07812 27.425 319.57812 28.128124Q320.07812 28.83125 320.79688 28.83125Q321.53125 28.83125 322.01562 28.128124Q322.51562 27.425 322.51562 25.315624Q322.51562 23.190624 322.01562 22.503124Q321.53125 21.8 320.78125 21.8Q320.0625 21.8 319.625 22.409374Q319.07812 23.190624 319.07812 25.315624ZM327.59375 28.6125L327.75 29.534374Q327.29688 29.628124 326.95312 29.628124Q326.375 29.628124 326.0625 29.45625Q325.75 29.26875 325.60938 28.971874Q325.48438 28.675 325.48438 27.721874L325.48438 24.14375L324.71875 24.14375L324.71875 23.33125L325.48438 23.33125L325.48438 21.784374L326.53125 21.159374L326.53125 23.33125L327.59375 23.33125L327.59375 24.14375L326.53125 24.14375L326.53125 27.784374Q326.53125 28.2375 326.57812 28.3625Q326.64062 28.4875 326.76562 28.565624Q326.89062 28.64375 327.125 28.64375Q327.3125 28.64375 327.59375 28.6125ZM328.29688 29.55L328.29688 20.95625L329.34375 20.95625L329.34375 24.034374Q330.07812 23.190624 331.20312 23.190624Q331.90625 23.190624 332.40625 23.471874Q332.92188 23.7375 333.14062 24.221874Q333.35938 24.690624 333.35938 25.6125L333.35938 29.55L332.3125 29.55L332.3125 25.6125Q332.3125 24.815624 331.96875 24.45625Q331.625 24.096874 331.0 24.096874Q330.53125 24.096874 330.10938 24.346874Q329.70312 24.58125 329.51562 25.003124Q329.34375 25.409374 329.34375 26.14375L329.34375 29.55L328.29688 29.55ZM338.29688 31.940624L338.29688 23.33125L339.25 23.33125L339.25 24.128124Q339.59375 23.659374 340.01562 23.425Q340.45312 23.190624 341.0625 23.190624Q341.85938 23.190624 342.46875 23.596874Q343.07812 24.003124 343.375 24.753124Q343.6875 25.503124 343.6875 26.39375Q343.6875 27.346874 343.34375 28.1125Q343.01562 28.878124 342.35938 29.284374Q341.70312 29.690624 340.98438 29.690624Q340.45312 29.690624 340.03125 29.471874Q339.60938 29.2375 339.34375 28.909374L339.34375 31.940624L338.29688 31.940624ZM339.25 26.471874Q339.25 27.675 339.73438 28.253124Q340.21875 28.815624 340.90625 28.815624Q341.60938 28.815624 342.10938 28.221874Q342.60938 27.628124 342.60938 26.378124Q342.60938 25.190624 342.125 24.6125Q341.64062 24.01875 340.95312 24.01875Q340.28125 24.01875 339.76562 24.64375Q339.25 25.26875 339.25 26.471874ZM349.54688 27.55L350.64062 27.675Q350.39062 28.628124 349.6875 29.159374Q348.98438 29.690624 347.90625 29.690624Q346.54688 29.690624 345.73438 28.846874Q344.9375 28.003124 344.9375 26.4875Q344.9375 24.925 345.75 24.065624Q346.5625 23.190624 347.84375 23.190624Q349.09375 23.190624 349.875 24.034374Q350.67188 24.878124 350.67188 26.425Q350.67188 26.51875 350.67188 26.70625L346.03125 26.70625Q346.09375 27.7375 346.60938 28.284374Q347.125 28.815624 347.90625 28.815624Q348.48438 28.815624 348.89062 28.51875Q349.3125 28.20625 349.54688 27.55ZM346.09375 25.846874L349.5625 25.846874Q349.5 25.05 349.17188 24.659374Q348.65625 24.05 347.85938 24.05Q347.125 24.05 346.625 24.534374Q346.14062 25.01875 346.09375 25.846874ZM352.28125 29.55L352.28125 23.33125L353.23438 23.33125L353.23438 24.26875Q353.59375 23.6125 353.89062 23.409374Q354.20312 23.190624 354.57812 23.190624Q355.10938 23.190624 355.65625 23.51875L355.29688 24.503124Q354.90625 24.26875 354.53125 24.26875Q354.17188 24.26875 353.89062 24.4875Q353.625 24.690624 353.51562 25.065624Q353.32812 25.628124 353.32812 26.284374L353.32812 29.55L352.28125 29.55ZM360.35938 27.26875L361.39062 27.409374Q361.21875 28.471874 360.51562 29.08125Q359.8125 29.690624 358.79688 29.690624Q357.51562 29.690624 356.73438 28.8625Q355.96875 28.01875 355.96875 26.45625Q355.96875 25.45625 356.29688 24.70625Q356.64062 23.940624 357.3125 23.565624Q358.0 23.190624 358.8125 23.190624Q359.8125 23.190624 360.45312 23.70625Q361.10938 24.20625 361.29688 25.159374L360.26562 25.315624Q360.125 24.690624 359.75 24.378124Q359.375 24.05 358.84375 24.05Q358.04688 24.05 357.54688 24.628124Q357.04688 25.190624 357.04688 26.425Q357.04688 27.690624 357.53125 28.253124Q358.01562 28.815624 358.78125 28.815624Q359.40625 28.815624 359.8125 28.440624Q360.23438 28.065624 360.35938 27.26875ZM366.54688 27.55L367.64062 27.675Q367.39062 28.628124 366.6875 29.159374Q365.98438 29.690624 364.90625 29.690624Q363.54688 29.690624 362.73438 28.846874Q361.9375 28.003124 361.9375 26.4875Q361.9375 24.925 362.75 24.065624Q363.5625 23.190624 364.84375 23.190624Q366.09375 23.190624 366.875 24.034374Q367.67188 24.878124 367.67188 26.425Q367.67188 26.51875 367.67188 26.70625L363.03125 26.70625Q363.09375 27.7375 363.60938 28.284374Q364.125 28.815624 364.90625 28.815624Q365.48438 28.815624 365.89062 28.51875Q366.3125 28.20625 366.54688 27.55ZM363.09375 25.846874L366.5625 25.846874Q366.5 25.05 366.17188 24.659374Q365.65625 24.05 364.85938 24.05Q364.125 24.05 363.625 24.534374Q363.14062 25.01875 363.09375 25.846874ZM369.29688 29.55L369.29688 23.33125L370.23438 23.33125L370.23438 24.20625Q370.92188 23.190624 372.21875 23.190624Q372.78125 23.190624 373.25 23.39375Q373.73438 23.596874 373.96875 23.925Q374.20312 24.253124 374.29688 24.690624Q374.34375 24.9875 374.34375 25.721874L374.34375 29.55L373.29688 29.55L373.29688 25.76875Q373.29688 25.1125 373.17188 24.8Q373.04688 24.4875 372.73438 24.3Q372.42188 24.096874 372.0 24.096874Q371.32812 24.096874 370.82812 24.534374Q370.34375 24.95625 370.34375 26.14375L370.34375 29.55L369.29688 29.55ZM378.59375 28.6125L378.75 29.534374Q378.29688 29.628124 377.95312 29.628124Q377.375 29.628124 377.0625 29.45625Q376.75 29.26875 376.60938 28.971874Q376.48438 28.675 376.48438 27.721874L376.48438 24.14375L375.71875 24.14375L375.71875 23.33125L376.48438 23.33125L376.48438 21.784374L377.53125 21.159374L377.53125 23.33125L378.59375 23.33125L378.59375 24.14375L377.53125 24.14375L377.53125 27.784374Q377.53125 28.2375 377.57812 28.3625Q377.64062 28.4875 377.76562 28.565624Q377.89062 28.64375 378.125 28.64375Q378.3125 28.64375 378.59375 28.6125ZM379.29688 22.175L379.29688 20.95625L380.35938 20.95625L380.35938 22.175L379.29688 22.175ZM379.29688 29.55L379.29688 23.33125L380.35938 23.33125L380.35938 29.55L379.29688 29.55ZM382.26562 29.55L382.26562 20.95625L383.32812 20.95625L383.32812 29.55L382.26562 29.55ZM389.54688 27.55L390.64062 27.675Q390.39062 28.628124 389.6875 29.159374Q388.98438 29.690624 387.90625 29.690624Q386.54688 29.690624 385.73438 28.846874Q384.9375 28.003124 384.9375 26.4875Q384.9375 24.925 385.75 24.065624Q386.5625 23.190624 387.84375 23.190624Q389.09375 23.190624 389.875 24.034374Q390.67188 24.878124 390.67188 26.425Q390.67188 26.51875 390.67188 26.70625L386.03125 26.70625Q386.09375 27.7375 386.60938 28.284374Q387.125 28.815624 387.90625 28.815624Q388.48438 28.815624 388.89062 28.51875Q389.3125 28.20625 389.54688 27.55ZM386.09375 25.846874L389.5625 25.846874Q389.5 25.05 389.17188 24.659374Q388.65625 24.05 387.85938 24.05Q387.125 24.05 386.625 24.534374Q386.14062 25.01875 386.09375 25.846874Z" fill-rule="nonzero"/></svg>