<svg version="1.1" viewBox="0.0 0.0 600.0 371.0" fill="none" stroke="none" stroke-linecap="square" stroke-miterlimit="10" width="600" height="371" xmlns:xlink="http://www.w3.org/1999/xlink" xmlns="http://www.w3.org/2000/svg"><path fill="#ffffff" d="M0 0L600.0 0L600.0 371.0L0 371.0L0 0Z" fill-rule="nonzero"/><path stroke="#333333" stroke-width="1.0" stroke-linecap="butt" d="M98.5 300.5L581.5 300.5" fill-rule="nonzero"/><path stroke="#cccccc" stroke-width="1.0" stroke-linecap="butt" d="M98.5 261.5L581.5 261.5" fill-rule="nonzero"/><path stroke="#cccccc" stroke-width="1.0" stroke-linecap="butt" d="M98.5 221.5L581.5 221.5" fill-rule="nonzero"/><path stroke="#cccccc" stroke-width="1.0" stroke-linecap="butt" d="M98.5 182.5L581.5 182.5" fill-rule="nonzero"/><path stroke="#cccccc" stroke-width="1.0" stroke-linecap="butt" d="M98.5 143.5L581.5 143.5" fill-rule="nonzero"/><path stroke="#cccccc" stroke-width="1.0" stroke-linecap="butt" d="M98.5 104.5L581.5 104.5" fill-rule="nonzero"/><path stroke="#cccccc" stroke-width="1.0" stroke-linecap="butt" d="M98.5 64.5L581.5 64.5" fill-rule="nonzero"/><path stroke="#cccccc" stroke-width="1.0" stroke-linecap="butt" d="M98.5 25.5L581.5 25.5" fill-rule="nonzero"/><clipPath id="id_0"><path d="M98.55 25.55L581.45 25.55L581.45 300.45L98.55 300.45L98.55 25.55Z" clip-rule="nonzero"/></clipPath><path stroke="#000000" stroke-width="0.0" stroke-linecap="butt" stroke-opacity="0.0" clip-path="url(#id_0)" d="M175.0 300.0L126.0 300.0L126.0 297.0C126.0 295.89542 126.89543 295.0 128.0 295.0L173.0 295.0C174.10457 295.0 175.0 295.89542 175.0 297.0Z" fill-rule="nonzero"/><path fill="#4285f4" clip-path="url(#id_0)" d="M175.0 300.0L126.0 300.0L126.0 297.0C126.0 295.89542 126.89543 295.0 128.0 295.0L173.0 295.0C174.10457 295.0 175.0 295.89542 175.0 297.0Z" fill-rule="nonzero"/><path stroke="#000000" stroke-width="0.0" stroke-linecap="butt" stroke-opacity="0.0" clip-path="url(#id_0)" d="M251.0 300.0L202.0 300.0L202.0 297.0C202.0 295.89542 202.89543 295.0 204.0 295.0L249.0 295.0C250.10457 295.0 251.0 295.89542 251.0 297.0Z" fill-rule="nonzero"/><path fill="#4285f4" clip-path="url(#id_0)" d="M251.0 300.0L202.0 300.0L202.0 297.0C202.0 295.89542 202.89543 295.0 204.0 295.0L249.0 295.0C250.10457 295.0 251.0 295.89542 251.0 297.0Z" fill-rule="nonzero"/><path stroke="#000000" stroke-width="0.0" stroke-linecap="butt" stroke-opacity="0.0" clip-path="url(#id_0)" d="M327.0 300.0L278.0 300.0L278.0 297.0C278.0 295.89542 278.89542 295.0 280.0 295.0L325.0 295.0C326.10458 295.0 327.0 295.89542 327.0 297.0Z" fill-rule="nonzero"/><path fill="#4285f4" clip-path="url(#id_0)" d="M327.0 300.0L278.0 300.0L278.0 297.0C278.0 295.89542 278.89542 295.0 280.0 295.0L325.0 295.0C326.10458 295.0 327.0 295.89542 327.0 297.0Z" fill-rule="nonzero"/><path stroke="#000000" stroke-width="0.0" stroke-linecap="butt" stroke-opacity="0.0" clip-path="url(#id_0)" d="M403.0 300.0L354.0 300.0L354.0 294.0C354.0 292.89542 354.89542 292.0 356.0 292.0L401.0 292.0C402.10458 292.0 403.0 292.89542 403.0 294.0Z" fill-rule="nonzero"/><path fill="#4285f4" clip-path="url(#id_0)" d="M403.0 300.0L354.0 300.0L354.0 294.0C354.0 292.89542 354.89542 292.0 356.0 292.0L401.0 292.0C402.10458 292.0 403.0 292.89542 403.0 294.0Z" fill-rule="nonzero"/><path stroke="#000000" stroke-width="0.0" stroke-linecap="butt" stroke-opacity="0.0" clip-path="url(#id_0)" d="M479.0 300.0L430.0 300.0L430.0 271.0C430.0 269.89542 430.89542 269.0 432.0 269.0L477.0 269.0C478.10458 269.0 479.0 269.89542 479.0 271.0Z" fill-rule="nonzero"/><path fill="#4285f4" clip-path="url(#id_0)" d="M479.0 300.0L430.0 300.0L430.0 271.0C430.0 269.89542 430.89542 269.0 432.0 269.0L477.0 269.0C478.10458 269.0 479.0 269.89542 479.0 271.0Z" fill-rule="nonzero"/><path stroke="#000000" stroke-width="0.0" stroke-linecap="butt" stroke-opacity="0.0" clip-path="url(#id_0)" d="M555.0 300.0L506.0 300.0L506.0 100.0C506.0 98.89543 506.89542 98.0 508.0 98.0L553.0 98.0C554.10455 98.0 555.0 98.89543 555.0 100.0Z" fill-rule="nonzero"/><path fill="#4285f4" clip-path="url(#id_0)" d="M555.0 300.0L506.0 300.0L506.0 100.0C506.0 98.89543 506.89542 98.0 508.0 98.0L553.0 98.0C554.10455 98.0 555.0 98.89543 555.0 100.0Z" fill-rule="nonzero"/><path fill="#000000" d="M326.42188 349.45L326.42188 340.85626L329.67188 340.85626Q330.51562 340.85626 330.96875 340.9344Q331.60938 341.04376 332.03125 341.34064Q332.46875 341.6375 332.71875 342.16876Q332.98438 342.7 332.98438 343.34064Q332.98438 344.4344 332.28125 345.2Q331.59375 345.95 329.76562 345.95L327.5625 345.95L327.5625 349.45L326.42188 349.45ZM327.5625 344.95L329.78125 344.95Q330.89062 344.95 331.34375 344.54376Q331.8125 344.1219 331.8125 343.3719Q331.8125 342.84064 331.53125 342.46564Q331.26562 342.075 330.82812 341.95Q330.53125 341.8719 329.76562 341.8719L327.5625 341.8719L327.5625 344.95ZM338.35938 348.6844Q337.76562 349.1844 337.21875 349.3875Q336.6875 349.59064 336.0625 349.59064Q335.03125 349.59064 334.48438 349.09064Q333.9375 348.59064 333.9375 347.8094Q333.9375 347.35626 334.14062 346.98126Q334.34375 346.59064 334.6875 346.3719Q335.03125 346.1375 335.45312 346.02814Q335.75 345.9344 336.39062 345.85626Q337.65625 345.71564 338.26562 345.4969Q338.26562 345.27814 338.26562 345.23126Q338.26562 344.575 337.96875 344.3094Q337.5625 343.96564 336.76562 343.96564Q336.03125 343.96564 335.67188 344.23126Q335.3125 344.48126 335.14062 345.1375L334.10938 344.9969Q334.25 344.34064 334.57812 343.9344Q334.90625 343.52814 335.51562 343.3094Q336.125 343.09064 336.92188 343.09064Q337.71875 343.09064 338.21875 343.27814Q338.71875 343.46564 338.95312 343.7469Q339.1875 344.02814 339.28125 344.46564Q339.32812 344.73126 339.32812 345.4344L339.32812 346.84064Q339.32812 348.3094 339.39062 348.7Q339.46875 349.09064 339.67188 349.45L338.5625 349.45Q338.40625 349.1219 338.35938 348.6844ZM338.26562 346.325Q337.6875 346.5594 336.54688 346.73126Q335.89062 346.825 335.625 346.95Q335.35938 347.0594 335.20312 347.27814Q335.0625 347.4969 335.0625 347.77814Q335.0625 348.2 335.375 348.48126Q335.70312 348.7625 336.3125 348.7625Q336.92188 348.7625 337.39062 348.4969Q337.875 348.23126 338.09375 347.7625Q338.26562 347.40314 338.26562 346.71564L338.26562 346.325ZM341.09375 349.96564L342.125 350.1219Q342.1875 350.59064 342.48438 350.8094Q342.875 351.10626 343.54688 351.10626Q344.28125 351.10626 344.67188 350.8094Q345.07812 350.5125 345.21875 349.9969Q345.3125 349.66876 345.29688 348.6375Q344.60938 349.45 343.57812 349.45Q342.29688 349.45 341.59375 348.52814Q340.89062 347.59064 340.89062 346.3094Q340.89062 345.41876 341.20312 344.66876Q341.53125 343.90314 342.14062 343.4969Q342.75 343.09064 343.57812 343.09064Q344.6875 343.09064 345.40625 343.98126L345.40625 343.23126L346.375 343.23126L346.375 348.60626Q346.375 350.0594 346.07812 350.66876Q345.78125 351.27814 345.14062 351.6219Q344.5 351.98126 343.5625 351.98126Q342.45312 351.98126 341.76562 351.48126Q341.07812 350.98126 341.09375 349.96564ZM341.96875 346.23126Q341.96875 347.45 342.45312 348.0125Q342.9375 348.575 343.67188 348.575Q344.40625 348.575 344.89062 348.0125Q345.39062 347.45 345.39062 346.2625Q345.39062 345.1219 344.875 344.54376Q344.375 343.96564 343.65625 343.96564Q342.95312 343.96564 342.45312 344.54376Q341.96875 345.10626 341.96875 346.23126ZM352.54688 347.45L353.64062 347.575Q353.39062 348.52814 352.6875 349.0594Q351.98438 349.59064 350.90625 349.59064Q349.54688 349.59064 348.73438 348.7469Q347.9375 347.90314 347.9375 346.3875Q347.9375 344.825 348.75 343.96564Q349.5625 343.09064 350.84375 343.09064Q352.09375 343.09064 352.875 343.9344Q353.67188 344.77814 353.67188 346.325Q353.67188 346.41876 353.67188 346.60626L349.03125 346.60626Q349.09375 347.6375 349.60938 348.1844Q350.125 348.71564 350.90625 348.71564Q351.48438 348.71564 351.89062 348.41876Q352.3125 348.10626 352.54688 347.45ZM349.09375 345.7469L352.5625 345.7469Q352.5 344.95 352.17188 344.5594Q351.65625 343.95 350.85938 343.95Q350.125 343.95 349.625 344.4344Q349.14062 344.91876 349.09375 345.7469Z" fill-rule="nonzero"/><path fill="#000000" d="M29.550013 220.39062L21.971888 220.39062L21.971888 223.21875L20.956263 223.21875L20.956263 216.40625L21.971888 216.40625L21.971888 219.25L29.550013 219.25L29.550013 220.39062ZM22.175013 215.70312L20.956263 215.70312L20.956263 214.64062L22.175013 214.64062L22.175013 215.70312ZM29.550013 215.70312L23.331263 215.70312L23.331263 214.64062L29.550013 214.64062L29.550013 215.70312ZM29.550013 212.70312L23.331263 212.70312L23.331263 211.76562L24.206263 211.76562Q23.737513 211.46875 23.471888 210.98438Q23.190638 210.5 23.190638 209.875Q23.190638 209.1875 23.471888 208.75Q23.753138 208.29688 24.268763 208.125Q23.190638 207.375 23.190638 206.20312Q23.190638 205.26562 23.706263 204.78125Q24.206263 204.28125 25.284388 204.28125L29.550013 204.28125L29.550013 205.32812L25.628138 205.32812Q25.003138 205.32812 24.721888 205.4375Q24.440638 205.53125 24.268763 205.79688Q24.096888 206.0625 24.096888 206.4375Q24.096888 207.09375 24.534388 207.53125Q24.971888 207.95312 25.940638 207.95312L29.550013 207.95312L29.550013 209.01562L25.503138 209.01562Q24.800013 209.01562 24.456263 209.28125Q24.096888 209.53125 24.096888 210.10938Q24.096888 210.5625 24.331263 210.9375Q24.565638 211.3125 25.018763 211.48438Q25.471888 211.65625 26.315638 211.65625L29.550013 211.65625L29.550013 212.70312ZM27.550013 198.45312L27.675013 197.35938Q28.628138 197.60938 29.159388 198.3125Q29.690638 199.01562 29.690638 200.09375Q29.690638 201.45312 28.846888 202.26562Q28.003138 203.0625 26.487513 203.0625Q24.925013 203.0625 24.065638 202.25Q23.190638 201.4375 23.190638 200.15625Q23.190638 198.90625 24.034388 198.125Q24.878138 197.32812 26.425013 197.32812Q26.518763 197.32812 26.706263 197.32812L26.706263 201.96875Q27.737513 201.90625 28.284388 201.39062Q28.815638 200.875 28.815638 200.09375Q28.815638 199.51562 28.518763 199.10938Q28.206263 198.6875 27.550013 198.45312ZM25.846888 201.90625L25.846888 198.4375Q25.050013 198.5 24.659388 198.82812Q24.050013 199.34375 24.050013 200.14062Q24.050013 200.875 24.534388 201.375Q25.018763 201.85938 25.846888 201.90625ZM32.08126 190.6875Q30.971888 191.5625 29.503138 192.17188Q28.018763 192.76562 26.440638 192.76562Q25.050013 192.76562 23.768763 192.32812Q22.284388 191.79688 20.815638 190.6875L20.815638 189.9375Q22.034388 190.64062 22.550013 190.875Q23.362513 191.23438 24.237513 191.4375Q25.331263 191.6875 26.440638 191.6875Q29.268763 191.6875 32.08126 189.9375L32.08126 190.6875ZM29.550013 188.70312L23.331263 188.70312L23.331263 187.76562L24.206263 187.76562Q23.737513 187.46875 23.471888 186.98438Q23.190638 186.5 23.190638 185.875Q23.190638 185.1875 23.471888 184.75Q23.753138 184.29688 24.268763 184.125Q23.190638 183.375 23.190638 182.20312Q23.190638 181.26562 23.706263 180.78125Q24.206263 180.28125 25.284388 180.28125L29.550013 180.28125L29.550013 181.32812L25.628138 181.32812Q25.003138 181.32812 24.721888 181.4375Q24.440638 181.53125 24.268763 181.79688Q24.096888 182.0625 24.096888 182.4375Q24.096888 183.09375 24.534388 183.53125Q24.971888 183.95312 25.940638 183.95312L29.550013 183.95312L29.550013 185.01562L25.503138 185.01562Q24.800013 185.01562 24.456263 185.28125Q24.096888 185.53125 24.096888 186.10938Q24.096888 186.5625 24.331263 186.9375Q24.565638 187.3125 25.018763 187.48438Q25.471888 187.65625 26.315638 187.65625L29.550013 187.65625L29.550013 188.70312ZM22.175013 178.70312L20.956263 178.70312L20.956263 177.64062L22.175013 177.64062L22.175013 178.70312ZM29.550013 178.70312L23.331263 178.70312L23.331263 177.64062L29.550013 177.64062L29.550013 178.70312ZM27.268763 171.64062L27.409388 170.60938Q28.471888 170.78125 29.081263 171.48438Q29.690638 172.1875 29.690638 173.20312Q29.690638 174.48438 28.862513 175.26562Q28.018763 176.03125 26.456263 176.03125Q25.456263 176.03125 24.706263 175.70312Q23.940638 175.35938 23.565638 174.6875Q23.190638 174.0 23.190638 173.1875Q23.190638 172.1875 23.706263 171.54688Q24.206263 170.89062 25.159388 170.70312L25.315638 171.73438Q24.690638 171.875 24.378138 172.25Q24.050013 172.625 24.050013 173.15625Q24.050013 173.95312 24.628138 174.45312Q25.190638 174.95312 26.425013 174.95312Q27.690638 174.95312 28.253138 174.46875Q28.815638 173.98438 28.815638 173.21875Q28.815638 172.59375 28.440638 172.1875Q28.065638 171.76562 27.268763 171.64062ZM29.550013 169.71875L23.331263 169.71875L23.331263 168.76562L24.268763 168.76562Q23.612513 168.40625 23.409388 168.10938Q23.190638 167.79688 23.190638 167.42188Q23.190638 166.89062 23.518763 166.34375L24.503138 166.70312Q24.268763 167.09375 24.268763 167.46875Q24.268763 167.82812 24.487513 168.10938Q24.690638 168.375 25.065638 168.48438Q25.628138 168.67188 26.284388 168.67188L29.550013 168.67188L29.550013 169.71875ZM26.440638 166.09375Q24.706263 166.09375 23.878138 165.14062Q23.190638 164.34375 23.190638 163.1875Q23.190638 161.90625 24.034388 161.09375Q24.862513 160.26562 26.346888 160.26562Q27.550013 160.26562 28.237513 160.625Q28.925013 160.98438 29.315638 161.6875Q29.690638 162.375 29.690638 163.1875Q29.690638 164.48438 28.862513 165.29688Q28.018763 166.09375 26.440638 166.09375ZM26.440638 165.01562Q27.628138 165.01562 28.221888 164.5Q28.815638 163.96875 28.815638 163.1875Q28.815638 162.39062 28.221888 161.875Q27.628138 161.35938 26.409388 161.35938Q25.253138 161.35938 24.659388 161.89062Q24.065638 162.40625 24.065638 163.1875Q24.065638 163.96875 24.659388 164.5Q25.237513 165.01562 26.440638 165.01562ZM27.690638 159.125L27.534388 158.09375Q28.159388 158.0 28.487513 157.60938Q28.815638 157.20312 28.815638 156.46875Q28.815638 155.75 28.534388 155.40625Q28.237513 155.04688 27.831263 155.04688Q27.471888 155.04688 27.268763 155.35938Q27.128138 155.57812 26.909388 156.4375Q26.612513 157.59375 26.409388 158.04688Q26.190638 158.48438 25.815638 158.71875Q25.440638 158.95312 24.971888 158.95312Q24.565638 158.95312 24.206263 158.76562Q23.846888 158.57812 23.612513 158.25Q23.440638 158.0 23.315638 157.57812Q23.190638 157.15625 23.190638 156.65625Q23.190638 155.9375 23.409388 155.39062Q23.612513 154.82812 23.971888 154.5625Q24.331263 154.29688 24.925013 154.20312L25.065638 155.23438Q24.596888 155.29688 24.331263 155.64062Q24.050013 155.96875 24.050013 156.59375Q24.050013 157.3125 24.300013 157.625Q24.534388 157.9375 24.862513 157.9375Q25.065638 157.9375 25.221888 157.8125Q25.393763 157.67188 25.503138 157.40625Q25.565638 157.25 25.768763 156.46875Q26.081263 155.34375 26.268763 154.90625Q26.456263 154.46875 26.815638 154.21875Q27.175013 153.96875 27.721888 153.96875Q28.253138 153.96875 28.721888 154.28125Q29.175013 154.57812 29.440638 155.15625Q29.690638 155.73438 29.690638 156.46875Q29.690638 157.6875 29.190638 158.32812Q28.675013 158.95312 27.690638 159.125ZM27.550013 148.45312L27.675013 147.35938Q28.628138 147.60938 29.159388 148.3125Q29.690638 149.01562 29.690638 150.09375Q29.690638 151.45312 28.846888 152.26562Q28.003138 153.0625 26.487513 153.0625Q24.925013 153.0625 24.065638 152.25Q23.190638 151.4375 23.190638 150.15625Q23.190638 148.90625 24.034388 148.125Q24.878138 147.32812 26.425013 147.32812Q26.518763 147.32812 26.706263 147.32812L26.706263 151.96875Q27.737513 151.90625 28.284388 151.39062Q28.815638 150.875 28.815638 150.09375Q28.815638 149.51562 28.518763 149.10938Q28.206263 148.6875 27.550013 148.45312ZM25.846888 151.90625L25.846888 148.4375Q25.050013 148.5 24.659388 148.82812Q24.050013 149.34375 24.050013 150.14062Q24.050013 150.875 24.534388 151.375Q25.018763 151.85938 25.846888 151.90625ZM27.268763 141.64062L27.409388 140.60938Q28.471888 140.78125 29.081263 141.48438Q29.690638 142.1875 29.690638 143.20312Q29.690638 144.48438 28.862513 145.26562Q28.018763 146.03125 26.456263 146.03125Q25.456263 146.03125 24.706263 145.70312Q23.940638 145.35938 23.565638 144.6875Q23.190638 144.0 23.190638 143.1875Q23.190638 142.1875 23.706263 141.54688Q24.206263 140.89062 25.159388 140.70312L25.315638 141.73438Q24.690638 141.875 24.378138 142.25Q24.050013 142.625 24.050013 143.15625Q24.050013 143.95312 24.628138 144.45312Q25.190638 144.95312 26.425013 144.95312Q27.690638 144.95312 28.253138 144.46875Q28.815638 143.98438 28.815638 143.21875Q28.815638 142.59375 28.440638 142.1875Q28.065638 141.76562 27.268763 141.64062ZM26.440638 140.09375Q24.706263 140.09375 23.878138 139.14062Q23.190638 138.34375 23.190638 137.1875Q23.190638 135.90625 24.034388 135.09375Q24.862513 134.26562 26.346888 134.26562Q27.550013 134.26562 28.237513 134.625Q28.925013 134.98438 29.315638 135.6875Q29.690638 136.375 29.690638 137.1875Q29.690638 138.48438 28.862513 139.29688Q28.018763 140.09375 26.440638 140.09375ZM26.440638 139.01562Q27.628138 139.01562 28.221888 138.5Q28.815638 137.96875 28.815638 137.1875Q28.815638 136.39062 28.221888 135.875Q27.628138 135.35938 26.409388 135.35938Q25.253138 135.35938 24.659388 135.89062Q24.065638 136.40625 24.065638 137.1875Q24.065638 137.96875 24.659388 138.5Q25.237513 139.01562 26.440638 139.01562ZM29.550013 132.70312L23.331263 132.70312L23.331263 131.76562L24.206263 131.76562Q23.190638 131.07812 23.190638 129.78125Q23.190638 129.21875 23.393763 128.75Q23.596888 128.26562 23.925013 128.03125Q24.253138 127.796875 24.690638 127.703125Q24.987513 127.65625 25.721888 127.65625L29.550013 127.65625L29.550013 128.70312L25.768763 128.70312Q25.112513 128.70312 24.800013 128.82812Q24.487513 128.95312 24.300013 129.26562Q24.096888 129.57812 24.096888 130.0Q24.096888 130.67188 24.534388 131.17188Q24.956263 131.65625 26.143763 131.65625L29.550013 131.65625L29.550013 132.70312ZM29.550013 121.671875L28.768763 121.671875Q29.690638 122.265625 29.690638 123.40625Q29.690638 124.15625 29.284388 124.78125Q28.862513 125.40625 28.128138 125.75Q27.393763 126.09375 26.440638 126.09375Q25.518763 126.09375 24.753138 125.78125Q23.987513 125.46875 23.596888 124.84375Q23.190638 124.21875 23.190638 123.453125Q23.190638 122.890625 23.425013 122.453125Q23.659388 122.015625 24.034388 121.734375L20.956263 121.734375L20.956263 120.6875L29.550013 120.6875L29.550013 121.671875ZM26.440638 125.0Q27.643763 125.0 28.237513 124.5Q28.815638 124.0 28.815638 123.3125Q28.815638 122.625 28.253138 122.140625Q27.690638 121.65625 26.534388 121.65625Q25.253138 121.65625 24.659388 122.15625Q24.065638 122.640625 24.065638 123.359375Q24.065638 124.0625 24.643763 124.53125Q25.206263 125.0 26.440638 125.0ZM32.08126 118.015625L32.08126 118.765625Q29.268763 117.015625 26.440638 117.015625Q25.346888 117.015625 24.253138 117.265625Q23.378138 117.46875 22.565638 117.828125Q22.050013 118.0625 20.815638 118.765625L20.815638 118.015625Q22.284388 116.921875 23.768763 116.390625Q25.050013 115.9375 26.440638 115.9375Q28.018763 115.9375 29.503138 116.546875Q30.971888 117.15625 32.08126 118.015625Z" fill-rule="nonzero"/><path fill="#000000" d="M86.05 300.21564Q86.05 298.6844 86.3625 297.7625Q86.675 296.825 87.28438 296.325Q87.90938 295.825 88.84688 295.825Q89.53438 295.825 90.05 296.10626Q90.58125 296.3875 90.925 296.91876Q91.26875 297.4344 91.45625 298.1844Q91.64375 298.9344 91.64375 300.21564Q91.64375 301.73126 91.33125 302.65314Q91.03438 303.575 90.40938 304.09064Q89.8 304.59064 88.84688 304.59064Q87.6125 304.59064 86.89375 303.7Q86.05 302.6375 86.05 300.21564ZM87.12813 300.21564Q87.12813 302.325 87.62813 303.02814Q88.12813 303.73126 88.84688 303.73126Q89.58125 303.73126 90.06563 303.02814Q90.56563 302.325 90.56563 300.21564Q90.56563 298.09064 90.06563 297.40314Q89.58125 296.7 88.83125 296.7Q88.1125 296.7 87.675 297.3094Q87.12813 298.09064 87.12813 300.21564Z" fill-rule="nonzero"/><path fill="#000000" d="M58.05 262.92856L59.159374 262.8348Q59.284374 263.6473 59.721874 264.05356Q60.175 264.4598 60.815624 264.4598Q61.565624 264.4598 62.096874 263.88168Q62.628124 263.30356 62.628124 262.36606Q62.628124 261.4598 62.1125 260.94418Q61.6125 260.41293 60.784374 260.41293Q60.284374 260.41293 59.8625 260.6473Q59.45625 260.88168 59.221874 261.24106L58.2375 261.11606L59.065624 256.7098L63.346874 256.7098L63.346874 257.7098L59.909374 257.7098L59.45625 260.0223Q60.221874 259.47543 61.065624 259.47543Q62.190624 259.47543 62.95625 260.25668Q63.7375 261.03793 63.7375 262.2723Q63.7375 263.42856 63.065624 264.28793Q62.2375 265.31918 60.815624 265.31918Q59.64375 265.31918 58.89375 264.66293Q58.159374 264.00668 58.05 262.92856ZM65.05 260.94418Q65.05 259.41293 65.3625 258.49106Q65.675 257.55356 66.28438 257.05356Q66.90938 256.55356 67.84688 256.55356Q68.53438 256.55356 69.05 256.8348Q69.58125 257.11606 69.925 257.6473Q70.26875 258.16293 70.45625 258.91293Q70.64375 259.66293 70.64375 260.94418Q70.64375 262.4598 70.33125 263.38168Q70.03438 264.30356 69.40938 264.81918Q68.8 265.31918 67.84688 265.31918Q66.6125 265.31918 65.89375 264.42856Q65.05 263.36606 65.05 260.94418ZM66.12813 260.94418Q66.12813 263.05356 66.62813 263.75668Q67.12813 264.4598 67.84688 264.4598Q68.58125 264.4598 69.06563 263.75668Q69.56563 263.05356 69.56563 260.94418Q69.56563 258.81918 69.06563 258.13168Q68.58125 257.42856 67.83125 257.42856Q67.1125 257.42856 66.675 258.03793Q66.12813 258.81918 66.12813 260.94418ZM72.05 260.94418Q72.05 259.41293 72.3625 258.49106Q72.675 257.55356 73.28438 257.05356Q73.90938 256.55356 74.84688 256.55356Q75.53438 256.55356 76.05 256.8348Q76.58125 257.11606 76.925 257.6473Q77.26875 258.16293 77.45625 258.91293Q77.64375 259.66293 77.64375 260.94418Q77.64375 262.4598 77.33125 263.38168Q77.03438 264.30356 76.40938 264.81918Q75.8 265.31918 74.84688 265.31918Q73.6125 265.31918 72.89375 264.42856Q72.05 263.36606 72.05 260.94418ZM73.12813 260.94418Q73.12813 263.05356 73.62813 263.75668Q74.12813 264.4598 74.84688 264.4598Q75.58125 264.4598 76.06563 263.75668Q76.56563 263.05356 76.56563 260.94418Q76.56563 258.81918 76.06563 258.13168Q75.58125 257.42856 74.83125 257.42856Q74.1125 257.42856 73.675 258.03793Q73.12813 258.81918 73.12813 260.94418ZM79.05 260.94418Q79.05 259.41293 79.3625 258.49106Q79.675 257.55356 80.28438 257.05356Q80.90938 256.55356 81.84688 256.55356Q82.53438 256.55356 83.05 256.8348Q83.58125 257.11606 83.925 257.6473Q84.26875 258.16293 84.45625 258.91293Q84.64375 259.66293 84.64375 260.94418Q84.64375 262.4598 84.33125 263.38168Q84.03438 264.30356 83.40938 264.81918Q82.8 265.31918 81.84688 265.31918Q80.6125 265.31918 79.89375 264.42856Q79.05 263.36606 79.05 260.94418ZM80.12813 260.94418Q80.12813 263.05356 80.62813 263.75668Q81.12813 264.4598 81.84688 264.4598Q82.58125 264.4598 83.06563 263.75668Q83.56563 263.05356 83.56563 260.94418Q83.56563 258.81918 83.06563 258.13168Q82.58125 257.42856 81.83125 257.42856Q81.1125 257.42856 80.675 258.03793Q80.12813 258.81918 80.12813 260.94418ZM86.05 260.94418Q86.05 259.41293 86.3625 258.49106Q86.675 257.55356 87.28438 257.05356Q87.90938 256.55356 88.84688 256.55356Q89.53438 256.55356 90.05 256.8348Q90.58125 257.11606 90.925 257.6473Q91.26875 258.16293 91.45625 258.91293Q91.64375 259.66293 91.64375 260.94418Q91.64375 262.4598 91.33125 263.38168Q91.03438 264.30356 90.40938 264.81918Q89.8 265.31918 88.84688 265.31918Q87.6125 265.31918 86.89375 264.42856Q86.05 263.36606 86.05 260.94418ZM87.12813 260.94418Q87.12813 263.05356 87.62813 263.75668Q88.12813 264.4598 88.84688 264.4598Q89.58125 264.4598 90.06563 263.75668Q90.56563 263.05356 90.56563 260.94418Q90.56563 258.81918 90.06563 258.13168Q89.58125 257.42856 88.83125 257.42856Q88.1125 257.42856 87.675 258.03793Q87.12813 258.81918 87.12813 260.94418Z" fill-rule="nonzero"/><path fill="#000000" d="M55.01875 225.90715L53.971874 225.90715L53.971874 219.1884Q53.58125 219.54778 52.95625 219.92278Q52.346874 220.28215 51.8625 220.45403L51.8625 219.4384Q52.7375 219.01653 53.39375 218.4384Q54.065624 217.84465 54.346874 217.28215L55.01875 217.28215L55.01875 225.90715ZM58.05 221.67278Q58.05 220.14153 58.3625 219.21965Q58.675 218.28215 59.284374 217.78215Q59.909374 217.28215 60.846874 217.28215Q61.534374 217.28215 62.05 217.5634Q62.58125 217.84465 62.925 218.3759Q63.26875 218.89153 63.45625 219.64153Q63.64375 220.39153 63.64375 221.67278Q63.64375 223.1884 63.33125 224.11028Q63.034374 225.03215 62.409374 225.54778Q61.8 226.04778 60.846874 226.04778Q59.6125 226.04778 58.89375 225.15715Q58.05 224.09465 58.05 221.67278ZM59.128124 221.67278Q59.128124 223.78215 59.628124 224.48528Q60.128124 225.1884 60.846874 225.1884Q61.58125 225.1884 62.065624 224.48528Q62.565624 223.78215 62.565624 221.67278Q62.565624 219.54778 62.065624 218.86028Q61.58125 218.15715 60.83125 218.15715Q60.1125 218.15715 59.675 218.76653Q59.128124 219.54778 59.128124 221.67278ZM65.05 221.67278Q65.05 220.14153 65.3625 219.21965Q65.675 218.28215 66.28438 217.78215Q66.90938 217.28215 67.84688 217.28215Q68.53438 217.28215 69.05 217.5634Q69.58125 217.84465 69.925 218.3759Q70.26875 218.89153 70.45625 219.64153Q70.64375 220.39153 70.64375 221.67278Q70.64375 223.1884 70.33125 224.11028Q70.03438 225.03215 69.40938 225.54778Q68.8 226.04778 67.84688 226.04778Q66.6125 226.04778 65.89375 225.15715Q65.05 224.09465 65.05 221.67278ZM66.12813 221.67278Q66.12813 223.78215 66.62813 224.48528Q67.12813 225.1884 67.84688 225.1884Q68.58125 225.1884 69.06563 224.48528Q69.56563 223.78215 69.56563 221.67278Q69.56563 219.54778 69.06563 218.86028Q68.58125 218.15715 67.83125 218.15715Q67.1125 218.15715 66.675 218.76653Q66.12813 219.54778 66.12813 221.67278ZM72.05 221.67278Q72.05 220.14153 72.3625 219.21965Q72.675 218.28215 73.28438 217.78215Q73.90938 217.28215 74.84688 217.28215Q75.53438 217.28215 76.05 217.5634Q76.58125 217.84465 76.925 218.3759Q77.26875 218.89153 77.45625 219.64153Q77.64375 220.39153 77.64375 221.67278Q77.64375 223.1884 77.33125 224.11028Q77.03438 225.03215 76.40938 225.54778Q75.8 226.04778 74.84688 226.04778Q73.6125 226.04778 72.89375 225.15715Q72.05 224.09465 72.05 221.67278ZM73.12813 221.67278Q73.12813 223.78215 73.62813 224.48528Q74.12813 225.1884 74.84688 225.1884Q75.58125 225.1884 76.06563 224.48528Q76.56563 223.78215 76.56563 221.67278Q76.56563 219.54778 76.06563 218.86028Q75.58125 218.15715 74.83125 218.15715Q74.1125 218.15715 73.675 218.76653Q73.12813 219.54778 73.12813 221.67278ZM79.05 221.67278Q79.05 220.14153 79.3625 219.21965Q79.675 218.28215 80.28438 217.78215Q80.90938 217.28215 81.84688 217.28215Q82.53438 217.28215 83.05 217.5634Q83.58125 217.84465 83.925 218.3759Q84.26875 218.89153 84.45625 219.64153Q84.64375 220.39153 84.64375 221.67278Q84.64375 223.1884 84.33125 224.11028Q84.03438 225.03215 83.40938 225.54778Q82.8 226.04778 81.84688 226.04778Q80.6125 226.04778 79.89375 225.15715Q79.05 224.09465 79.05 221.67278ZM80.12813 221.67278Q80.12813 223.78215 80.62813 224.48528Q81.12813 225.1884 81.84688 225.1884Q82.58125 225.1884 83.06563 224.48528Q83.56563 223.78215 83.56563 221.67278Q83.56563 219.54778 83.06563 218.86028Q82.58125 218.15715 81.83125 218.15715Q81.1125 218.15715 80.675 218.76653Q80.12813 219.54778 80.12813 221.67278ZM86.05 221.67278Q86.05 220.14153 86.3625 219.21965Q86.675 218.28215 87.28438 217.78215Q87.90938 217.28215 88.84688 217.28215Q89.53438 217.28215 90.05 217.5634Q90.58125 217.84465 90.925 218.3759Q91.26875 218.89153 91.45625 219.64153Q91.64375 220.39153 91.64375 221.67278Q91.64375 223.1884 91.33125 224.11028Q91.03438 225.03215 90.40938 225.54778Q89.8 226.04778 88.84688 226.04778Q87.6125 226.04778 86.89375 225.15715Q86.05 224.09465 86.05 221.67278ZM87.12813 221.67278Q87.12813 223.78215 87.62813 224.48528Q88.12813 225.1884 88.84688 225.1884Q89.58125 225.1884 90.06563 224.48528Q90.56563 223.78215 90.56563 221.67278Q90.56563 219.54778 90.06563 218.86028Q89.58125 218.15715 88.83125 218.15715Q88.1125 218.15715 87.675 218.76653Q87.12813 219.54778 87.12813 221.67278Z" fill-rule="nonzero"/><path fill="#000000" d="M55.01875 186.63571L53.971874 186.63571L53.971874 179.91696Q53.58125 180.27634 52.95625 180.65134Q52.346874 181.01071 51.8625 181.18259L51.8625 180.16696Q52.7375 179.74509 53.39375 179.16696Q54.065624 178.57321 54.346874 178.01071L55.01875 178.01071L55.01875 186.63571ZM58.05 184.38571L59.159374 184.29196Q59.284374 185.10446 59.721874 185.51071Q60.175 185.91696 60.815624 185.91696Q61.565624 185.91696 62.096874 185.33884Q62.628124 184.76071 62.628124 183.82321Q62.628124 182.91696 62.1125 182.40134Q61.6125 181.87009 60.784374 181.87009Q60.284374 181.87009 59.8625 182.10446Q59.45625 182.33884 59.221874 182.69821L58.2375 182.57321L59.065624 178.16696L63.346874 178.16696L63.346874 179.16696L59.909374 179.16696L59.45625 181.47946Q60.221874 180.93259 61.065624 180.93259Q62.190624 180.93259 62.95625 181.71384Q63.7375 182.49509 63.7375 183.72946Q63.7375 184.88571 63.065624 185.74509Q62.2375 186.77634 60.815624 186.77634Q59.64375 186.77634 58.89375 186.12009Q58.159374 185.46384 58.05 184.38571ZM65.05 182.40134Q65.05 180.87009 65.3625 179.94821Q65.675 179.01071 66.28438 178.51071Q66.90938 178.01071 67.84688 178.01071Q68.53438 178.01071 69.05 178.29196Q69.58125 178.57321 69.925 179.10446Q70.26875 179.62009 70.45625 180.37009Q70.64375 181.12009 70.64375 182.40134Q70.64375 183.91696 70.33125 184.83884Q70.03438 185.76071 69.40938 186.27634Q68.8 186.77634 67.84688 186.77634Q66.6125 186.77634 65.89375 185.88571Q65.05 184.82321 65.05 182.40134ZM66.12813 182.40134Q66.12813 184.51071 66.62813 185.21384Q67.12813 185.91696 67.84688 185.91696Q68.58125 185.91696 69.06563 185.21384Q69.56563 184.51071 69.56563 182.40134Q69.56563 180.27634 69.06563 179.58884Q68.58125 178.88571 67.83125 178.88571Q67.1125 178.88571 66.675 179.49509Q66.12813 180.27634 66.12813 182.40134ZM72.05 182.40134Q72.05 180.87009 72.3625 179.94821Q72.675 179.01071 73.28438 178.51071Q73.90938 178.01071 74.84688 178.01071Q75.53438 178.01071 76.05 178.29196Q76.58125 178.57321 76.925 179.10446Q77.26875 179.62009 77.45625 180.37009Q77.64375 181.12009 77.64375 182.40134Q77.64375 183.91696 77.33125 184.83884Q77.03438 185.76071 76.40938 186.27634Q75.8 186.77634 74.84688 186.77634Q73.6125 186.77634 72.89375 185.88571Q72.05 184.82321 72.05 182.40134ZM73.12813 182.40134Q73.12813 184.51071 73.62813 185.21384Q74.12813 185.91696 74.84688 185.91696Q75.58125 185.91696 76.06563 185.21384Q76.56563 184.51071 76.56563 182.40134Q76.56563 180.27634 76.06563 179.58884Q75.58125 178.88571 74.83125 178.88571Q74.1125 178.88571 73.675 179.49509Q73.12813 180.27634 73.12813 182.40134ZM79.05 182.40134Q79.05 180.87009 79.3625 179.94821Q79.675 179.01071 80.28438 178.51071Q80.90938 178.01071 81.84688 178.01071Q82.53438 178.01071 83.05 178.29196Q83.58125 178.57321 83.925 179.10446Q84.26875 179.62009 84.45625 180.37009Q84.64375 181.12009 84.64375 182.40134Q84.64375 183.91696 84.33125 184.83884Q84.03438 185.76071 83.40938 186.27634Q82.8 186.77634 81.84688 186.77634Q80.6125 186.77634 79.89375 185.88571Q79.05 184.82321 79.05 182.40134ZM80.12813 182.40134Q80.12813 184.51071 80.62813 185.21384Q81.12813 185.91696 81.84688 185.91696Q82.58125 185.91696 83.06563 185.21384Q83.56563 184.51071 83.56563 182.40134Q83.56563 180.27634 83.06563 179.58884Q82.58125 178.88571 81.83125 178.88571Q81.1125 178.88571 80.675 179.49509Q80.12813 180.27634 80.12813 182.40134ZM86.05 182.40134Q86.05 180.87009 86.3625 179.94821Q86.675 179.01071 87.28438 178.51071Q87.90938 178.01071 88.84688 178.01071Q89.53438 178.01071 90.05 178.29196Q90.58125 178.57321 90.925 179.10446Q91.26875 179.62009 91.45625 180.37009Q91.64375 181.12009 91.64375 182.40134Q91.64375 183.91696 91.33125 184.83884Q91.03438 185.76071 90.40938 186.27634Q89.8 186.77634 88.84688 186.77634Q87.6125 186.77634 86.89375 185.88571Q86.05 184.82321 86.05 182.40134ZM87.12813 182.40134Q87.12813 184.51071 87.62813 185.21384Q88.12813 185.91696 88.84688 185.91696Q89.58125 185.91696 90.06563 185.21384Q90.56563 184.51071 90.56563 182.40134Q90.56563 180.27634 90.06563 179.58884Q89.58125 178.88571 88.83125 178.88571Q88.1125 178.88571 87.675 179.49509Q87.12813 180.27634 87.12813 182.40134Z" fill-rule="nonzero"/><path fill="#000000" d="M56.596874 146.34866L56.596874 147.36429L50.909374 147.36429Q50.909374 146.98929 51.034374 146.62991Q51.253124 146.05179 51.721874 145.48929Q52.20625 144.92679 53.1125 144.19241Q54.51875 143.03616 55.003124 142.36429Q55.503124 141.69241 55.503124 141.09866Q55.503124 140.47366 55.05 140.05179Q54.596874 139.61429 53.878124 139.61429Q53.1125 139.61429 52.659374 140.06741Q52.20625 140.52054 52.190624 141.33304L51.1125 141.22366Q51.221874 140.00491 51.940624 139.37991Q52.675 138.73929 53.909374 138.73929Q55.14375 138.73929 55.8625 139.42679Q56.58125 140.11429 56.58125 141.12991Q56.58125 141.64554 56.3625 142.14554Q56.159374 142.62991 55.659374 143.19241Q55.175 143.73929 54.05 144.69241Q53.096874 145.48929 52.815624 145.78616Q52.55 146.06741 52.378124 146.34866L56.596874 146.34866ZM58.05 143.12991Q58.05 141.59866 58.3625 140.67679Q58.675 139.73929 59.284374 139.23929Q59.909374 138.73929 60.846874 138.73929Q61.534374 138.73929 62.05 139.02054Q62.58125 139.30179 62.925 139.83304Q63.26875 140.34866 63.45625 141.09866Q63.64375 141.84866 63.64375 143.12991Q63.64375 144.64554 63.33125 145.56741Q63.034374 146.48929 62.409374 147.00491Q61.8 147.50491 60.846874 147.50491Q59.6125 147.50491 58.89375 146.61429Q58.05 145.55179 58.05 143.12991ZM59.128124 143.12991Q59.128124 145.23929 59.628124 145.94241Q60.128124 146.64554 60.846874 146.64554Q61.58125 146.64554 62.065624 145.94241Q62.565624 145.23929 62.565624 143.12991Q62.565624 141.00491 62.065624 140.31741Q61.58125 139.61429 60.83125 139.61429Q60.1125 139.61429 59.675 140.22366Q59.128124 141.00491 59.128124 143.12991ZM65.05 143.12991Q65.05 141.59866 65.3625 140.67679Q65.675 139.73929 66.28438 139.23929Q66.90938 138.73929 67.84688 138.73929Q68.53438 138.73929 69.05 139.02054Q69.58125 139.30179 69.925 139.83304Q70.26875 140.34866 70.45625 141.09866Q70.64375 141.84866 70.64375 143.12991Q70.64375 144.64554 70.33125 145.56741Q70.03438 146.48929 69.40938 147.00491Q68.8 147.50491 67.84688 147.50491Q66.6125 147.50491 65.89375 146.61429Q65.05 145.55179 65.05 143.12991ZM66.12813 143.12991Q66.12813 145.23929 66.62813 145.94241Q67.12813 146.64554 67.84688 146.64554Q68.58125 146.64554 69.06563 145.94241Q69.56563 145.23929 69.56563 143.12991Q69.56563 141.00491 69.06563 140.31741Q68.58125 139.61429 67.83125 139.61429Q67.1125 139.61429 66.675 140.22366Q66.12813 141.00491 66.12813 143.12991ZM72.05 143.12991Q72.05 141.59866 72.3625 140.67679Q72.675 139.73929 73.28438 139.23929Q73.90938 138.73929 74.84688 138.73929Q75.53438 138.73929 76.05 139.02054Q76.58125 139.30179 76.925 139.83304Q77.26875 140.34866 77.45625 141.09866Q77.64375 141.84866 77.64375 143.12991Q77.64375 144.64554 77.33125 145.56741Q77.03438 146.48929 76.40938 147.00491Q75.8 147.50491 74.84688 147.50491Q73.6125 147.50491 72.89375 146.61429Q72.05 145.55179 72.05 143.12991ZM73.12813 143.12991Q73.12813 145.23929 73.62813 145.94241Q74.12813 146.64554 74.84688 146.64554Q75.58125 146.64554 76.06563 145.94241Q76.56563 145.23929 76.56563 143.12991Q76.56563 141.00491 76.06563 140.31741Q75.58125 139.61429 74.83125 139.61429Q74.1125 139.61429 73.675 140.22366Q73.12813 141.00491 73.12813 143.12991ZM79.05 143.12991Q79.05 141.59866 79.3625 140.67679Q79.675 139.73929 80.28438 139.23929Q80.90938 138.73929 81.84688 138.73929Q82.53438 138.73929 83.05 139.02054Q83.58125 139.30179 83.925 139.83304Q84.26875 140.34866 84.45625 141.09866Q84.64375 141.84866 84.64375 143.12991Q84.64375 144.64554 84.33125 145.56741Q84.03438 146.48929 83.40938 147.00491Q82.8 147.50491 81.84688 147.50491Q80.6125 147.50491 79.89375 146.61429Q79.05 145.55179 79.05 143.12991ZM80.12813 143.12991Q80.12813 145.23929 80.62813 145.94241Q81.12813 146.64554 81.84688 146.64554Q82.58125 146.64554 83.06563 145.94241Q83.56563 145.23929 83.56563 143.12991Q83.56563 141.00491 83.06563 140.31741Q82.58125 139.61429 81.83125 139.61429Q81.1125 139.61429 80.675 140.22366Q80.12813 141.00491 80.12813 143.12991ZM86.05 143.12991Q86.05 141.59866 86.3625 140.67679Q86.675 139.73929 87.28438 139.23929Q87.90938 138.73929 88.84688 138.73929Q89.53438 138.73929 90.05 139.02054Q90.58125 139.30179 90.925 139.83304Q91.26875 140.34866 91.45625 141.09866Q91.64375 141.84866 91.64375 143.12991Q91.64375 144.64554 91.33125 145.56741Q91.03438 146.48929 90.40938 147.00491Q89.8 147.50491 88.84688 147.50491Q87.6125 147.50491 86.89375 146.61429Q86.05 145.55179 86.05 143.12991ZM87.12813 143.12991Q87.12813 145.23929 87.62813 145.94241Q88.12813 146.64554 88.84688 146.64554Q89.58125 146.64554 90.06563 145.94241Q90.56563 145.23929 90.56563 143.12991Q90.56563 141.00491 90.06563 140.31741Q89.58125 139.61429 88.83125 139.61429Q88.1125 139.61429 87.675 140.22366Q87.12813 141.00491 87.12813 143.12991Z" fill-rule="nonzero"/><path fill="#000000" d="M56.596874 107.07723L56.596874 108.09286L50.909374 108.09286Q50.909374 107.71786 51.034374 107.35848Q51.253124 106.78036 51.721874 106.21786Q52.20625 105.65536 53.1125 104.92098Q54.51875 103.76473 55.003124 103.09286Q55.503124 102.42098 55.503124 101.82723Q55.503124 101.20223 55.05 100.78036Q54.596874 100.34286 53.878124 100.34286Q53.1125 100.34286 52.659374 100.79598Q52.20625 101.24911 52.190624 102.06161L51.1125 101.95223Q51.221874 100.73348 51.940624 100.10848Q52.675 99.46786 53.909374 99.46786Q55.14375 99.46786 55.8625 100.15536Q56.58125 100.84286 56.58125 101.85848Q56.58125 102.37411 56.3625 102.87411Q56.159374 103.35848 55.659374 103.92098Q55.175 104.46786 54.05 105.42098Q53.096874 106.21786 52.815624 106.51473Q52.55 106.79598 52.378124 107.07723L56.596874 107.07723ZM58.05 105.84286L59.159374 105.74911Q59.284374 106.56161 59.721874 106.96786Q60.175 107.37411 60.815624 107.37411Q61.565624 107.37411 62.096874 106.79598Q62.628124 106.21786 62.628124 105.28036Q62.628124 104.37411 62.1125 103.85848Q61.6125 103.32723 60.784374 103.32723Q60.284374 103.32723 59.8625 103.56161Q59.45625 103.79598 59.221874 104.15536L58.2375 104.03036L59.065624 99.62411L63.346874 99.62411L63.346874 100.62411L59.909374 100.62411L59.45625 102.93661Q60.221874 102.38973 61.065624 102.38973Q62.190624 102.38973 62.95625 103.17098Q63.7375 103.95223 63.7375 105.18661Q63.7375 106.34286 63.065624 107.20223Q62.2375 108.23348 60.815624 108.23348Q59.64375 108.23348 58.89375 107.57723Q58.159374 106.92098 58.05 105.84286ZM65.05 103.85848Q65.05 102.32723 65.3625 101.40536Q65.675 100.46786 66.28438 99.96786Q66.90938 99.46786 67.84688 99.46786Q68.53438 99.46786 69.05 99.74911Q69.58125 100.03036 69.925 100.56161Q70.26875 101.07723 70.45625 101.82723Q70.64375 102.57723 70.64375 103.85848Q70.64375 105.37411 70.33125 106.29598Q70.03438 107.21786 69.40938 107.73348Q68.8 108.23348 67.84688 108.23348Q66.6125 108.23348 65.89375 107.34286Q65.05 106.28036 65.05 103.85848ZM66.12813 103.85848Q66.12813 105.96786 66.62813 106.67098Q67.12813 107.37411 67.84688 107.37411Q68.58125 107.37411 69.06563 106.67098Q69.56563 105.96786 69.56563 103.85848Q69.56563 101.73348 69.06563 101.04598Q68.58125 100.34286 67.83125 100.34286Q67.1125 100.34286 66.675 100.95223Q66.12813 101.73348 66.12813 103.85848ZM72.05 103.85848Q72.05 102.32723 72.3625 101.40536Q72.675 100.46786 73.28438 99.96786Q73.90938 99.46786 74.84688 99.46786Q75.53438 99.46786 76.05 99.74911Q76.58125 100.03036 76.925 100.56161Q77.26875 101.07723 77.45625 101.82723Q77.64375 102.57723 77.64375 103.85848Q77.64375 105.37411 77.33125 106.29598Q77.03438 107.21786 76.40938 107.73348Q75.8 108.23348 74.84688 108.23348Q73.6125 108.23348 72.89375 107.34286Q72.05 106.28036 72.05 103.85848ZM73.12813 103.85848Q73.12813 105.96786 73.62813 106.67098Q74.12813 107.37411 74.84688 107.37411Q75.58125 107.37411 76.06563 106.67098Q76.56563 105.96786 76.56563 103.85848Q76.56563 101.73348 76.06563 101.04598Q75.58125 100.34286 74.83125 100.34286Q74.1125 100.34286 73.675 100.95223Q73.12813 101.73348 73.12813 103.85848ZM79.05 103.85848Q79.05 102.32723 79.3625 101.40536Q79.675 100.46786 80.28438 99.96786Q80.90938 99.46786 81.84688 99.46786Q82.53438 99.46786 83.05 99.74911Q83.58125 100.03036 83.925 100.56161Q84.26875 101.07723 84.45625 101.82723Q84.64375 102.57723 84.64375 103.85848Q84.64375 105.37411 84.33125 106.29598Q84.03438 107.21786 83.40938 107.73348Q82.8 108.23348 81.84688 108.23348Q80.6125 108.23348 79.89375 107.34286Q79.05 106.28036 79.05 103.85848ZM80.12813 103.85848Q80.12813 105.96786 80.62813 106.67098Q81.12813 107.37411 81.84688 107.37411Q82.58125 107.37411 83.06563 106.67098Q83.56563 105.96786 83.56563 103.85848Q83.56563 101.73348 83.06563 101.04598Q82.58125 100.34286 81.83125 100.34286Q81.1125 100.34286 80.675 100.95223Q80.12813 101.73348 80.12813 103.85848ZM86.05 103.85848Q86.05 102.32723 86.3625 101.40536Q86.675 100.46786 87.28438 99.96786Q87.90938 99.46786 88.84688 99.46786Q89.53438 99.46786 90.05 99.74911Q90.58125 100.03036 90.925 100.56161Q91.26875 101.07723 91.45625 101.82723Q91.64375 102.57723 91.64375 103.85848Q91.64375 105.37411 91.33125 106.29598Q91.03438 107.21786 90.40938 107.73348Q89.8 108.23348 88.84688 108.23348Q87.6125 108.23348 86.89375 107.34286Q86.05 106.28036 86.05 103.85848ZM87.12813 103.85848Q87.12813 105.96786 87.62813 106.67098Q88.12813 107.37411 88.84688 107.37411Q89.58125 107.37411 90.06563 106.67098Q90.56563 105.96786 90.56563 103.85848Q90.56563 101.73348 90.06563 101.04598Q89.58125 100.34286 88.83125 100.34286Q88.1125 100.34286 87.675 100.95223Q87.12813 101.73348 87.12813 103.85848Z" fill-rule="nonzero"/><path fill="#000000" d="M51.05 66.5558L52.1125 66.41518Q52.284374 67.3058 52.721874 67.71205Q53.159374 68.10268 53.784374 68.10268Q54.534374 68.10268 55.05 67.58705Q55.565624 67.07143 55.565624 66.3058Q55.565624 65.58705 55.08125 65.1183Q54.6125 64.63393 53.878124 64.63393Q53.58125 64.63393 53.128124 64.75893L53.253124 63.821426Q53.3625 63.83705 53.425 63.83705Q54.096874 63.83705 54.628124 63.4933Q55.175 63.133926 55.175 62.39955Q55.175 61.821426 54.784374 61.446426Q54.39375 61.0558 53.76875 61.0558Q53.159374 61.0558 52.7375 61.446426Q52.33125 61.83705 52.221874 62.602676L51.159374 62.415176Q51.346874 61.3683 52.034374 60.790176Q52.721874 60.196426 53.7375 60.196426Q54.440624 60.196426 55.034374 60.508926Q55.628124 60.8058 55.940624 61.321426Q56.253124 61.83705 56.253124 62.4308Q56.253124 62.977676 55.95625 63.446426Q55.659374 63.89955 55.08125 64.16518Q55.83125 64.33705 56.253124 64.89955Q56.675 65.44643 56.675 66.29018Q56.675 67.41518 55.846874 68.19643Q55.034374 68.97768 53.784374 68.97768Q52.659374 68.97768 51.909374 68.3058Q51.159374 67.6183 51.05 66.5558ZM58.05 64.58705Q58.05 63.0558 58.3625 62.133926Q58.675 61.196426 59.284374 60.696426Q59.909374 60.196426 60.846874 60.196426Q61.534374 60.196426 62.05 60.477676Q62.58125 60.758926 62.925 61.290176Q63.26875 61.8058 63.45625 62.5558Q63.64375 63.3058 63.64375 64.58705Q63.64375 66.10268 63.33125 67.02455Q63.034374 67.94643 62.409374 68.46205Q61.8 68.96205 60.846874 68.96205Q59.6125 68.96205 58.89375 68.07143Q58.05 67.00893 58.05 64.58705ZM59.128124 64.58705Q59.128124 66.69643 59.628124 67.39955Q60.128124 68.10268 60.846874 68.10268Q61.58125 68.10268 62.065624 67.39955Q62.565624 66.69643 62.565624 64.58705Q62.565624 62.46205 62.065624 61.77455Q61.58125 61.071426 60.83125 61.071426Q60.1125 61.071426 59.675 61.6808Q59.128124 62.46205 59.128124 64.58705ZM65.05 64.58705Q65.05 63.0558 65.3625 62.133926Q65.675 61.196426 66.28438 60.696426Q66.90938 60.196426 67.84688 60.196426Q68.53438 60.196426 69.05 60.477676Q69.58125 60.758926 69.925 61.290176Q70.26875 61.8058 70.45625 62.5558Q70.64375 63.3058 70.64375 64.58705Q70.64375 66.10268 70.33125 67.02455Q70.03438 67.94643 69.40938 68.46205Q68.8 68.96205 67.84688 68.96205Q66.6125 68.96205 65.89375 68.07143Q65.05 67.00893 65.05 64.58705ZM66.12813 64.58705Q66.12813 66.69643 66.62813 67.39955Q67.12813 68.10268 67.84688 68.10268Q68.58125 68.10268 69.06563 67.39955Q69.56563 66.69643 69.56563 64.58705Q69.56563 62.46205 69.06563 61.77455Q68.58125 61.071426 67.83125 61.071426Q67.1125 61.071426 66.675 61.6808Q66.12813 62.46205 66.12813 64.58705ZM72.05 64.58705Q72.05 63.0558 72.3625 62.133926Q72.675 61.196426 73.28438 60.696426Q73.90938 60.196426 74.84688 60.196426Q75.53438 60.196426 76.05 60.477676Q76.58125 60.758926 76.925 61.290176Q77.26875 61.8058 77.45625 62.5558Q77.64375 63.3058 77.64375 64.58705Q77.64375 66.10268 77.33125 67.02455Q77.03438 67.94643 76.40938 68.46205Q75.8 68.96205 74.84688 68.96205Q73.6125 68.96205 72.89375 68.07143Q72.05 67.00893 72.05 64.58705ZM73.12813 64.58705Q73.12813 66.69643 73.62813 67.39955Q74.12813 68.10268 74.84688 68.10268Q75.58125 68.10268 76.06563 67.39955Q76.56563 66.69643 76.56563 64.58705Q76.56563 62.46205 76.06563 61.77455Q75.58125 61.071426 74.83125 61.071426Q74.1125 61.071426 73.675 61.6808Q73.12813 62.46205 73.12813 64.58705ZM79.05 64.58705Q79.05 63.0558 79.3625 62.133926Q79.675 61.196426 80.28438 60.696426Q80.90938 60.196426 81.84688 60.196426Q82.53438 60.196426 83.05 60.477676Q83.58125 60.758926 83.925 61.290176Q84.26875 61.8058 84.45625 62.5558Q84.64375 63.3058 84.64375 64.58705Q84.64375 66.10268 84.33125 67.02455Q84.03438 67.94643 83.40938 68.46205Q82.8 68.96205 81.84688 68.96205Q80.6125 68.96205 79.89375 68.07143Q79.05 67.00893 79.05 64.58705ZM80.12813 64.58705Q80.12813 66.69643 80.62813 67.39955Q81.12813 68.10268 81.84688 68.10268Q82.58125 68.10268 83.06563 67.39955Q83.56563 66.69643 83.56563 64.58705Q83.56563 62.46205 83.06563 61.77455Q82.58125 61.071426 81.83125 61.071426Q81.1125 61.071426 80.675 61.6808Q80.12813 62.46205 80.12813 64.58705ZM86.05 64.58705Q86.05 63.0558 86.3625 62.133926Q86.675 61.196426 87.28438 60.696426Q87.90938 60.196426 88.84688 60.196426Q89.53438 60.196426 90.05 60.477676Q90.58125 60.758926 90.925 61.290176Q91.26875 61.8058 91.45625 62.5558Q91.64375 63.3058 91.64375 64.58705Q91.64375 66.10268 91.33125 67.02455Q91.03438 67.94643 90.40938 68.46205Q89.8 68.96205 88.84688 68.96205Q87.6125 68.96205 86.89375 68.07143Q86.05 67.00893 86.05 64.58705ZM87.12813 64.58705Q87.12813 66.69643 87.62813 67.39955Q88.12813 68.10268 88.84688 68.10268Q89.58125 68.10268 90.06563 67.39955Q90.56563 66.69643 90.56563 64.58705Q90.56563 62.46205 90.06563 61.77455Q89.58125 61.071426 88.83125 61.071426Q88.1125 61.071426 87.675 61.6808Q87.12813 62.46205 87.12813 64.58705Z" fill-rule="nonzero"/><path fill="#000000" d="M51.05 27.284374L52.1125 27.14375Q52.284374 28.034374 52.721874 28.440624Q53.159374 28.83125 53.784374 28.83125Q54.534374 28.83125 55.05 28.315624Q55.565624 27.8 55.565624 27.034374Q55.565624 26.315624 55.08125 25.846874Q54.6125 25.3625 53.878124 25.3625Q53.58125 25.3625 53.128124 25.4875L53.253124 24.55Q53.3625 24.565624 53.425 24.565624Q54.096874 24.565624 54.628124 24.221874Q55.175 23.8625 55.175 23.128124Q55.175 22.55 54.784374 22.175Q54.39375 21.784374 53.76875 21.784374Q53.159374 21.784374 52.7375 22.175Q52.33125 22.565624 52.221874 23.33125L51.159374 23.14375Q51.346874 22.096874 52.034374 21.51875Q52.721874 20.925 53.7375 20.925Q54.440624 20.925 55.034374 21.2375Q55.628124 21.534374 55.940624 22.05Q56.253124 22.565624 56.253124 23.159374Q56.253124 23.70625 55.95625 24.175Q55.659374 24.628124 55.08125 24.89375Q55.83125 25.065624 56.253124 25.628124Q56.675 26.175 56.675 27.01875Q56.675 28.14375 55.846874 28.925Q55.034374 29.70625 53.784374 29.70625Q52.659374 29.70625 51.909374 29.034374Q51.159374 28.346874 51.05 27.284374ZM58.05 27.3L59.159374 27.20625Q59.284374 28.01875 59.721874 28.425Q60.175 28.83125 60.815624 28.83125Q61.565624 28.83125 62.096874 28.253124Q62.628124 27.675 62.628124 26.7375Q62.628124 25.83125 62.1125 25.315624Q61.6125 24.784374 60.784374 24.784374Q60.284374 24.784374 59.8625 25.01875Q59.45625 25.253124 59.221874 25.6125L58.2375 25.4875L59.065624 21.08125L63.346874 21.08125L63.346874 22.08125L59.909374 22.08125L59.45625 24.39375Q60.221874 23.846874 61.065624 23.846874Q62.190624 23.846874 62.95625 24.628124Q63.7375 25.409374 63.7375 26.64375Q63.7375 27.8 63.065624 28.659374Q62.2375 29.690624 60.815624 29.690624Q59.64375 29.690624 58.89375 29.034374Q58.159374 28.378124 58.05 27.3ZM65.05 25.315624Q65.05 23.784374 65.3625 22.8625Q65.675 21.925 66.28438 21.425Q66.90938 20.925 67.84688 20.925Q68.53438 20.925 69.05 21.20625Q69.58125 21.4875 69.925 22.01875Q70.26875 22.534374 70.45625 23.284374Q70.64375 24.034374 70.64375 25.315624Q70.64375 26.83125 70.33125 27.753124Q70.03438 28.675 69.40938 29.190624Q68.8 29.690624 67.84688 29.690624Q66.6125 29.690624 65.89375 28.8Q65.05 27.7375 65.05 25.315624ZM66.12813 25.315624Q66.12813 27.425 66.62813 28.128124Q67.12813 28.83125 67.84688 28.83125Q68.58125 28.83125 69.06563 28.128124Q69.56563 27.425 69.56563 25.315624Q69.56563 23.190624 69.06563 22.503124Q68.58125 21.8 67.83125 21.8Q67.1125 21.8 66.675 22.409374Q66.12813 23.190624 66.12813 25.315624ZM72.05 25.315624Q72.05 23.784374 72.3625 22.8625Q72.675 21.925 73.28438 21.425Q73.90938 20.925 74.84688 20.925Q75.53438 20.925 76.05 21.20625Q76.58125 21.4875 76.925 22.01875Q77.26875 22.534374 77.45625 23.284374Q77.64375 24.034374 77.64375 25.315624Q77.64375 26.83125 77.33125 27.753124Q77.03438 28.675 76.40938 29.190624Q75.8 29.690624 74.84688 29.690624Q73.6125 29.690624 72.89375 28.8Q72.05 27.7375 72.05 25.315624ZM73.12813 25.315624Q73.12813 27.425 73.62813 28.128124Q74.12813 28.83125 74.84688 28.83125Q75.58125 28.83125 76.06563 28.128124Q76.56563 27.425 76.56563 25.315624Q76.56563 23.190624 76.06563 22.503124Q75.58125 21.8 74.83125 21.8Q74.1125 21.8 73.675 22.409374Q73.12813 23.190624 73.12813 25.315624ZM79.05 25.315624Q79.05 23.784374 79.3625 22.8625Q79.675 21.925 80.28438 21.425Q80.90938 20.925 81.84688 20.925Q82.53438 20.925 83.05 21.20625Q83.58125 21.4875 83.925 22.01875Q84.26875 22.534374 84.45625 23.284374Q84.64375 24.034374 84.64375 25.315624Q84.64375 26.83125 84.33125 27.753124Q84.03438 28.675 83.40938 29.190624Q82.8 29.690624 81.84688 29.690624Q80.6125 29.690624 79.89375 28.8Q79.05 27.7375 79.05 25.315624ZM80.12813 25.315624Q80.12813 27.425 80.62813 28.128124Q81.12813 28.83125 81.84688 28.83125Q82.58125 28.83125 83.06563 28.128124Q83.56563 27.425 83.56563 25.315624Q83.56563 23.190624 83.06563 22.503124Q82.58125 21.8 81.83125 21.8Q81.1125 21.8 80.675 22.409374Q80.12813 23.190624 80.12813 25.315624ZM86.05 25.315624Q86.05 23.784374 86.3625 22.8625Q86.675 21.925 87.28438 21.425Q87.90938 20.925 88.84688 20.925Q89.53438 20.925 90.05 21.20625Q90.58125 21.4875 90.925 22.01875Q91.26875 22.534374 91.45625 23.284374Q91.64375 24.034374 91.64375 25.315624Q91.64375 26.83125 91.33125 27.753124Q91.03438 28.675 90.40938 29.190624Q89.8 29.690624 88.84688 29.690624Q87.6125 29.690624 86.89375 28.8Q86.05 27.7375 86.05 25.315624ZM87.12813 25.315624Q87.12813 27.425 87.62813 28.128124Q88.12813 28.83125 88.84688 28.83125Q89.58125 28.83125 90.06563 28.128124Q90.56563 27.425 90.56563 25.315624Q90.56563 23.190624 90.06563 22.503124Q89.58125 21.8 88.83125 21.8Q88.1125 21.8 87.675 22.409374Q87.12813 23.190624 87.12813 25.315624Z" fill-rule="nonzero"/><path fill="#000000" d="M146.8819 313.21564Q146.8819 311.6844 147.1944 310.7625Q147.5069 309.825 148.11627 309.325Q148.74127 308.825 149.67877 308.825Q150.36627 308.825 150.8819 309.10626Q151.41315 309.3875 151.7569 309.91876Q152.10065 310.4344 152.28815 311.1844Q152.47565 311.9344 152.47565 313.21564Q152.47565 314.73126 152.16315 315.65314Q151.86627 316.575 151.24127 317.09064Q150.6319 317.59064 149.67877 317.59064Q148.4444 317.59064 147.72565 316.7Q146.8819 315.6375 146.8819 313.21564ZM147.96002 313.21564Q147.96002 315.325 148.46002 316.02814Q148.96002 316.73126 149.67877 316.73126Q150.41315 316.73126 150.89752 316.02814Q151.39752 315.325 151.39752 313.21564Q151.39752 311.09064 150.89752 310.40314Q150.41315 309.7 149.66315 309.7Q148.9444 309.7 148.5069 310.3094Q147.96002 311.09064 147.96002 313.21564Z" fill-rule="nonzero"/><path fill="#000000" d="M226.89789 317.45L225.85101 317.45L225.85101 310.73126Q225.46039 311.09064 224.83539 311.46564Q224.22601 311.825 223.74164 311.9969L223.74164 310.98126Q224.61664 310.5594 225.27289 309.98126Q225.94476 309.3875 226.22601 308.825L226.89789 308.825L226.89789 317.45Z" fill-rule="nonzero"/><path fill="#000000" d="M299.44513 317.45L298.39825 317.45L298.39825 310.73126Q298.00763 311.09064 297.38263 311.46564Q296.77325 311.825 296.28888 311.9969L296.28888 310.98126Q297.16388 310.5594 297.82013 309.98126Q298.492 309.3875 298.77325 308.825L299.44513 308.825L299.44513 317.45ZM302.47638 313.21564Q302.47638 311.6844 302.78888 310.7625Q303.10138 309.825 303.71075 309.325Q304.33575 308.825 305.27325 308.825Q305.96075 308.825 306.47638 309.10626Q307.00763 309.3875 307.35138 309.91876Q307.69513 310.4344 307.88263 311.1844Q308.07013 311.9344 308.07013 313.21564Q308.07013 314.73126 307.75763 315.65314Q307.46075 316.575 306.83575 317.09064Q306.22638 317.59064 305.27325 317.59064Q304.03888 317.59064 303.32013 316.7Q302.47638 315.6375 302.47638 313.21564ZM303.5545 313.21564Q303.5545 315.325 304.0545 316.02814Q304.5545 316.73126 305.27325 316.73126Q306.00763 316.73126 306.492 316.02814Q306.992 315.325 306.992 313.21564Q306.992 311.09064 306.492 310.40314Q306.00763 309.7 305.25763 309.7Q304.53888 309.7 304.10138 310.3094Q303.5545 311.09064 303.5545 313.21564Z" fill-rule="nonzero"/><path fill="#000000" d="M371.99237 317.45L370.9455 317.45L370.9455 310.73126Q370.55487 311.09064 369.92987 311.46564Q369.3205 311.825 368.83612 311.9969L368.83612 310.98126Q369.71112 310.5594 370.36737 309.98126Q371.03925 309.3875 371.3205 308.825L371.99237 308.825L371.99237 317.45ZM375.02362 313.21564Q375.02362 311.6844 375.33612 310.7625Q375.64862 309.825 376.258 309.325Q376.883 308.825 377.8205 308.825Q378.508 308.825 379.02362 309.10626Q379.55487 309.3875 379.89862 309.91876Q380.24237 310.4344 380.42987 311.1844Q380.61737 311.9344 380.61737 313.21564Q380.61737 314.73126 380.30487 315.65314Q380.008 316.575 379.383 317.09064Q378.77362 317.59064 377.8205 317.59064Q376.58612 317.59064 375.86737 316.7Q375.02362 315.6375 375.02362 313.21564ZM376.10175 313.21564Q376.10175 315.325 376.60175 316.02814Q377.10175 316.73126 377.8205 316.73126Q378.55487 316.73126 379.03925 316.02814Q379.53925 315.325 379.53925 313.21564Q379.53925 311.09064 379.03925 310.40314Q378.55487 309.7 377.80487 309.7Q377.08612 309.7 376.64862 310.3094Q376.10175 311.09064 376.10175 313.21564ZM382.02362 313.21564Q382.02362 311.6844 382.33612 310.7625Q382.64862 309.825 383.258 309.325Q383.883 308.825 384.8205 308.825Q385.508 308.825 386.02362 309.10626Q386.55487 309.3875 386.89862 309.91876Q387.24237 310.4344 387.42987 311.1844Q387.61737 311.9344 387.61737 313.21564Q387.61737 314.73126 387.30487 315.65314Q387.008 316.575 386.383 317.09064Q385.77362 317.59064 384.8205 317.59064Q383.58612 317.59064 382.86737 316.7Q382.02362 315.6375 382.02362 313.21564ZM383.10175 313.21564Q383.10175 315.325 383.60175 316.02814Q384.10175 316.73126 384.8205 316.73126Q385.55487 316.73126 386.03925 316.02814Q386.53925 315.325 386.53925 313.21564Q386.53925 311.09064 386.03925 310.40314Q385.55487 309.7 384.80487 309.7Q384.08612 309.7 383.64862 310.3094Q383.10175 311.09064 383.10175 313.21564Z" fill-rule="nonzero"/><path fill="#000000" d="M444.5396 317.45L443.49274 317.45L443.49274 310.73126Q443.1021 311.09064 442.4771 311.46564Q441.86774 311.825 441.38336 311.9969L441.38336 310.98126Q442.25836 310.5594 442.9146 309.98126Q443.5865 309.3875 443.86774 308.825L444.5396 308.825L444.5396 317.45ZM447.57086 313.21564Q447.57086 311.6844 447.88336 310.7625Q448.19586 309.825 448.80524 309.325Q449.43024 308.825 450.36774 308.825Q451.05524 308.825 451.57086 309.10626Q452.1021 309.3875 452.44586 309.91876Q452.7896 310.4344 452.9771 311.1844Q453.1646 311.9344 453.1646 313.21564Q453.1646 314.73126 452.8521 315.65314Q452.55524 316.575 451.93024 317.09064Q451.32086 317.59064 450.36774 317.59064Q449.13336 317.59064 448.4146 316.7Q447.57086 315.6375 447.57086 313.21564ZM448.649 313.21564Q448.649 315.325 449.149 316.02814Q449.649 316.73126 450.36774 316.73126Q451.1021 316.73126 451.5865 316.02814Q452.0865 315.325 452.0865 313.21564Q452.0865 311.09064 451.5865 310.40314Q451.1021 309.7 450.3521 309.7Q449.63336 309.7 449.19586 310.3094Q448.649 311.09064 448.649 313.21564ZM454.57086 313.21564Q454.57086 311.6844 454.88336 310.7625Q455.19586 309.825 455.80524 309.325Q456.43024 308.825 457.36774 308.825Q458.05524 308.825 458.57086 309.10626Q459.1021 309.3875 459.44586 309.91876Q459.7896 310.4344 459.9771 311.1844Q460.1646 311.9344 460.1646 313.21564Q460.1646 314.73126 459.8521 315.65314Q459.55524 316.575 458.93024 317.09064Q458.32086 317.59064 457.36774 317.59064Q456.13336 317.59064 455.4146 316.7Q454.57086 315.6375 454.57086 313.21564ZM455.649 313.21564Q455.649 315.325 456.149 316.02814Q456.649 316.73126 457.36774 316.73126Q458.1021 316.73126 458.5865 316.02814Q459.0865 315.325 459.0865 313.21564Q459.0865 311.09064 458.5865 310.40314Q458.1021 309.7 457.3521 309.7Q456.63336 309.7 456.19586 310.3094Q455.649 311.09064 455.649 313.21564ZM461.57086 313.21564Q461.57086 311.6844 461.88336 310.7625Q462.19586 309.825 462.80524 309.325Q463.43024 308.825 464.36774 308.825Q465.05524 308.825 465.57086 309.10626Q466.1021 309.3875 466.44586 309.91876Q466.7896 310.4344 466.9771 311.1844Q467.1646 311.9344 467.1646 313.21564Q467.1646 314.73126 466.8521 315.65314Q466.55524 316.575 465.93024 317.09064Q465.32086 317.59064 464.36774 317.59064Q463.13336 317.59064 462.4146 316.7Q461.57086 315.6375 461.57086 313.21564ZM462.649 313.21564Q462.649 315.325 463.149 316.02814Q463.649 316.73126 464.36774 316.73126Q465.1021 316.73126 465.5865 316.02814Q466.0865 315.325 466.0865 313.21564Q466.0865 311.09064 465.5865 310.40314Q465.1021 309.7 464.3521 309.7Q463.63336 309.7 463.19586 310.3094Q462.649 311.09064 462.649 313.21564Z" fill-rule="nonzero"/><path fill="#000000" d="M517.08685 317.45L516.04 317.45L516.04 310.73126Q515.64935 311.09064 515.02435 311.46564Q514.415 311.825 513.9306 311.9969L513.9306 310.98126Q514.8056 310.5594 515.46185 309.98126Q516.1337 309.3875 516.415 308.825L517.08685 308.825L517.08685 317.45ZM520.1181 313.21564Q520.1181 311.6844 520.4306 310.7625Q520.7431 309.825 521.3525 309.325Q521.9775 308.825 522.915 308.825Q523.6025 308.825 524.1181 309.10626Q524.64935 309.3875 524.9931 309.91876Q525.33685 310.4344 525.52435 311.1844Q525.71185 311.9344 525.71185 313.21564Q525.71185 314.73126 525.39935 315.65314Q525.1025 316.575 524.4775 317.09064Q523.8681 317.59064 522.915 317.59064Q521.6806 317.59064 520.96185 316.7Q520.1181 315.6375 520.1181 313.21564ZM521.1962 313.21564Q521.1962 315.325 521.6962 316.02814Q522.1962 316.73126 522.915 316.73126Q523.64935 316.73126 524.1337 316.02814Q524.6337 315.325 524.6337 313.21564Q524.6337 311.09064 524.1337 310.40314Q523.64935 309.7 522.89935 309.7Q522.1806 309.7 521.7431 310.3094Q521.1962 311.09064 521.1962 313.21564ZM527.1181 313.21564Q527.1181 311.6844 527.4306 310.7625Q527.7431 309.825 528.3525 309.325Q528.9775 308.825 529.915 308.825Q530.6025 308.825 531.1181 309.10626Q531.64935 309.3875 531.9931 309.91876Q532.33685 310.4344 532.52435 311.1844Q532.71185 311.9344 532.71185 313.21564Q532.71185 314.73126 532.39935 315.65314Q532.1025 316.575 531.4775 317.09064Q530.8681 317.59064 529.915 317.59064Q528.6806 317.59064 527.96185 316.7Q527.1181 315.6375 527.1181 313.21564ZM528.1962 313.21564Q528.1962 315.325 528.6962 316.02814Q529.1962 316.73126 529.915 316.73126Q530.64935 316.73126 531.1337 316.02814Q531.6337 315.325 531.6337 313.21564Q531.6337 311.09064 531.1337 310.40314Q530.64935 309.7 529.89935 309.7Q529.1806 309.7 528.7431 310.3094Q528.1962 311.09064 528.1962 313.21564ZM534.1181 313.21564Q534.1181 311.6844 534.4306 310.7625Q534.7431 309.825 535.3525 309.325Q535.9775 308.825 536.915 308.825Q537.6025 308.825 538.1181 309.10626Q538.64935 309.3875 538.9931 309.91876Q539.33685 310.4344 539.52435 311.1844Q539.71185 311.9344 539.71185 313.21564Q539.71185 314.73126 539.39935 315.65314Q539.1025 316.575 538.4775 317.09064Q537.8681 317.59064 536.915 317.59064Q535.6806 317.59064 534.96185 316.7Q534.1181 315.6375 534.1181 313.21564ZM535.1962 313.21564Q535.1962 315.325 535.6962 316.02814Q536.1962 316.73126 536.915 316.73126Q537.64935 316.73126 538.1337 316.02814Q538.6337 315.325 538.6337 313.21564Q538.6337 311.09064 538.1337 310.40314Q537.64935 309.7 536.89935 309.7Q536.1806 309.7 535.7431 310.3094Q535.1962 311.09064 535.1962 313.21564ZM541.1181 313.21564Q541.1181 311.6844 541.4306 310.7625Q541.7431 309.825 542.3525 309.325Q542.9775 308.825 543.915 308.825Q544.6025 308.825 545.1181 309.10626Q545.64935 309.3875 545.9931 309.91876Q546.33685 310.4344 546.52435 311.1844Q546.71185 311.9344 546.71185 313.21564Q546.71185 314.73126 546.39935 315.65314Q546.1025 316.575 545.4775 317.09064Q544.8681 317.59064 543.915 317.59064Q542.6806 317.59064 541.96185 316.7Q541.1181 315.6375 541.1181 313.21564ZM542.1962 313.21564Q542.1962 315.325 542.6962 316.02814Q543.1962 316.73126 543.915 316.73126Q544.64935 316.73126 545.1337 316.02814Q545.6337 315.325 545.6337 313.21564Q545.6337 311.09064 545.1337 310.40314Q544.64935 309.7 543.89935 309.7Q543.1806 309.7 542.7431 310.3094Q542.1962 311.09064 542.1962 313.21564Z" fill-rule="nonzero"/></svg>