<svg version="1.1" viewBox="0.0 0.0 600.0 371.0" fill="none" stroke="none" stroke-linecap="square" stroke-miterlimit="10" width="600" height="371" xmlns:xlink="http://www.w3.org/1999/xlink" xmlns="http://www.w3.org/2000/svg"><path fill="#ffffff" d="M0 0L600.0 0L600.0 371.0L0 371.0L0 0Z" fill-rule="nonzero"/><path stroke="#cccccc" stroke-width="1.0" stroke-linecap="butt" d="M98.5 300.5L581.5 300.5" fill-rule="nonzero"/><path stroke="#cccccc" stroke-width="1.0" stroke-linecap="butt" d="M98.5 236.5L581.5 236.5" fill-rule="nonzero"/><path stroke="#cccccc" stroke-width="1.0" stroke-linecap="butt" d="M98.5 173.5L581.5 173.5" fill-rule="nonzero"/><path stroke="#cccccc" stroke-width="1.0" stroke-linecap="butt" d="M98.5 136.5L581.5 136.5" fill-rule="nonzero"/><path stroke="#cccccc" stroke-width="1.0" stroke-linecap="butt" d="M98.5 109.5L581.5 109.5" fill-rule="nonzero"/><path stroke="#cccccc" stroke-width="1.0" stroke-linecap="butt" d="M98.5 89.5L581.5 89.5" fill-rule="nonzero"/><path stroke="#cccccc" stroke-width="1.0" stroke-linecap="butt" d="M98.5 25.5L581.5 25.5" fill-rule="nonzero"/><clipPath id="id_0"><path d="M98.55 25.55L581.45 25.55L581.45 300.45L98.55 300.45L98.55 25.55Z" clip-rule="nonzero"/></clipPath><path stroke="#000000" stroke-width="0.0" stroke-linecap="butt" stroke-opacity="0.0" clip-path="url(#id_0)" d="M189.0 300.0L130.0 300.0L130.0 202.0C130.0 200.89543 130.89543 200.0 132.0 200.0L187.0 200.0C188.10457 200.0 189.0 200.89543 189.0 202.0Z" fill-rule="nonzero"/><path fill="#4285f4" clip-path="url(#id_0)" d="M189.0 300.0L130.0 300.0L130.0 202.0C130.0 200.89543 130.89543 200.0 132.0 200.0L187.0 200.0C188.10457 200.0 189.0 200.89543 189.0 202.0Z" fill-rule="nonzero"/><path stroke="#000000" stroke-width="0.0" stroke-linecap="butt" stroke-opacity="0.0" clip-path="url(#id_0)" d="M280.0 300.0L221.0 300.0L221.0 201.0C221.0 199.89543 221.89543 199.0 223.0 199.0L278.0 199.0C279.10458 199.0 280.0 199.89543 280.0 201.0Z" fill-rule="nonzero"/><path fill="#4285f4" clip-path="url(#id_0)" d="M280.0 300.0L221.0 300.0L221.0 201.0C221.0 199.89543 221.89543 199.0 223.0 199.0L278.0 199.0C279.10458 199.0 280.0 199.89543 280.0 201.0Z" fill-rule="nonzero"/><path stroke="#000000" stroke-width="0.0" stroke-linecap="butt" stroke-opacity="0.0" clip-path="url(#id_0)" d="M370.0 300.0L311.0 300.0L311.0 196.0C311.0 194.89543 311.89542 194.0 313.0 194.0L368.0 194.0C369.10458 194.0 370.0 194.89543 370.0 196.0Z" fill-rule="nonzero"/><path fill="#4285f4" clip-path="url(#id_0)" d="M370.0 300.0L311.0 300.0L311.0 196.0C311.0 194.89543 311.89542 194.0 313.0 194.0L368.0 194.0C369.10458 194.0 370.0 194.89543 370.0 196.0Z" fill-rule="nonzero"/><path stroke="#000000" stroke-width="0.0" stroke-linecap="butt" stroke-opacity="0.0" clip-path="url(#id_0)" d="M460.0 300.0L401.0 300.0L401.0 159.0C401.0 157.89543 401.89542 157.0 403.0 157.0L458.0 157.0C459.10458 157.0 460.0 157.89543 460.0 159.0Z" fill-rule="nonzero"/><path fill="#4285f4" clip-path="url(#id_0)" d="M460.0 300.0L401.0 300.0L401.0 159.0C401.0 157.89543 401.89542 157.0 403.0 157.0L458.0 157.0C459.10458 157.0 460.0 157.89543 460.0 159.0Z" fill-rule="nonzero"/><path stroke="#000000" stroke-width="0.0" stroke-linecap="butt" stroke-opacity="0.0" clip-path="url(#id_0)" d="M551.0 300.0L492.0 300.0L492.0 29.0C492.0 27.89543 492.89542 27.0 494.0 27.0L549.0 27.0C550.10455 27.0 551.0 27.89543 551.0 29.0Z" fill-rule="nonzero"/><path fill="#4285f4" clip-path="url(#id_0)" d="M551.0 300.0L492.0 300.0L492.0 29.0C492.0 27.89543 492.89542 27.0 494.0 27.0L549.0 27.0C550.10455 27.0 551.0 27.89543 551.0 29.0Z" fill-rule="nonzero"/><path fill="#000000" d="M326.42188 349.45L326.42188 340.85626L329.67188 340.85626Q330.51562 340.85626 330.96875 340.9344Q331.60938 341.04376 332.03125 341.34064Q332.46875 341.6375 332.71875 342.16876Q332.98438 342.7 332.98438 343.34064Q332.98438 344.4344 332.28125 345.2Q331.59375 345.95 329.76562 345.95L327.5625 345.95L327.5625 349.45L326.42188 349.45ZM327.5625 344.95L329.78125 344.95Q330.89062 344.95 331.34375 344.54376Q331.8125 344.1219 331.8125 343.3719Q331.8125 342.84064 331.53125 342.46564Q331.26562 342.075 330.82812 341.95Q330.53125 341.8719 329.76562 341.8719L327.5625 341.8719L327.5625 344.95ZM338.35938 348.6844Q337.76562 349.1844 337.21875 349.3875Q336.6875 349.59064 336.0625 349.59064Q335.03125 349.59064 334.48438 349.09064Q333.9375 348.59064 333.9375 347.8094Q333.9375 347.35626 334.14062 346.98126Q334.34375 346.59064 334.6875 346.3719Q335.03125 346.1375 335.45312 346.02814Q335.75 345.9344 336.39062 345.85626Q337.65625 345.71564 338.26562 345.4969Q338.26562 345.27814 338.26562 345.23126Q338.26562 344.575 337.96875 344.3094Q337.5625 343.96564 336.76562 343.96564Q336.03125 343.96564 335.67188 344.23126Q335.3125 344.48126 335.14062 345.1375L334.10938 344.9969Q334.25 344.34064 334.57812 343.9344Q334.90625 343.52814 335.51562 343.3094Q336.125 343.09064 336.92188 343.09064Q337.71875 343.09064 338.21875 343.27814Q338.71875 343.46564 338.95312 343.7469Q339.1875 344.02814 339.28125 344.46564Q339.32812 344.73126 339.32812 345.4344L339.32812 346.84064Q339.32812 348.3094 339.39062 348.7Q339.46875 349.09064 339.67188 349.45L338.5625 349.45Q338.40625 349.1219 338.35938 348.6844ZM338.26562 346.325Q337.6875 346.5594 336.54688 346.73126Q335.89062 346.825 335.625 346.95Q335.35938 347.0594 335.20312 347.27814Q335.0625 347.4969 335.0625 347.77814Q335.0625 348.2 335.375 348.48126Q335.70312 348.7625 336.3125 348.7625Q336.92188 348.7625 337.39062 348.4969Q337.875 348.23126 338.09375 347.7625Q338.26562 347.40314 338.26562 346.71564L338.26562 346.325ZM341.09375 349.96564L342.125 350.1219Q342.1875 350.59064 342.48438 350.8094Q342.875 351.10626 343.54688 351.10626Q344.28125 351.10626 344.67188 350.8094Q345.07812 350.5125 345.21875 349.9969Q345.3125 349.66876 345.29688 348.6375Q344.60938 349.45 343.57812 349.45Q342.29688 349.45 341.59375 348.52814Q340.89062 347.59064 340.89062 346.3094Q340.89062 345.41876 341.20312 344.66876Q341.53125 343.90314 342.14062 343.4969Q342.75 343.09064 343.57812 343.09064Q344.6875 343.09064 345.40625 343.98126L345.40625 343.23126L346.375 343.23126L346.375 348.60626Q346.375 350.0594 346.07812 350.66876Q345.78125 351.27814 345.14062 351.6219Q344.5 351.98126 343.5625 351.98126Q342.45312 351.98126 341.76562 351.48126Q341.07812 350.98126 341.09375 349.96564ZM341.96875 346.23126Q341.96875 347.45 342.45312 348.0125Q342.9375 348.575 343.67188 348.575Q344.40625 348.575 344.89062 348.0125Q345.39062 347.45 345.39062 346.2625Q345.39062 345.1219 344.875 344.54376Q344.375 343.96564 343.65625 343.96564Q342.95312 343.96564 342.45312 344.54376Q341.96875 345.10626 341.96875 346.23126ZM352.54688 347.45L353.64062 347.575Q353.39062 348.52814 352.6875 349.0594Q351.98438 349.59064 350.90625 349.59064Q349.54688 349.59064 348.73438 348.7469Q347.9375 347.90314 347.9375 346.3875Q347.9375 344.825 348.75 343.96564Q349.5625 343.09064 350.84375 343.09064Q352.09375 343.09064 352.875 343.9344Q353.67188 344.77814 353.67188 346.325Q353.67188 346.41876 353.67188 346.60626L349.03125 346.60626Q349.09375 347.6375 349.60938 348.1844Q350.125 348.71564 350.90625 348.71564Q351.48438 348.71564 351.89062 348.41876Q352.3125 348.10626 352.54688 347.45ZM349.09375 345.7469L352.5625 345.7469Q352.5 344.95 352.17188 344.5594Q351.65625 343.95 350.85938 343.95Q350.125 343.95 349.625 344.4344Q349.14062 344.91876 349.09375 345.7469Z" fill-rule="nonzero"/><path fill="#000000" d="M29.550013 220.39062L21.971888 220.39062L21.971888 223.21875L20.956263 223.21875L20.956263 216.40625L21.971888 216.40625L21.971888 219.25L29.550013 219.25L29.550013 220.39062ZM22.175013 215.70312L20.956263 215.70312L20.956263 214.64062L22.175013 214.64062L22.175013 215.70312ZM29.550013 215.70312L23.331263 215.70312L23.331263 214.64062L29.550013 214.64062L29.550013 215.70312ZM29.550013 212.70312L23.331263 212.70312L23.331263 211.76562L24.206263 211.76562Q23.737513 211.46875 23.471888 210.98438Q23.190638 210.5 23.190638 209.875Q23.190638 209.1875 23.471888 208.75Q23.753138 208.29688 24.268763 208.125Q23.190638 207.375 23.190638 206.20312Q23.190638 205.26562 23.706263 204.78125Q24.206263 204.28125 25.284388 204.28125L29.550013 204.28125L29.550013 205.32812L25.628138 205.32812Q25.003138 205.32812 24.721888 205.4375Q24.440638 205.53125 24.268763 205.79688Q24.096888 206.0625 24.096888 206.4375Q24.096888 207.09375 24.534388 207.53125Q24.971888 207.95312 25.940638 207.95312L29.550013 207.95312L29.550013 209.01562L25.503138 209.01562Q24.800013 209.01562 24.456263 209.28125Q24.096888 209.53125 24.096888 210.10938Q24.096888 210.5625 24.331263 210.9375Q24.565638 211.3125 25.018763 211.48438Q25.471888 211.65625 26.315638 211.65625L29.550013 211.65625L29.550013 212.70312ZM27.550013 198.45312L27.675013 197.35938Q28.628138 197.60938 29.159388 198.3125Q29.690638 199.01562 29.690638 200.09375Q29.690638 201.45312 28.846888 202.26562Q28.003138 203.0625 26.487513 203.0625Q24.925013 203.0625 24.065638 202.25Q23.190638 201.4375 23.190638 200.15625Q23.190638 198.90625 24.034388 198.125Q24.878138 197.32812 26.425013 197.32812Q26.518763 197.32812 26.706263 197.32812L26.706263 201.96875Q27.737513 201.90625 28.284388 201.39062Q28.815638 200.875 28.815638 200.09375Q28.815638 199.51562 28.518763 199.10938Q28.206263 198.6875 27.550013 198.45312ZM25.846888 201.90625L25.846888 198.4375Q25.050013 198.5 24.659388 198.82812Q24.050013 199.34375 24.050013 200.14062Q24.050013 200.875 24.534388 201.375Q25.018763 201.85938 25.846888 201.90625ZM32.08126 190.6875Q30.971888 191.5625 29.503138 192.17188Q28.018763 192.76562 26.440638 192.76562Q25.050013 192.76562 23.768763 192.32812Q22.284388 191.79688 20.815638 190.6875L20.815638 189.9375Q22.034388 190.64062 22.550013 190.875Q23.362513 191.23438 24.237513 191.4375Q25.331263 191.6875 26.440638 191.6875Q29.268763 191.6875 32.08126 189.9375L32.08126 190.6875ZM29.550013 188.70312L23.331263 188.70312L23.331263 187.76562L24.206263 187.76562Q23.737513 187.46875 23.471888 186.98438Q23.190638 186.5 23.190638 185.875Q23.190638 185.1875 23.471888 184.75Q23.753138 184.29688 24.268763 184.125Q23.190638 183.375 23.190638 182.20312Q23.190638 181.26562 23.706263 180.78125Q24.206263 180.28125 25.284388 180.28125L29.550013 180.28125L29.550013 181.32812L25.628138 181.32812Q25.003138 181.32812 24.721888 181.4375Q24.440638 181.53125 24.268763 181.79688Q24.096888 182.0625 24.096888 182.4375Q24.096888 183.09375 24.534388 183.53125Q24.971888 183.95312 25.940638 183.95312L29.550013 183.95312L29.550013 185.01562L25.503138 185.01562Q24.800013 185.01562 24.456263 185.28125Q24.096888 185.53125 24.096888 186.10938Q24.096888 186.5625 24.331263 186.9375Q24.565638 187.3125 25.018763 187.48438Q25.471888 187.65625 26.315638 187.65625L29.550013 187.65625L29.550013 188.70312ZM22.175013 178.70312L20.956263 178.70312L20.956263 177.64062L22.175013 177.64062L22.175013 178.70312ZM29.550013 178.70312L23.331263 178.70312L23.331263 177.64062L29.550013 177.64062L29.550013 178.70312ZM27.268763 171.64062L27.409388 170.60938Q28.471888 170.78125 29.081263 171.48438Q29.690638 172.1875 29.690638 173.20312Q29.690638 174.48438 28.862513 175.26562Q28.018763 176.03125 26.456263 176.03125Q25.456263 176.03125 24.706263 175.70312Q23.940638 175.35938 23.565638 174.6875Q23.190638 174.0 23.190638 173.1875Q23.190638 172.1875 23.706263 171.54688Q24.206263 170.89062 25.159388 170.70312L25.315638 171.73438Q24.690638 171.875 24.378138 172.25Q24.050013 172.625 24.050013 173.15625Q24.050013 173.95312 24.628138 174.45312Q25.190638 174.95312 26.425013 174.95312Q27.690638 174.95312 28.253138 174.46875Q28.815638 173.98438 28.815638 173.21875Q28.815638 172.59375 28.440638 172.1875Q28.065638 171.76562 27.268763 171.64062ZM29.550013 169.71875L23.331263 169.71875L23.331263 168.76562L24.268763 168.76562Q23.612513 168.40625 23.409388 168.10938Q23.190638 167.79688 23.190638 167.42188Q23.190638 166.89062 23.518763 166.34375L24.503138 166.70312Q24.268763 167.09375 24.268763 167.46875Q24.268763 167.82812 24.487513 168.10938Q24.690638 168.375 25.065638 168.48438Q25.628138 168.67188 26.284388 168.67188L29.550013 168.67188L29.550013 169.71875ZM26.440638 166.09375Q24.706263 166.09375 23.878138 165.14062Q23.190638 164.34375 23.190638 163.1875Q23.190638 161.90625 24.034388 161.09375Q24.862513 160.26562 26.346888 160.26562Q27.550013 160.26562 28.237513 160.625Q28.925013 160.98438 29.315638 161.6875Q29.690638 162.375 29.690638 163.1875Q29.690638 164.48438 28.862513 165.29688Q28.018763 166.09375 26.440638 166.09375ZM26.440638 165.01562Q27.628138 165.01562 28.221888 164.5Q28.815638 163.96875 28.815638 163.1875Q28.815638 162.39062 28.221888 161.875Q27.628138 161.35938 26.409388 161.35938Q25.253138 161.35938 24.659388 161.89062Q24.065638 162.40625 24.065638 163.1875Q24.065638 163.96875 24.659388 164.5Q25.237513 165.01562 26.440638 165.01562ZM27.690638 159.125L27.534388 158.09375Q28.159388 158.0 28.487513 157.60938Q28.815638 157.20312 28.815638 156.46875Q28.815638 155.75 28.534388 155.40625Q28.237513 155.04688 27.831263 155.04688Q27.471888 155.04688 27.268763 155.35938Q27.128138 155.57812 26.909388 156.4375Q26.612513 157.59375 26.409388 158.04688Q26.190638 158.48438 25.815638 158.71875Q25.440638 158.95312 24.971888 158.95312Q24.565638 158.95312 24.206263 158.76562Q23.846888 158.57812 23.612513 158.25Q23.440638 158.0 23.315638 157.57812Q23.190638 157.15625 23.190638 156.65625Q23.190638 155.9375 23.409388 155.39062Q23.612513 154.82812 23.971888 154.5625Q24.331263 154.29688 24.925013 154.20312L25.065638 155.23438Q24.596888 155.29688 24.331263 155.64062Q24.050013 155.96875 24.050013 156.59375Q24.050013 157.3125 24.300013 157.625Q24.534388 157.9375 24.862513 157.9375Q25.065638 157.9375 25.221888 157.8125Q25.393763 157.67188 25.503138 157.40625Q25.565638 157.25 25.768763 156.46875Q26.081263 155.34375 26.268763 154.90625Q26.456263 154.46875 26.815638 154.21875Q27.175013 153.96875 27.721888 153.96875Q28.253138 153.96875 28.721888 154.28125Q29.175013 154.57812 29.440638 155.15625Q29.690638 155.73438 29.690638 156.46875Q29.690638 157.6875 29.190638 158.32812Q28.675013 158.95312 27.690638 159.125ZM27.550013 148.45312L27.675013 147.35938Q28.628138 147.60938 29.159388 148.3125Q29.690638 149.01562 29.690638 150.09375Q29.690638 151.45312 28.846888 152.26562Q28.003138 153.0625 26.487513 153.0625Q24.925013 153.0625 24.065638 152.25Q23.190638 151.4375 23.190638 150.15625Q23.190638 148.90625 24.034388 148.125Q24.878138 147.32812 26.425013 147.32812Q26.518763 147.32812 26.706263 147.32812L26.706263 151.96875Q27.737513 151.90625 28.284388 151.39062Q28.815638 150.875 28.815638 150.09375Q28.815638 149.51562 28.518763 149.10938Q28.206263 148.6875 27.550013 148.45312ZM25.846888 151.90625L25.846888 148.4375Q25.050013 148.5 24.659388 148.82812Q24.050013 149.34375 24.050013 150.14062Q24.050013 150.875 24.534388 151.375Q25.018763 151.85938 25.846888 151.90625ZM27.268763 141.64062L27.409388 140.60938Q28.471888 140.78125 29.081263 141.48438Q29.690638 142.1875 29.690638 143.20312Q29.690638 144.48438 28.862513 145.26562Q28.018763 146.03125 26.456263 146.03125Q25.456263 146.03125 24.706263 145.70312Q23.940638 145.35938 23.565638 144.6875Q23.190638 144.0 23.190638 143.1875Q23.190638 142.1875 23.706263 141.54688Q24.206263 140.89062 25.159388 140.70312L25.315638 141.73438Q24.690638 141.875 24.378138 142.25Q24.050013 142.625 24.050013 143.15625Q24.050013 143.95312 24.628138 144.45312Q25.190638 144.95312 26.425013 144.95312Q27.690638 144.95312 28.253138 144.46875Q28.815638 143.98438 28.815638 143.21875Q28.815638 142.59375 28.440638 142.1875Q28.065638 141.76562 27.268763 141.64062ZM26.440638 140.09375Q24.706263 140.09375 23.878138 139.14062Q23.190638 138.34375 23.190638 137.1875Q23.190638 135.90625 24.034388 135.09375Q24.862513 134.26562 26.346888 134.26562Q27.550013 134.26562 28.237513 134.625Q28.925013 134.98438 29.315638 135.6875Q29.690638 136.375 29.690638 137.1875Q29.690638 138.48438 28.862513 139.29688Q28.018763 140.09375 26.440638 140.09375ZM26.440638 139.01562Q27.628138 139.01562 28.221888 138.5Q28.815638 137.96875 28.815638 137.1875Q28.815638 136.39062 28.221888 135.875Q27.628138 135.35938 26.409388 135.35938Q25.253138 135.35938 24.659388 135.89062Q24.065638 136.40625 24.065638 137.1875Q24.065638 137.96875 24.659388 138.5Q25.237513 139.01562 26.440638 139.01562ZM29.550013 132.70312L23.331263 132.70312L23.331263 131.76562L24.206263 131.76562Q23.190638 131.07812 23.190638 129.78125Q23.190638 129.21875 23.393763 128.75Q23.596888 128.26562 23.925013 128.03125Q24.253138 127.796875 24.690638 127.703125Q24.987513 127.65625 25.721888 127.65625L29.550013 127.65625L29.550013 128.70312L25.768763 128.70312Q25.112513 128.70312 24.800013 128.82812Q24.487513 128.95312 24.300013 129.26562Q24.096888 129.57812 24.096888 130.0Q24.096888 130.67188 24.534388 131.17188Q24.956263 131.65625 26.143763 131.65625L29.550013 131.65625L29.550013 132.70312ZM29.550013 121.671875L28.768763 121.671875Q29.690638 122.265625 29.690638 123.40625Q29.690638 124.15625 29.284388 124.78125Q28.862513 125.40625 28.128138 125.75Q27.393763 126.09375 26.440638 126.09375Q25.518763 126.09375 24.753138 125.78125Q23.987513 125.46875 23.596888 124.84375Q23.190638 124.21875 23.190638 123.453125Q23.190638 122.890625 23.425013 122.453125Q23.659388 122.015625 24.034388 121.734375L20.956263 121.734375L20.956263 120.6875L29.550013 120.6875L29.550013 121.671875ZM26.440638 125.0Q27.643763 125.0 28.237513 124.5Q28.815638 124.0 28.815638 123.3125Q28.815638 122.625 28.253138 122.140625Q27.690638 121.65625 26.534388 121.65625Q25.253138 121.65625 24.659388 122.15625Q24.065638 122.640625 24.065638 123.359375Q24.065638 124.0625 24.643763 124.53125Q25.206263 125.0 26.440638 125.0ZM32.08126 118.015625L32.08126 118.765625Q29.268763 117.015625 26.440638 117.015625Q25.346888 117.015625 24.253138 117.265625Q23.378138 117.46875 22.565638 117.828125Q22.050013 118.0625 20.815638 118.765625L20.815638 118.015625Q22.284388 116.921875 23.768763 116.390625Q25.050013 115.9375 26.440638 115.9375Q28.018763 115.9375 29.503138 116.546875Q30.971888 117.15625 32.08126 118.015625Z" fill-rule="nonzero"/><path fill="#000000" d="M62.01875 304.45L60.971874 304.45L60.971874 297.73126Q60.58125 298.09064 59.95625 298.46564Q59.346874 298.825 58.8625 298.9969L58.8625 297.98126Q59.7375 297.5594 60.39375 296.98126Q61.065624 296.3875 61.346874 295.825L62.01875 295.825L62.01875 304.45ZM65.05 300.21564Q65.05 298.6844 65.3625 297.7625Q65.675 296.825 66.28438 296.325Q66.90938 295.825 67.84688 295.825Q68.53438 295.825 69.05 296.10626Q69.58125 296.3875 69.925 296.91876Q70.26875 297.4344 70.45625 298.1844Q70.64375 298.9344 70.64375 300.21564Q70.64375 301.73126 70.33125 302.65314Q70.03438 303.575 69.40938 304.09064Q68.8 304.59064 67.84688 304.59064Q66.6125 304.59064 65.89375 303.7Q65.05 302.6375 65.05 300.21564ZM66.12813 300.21564Q66.12813 302.325 66.62813 303.02814Q67.12813 303.73126 67.84688 303.73126Q68.58125 303.73126 69.06563 303.02814Q69.56563 302.325 69.56563 300.21564Q69.56563 298.09064 69.06563 297.40314Q68.58125 296.7 67.83125 296.7Q67.1125 296.7 66.675 297.3094Q66.12813 298.09064 66.12813 300.21564ZM72.05 300.21564Q72.05 298.6844 72.3625 297.7625Q72.675 296.825 73.28438 296.325Q73.90938 295.825 74.84688 295.825Q75.53438 295.825 76.05 296.10626Q76.58125 296.3875 76.925 296.91876Q77.26875 297.4344 77.45625 298.1844Q77.64375 298.9344 77.64375 300.21564Q77.64375 301.73126 77.33125 302.65314Q77.03438 303.575 76.40938 304.09064Q75.8 304.59064 74.84688 304.59064Q73.6125 304.59064 72.89375 303.7Q72.05 302.6375 72.05 300.21564ZM73.12813 300.21564Q73.12813 302.325 73.62813 303.02814Q74.12813 303.73126 74.84688 303.73126Q75.58125 303.73126 76.06563 303.02814Q76.56563 302.325 76.56563 300.21564Q76.56563 298.09064 76.06563 297.40314Q75.58125 296.7 74.83125 296.7Q74.1125 296.7 73.675 297.3094Q73.12813 298.09064 73.12813 300.21564ZM79.05 300.21564Q79.05 298.6844 79.3625 297.7625Q79.675 296.825 80.28438 296.325Q80.90938 295.825 81.84688 295.825Q82.53438 295.825 83.05 296.10626Q83.58125 296.3875 83.925 296.91876Q84.26875 297.4344 84.45625 298.1844Q84.64375 298.9344 84.64375 300.21564Q84.64375 301.73126 84.33125 302.65314Q84.03438 303.575 83.40938 304.09064Q82.8 304.59064 81.84688 304.59064Q80.6125 304.59064 79.89375 303.7Q79.05 302.6375 79.05 300.21564ZM80.12813 300.21564Q80.12813 302.325 80.62813 303.02814Q81.12813 303.73126 81.84688 303.73126Q82.58125 303.73126 83.06563 303.02814Q83.56563 302.325 83.56563 300.21564Q83.56563 298.09064 83.06563 297.40314Q82.58125 296.7 81.83125 296.7Q81.1125 296.7 80.675 297.3094Q80.12813 298.09064 80.12813 300.21564ZM86.05 300.21564Q86.05 298.6844 86.3625 297.7625Q86.675 296.825 87.28438 296.325Q87.90938 295.825 88.84688 295.825Q89.53438 295.825 90.05 296.10626Q90.58125 296.3875 90.925 296.91876Q91.26875 297.4344 91.45625 298.1844Q91.64375 298.9344 91.64375 300.21564Q91.64375 301.73126 91.33125 302.65314Q91.03438 303.575 90.40938 304.09064Q89.8 304.59064 88.84688 304.59064Q87.6125 304.59064 86.89375 303.7Q86.05 302.6375 86.05 300.21564ZM87.12813 300.21564Q87.12813 302.325 87.62813 303.02814Q88.12813 303.73126 88.84688 303.73126Q89.58125 303.73126 90.06563 303.02814Q90.56563 302.325 90.56563 300.21564Q90.56563 298.09064 90.06563 297.40314Q89.58125 296.7 88.83125 296.7Q88.1125 296.7 87.675 297.3094Q87.12813 298.09064 87.12813 300.21564Z" fill-rule="nonzero"/><path fill="#000000" d="M63.596874 239.8285L63.596874 240.84413L57.909374 240.84413Q57.909374 240.46913 58.034374 240.10976Q58.253124 239.53163 58.721874 238.96913Q59.20625 238.40663 60.1125 237.67226Q61.51875 236.516 62.003124 235.84413Q62.503124 235.17226 62.503124 234.5785Q62.503124 233.9535 62.05 233.53163Q61.596874 233.09413 60.878124 233.09413Q60.1125 233.09413 59.659374 233.54726Q59.20625 234.00038 59.190624 234.81288L58.1125 234.7035Q58.221874 233.48476 58.940624 232.85976Q59.675 232.21913 60.909374 232.21913Q62.14375 232.21913 62.8625 232.90663Q63.58125 233.59413 63.58125 234.60976Q63.58125 235.12538 63.3625 235.62538Q63.159374 236.10976 62.659374 236.67226Q62.175 237.21913 61.05 238.17226Q60.096874 238.96913 59.815624 239.266Q59.55 239.54726 59.378124 239.8285L63.596874 239.8285ZM65.05 236.60976Q65.05 235.0785 65.3625 234.15663Q65.675 233.21913 66.28438 232.71913Q66.90938 232.21913 67.84688 232.21913Q68.53438 232.21913 69.05 232.50038Q69.58125 232.78163 69.925 233.31288Q70.26875 233.8285 70.45625 234.5785Q70.64375 235.3285 70.64375 236.60976Q70.64375 238.12538 70.33125 239.04726Q70.03438 239.96913 69.40938 240.48476Q68.8 240.98476 67.84688 240.98476Q66.6125 240.98476 65.89375 240.09413Q65.05 239.03163 65.05 236.60976ZM66.12813 236.60976Q66.12813 238.71913 66.62813 239.42226Q67.12813 240.12538 67.84688 240.12538Q68.58125 240.12538 69.06563 239.42226Q69.56563 238.71913 69.56563 236.60976Q69.56563 234.48476 69.06563 233.79726Q68.58125 233.09413 67.83125 233.09413Q67.1125 233.09413 66.675 233.7035Q66.12813 234.48476 66.12813 236.60976ZM72.05 236.60976Q72.05 235.0785 72.3625 234.15663Q72.675 233.21913 73.28438 232.71913Q73.90938 232.21913 74.84688 232.21913Q75.53438 232.21913 76.05 232.50038Q76.58125 232.78163 76.925 233.31288Q77.26875 233.8285 77.45625 234.5785Q77.64375 235.3285 77.64375 236.60976Q77.64375 238.12538 77.33125 239.04726Q77.03438 239.96913 76.40938 240.48476Q75.8 240.98476 74.84688 240.98476Q73.6125 240.98476 72.89375 240.09413Q72.05 239.03163 72.05 236.60976ZM73.12813 236.60976Q73.12813 238.71913 73.62813 239.42226Q74.12813 240.12538 74.84688 240.12538Q75.58125 240.12538 76.06563 239.42226Q76.56563 238.71913 76.56563 236.60976Q76.56563 234.48476 76.06563 233.79726Q75.58125 233.09413 74.83125 233.09413Q74.1125 233.09413 73.675 233.7035Q73.12813 234.48476 73.12813 236.60976ZM79.05 236.60976Q79.05 235.0785 79.3625 234.15663Q79.675 233.21913 80.28438 232.71913Q80.90938 232.21913 81.84688 232.21913Q82.53438 232.21913 83.05 232.50038Q83.58125 232.78163 83.925 233.31288Q84.26875 233.8285 84.45625 234.5785Q84.64375 235.3285 84.64375 236.60976Q84.64375 238.12538 84.33125 239.04726Q84.03438 239.96913 83.40938 240.48476Q82.8 240.98476 81.84688 240.98476Q80.6125 240.98476 79.89375 240.09413Q79.05 239.03163 79.05 236.60976ZM80.12813 236.60976Q80.12813 238.71913 80.62813 239.42226Q81.12813 240.12538 81.84688 240.12538Q82.58125 240.12538 83.06563 239.42226Q83.56563 238.71913 83.56563 236.60976Q83.56563 234.48476 83.06563 233.79726Q82.58125 233.09413 81.83125 233.09413Q81.1125 233.09413 80.675 233.7035Q80.12813 234.48476 80.12813 236.60976ZM86.05 236.60976Q86.05 235.0785 86.3625 234.15663Q86.675 233.21913 87.28438 232.71913Q87.90938 232.21913 88.84688 232.21913Q89.53438 232.21913 90.05 232.50038Q90.58125 232.78163 90.925 233.31288Q91.26875 233.8285 91.45625 234.5785Q91.64375 235.3285 91.64375 236.60976Q91.64375 238.12538 91.33125 239.04726Q91.03438 239.96913 90.40938 240.48476Q89.8 240.98476 88.84688 240.98476Q87.6125 240.98476 86.89375 240.09413Q86.05 239.03163 86.05 236.60976ZM87.12813 236.60976Q87.12813 238.71913 87.62813 239.42226Q88.12813 240.12538 88.84688 240.12538Q89.58125 240.12538 90.06563 239.42226Q90.56563 238.71913 90.56563 236.60976Q90.56563 234.48476 90.06563 233.79726Q89.58125 233.09413 88.83125 233.09413Q88.1125 233.09413 87.675 233.7035Q87.12813 234.48476 87.12813 236.60976Z" fill-rule="nonzero"/><path fill="#000000" d="M61.425 177.23827L61.425 175.17577L57.70625 175.17577L57.70625 174.20702L61.628124 168.64452L62.4875 168.64452L62.4875 174.20702L63.64375 174.20702L63.64375 175.17577L62.4875 175.17577L62.4875 177.23827L61.425 177.23827ZM61.425 174.20702L61.425 170.34764L58.7375 174.20702L61.425 174.20702ZM65.05 173.00389Q65.05 171.47264 65.3625 170.55077Q65.675 169.61327 66.28438 169.11327Q66.90938 168.61327 67.84688 168.61327Q68.53438 168.61327 69.05 168.89452Q69.58125 169.17577 69.925 169.70702Q70.26875 170.22264 70.45625 170.97264Q70.64375 171.72264 70.64375 173.00389Q70.64375 174.51952 70.33125 175.44139Q70.03438 176.36327 69.40938 176.87889Q68.8 177.37889 67.84688 177.37889Q66.6125 177.37889 65.89375 176.48827Q65.05 175.42577 65.05 173.00389ZM66.12813 173.00389Q66.12813 175.11327 66.62813 175.81639Q67.12813 176.51952 67.84688 176.51952Q68.58125 176.51952 69.06563 175.81639Q69.56563 175.11327 69.56563 173.00389Q69.56563 170.87889 69.06563 170.19139Q68.58125 169.48827 67.83125 169.48827Q67.1125 169.48827 66.675 170.09764Q66.12813 170.87889 66.12813 173.00389ZM72.05 173.00389Q72.05 171.47264 72.3625 170.55077Q72.675 169.61327 73.28438 169.11327Q73.90938 168.61327 74.84688 168.61327Q75.53438 168.61327 76.05 168.89452Q76.58125 169.17577 76.925 169.70702Q77.26875 170.22264 77.45625 170.97264Q77.64375 171.72264 77.64375 173.00389Q77.64375 174.51952 77.33125 175.44139Q77.03438 176.36327 76.40938 176.87889Q75.8 177.37889 74.84688 177.37889Q73.6125 177.37889 72.89375 176.48827Q72.05 175.42577 72.05 173.00389ZM73.12813 173.00389Q73.12813 175.11327 73.62813 175.81639Q74.12813 176.51952 74.84688 176.51952Q75.58125 176.51952 76.06563 175.81639Q76.56563 175.11327 76.56563 173.00389Q76.56563 170.87889 76.06563 170.19139Q75.58125 169.48827 74.83125 169.48827Q74.1125 169.48827 73.675 170.09764Q73.12813 170.87889 73.12813 173.00389ZM79.05 173.00389Q79.05 171.47264 79.3625 170.55077Q79.675 169.61327 80.28438 169.11327Q80.90938 168.61327 81.84688 168.61327Q82.53438 168.61327 83.05 168.89452Q83.58125 169.17577 83.925 169.70702Q84.26875 170.22264 84.45625 170.97264Q84.64375 171.72264 84.64375 173.00389Q84.64375 174.51952 84.33125 175.44139Q84.03438 176.36327 83.40938 176.87889Q82.8 177.37889 81.84688 177.37889Q80.6125 177.37889 79.89375 176.48827Q79.05 175.42577 79.05 173.00389ZM80.12813 173.00389Q80.12813 175.11327 80.62813 175.81639Q81.12813 176.51952 81.84688 176.51952Q82.58125 176.51952 83.06563 175.81639Q83.56563 175.11327 83.56563 173.00389Q83.56563 170.87889 83.06563 170.19139Q82.58125 169.48827 81.83125 169.48827Q81.1125 169.48827 80.675 170.09764Q80.12813 170.87889 80.12813 173.00389ZM86.05 173.00389Q86.05 171.47264 86.3625 170.55077Q86.675 169.61327 87.28438 169.11327Q87.90938 168.61327 88.84688 168.61327Q89.53438 168.61327 90.05 168.89452Q90.58125 169.17577 90.925 169.70702Q91.26875 170.22264 91.45625 170.97264Q91.64375 171.72264 91.64375 173.00389Q91.64375 174.51952 91.33125 175.44139Q91.03438 176.36327 90.40938 176.87889Q89.8 177.37889 88.84688 177.37889Q87.6125 177.37889 86.89375 176.48827Q86.05 175.42577 86.05 173.00389ZM87.12813 173.00389Q87.12813 175.11327 87.62813 175.81639Q88.12813 176.51952 88.84688 176.51952Q89.58125 176.51952 90.06563 175.81639Q90.56563 175.11327 90.56563 173.00389Q90.56563 170.87889 90.06563 170.19139Q89.58125 169.48827 88.83125 169.48827Q88.1125 169.48827 87.675 170.09764Q87.12813 170.87889 87.12813 173.00389Z" fill-rule="nonzero"/><path fill="#000000" d="M63.51875 133.54683L62.471874 133.62495Q62.33125 132.99995 62.08125 132.7187Q61.64375 132.26558 61.01875 132.26558Q60.51875 132.26558 60.128124 132.54683Q59.64375 132.92183 59.346874 133.62495Q59.065624 134.31245 59.05 135.5937Q59.425 135.01558 59.971874 134.73433Q60.534374 134.45308 61.14375 134.45308Q62.190624 134.45308 62.925 135.23433Q63.675 136.01558 63.675 137.23433Q63.675 138.04683 63.315624 138.74995Q62.971874 139.43745 62.3625 139.81245Q61.753124 140.17183 60.9875 140.17183Q59.659374 140.17183 58.83125 139.20308Q58.003124 138.23433 58.003124 136.01558Q58.003124 133.51558 58.925 132.39058Q59.721874 131.4062 61.08125 131.4062Q62.096874 131.4062 62.7375 131.98433Q63.39375 132.54683 63.51875 133.54683ZM59.221874 137.24995Q59.221874 137.79683 59.440624 138.29683Q59.675 138.7812 60.08125 139.04683Q60.503124 139.31245 60.971874 139.31245Q61.628124 139.31245 62.1125 138.7812Q62.596874 138.23433 62.596874 137.31245Q62.596874 136.42183 62.1125 135.9062Q61.64375 135.39058 60.925 135.39058Q60.20625 135.39058 59.70625 135.9062Q59.221874 136.42183 59.221874 137.24995ZM65.05 135.79683Q65.05 134.26558 65.3625 133.3437Q65.675 132.4062 66.28438 131.9062Q66.90938 131.4062 67.84688 131.4062Q68.53438 131.4062 69.05 131.68745Q69.58125 131.9687 69.925 132.49995Q70.26875 133.01558 70.45625 133.76558Q70.64375 134.51558 70.64375 135.79683Q70.64375 137.31245 70.33125 138.23433Q70.03438 139.1562 69.40938 139.67183Q68.8 140.17183 67.84688 140.17183Q66.6125 140.17183 65.89375 139.2812Q65.05 138.2187 65.05 135.79683ZM66.12813 135.79683Q66.12813 137.9062 66.62813 138.60933Q67.12813 139.31245 67.84688 139.31245Q68.58125 139.31245 69.06563 138.60933Q69.56563 137.9062 69.56563 135.79683Q69.56563 133.67183 69.06563 132.98433Q68.58125 132.2812 67.83125 132.2812Q67.1125 132.2812 66.675 132.89058Q66.12813 133.67183 66.12813 135.79683ZM72.05 135.79683Q72.05 134.26558 72.3625 133.3437Q72.675 132.4062 73.28438 131.9062Q73.90938 131.4062 74.84688 131.4062Q75.53438 131.4062 76.05 131.68745Q76.58125 131.9687 76.925 132.49995Q77.26875 133.01558 77.45625 133.76558Q77.64375 134.51558 77.64375 135.79683Q77.64375 137.31245 77.33125 138.23433Q77.03438 139.1562 76.40938 139.67183Q75.8 140.17183 74.84688 140.17183Q73.6125 140.17183 72.89375 139.2812Q72.05 138.2187 72.05 135.79683ZM73.12813 135.79683Q73.12813 137.9062 73.62813 138.60933Q74.12813 139.31245 74.84688 139.31245Q75.58125 139.31245 76.06563 138.60933Q76.56563 137.9062 76.56563 135.79683Q76.56563 133.67183 76.06563 132.98433Q75.58125 132.2812 74.83125 132.2812Q74.1125 132.2812 73.675 132.89058Q73.12813 133.67183 73.12813 135.79683ZM79.05 135.79683Q79.05 134.26558 79.3625 133.3437Q79.675 132.4062 80.28438 131.9062Q80.90938 131.4062 81.84688 131.4062Q82.53438 131.4062 83.05 131.68745Q83.58125 131.9687 83.925 132.49995Q84.26875 133.01558 84.45625 133.76558Q84.64375 134.51558 84.64375 135.79683Q84.64375 137.31245 84.33125 138.23433Q84.03438 139.1562 83.40938 139.67183Q82.8 140.17183 81.84688 140.17183Q80.6125 140.17183 79.89375 139.2812Q79.05 138.2187 79.05 135.79683ZM80.12813 135.79683Q80.12813 137.9062 80.62813 138.60933Q81.12813 139.31245 81.84688 139.31245Q82.58125 139.31245 83.06563 138.60933Q83.56563 137.9062 83.56563 135.79683Q83.56563 133.67183 83.06563 132.98433Q82.58125 132.2812 81.83125 132.2812Q81.1125 132.2812 80.675 132.89058Q80.12813 133.67183 80.12813 135.79683ZM86.05 135.79683Q86.05 134.26558 86.3625 133.3437Q86.675 132.4062 87.28438 131.9062Q87.90938 131.4062 88.84688 131.4062Q89.53438 131.4062 90.05 131.68745Q90.58125 131.9687 90.925 132.49995Q91.26875 133.01558 91.45625 133.76558Q91.64375 134.51558 91.64375 135.79683Q91.64375 137.31245 91.33125 138.23433Q91.03438 139.1562 90.40938 139.67183Q89.8 140.17183 88.84688 140.17183Q87.6125 140.17183 86.89375 139.2812Q86.05 138.2187 86.05 135.79683ZM87.12813 135.79683Q87.12813 137.9062 87.62813 138.60933Q88.12813 139.31245 88.84688 139.31245Q89.58125 139.31245 90.06563 138.60933Q90.56563 137.9062 90.56563 135.79683Q90.56563 133.67183 90.06563 132.98433Q89.58125 132.2812 88.83125 132.2812Q88.1125 132.2812 87.675 132.89058Q87.12813 133.67183 87.12813 135.79683Z" fill-rule="nonzero"/><path fill="#000000" d="M59.675 108.976135Q59.01875 108.726135 58.690624 108.288635Q58.378124 107.83551 58.378124 107.226135Q58.378124 106.288635 59.05 105.64801Q59.7375 105.007385 60.846874 105.007385Q61.971874 105.007385 62.659374 105.663635Q63.346874 106.319885 63.346874 107.257385Q63.346874 107.851135 63.034374 108.288635Q62.721874 108.726135 62.08125 108.976135Q62.878124 109.226135 63.284374 109.80426Q63.690624 110.382385 63.690624 111.17926Q63.690624 112.27301 62.909374 113.02301Q62.14375 113.77301 60.8625 113.77301Q59.596874 113.77301 58.815624 113.02301Q58.034374 112.27301 58.034374 111.14801Q58.034374 110.30426 58.45625 109.74176Q58.89375 109.17926 59.675 108.976135ZM59.45625 107.17926Q59.45625 107.788635 59.846874 108.17926Q60.253124 108.569885 60.878124 108.569885Q61.4875 108.569885 61.878124 108.194885Q62.26875 107.80426 62.26875 107.24176Q62.26875 106.663635 61.8625 106.27301Q61.45625 105.86676 60.8625 105.86676Q60.253124 105.86676 59.846874 106.257385Q59.45625 106.64801 59.45625 107.17926ZM59.128124 111.14801Q59.128124 111.601135 59.33125 112.02301Q59.55 112.444885 59.971874 112.67926Q60.39375 112.913635 60.878124 112.913635Q61.628124 112.913635 62.1125 112.42926Q62.6125 111.944885 62.6125 111.194885Q62.6125 110.42926 62.1125 109.92926Q61.6125 109.42926 60.846874 109.42926Q60.096874 109.42926 59.6125 109.92926Q59.128124 110.413635 59.128124 111.14801ZM65.05 109.39801Q65.05 107.86676 65.3625 106.944885Q65.675 106.007385 66.28438 105.507385Q66.90938 105.007385 67.84688 105.007385Q68.53438 105.007385 69.05 105.288635Q69.58125 105.569885 69.925 106.101135Q70.26875 106.61676 70.45625 107.36676Q70.64375 108.11676 70.64375 109.39801Q70.64375 110.913635 70.33125 111.83551Q70.03438 112.757385 69.40938 113.27301Q68.8 113.77301 67.84688 113.77301Q66.6125 113.77301 65.89375 112.882385Q65.05 111.819885 65.05 109.39801ZM66.12813 109.39801Q66.12813 111.507385 66.62813 112.21051Q67.12813 112.913635 67.84688 112.913635Q68.58125 112.913635 69.06563 112.21051Q69.56563 111.507385 69.56563 109.39801Q69.56563 107.27301 69.06563 106.58551Q68.58125 105.882385 67.83125 105.882385Q67.1125 105.882385 66.675 106.49176Q66.12813 107.27301 66.12813 109.39801ZM72.05 109.39801Q72.05 107.86676 72.3625 106.944885Q72.675 106.007385 73.28438 105.507385Q73.90938 105.007385 74.84688 105.007385Q75.53438 105.007385 76.05 105.288635Q76.58125 105.569885 76.925 106.101135Q77.26875 106.61676 77.45625 107.36676Q77.64375 108.11676 77.64375 109.39801Q77.64375 110.913635 77.33125 111.83551Q77.03438 112.757385 76.40938 113.27301Q75.8 113.77301 74.84688 113.77301Q73.6125 113.77301 72.89375 112.882385Q72.05 111.819885 72.05 109.39801ZM73.12813 109.39801Q73.12813 111.507385 73.62813 112.21051Q74.12813 112.913635 74.84688 112.913635Q75.58125 112.913635 76.06563 112.21051Q76.56563 111.507385 76.56563 109.39801Q76.56563 107.27301 76.06563 106.58551Q75.58125 105.882385 74.83125 105.882385Q74.1125 105.882385 73.675 106.49176Q73.12813 107.27301 73.12813 109.39801ZM79.05 109.39801Q79.05 107.86676 79.3625 106.944885Q79.675 106.007385 80.28438 105.507385Q80.90938 105.007385 81.84688 105.007385Q82.53438 105.007385 83.05 105.288635Q83.58125 105.569885 83.925 106.101135Q84.26875 106.61676 84.45625 107.36676Q84.64375 108.11676 84.64375 109.39801Q84.64375 110.913635 84.33125 111.83551Q84.03438 112.757385 83.40938 113.27301Q82.8 113.77301 81.84688 113.77301Q80.6125 113.77301 79.89375 112.882385Q79.05 111.819885 79.05 109.39801ZM80.12813 109.39801Q80.12813 111.507385 80.62813 112.21051Q81.12813 112.913635 81.84688 112.913635Q82.58125 112.913635 83.06563 112.21051Q83.56563 111.507385 83.56563 109.39801Q83.56563 107.27301 83.06563 106.58551Q82.58125 105.882385 81.83125 105.882385Q81.1125 105.882385 80.675 106.49176Q80.12813 107.27301 80.12813 109.39801ZM86.05 109.39801Q86.05 107.86676 86.3625 106.944885Q86.675 106.007385 87.28438 105.507385Q87.90938 105.007385 88.84688 105.007385Q89.53438 105.007385 90.05 105.288635Q90.58125 105.569885 90.925 106.101135Q91.26875 106.61676 91.45625 107.36676Q91.64375 108.11676 91.64375 109.39801Q91.64375 110.913635 91.33125 111.83551Q91.03438 112.757385 90.40938 113.27301Q89.8 113.77301 88.84688 113.77301Q87.6125 113.77301 86.89375 112.882385Q86.05 111.819885 86.05 109.39801ZM87.12813 109.39801Q87.12813 111.507385 87.62813 112.21051Q88.12813 112.913635 88.84688 112.913635Q89.58125 112.913635 90.06563 112.21051Q90.56563 111.507385 90.56563 109.39801Q90.56563 107.27301 90.06563 106.58551Q89.58125 105.882385 88.83125 105.882385Q88.1125 105.882385 87.675 106.49176Q87.12813 107.27301 87.12813 109.39801Z" fill-rule="nonzero"/><path fill="#000000" d="M55.01875 93.15587L53.971874 93.15587L53.971874 86.43712Q53.58125 86.79649 52.95625 87.17149Q52.346874 87.53087 51.8625 87.70274L51.8625 86.68712Q52.7375 86.26524 53.39375 85.68712Q54.065624 85.09337 54.346874 84.53087L55.01875 84.53087L55.01875 93.15587ZM58.05 88.92149Q58.05 87.39024 58.3625 86.46837Q58.675 85.53087 59.284374 85.03087Q59.909374 84.53087 60.846874 84.53087Q61.534374 84.53087 62.05 84.81212Q62.58125 85.09337 62.925 85.62462Q63.26875 86.14024 63.45625 86.89024Q63.64375 87.64024 63.64375 88.92149Q63.64375 90.43712 63.33125 91.35899Q63.034374 92.28087 62.409374 92.79649Q61.8 93.29649 60.846874 93.29649Q59.6125 93.29649 58.89375 92.40587Q58.05 91.34337 58.05 88.92149ZM59.128124 88.92149Q59.128124 91.03087 59.628124 91.73399Q60.128124 92.43712 60.846874 92.43712Q61.58125 92.43712 62.065624 91.73399Q62.565624 91.03087 62.565624 88.92149Q62.565624 86.79649 62.065624 86.10899Q61.58125 85.40587 60.83125 85.40587Q60.1125 85.40587 59.675 86.01524Q59.128124 86.79649 59.128124 88.92149ZM65.05 88.92149Q65.05 87.39024 65.3625 86.46837Q65.675 85.53087 66.28438 85.03087Q66.90938 84.53087 67.84688 84.53087Q68.53438 84.53087 69.05 84.81212Q69.58125 85.09337 69.925 85.62462Q70.26875 86.14024 70.45625 86.89024Q70.64375 87.64024 70.64375 88.92149Q70.64375 90.43712 70.33125 91.35899Q70.03438 92.28087 69.40938 92.79649Q68.8 93.29649 67.84688 93.29649Q66.6125 93.29649 65.89375 92.40587Q65.05 91.34337 65.05 88.92149ZM66.12813 88.92149Q66.12813 91.03087 66.62813 91.73399Q67.12813 92.43712 67.84688 92.43712Q68.58125 92.43712 69.06563 91.73399Q69.56563 91.03087 69.56563 88.92149Q69.56563 86.79649 69.06563 86.10899Q68.58125 85.40587 67.83125 85.40587Q67.1125 85.40587 66.675 86.01524Q66.12813 86.79649 66.12813 88.92149ZM72.05 88.92149Q72.05 87.39024 72.3625 86.46837Q72.675 85.53087 73.28438 85.03087Q73.90938 84.53087 74.84688 84.53087Q75.53438 84.53087 76.05 84.81212Q76.58125 85.09337 76.925 85.62462Q77.26875 86.14024 77.45625 86.89024Q77.64375 87.64024 77.64375 88.92149Q77.64375 90.43712 77.33125 91.35899Q77.03438 92.28087 76.40938 92.79649Q75.8 93.29649 74.84688 93.29649Q73.6125 93.29649 72.89375 92.40587Q72.05 91.34337 72.05 88.92149ZM73.12813 88.92149Q73.12813 91.03087 73.62813 91.73399Q74.12813 92.43712 74.84688 92.43712Q75.58125 92.43712 76.06563 91.73399Q76.56563 91.03087 76.56563 88.92149Q76.56563 86.79649 76.06563 86.10899Q75.58125 85.40587 74.83125 85.40587Q74.1125 85.40587 73.675 86.01524Q73.12813 86.79649 73.12813 88.92149ZM79.05 88.92149Q79.05 87.39024 79.3625 86.46837Q79.675 85.53087 80.28438 85.03087Q80.90938 84.53087 81.84688 84.53087Q82.53438 84.53087 83.05 84.81212Q83.58125 85.09337 83.925 85.62462Q84.26875 86.14024 84.45625 86.89024Q84.64375 87.64024 84.64375 88.92149Q84.64375 90.43712 84.33125 91.35899Q84.03438 92.28087 83.40938 92.79649Q82.8 93.29649 81.84688 93.29649Q80.6125 93.29649 79.89375 92.40587Q79.05 91.34337 79.05 88.92149ZM80.12813 88.92149Q80.12813 91.03087 80.62813 91.73399Q81.12813 92.43712 81.84688 92.43712Q82.58125 92.43712 83.06563 91.73399Q83.56563 91.03087 83.56563 88.92149Q83.56563 86.79649 83.06563 86.10899Q82.58125 85.40587 81.83125 85.40587Q81.1125 85.40587 80.675 86.01524Q80.12813 86.79649 80.12813 88.92149ZM86.05 88.92149Q86.05 87.39024 86.3625 86.46837Q86.675 85.53087 87.28438 85.03087Q87.90938 84.53087 88.84688 84.53087Q89.53438 84.53087 90.05 84.81212Q90.58125 85.09337 90.925 85.62462Q91.26875 86.14024 91.45625 86.89024Q91.64375 87.64024 91.64375 88.92149Q91.64375 90.43712 91.33125 91.35899Q91.03438 92.28087 90.40938 92.79649Q89.8 93.29649 88.84688 93.29649Q87.6125 93.29649 86.89375 92.40587Q86.05 91.34337 86.05 88.92149ZM87.12813 88.92149Q87.12813 91.03087 87.62813 91.73399Q88.12813 92.43712 88.84688 92.43712Q89.58125 92.43712 90.06563 91.73399Q90.56563 91.03087 90.56563 88.92149Q90.56563 86.79649 90.06563 86.10899Q89.58125 85.40587 88.83125 85.40587Q88.1125 85.40587 87.675 86.01524Q87.12813 86.79649 87.12813 88.92149Z" fill-rule="nonzero"/><path fill="#000000" d="M56.596874 28.534374L56.596874 29.55L50.909374 29.55Q50.909374 29.175 51.034374 28.815624Q51.253124 28.2375 51.721874 27.675Q52.20625 27.1125 53.1125 26.378124Q54.51875 25.221874 55.003124 24.55Q55.503124 23.878124 55.503124 23.284374Q55.503124 22.659374 55.05 22.2375Q54.596874 21.8 53.878124 21.8Q53.1125 21.8 52.659374 22.253124Q52.20625 22.70625 52.190624 23.51875L51.1125 23.409374Q51.221874 22.190624 51.940624 21.565624Q52.675 20.925 53.909374 20.925Q55.14375 20.925 55.8625 21.6125Q56.58125 22.3 56.58125 23.315624Q56.58125 23.83125 56.3625 24.33125Q56.159374 24.815624 55.659374 25.378124Q55.175 25.925 54.05 26.878124Q53.096874 27.675 52.815624 27.971874Q52.55 28.253124 52.378124 28.534374L56.596874 28.534374ZM58.05 25.315624Q58.05 23.784374 58.3625 22.8625Q58.675 21.925 59.284374 21.425Q59.909374 20.925 60.846874 20.925Q61.534374 20.925 62.05 21.20625Q62.58125 21.4875 62.925 22.01875Q63.26875 22.534374 63.45625 23.284374Q63.64375 24.034374 63.64375 25.315624Q63.64375 26.83125 63.33125 27.753124Q63.034374 28.675 62.409374 29.190624Q61.8 29.690624 60.846874 29.690624Q59.6125 29.690624 58.89375 28.8Q58.05 27.7375 58.05 25.315624ZM59.128124 25.315624Q59.128124 27.425 59.628124 28.128124Q60.128124 28.83125 60.846874 28.83125Q61.58125 28.83125 62.065624 28.128124Q62.565624 27.425 62.565624 25.315624Q62.565624 23.190624 62.065624 22.503124Q61.58125 21.8 60.83125 21.8Q60.1125 21.8 59.675 22.409374Q59.128124 23.190624 59.128124 25.315624ZM65.05 25.315624Q65.05 23.784374 65.3625 22.8625Q65.675 21.925 66.28438 21.425Q66.90938 20.925 67.84688 20.925Q68.53438 20.925 69.05 21.20625Q69.58125 21.4875 69.925 22.01875Q70.26875 22.534374 70.45625 23.284374Q70.64375 24.034374 70.64375 25.315624Q70.64375 26.83125 70.33125 27.753124Q70.03438 28.675 69.40938 29.190624Q68.8 29.690624 67.84688 29.690624Q66.6125 29.690624 65.89375 28.8Q65.05 27.7375 65.05 25.315624ZM66.12813 25.315624Q66.12813 27.425 66.62813 28.128124Q67.12813 28.83125 67.84688 28.83125Q68.58125 28.83125 69.06563 28.128124Q69.56563 27.425 69.56563 25.315624Q69.56563 23.190624 69.06563 22.503124Q68.58125 21.8 67.83125 21.8Q67.1125 21.8 66.675 22.409374Q66.12813 23.190624 66.12813 25.315624ZM72.05 25.315624Q72.05 23.784374 72.3625 22.8625Q72.675 21.925 73.28438 21.425Q73.90938 20.925 74.84688 20.925Q75.53438 20.925 76.05 21.20625Q76.58125 21.4875 76.925 22.01875Q77.26875 22.534374 77.45625 23.284374Q77.64375 24.034374 77.64375 25.315624Q77.64375 26.83125 77.33125 27.753124Q77.03438 28.675 76.40938 29.190624Q75.8 29.690624 74.84688 29.690624Q73.6125 29.690624 72.89375 28.8Q72.05 27.7375 72.05 25.315624ZM73.12813 25.315624Q73.12813 27.425 73.62813 28.128124Q74.12813 28.83125 74.84688 28.83125Q75.58125 28.83125 76.06563 28.128124Q76.56563 27.425 76.56563 25.315624Q76.56563 23.190624 76.06563 22.503124Q75.58125 21.8 74.83125 21.8Q74.1125 21.8 73.675 22.409374Q73.12813 23.190624 73.12813 25.315624ZM79.05 25.315624Q79.05 23.784374 79.3625 22.8625Q79.675 21.925 80.28438 21.425Q80.90938 20.925 81.84688 20.925Q82.53438 20.925 83.05 21.20625Q83.58125 21.4875 83.925 22.01875Q84.26875 22.534374 84.45625 23.284374Q84.64375 24.034374 84.64375 25.315624Q84.64375 26.83125 84.33125 27.753124Q84.03438 28.675 83.40938 29.190624Q82.8 29.690624 81.84688 29.690624Q80.6125 29.690624 79.89375 28.8Q79.05 27.7375 79.05 25.315624ZM80.12813 25.315624Q80.12813 27.425 80.62813 28.128124Q81.12813 28.83125 81.84688 28.83125Q82.58125 28.83125 83.06563 28.128124Q83.56563 27.425 83.56563 25.315624Q83.56563 23.190624 83.06563 22.503124Q82.58125 21.8 81.83125 21.8Q81.1125 21.8 80.675 22.409374Q80.12813 23.190624 80.12813 25.315624ZM86.05 25.315624Q86.05 23.784374 86.3625 22.8625Q86.675 21.925 87.28438 21.425Q87.90938 20.925 88.84688 20.925Q89.53438 20.925 90.05 21.20625Q90.58125 21.4875 90.925 22.01875Q91.26875 22.534374 91.45625 23.284374Q91.64375 24.034374 91.64375 25.315624Q91.64375 26.83125 91.33125 27.753124Q91.03438 28.675 90.40938 29.190624Q89.8 29.690624 88.84688 29.690624Q87.6125 29.690624 86.89375 28.8Q86.05 27.7375 86.05 25.315624ZM87.12813 25.315624Q87.12813 27.425 87.62813 28.128124Q88.12813 28.83125 88.84688 28.83125Q89.58125 28.83125 90.06563 28.128124Q90.56563 27.425 90.56563 25.315624Q90.56563 23.190624 90.06563 22.503124Q89.58125 21.8 88.83125 21.8Q88.1125 21.8 87.675 22.409374Q87.12813 23.190624 87.12813 25.315624Z" fill-rule="nonzero"/><path fill="#000000" d="M156.47664 313.21564Q156.47664 311.6844 156.78914 310.7625Q157.10164 309.825 157.71101 309.325Q158.33601 308.825 159.27351 308.825Q159.96101 308.825 160.47664 309.10626Q161.00789 309.3875 161.35164 309.91876Q161.69539 310.4344 161.88289 311.1844Q162.07039 311.9344 162.07039 313.21564Q162.07039 314.73126 161.75789 315.65314Q161.46101 316.575 160.83601 317.09064Q160.22664 317.59064 159.27351 317.59064Q158.03914 317.59064 157.32039 316.7Q156.47664 315.6375 156.47664 313.21564ZM157.55476 313.21564Q157.55476 315.325 158.05476 316.02814Q158.55476 316.73126 159.27351 316.73126Q160.00789 316.73126 160.49226 316.02814Q160.99226 315.325 160.99226 313.21564Q160.99226 311.09064 160.49226 310.40314Q160.00789 309.7 159.25789 309.7Q158.53914 309.7 158.10164 310.3094Q157.55476 311.09064 157.55476 313.21564Z" fill-rule="nonzero"/><path fill="#000000" d="M247.20706 317.45L246.16019 317.45L246.16019 310.73126Q245.76956 311.09064 245.14456 311.46564Q244.53519 311.825 244.05081 311.9969L244.05081 310.98126Q244.92581 310.5594 245.58206 309.98126Q246.25394 309.3875 246.53519 308.825L247.20706 308.825L247.20706 317.45ZM250.23831 313.21564Q250.23831 311.6844 250.55081 310.7625Q250.86331 309.825 251.47269 309.325Q252.09769 308.825 253.03519 308.825Q253.72269 308.825 254.23831 309.10626Q254.76956 309.3875 255.11331 309.91876Q255.45706 310.4344 255.64456 311.1844Q255.83206 311.9344 255.83206 313.21564Q255.83206 314.73126 255.51956 315.65314Q255.22269 316.575 254.59769 317.09064Q253.98831 317.59064 253.03519 317.59064Q251.80081 317.59064 251.08206 316.7Q250.23831 315.6375 250.23831 313.21564ZM251.31644 313.21564Q251.31644 315.325 251.81644 316.02814Q252.31644 316.73126 253.03519 316.73126Q253.76956 316.73126 254.25394 316.02814Q254.75394 315.325 254.75394 313.21564Q254.75394 311.09064 254.25394 310.40314Q253.76956 309.7 253.01956 309.7Q252.30081 309.7 251.86331 310.3094Q251.31644 311.09064 251.31644 313.21564Z" fill-rule="nonzero"/><path fill="#000000" d="M333.96875 317.45L332.92188 317.45L332.92188 310.73126Q332.53125 311.09064 331.90625 311.46564Q331.29688 311.825 330.8125 311.9969L330.8125 310.98126Q331.6875 310.5594 332.34375 309.98126Q333.01562 309.3875 333.29688 308.825L333.96875 308.825L333.96875 317.45ZM337.0 313.21564Q337.0 311.6844 337.3125 310.7625Q337.625 309.825 338.23438 309.325Q338.85938 308.825 339.79688 308.825Q340.48438 308.825 341.0 309.10626Q341.53125 309.3875 341.875 309.91876Q342.21875 310.4344 342.40625 311.1844Q342.59375 311.9344 342.59375 313.21564Q342.59375 314.73126 342.28125 315.65314Q341.98438 316.575 341.35938 317.09064Q340.75 317.59064 339.79688 317.59064Q338.5625 317.59064 337.84375 316.7Q337.0 315.6375 337.0 313.21564ZM338.07812 313.21564Q338.07812 315.325 338.57812 316.02814Q339.07812 316.73126 339.79688 316.73126Q340.53125 316.73126 341.01562 316.02814Q341.51562 315.325 341.51562 313.21564Q341.51562 311.09064 341.01562 310.40314Q340.53125 309.7 339.78125 309.7Q339.0625 309.7 338.625 310.3094Q338.07812 311.09064 338.07812 313.21564ZM344.0 313.21564Q344.0 311.6844 344.3125 310.7625Q344.625 309.825 345.23438 309.325Q345.85938 308.825 346.79688 308.825Q347.48438 308.825 348.0 309.10626Q348.53125 309.3875 348.875 309.91876Q349.21875 310.4344 349.40625 311.1844Q349.59375 311.9344 349.59375 313.21564Q349.59375 314.73126 349.28125 315.65314Q348.98438 316.575 348.35938 317.09064Q347.75 317.59064 346.79688 317.59064Q345.5625 317.59064 344.84375 316.7Q344.0 315.6375 344.0 313.21564ZM345.07812 313.21564Q345.07812 315.325 345.57812 316.02814Q346.07812 316.73126 346.79688 316.73126Q347.53125 316.73126 348.01562 316.02814Q348.51562 315.325 348.51562 313.21564Q348.51562 311.09064 348.01562 310.40314Q347.53125 309.7 346.78125 309.7Q346.0625 309.7 345.625 310.3094Q345.07812 311.09064 345.07812 313.21564Z" fill-rule="nonzero"/><path fill="#000000" d="M420.73044 317.45L419.68356 317.45L419.68356 310.73126Q419.29294 311.09064 418.66794 311.46564Q418.05856 311.825 417.5742 311.9969L417.5742 310.98126Q418.4492 310.5594 419.10544 309.98126Q419.7773 309.3875 420.05856 308.825L420.73044 308.825L420.73044 317.45ZM423.7617 313.21564Q423.7617 311.6844 424.0742 310.7625Q424.3867 309.825 424.99606 309.325Q425.62106 308.825 426.55856 308.825Q427.24606 308.825 427.7617 309.10626Q428.29294 309.3875 428.6367 309.91876Q428.98044 310.4344 429.16794 311.1844Q429.35544 311.9344 429.35544 313.21564Q429.35544 314.73126 429.04294 315.65314Q428.74606 316.575 428.12106 317.09064Q427.5117 317.59064 426.55856 317.59064Q425.3242 317.59064 424.60544 316.7Q423.7617 315.6375 423.7617 313.21564ZM424.8398 313.21564Q424.8398 315.325 425.3398 316.02814Q425.8398 316.73126 426.55856 316.73126Q427.29294 316.73126 427.7773 316.02814Q428.2773 315.325 428.2773 313.21564Q428.2773 311.09064 427.7773 310.40314Q427.29294 309.7 426.54294 309.7Q425.8242 309.7 425.3867 310.3094Q424.8398 311.09064 424.8398 313.21564ZM430.7617 313.21564Q430.7617 311.6844 431.0742 310.7625Q431.3867 309.825 431.99606 309.325Q432.62106 308.825 433.55856 308.825Q434.24606 308.825 434.7617 309.10626Q435.29294 309.3875 435.6367 309.91876Q435.98044 310.4344 436.16794 311.1844Q436.35544 311.9344 436.35544 313.21564Q436.35544 314.73126 436.04294 315.65314Q435.74606 316.575 435.12106 317.09064Q434.5117 317.59064 433.55856 317.59064Q432.3242 317.59064 431.60544 316.7Q430.7617 315.6375 430.7617 313.21564ZM431.8398 313.21564Q431.8398 315.325 432.3398 316.02814Q432.8398 316.73126 433.55856 316.73126Q434.29294 316.73126 434.7773 316.02814Q435.2773 315.325 435.2773 313.21564Q435.2773 311.09064 434.7773 310.40314Q434.29294 309.7 433.54294 309.7Q432.8242 309.7 432.3867 310.3094Q431.8398 311.09064 431.8398 313.21564ZM437.7617 313.21564Q437.7617 311.6844 438.0742 310.7625Q438.3867 309.825 438.99606 309.325Q439.62106 308.825 440.55856 308.825Q441.24606 308.825 441.7617 309.10626Q442.29294 309.3875 442.6367 309.91876Q442.98044 310.4344 443.16794 311.1844Q443.35544 311.9344 443.35544 313.21564Q443.35544 314.73126 443.04294 315.65314Q442.74606 316.575 442.12106 317.09064Q441.5117 317.59064 440.55856 317.59064Q439.3242 317.59064 438.60544 316.7Q437.7617 315.6375 437.7617 313.21564ZM438.8398 313.21564Q438.8398 315.325 439.3398 316.02814Q439.8398 316.73126 440.55856 316.73126Q441.29294 316.73126 441.7773 316.02814Q442.2773 315.325 442.2773 313.21564Q442.2773 311.09064 441.7773 310.40314Q441.29294 309.7 440.54294 309.7Q439.8242 309.7 439.3867 310.3094Q438.8398 311.09064 438.8398 313.21564Z" fill-rule="nonzero"/><path fill="#000000" d="M507.49213 317.45L506.44525 317.45L506.44525 310.73126Q506.05463 311.09064 505.42963 311.46564Q504.82025 311.825 504.33588 311.9969L504.33588 310.98126Q505.21088 310.5594 505.86713 309.98126Q506.539 309.3875 506.82025 308.825L507.49213 308.825L507.49213 317.45ZM510.52338 313.21564Q510.52338 311.6844 510.83588 310.7625Q511.14838 309.825 511.75775 309.325Q512.38275 308.825 513.32025 308.825Q514.00775 308.825 514.5234 309.10626Q515.0546 309.3875 515.3984 309.91876Q515.7421 310.4344 515.9296 311.1844Q516.1171 311.9344 516.1171 313.21564Q516.1171 314.73126 515.8046 315.65314Q515.50775 316.575 514.88275 317.09064Q514.2734 317.59064 513.32025 317.59064Q512.0859 317.59064 511.36713 316.7Q510.52338 315.6375 510.52338 313.21564ZM511.6015 313.21564Q511.6015 315.325 512.1015 316.02814Q512.6015 316.73126 513.32025 316.73126Q514.0546 316.73126 514.539 316.02814Q515.039 315.325 515.039 313.21564Q515.039 311.09064 514.539 310.40314Q514.0546 309.7 513.3046 309.7Q512.5859 309.7 512.1484 310.3094Q511.6015 311.09064 511.6015 313.21564ZM517.5234 313.21564Q517.5234 311.6844 517.8359 310.7625Q518.1484 309.825 518.75775 309.325Q519.38275 308.825 520.32025 308.825Q521.00775 308.825 521.5234 309.10626Q522.0546 309.3875 522.3984 309.91876Q522.7421 310.4344 522.9296 311.1844Q523.1171 311.9344 523.1171 313.21564Q523.1171 314.73126 522.8046 315.65314Q522.50775 316.575 521.88275 317.09064Q521.2734 317.59064 520.32025 317.59064Q519.0859 317.59064 518.3671 316.7Q517.5234 315.6375 517.5234 313.21564ZM518.6015 313.21564Q518.6015 315.325 519.1015 316.02814Q519.6015 316.73126 520.32025 316.73126Q521.0546 316.73126 521.539 316.02814Q522.039 315.325 522.039 313.21564Q522.039 311.09064 521.539 310.40314Q521.0546 309.7 520.3046 309.7Q519.5859 309.7 519.1484 310.3094Q518.6015 311.09064 518.6015 313.21564ZM524.5234 313.21564Q524.5234 311.6844 524.8359 310.7625Q525.1484 309.825 525.75775 309.325Q526.38275 308.825 527.32025 308.825Q528.00775 308.825 528.5234 309.10626Q529.0546 309.3875 529.3984 309.91876Q529.7421 310.4344 529.9296 311.1844Q530.1171 311.9344 530.1171 313.21564Q530.1171 314.73126 529.8046 315.65314Q529.50775 316.575 528.88275 317.09064Q528.2734 317.59064 527.32025 317.59064Q526.0859 317.59064 525.3671 316.7Q524.5234 315.6375 524.5234 313.21564ZM525.6015 313.21564Q525.6015 315.325 526.1015 316.02814Q526.6015 316.73126 527.32025 316.73126Q528.0546 316.73126 528.539 316.02814Q529.039 315.325 529.039 313.21564Q529.039 311.09064 528.539 310.40314Q528.0546 309.7 527.3046 309.7Q526.5859 309.7 526.1484 310.3094Q525.6015 311.09064 525.6015 313.21564ZM531.5234 313.21564Q531.5234 311.6844 531.8359 310.7625Q532.1484 309.825 532.75775 309.325Q533.38275 308.825 534.32025 308.825Q535.00775 308.825 535.5234 309.10626Q536.0546 309.3875 536.3984 309.91876Q536.7421 310.4344 536.9296 311.1844Q537.1171 311.9344 537.1171 313.21564Q537.1171 314.73126 536.8046 315.65314Q536.50775 316.575 535.88275 317.09064Q535.2734 317.59064 534.32025 317.59064Q533.0859 317.59064 532.3671 316.7Q531.5234 315.6375 531.5234 313.21564ZM532.6015 313.21564Q532.6015 315.325 533.1015 316.02814Q533.6015 316.73126 534.32025 316.73126Q535.0546 316.73126 535.539 316.02814Q536.039 315.325 536.039 313.21564Q536.039 311.09064 535.539 310.40314Q535.0546 309.7 534.3046 309.7Q533.5859 309.7 533.1484 310.3094Q532.6015 311.09064 532.6015 313.21564Z" fill-rule="nonzero"/></svg>