<svg version="1.1" viewBox="0.0 0.0 600.0 371.0" fill="none" stroke="none" stroke-linecap="square" stroke-miterlimit="10" width="600" height="371" xmlns:xlink="http://www.w3.org/1999/xlink" xmlns="http://www.w3.org/2000/svg"><path fill="#ffffff" d="M0 0L600.0 0L600.0 371.0L0 371.0L0 0Z" fill-rule="nonzero"/><path stroke="#cccccc" stroke-width="1.0" stroke-linecap="butt" d="M98.5 300.5L581.5 300.5" fill-rule="nonzero"/><path stroke="#cccccc" stroke-width="1.0" stroke-linecap="butt" d="M98.5 266.5L581.5 266.5" fill-rule="nonzero"/><path stroke="#cccccc" stroke-width="1.0" stroke-linecap="butt" d="M98.5 231.5L581.5 231.5" fill-rule="nonzero"/><path stroke="#cccccc" stroke-width="1.0" stroke-linecap="butt" d="M98.5 211.5L581.5 211.5" fill-rule="nonzero"/><path stroke="#cccccc" stroke-width="1.0" stroke-linecap="butt" d="M98.5 197.5L581.5 197.5" fill-rule="nonzero"/><path stroke="#cccccc" stroke-width="1.0" stroke-linecap="butt" d="M98.5 186.5L581.5 186.5" fill-rule="nonzero"/><path stroke="#cccccc" stroke-width="1.0" stroke-linecap="butt" d="M98.5 152.5L581.5 152.5" fill-rule="nonzero"/><path stroke="#cccccc" stroke-width="1.0" stroke-linecap="butt" d="M98.5 117.5L581.5 117.5" fill-rule="nonzero"/><path stroke="#cccccc" stroke-width="1.0" stroke-linecap="butt" d="M98.5 97.5L581.5 97.5" fill-rule="nonzero"/><path stroke="#cccccc" stroke-width="1.0" stroke-linecap="butt" d="M98.5 83.5L581.5 83.5" fill-rule="nonzero"/><path stroke="#cccccc" stroke-width="1.0" stroke-linecap="butt" d="M98.5 72.5L581.5 72.5" fill-rule="nonzero"/><path stroke="#cccccc" stroke-width="1.0" stroke-linecap="butt" d="M98.5 38.5L581.5 38.5" fill-rule="nonzero"/><clipPath id="id_0"><path d="M98.55 25.55L581.45 25.55L581.45 300.45L98.55 300.45L98.55 25.55Z" clip-rule="nonzero"/></clipPath><path stroke="#000000" stroke-width="0.0" stroke-linecap="butt" stroke-opacity="0.0" clip-path="url(#id_0)" d="M175.0 300.0L126.0 300.0L126.0 209.0C126.0 207.89543 126.89543 207.0 128.0 207.0L173.0 207.0C174.10457 207.0 175.0 207.89543 175.0 209.0Z" fill-rule="nonzero"/><path fill="#4285f4" clip-path="url(#id_0)" d="M175.0 300.0L126.0 300.0L126.0 209.0C126.0 207.89543 126.89543 207.0 128.0 207.0L173.0 207.0C174.10457 207.0 175.0 207.89543 175.0 209.0Z" fill-rule="nonzero"/><path stroke="#000000" stroke-width="0.0" stroke-linecap="butt" stroke-opacity="0.0" clip-path="url(#id_0)" d="M251.0 300.0L202.0 300.0L202.0 207.0C202.0 205.89543 202.89543 205.0 204.0 205.0L249.0 205.0C250.10457 205.0 251.0 205.89543 251.0 207.0Z" fill-rule="nonzero"/><path fill="#4285f4" clip-path="url(#id_0)" d="M251.0 300.0L202.0 300.0L202.0 207.0C202.0 205.89543 202.89543 205.0 204.0 205.0L249.0 205.0C250.10457 205.0 251.0 205.89543 251.0 207.0Z" fill-rule="nonzero"/><path stroke="#000000" stroke-width="0.0" stroke-linecap="butt" stroke-opacity="0.0" clip-path="url(#id_0)" d="M327.0 300.0L278.0 300.0L278.0 205.0C278.0 203.89543 278.89542 203.0 280.0 203.0L325.0 203.0C326.10458 203.0 327.0 203.89543 327.0 205.0Z" fill-rule="nonzero"/><path fill="#4285f4" clip-path="url(#id_0)" d="M327.0 300.0L278.0 300.0L278.0 205.0C278.0 203.89543 278.89542 203.0 280.0 203.0L325.0 203.0C326.10458 203.0 327.0 203.89543 327.0 205.0Z" fill-rule="nonzero"/><path stroke="#000000" stroke-width="0.0" stroke-linecap="butt" stroke-opacity="0.0" clip-path="url(#id_0)" d="M403.0 300.0L354.0 300.0L354.0 185.0C354.0 183.89543 354.89542 183.0 356.0 183.0L401.0 183.0C402.10458 183.0 403.0 183.89543 403.0 185.0Z" fill-rule="nonzero"/><path fill="#4285f4" clip-path="url(#id_0)" d="M403.0 300.0L354.0 300.0L354.0 185.0C354.0 183.89543 354.89542 183.0 356.0 183.0L401.0 183.0C402.10458 183.0 403.0 183.89543 403.0 185.0Z" fill-rule="nonzero"/><path stroke="#000000" stroke-width="0.0" stroke-linecap="butt" stroke-opacity="0.0" clip-path="url(#id_0)" d="M479.0 300.0L430.0 300.0L430.0 120.0C430.0 118.89543 430.89542 118.0 432.0 118.0L477.0 118.0C478.10458 118.0 479.0 118.89543 479.0 120.0Z" fill-rule="nonzero"/><path fill="#4285f4" clip-path="url(#id_0)" d="M479.0 300.0L430.0 300.0L430.0 120.0C430.0 118.89543 430.89542 118.0 432.0 118.0L477.0 118.0C478.10458 118.0 479.0 118.89543 479.0 120.0Z" fill-rule="nonzero"/><path stroke="#000000" stroke-width="0.0" stroke-linecap="butt" stroke-opacity="0.0" clip-path="url(#id_0)" d="M555.0 300.0L506.0 300.0L506.0 28.0C506.0 26.89543 506.89542 26.0 508.0 26.0L553.0 26.0C554.10455 26.0 555.0 26.89543 555.0 28.0Z" fill-rule="nonzero"/><path fill="#4285f4" clip-path="url(#id_0)" d="M555.0 300.0L506.0 300.0L506.0 28.0C506.0 26.89543 506.89542 26.0 508.0 26.0L553.0 26.0C554.10455 26.0 555.0 26.89543 555.0 28.0Z" fill-rule="nonzero"/><path fill="#000000" d="M326.42188 349.45L326.42188 340.85626L329.67188 340.85626Q330.51562 340.85626 330.96875 340.9344Q331.60938 341.04376 332.03125 341.34064Q332.46875 341.6375 332.71875 342.16876Q332.98438 342.7 332.98438 343.34064Q332.98438 344.4344 332.28125 345.2Q331.59375 345.95 329.76562 345.95L327.5625 345.95L327.5625 349.45L326.42188 349.45ZM327.5625 344.95L329.78125 344.95Q330.89062 344.95 331.34375 344.54376Q331.8125 344.1219 331.8125 343.3719Q331.8125 342.84064 331.53125 342.46564Q331.26562 342.075 330.82812 341.95Q330.53125 341.8719 329.76562 341.8719L327.5625 341.8719L327.5625 344.95ZM338.35938 348.6844Q337.76562 349.1844 337.21875 349.3875Q336.6875 349.59064 336.0625 349.59064Q335.03125 349.59064 334.48438 349.09064Q333.9375 348.59064 333.9375 347.8094Q333.9375 347.35626 334.14062 346.98126Q334.34375 346.59064 334.6875 346.3719Q335.03125 346.1375 335.45312 346.02814Q335.75 345.9344 336.39062 345.85626Q337.65625 345.71564 338.26562 345.4969Q338.26562 345.27814 338.26562 345.23126Q338.26562 344.575 337.96875 344.3094Q337.5625 343.96564 336.76562 343.96564Q336.03125 343.96564 335.67188 344.23126Q335.3125 344.48126 335.14062 345.1375L334.10938 344.9969Q334.25 344.34064 334.57812 343.9344Q334.90625 343.52814 335.51562 343.3094Q336.125 343.09064 336.92188 343.09064Q337.71875 343.09064 338.21875 343.27814Q338.71875 343.46564 338.95312 343.7469Q339.1875 344.02814 339.28125 344.46564Q339.32812 344.73126 339.32812 345.4344L339.32812 346.84064Q339.32812 348.3094 339.39062 348.7Q339.46875 349.09064 339.67188 349.45L338.5625 349.45Q338.40625 349.1219 338.35938 348.6844ZM338.26562 346.325Q337.6875 346.5594 336.54688 346.73126Q335.89062 346.825 335.625 346.95Q335.35938 347.0594 335.20312 347.27814Q335.0625 347.4969 335.0625 347.77814Q335.0625 348.2 335.375 348.48126Q335.70312 348.7625 336.3125 348.7625Q336.92188 348.7625 337.39062 348.4969Q337.875 348.23126 338.09375 347.7625Q338.26562 347.40314 338.26562 346.71564L338.26562 346.325ZM341.09375 349.96564L342.125 350.1219Q342.1875 350.59064 342.48438 350.8094Q342.875 351.10626 343.54688 351.10626Q344.28125 351.10626 344.67188 350.8094Q345.07812 350.5125 345.21875 349.9969Q345.3125 349.66876 345.29688 348.6375Q344.60938 349.45 343.57812 349.45Q342.29688 349.45 341.59375 348.52814Q340.89062 347.59064 340.89062 346.3094Q340.89062 345.41876 341.20312 344.66876Q341.53125 343.90314 342.14062 343.4969Q342.75 343.09064 343.57812 343.09064Q344.6875 343.09064 345.40625 343.98126L345.40625 343.23126L346.375 343.23126L346.375 348.60626Q346.375 350.0594 346.07812 350.66876Q345.78125 351.27814 345.14062 351.6219Q344.5 351.98126 343.5625 351.98126Q342.45312 351.98126 341.76562 351.48126Q341.07812 350.98126 341.09375 349.96564ZM341.96875 346.23126Q341.96875 347.45 342.45312 348.0125Q342.9375 348.575 343.67188 348.575Q344.40625 348.575 344.89062 348.0125Q345.39062 347.45 345.39062 346.2625Q345.39062 345.1219 344.875 344.54376Q344.375 343.96564 343.65625 343.96564Q342.95312 343.96564 342.45312 344.54376Q341.96875 345.10626 341.96875 346.23126ZM352.54688 347.45L353.64062 347.575Q353.39062 348.52814 352.6875 349.0594Q351.98438 349.59064 350.90625 349.59064Q349.54688 349.59064 348.73438 348.7469Q347.9375 347.90314 347.9375 346.3875Q347.9375 344.825 348.75 343.96564Q349.5625 343.09064 350.84375 343.09064Q352.09375 343.09064 352.875 343.9344Q353.67188 344.77814 353.67188 346.325Q353.67188 346.41876 353.67188 346.60626L349.03125 346.60626Q349.09375 347.6375 349.60938 348.1844Q350.125 348.71564 350.90625 348.71564Q351.48438 348.71564 351.89062 348.41876Q352.3125 348.10626 352.54688 347.45ZM349.09375 345.7469L352.5625 345.7469Q352.5 344.95 352.17188 344.5594Q351.65625 343.95 350.85938 343.95Q350.125 343.95 349.625 344.4344Q349.14062 344.91876 349.09375 345.7469Z" fill-rule="nonzero"/><path fill="#000000" d="M29.550013 220.39062L21.971888 220.39062L21.971888 223.21875L20.956263 223.21875L20.956263 216.40625L21.971888 216.40625L21.971888 219.25L29.550013 219.25L29.550013 220.39062ZM22.175013 215.70312L20.956263 215.70312L20.956263 214.64062L22.175013 214.64062L22.175013 215.70312ZM29.550013 215.70312L23.331263 215.70312L23.331263 214.64062L29.550013 214.64062L29.550013 215.70312ZM29.550013 212.70312L23.331263 212.70312L23.331263 211.76562L24.206263 211.76562Q23.737513 211.46875 23.471888 210.98438Q23.190638 210.5 23.190638 209.875Q23.190638 209.1875 23.471888 208.75Q23.753138 208.29688 24.268763 208.125Q23.190638 207.375 23.190638 206.20312Q23.190638 205.26562 23.706263 204.78125Q24.206263 204.28125 25.284388 204.28125L29.550013 204.28125L29.550013 205.32812L25.628138 205.32812Q25.003138 205.32812 24.721888 205.4375Q24.440638 205.53125 24.268763 205.79688Q24.096888 206.0625 24.096888 206.4375Q24.096888 207.09375 24.534388 207.53125Q24.971888 207.95312 25.940638 207.95312L29.550013 207.95312L29.550013 209.01562L25.503138 209.01562Q24.800013 209.01562 24.456263 209.28125Q24.096888 209.53125 24.096888 210.10938Q24.096888 210.5625 24.331263 210.9375Q24.565638 211.3125 25.018763 211.48438Q25.471888 211.65625 26.315638 211.65625L29.550013 211.65625L29.550013 212.70312ZM27.550013 198.45312L27.675013 197.35938Q28.628138 197.60938 29.159388 198.3125Q29.690638 199.01562 29.690638 200.09375Q29.690638 201.45312 28.846888 202.26562Q28.003138 203.0625 26.487513 203.0625Q24.925013 203.0625 24.065638 202.25Q23.190638 201.4375 23.190638 200.15625Q23.190638 198.90625 24.034388 198.125Q24.878138 197.32812 26.425013 197.32812Q26.518763 197.32812 26.706263 197.32812L26.706263 201.96875Q27.737513 201.90625 28.284388 201.39062Q28.815638 200.875 28.815638 200.09375Q28.815638 199.51562 28.518763 199.10938Q28.206263 198.6875 27.550013 198.45312ZM25.846888 201.90625L25.846888 198.4375Q25.050013 198.5 24.659388 198.82812Q24.050013 199.34375 24.050013 200.14062Q24.050013 200.875 24.534388 201.375Q25.018763 201.85938 25.846888 201.90625ZM32.08126 190.6875Q30.971888 191.5625 29.503138 192.17188Q28.018763 192.76562 26.440638 192.76562Q25.050013 192.76562 23.768763 192.32812Q22.284388 191.79688 20.815638 190.6875L20.815638 189.9375Q22.034388 190.64062 22.550013 190.875Q23.362513 191.23438 24.237513 191.4375Q25.331263 191.6875 26.440638 191.6875Q29.268763 191.6875 32.08126 189.9375L32.08126 190.6875ZM29.550013 188.70312L23.331263 188.70312L23.331263 187.76562L24.206263 187.76562Q23.737513 187.46875 23.471888 186.98438Q23.190638 186.5 23.190638 185.875Q23.190638 185.1875 23.471888 184.75Q23.753138 184.29688 24.268763 184.125Q23.190638 183.375 23.190638 182.20312Q23.190638 181.26562 23.706263 180.78125Q24.206263 180.28125 25.284388 180.28125L29.550013 180.28125L29.550013 181.32812L25.628138 181.32812Q25.003138 181.32812 24.721888 181.4375Q24.440638 181.53125 24.268763 181.79688Q24.096888 182.0625 24.096888 182.4375Q24.096888 183.09375 24.534388 183.53125Q24.971888 183.95312 25.940638 183.95312L29.550013 183.95312L29.550013 185.01562L25.503138 185.01562Q24.800013 185.01562 24.456263 185.28125Q24.096888 185.53125 24.096888 186.10938Q24.096888 186.5625 24.331263 186.9375Q24.565638 187.3125 25.018763 187.48438Q25.471888 187.65625 26.315638 187.65625L29.550013 187.65625L29.550013 188.70312ZM22.175013 178.70312L20.956263 178.70312L20.956263 177.64062L22.175013 177.64062L22.175013 178.70312ZM29.550013 178.70312L23.331263 178.70312L23.331263 177.64062L29.550013 177.64062L29.550013 178.70312ZM27.268763 171.64062L27.409388 170.60938Q28.471888 170.78125 29.081263 171.48438Q29.690638 172.1875 29.690638 173.20312Q29.690638 174.48438 28.862513 175.26562Q28.018763 176.03125 26.456263 176.03125Q25.456263 176.03125 24.706263 175.70312Q23.940638 175.35938 23.565638 174.6875Q23.190638 174.0 23.190638 173.1875Q23.190638 172.1875 23.706263 171.54688Q24.206263 170.89062 25.159388 170.70312L25.315638 171.73438Q24.690638 171.875 24.378138 172.25Q24.050013 172.625 24.050013 173.15625Q24.050013 173.95312 24.628138 174.45312Q25.190638 174.95312 26.425013 174.95312Q27.690638 174.95312 28.253138 174.46875Q28.815638 173.98438 28.815638 173.21875Q28.815638 172.59375 28.440638 172.1875Q28.065638 171.76562 27.268763 171.64062ZM29.550013 169.71875L23.331263 169.71875L23.331263 168.76562L24.268763 168.76562Q23.612513 168.40625 23.409388 168.10938Q23.190638 167.79688 23.190638 167.42188Q23.190638 166.89062 23.518763 166.34375L24.503138 166.70312Q24.268763 167.09375 24.268763 167.46875Q24.268763 167.82812 24.487513 168.10938Q24.690638 168.375 25.065638 168.48438Q25.628138 168.67188 26.284388 168.67188L29.550013 168.67188L29.550013 169.71875ZM26.440638 166.09375Q24.706263 166.09375 23.878138 165.14062Q23.190638 164.34375 23.190638 163.1875Q23.190638 161.90625 24.034388 161.09375Q24.862513 160.26562 26.346888 160.26562Q27.550013 160.26562 28.237513 160.625Q28.925013 160.98438 29.315638 161.6875Q29.690638 162.375 29.690638 163.1875Q29.690638 164.48438 28.862513 165.29688Q28.018763 166.09375 26.440638 166.09375ZM26.440638 165.01562Q27.628138 165.01562 28.221888 164.5Q28.815638 163.96875 28.815638 163.1875Q28.815638 162.39062 28.221888 161.875Q27.628138 161.35938 26.409388 161.35938Q25.253138 161.35938 24.659388 161.89062Q24.065638 162.40625 24.065638 163.1875Q24.065638 163.96875 24.659388 164.5Q25.237513 165.01562 26.440638 165.01562ZM27.690638 159.125L27.534388 158.09375Q28.159388 158.0 28.487513 157.60938Q28.815638 157.20312 28.815638 156.46875Q28.815638 155.75 28.534388 155.40625Q28.237513 155.04688 27.831263 155.04688Q27.471888 155.04688 27.268763 155.35938Q27.128138 155.57812 26.909388 156.4375Q26.612513 157.59375 26.409388 158.04688Q26.190638 158.48438 25.815638 158.71875Q25.440638 158.95312 24.971888 158.95312Q24.565638 158.95312 24.206263 158.76562Q23.846888 158.57812 23.612513 158.25Q23.440638 158.0 23.315638 157.57812Q23.190638 157.15625 23.190638 156.65625Q23.190638 155.9375 23.409388 155.39062Q23.612513 154.82812 23.971888 154.5625Q24.331263 154.29688 24.925013 154.20312L25.065638 155.23438Q24.596888 155.29688 24.331263 155.64062Q24.050013 155.96875 24.050013 156.59375Q24.050013 157.3125 24.300013 157.625Q24.534388 157.9375 24.862513 157.9375Q25.065638 157.9375 25.221888 157.8125Q25.393763 157.67188 25.503138 157.40625Q25.565638 157.25 25.768763 156.46875Q26.081263 155.34375 26.268763 154.90625Q26.456263 154.46875 26.815638 154.21875Q27.175013 153.96875 27.721888 153.96875Q28.253138 153.96875 28.721888 154.28125Q29.175013 154.57812 29.440638 155.15625Q29.690638 155.73438 29.690638 156.46875Q29.690638 157.6875 29.190638 158.32812Q28.675013 158.95312 27.690638 159.125ZM27.550013 148.45312L27.675013 147.35938Q28.628138 147.60938 29.159388 148.3125Q29.690638 149.01562 29.690638 150.09375Q29.690638 151.45312 28.846888 152.26562Q28.003138 153.0625 26.487513 153.0625Q24.925013 153.0625 24.065638 152.25Q23.190638 151.4375 23.190638 150.15625Q23.190638 148.90625 24.034388 148.125Q24.878138 147.32812 26.425013 147.32812Q26.518763 147.32812 26.706263 147.32812L26.706263 151.96875Q27.737513 151.90625 28.284388 151.39062Q28.815638 150.875 28.815638 150.09375Q28.815638 149.51562 28.518763 149.10938Q28.206263 148.6875 27.550013 148.45312ZM25.846888 151.90625L25.846888 148.4375Q25.050013 148.5 24.659388 148.82812Q24.050013 149.34375 24.050013 150.14062Q24.050013 150.875 24.534388 151.375Q25.018763 151.85938 25.846888 151.90625ZM27.268763 141.64062L27.409388 140.60938Q28.471888 140.78125 29.081263 141.48438Q29.690638 142.1875 29.690638 143.20312Q29.690638 144.48438 28.862513 145.26562Q28.018763 146.03125 26.456263 146.03125Q25.456263 146.03125 24.706263 145.70312Q23.940638 145.35938 23.565638 144.6875Q23.190638 144.0 23.190638 143.1875Q23.190638 142.1875 23.706263 141.54688Q24.206263 140.89062 25.159388 140.70312L25.315638 141.73438Q24.690638 141.875 24.378138 142.25Q24.050013 142.625 24.050013 143.15625Q24.050013 143.95312 24.628138 144.45312Q25.190638 144.95312 26.425013 144.95312Q27.690638 144.95312 28.253138 144.46875Q28.815638 143.98438 28.815638 143.21875Q28.815638 142.59375 28.440638 142.1875Q28.065638 141.76562 27.268763 141.64062ZM26.440638 140.09375Q24.706263 140.09375 23.878138 139.14062Q23.190638 138.34375 23.190638 137.1875Q23.190638 135.90625 24.034388 135.09375Q24.862513 134.26562 26.346888 134.26562Q27.550013 134.26562 28.237513 134.625Q28.925013 134.98438 29.315638 135.6875Q29.690638 136.375 29.690638 137.1875Q29.690638 138.48438 28.862513 139.29688Q28.018763 140.09375 26.440638 140.09375ZM26.440638 139.01562Q27.628138 139.01562 28.221888 138.5Q28.815638 137.96875 28.815638 137.1875Q28.815638 136.39062 28.221888 135.875Q27.628138 135.35938 26.409388 135.35938Q25.253138 135.35938 24.659388 135.89062Q24.065638 136.40625 24.065638 137.1875Q24.065638 137.96875 24.659388 138.5Q25.237513 139.01562 26.440638 139.01562ZM29.550013 132.70312L23.331263 132.70312L23.331263 131.76562L24.206263 131.76562Q23.190638 131.07812 23.190638 129.78125Q23.190638 129.21875 23.393763 128.75Q23.596888 128.26562 23.925013 128.03125Q24.253138 127.796875 24.690638 127.703125Q24.987513 127.65625 25.721888 127.65625L29.550013 127.65625L29.550013 128.70312L25.768763 128.70312Q25.112513 128.70312 24.800013 128.82812Q24.487513 128.95312 24.300013 129.26562Q24.096888 129.57812 24.096888 130.0Q24.096888 130.67188 24.534388 131.17188Q24.956263 131.65625 26.143763 131.65625L29.550013 131.65625L29.550013 132.70312ZM29.550013 121.671875L28.768763 121.671875Q29.690638 122.265625 29.690638 123.40625Q29.690638 124.15625 29.284388 124.78125Q28.862513 125.40625 28.128138 125.75Q27.393763 126.09375 26.440638 126.09375Q25.518763 126.09375 24.753138 125.78125Q23.987513 125.46875 23.596888 124.84375Q23.190638 124.21875 23.190638 123.453125Q23.190638 122.890625 23.425013 122.453125Q23.659388 122.015625 24.034388 121.734375L20.956263 121.734375L20.956263 120.6875L29.550013 120.6875L29.550013 121.671875ZM26.440638 125.0Q27.643763 125.0 28.237513 124.5Q28.815638 124.0 28.815638 123.3125Q28.815638 122.625 28.253138 122.140625Q27.690638 121.65625 26.534388 121.65625Q25.253138 121.65625 24.659388 122.15625Q24.065638 122.640625 24.065638 123.359375Q24.065638 124.0625 24.643763 124.53125Q25.206263 125.0 26.440638 125.0ZM32.08126 118.015625L32.08126 118.765625Q29.268763 117.015625 26.440638 117.015625Q25.346888 117.015625 24.253138 117.265625Q23.378138 117.46875 22.565638 117.828125Q22.050013 118.0625 20.815638 118.765625L20.815638 118.015625Q22.284388 116.921875 23.768763 116.390625Q25.050013 115.9375 26.440638 115.9375Q28.018763 115.9375 29.503138 116.546875Q30.971888 117.15625 32.08126 118.015625Z" fill-rule="nonzero"/><path fill="#000000" d="M69.01875 304.45L67.97188 304.45L67.97188 297.73126Q67.58125 298.09064 66.95625 298.46564Q66.34688 298.825 65.8625 298.9969L65.8625 297.98126Q66.7375 297.5594 67.39375 296.98126Q68.06563 296.3875 68.34688 295.825L69.01875 295.825L69.01875 304.45ZM72.05 300.21564Q72.05 298.6844 72.3625 297.7625Q72.675 296.825 73.28438 296.325Q73.90938 295.825 74.84688 295.825Q75.53438 295.825 76.05 296.10626Q76.58125 296.3875 76.925 296.91876Q77.26875 297.4344 77.45625 298.1844Q77.64375 298.9344 77.64375 300.21564Q77.64375 301.73126 77.33125 302.65314Q77.03438 303.575 76.40938 304.09064Q75.8 304.59064 74.84688 304.59064Q73.6125 304.59064 72.89375 303.7Q72.05 302.6375 72.05 300.21564ZM73.12813 300.21564Q73.12813 302.325 73.62813 303.02814Q74.12813 303.73126 74.84688 303.73126Q75.58125 303.73126 76.06563 303.02814Q76.56563 302.325 76.56563 300.21564Q76.56563 298.09064 76.06563 297.40314Q75.58125 296.7 74.83125 296.7Q74.1125 296.7 73.675 297.3094Q73.12813 298.09064 73.12813 300.21564ZM79.05 300.21564Q79.05 298.6844 79.3625 297.7625Q79.675 296.825 80.28438 296.325Q80.90938 295.825 81.84688 295.825Q82.53438 295.825 83.05 296.10626Q83.58125 296.3875 83.925 296.91876Q84.26875 297.4344 84.45625 298.1844Q84.64375 298.9344 84.64375 300.21564Q84.64375 301.73126 84.33125 302.65314Q84.03438 303.575 83.40938 304.09064Q82.8 304.59064 81.84688 304.59064Q80.6125 304.59064 79.89375 303.7Q79.05 302.6375 79.05 300.21564ZM80.12813 300.21564Q80.12813 302.325 80.62813 303.02814Q81.12813 303.73126 81.84688 303.73126Q82.58125 303.73126 83.06563 303.02814Q83.56563 302.325 83.56563 300.21564Q83.56563 298.09064 83.06563 297.40314Q82.58125 296.7 81.83125 296.7Q81.1125 296.7 80.675 297.3094Q80.12813 298.09064 80.12813 300.21564ZM86.05 300.21564Q86.05 298.6844 86.3625 297.7625Q86.675 296.825 87.28438 296.325Q87.90938 295.825 88.84688 295.825Q89.53438 295.825 90.05 296.10626Q90.58125 296.3875 90.925 296.91876Q91.26875 297.4344 91.45625 298.1844Q91.64375 298.9344 91.64375 300.21564Q91.64375 301.73126 91.33125 302.65314Q91.03438 303.575 90.40938 304.09064Q89.8 304.59064 88.84688 304.59064Q87.6125 304.59064 86.89375 303.7Q86.05 302.6375 86.05 300.21564ZM87.12813 300.21564Q87.12813 302.325 87.62813 303.02814Q88.12813 303.73126 88.84688 303.73126Q89.58125 303.73126 90.06563 303.02814Q90.56563 302.325 90.56563 300.21564Q90.56563 298.09064 90.06563 297.40314Q89.58125 296.7 88.83125 296.7Q88.1125 296.7 87.675 297.3094Q87.12813 298.09064 87.12813 300.21564Z" fill-rule="nonzero"/><path fill="#000000" d="M70.59688 269.10162L70.59688 270.11725L64.90938 270.11725Q64.90938 269.74225 65.03438 269.38287Q65.25313 268.80475 65.72188 268.24225Q66.20625 267.67975 67.1125 266.94537Q68.51875 265.78912 69.00313 265.11725Q69.50313 264.44537 69.50313 263.85162Q69.50313 263.22662 69.05 262.80475Q68.59688 262.36725 67.87813 262.36725Q67.1125 262.36725 66.65938 262.82037Q66.20625 263.2735 66.19063 264.086L65.1125 263.97662Q65.22188 262.75787 65.94063 262.13287Q66.675 261.49225 67.90938 261.49225Q69.14375 261.49225 69.8625 262.17975Q70.58125 262.86725 70.58125 263.88287Q70.58125 264.3985 70.3625 264.8985Q70.15938 265.38287 69.65938 265.94537Q69.175 266.49225 68.05 267.44537Q67.09688 268.24225 66.81563 268.53912Q66.55 268.82037 66.37813 269.10162L70.59688 269.10162ZM72.05 265.88287Q72.05 264.35162 72.3625 263.42975Q72.675 262.49225 73.28438 261.99225Q73.90938 261.49225 74.84688 261.49225Q75.53438 261.49225 76.05 261.7735Q76.58125 262.05475 76.925 262.586Q77.26875 263.10162 77.45625 263.85162Q77.64375 264.60162 77.64375 265.88287Q77.64375 267.3985 77.33125 268.32037Q77.03438 269.24225 76.40938 269.75787Q75.8 270.25787 74.84688 270.25787Q73.6125 270.25787 72.89375 269.36725Q72.05 268.30475 72.05 265.88287ZM73.12813 265.88287Q73.12813 267.99225 73.62813 268.69537Q74.12813 269.3985 74.84688 269.3985Q75.58125 269.3985 76.06563 268.69537Q76.56563 267.99225 76.56563 265.88287Q76.56563 263.75787 76.06563 263.07037Q75.58125 262.36725 74.83125 262.36725Q74.1125 262.36725 73.675 262.97662Q73.12813 263.75787 73.12813 265.88287ZM79.05 265.88287Q79.05 264.35162 79.3625 263.42975Q79.675 262.49225 80.28438 261.99225Q80.90938 261.49225 81.84688 261.49225Q82.53438 261.49225 83.05 261.7735Q83.58125 262.05475 83.925 262.586Q84.26875 263.10162 84.45625 263.85162Q84.64375 264.60162 84.64375 265.88287Q84.64375 267.3985 84.33125 268.32037Q84.03438 269.24225 83.40938 269.75787Q82.8 270.25787 81.84688 270.25787Q80.6125 270.25787 79.89375 269.36725Q79.05 268.30475 79.05 265.88287ZM80.12813 265.88287Q80.12813 267.99225 80.62813 268.69537Q81.12813 269.3985 81.84688 269.3985Q82.58125 269.3985 83.06563 268.69537Q83.56563 267.99225 83.56563 265.88287Q83.56563 263.75787 83.06563 263.07037Q82.58125 262.36725 81.83125 262.36725Q81.1125 262.36725 80.675 262.97662Q80.12813 263.75787 80.12813 265.88287ZM86.05 265.88287Q86.05 264.35162 86.3625 263.42975Q86.675 262.49225 87.28438 261.99225Q87.90938 261.49225 88.84688 261.49225Q89.53438 261.49225 90.05 261.7735Q90.58125 262.05475 90.925 262.586Q91.26875 263.10162 91.45625 263.85162Q91.64375 264.60162 91.64375 265.88287Q91.64375 267.3985 91.33125 268.32037Q91.03438 269.24225 90.40938 269.75787Q89.8 270.25787 88.84688 270.25787Q87.6125 270.25787 86.89375 269.36725Q86.05 268.30475 86.05 265.88287ZM87.12813 265.88287Q87.12813 267.99225 87.62813 268.69537Q88.12813 269.3985 88.84688 269.3985Q89.58125 269.3985 90.06563 268.69537Q90.56563 267.99225 90.56563 265.88287Q90.56563 263.75787 90.06563 263.07037Q89.58125 262.36725 88.83125 262.36725Q88.1125 262.36725 87.675 262.97662Q87.12813 263.75787 87.12813 265.88287Z" fill-rule="nonzero"/><path fill="#000000" d="M68.425 235.7845L68.425 233.722L64.70625 233.722L64.70625 232.75325L68.62813 227.19075L69.4875 227.19075L69.4875 232.75325L70.64375 232.75325L70.64375 233.722L69.4875 233.722L69.4875 235.7845L68.425 235.7845ZM68.425 232.75325L68.425 228.89388L65.7375 232.75325L68.425 232.75325ZM72.05 231.55013Q72.05 230.01888 72.3625 229.097Q72.675 228.1595 73.28438 227.6595Q73.90938 227.1595 74.84688 227.1595Q75.53438 227.1595 76.05 227.44075Q76.58125 227.722 76.925 228.25325Q77.26875 228.76888 77.45625 229.51888Q77.64375 230.26888 77.64375 231.55013Q77.64375 233.06575 77.33125 233.98763Q77.03438 234.9095 76.40938 235.42513Q75.8 235.92513 74.84688 235.92513Q73.6125 235.92513 72.89375 235.0345Q72.05 233.972 72.05 231.55013ZM73.12813 231.55013Q73.12813 233.6595 73.62813 234.36263Q74.12813 235.06575 74.84688 235.06575Q75.58125 235.06575 76.06563 234.36263Q76.56563 233.6595 76.56563 231.55013Q76.56563 229.42513 76.06563 228.73763Q75.58125 228.0345 74.83125 228.0345Q74.1125 228.0345 73.675 228.64388Q73.12813 229.42513 73.12813 231.55013ZM79.05 231.55013Q79.05 230.01888 79.3625 229.097Q79.675 228.1595 80.28438 227.6595Q80.90938 227.1595 81.84688 227.1595Q82.53438 227.1595 83.05 227.44075Q83.58125 227.722 83.925 228.25325Q84.26875 228.76888 84.45625 229.51888Q84.64375 230.26888 84.64375 231.55013Q84.64375 233.06575 84.33125 233.98763Q84.03438 234.9095 83.40938 235.42513Q82.8 235.92513 81.84688 235.92513Q80.6125 235.92513 79.89375 235.0345Q79.05 233.972 79.05 231.55013ZM80.12813 231.55013Q80.12813 233.6595 80.62813 234.36263Q81.12813 235.06575 81.84688 235.06575Q82.58125 235.06575 83.06563 234.36263Q83.56563 233.6595 83.56563 231.55013Q83.56563 229.42513 83.06563 228.73763Q82.58125 228.0345 81.83125 228.0345Q81.1125 228.0345 80.675 228.64388Q80.12813 229.42513 80.12813 231.55013ZM86.05 231.55013Q86.05 230.01888 86.3625 229.097Q86.675 228.1595 87.28438 227.6595Q87.90938 227.1595 88.84688 227.1595Q89.53438 227.1595 90.05 227.44075Q90.58125 227.722 90.925 228.25325Q91.26875 228.76888 91.45625 229.51888Q91.64375 230.26888 91.64375 231.55013Q91.64375 233.06575 91.33125 233.98763Q91.03438 234.9095 90.40938 235.42513Q89.8 235.92513 88.84688 235.92513Q87.6125 235.92513 86.89375 235.0345Q86.05 233.972 86.05 231.55013ZM87.12813 231.55013Q87.12813 233.6595 87.62813 234.36263Q88.12813 235.06575 88.84688 235.06575Q89.58125 235.06575 90.06563 234.36263Q90.56563 233.6595 90.56563 231.55013Q90.56563 229.42513 90.06563 228.73763Q89.58125 228.0345 88.83125 228.0345Q88.1125 228.0345 87.675 228.64388Q87.12813 229.42513 87.12813 231.55013Z" fill-rule="nonzero"/><path fill="#000000" d="M70.51875 209.21675L69.47188 209.29488Q69.33125 208.66988 69.08125 208.38863Q68.64375 207.9355 68.01875 207.9355Q67.51875 207.9355 67.12813 208.21675Q66.64375 208.59175 66.34688 209.29488Q66.06563 209.98238 66.05 211.26363Q66.425 210.6855 66.97188 210.40425Q67.53438 210.123 68.14375 210.123Q69.19063 210.123 69.925 210.90425Q70.675 211.6855 70.675 212.90425Q70.675 213.71675 70.31563 214.41988Q69.97188 215.10738 69.3625 215.48238Q68.75313 215.84175 67.9875 215.84175Q66.65938 215.84175 65.83125 214.873Q65.00313 213.90425 65.00313 211.6855Q65.00313 209.1855 65.925 208.0605Q66.72188 207.07613 68.08125 207.07613Q69.09688 207.07613 69.7375 207.65425Q70.39375 208.21675 70.51875 209.21675ZM66.22188 212.91988Q66.22188 213.46675 66.44063 213.96675Q66.675 214.45113 67.08125 214.71675Q67.50313 214.98238 67.97188 214.98238Q68.62813 214.98238 69.1125 214.45113Q69.59688 213.90425 69.59688 212.98238Q69.59688 212.09175 69.1125 211.57613Q68.64375 211.0605 67.925 211.0605Q67.20625 211.0605 66.70625 211.57613Q66.22188 212.09175 66.22188 212.91988ZM72.05 211.46675Q72.05 209.9355 72.3625 209.01363Q72.675 208.07613 73.28438 207.57613Q73.90938 207.07613 74.84688 207.07613Q75.53438 207.07613 76.05 207.35738Q76.58125 207.63863 76.925 208.16988Q77.26875 208.6855 77.45625 209.4355Q77.64375 210.1855 77.64375 211.46675Q77.64375 212.98238 77.33125 213.90425Q77.03438 214.82613 76.40938 215.34175Q75.8 215.84175 74.84688 215.84175Q73.6125 215.84175 72.89375 214.95113Q72.05 213.88863 72.05 211.46675ZM73.12813 211.46675Q73.12813 213.57613 73.62813 214.27925Q74.12813 214.98238 74.84688 214.98238Q75.58125 214.98238 76.06563 214.27925Q76.56563 213.57613 76.56563 211.46675Q76.56563 209.34175 76.06563 208.65425Q75.58125 207.95113 74.83125 207.95113Q74.1125 207.95113 73.675 208.5605Q73.12813 209.34175 73.12813 211.46675ZM79.05 211.46675Q79.05 209.9355 79.3625 209.01363Q79.675 208.07613 80.28438 207.57613Q80.90938 207.07613 81.84688 207.07613Q82.53438 207.07613 83.05 207.35738Q83.58125 207.63863 83.925 208.16988Q84.26875 208.6855 84.45625 209.4355Q84.64375 210.1855 84.64375 211.46675Q84.64375 212.98238 84.33125 213.90425Q84.03438 214.82613 83.40938 215.34175Q82.8 215.84175 81.84688 215.84175Q80.6125 215.84175 79.89375 214.95113Q79.05 213.88863 79.05 211.46675ZM80.12813 211.46675Q80.12813 213.57613 80.62813 214.27925Q81.12813 214.98238 81.84688 214.98238Q82.58125 214.98238 83.06563 214.27925Q83.56563 213.57613 83.56563 211.46675Q83.56563 209.34175 83.06563 208.65425Q82.58125 207.95113 81.83125 207.95113Q81.1125 207.95113 80.675 208.5605Q80.12813 209.34175 80.12813 211.46675ZM86.05 211.46675Q86.05 209.9355 86.3625 209.01363Q86.675 208.07613 87.28438 207.57613Q87.90938 207.07613 88.84688 207.07613Q89.53438 207.07613 90.05 207.35738Q90.58125 207.63863 90.925 208.16988Q91.26875 208.6855 91.45625 209.4355Q91.64375 210.1855 91.64375 211.46675Q91.64375 212.98238 91.33125 213.90425Q91.03438 214.82613 90.40938 215.34175Q89.8 215.84175 88.84688 215.84175Q87.6125 215.84175 86.89375 214.95113Q86.05 213.88863 86.05 211.46675ZM87.12813 211.46675Q87.12813 213.57613 87.62813 214.27925Q88.12813 214.98238 88.84688 214.98238Q89.58125 214.98238 90.06563 214.27925Q90.56563 213.57613 90.56563 211.46675Q90.56563 209.34175 90.06563 208.65425Q89.58125 207.95113 88.83125 207.95113Q88.1125 207.95113 87.675 208.5605Q87.12813 209.34175 87.12813 211.46675Z" fill-rule="nonzero"/><path fill="#000000" d="M66.675 196.7955Q66.01875 196.5455 65.69063 196.108Q65.37813 195.65488 65.37813 195.0455Q65.37813 194.108 66.05 193.46738Q66.7375 192.82675 67.84688 192.82675Q68.97188 192.82675 69.65938 193.483Q70.34688 194.13925 70.34688 195.07675Q70.34688 195.6705 70.03438 196.108Q69.72188 196.5455 69.08125 196.7955Q69.87813 197.0455 70.28438 197.62363Q70.69063 198.20175 70.69063 198.99863Q70.69063 200.09238 69.90938 200.84238Q69.14375 201.59238 67.8625 201.59238Q66.59688 201.59238 65.81563 200.84238Q65.03438 200.09238 65.03438 198.96738Q65.03438 198.12363 65.45625 197.56113Q65.89375 196.99863 66.675 196.7955ZM66.45625 194.99863Q66.45625 195.608 66.84688 195.99863Q67.25313 196.38925 67.87813 196.38925Q68.4875 196.38925 68.87813 196.01425Q69.26875 195.62363 69.26875 195.06113Q69.26875 194.483 68.8625 194.09238Q68.45625 193.68613 67.8625 193.68613Q67.25313 193.68613 66.84688 194.07675Q66.45625 194.46738 66.45625 194.99863ZM66.12813 198.96738Q66.12813 199.4205 66.33125 199.84238Q66.55 200.26425 66.97188 200.49863Q67.39375 200.733 67.87813 200.733Q68.62813 200.733 69.1125 200.24863Q69.6125 199.76425 69.6125 199.01425Q69.6125 198.24863 69.1125 197.74863Q68.6125 197.24863 67.84688 197.24863Q67.09688 197.24863 66.6125 197.74863Q66.12813 198.233 66.12813 198.96738ZM72.05 197.21738Q72.05 195.68613 72.3625 194.76425Q72.675 193.82675 73.28438 193.32675Q73.90938 192.82675 74.84688 192.82675Q75.53438 192.82675 76.05 193.108Q76.58125 193.38925 76.925 193.9205Q77.26875 194.43613 77.45625 195.18613Q77.64375 195.93613 77.64375 197.21738Q77.64375 198.733 77.33125 199.65488Q77.03438 200.57675 76.40938 201.09238Q75.8 201.59238 74.84688 201.59238Q73.6125 201.59238 72.89375 200.70175Q72.05 199.63925 72.05 197.21738ZM73.12813 197.21738Q73.12813 199.32675 73.62813 200.02988Q74.12813 200.733 74.84688 200.733Q75.58125 200.733 76.06563 200.02988Q76.56563 199.32675 76.56563 197.21738Q76.56563 195.09238 76.06563 194.40488Q75.58125 193.70175 74.83125 193.70175Q74.1125 193.70175 73.675 194.31113Q73.12813 195.09238 73.12813 197.21738ZM79.05 197.21738Q79.05 195.68613 79.3625 194.76425Q79.675 193.82675 80.28438 193.32675Q80.90938 192.82675 81.84688 192.82675Q82.53438 192.82675 83.05 193.108Q83.58125 193.38925 83.925 193.9205Q84.26875 194.43613 84.45625 195.18613Q84.64375 195.93613 84.64375 197.21738Q84.64375 198.733 84.33125 199.65488Q84.03438 200.57675 83.40938 201.09238Q82.8 201.59238 81.84688 201.59238Q80.6125 201.59238 79.89375 200.70175Q79.05 199.63925 79.05 197.21738ZM80.12813 197.21738Q80.12813 199.32675 80.62813 200.02988Q81.12813 200.733 81.84688 200.733Q82.58125 200.733 83.06563 200.02988Q83.56563 199.32675 83.56563 197.21738Q83.56563 195.09238 83.06563 194.40488Q82.58125 193.70175 81.83125 193.70175Q81.1125 193.70175 80.675 194.31113Q80.12813 195.09238 80.12813 197.21738ZM86.05 197.21738Q86.05 195.68613 86.3625 194.76425Q86.675 193.82675 87.28438 193.32675Q87.90938 192.82675 88.84688 192.82675Q89.53438 192.82675 90.05 193.108Q90.58125 193.38925 90.925 193.9205Q91.26875 194.43613 91.45625 195.18613Q91.64375 195.93613 91.64375 197.21738Q91.64375 198.733 91.33125 199.65488Q91.03438 200.57675 90.40938 201.09238Q89.8 201.59238 88.84688 201.59238Q87.6125 201.59238 86.89375 200.70175Q86.05 199.63925 86.05 197.21738ZM87.12813 197.21738Q87.12813 199.32675 87.62813 200.02988Q88.12813 200.733 88.84688 200.733Q89.58125 200.733 90.06563 200.02988Q90.56563 199.32675 90.56563 197.21738Q90.56563 195.09238 90.06563 194.40488Q89.58125 193.70175 88.83125 193.70175Q88.1125 193.70175 87.675 194.31113Q87.12813 195.09238 87.12813 197.21738Z" fill-rule="nonzero"/><path fill="#000000" d="M63.596874 155.05069L63.596874 156.06631L57.909374 156.06631Q57.909374 155.69131 58.034374 155.33194Q58.253124 154.75381 58.721874 154.19131Q59.20625 153.62881 60.1125 152.89444Q61.51875 151.73819 62.003124 151.06631Q62.503124 150.39444 62.503124 149.80069Q62.503124 149.17569 62.05 148.75381Q61.596874 148.31631 60.878124 148.31631Q60.1125 148.31631 59.659374 148.76944Q59.20625 149.22256 59.190624 150.03506L58.1125 149.92569Q58.221874 148.70694 58.940624 148.08194Q59.675 147.44131 60.909374 147.44131Q62.14375 147.44131 62.8625 148.12881Q63.58125 148.81631 63.58125 149.83194Q63.58125 150.34756 63.3625 150.84756Q63.159374 151.33194 62.659374 151.89444Q62.175 152.44131 61.05 153.39444Q60.096874 154.19131 59.815624 154.48819Q59.55 154.76944 59.378124 155.05069L63.596874 155.05069ZM65.05 151.83194Q65.05 150.30069 65.3625 149.37881Q65.675 148.44131 66.28438 147.94131Q66.90938 147.44131 67.84688 147.44131Q68.53438 147.44131 69.05 147.72256Q69.58125 148.00381 69.925 148.53506Q70.26875 149.05069 70.45625 149.80069Q70.64375 150.55069 70.64375 151.83194Q70.64375 153.34756 70.33125 154.26944Q70.03438 155.19131 69.40938 155.70694Q68.8 156.20694 67.84688 156.20694Q66.6125 156.20694 65.89375 155.31631Q65.05 154.25381 65.05 151.83194ZM66.12813 151.83194Q66.12813 153.94131 66.62813 154.64444Q67.12813 155.34756 67.84688 155.34756Q68.58125 155.34756 69.06563 154.64444Q69.56563 153.94131 69.56563 151.83194Q69.56563 149.70694 69.06563 149.01944Q68.58125 148.31631 67.83125 148.31631Q67.1125 148.31631 66.675 148.92569Q66.12813 149.70694 66.12813 151.83194ZM72.05 151.83194Q72.05 150.30069 72.3625 149.37881Q72.675 148.44131 73.28438 147.94131Q73.90938 147.44131 74.84688 147.44131Q75.53438 147.44131 76.05 147.72256Q76.58125 148.00381 76.925 148.53506Q77.26875 149.05069 77.45625 149.80069Q77.64375 150.55069 77.64375 151.83194Q77.64375 153.34756 77.33125 154.26944Q77.03438 155.19131 76.40938 155.70694Q75.8 156.20694 74.84688 156.20694Q73.6125 156.20694 72.89375 155.31631Q72.05 154.25381 72.05 151.83194ZM73.12813 151.83194Q73.12813 153.94131 73.62813 154.64444Q74.12813 155.34756 74.84688 155.34756Q75.58125 155.34756 76.06563 154.64444Q76.56563 153.94131 76.56563 151.83194Q76.56563 149.70694 76.06563 149.01944Q75.58125 148.31631 74.83125 148.31631Q74.1125 148.31631 73.675 148.92569Q73.12813 149.70694 73.12813 151.83194ZM79.05 151.83194Q79.05 150.30069 79.3625 149.37881Q79.675 148.44131 80.28438 147.94131Q80.90938 147.44131 81.84688 147.44131Q82.53438 147.44131 83.05 147.72256Q83.58125 148.00381 83.925 148.53506Q84.26875 149.05069 84.45625 149.80069Q84.64375 150.55069 84.64375 151.83194Q84.64375 153.34756 84.33125 154.26944Q84.03438 155.19131 83.40938 155.70694Q82.8 156.20694 81.84688 156.20694Q80.6125 156.20694 79.89375 155.31631Q79.05 154.25381 79.05 151.83194ZM80.12813 151.83194Q80.12813 153.94131 80.62813 154.64444Q81.12813 155.34756 81.84688 155.34756Q82.58125 155.34756 83.06563 154.64444Q83.56563 153.94131 83.56563 151.83194Q83.56563 149.70694 83.06563 149.01944Q82.58125 148.31631 81.83125 148.31631Q81.1125 148.31631 80.675 148.92569Q80.12813 149.70694 80.12813 151.83194ZM86.05 151.83194Q86.05 150.30069 86.3625 149.37881Q86.675 148.44131 87.28438 147.94131Q87.90938 147.44131 88.84688 147.44131Q89.53438 147.44131 90.05 147.72256Q90.58125 148.00381 90.925 148.53506Q91.26875 149.05069 91.45625 149.80069Q91.64375 150.55069 91.64375 151.83194Q91.64375 153.34756 91.33125 154.26944Q91.03438 155.19131 90.40938 155.70694Q89.8 156.20694 88.84688 156.20694Q87.6125 156.20694 86.89375 155.31631Q86.05 154.25381 86.05 151.83194ZM87.12813 151.83194Q87.12813 153.94131 87.62813 154.64444Q88.12813 155.34756 88.84688 155.34756Q89.58125 155.34756 90.06563 154.64444Q90.56563 153.94131 90.56563 151.83194Q90.56563 149.70694 90.06563 149.01944Q89.58125 148.31631 88.83125 148.31631Q88.1125 148.31631 87.675 148.92569Q87.12813 149.70694 87.12813 151.83194Z" fill-rule="nonzero"/><path fill="#000000" d="M61.425 121.73357L61.425 119.67107L57.70625 119.67107L57.70625 118.70232L61.628124 113.13982L62.4875 113.13982L62.4875 118.70232L63.64375 118.70232L63.64375 119.67107L62.4875 119.67107L62.4875 121.73357L61.425 121.73357ZM61.425 118.70232L61.425 114.84294L58.7375 118.70232L61.425 118.70232ZM65.05 117.49919Q65.05 115.96794 65.3625 115.04607Q65.675 114.10857 66.28438 113.60857Q66.90938 113.10857 67.84688 113.10857Q68.53438 113.10857 69.05 113.38982Q69.58125 113.67107 69.925 114.20232Q70.26875 114.71794 70.45625 115.46794Q70.64375 116.21794 70.64375 117.49919Q70.64375 119.01482 70.33125 119.93669Q70.03438 120.85857 69.40938 121.37419Q68.8 121.87419 67.84688 121.87419Q66.6125 121.87419 65.89375 120.98357Q65.05 119.92107 65.05 117.49919ZM66.12813 117.49919Q66.12813 119.60857 66.62813 120.31169Q67.12813 121.01482 67.84688 121.01482Q68.58125 121.01482 69.06563 120.31169Q69.56563 119.60857 69.56563 117.49919Q69.56563 115.37419 69.06563 114.68669Q68.58125 113.98357 67.83125 113.98357Q67.1125 113.98357 66.675 114.59294Q66.12813 115.37419 66.12813 117.49919ZM72.05 117.49919Q72.05 115.96794 72.3625 115.04607Q72.675 114.10857 73.28438 113.60857Q73.90938 113.10857 74.84688 113.10857Q75.53438 113.10857 76.05 113.38982Q76.58125 113.67107 76.925 114.20232Q77.26875 114.71794 77.45625 115.46794Q77.64375 116.21794 77.64375 117.49919Q77.64375 119.01482 77.33125 119.93669Q77.03438 120.85857 76.40938 121.37419Q75.8 121.87419 74.84688 121.87419Q73.6125 121.87419 72.89375 120.98357Q72.05 119.92107 72.05 117.49919ZM73.12813 117.49919Q73.12813 119.60857 73.62813 120.31169Q74.12813 121.01482 74.84688 121.01482Q75.58125 121.01482 76.06563 120.31169Q76.56563 119.60857 76.56563 117.49919Q76.56563 115.37419 76.06563 114.68669Q75.58125 113.98357 74.83125 113.98357Q74.1125 113.98357 73.675 114.59294Q73.12813 115.37419 73.12813 117.49919ZM79.05 117.49919Q79.05 115.96794 79.3625 115.04607Q79.675 114.10857 80.28438 113.60857Q80.90938 113.10857 81.84688 113.10857Q82.53438 113.10857 83.05 113.38982Q83.58125 113.67107 83.925 114.20232Q84.26875 114.71794 84.45625 115.46794Q84.64375 116.21794 84.64375 117.49919Q84.64375 119.01482 84.33125 119.93669Q84.03438 120.85857 83.40938 121.37419Q82.8 121.87419 81.84688 121.87419Q80.6125 121.87419 79.89375 120.98357Q79.05 119.92107 79.05 117.49919ZM80.12813 117.49919Q80.12813 119.60857 80.62813 120.31169Q81.12813 121.01482 81.84688 121.01482Q82.58125 121.01482 83.06563 120.31169Q83.56563 119.60857 83.56563 117.49919Q83.56563 115.37419 83.06563 114.68669Q82.58125 113.98357 81.83125 113.98357Q81.1125 113.98357 80.675 114.59294Q80.12813 115.37419 80.12813 117.49919ZM86.05 117.49919Q86.05 115.96794 86.3625 115.04607Q86.675 114.10857 87.28438 113.60857Q87.90938 113.10857 88.84688 113.10857Q89.53438 113.10857 90.05 113.38982Q90.58125 113.67107 90.925 114.20232Q91.26875 114.71794 91.45625 115.46794Q91.64375 116.21794 91.64375 117.49919Q91.64375 119.01482 91.33125 119.93669Q91.03438 120.85857 90.40938 121.37419Q89.8 121.87419 88.84688 121.87419Q87.6125 121.87419 86.89375 120.98357Q86.05 119.92107 86.05 117.49919ZM87.12813 117.49919Q87.12813 119.60857 87.62813 120.31169Q88.12813 121.01482 88.84688 121.01482Q89.58125 121.01482 90.06563 120.31169Q90.56563 119.60857 90.56563 117.49919Q90.56563 115.37419 90.06563 114.68669Q89.58125 113.98357 88.83125 113.98357Q88.1125 113.98357 87.675 114.59294Q87.12813 115.37419 87.12813 117.49919Z" fill-rule="nonzero"/><path fill="#000000" d="M63.51875 95.16582L62.471874 95.24394Q62.33125 94.61894 62.08125 94.33769Q61.64375 93.88457 61.01875 93.88457Q60.51875 93.88457 60.128124 94.16582Q59.64375 94.54082 59.346874 95.24394Q59.065624 95.93144 59.05 97.21269Q59.425 96.63457 59.971874 96.35332Q60.534374 96.07207 61.14375 96.07207Q62.190624 96.07207 62.925 96.85332Q63.675 97.63457 63.675 98.85332Q63.675 99.66582 63.315624 100.36894Q62.971874 101.05644 62.3625 101.43144Q61.753124 101.79082 60.9875 101.79082Q59.659374 101.79082 58.83125 100.82207Q58.003124 99.85332 58.003124 97.63457Q58.003124 95.13457 58.925 94.00957Q59.721874 93.02519 61.08125 93.02519Q62.096874 93.02519 62.7375 93.60332Q63.39375 94.16582 63.51875 95.16582ZM59.221874 98.86894Q59.221874 99.41582 59.440624 99.91582Q59.675 100.40019 60.08125 100.66582Q60.503124 100.93144 60.971874 100.93144Q61.628124 100.93144 62.1125 100.40019Q62.596874 99.85332 62.596874 98.93144Q62.596874 98.04082 62.1125 97.52519Q61.64375 97.00957 60.925 97.00957Q60.20625 97.00957 59.70625 97.52519Q59.221874 98.04082 59.221874 98.86894ZM65.05 97.41582Q65.05 95.88457 65.3625 94.96269Q65.675 94.02519 66.28438 93.52519Q66.90938 93.02519 67.84688 93.02519Q68.53438 93.02519 69.05 93.30644Q69.58125 93.58769 69.925 94.11894Q70.26875 94.63457 70.45625 95.38457Q70.64375 96.13457 70.64375 97.41582Q70.64375 98.93144 70.33125 99.85332Q70.03438 100.77519 69.40938 101.29082Q68.8 101.79082 67.84688 101.79082Q66.6125 101.79082 65.89375 100.90019Q65.05 99.83769 65.05 97.41582ZM66.12813 97.41582Q66.12813 99.52519 66.62813 100.22832Q67.12813 100.93144 67.84688 100.93144Q68.58125 100.93144 69.06563 100.22832Q69.56563 99.52519 69.56563 97.41582Q69.56563 95.29082 69.06563 94.60332Q68.58125 93.90019 67.83125 93.90019Q67.1125 93.90019 66.675 94.50957Q66.12813 95.29082 66.12813 97.41582ZM72.05 97.41582Q72.05 95.88457 72.3625 94.96269Q72.675 94.02519 73.28438 93.52519Q73.90938 93.02519 74.84688 93.02519Q75.53438 93.02519 76.05 93.30644Q76.58125 93.58769 76.925 94.11894Q77.26875 94.63457 77.45625 95.38457Q77.64375 96.13457 77.64375 97.41582Q77.64375 98.93144 77.33125 99.85332Q77.03438 100.77519 76.40938 101.29082Q75.8 101.79082 74.84688 101.79082Q73.6125 101.79082 72.89375 100.90019Q72.05 99.83769 72.05 97.41582ZM73.12813 97.41582Q73.12813 99.52519 73.62813 100.22832Q74.12813 100.93144 74.84688 100.93144Q75.58125 100.93144 76.06563 100.22832Q76.56563 99.52519 76.56563 97.41582Q76.56563 95.29082 76.06563 94.60332Q75.58125 93.90019 74.83125 93.90019Q74.1125 93.90019 73.675 94.50957Q73.12813 95.29082 73.12813 97.41582ZM79.05 97.41582Q79.05 95.88457 79.3625 94.96269Q79.675 94.02519 80.28438 93.52519Q80.90938 93.02519 81.84688 93.02519Q82.53438 93.02519 83.05 93.30644Q83.58125 93.58769 83.925 94.11894Q84.26875 94.63457 84.45625 95.38457Q84.64375 96.13457 84.64375 97.41582Q84.64375 98.93144 84.33125 99.85332Q84.03438 100.77519 83.40938 101.29082Q82.8 101.79082 81.84688 101.79082Q80.6125 101.79082 79.89375 100.90019Q79.05 99.83769 79.05 97.41582ZM80.12813 97.41582Q80.12813 99.52519 80.62813 100.22832Q81.12813 100.93144 81.84688 100.93144Q82.58125 100.93144 83.06563 100.22832Q83.56563 99.52519 83.56563 97.41582Q83.56563 95.29082 83.06563 94.60332Q82.58125 93.90019 81.83125 93.90019Q81.1125 93.90019 80.675 94.50957Q80.12813 95.29082 80.12813 97.41582ZM86.05 97.41582Q86.05 95.88457 86.3625 94.96269Q86.675 94.02519 87.28438 93.52519Q87.90938 93.02519 88.84688 93.02519Q89.53438 93.02519 90.05 93.30644Q90.58125 93.58769 90.925 94.11894Q91.26875 94.63457 91.45625 95.38457Q91.64375 96.13457 91.64375 97.41582Q91.64375 98.93144 91.33125 99.85332Q91.03438 100.77519 90.40938 101.29082Q89.8 101.79082 88.84688 101.79082Q87.6125 101.79082 86.89375 100.90019Q86.05 99.83769 86.05 97.41582ZM87.12813 97.41582Q87.12813 99.52519 87.62813 100.22832Q88.12813 100.93144 88.84688 100.93144Q89.58125 100.93144 90.06563 100.22832Q90.56563 99.52519 90.56563 97.41582Q90.56563 95.29082 90.06563 94.60332Q89.58125 93.90019 88.83125 93.90019Q88.1125 93.90019 87.675 94.50957Q87.12813 95.29082 87.12813 97.41582Z" fill-rule="nonzero"/><path fill="#000000" d="M59.675 82.74457Q59.01875 82.49457 58.690624 82.05707Q58.378124 81.60394 58.378124 80.99457Q58.378124 80.05707 59.05 79.41644Q59.7375 78.77582 60.846874 78.77582Q61.971874 78.77582 62.659374 79.43207Q63.346874 80.08832 63.346874 81.02582Q63.346874 81.61957 63.034374 82.05707Q62.721874 82.49457 62.08125 82.74457Q62.878124 82.99457 63.284374 83.57269Q63.690624 84.15082 63.690624 84.94769Q63.690624 86.04144 62.909374 86.79144Q62.14375 87.54144 60.8625 87.54144Q59.596874 87.54144 58.815624 86.79144Q58.034374 86.04144 58.034374 84.91644Q58.034374 84.07269 58.45625 83.51019Q58.89375 82.94769 59.675 82.74457ZM59.45625 80.94769Q59.45625 81.55707 59.846874 81.94769Q60.253124 82.33832 60.878124 82.33832Q61.4875 82.33832 61.878124 81.96332Q62.26875 81.57269 62.26875 81.01019Q62.26875 80.43207 61.8625 80.04144Q61.45625 79.63519 60.8625 79.63519Q60.253124 79.63519 59.846874 80.02582Q59.45625 80.41644 59.45625 80.94769ZM59.128124 84.91644Q59.128124 85.36957 59.33125 85.79144Q59.55 86.21332 59.971874 86.44769Q60.39375 86.68207 60.878124 86.68207Q61.628124 86.68207 62.1125 86.19769Q62.6125 85.71332 62.6125 84.96332Q62.6125 84.19769 62.1125 83.69769Q61.6125 83.19769 60.846874 83.19769Q60.096874 83.19769 59.6125 83.69769Q59.128124 84.18207 59.128124 84.91644ZM65.05 83.16644Q65.05 81.63519 65.3625 80.71332Q65.675 79.77582 66.28438 79.27582Q66.90938 78.77582 67.84688 78.77582Q68.53438 78.77582 69.05 79.05707Q69.58125 79.33832 69.925 79.86957Q70.26875 80.38519 70.45625 81.13519Q70.64375 81.88519 70.64375 83.16644Q70.64375 84.68207 70.33125 85.60394Q70.03438 86.52582 69.40938 87.04144Q68.8 87.54144 67.84688 87.54144Q66.6125 87.54144 65.89375 86.65082Q65.05 85.58832 65.05 83.16644ZM66.12813 83.16644Q66.12813 85.27582 66.62813 85.97894Q67.12813 86.68207 67.84688 86.68207Q68.58125 86.68207 69.06563 85.97894Q69.56563 85.27582 69.56563 83.16644Q69.56563 81.04144 69.06563 80.35394Q68.58125 79.65082 67.83125 79.65082Q67.1125 79.65082 66.675 80.26019Q66.12813 81.04144 66.12813 83.16644ZM72.05 83.16644Q72.05 81.63519 72.3625 80.71332Q72.675 79.77582 73.28438 79.27582Q73.90938 78.77582 74.84688 78.77582Q75.53438 78.77582 76.05 79.05707Q76.58125 79.33832 76.925 79.86957Q77.26875 80.38519 77.45625 81.13519Q77.64375 81.88519 77.64375 83.16644Q77.64375 84.68207 77.33125 85.60394Q77.03438 86.52582 76.40938 87.04144Q75.8 87.54144 74.84688 87.54144Q73.6125 87.54144 72.89375 86.65082Q72.05 85.58832 72.05 83.16644ZM73.12813 83.16644Q73.12813 85.27582 73.62813 85.97894Q74.12813 86.68207 74.84688 86.68207Q75.58125 86.68207 76.06563 85.97894Q76.56563 85.27582 76.56563 83.16644Q76.56563 81.04144 76.06563 80.35394Q75.58125 79.65082 74.83125 79.65082Q74.1125 79.65082 73.675 80.26019Q73.12813 81.04144 73.12813 83.16644ZM79.05 83.16644Q79.05 81.63519 79.3625 80.71332Q79.675 79.77582 80.28438 79.27582Q80.90938 78.77582 81.84688 78.77582Q82.53438 78.77582 83.05 79.05707Q83.58125 79.33832 83.925 79.86957Q84.26875 80.38519 84.45625 81.13519Q84.64375 81.88519 84.64375 83.16644Q84.64375 84.68207 84.33125 85.60394Q84.03438 86.52582 83.40938 87.04144Q82.8 87.54144 81.84688 87.54144Q80.6125 87.54144 79.89375 86.65082Q79.05 85.58832 79.05 83.16644ZM80.12813 83.16644Q80.12813 85.27582 80.62813 85.97894Q81.12813 86.68207 81.84688 86.68207Q82.58125 86.68207 83.06563 85.97894Q83.56563 85.27582 83.56563 83.16644Q83.56563 81.04144 83.06563 80.35394Q82.58125 79.65082 81.83125 79.65082Q81.1125 79.65082 80.675 80.26019Q80.12813 81.04144 80.12813 83.16644ZM86.05 83.16644Q86.05 81.63519 86.3625 80.71332Q86.675 79.77582 87.28438 79.27582Q87.90938 78.77582 88.84688 78.77582Q89.53438 78.77582 90.05 79.05707Q90.58125 79.33832 90.925 79.86957Q91.26875 80.38519 91.45625 81.13519Q91.64375 81.88519 91.64375 83.16644Q91.64375 84.68207 91.33125 85.60394Q91.03438 86.52582 90.40938 87.04144Q89.8 87.54144 88.84688 87.54144Q87.6125 87.54144 86.89375 86.65082Q86.05 85.58832 86.05 83.16644ZM87.12813 83.16644Q87.12813 85.27582 87.62813 85.97894Q88.12813 86.68207 88.84688 86.68207Q89.58125 86.68207 90.06563 85.97894Q90.56563 85.27582 90.56563 83.16644Q90.56563 81.04144 90.06563 80.35394Q89.58125 79.65082 88.83125 79.65082Q88.1125 79.65082 87.675 80.26019Q87.12813 81.04144 87.12813 83.16644Z" fill-rule="nonzero"/><path fill="#000000" d="M56.596874 40.999763L56.596874 42.01539L50.909374 42.01539Q50.909374 41.64039 51.034374 41.281013Q51.253124 40.70289 51.721874 40.14039Q52.20625 39.57789 53.1125 38.843513Q54.51875 37.687263 55.003124 37.01539Q55.503124 36.343513 55.503124 35.749763Q55.503124 35.124763 55.05 34.70289Q54.596874 34.26539 53.878124 34.26539Q53.1125 34.26539 52.659374 34.718513Q52.20625 35.17164 52.190624 35.98414L51.1125 35.874763Q51.221874 34.656013 51.940624 34.031013Q52.675 33.39039 53.909374 33.39039Q55.14375 33.39039 55.8625 34.07789Q56.58125 34.76539 56.58125 35.781013Q56.58125 36.29664 56.3625 36.79664Q56.159374 37.281013 55.659374 37.843513Q55.175 38.39039 54.05 39.343513Q53.096874 40.14039 52.815624 40.437263Q52.55 40.718513 52.378124 40.999763L56.596874 40.999763ZM58.05 37.781013Q58.05 36.249763 58.3625 35.32789Q58.675 34.39039 59.284374 33.89039Q59.909374 33.39039 60.846874 33.39039Q61.534374 33.39039 62.05 33.67164Q62.58125 33.95289 62.925 34.48414Q63.26875 34.999763 63.45625 35.749763Q63.64375 36.499763 63.64375 37.781013Q63.64375 39.29664 63.33125 40.218513Q63.034374 41.14039 62.409374 41.656013Q61.8 42.156013 60.846874 42.156013Q59.6125 42.156013 58.89375 41.26539Q58.05 40.20289 58.05 37.781013ZM59.128124 37.781013Q59.128124 39.89039 59.628124 40.593513Q60.128124 41.29664 60.846874 41.29664Q61.58125 41.29664 62.065624 40.593513Q62.565624 39.89039 62.565624 37.781013Q62.565624 35.656013 62.065624 34.968513Q61.58125 34.26539 60.83125 34.26539Q60.1125 34.26539 59.675 34.874763Q59.128124 35.656013 59.128124 37.781013ZM65.05 37.781013Q65.05 36.249763 65.3625 35.32789Q65.675 34.39039 66.28438 33.89039Q66.90938 33.39039 67.84688 33.39039Q68.53438 33.39039 69.05 33.67164Q69.58125 33.95289 69.925 34.48414Q70.26875 34.999763 70.45625 35.749763Q70.64375 36.499763 70.64375 37.781013Q70.64375 39.29664 70.33125 40.218513Q70.03438 41.14039 69.40938 41.656013Q68.8 42.156013 67.84688 42.156013Q66.6125 42.156013 65.89375 41.26539Q65.05 40.20289 65.05 37.781013ZM66.12813 37.781013Q66.12813 39.89039 66.62813 40.593513Q67.12813 41.29664 67.84688 41.29664Q68.58125 41.29664 69.06563 40.593513Q69.56563 39.89039 69.56563 37.781013Q69.56563 35.656013 69.06563 34.968513Q68.58125 34.26539 67.83125 34.26539Q67.1125 34.26539 66.675 34.874763Q66.12813 35.656013 66.12813 37.781013ZM72.05 37.781013Q72.05 36.249763 72.3625 35.32789Q72.675 34.39039 73.28438 33.89039Q73.90938 33.39039 74.84688 33.39039Q75.53438 33.39039 76.05 33.67164Q76.58125 33.95289 76.925 34.48414Q77.26875 34.999763 77.45625 35.749763Q77.64375 36.499763 77.64375 37.781013Q77.64375 39.29664 77.33125 40.218513Q77.03438 41.14039 76.40938 41.656013Q75.8 42.156013 74.84688 42.156013Q73.6125 42.156013 72.89375 41.26539Q72.05 40.20289 72.05 37.781013ZM73.12813 37.781013Q73.12813 39.89039 73.62813 40.593513Q74.12813 41.29664 74.84688 41.29664Q75.58125 41.29664 76.06563 40.593513Q76.56563 39.89039 76.56563 37.781013Q76.56563 35.656013 76.06563 34.968513Q75.58125 34.26539 74.83125 34.26539Q74.1125 34.26539 73.675 34.874763Q73.12813 35.656013 73.12813 37.781013ZM79.05 37.781013Q79.05 36.249763 79.3625 35.32789Q79.675 34.39039 80.28438 33.89039Q80.90938 33.39039 81.84688 33.39039Q82.53438 33.39039 83.05 33.67164Q83.58125 33.95289 83.925 34.48414Q84.26875 34.999763 84.45625 35.749763Q84.64375 36.499763 84.64375 37.781013Q84.64375 39.29664 84.33125 40.218513Q84.03438 41.14039 83.40938 41.656013Q82.8 42.156013 81.84688 42.156013Q80.6125 42.156013 79.89375 41.26539Q79.05 40.20289 79.05 37.781013ZM80.12813 37.781013Q80.12813 39.89039 80.62813 40.593513Q81.12813 41.29664 81.84688 41.29664Q82.58125 41.29664 83.06563 40.593513Q83.56563 39.89039 83.56563 37.781013Q83.56563 35.656013 83.06563 34.968513Q82.58125 34.26539 81.83125 34.26539Q81.1125 34.26539 80.675 34.874763Q80.12813 35.656013 80.12813 37.781013ZM86.05 37.781013Q86.05 36.249763 86.3625 35.32789Q86.675 34.39039 87.28438 33.89039Q87.90938 33.39039 88.84688 33.39039Q89.53438 33.39039 90.05 33.67164Q90.58125 33.95289 90.925 34.48414Q91.26875 34.999763 91.45625 35.749763Q91.64375 36.499763 91.64375 37.781013Q91.64375 39.29664 91.33125 40.218513Q91.03438 41.14039 90.40938 41.656013Q89.8 42.156013 88.84688 42.156013Q87.6125 42.156013 86.89375 41.26539Q86.05 40.20289 86.05 37.781013ZM87.12813 37.781013Q87.12813 39.89039 87.62813 40.593513Q88.12813 41.29664 88.84688 41.29664Q89.58125 41.29664 90.06563 40.593513Q90.56563 39.89039 90.56563 37.781013Q90.56563 35.656013 90.06563 34.968513Q89.58125 34.26539 88.83125 34.26539Q88.1125 34.26539 87.675 34.874763Q87.12813 35.656013 87.12813 37.781013Z" fill-rule="nonzero"/><path fill="#000000" d="M146.8819 313.21564Q146.8819 311.6844 147.1944 310.7625Q147.5069 309.825 148.11627 309.325Q148.74127 308.825 149.67877 308.825Q150.36627 308.825 150.8819 309.10626Q151.41315 309.3875 151.7569 309.91876Q152.10065 310.4344 152.28815 311.1844Q152.47565 311.9344 152.47565 313.21564Q152.47565 314.73126 152.16315 315.65314Q151.86627 316.575 151.24127 317.09064Q150.6319 317.59064 149.67877 317.59064Q148.4444 317.59064 147.72565 316.7Q146.8819 315.6375 146.8819 313.21564ZM147.96002 313.21564Q147.96002 315.325 148.46002 316.02814Q148.96002 316.73126 149.67877 316.73126Q150.41315 316.73126 150.89752 316.02814Q151.39752 315.325 151.39752 313.21564Q151.39752 311.09064 150.89752 310.40314Q150.41315 309.7 149.66315 309.7Q148.9444 309.7 148.5069 310.3094Q147.96002 311.09064 147.96002 313.21564Z" fill-rule="nonzero"/><path fill="#000000" d="M226.89789 317.45L225.85101 317.45L225.85101 310.73126Q225.46039 311.09064 224.83539 311.46564Q224.22601 311.825 223.74164 311.9969L223.74164 310.98126Q224.61664 310.5594 225.27289 309.98126Q225.94476 309.3875 226.22601 308.825L226.89789 308.825L226.89789 317.45Z" fill-rule="nonzero"/><path fill="#000000" d="M299.44513 317.45L298.39825 317.45L298.39825 310.73126Q298.00763 311.09064 297.38263 311.46564Q296.77325 311.825 296.28888 311.9969L296.28888 310.98126Q297.16388 310.5594 297.82013 309.98126Q298.492 309.3875 298.77325 308.825L299.44513 308.825L299.44513 317.45ZM302.47638 313.21564Q302.47638 311.6844 302.78888 310.7625Q303.10138 309.825 303.71075 309.325Q304.33575 308.825 305.27325 308.825Q305.96075 308.825 306.47638 309.10626Q307.00763 309.3875 307.35138 309.91876Q307.69513 310.4344 307.88263 311.1844Q308.07013 311.9344 308.07013 313.21564Q308.07013 314.73126 307.75763 315.65314Q307.46075 316.575 306.83575 317.09064Q306.22638 317.59064 305.27325 317.59064Q304.03888 317.59064 303.32013 316.7Q302.47638 315.6375 302.47638 313.21564ZM303.5545 313.21564Q303.5545 315.325 304.0545 316.02814Q304.5545 316.73126 305.27325 316.73126Q306.00763 316.73126 306.492 316.02814Q306.992 315.325 306.992 313.21564Q306.992 311.09064 306.492 310.40314Q306.00763 309.7 305.25763 309.7Q304.53888 309.7 304.10138 310.3094Q303.5545 311.09064 303.5545 313.21564Z" fill-rule="nonzero"/><path fill="#000000" d="M371.99237 317.45L370.9455 317.45L370.9455 310.73126Q370.55487 311.09064 369.92987 311.46564Q369.3205 311.825 368.83612 311.9969L368.83612 310.98126Q369.71112 310.5594 370.36737 309.98126Q371.03925 309.3875 371.3205 308.825L371.99237 308.825L371.99237 317.45ZM375.02362 313.21564Q375.02362 311.6844 375.33612 310.7625Q375.64862 309.825 376.258 309.325Q376.883 308.825 377.8205 308.825Q378.508 308.825 379.02362 309.10626Q379.55487 309.3875 379.89862 309.91876Q380.24237 310.4344 380.42987 311.1844Q380.61737 311.9344 380.61737 313.21564Q380.61737 314.73126 380.30487 315.65314Q380.008 316.575 379.383 317.09064Q378.77362 317.59064 377.8205 317.59064Q376.58612 317.59064 375.86737 316.7Q375.02362 315.6375 375.02362 313.21564ZM376.10175 313.21564Q376.10175 315.325 376.60175 316.02814Q377.10175 316.73126 377.8205 316.73126Q378.55487 316.73126 379.03925 316.02814Q379.53925 315.325 379.53925 313.21564Q379.53925 311.09064 379.03925 310.40314Q378.55487 309.7 377.80487 309.7Q377.08612 309.7 376.64862 310.3094Q376.10175 311.09064 376.10175 313.21564ZM382.02362 313.21564Q382.02362 311.6844 382.33612 310.7625Q382.64862 309.825 383.258 309.325Q383.883 308.825 384.8205 308.825Q385.508 308.825 386.02362 309.10626Q386.55487 309.3875 386.89862 309.91876Q387.24237 310.4344 387.42987 311.1844Q387.61737 311.9344 387.61737 313.21564Q387.61737 314.73126 387.30487 315.65314Q387.008 316.575 386.383 317.09064Q385.77362 317.59064 384.8205 317.59064Q383.58612 317.59064 382.86737 316.7Q382.02362 315.6375 382.02362 313.21564ZM383.10175 313.21564Q383.10175 315.325 383.60175 316.02814Q384.10175 316.73126 384.8205 316.73126Q385.55487 316.73126 386.03925 316.02814Q386.53925 315.325 386.53925 313.21564Q386.53925 311.09064 386.03925 310.40314Q385.55487 309.7 384.80487 309.7Q384.08612 309.7 383.64862 310.3094Q383.10175 311.09064 383.10175 313.21564Z" fill-rule="nonzero"/><path fill="#000000" d="M444.5396 317.45L443.49274 317.45L443.49274 310.73126Q443.1021 311.09064 442.4771 311.46564Q441.86774 311.825 441.38336 311.9969L441.38336 310.98126Q442.25836 310.5594 442.9146 309.98126Q443.5865 309.3875 443.86774 308.825L444.5396 308.825L444.5396 317.45ZM447.57086 313.21564Q447.57086 311.6844 447.88336 310.7625Q448.19586 309.825 448.80524 309.325Q449.43024 308.825 450.36774 308.825Q451.05524 308.825 451.57086 309.10626Q452.1021 309.3875 452.44586 309.91876Q452.7896 310.4344 452.9771 311.1844Q453.1646 311.9344 453.1646 313.21564Q453.1646 314.73126 452.8521 315.65314Q452.55524 316.575 451.93024 317.09064Q451.32086 317.59064 450.36774 317.59064Q449.13336 317.59064 448.4146 316.7Q447.57086 315.6375 447.57086 313.21564ZM448.649 313.21564Q448.649 315.325 449.149 316.02814Q449.649 316.73126 450.36774 316.73126Q451.1021 316.73126 451.5865 316.02814Q452.0865 315.325 452.0865 313.21564Q452.0865 311.09064 451.5865 310.40314Q451.1021 309.7 450.3521 309.7Q449.63336 309.7 449.19586 310.3094Q448.649 311.09064 448.649 313.21564ZM454.57086 313.21564Q454.57086 311.6844 454.88336 310.7625Q455.19586 309.825 455.80524 309.325Q456.43024 308.825 457.36774 308.825Q458.05524 308.825 458.57086 309.10626Q459.1021 309.3875 459.44586 309.91876Q459.7896 310.4344 459.9771 311.1844Q460.1646 311.9344 460.1646 313.21564Q460.1646 314.73126 459.8521 315.65314Q459.55524 316.575 458.93024 317.09064Q458.32086 317.59064 457.36774 317.59064Q456.13336 317.59064 455.4146 316.7Q454.57086 315.6375 454.57086 313.21564ZM455.649 313.21564Q455.649 315.325 456.149 316.02814Q456.649 316.73126 457.36774 316.73126Q458.1021 316.73126 458.5865 316.02814Q459.0865 315.325 459.0865 313.21564Q459.0865 311.09064 458.5865 310.40314Q458.1021 309.7 457.3521 309.7Q456.63336 309.7 456.19586 310.3094Q455.649 311.09064 455.649 313.21564ZM461.57086 313.21564Q461.57086 311.6844 461.88336 310.7625Q462.19586 309.825 462.80524 309.325Q463.43024 308.825 464.36774 308.825Q465.05524 308.825 465.57086 309.10626Q466.1021 309.3875 466.44586 309.91876Q466.7896 310.4344 466.9771 311.1844Q467.1646 311.9344 467.1646 313.21564Q467.1646 314.73126 466.8521 315.65314Q466.55524 316.575 465.93024 317.09064Q465.32086 317.59064 464.36774 317.59064Q463.13336 317.59064 462.4146 316.7Q461.57086 315.6375 461.57086 313.21564ZM462.649 313.21564Q462.649 315.325 463.149 316.02814Q463.649 316.73126 464.36774 316.73126Q465.1021 316.73126 465.5865 316.02814Q466.0865 315.325 466.0865 313.21564Q466.0865 311.09064 465.5865 310.40314Q465.1021 309.7 464.3521 309.7Q463.63336 309.7 463.19586 310.3094Q462.649 311.09064 462.649 313.21564Z" fill-rule="nonzero"/><path fill="#000000" d="M517.08685 317.45L516.04 317.45L516.04 310.73126Q515.64935 311.09064 515.02435 311.46564Q514.415 311.825 513.9306 311.9969L513.9306 310.98126Q514.8056 310.5594 515.46185 309.98126Q516.1337 309.3875 516.415 308.825L517.08685 308.825L517.08685 317.45ZM520.1181 313.21564Q520.1181 311.6844 520.4306 310.7625Q520.7431 309.825 521.3525 309.325Q521.9775 308.825 522.915 308.825Q523.6025 308.825 524.1181 309.10626Q524.64935 309.3875 524.9931 309.91876Q525.33685 310.4344 525.52435 311.1844Q525.71185 311.9344 525.71185 313.21564Q525.71185 314.73126 525.39935 315.65314Q525.1025 316.575 524.4775 317.09064Q523.8681 317.59064 522.915 317.59064Q521.6806 317.59064 520.96185 316.7Q520.1181 315.6375 520.1181 313.21564ZM521.1962 313.21564Q521.1962 315.325 521.6962 316.02814Q522.1962 316.73126 522.915 316.73126Q523.64935 316.73126 524.1337 316.02814Q524.6337 315.325 524.6337 313.21564Q524.6337 311.09064 524.1337 310.40314Q523.64935 309.7 522.89935 309.7Q522.1806 309.7 521.7431 310.3094Q521.1962 311.09064 521.1962 313.21564ZM527.1181 313.21564Q527.1181 311.6844 527.4306 310.7625Q527.7431 309.825 528.3525 309.325Q528.9775 308.825 529.915 308.825Q530.6025 308.825 531.1181 309.10626Q531.64935 309.3875 531.9931 309.91876Q532.33685 310.4344 532.52435 311.1844Q532.71185 311.9344 532.71185 313.21564Q532.71185 314.73126 532.39935 315.65314Q532.1025 316.575 531.4775 317.09064Q530.8681 317.59064 529.915 317.59064Q528.6806 317.59064 527.96185 316.7Q527.1181 315.6375 527.1181 313.21564ZM528.1962 313.21564Q528.1962 315.325 528.6962 316.02814Q529.1962 316.73126 529.915 316.73126Q530.64935 316.73126 531.1337 316.02814Q531.6337 315.325 531.6337 313.21564Q531.6337 311.09064 531.1337 310.40314Q530.64935 309.7 529.89935 309.7Q529.1806 309.7 528.7431 310.3094Q528.1962 311.09064 528.1962 313.21564ZM534.1181 313.21564Q534.1181 311.6844 534.4306 310.7625Q534.7431 309.825 535.3525 309.325Q535.9775 308.825 536.915 308.825Q537.6025 308.825 538.1181 309.10626Q538.64935 309.3875 538.9931 309.91876Q539.33685 310.4344 539.52435 311.1844Q539.71185 311.9344 539.71185 313.21564Q539.71185 314.73126 539.39935 315.65314Q539.1025 316.575 538.4775 317.09064Q537.8681 317.59064 536.915 317.59064Q535.6806 317.59064 534.96185 316.7Q534.1181 315.6375 534.1181 313.21564ZM535.1962 313.21564Q535.1962 315.325 535.6962 316.02814Q536.1962 316.73126 536.915 316.73126Q537.64935 316.73126 538.1337 316.02814Q538.6337 315.325 538.6337 313.21564Q538.6337 311.09064 538.1337 310.40314Q537.64935 309.7 536.89935 309.7Q536.1806 309.7 535.7431 310.3094Q535.1962 311.09064 535.1962 313.21564ZM541.1181 313.21564Q541.1181 311.6844 541.4306 310.7625Q541.7431 309.825 542.3525 309.325Q542.9775 308.825 543.915 308.825Q544.6025 308.825 545.1181 309.10626Q545.64935 309.3875 545.9931 309.91876Q546.33685 310.4344 546.52435 311.1844Q546.71185 311.9344 546.71185 313.21564Q546.71185 314.73126 546.39935 315.65314Q546.1025 316.575 545.4775 317.09064Q544.8681 317.59064 543.915 317.59064Q542.6806 317.59064 541.96185 316.7Q541.1181 315.6375 541.1181 313.21564ZM542.1962 313.21564Q542.1962 315.325 542.6962 316.02814Q543.1962 316.73126 543.915 316.73126Q544.64935 316.73126 545.1337 316.02814Q545.6337 315.325 545.6337 313.21564Q545.6337 311.09064 545.1337 310.40314Q544.64935 309.7 543.89935 309.7Q543.1806 309.7 542.7431 310.3094Q542.1962 311.09064 542.1962 313.21564Z" fill-rule="nonzero"/></svg>