<svg version="1.1" viewBox="0.0 0.0 600.0 371.0" fill="none" stroke="none" stroke-linecap="square" stroke-miterlimit="10" width="600" height="371" xmlns:xlink="http://www.w3.org/1999/xlink" xmlns="http://www.w3.org/2000/svg"><path fill="#ffffff" d="M0 0L600.0 0L600.0 371.0L0 371.0L0 0Z" fill-rule="nonzero"/><path stroke="#333333" stroke-width="1.0" stroke-linecap="butt" d="M105.5 300.5L581.5 300.5" fill-rule="nonzero"/><path stroke="#cccccc" stroke-width="1.0" stroke-linecap="butt" d="M105.5 261.5L581.5 261.5" fill-rule="nonzero"/><path stroke="#cccccc" stroke-width="1.0" stroke-linecap="butt" d="M105.5 221.5L581.5 221.5" fill-rule="nonzero"/><path stroke="#cccccc" stroke-width="1.0" stroke-linecap="butt" d="M105.5 182.5L581.5 182.5" fill-rule="nonzero"/><path stroke="#cccccc" stroke-width="1.0" stroke-linecap="butt" d="M105.5 143.5L581.5 143.5" fill-rule="nonzero"/><path stroke="#cccccc" stroke-width="1.0" stroke-linecap="butt" d="M105.5 104.5L581.5 104.5" fill-rule="nonzero"/><path stroke="#cccccc" stroke-width="1.0" stroke-linecap="butt" d="M105.5 64.5L581.5 64.5" fill-rule="nonzero"/><path stroke="#cccccc" stroke-width="1.0" stroke-linecap="butt" d="M105.5 25.5L581.5 25.5" fill-rule="nonzero"/><clipPath id="id_0"><path d="M105.55 25.55L581.45 25.55L581.45 300.45L105.55 300.45L105.55 25.55Z" clip-rule="nonzero"/></clipPath><path stroke="#000000" stroke-width="0.0" stroke-linecap="butt" stroke-opacity="0.0" clip-path="url(#id_0)" d="M170.0 300.0L128.0 300.0L128.0 226.0C128.0 224.89543 128.89543 224.0 130.0 224.0L168.0 224.0C169.10457 224.0 170.0 224.89543 170.0 226.0Z" fill-rule="nonzero"/><path fill="#4285f4" clip-path="url(#id_0)" d="M170.0 300.0L128.0 300.0L128.0 226.0C128.0 224.89543 128.89543 224.0 130.0 224.0L168.0 224.0C169.10457 224.0 170.0 224.89543 170.0 226.0Z" fill-rule="nonzero"/><path stroke="#000000" stroke-width="0.0" stroke-linecap="butt" stroke-opacity="0.0" clip-path="url(#id_0)" d="M235.0 300.0L193.0 300.0L193.0 231.0C193.0 229.89543 193.89543 229.0 195.0 229.0L233.0 229.0C234.10457 229.0 235.0 229.89543 235.0 231.0Z" fill-rule="nonzero"/><path fill="#4285f4" clip-path="url(#id_0)" d="M235.0 300.0L193.0 300.0L193.0 231.0C193.0 229.89543 193.89543 229.0 195.0 229.0L233.0 229.0C234.10457 229.0 235.0 229.89543 235.0 231.0Z" fill-rule="nonzero"/><path stroke="#000000" stroke-width="0.0" stroke-linecap="butt" stroke-opacity="0.0" clip-path="url(#id_0)" d="M300.0 300.0L258.0 300.0L258.0 231.0C258.0 229.89543 258.89542 229.0 260.0 229.0L298.0 229.0C299.10458 229.0 300.0 229.89543 300.0 231.0Z" fill-rule="nonzero"/><path fill="#4285f4" clip-path="url(#id_0)" d="M300.0 300.0L258.0 300.0L258.0 231.0C258.0 229.89543 258.89542 229.0 260.0 229.0L298.0 229.0C299.10458 229.0 300.0 229.89543 300.0 231.0Z" fill-rule="nonzero"/><path stroke="#000000" stroke-width="0.0" stroke-linecap="butt" stroke-opacity="0.0" clip-path="url(#id_0)" d="M365.0 300.0L323.0 300.0L323.0 229.0C323.0 227.89543 323.89542 227.0 325.0 227.0L363.0 227.0C364.10458 227.0 365.0 227.89543 365.0 229.0Z" fill-rule="nonzero"/><path fill="#4285f4" clip-path="url(#id_0)" d="M365.0 300.0L323.0 300.0L323.0 229.0C323.0 227.89543 323.89542 227.0 325.0 227.0L363.0 227.0C364.10458 227.0 365.0 227.89543 365.0 229.0Z" fill-rule="nonzero"/><path stroke="#000000" stroke-width="0.0" stroke-linecap="butt" stroke-opacity="0.0" clip-path="url(#id_0)" d="M429.0 300.0L387.0 300.0L387.0 227.0C387.0 225.89543 387.89542 225.0 389.0 225.0L427.0 225.0C428.10458 225.0 429.0 225.89543 429.0 227.0Z" fill-rule="nonzero"/><path fill="#4285f4" clip-path="url(#id_0)" d="M429.0 300.0L387.0 300.0L387.0 227.0C387.0 225.89543 387.89542 225.0 389.0 225.0L427.0 225.0C428.10458 225.0 429.0 225.89543 429.0 227.0Z" fill-rule="nonzero"/><path stroke="#000000" stroke-width="0.0" stroke-linecap="butt" stroke-opacity="0.0" clip-path="url(#id_0)" d="M494.0 300.0L452.0 300.0L452.0 195.0C452.0 193.89543 452.89542 193.0 454.0 193.0L492.0 193.0C493.10458 193.0 494.0 193.89543 494.0 195.0Z" fill-rule="nonzero"/><path fill="#4285f4" clip-path="url(#id_0)" d="M494.0 300.0L452.0 300.0L452.0 195.0C452.0 193.89543 452.89542 193.0 454.0 193.0L492.0 193.0C493.10458 193.0 494.0 193.89543 494.0 195.0Z" fill-rule="nonzero"/><path stroke="#000000" stroke-width="0.0" stroke-linecap="butt" stroke-opacity="0.0" clip-path="url(#id_0)" d="M559.0 300.0L517.0 300.0L517.0 41.0C517.0 39.89543 517.89545 39.0 519.0 39.0L557.0 39.0C558.10455 39.0 559.0 39.89543 559.0 41.0Z" fill-rule="nonzero"/><path fill="#4285f4" clip-path="url(#id_0)" d="M559.0 300.0L517.0 300.0L517.0 41.0C517.0 39.89543 517.89545 39.0 519.0 39.0L557.0 39.0C558.10455 39.0 559.0 39.89543 559.0 41.0Z" fill-rule="nonzero"/><path fill="#000000" d="M329.92188 349.45L329.92188 340.85626L333.17188 340.85626Q334.01562 340.85626 334.46875 340.9344Q335.10938 341.04376 335.53125 341.34064Q335.96875 341.6375 336.21875 342.16876Q336.48438 342.7 336.48438 343.34064Q336.48438 344.4344 335.78125 345.2Q335.09375 345.95 333.26562 345.95L331.0625 345.95L331.0625 349.45L329.92188 349.45ZM331.0625 344.95L333.28125 344.95Q334.39062 344.95 334.84375 344.54376Q335.3125 344.1219 335.3125 343.3719Q335.3125 342.84064 335.03125 342.46564Q334.76562 342.075 334.32812 341.95Q334.03125 341.8719 333.26562 341.8719L331.0625 341.8719L331.0625 344.95ZM341.85938 348.6844Q341.26562 349.1844 340.71875 349.3875Q340.1875 349.59064 339.5625 349.59064Q338.53125 349.59064 337.98438 349.09064Q337.4375 348.59064 337.4375 347.8094Q337.4375 347.35626 337.64062 346.98126Q337.84375 346.59064 338.1875 346.3719Q338.53125 346.1375 338.95312 346.02814Q339.25 345.9344 339.89062 345.85626Q341.15625 345.71564 341.76562 345.4969Q341.76562 345.27814 341.76562 345.23126Q341.76562 344.575 341.46875 344.3094Q341.0625 343.96564 340.26562 343.96564Q339.53125 343.96564 339.17188 344.23126Q338.8125 344.48126 338.64062 345.1375L337.60938 344.9969Q337.75 344.34064 338.07812 343.9344Q338.40625 343.52814 339.01562 343.3094Q339.625 343.09064 340.42188 343.09064Q341.21875 343.09064 341.71875 343.27814Q342.21875 343.46564 342.45312 343.7469Q342.6875 344.02814 342.78125 344.46564Q342.82812 344.73126 342.82812 345.4344L342.82812 346.84064Q342.82812 348.3094 342.89062 348.7Q342.96875 349.09064 343.17188 349.45L342.0625 349.45Q341.90625 349.1219 341.85938 348.6844ZM341.76562 346.325Q341.1875 346.5594 340.04688 346.73126Q339.39062 346.825 339.125 346.95Q338.85938 347.0594 338.70312 347.27814Q338.5625 347.4969 338.5625 347.77814Q338.5625 348.2 338.875 348.48126Q339.20312 348.7625 339.8125 348.7625Q340.42188 348.7625 340.89062 348.4969Q341.375 348.23126 341.59375 347.7625Q341.76562 347.40314 341.76562 346.71564L341.76562 346.325ZM344.59375 349.96564L345.625 350.1219Q345.6875 350.59064 345.98438 350.8094Q346.375 351.10626 347.04688 351.10626Q347.78125 351.10626 348.17188 350.8094Q348.57812 350.5125 348.71875 349.9969Q348.8125 349.66876 348.79688 348.6375Q348.10938 349.45 347.07812 349.45Q345.79688 349.45 345.09375 348.52814Q344.39062 347.59064 344.39062 346.3094Q344.39062 345.41876 344.70312 344.66876Q345.03125 343.90314 345.64062 343.4969Q346.25 343.09064 347.07812 343.09064Q348.1875 343.09064 348.90625 343.98126L348.90625 343.23126L349.875 343.23126L349.875 348.60626Q349.875 350.0594 349.57812 350.66876Q349.28125 351.27814 348.64062 351.6219Q348.0 351.98126 347.0625 351.98126Q345.95312 351.98126 345.26562 351.48126Q344.57812 350.98126 344.59375 349.96564ZM345.46875 346.23126Q345.46875 347.45 345.95312 348.0125Q346.4375 348.575 347.17188 348.575Q347.90625 348.575 348.39062 348.0125Q348.89062 347.45 348.89062 346.2625Q348.89062 345.1219 348.375 344.54376Q347.875 343.96564 347.15625 343.96564Q346.45312 343.96564 345.95312 344.54376Q345.46875 345.10626 345.46875 346.23126ZM356.04688 347.45L357.14062 347.575Q356.89062 348.52814 356.1875 349.0594Q355.48438 349.59064 354.40625 349.59064Q353.04688 349.59064 352.23438 348.7469Q351.4375 347.90314 351.4375 346.3875Q351.4375 344.825 352.25 343.96564Q353.0625 343.09064 354.34375 343.09064Q355.59375 343.09064 356.375 343.9344Q357.17188 344.77814 357.17188 346.325Q357.17188 346.41876 357.17188 346.60626L352.53125 346.60626Q352.59375 347.6375 353.10938 348.1844Q353.625 348.71564 354.40625 348.71564Q354.98438 348.71564 355.39062 348.41876Q355.8125 348.10626 356.04688 347.45ZM352.59375 345.7469L356.0625 345.7469Q356.0 344.95 355.67188 344.5594Q355.15625 343.95 354.35938 343.95Q353.625 343.95 353.125 344.4344Q352.64062 344.91876 352.59375 345.7469Z" fill-rule="nonzero"/><path fill="#000000" d="M29.550013 220.39062L21.971888 220.39062L21.971888 223.21875L20.956263 223.21875L20.956263 216.40625L21.971888 216.40625L21.971888 219.25L29.550013 219.25L29.550013 220.39062ZM22.175013 215.70312L20.956263 215.70312L20.956263 214.64062L22.175013 214.64062L22.175013 215.70312ZM29.550013 215.70312L23.331263 215.70312L23.331263 214.64062L29.550013 214.64062L29.550013 215.70312ZM29.550013 212.70312L23.331263 212.70312L23.331263 211.76562L24.206263 211.76562Q23.737513 211.46875 23.471888 210.98438Q23.190638 210.5 23.190638 209.875Q23.190638 209.1875 23.471888 208.75Q23.753138 208.29688 24.268763 208.125Q23.190638 207.375 23.190638 206.20312Q23.190638 205.26562 23.706263 204.78125Q24.206263 204.28125 25.284388 204.28125L29.550013 204.28125L29.550013 205.32812L25.628138 205.32812Q25.003138 205.32812 24.721888 205.4375Q24.440638 205.53125 24.268763 205.79688Q24.096888 206.0625 24.096888 206.4375Q24.096888 207.09375 24.534388 207.53125Q24.971888 207.95312 25.940638 207.95312L29.550013 207.95312L29.550013 209.01562L25.503138 209.01562Q24.800013 209.01562 24.456263 209.28125Q24.096888 209.53125 24.096888 210.10938Q24.096888 210.5625 24.331263 210.9375Q24.565638 211.3125 25.018763 211.48438Q25.471888 211.65625 26.315638 211.65625L29.550013 211.65625L29.550013 212.70312ZM27.550013 198.45312L27.675013 197.35938Q28.628138 197.60938 29.159388 198.3125Q29.690638 199.01562 29.690638 200.09375Q29.690638 201.45312 28.846888 202.26562Q28.003138 203.0625 26.487513 203.0625Q24.925013 203.0625 24.065638 202.25Q23.190638 201.4375 23.190638 200.15625Q23.190638 198.90625 24.034388 198.125Q24.878138 197.32812 26.425013 197.32812Q26.518763 197.32812 26.706263 197.32812L26.706263 201.96875Q27.737513 201.90625 28.284388 201.39062Q28.815638 200.875 28.815638 200.09375Q28.815638 199.51562 28.518763 199.10938Q28.206263 198.6875 27.550013 198.45312ZM25.846888 201.90625L25.846888 198.4375Q25.050013 198.5 24.659388 198.82812Q24.050013 199.34375 24.050013 200.14062Q24.050013 200.875 24.534388 201.375Q25.018763 201.85938 25.846888 201.90625ZM32.08126 190.6875Q30.971888 191.5625 29.503138 192.17188Q28.018763 192.76562 26.440638 192.76562Q25.050013 192.76562 23.768763 192.32812Q22.284388 191.79688 20.815638 190.6875L20.815638 189.9375Q22.034388 190.64062 22.550013 190.875Q23.362513 191.23438 24.237513 191.4375Q25.331263 191.6875 26.440638 191.6875Q29.268763 191.6875 32.08126 189.9375L32.08126 190.6875ZM29.550013 188.70312L23.331263 188.70312L23.331263 187.76562L24.206263 187.76562Q23.737513 187.46875 23.471888 186.98438Q23.190638 186.5 23.190638 185.875Q23.190638 185.1875 23.471888 184.75Q23.753138 184.29688 24.268763 184.125Q23.190638 183.375 23.190638 182.20312Q23.190638 181.26562 23.706263 180.78125Q24.206263 180.28125 25.284388 180.28125L29.550013 180.28125L29.550013 181.32812L25.628138 181.32812Q25.003138 181.32812 24.721888 181.4375Q24.440638 181.53125 24.268763 181.79688Q24.096888 182.0625 24.096888 182.4375Q24.096888 183.09375 24.534388 183.53125Q24.971888 183.95312 25.940638 183.95312L29.550013 183.95312L29.550013 185.01562L25.503138 185.01562Q24.800013 185.01562 24.456263 185.28125Q24.096888 185.53125 24.096888 186.10938Q24.096888 186.5625 24.331263 186.9375Q24.565638 187.3125 25.018763 187.48438Q25.471888 187.65625 26.315638 187.65625L29.550013 187.65625L29.550013 188.70312ZM22.175013 178.70312L20.956263 178.70312L20.956263 177.64062L22.175013 177.64062L22.175013 178.70312ZM29.550013 178.70312L23.331263 178.70312L23.331263 177.64062L29.550013 177.64062L29.550013 178.70312ZM27.268763 171.64062L27.409388 170.60938Q28.471888 170.78125 29.081263 171.48438Q29.690638 172.1875 29.690638 173.20312Q29.690638 174.48438 28.862513 175.26562Q28.018763 176.03125 26.456263 176.03125Q25.456263 176.03125 24.706263 175.70312Q23.940638 175.35938 23.565638 174.6875Q23.190638 174.0 23.190638 173.1875Q23.190638 172.1875 23.706263 171.54688Q24.206263 170.89062 25.159388 170.70312L25.315638 171.73438Q24.690638 171.875 24.378138 172.25Q24.050013 172.625 24.050013 173.15625Q24.050013 173.95312 24.628138 174.45312Q25.190638 174.95312 26.425013 174.95312Q27.690638 174.95312 28.253138 174.46875Q28.815638 173.98438 28.815638 173.21875Q28.815638 172.59375 28.440638 172.1875Q28.065638 171.76562 27.268763 171.64062ZM29.550013 169.71875L23.331263 169.71875L23.331263 168.76562L24.268763 168.76562Q23.612513 168.40625 23.409388 168.10938Q23.190638 167.79688 23.190638 167.42188Q23.190638 166.89062 23.518763 166.34375L24.503138 166.70312Q24.268763 167.09375 24.268763 167.46875Q24.268763 167.82812 24.487513 168.10938Q24.690638 168.375 25.065638 168.48438Q25.628138 168.67188 26.284388 168.67188L29.550013 168.67188L29.550013 169.71875ZM26.440638 166.09375Q24.706263 166.09375 23.878138 165.14062Q23.190638 164.34375 23.190638 163.1875Q23.190638 161.90625 24.034388 161.09375Q24.862513 160.26562 26.346888 160.26562Q27.550013 160.26562 28.237513 160.625Q28.925013 160.98438 29.315638 161.6875Q29.690638 162.375 29.690638 163.1875Q29.690638 164.48438 28.862513 165.29688Q28.018763 166.09375 26.440638 166.09375ZM26.440638 165.01562Q27.628138 165.01562 28.221888 164.5Q28.815638 163.96875 28.815638 163.1875Q28.815638 162.39062 28.221888 161.875Q27.628138 161.35938 26.409388 161.35938Q25.253138 161.35938 24.659388 161.89062Q24.065638 162.40625 24.065638 163.1875Q24.065638 163.96875 24.659388 164.5Q25.237513 165.01562 26.440638 165.01562ZM27.690638 159.125L27.534388 158.09375Q28.159388 158.0 28.487513 157.60938Q28.815638 157.20312 28.815638 156.46875Q28.815638 155.75 28.534388 155.40625Q28.237513 155.04688 27.831263 155.04688Q27.471888 155.04688 27.268763 155.35938Q27.128138 155.57812 26.909388 156.4375Q26.612513 157.59375 26.409388 158.04688Q26.190638 158.48438 25.815638 158.71875Q25.440638 158.95312 24.971888 158.95312Q24.565638 158.95312 24.206263 158.76562Q23.846888 158.57812 23.612513 158.25Q23.440638 158.0 23.315638 157.57812Q23.190638 157.15625 23.190638 156.65625Q23.190638 155.9375 23.409388 155.39062Q23.612513 154.82812 23.971888 154.5625Q24.331263 154.29688 24.925013 154.20312L25.065638 155.23438Q24.596888 155.29688 24.331263 155.64062Q24.050013 155.96875 24.050013 156.59375Q24.050013 157.3125 24.300013 157.625Q24.534388 157.9375 24.862513 157.9375Q25.065638 157.9375 25.221888 157.8125Q25.393763 157.67188 25.503138 157.40625Q25.565638 157.25 25.768763 156.46875Q26.081263 155.34375 26.268763 154.90625Q26.456263 154.46875 26.815638 154.21875Q27.175013 153.96875 27.721888 153.96875Q28.253138 153.96875 28.721888 154.28125Q29.175013 154.57812 29.440638 155.15625Q29.690638 155.73438 29.690638 156.46875Q29.690638 157.6875 29.190638 158.32812Q28.675013 158.95312 27.690638 159.125ZM27.550013 148.45312L27.675013 147.35938Q28.628138 147.60938 29.159388 148.3125Q29.690638 149.01562 29.690638 150.09375Q29.690638 151.45312 28.846888 152.26562Q28.003138 153.0625 26.487513 153.0625Q24.925013 153.0625 24.065638 152.25Q23.190638 151.4375 23.190638 150.15625Q23.190638 148.90625 24.034388 148.125Q24.878138 147.32812 26.425013 147.32812Q26.518763 147.32812 26.706263 147.32812L26.706263 151.96875Q27.737513 151.90625 28.284388 151.39062Q28.815638 150.875 28.815638 150.09375Q28.815638 149.51562 28.518763 149.10938Q28.206263 148.6875 27.550013 148.45312ZM25.846888 151.90625L25.846888 148.4375Q25.050013 148.5 24.659388 148.82812Q24.050013 149.34375 24.050013 150.14062Q24.050013 150.875 24.534388 151.375Q25.018763 151.85938 25.846888 151.90625ZM27.268763 141.64062L27.409388 140.60938Q28.471888 140.78125 29.081263 141.48438Q29.690638 142.1875 29.690638 143.20312Q29.690638 144.48438 28.862513 145.26562Q28.018763 146.03125 26.456263 146.03125Q25.456263 146.03125 24.706263 145.70312Q23.940638 145.35938 23.565638 144.6875Q23.190638 144.0 23.190638 143.1875Q23.190638 142.1875 23.706263 141.54688Q24.206263 140.89062 25.159388 140.70312L25.315638 141.73438Q24.690638 141.875 24.378138 142.25Q24.050013 142.625 24.050013 143.15625Q24.050013 143.95312 24.628138 144.45312Q25.190638 144.95312 26.425013 144.95312Q27.690638 144.95312 28.253138 144.46875Q28.815638 143.98438 28.815638 143.21875Q28.815638 142.59375 28.440638 142.1875Q28.065638 141.76562 27.268763 141.64062ZM26.440638 140.09375Q24.706263 140.09375 23.878138 139.14062Q23.190638 138.34375 23.190638 137.1875Q23.190638 135.90625 24.034388 135.09375Q24.862513 134.26562 26.346888 134.26562Q27.550013 134.26562 28.237513 134.625Q28.925013 134.98438 29.315638 135.6875Q29.690638 136.375 29.690638 137.1875Q29.690638 138.48438 28.862513 139.29688Q28.018763 140.09375 26.440638 140.09375ZM26.440638 139.01562Q27.628138 139.01562 28.221888 138.5Q28.815638 137.96875 28.815638 137.1875Q28.815638 136.39062 28.221888 135.875Q27.628138 135.35938 26.409388 135.35938Q25.253138 135.35938 24.659388 135.89062Q24.065638 136.40625 24.065638 137.1875Q24.065638 137.96875 24.659388 138.5Q25.237513 139.01562 26.440638 139.01562ZM29.550013 132.70312L23.331263 132.70312L23.331263 131.76562L24.206263 131.76562Q23.190638 131.07812 23.190638 129.78125Q23.190638 129.21875 23.393763 128.75Q23.596888 128.26562 23.925013 128.03125Q24.253138 127.796875 24.690638 127.703125Q24.987513 127.65625 25.721888 127.65625L29.550013 127.65625L29.550013 128.70312L25.768763 128.70312Q25.112513 128.70312 24.800013 128.82812Q24.487513 128.95312 24.300013 129.26562Q24.096888 129.57812 24.096888 130.0Q24.096888 130.67188 24.534388 131.17188Q24.956263 131.65625 26.143763 131.65625L29.550013 131.65625L29.550013 132.70312ZM29.550013 121.671875L28.768763 121.671875Q29.690638 122.265625 29.690638 123.40625Q29.690638 124.15625 29.284388 124.78125Q28.862513 125.40625 28.128138 125.75Q27.393763 126.09375 26.440638 126.09375Q25.518763 126.09375 24.753138 125.78125Q23.987513 125.46875 23.596888 124.84375Q23.190638 124.21875 23.190638 123.453125Q23.190638 122.890625 23.425013 122.453125Q23.659388 122.015625 24.034388 121.734375L20.956263 121.734375L20.956263 120.6875L29.550013 120.6875L29.550013 121.671875ZM26.440638 125.0Q27.643763 125.0 28.237513 124.5Q28.815638 124.0 28.815638 123.3125Q28.815638 122.625 28.253138 122.140625Q27.690638 121.65625 26.534388 121.65625Q25.253138 121.65625 24.659388 122.15625Q24.065638 122.640625 24.065638 123.359375Q24.065638 124.0625 24.643763 124.53125Q25.206263 125.0 26.440638 125.0ZM32.08126 118.015625L32.08126 118.765625Q29.268763 117.015625 26.440638 117.015625Q25.346888 117.015625 24.253138 117.265625Q23.378138 117.46875 22.565638 117.828125Q22.050013 118.0625 20.815638 118.765625L20.815638 118.015625Q22.284388 116.921875 23.768763 116.390625Q25.050013 115.9375 26.440638 115.9375Q28.018763 115.9375 29.503138 116.546875Q30.971888 117.15625 32.08126 118.015625Z" fill-rule="nonzero"/><path fill="#000000" d="M93.05 300.21564Q93.05 298.6844 93.3625 297.7625Q93.675 296.825 94.28438 296.325Q94.90938 295.825 95.84688 295.825Q96.53438 295.825 97.05 296.10626Q97.58125 296.3875 97.925 296.91876Q98.26875 297.4344 98.45625 298.1844Q98.64375 298.9344 98.64375 300.21564Q98.64375 301.73126 98.33125 302.65314Q98.03438 303.575 97.40938 304.09064Q96.8 304.59064 95.84688 304.59064Q94.6125 304.59064 93.89375 303.7Q93.05 302.6375 93.05 300.21564ZM94.12813 300.21564Q94.12813 302.325 94.62813 303.02814Q95.12813 303.73126 95.84688 303.73126Q96.58125 303.73126 97.06563 303.02814Q97.56563 302.325 97.56563 300.21564Q97.56563 298.09064 97.06563 297.40314Q96.58125 296.7 95.83125 296.7Q95.1125 296.7 94.675 297.3094Q94.12813 298.09064 94.12813 300.21564Z" fill-rule="nonzero"/><path fill="#000000" d="M63.596874 264.16293L63.596874 265.17856L57.909374 265.17856Q57.909374 264.80356 58.034374 264.44418Q58.253124 263.86606 58.721874 263.30356Q59.20625 262.74106 60.1125 262.00668Q61.51875 260.85043 62.003124 260.17856Q62.503124 259.50668 62.503124 258.91293Q62.503124 258.28793 62.05 257.86606Q61.596874 257.42856 60.878124 257.42856Q60.1125 257.42856 59.659374 257.88168Q59.20625 258.3348 59.190624 259.1473L58.1125 259.03793Q58.221874 257.81918 58.940624 257.19418Q59.675 256.55356 60.909374 256.55356Q62.14375 256.55356 62.8625 257.24106Q63.58125 257.92856 63.58125 258.94418Q63.58125 259.4598 63.3625 259.9598Q63.159374 260.44418 62.659374 261.00668Q62.175 261.55356 61.05 262.50668Q60.096874 263.30356 59.815624 263.60043Q59.55 263.88168 59.378124 264.16293L63.596874 264.16293ZM65.05 260.94418Q65.05 259.41293 65.3625 258.49106Q65.675 257.55356 66.28438 257.05356Q66.90938 256.55356 67.84688 256.55356Q68.53438 256.55356 69.05 256.8348Q69.58125 257.11606 69.925 257.6473Q70.26875 258.16293 70.45625 258.91293Q70.64375 259.66293 70.64375 260.94418Q70.64375 262.4598 70.33125 263.38168Q70.03438 264.30356 69.40938 264.81918Q68.8 265.31918 67.84688 265.31918Q66.6125 265.31918 65.89375 264.42856Q65.05 263.36606 65.05 260.94418ZM66.12813 260.94418Q66.12813 263.05356 66.62813 263.75668Q67.12813 264.4598 67.84688 264.4598Q68.58125 264.4598 69.06563 263.75668Q69.56563 263.05356 69.56563 260.94418Q69.56563 258.81918 69.06563 258.13168Q68.58125 257.42856 67.83125 257.42856Q67.1125 257.42856 66.675 258.03793Q66.12813 258.81918 66.12813 260.94418ZM72.05 260.94418Q72.05 259.41293 72.3625 258.49106Q72.675 257.55356 73.28438 257.05356Q73.90938 256.55356 74.84688 256.55356Q75.53438 256.55356 76.05 256.8348Q76.58125 257.11606 76.925 257.6473Q77.26875 258.16293 77.45625 258.91293Q77.64375 259.66293 77.64375 260.94418Q77.64375 262.4598 77.33125 263.38168Q77.03438 264.30356 76.40938 264.81918Q75.8 265.31918 74.84688 265.31918Q73.6125 265.31918 72.89375 264.42856Q72.05 263.36606 72.05 260.94418ZM73.12813 260.94418Q73.12813 263.05356 73.62813 263.75668Q74.12813 264.4598 74.84688 264.4598Q75.58125 264.4598 76.06563 263.75668Q76.56563 263.05356 76.56563 260.94418Q76.56563 258.81918 76.06563 258.13168Q75.58125 257.42856 74.83125 257.42856Q74.1125 257.42856 73.675 258.03793Q73.12813 258.81918 73.12813 260.94418ZM79.05 260.94418Q79.05 259.41293 79.3625 258.49106Q79.675 257.55356 80.28438 257.05356Q80.90938 256.55356 81.84688 256.55356Q82.53438 256.55356 83.05 256.8348Q83.58125 257.11606 83.925 257.6473Q84.26875 258.16293 84.45625 258.91293Q84.64375 259.66293 84.64375 260.94418Q84.64375 262.4598 84.33125 263.38168Q84.03438 264.30356 83.40938 264.81918Q82.8 265.31918 81.84688 265.31918Q80.6125 265.31918 79.89375 264.42856Q79.05 263.36606 79.05 260.94418ZM80.12813 260.94418Q80.12813 263.05356 80.62813 263.75668Q81.12813 264.4598 81.84688 264.4598Q82.58125 264.4598 83.06563 263.75668Q83.56563 263.05356 83.56563 260.94418Q83.56563 258.81918 83.06563 258.13168Q82.58125 257.42856 81.83125 257.42856Q81.1125 257.42856 80.675 258.03793Q80.12813 258.81918 80.12813 260.94418ZM86.05 260.94418Q86.05 259.41293 86.3625 258.49106Q86.675 257.55356 87.28438 257.05356Q87.90938 256.55356 88.84688 256.55356Q89.53438 256.55356 90.05 256.8348Q90.58125 257.11606 90.925 257.6473Q91.26875 258.16293 91.45625 258.91293Q91.64375 259.66293 91.64375 260.94418Q91.64375 262.4598 91.33125 263.38168Q91.03438 264.30356 90.40938 264.81918Q89.8 265.31918 88.84688 265.31918Q87.6125 265.31918 86.89375 264.42856Q86.05 263.36606 86.05 260.94418ZM87.12813 260.94418Q87.12813 263.05356 87.62813 263.75668Q88.12813 264.4598 88.84688 264.4598Q89.58125 264.4598 90.06563 263.75668Q90.56563 263.05356 90.56563 260.94418Q90.56563 258.81918 90.06563 258.13168Q89.58125 257.42856 88.83125 257.42856Q88.1125 257.42856 87.675 258.03793Q87.12813 258.81918 87.12813 260.94418ZM93.05 260.94418Q93.05 259.41293 93.3625 258.49106Q93.675 257.55356 94.28438 257.05356Q94.90938 256.55356 95.84688 256.55356Q96.53438 256.55356 97.05 256.8348Q97.58125 257.11606 97.925 257.6473Q98.26875 258.16293 98.45625 258.91293Q98.64375 259.66293 98.64375 260.94418Q98.64375 262.4598 98.33125 263.38168Q98.03438 264.30356 97.40938 264.81918Q96.8 265.31918 95.84688 265.31918Q94.6125 265.31918 93.89375 264.42856Q93.05 263.36606 93.05 260.94418ZM94.12813 260.94418Q94.12813 263.05356 94.62813 263.75668Q95.12813 264.4598 95.84688 264.4598Q96.58125 264.4598 97.06563 263.75668Q97.56563 263.05356 97.56563 260.94418Q97.56563 258.81918 97.06563 258.13168Q96.58125 257.42856 95.83125 257.42856Q95.1125 257.42856 94.675 258.03793Q94.12813 258.81918 94.12813 260.94418Z" fill-rule="nonzero"/><path fill="#000000" d="M61.425 225.90715L61.425 223.84465L57.70625 223.84465L57.70625 222.8759L61.628124 217.3134L62.4875 217.3134L62.4875 222.8759L63.64375 222.8759L63.64375 223.84465L62.4875 223.84465L62.4875 225.90715L61.425 225.90715ZM61.425 222.8759L61.425 219.01653L58.7375 222.8759L61.425 222.8759ZM65.05 221.67278Q65.05 220.14153 65.3625 219.21965Q65.675 218.28215 66.28438 217.78215Q66.90938 217.28215 67.84688 217.28215Q68.53438 217.28215 69.05 217.5634Q69.58125 217.84465 69.925 218.3759Q70.26875 218.89153 70.45625 219.64153Q70.64375 220.39153 70.64375 221.67278Q70.64375 223.1884 70.33125 224.11028Q70.03438 225.03215 69.40938 225.54778Q68.8 226.04778 67.84688 226.04778Q66.6125 226.04778 65.89375 225.15715Q65.05 224.09465 65.05 221.67278ZM66.12813 221.67278Q66.12813 223.78215 66.62813 224.48528Q67.12813 225.1884 67.84688 225.1884Q68.58125 225.1884 69.06563 224.48528Q69.56563 223.78215 69.56563 221.67278Q69.56563 219.54778 69.06563 218.86028Q68.58125 218.15715 67.83125 218.15715Q67.1125 218.15715 66.675 218.76653Q66.12813 219.54778 66.12813 221.67278ZM72.05 221.67278Q72.05 220.14153 72.3625 219.21965Q72.675 218.28215 73.28438 217.78215Q73.90938 217.28215 74.84688 217.28215Q75.53438 217.28215 76.05 217.5634Q76.58125 217.84465 76.925 218.3759Q77.26875 218.89153 77.45625 219.64153Q77.64375 220.39153 77.64375 221.67278Q77.64375 223.1884 77.33125 224.11028Q77.03438 225.03215 76.40938 225.54778Q75.8 226.04778 74.84688 226.04778Q73.6125 226.04778 72.89375 225.15715Q72.05 224.09465 72.05 221.67278ZM73.12813 221.67278Q73.12813 223.78215 73.62813 224.48528Q74.12813 225.1884 74.84688 225.1884Q75.58125 225.1884 76.06563 224.48528Q76.56563 223.78215 76.56563 221.67278Q76.56563 219.54778 76.06563 218.86028Q75.58125 218.15715 74.83125 218.15715Q74.1125 218.15715 73.675 218.76653Q73.12813 219.54778 73.12813 221.67278ZM79.05 221.67278Q79.05 220.14153 79.3625 219.21965Q79.675 218.28215 80.28438 217.78215Q80.90938 217.28215 81.84688 217.28215Q82.53438 217.28215 83.05 217.5634Q83.58125 217.84465 83.925 218.3759Q84.26875 218.89153 84.45625 219.64153Q84.64375 220.39153 84.64375 221.67278Q84.64375 223.1884 84.33125 224.11028Q84.03438 225.03215 83.40938 225.54778Q82.8 226.04778 81.84688 226.04778Q80.6125 226.04778 79.89375 225.15715Q79.05 224.09465 79.05 221.67278ZM80.12813 221.67278Q80.12813 223.78215 80.62813 224.48528Q81.12813 225.1884 81.84688 225.1884Q82.58125 225.1884 83.06563 224.48528Q83.56563 223.78215 83.56563 221.67278Q83.56563 219.54778 83.06563 218.86028Q82.58125 218.15715 81.83125 218.15715Q81.1125 218.15715 80.675 218.76653Q80.12813 219.54778 80.12813 221.67278ZM86.05 221.67278Q86.05 220.14153 86.3625 219.21965Q86.675 218.28215 87.28438 217.78215Q87.90938 217.28215 88.84688 217.28215Q89.53438 217.28215 90.05 217.5634Q90.58125 217.84465 90.925 218.3759Q91.26875 218.89153 91.45625 219.64153Q91.64375 220.39153 91.64375 221.67278Q91.64375 223.1884 91.33125 224.11028Q91.03438 225.03215 90.40938 225.54778Q89.8 226.04778 88.84688 226.04778Q87.6125 226.04778 86.89375 225.15715Q86.05 224.09465 86.05 221.67278ZM87.12813 221.67278Q87.12813 223.78215 87.62813 224.48528Q88.12813 225.1884 88.84688 225.1884Q89.58125 225.1884 90.06563 224.48528Q90.56563 223.78215 90.56563 221.67278Q90.56563 219.54778 90.06563 218.86028Q89.58125 218.15715 88.83125 218.15715Q88.1125 218.15715 87.675 218.76653Q87.12813 219.54778 87.12813 221.67278ZM93.05 221.67278Q93.05 220.14153 93.3625 219.21965Q93.675 218.28215 94.28438 217.78215Q94.90938 217.28215 95.84688 217.28215Q96.53438 217.28215 97.05 217.5634Q97.58125 217.84465 97.925 218.3759Q98.26875 218.89153 98.45625 219.64153Q98.64375 220.39153 98.64375 221.67278Q98.64375 223.1884 98.33125 224.11028Q98.03438 225.03215 97.40938 225.54778Q96.8 226.04778 95.84688 226.04778Q94.6125 226.04778 93.89375 225.15715Q93.05 224.09465 93.05 221.67278ZM94.12813 221.67278Q94.12813 223.78215 94.62813 224.48528Q95.12813 225.1884 95.84688 225.1884Q96.58125 225.1884 97.06563 224.48528Q97.56563 223.78215 97.56563 221.67278Q97.56563 219.54778 97.06563 218.86028Q96.58125 218.15715 95.83125 218.15715Q95.1125 218.15715 94.675 218.76653Q94.12813 219.54778 94.12813 221.67278Z" fill-rule="nonzero"/><path fill="#000000" d="M63.51875 180.15134L62.471874 180.22946Q62.33125 179.60446 62.08125 179.32321Q61.64375 178.87009 61.01875 178.87009Q60.51875 178.87009 60.128124 179.15134Q59.64375 179.52634 59.346874 180.22946Q59.065624 180.91696 59.05 182.19821Q59.425 181.62009 59.971874 181.33884Q60.534374 181.05759 61.14375 181.05759Q62.190624 181.05759 62.925 181.83884Q63.675 182.62009 63.675 183.83884Q63.675 184.65134 63.315624 185.35446Q62.971874 186.04196 62.3625 186.41696Q61.753124 186.77634 60.9875 186.77634Q59.659374 186.77634 58.83125 185.80759Q58.003124 184.83884 58.003124 182.62009Q58.003124 180.12009 58.925 178.99509Q59.721874 178.01071 61.08125 178.01071Q62.096874 178.01071 62.7375 178.58884Q63.39375 179.15134 63.51875 180.15134ZM59.221874 183.85446Q59.221874 184.40134 59.440624 184.90134Q59.675 185.38571 60.08125 185.65134Q60.503124 185.91696 60.971874 185.91696Q61.628124 185.91696 62.1125 185.38571Q62.596874 184.83884 62.596874 183.91696Q62.596874 183.02634 62.1125 182.51071Q61.64375 181.99509 60.925 181.99509Q60.20625 181.99509 59.70625 182.51071Q59.221874 183.02634 59.221874 183.85446ZM65.05 182.40134Q65.05 180.87009 65.3625 179.94821Q65.675 179.01071 66.28438 178.51071Q66.90938 178.01071 67.84688 178.01071Q68.53438 178.01071 69.05 178.29196Q69.58125 178.57321 69.925 179.10446Q70.26875 179.62009 70.45625 180.37009Q70.64375 181.12009 70.64375 182.40134Q70.64375 183.91696 70.33125 184.83884Q70.03438 185.76071 69.40938 186.27634Q68.8 186.77634 67.84688 186.77634Q66.6125 186.77634 65.89375 185.88571Q65.05 184.82321 65.05 182.40134ZM66.12813 182.40134Q66.12813 184.51071 66.62813 185.21384Q67.12813 185.91696 67.84688 185.91696Q68.58125 185.91696 69.06563 185.21384Q69.56563 184.51071 69.56563 182.40134Q69.56563 180.27634 69.06563 179.58884Q68.58125 178.88571 67.83125 178.88571Q67.1125 178.88571 66.675 179.49509Q66.12813 180.27634 66.12813 182.40134ZM72.05 182.40134Q72.05 180.87009 72.3625 179.94821Q72.675 179.01071 73.28438 178.51071Q73.90938 178.01071 74.84688 178.01071Q75.53438 178.01071 76.05 178.29196Q76.58125 178.57321 76.925 179.10446Q77.26875 179.62009 77.45625 180.37009Q77.64375 181.12009 77.64375 182.40134Q77.64375 183.91696 77.33125 184.83884Q77.03438 185.76071 76.40938 186.27634Q75.8 186.77634 74.84688 186.77634Q73.6125 186.77634 72.89375 185.88571Q72.05 184.82321 72.05 182.40134ZM73.12813 182.40134Q73.12813 184.51071 73.62813 185.21384Q74.12813 185.91696 74.84688 185.91696Q75.58125 185.91696 76.06563 185.21384Q76.56563 184.51071 76.56563 182.40134Q76.56563 180.27634 76.06563 179.58884Q75.58125 178.88571 74.83125 178.88571Q74.1125 178.88571 73.675 179.49509Q73.12813 180.27634 73.12813 182.40134ZM79.05 182.40134Q79.05 180.87009 79.3625 179.94821Q79.675 179.01071 80.28438 178.51071Q80.90938 178.01071 81.84688 178.01071Q82.53438 178.01071 83.05 178.29196Q83.58125 178.57321 83.925 179.10446Q84.26875 179.62009 84.45625 180.37009Q84.64375 181.12009 84.64375 182.40134Q84.64375 183.91696 84.33125 184.83884Q84.03438 185.76071 83.40938 186.27634Q82.8 186.77634 81.84688 186.77634Q80.6125 186.77634 79.89375 185.88571Q79.05 184.82321 79.05 182.40134ZM80.12813 182.40134Q80.12813 184.51071 80.62813 185.21384Q81.12813 185.91696 81.84688 185.91696Q82.58125 185.91696 83.06563 185.21384Q83.56563 184.51071 83.56563 182.40134Q83.56563 180.27634 83.06563 179.58884Q82.58125 178.88571 81.83125 178.88571Q81.1125 178.88571 80.675 179.49509Q80.12813 180.27634 80.12813 182.40134ZM86.05 182.40134Q86.05 180.87009 86.3625 179.94821Q86.675 179.01071 87.28438 178.51071Q87.90938 178.01071 88.84688 178.01071Q89.53438 178.01071 90.05 178.29196Q90.58125 178.57321 90.925 179.10446Q91.26875 179.62009 91.45625 180.37009Q91.64375 181.12009 91.64375 182.40134Q91.64375 183.91696 91.33125 184.83884Q91.03438 185.76071 90.40938 186.27634Q89.8 186.77634 88.84688 186.77634Q87.6125 186.77634 86.89375 185.88571Q86.05 184.82321 86.05 182.40134ZM87.12813 182.40134Q87.12813 184.51071 87.62813 185.21384Q88.12813 185.91696 88.84688 185.91696Q89.58125 185.91696 90.06563 185.21384Q90.56563 184.51071 90.56563 182.40134Q90.56563 180.27634 90.06563 179.58884Q89.58125 178.88571 88.83125 178.88571Q88.1125 178.88571 87.675 179.49509Q87.12813 180.27634 87.12813 182.40134ZM93.05 182.40134Q93.05 180.87009 93.3625 179.94821Q93.675 179.01071 94.28438 178.51071Q94.90938 178.01071 95.84688 178.01071Q96.53438 178.01071 97.05 178.29196Q97.58125 178.57321 97.925 179.10446Q98.26875 179.62009 98.45625 180.37009Q98.64375 181.12009 98.64375 182.40134Q98.64375 183.91696 98.33125 184.83884Q98.03438 185.76071 97.40938 186.27634Q96.8 186.77634 95.84688 186.77634Q94.6125 186.77634 93.89375 185.88571Q93.05 184.82321 93.05 182.40134ZM94.12813 182.40134Q94.12813 184.51071 94.62813 185.21384Q95.12813 185.91696 95.84688 185.91696Q96.58125 185.91696 97.06563 185.21384Q97.56563 184.51071 97.56563 182.40134Q97.56563 180.27634 97.06563 179.58884Q96.58125 178.88571 95.83125 178.88571Q95.1125 178.88571 94.675 179.49509Q94.12813 180.27634 94.12813 182.40134Z" fill-rule="nonzero"/><path fill="#000000" d="M59.675 142.70804Q59.01875 142.45804 58.690624 142.02054Q58.378124 141.56741 58.378124 140.95804Q58.378124 140.02054 59.05 139.37991Q59.7375 138.73929 60.846874 138.73929Q61.971874 138.73929 62.659374 139.39554Q63.346874 140.05179 63.346874 140.98929Q63.346874 141.58304 63.034374 142.02054Q62.721874 142.45804 62.08125 142.70804Q62.878124 142.95804 63.284374 143.53616Q63.690624 144.11429 63.690624 144.91116Q63.690624 146.00491 62.909374 146.75491Q62.14375 147.50491 60.8625 147.50491Q59.596874 147.50491 58.815624 146.75491Q58.034374 146.00491 58.034374 144.87991Q58.034374 144.03616 58.45625 143.47366Q58.89375 142.91116 59.675 142.70804ZM59.45625 140.91116Q59.45625 141.52054 59.846874 141.91116Q60.253124 142.30179 60.878124 142.30179Q61.4875 142.30179 61.878124 141.92679Q62.26875 141.53616 62.26875 140.97366Q62.26875 140.39554 61.8625 140.00491Q61.45625 139.59866 60.8625 139.59866Q60.253124 139.59866 59.846874 139.98929Q59.45625 140.37991 59.45625 140.91116ZM59.128124 144.87991Q59.128124 145.33304 59.33125 145.75491Q59.55 146.17679 59.971874 146.41116Q60.39375 146.64554 60.878124 146.64554Q61.628124 146.64554 62.1125 146.16116Q62.6125 145.67679 62.6125 144.92679Q62.6125 144.16116 62.1125 143.66116Q61.6125 143.16116 60.846874 143.16116Q60.096874 143.16116 59.6125 143.66116Q59.128124 144.14554 59.128124 144.87991ZM65.05 143.12991Q65.05 141.59866 65.3625 140.67679Q65.675 139.73929 66.28438 139.23929Q66.90938 138.73929 67.84688 138.73929Q68.53438 138.73929 69.05 139.02054Q69.58125 139.30179 69.925 139.83304Q70.26875 140.34866 70.45625 141.09866Q70.64375 141.84866 70.64375 143.12991Q70.64375 144.64554 70.33125 145.56741Q70.03438 146.48929 69.40938 147.00491Q68.8 147.50491 67.84688 147.50491Q66.6125 147.50491 65.89375 146.61429Q65.05 145.55179 65.05 143.12991ZM66.12813 143.12991Q66.12813 145.23929 66.62813 145.94241Q67.12813 146.64554 67.84688 146.64554Q68.58125 146.64554 69.06563 145.94241Q69.56563 145.23929 69.56563 143.12991Q69.56563 141.00491 69.06563 140.31741Q68.58125 139.61429 67.83125 139.61429Q67.1125 139.61429 66.675 140.22366Q66.12813 141.00491 66.12813 143.12991ZM72.05 143.12991Q72.05 141.59866 72.3625 140.67679Q72.675 139.73929 73.28438 139.23929Q73.90938 138.73929 74.84688 138.73929Q75.53438 138.73929 76.05 139.02054Q76.58125 139.30179 76.925 139.83304Q77.26875 140.34866 77.45625 141.09866Q77.64375 141.84866 77.64375 143.12991Q77.64375 144.64554 77.33125 145.56741Q77.03438 146.48929 76.40938 147.00491Q75.8 147.50491 74.84688 147.50491Q73.6125 147.50491 72.89375 146.61429Q72.05 145.55179 72.05 143.12991ZM73.12813 143.12991Q73.12813 145.23929 73.62813 145.94241Q74.12813 146.64554 74.84688 146.64554Q75.58125 146.64554 76.06563 145.94241Q76.56563 145.23929 76.56563 143.12991Q76.56563 141.00491 76.06563 140.31741Q75.58125 139.61429 74.83125 139.61429Q74.1125 139.61429 73.675 140.22366Q73.12813 141.00491 73.12813 143.12991ZM79.05 143.12991Q79.05 141.59866 79.3625 140.67679Q79.675 139.73929 80.28438 139.23929Q80.90938 138.73929 81.84688 138.73929Q82.53438 138.73929 83.05 139.02054Q83.58125 139.30179 83.925 139.83304Q84.26875 140.34866 84.45625 141.09866Q84.64375 141.84866 84.64375 143.12991Q84.64375 144.64554 84.33125 145.56741Q84.03438 146.48929 83.40938 147.00491Q82.8 147.50491 81.84688 147.50491Q80.6125 147.50491 79.89375 146.61429Q79.05 145.55179 79.05 143.12991ZM80.12813 143.12991Q80.12813 145.23929 80.62813 145.94241Q81.12813 146.64554 81.84688 146.64554Q82.58125 146.64554 83.06563 145.94241Q83.56563 145.23929 83.56563 143.12991Q83.56563 141.00491 83.06563 140.31741Q82.58125 139.61429 81.83125 139.61429Q81.1125 139.61429 80.675 140.22366Q80.12813 141.00491 80.12813 143.12991ZM86.05 143.12991Q86.05 141.59866 86.3625 140.67679Q86.675 139.73929 87.28438 139.23929Q87.90938 138.73929 88.84688 138.73929Q89.53438 138.73929 90.05 139.02054Q90.58125 139.30179 90.925 139.83304Q91.26875 140.34866 91.45625 141.09866Q91.64375 141.84866 91.64375 143.12991Q91.64375 144.64554 91.33125 145.56741Q91.03438 146.48929 90.40938 147.00491Q89.8 147.50491 88.84688 147.50491Q87.6125 147.50491 86.89375 146.61429Q86.05 145.55179 86.05 143.12991ZM87.12813 143.12991Q87.12813 145.23929 87.62813 145.94241Q88.12813 146.64554 88.84688 146.64554Q89.58125 146.64554 90.06563 145.94241Q90.56563 145.23929 90.56563 143.12991Q90.56563 141.00491 90.06563 140.31741Q89.58125 139.61429 88.83125 139.61429Q88.1125 139.61429 87.675 140.22366Q87.12813 141.00491 87.12813 143.12991ZM93.05 143.12991Q93.05 141.59866 93.3625 140.67679Q93.675 139.73929 94.28438 139.23929Q94.90938 138.73929 95.84688 138.73929Q96.53438 138.73929 97.05 139.02054Q97.58125 139.30179 97.925 139.83304Q98.26875 140.34866 98.45625 141.09866Q98.64375 141.84866 98.64375 143.12991Q98.64375 144.64554 98.33125 145.56741Q98.03438 146.48929 97.40938 147.00491Q96.8 147.50491 95.84688 147.50491Q94.6125 147.50491 93.89375 146.61429Q93.05 145.55179 93.05 143.12991ZM94.12813 143.12991Q94.12813 145.23929 94.62813 145.94241Q95.12813 146.64554 95.84688 146.64554Q96.58125 146.64554 97.06563 145.94241Q97.56563 145.23929 97.56563 143.12991Q97.56563 141.00491 97.06563 140.31741Q96.58125 139.61429 95.83125 139.61429Q95.1125 139.61429 94.675 140.22366Q94.12813 141.00491 94.12813 143.12991Z" fill-rule="nonzero"/><path fill="#000000" d="M55.01875 108.09286L53.971874 108.09286L53.971874 101.37411Q53.58125 101.73348 52.95625 102.10848Q52.346874 102.46786 51.8625 102.63973L51.8625 101.62411Q52.7375 101.20223 53.39375 100.62411Q54.065624 100.03036 54.346874 99.46786L55.01875 99.46786L55.01875 108.09286ZM58.05 103.85848Q58.05 102.32723 58.3625 101.40536Q58.675 100.46786 59.284374 99.96786Q59.909374 99.46786 60.846874 99.46786Q61.534374 99.46786 62.05 99.74911Q62.58125 100.03036 62.925 100.56161Q63.26875 101.07723 63.45625 101.82723Q63.64375 102.57723 63.64375 103.85848Q63.64375 105.37411 63.33125 106.29598Q63.034374 107.21786 62.409374 107.73348Q61.8 108.23348 60.846874 108.23348Q59.6125 108.23348 58.89375 107.34286Q58.05 106.28036 58.05 103.85848ZM59.128124 103.85848Q59.128124 105.96786 59.628124 106.67098Q60.128124 107.37411 60.846874 107.37411Q61.58125 107.37411 62.065624 106.67098Q62.565624 105.96786 62.565624 103.85848Q62.565624 101.73348 62.065624 101.04598Q61.58125 100.34286 60.83125 100.34286Q60.1125 100.34286 59.675 100.95223Q59.128124 101.73348 59.128124 103.85848ZM65.05 103.85848Q65.05 102.32723 65.3625 101.40536Q65.675 100.46786 66.28438 99.96786Q66.90938 99.46786 67.84688 99.46786Q68.53438 99.46786 69.05 99.74911Q69.58125 100.03036 69.925 100.56161Q70.26875 101.07723 70.45625 101.82723Q70.64375 102.57723 70.64375 103.85848Q70.64375 105.37411 70.33125 106.29598Q70.03438 107.21786 69.40938 107.73348Q68.8 108.23348 67.84688 108.23348Q66.6125 108.23348 65.89375 107.34286Q65.05 106.28036 65.05 103.85848ZM66.12813 103.85848Q66.12813 105.96786 66.62813 106.67098Q67.12813 107.37411 67.84688 107.37411Q68.58125 107.37411 69.06563 106.67098Q69.56563 105.96786 69.56563 103.85848Q69.56563 101.73348 69.06563 101.04598Q68.58125 100.34286 67.83125 100.34286Q67.1125 100.34286 66.675 100.95223Q66.12813 101.73348 66.12813 103.85848ZM72.05 103.85848Q72.05 102.32723 72.3625 101.40536Q72.675 100.46786 73.28438 99.96786Q73.90938 99.46786 74.84688 99.46786Q75.53438 99.46786 76.05 99.74911Q76.58125 100.03036 76.925 100.56161Q77.26875 101.07723 77.45625 101.82723Q77.64375 102.57723 77.64375 103.85848Q77.64375 105.37411 77.33125 106.29598Q77.03438 107.21786 76.40938 107.73348Q75.8 108.23348 74.84688 108.23348Q73.6125 108.23348 72.89375 107.34286Q72.05 106.28036 72.05 103.85848ZM73.12813 103.85848Q73.12813 105.96786 73.62813 106.67098Q74.12813 107.37411 74.84688 107.37411Q75.58125 107.37411 76.06563 106.67098Q76.56563 105.96786 76.56563 103.85848Q76.56563 101.73348 76.06563 101.04598Q75.58125 100.34286 74.83125 100.34286Q74.1125 100.34286 73.675 100.95223Q73.12813 101.73348 73.12813 103.85848ZM79.05 103.85848Q79.05 102.32723 79.3625 101.40536Q79.675 100.46786 80.28438 99.96786Q80.90938 99.46786 81.84688 99.46786Q82.53438 99.46786 83.05 99.74911Q83.58125 100.03036 83.925 100.56161Q84.26875 101.07723 84.45625 101.82723Q84.64375 102.57723 84.64375 103.85848Q84.64375 105.37411 84.33125 106.29598Q84.03438 107.21786 83.40938 107.73348Q82.8 108.23348 81.84688 108.23348Q80.6125 108.23348 79.89375 107.34286Q79.05 106.28036 79.05 103.85848ZM80.12813 103.85848Q80.12813 105.96786 80.62813 106.67098Q81.12813 107.37411 81.84688 107.37411Q82.58125 107.37411 83.06563 106.67098Q83.56563 105.96786 83.56563 103.85848Q83.56563 101.73348 83.06563 101.04598Q82.58125 100.34286 81.83125 100.34286Q81.1125 100.34286 80.675 100.95223Q80.12813 101.73348 80.12813 103.85848ZM86.05 103.85848Q86.05 102.32723 86.3625 101.40536Q86.675 100.46786 87.28438 99.96786Q87.90938 99.46786 88.84688 99.46786Q89.53438 99.46786 90.05 99.74911Q90.58125 100.03036 90.925 100.56161Q91.26875 101.07723 91.45625 101.82723Q91.64375 102.57723 91.64375 103.85848Q91.64375 105.37411 91.33125 106.29598Q91.03438 107.21786 90.40938 107.73348Q89.8 108.23348 88.84688 108.23348Q87.6125 108.23348 86.89375 107.34286Q86.05 106.28036 86.05 103.85848ZM87.12813 103.85848Q87.12813 105.96786 87.62813 106.67098Q88.12813 107.37411 88.84688 107.37411Q89.58125 107.37411 90.06563 106.67098Q90.56563 105.96786 90.56563 103.85848Q90.56563 101.73348 90.06563 101.04598Q89.58125 100.34286 88.83125 100.34286Q88.1125 100.34286 87.675 100.95223Q87.12813 101.73348 87.12813 103.85848ZM93.05 103.85848Q93.05 102.32723 93.3625 101.40536Q93.675 100.46786 94.28438 99.96786Q94.90938 99.46786 95.84688 99.46786Q96.53438 99.46786 97.05 99.74911Q97.58125 100.03036 97.925 100.56161Q98.26875 101.07723 98.45625 101.82723Q98.64375 102.57723 98.64375 103.85848Q98.64375 105.37411 98.33125 106.29598Q98.03438 107.21786 97.40938 107.73348Q96.8 108.23348 95.84688 108.23348Q94.6125 108.23348 93.89375 107.34286Q93.05 106.28036 93.05 103.85848ZM94.12813 103.85848Q94.12813 105.96786 94.62813 106.67098Q95.12813 107.37411 95.84688 107.37411Q96.58125 107.37411 97.06563 106.67098Q97.56563 105.96786 97.56563 103.85848Q97.56563 101.73348 97.06563 101.04598Q96.58125 100.34286 95.83125 100.34286Q95.1125 100.34286 94.675 100.95223Q94.12813 101.73348 94.12813 103.85848Z" fill-rule="nonzero"/><path fill="#000000" d="M55.01875 68.82143L53.971874 68.82143L53.971874 62.102676Q53.58125 62.46205 52.95625 62.83705Q52.346874 63.196426 51.8625 63.3683L51.8625 62.352676Q52.7375 61.9308 53.39375 61.352676Q54.065624 60.758926 54.346874 60.196426L55.01875 60.196426L55.01875 68.82143ZM63.596874 67.8058L63.596874 68.82143L57.909374 68.82143Q57.909374 68.44643 58.034374 68.08705Q58.253124 67.50893 58.721874 66.94643Q59.20625 66.38393 60.1125 65.64955Q61.51875 64.4933 62.003124 63.821426Q62.503124 63.14955 62.503124 62.5558Q62.503124 61.9308 62.05 61.508926Q61.596874 61.071426 60.878124 61.071426Q60.1125 61.071426 59.659374 61.52455Q59.20625 61.977676 59.190624 62.790176L58.1125 62.6808Q58.221874 61.46205 58.940624 60.83705Q59.675 60.196426 60.909374 60.196426Q62.14375 60.196426 62.8625 60.883926Q63.58125 61.571426 63.58125 62.58705Q63.58125 63.102676 63.3625 63.602676Q63.159374 64.08705 62.659374 64.64955Q62.175 65.19643 61.05 66.14955Q60.096874 66.94643 59.815624 67.2433Q59.55 67.52455 59.378124 67.8058L63.596874 67.8058ZM65.05 64.58705Q65.05 63.0558 65.3625 62.133926Q65.675 61.196426 66.28438 60.696426Q66.90938 60.196426 67.84688 60.196426Q68.53438 60.196426 69.05 60.477676Q69.58125 60.758926 69.925 61.290176Q70.26875 61.8058 70.45625 62.5558Q70.64375 63.3058 70.64375 64.58705Q70.64375 66.10268 70.33125 67.02455Q70.03438 67.94643 69.40938 68.46205Q68.8 68.96205 67.84688 68.96205Q66.6125 68.96205 65.89375 68.07143Q65.05 67.00893 65.05 64.58705ZM66.12813 64.58705Q66.12813 66.69643 66.62813 67.39955Q67.12813 68.10268 67.84688 68.10268Q68.58125 68.10268 69.06563 67.39955Q69.56563 66.69643 69.56563 64.58705Q69.56563 62.46205 69.06563 61.77455Q68.58125 61.071426 67.83125 61.071426Q67.1125 61.071426 66.675 61.6808Q66.12813 62.46205 66.12813 64.58705ZM72.05 64.58705Q72.05 63.0558 72.3625 62.133926Q72.675 61.196426 73.28438 60.696426Q73.90938 60.196426 74.84688 60.196426Q75.53438 60.196426 76.05 60.477676Q76.58125 60.758926 76.925 61.290176Q77.26875 61.8058 77.45625 62.5558Q77.64375 63.3058 77.64375 64.58705Q77.64375 66.10268 77.33125 67.02455Q77.03438 67.94643 76.40938 68.46205Q75.8 68.96205 74.84688 68.96205Q73.6125 68.96205 72.89375 68.07143Q72.05 67.00893 72.05 64.58705ZM73.12813 64.58705Q73.12813 66.69643 73.62813 67.39955Q74.12813 68.10268 74.84688 68.10268Q75.58125 68.10268 76.06563 67.39955Q76.56563 66.69643 76.56563 64.58705Q76.56563 62.46205 76.06563 61.77455Q75.58125 61.071426 74.83125 61.071426Q74.1125 61.071426 73.675 61.6808Q73.12813 62.46205 73.12813 64.58705ZM79.05 64.58705Q79.05 63.0558 79.3625 62.133926Q79.675 61.196426 80.28438 60.696426Q80.90938 60.196426 81.84688 60.196426Q82.53438 60.196426 83.05 60.477676Q83.58125 60.758926 83.925 61.290176Q84.26875 61.8058 84.45625 62.5558Q84.64375 63.3058 84.64375 64.58705Q84.64375 66.10268 84.33125 67.02455Q84.03438 67.94643 83.40938 68.46205Q82.8 68.96205 81.84688 68.96205Q80.6125 68.96205 79.89375 68.07143Q79.05 67.00893 79.05 64.58705ZM80.12813 64.58705Q80.12813 66.69643 80.62813 67.39955Q81.12813 68.10268 81.84688 68.10268Q82.58125 68.10268 83.06563 67.39955Q83.56563 66.69643 83.56563 64.58705Q83.56563 62.46205 83.06563 61.77455Q82.58125 61.071426 81.83125 61.071426Q81.1125 61.071426 80.675 61.6808Q80.12813 62.46205 80.12813 64.58705ZM86.05 64.58705Q86.05 63.0558 86.3625 62.133926Q86.675 61.196426 87.28438 60.696426Q87.90938 60.196426 88.84688 60.196426Q89.53438 60.196426 90.05 60.477676Q90.58125 60.758926 90.925 61.290176Q91.26875 61.8058 91.45625 62.5558Q91.64375 63.3058 91.64375 64.58705Q91.64375 66.10268 91.33125 67.02455Q91.03438 67.94643 90.40938 68.46205Q89.8 68.96205 88.84688 68.96205Q87.6125 68.96205 86.89375 68.07143Q86.05 67.00893 86.05 64.58705ZM87.12813 64.58705Q87.12813 66.69643 87.62813 67.39955Q88.12813 68.10268 88.84688 68.10268Q89.58125 68.10268 90.06563 67.39955Q90.56563 66.69643 90.56563 64.58705Q90.56563 62.46205 90.06563 61.77455Q89.58125 61.071426 88.83125 61.071426Q88.1125 61.071426 87.675 61.6808Q87.12813 62.46205 87.12813 64.58705ZM93.05 64.58705Q93.05 63.0558 93.3625 62.133926Q93.675 61.196426 94.28438 60.696426Q94.90938 60.196426 95.84688 60.196426Q96.53438 60.196426 97.05 60.477676Q97.58125 60.758926 97.925 61.290176Q98.26875 61.8058 98.45625 62.5558Q98.64375 63.3058 98.64375 64.58705Q98.64375 66.10268 98.33125 67.02455Q98.03438 67.94643 97.40938 68.46205Q96.8 68.96205 95.84688 68.96205Q94.6125 68.96205 93.89375 68.07143Q93.05 67.00893 93.05 64.58705ZM94.12813 64.58705Q94.12813 66.69643 94.62813 67.39955Q95.12813 68.10268 95.84688 68.10268Q96.58125 68.10268 97.06563 67.39955Q97.56563 66.69643 97.56563 64.58705Q97.56563 62.46205 97.06563 61.77455Q96.58125 61.071426 95.83125 61.071426Q95.1125 61.071426 94.675 61.6808Q94.12813 62.46205 94.12813 64.58705Z" fill-rule="nonzero"/><path fill="#000000" d="M55.01875 29.55L53.971874 29.55L53.971874 22.83125Q53.58125 23.190624 52.95625 23.565624Q52.346874 23.925 51.8625 24.096874L51.8625 23.08125Q52.7375 22.659374 53.39375 22.08125Q54.065624 21.4875 54.346874 20.925L55.01875 20.925L55.01875 29.55ZM61.425 29.55L61.425 27.4875L57.70625 27.4875L57.70625 26.51875L61.628124 20.95625L62.4875 20.95625L62.4875 26.51875L63.64375 26.51875L63.64375 27.4875L62.4875 27.4875L62.4875 29.55L61.425 29.55ZM61.425 26.51875L61.425 22.659374L58.7375 26.51875L61.425 26.51875ZM65.05 25.315624Q65.05 23.784374 65.3625 22.8625Q65.675 21.925 66.28438 21.425Q66.90938 20.925 67.84688 20.925Q68.53438 20.925 69.05 21.20625Q69.58125 21.4875 69.925 22.01875Q70.26875 22.534374 70.45625 23.284374Q70.64375 24.034374 70.64375 25.315624Q70.64375 26.83125 70.33125 27.753124Q70.03438 28.675 69.40938 29.190624Q68.8 29.690624 67.84688 29.690624Q66.6125 29.690624 65.89375 28.8Q65.05 27.7375 65.05 25.315624ZM66.12813 25.315624Q66.12813 27.425 66.62813 28.128124Q67.12813 28.83125 67.84688 28.83125Q68.58125 28.83125 69.06563 28.128124Q69.56563 27.425 69.56563 25.315624Q69.56563 23.190624 69.06563 22.503124Q68.58125 21.8 67.83125 21.8Q67.1125 21.8 66.675 22.409374Q66.12813 23.190624 66.12813 25.315624ZM72.05 25.315624Q72.05 23.784374 72.3625 22.8625Q72.675 21.925 73.28438 21.425Q73.90938 20.925 74.84688 20.925Q75.53438 20.925 76.05 21.20625Q76.58125 21.4875 76.925 22.01875Q77.26875 22.534374 77.45625 23.284374Q77.64375 24.034374 77.64375 25.315624Q77.64375 26.83125 77.33125 27.753124Q77.03438 28.675 76.40938 29.190624Q75.8 29.690624 74.84688 29.690624Q73.6125 29.690624 72.89375 28.8Q72.05 27.7375 72.05 25.315624ZM73.12813 25.315624Q73.12813 27.425 73.62813 28.128124Q74.12813 28.83125 74.84688 28.83125Q75.58125 28.83125 76.06563 28.128124Q76.56563 27.425 76.56563 25.315624Q76.56563 23.190624 76.06563 22.503124Q75.58125 21.8 74.83125 21.8Q74.1125 21.8 73.675 22.409374Q73.12813 23.190624 73.12813 25.315624ZM79.05 25.315624Q79.05 23.784374 79.3625 22.8625Q79.675 21.925 80.28438 21.425Q80.90938 20.925 81.84688 20.925Q82.53438 20.925 83.05 21.20625Q83.58125 21.4875 83.925 22.01875Q84.26875 22.534374 84.45625 23.284374Q84.64375 24.034374 84.64375 25.315624Q84.64375 26.83125 84.33125 27.753124Q84.03438 28.675 83.40938 29.190624Q82.8 29.690624 81.84688 29.690624Q80.6125 29.690624 79.89375 28.8Q79.05 27.7375 79.05 25.315624ZM80.12813 25.315624Q80.12813 27.425 80.62813 28.128124Q81.12813 28.83125 81.84688 28.83125Q82.58125 28.83125 83.06563 28.128124Q83.56563 27.425 83.56563 25.315624Q83.56563 23.190624 83.06563 22.503124Q82.58125 21.8 81.83125 21.8Q81.1125 21.8 80.675 22.409374Q80.12813 23.190624 80.12813 25.315624ZM86.05 25.315624Q86.05 23.784374 86.3625 22.8625Q86.675 21.925 87.28438 21.425Q87.90938 20.925 88.84688 20.925Q89.53438 20.925 90.05 21.20625Q90.58125 21.4875 90.925 22.01875Q91.26875 22.534374 91.45625 23.284374Q91.64375 24.034374 91.64375 25.315624Q91.64375 26.83125 91.33125 27.753124Q91.03438 28.675 90.40938 29.190624Q89.8 29.690624 88.84688 29.690624Q87.6125 29.690624 86.89375 28.8Q86.05 27.7375 86.05 25.315624ZM87.12813 25.315624Q87.12813 27.425 87.62813 28.128124Q88.12813 28.83125 88.84688 28.83125Q89.58125 28.83125 90.06563 28.128124Q90.56563 27.425 90.56563 25.315624Q90.56563 23.190624 90.06563 22.503124Q89.58125 21.8 88.83125 21.8Q88.1125 21.8 87.675 22.409374Q87.12813 23.190624 87.12813 25.315624ZM93.05 25.315624Q93.05 23.784374 93.3625 22.8625Q93.675 21.925 94.28438 21.425Q94.90938 20.925 95.84688 20.925Q96.53438 20.925 97.05 21.20625Q97.58125 21.4875 97.925 22.01875Q98.26875 22.534374 98.45625 23.284374Q98.64375 24.034374 98.64375 25.315624Q98.64375 26.83125 98.33125 27.753124Q98.03438 28.675 97.40938 29.190624Q96.8 29.690624 95.84688 29.690624Q94.6125 29.690624 93.89375 28.8Q93.05 27.7375 93.05 25.315624ZM94.12813 25.315624Q94.12813 27.425 94.62813 28.128124Q95.12813 28.83125 95.84688 28.83125Q96.58125 28.83125 97.06563 28.128124Q97.56563 27.425 97.56563 25.315624Q97.56563 23.190624 97.06563 22.503124Q96.58125 21.8 95.83125 21.8Q95.1125 21.8 94.675 22.409374Q94.12813 23.190624 94.12813 25.315624Z" fill-rule="nonzero"/><path fill="#000000" d="M146.2551 313.21564Q146.2551 311.6844 146.5676 310.7625Q146.8801 309.825 147.48947 309.325Q148.11447 308.825 149.05197 308.825Q149.73947 308.825 150.2551 309.10626Q150.78635 309.3875 151.1301 309.91876Q151.47385 310.4344 151.66135 311.1844Q151.84885 311.9344 151.84885 313.21564Q151.84885 314.73126 151.53635 315.65314Q151.23947 316.575 150.61447 317.09064Q150.0051 317.59064 149.05197 317.59064Q147.8176 317.59064 147.09885 316.7Q146.2551 315.6375 146.2551 313.21564ZM147.33322 313.21564Q147.33322 315.325 147.83322 316.02814Q148.33322 316.73126 149.05197 316.73126Q149.78635 316.73126 150.27072 316.02814Q150.77072 315.325 150.77072 313.21564Q150.77072 311.09064 150.27072 310.40314Q149.78635 309.7 149.03635 309.7Q148.3176 309.7 147.8801 310.3094Q147.33322 311.09064 147.33322 313.21564Z" fill-rule="nonzero"/><path fill="#000000" d="M214.97215 317.45L213.92528 317.45L213.92528 310.73126Q213.53465 311.09064 212.90965 311.46564Q212.30028 311.825 211.8159 311.9969L211.8159 310.98126Q212.6909 310.5594 213.34715 309.98126Q214.01903 309.3875 214.30028 308.825L214.97215 308.825L214.97215 317.45Z" fill-rule="nonzero"/><path fill="#000000" d="M276.22046 317.45L275.17358 317.45L275.17358 310.73126Q274.78296 311.09064 274.15796 311.46564Q273.54858 311.825 273.0642 311.9969L273.0642 310.98126Q273.9392 310.5594 274.59546 309.98126Q275.26733 309.3875 275.54858 308.825L276.22046 308.825L276.22046 317.45ZM279.2517 313.21564Q279.2517 311.6844 279.5642 310.7625Q279.8767 309.825 280.48608 309.325Q281.11108 308.825 282.04858 308.825Q282.73608 308.825 283.2517 309.10626Q283.78296 309.3875 284.1267 309.91876Q284.47046 310.4344 284.65796 311.1844Q284.84546 311.9344 284.84546 313.21564Q284.84546 314.73126 284.53296 315.65314Q284.23608 316.575 283.61108 317.09064Q283.0017 317.59064 282.04858 317.59064Q280.8142 317.59064 280.09546 316.7Q279.2517 315.6375 279.2517 313.21564ZM280.32983 313.21564Q280.32983 315.325 280.82983 316.02814Q281.32983 316.73126 282.04858 316.73126Q282.78296 316.73126 283.26733 316.02814Q283.76733 315.325 283.76733 313.21564Q283.76733 311.09064 283.26733 310.40314Q282.78296 309.7 282.03296 309.7Q281.3142 309.7 280.8767 310.3094Q280.32983 311.09064 280.32983 313.21564Z" fill-rule="nonzero"/><path fill="#000000" d="M337.46875 317.45L336.42188 317.45L336.42188 310.73126Q336.03125 311.09064 335.40625 311.46564Q334.79688 311.825 334.3125 311.9969L334.3125 310.98126Q335.1875 310.5594 335.84375 309.98126Q336.51562 309.3875 336.79688 308.825L337.46875 308.825L337.46875 317.45ZM340.5 313.21564Q340.5 311.6844 340.8125 310.7625Q341.125 309.825 341.73438 309.325Q342.35938 308.825 343.29688 308.825Q343.98438 308.825 344.5 309.10626Q345.03125 309.3875 345.375 309.91876Q345.71875 310.4344 345.90625 311.1844Q346.09375 311.9344 346.09375 313.21564Q346.09375 314.73126 345.78125 315.65314Q345.48438 316.575 344.85938 317.09064Q344.25 317.59064 343.29688 317.59064Q342.0625 317.59064 341.34375 316.7Q340.5 315.6375 340.5 313.21564ZM341.57812 313.21564Q341.57812 315.325 342.07812 316.02814Q342.57812 316.73126 343.29688 316.73126Q344.03125 316.73126 344.51562 316.02814Q345.01562 315.325 345.01562 313.21564Q345.01562 311.09064 344.51562 310.40314Q344.03125 309.7 343.28125 309.7Q342.5625 309.7 342.125 310.3094Q341.57812 311.09064 341.57812 313.21564ZM347.5 313.21564Q347.5 311.6844 347.8125 310.7625Q348.125 309.825 348.73438 309.325Q349.35938 308.825 350.29688 308.825Q350.98438 308.825 351.5 309.10626Q352.03125 309.3875 352.375 309.91876Q352.71875 310.4344 352.90625 311.1844Q353.09375 311.9344 353.09375 313.21564Q353.09375 314.73126 352.78125 315.65314Q352.48438 316.575 351.85938 317.09064Q351.25 317.59064 350.29688 317.59064Q349.0625 317.59064 348.34375 316.7Q347.5 315.6375 347.5 313.21564ZM348.57812 313.21564Q348.57812 315.325 349.07812 316.02814Q349.57812 316.73126 350.29688 316.73126Q351.03125 316.73126 351.51562 316.02814Q352.01562 315.325 352.01562 313.21564Q352.01562 311.09064 351.51562 310.40314Q351.03125 309.7 350.28125 309.7Q349.5625 309.7 349.125 310.3094Q348.57812 311.09064 348.57812 313.21564Z" fill-rule="nonzero"/><path fill="#000000" d="M398.71704 317.45L397.67017 317.45L397.67017 310.73126Q397.27954 311.09064 396.65454 311.46564Q396.04517 311.825 395.5608 311.9969L395.5608 310.98126Q396.4358 310.5594 397.09204 309.98126Q397.76392 309.3875 398.04517 308.825L398.71704 308.825L398.71704 317.45ZM401.7483 313.21564Q401.7483 311.6844 402.0608 310.7625Q402.3733 309.825 402.98267 309.325Q403.60767 308.825 404.54517 308.825Q405.23267 308.825 405.7483 309.10626Q406.27954 309.3875 406.6233 309.91876Q406.96704 310.4344 407.15454 311.1844Q407.34204 311.9344 407.34204 313.21564Q407.34204 314.73126 407.02954 315.65314Q406.73267 316.575 406.10767 317.09064Q405.4983 317.59064 404.54517 317.59064Q403.3108 317.59064 402.59204 316.7Q401.7483 315.6375 401.7483 313.21564ZM402.82642 313.21564Q402.82642 315.325 403.32642 316.02814Q403.82642 316.73126 404.54517 316.73126Q405.27954 316.73126 405.76392 316.02814Q406.26392 315.325 406.26392 313.21564Q406.26392 311.09064 405.76392 310.40314Q405.27954 309.7 404.52954 309.7Q403.8108 309.7 403.3733 310.3094Q402.82642 311.09064 402.82642 313.21564ZM408.7483 313.21564Q408.7483 311.6844 409.0608 310.7625Q409.3733 309.825 409.98267 309.325Q410.60767 308.825 411.54517 308.825Q412.23267 308.825 412.7483 309.10626Q413.27954 309.3875 413.6233 309.91876Q413.96704 310.4344 414.15454 311.1844Q414.34204 311.9344 414.34204 313.21564Q414.34204 314.73126 414.02954 315.65314Q413.73267 316.575 413.10767 317.09064Q412.4983 317.59064 411.54517 317.59064Q410.3108 317.59064 409.59204 316.7Q408.7483 315.6375 408.7483 313.21564ZM409.82642 313.21564Q409.82642 315.325 410.32642 316.02814Q410.82642 316.73126 411.54517 316.73126Q412.27954 316.73126 412.76392 316.02814Q413.26392 315.325 413.26392 313.21564Q413.26392 311.09064 412.76392 310.40314Q412.27954 309.7 411.52954 309.7Q410.8108 309.7 410.3733 310.3094Q409.82642 311.09064 409.82642 313.21564ZM415.7483 313.21564Q415.7483 311.6844 416.0608 310.7625Q416.3733 309.825 416.98267 309.325Q417.60767 308.825 418.54517 308.825Q419.23267 308.825 419.7483 309.10626Q420.27954 309.3875 420.6233 309.91876Q420.96704 310.4344 421.15454 311.1844Q421.34204 311.9344 421.34204 313.21564Q421.34204 314.73126 421.02954 315.65314Q420.73267 316.575 420.10767 317.09064Q419.4983 317.59064 418.54517 317.59064Q417.3108 317.59064 416.59204 316.7Q415.7483 315.6375 415.7483 313.21564ZM416.82642 313.21564Q416.82642 315.325 417.32642 316.02814Q417.82642 316.73126 418.54517 316.73126Q419.27954 316.73126 419.76392 316.02814Q420.26392 315.325 420.26392 313.21564Q420.26392 311.09064 419.76392 310.40314Q419.27954 309.7 418.52954 309.7Q417.8108 309.7 417.3733 310.3094Q416.82642 311.09064 416.82642 313.21564Z" fill-rule="nonzero"/><path fill="#000000" d="M459.96536 317.45L458.9185 317.45L458.9185 310.73126Q458.52786 311.09064 457.90286 311.46564Q457.2935 311.825 456.8091 311.9969L456.8091 310.98126Q457.6841 310.5594 458.34036 309.98126Q459.01224 309.3875 459.2935 308.825L459.96536 308.825L459.96536 317.45ZM462.9966 313.21564Q462.9966 311.6844 463.3091 310.7625Q463.6216 309.825 464.231 309.325Q464.856 308.825 465.7935 308.825Q466.481 308.825 466.9966 309.10626Q467.52786 309.3875 467.8716 309.91876Q468.21536 310.4344 468.40286 311.1844Q468.59036 311.9344 468.59036 313.21564Q468.59036 314.73126 468.27786 315.65314Q467.981 316.575 467.356 317.09064Q466.7466 317.59064 465.7935 317.59064Q464.5591 317.59064 463.84036 316.7Q462.9966 315.6375 462.9966 313.21564ZM464.07474 313.21564Q464.07474 315.325 464.57474 316.02814Q465.07474 316.73126 465.7935 316.73126Q466.52786 316.73126 467.01224 316.02814Q467.51224 315.325 467.51224 313.21564Q467.51224 311.09064 467.01224 310.40314Q466.52786 309.7 465.77786 309.7Q465.0591 309.7 464.6216 310.3094Q464.07474 311.09064 464.07474 313.21564ZM469.9966 313.21564Q469.9966 311.6844 470.3091 310.7625Q470.6216 309.825 471.231 309.325Q471.856 308.825 472.7935 308.825Q473.481 308.825 473.9966 309.10626Q474.52786 309.3875 474.8716 309.91876Q475.21536 310.4344 475.40286 311.1844Q475.59036 311.9344 475.59036 313.21564Q475.59036 314.73126 475.27786 315.65314Q474.981 316.575 474.356 317.09064Q473.7466 317.59064 472.7935 317.59064Q471.5591 317.59064 470.84036 316.7Q469.9966 315.6375 469.9966 313.21564ZM471.07474 313.21564Q471.07474 315.325 471.57474 316.02814Q472.07474 316.73126 472.7935 316.73126Q473.52786 316.73126 474.01224 316.02814Q474.51224 315.325 474.51224 313.21564Q474.51224 311.09064 474.01224 310.40314Q473.52786 309.7 472.77786 309.7Q472.0591 309.7 471.6216 310.3094Q471.07474 311.09064 471.07474 313.21564ZM476.9966 313.21564Q476.9966 311.6844 477.3091 310.7625Q477.6216 309.825 478.231 309.325Q478.856 308.825 479.7935 308.825Q480.481 308.825 480.9966 309.10626Q481.52786 309.3875 481.8716 309.91876Q482.21536 310.4344 482.40286 311.1844Q482.59036 311.9344 482.59036 313.21564Q482.59036 314.73126 482.27786 315.65314Q481.981 316.575 481.356 317.09064Q480.7466 317.59064 479.7935 317.59064Q478.5591 317.59064 477.84036 316.7Q476.9966 315.6375 476.9966 313.21564ZM478.07474 313.21564Q478.07474 315.325 478.57474 316.02814Q479.07474 316.73126 479.7935 316.73126Q480.52786 316.73126 481.01224 316.02814Q481.51224 315.325 481.51224 313.21564Q481.51224 311.09064 481.01224 310.40314Q480.52786 309.7 479.77786 309.7Q479.0591 309.7 478.6216 310.3094Q478.07474 311.09064 478.07474 313.21564ZM483.9966 313.21564Q483.9966 311.6844 484.3091 310.7625Q484.6216 309.825 485.231 309.325Q485.856 308.825 486.7935 308.825Q487.481 308.825 487.9966 309.10626Q488.52786 309.3875 488.8716 309.91876Q489.21536 310.4344 489.40286 311.1844Q489.59036 311.9344 489.59036 313.21564Q489.59036 314.73126 489.27786 315.65314Q488.981 316.575 488.356 317.09064Q487.7466 317.59064 486.7935 317.59064Q485.5591 317.59064 484.84036 316.7Q483.9966 315.6375 483.9966 313.21564ZM485.07474 313.21564Q485.07474 315.325 485.57474 316.02814Q486.07474 316.73126 486.7935 316.73126Q487.52786 316.73126 488.01224 316.02814Q488.51224 315.325 488.51224 313.21564Q488.51224 311.09064 488.01224 310.40314Q487.52786 309.7 486.77786 309.7Q486.0591 309.7 485.6216 310.3094Q485.07474 311.09064 485.07474 313.21564Z" fill-rule="nonzero"/><path fill="#000000" d="M514.16675 317.45L514.16675 308.85626L515.323 308.85626L519.8386 315.60626L519.8386 308.85626L520.9324 308.85626L520.9324 317.45L519.7605 317.45L515.2449 310.7L515.2449 317.45L514.16675 317.45ZM522.6511 314.34064Q522.6511 312.60626 523.60425 311.77814Q524.4011 311.09064 525.5574 311.09064Q526.8386 311.09064 527.6511 311.9344Q528.47925 312.7625 528.47925 314.2469Q528.47925 315.45 528.1199 316.1375Q527.7605 316.825 527.0574 317.21564Q526.3699 317.59064 525.5574 317.59064Q524.2605 317.59064 523.448 316.7625Q522.6511 315.91876 522.6511 314.34064ZM523.72925 314.34064Q523.72925 315.52814 524.2449 316.1219Q524.7761 316.71564 525.5574 316.71564Q526.35425 316.71564 526.8699 316.1219Q527.3855 315.52814 527.3855 314.3094Q527.3855 313.15314 526.85425 312.5594Q526.3386 311.96564 525.5574 311.96564Q524.7761 311.96564 524.2449 312.5594Q523.72925 313.1375 523.72925 314.34064ZM533.04175 310.075L533.04175 308.85626L534.10425 308.85626L534.10425 310.075L533.04175 310.075ZM533.04175 317.45L533.04175 311.23126L534.10425 311.23126L534.10425 317.45L533.04175 317.45ZM536.04175 317.45L536.04175 311.23126L536.97925 311.23126L536.97925 312.10626Q537.66675 311.09064 538.9636 311.09064Q539.5261 311.09064 539.9949 311.29376Q540.47925 311.4969 540.7136 311.825Q540.948 312.15314 541.04175 312.59064Q541.0886 312.8875 541.0886 313.6219L541.0886 317.45L540.04175 317.45L540.04175 313.66876Q540.04175 313.0125 539.91675 312.7Q539.79175 312.3875 539.47925 312.2Q539.16675 311.9969 538.7449 311.9969Q538.073 311.9969 537.573 312.4344Q537.0886 312.85626 537.0886 314.04376L537.0886 317.45L536.04175 317.45ZM547.073 317.45L547.073 316.66876Q546.47925 317.59064 545.3386 317.59064Q544.5886 317.59064 543.9636 317.1844Q543.3386 316.7625 542.9949 316.02814Q542.6511 315.29376 542.6511 314.34064Q542.6511 313.41876 542.9636 312.65314Q543.2761 311.8875 543.9011 311.4969Q544.5261 311.09064 545.29175 311.09064Q545.85425 311.09064 546.29175 311.325Q546.72925 311.5594 547.0105 311.9344L547.0105 308.85626L548.0574 308.85626L548.0574 317.45L547.073 317.45ZM543.7449 314.34064Q543.7449 315.54376 544.2449 316.1375Q544.7449 316.71564 545.4324 316.71564Q546.1199 316.71564 546.60425 316.15314Q547.0886 315.59064 547.0886 314.4344Q547.0886 313.15314 546.5886 312.5594Q546.10425 311.96564 545.3855 311.96564Q544.6824 311.96564 544.2136 312.54376Q543.7449 313.10626 543.7449 314.34064ZM554.29175 315.45L555.3855 315.575Q555.1355 316.52814 554.4324 317.0594Q553.72925 317.59064 552.6511 317.59064Q551.29175 317.59064 550.47925 316.7469Q549.6824 315.90314 549.6824 314.3875Q549.6824 312.825 550.4949 311.96564Q551.3074 311.09064 552.5886 311.09064Q553.8386 311.09064 554.6199 311.9344Q555.41675 312.77814 555.41675 314.325Q555.41675 314.41876 555.41675 314.60626L550.7761 314.60626Q550.8386 315.6375 551.35425 316.1844Q551.8699 316.71564 552.6511 316.71564Q553.22925 316.71564 553.6355 316.41876Q554.0574 316.10626 554.29175 315.45ZM550.8386 313.7469L554.3074 313.7469Q554.2449 312.95 553.91675 312.5594Q553.4011 311.95 552.60425 311.95Q551.8699 311.95 551.3699 312.4344Q550.8855 312.91876 550.8386 313.7469ZM556.3386 317.45L558.60425 314.21564L556.5105 311.23126L557.823 311.23126L558.7761 312.6844Q559.04175 313.10626 559.2136 313.3875Q559.4636 312.9969 559.6824 312.7L560.72925 311.23126L561.9949 311.23126L559.8386 314.15314L562.1511 317.45L560.8699 317.45L559.5886 315.5125L559.2449 314.9969L557.60425 317.45L556.3386 317.45Z" fill-rule="nonzero"/></svg>