<svg version="1.1" viewBox="0.0 0.0 600.0 371.0" fill="none" stroke="none" stroke-linecap="square" stroke-miterlimit="10" width="600" height="371" xmlns:xlink="http://www.w3.org/1999/xlink" xmlns="http://www.w3.org/2000/svg"><path fill="#ffffff" d="M0 0L600.0 0L600.0 371.0L0 371.0L0 0Z" fill-rule="nonzero"/><path stroke="#333333" stroke-width="1.0" stroke-linecap="butt" d="M98.5 300.5L581.5 300.5" fill-rule="nonzero"/><path stroke="#cccccc" stroke-width="1.0" stroke-linecap="butt" d="M98.5 265.5L581.5 265.5" fill-rule="nonzero"/><path stroke="#cccccc" stroke-width="1.0" stroke-linecap="butt" d="M98.5 230.5L581.5 230.5" fill-rule="nonzero"/><path stroke="#cccccc" stroke-width="1.0" stroke-linecap="butt" d="M98.5 195.5L581.5 195.5" fill-rule="nonzero"/><path stroke="#cccccc" stroke-width="1.0" stroke-linecap="butt" d="M98.5 160.5L581.5 160.5" fill-rule="nonzero"/><path stroke="#cccccc" stroke-width="1.0" stroke-linecap="butt" d="M98.5 124.5L581.5 124.5" fill-rule="nonzero"/><path stroke="#cccccc" stroke-width="1.0" stroke-linecap="butt" d="M98.5 89.5L581.5 89.5" fill-rule="nonzero"/><path stroke="#cccccc" stroke-width="1.0" stroke-linecap="butt" d="M98.5 54.5L581.5 54.5" fill-rule="nonzero"/><clipPath id="id_0"><path d="M98.55 25.55L581.45 25.55L581.45 300.45L98.55 300.45L98.55 25.55Z" clip-rule="nonzero"/></clipPath><path stroke="#000000" stroke-width="0.0" stroke-linecap="butt" stroke-opacity="0.0" clip-path="url(#id_0)" d="M189.0 300.0L130.0 300.0L130.0 261.0C130.0 259.89542 130.89543 259.0 132.0 259.0L187.0 259.0C188.10457 259.0 189.0 259.89542 189.0 261.0Z" fill-rule="nonzero"/><path fill="#4285f4" clip-path="url(#id_0)" d="M189.0 300.0L130.0 300.0L130.0 261.0C130.0 259.89542 130.89543 259.0 132.0 259.0L187.0 259.0C188.10457 259.0 189.0 259.89542 189.0 261.0Z" fill-rule="nonzero"/><path stroke="#000000" stroke-width="0.0" stroke-linecap="butt" stroke-opacity="0.0" clip-path="url(#id_0)" d="M280.0 300.0L221.0 300.0L221.0 260.0C221.0 258.89542 221.89543 258.0 223.0 258.0L278.0 258.0C279.10458 258.0 280.0 258.89542 280.0 260.0Z" fill-rule="nonzero"/><path fill="#4285f4" clip-path="url(#id_0)" d="M280.0 300.0L221.0 300.0L221.0 260.0C221.0 258.89542 221.89543 258.0 223.0 258.0L278.0 258.0C279.10458 258.0 280.0 258.89542 280.0 260.0Z" fill-rule="nonzero"/><path stroke="#000000" stroke-width="0.0" stroke-linecap="butt" stroke-opacity="0.0" clip-path="url(#id_0)" d="M370.0 300.0L311.0 300.0L311.0 258.0C311.0 256.89542 311.89542 256.0 313.0 256.0L368.0 256.0C369.10458 256.0 370.0 256.89542 370.0 258.0Z" fill-rule="nonzero"/><path fill="#4285f4" clip-path="url(#id_0)" d="M370.0 300.0L311.0 300.0L311.0 258.0C311.0 256.89542 311.89542 256.0 313.0 256.0L368.0 256.0C369.10458 256.0 370.0 256.89542 370.0 258.0Z" fill-rule="nonzero"/><path stroke="#000000" stroke-width="0.0" stroke-linecap="butt" stroke-opacity="0.0" clip-path="url(#id_0)" d="M460.0 300.0L401.0 300.0L401.0 236.0C401.0 234.89543 401.89542 234.0 403.0 234.0L458.0 234.0C459.10458 234.0 460.0 234.89543 460.0 236.0Z" fill-rule="nonzero"/><path fill="#4285f4" clip-path="url(#id_0)" d="M460.0 300.0L401.0 300.0L401.0 236.0C401.0 234.89543 401.89542 234.0 403.0 234.0L458.0 234.0C459.10458 234.0 460.0 234.89543 460.0 236.0Z" fill-rule="nonzero"/><path stroke="#000000" stroke-width="0.0" stroke-linecap="butt" stroke-opacity="0.0" clip-path="url(#id_0)" d="M551.0 300.0L492.0 300.0L492.0 28.0C492.0 26.89543 492.89542 26.0 494.0 26.0L549.0 26.0C550.10455 26.0 551.0 26.89543 551.0 28.0Z" fill-rule="nonzero"/><path fill="#4285f4" clip-path="url(#id_0)" d="M551.0 300.0L492.0 300.0L492.0 28.0C492.0 26.89543 492.89542 26.0 494.0 26.0L549.0 26.0C550.10455 26.0 551.0 26.89543 551.0 28.0Z" fill-rule="nonzero"/><path fill="#000000" d="M326.42188 349.45L326.42188 340.85626L329.67188 340.85626Q330.51562 340.85626 330.96875 340.9344Q331.60938 341.04376 332.03125 341.34064Q332.46875 341.6375 332.71875 342.16876Q332.98438 342.7 332.98438 343.34064Q332.98438 344.4344 332.28125 345.2Q331.59375 345.95 329.76562 345.95L327.5625 345.95L327.5625 349.45L326.42188 349.45ZM327.5625 344.95L329.78125 344.95Q330.89062 344.95 331.34375 344.54376Q331.8125 344.1219 331.8125 343.3719Q331.8125 342.84064 331.53125 342.46564Q331.26562 342.075 330.82812 341.95Q330.53125 341.8719 329.76562 341.8719L327.5625 341.8719L327.5625 344.95ZM338.35938 348.6844Q337.76562 349.1844 337.21875 349.3875Q336.6875 349.59064 336.0625 349.59064Q335.03125 349.59064 334.48438 349.09064Q333.9375 348.59064 333.9375 347.8094Q333.9375 347.35626 334.14062 346.98126Q334.34375 346.59064 334.6875 346.3719Q335.03125 346.1375 335.45312 346.02814Q335.75 345.9344 336.39062 345.85626Q337.65625 345.71564 338.26562 345.4969Q338.26562 345.27814 338.26562 345.23126Q338.26562 344.575 337.96875 344.3094Q337.5625 343.96564 336.76562 343.96564Q336.03125 343.96564 335.67188 344.23126Q335.3125 344.48126 335.14062 345.1375L334.10938 344.9969Q334.25 344.34064 334.57812 343.9344Q334.90625 343.52814 335.51562 343.3094Q336.125 343.09064 336.92188 343.09064Q337.71875 343.09064 338.21875 343.27814Q338.71875 343.46564 338.95312 343.7469Q339.1875 344.02814 339.28125 344.46564Q339.32812 344.73126 339.32812 345.4344L339.32812 346.84064Q339.32812 348.3094 339.39062 348.7Q339.46875 349.09064 339.67188 349.45L338.5625 349.45Q338.40625 349.1219 338.35938 348.6844ZM338.26562 346.325Q337.6875 346.5594 336.54688 346.73126Q335.89062 346.825 335.625 346.95Q335.35938 347.0594 335.20312 347.27814Q335.0625 347.4969 335.0625 347.77814Q335.0625 348.2 335.375 348.48126Q335.70312 348.7625 336.3125 348.7625Q336.92188 348.7625 337.39062 348.4969Q337.875 348.23126 338.09375 347.7625Q338.26562 347.40314 338.26562 346.71564L338.26562 346.325ZM341.09375 349.96564L342.125 350.1219Q342.1875 350.59064 342.48438 350.8094Q342.875 351.10626 343.54688 351.10626Q344.28125 351.10626 344.67188 350.8094Q345.07812 350.5125 345.21875 349.9969Q345.3125 349.66876 345.29688 348.6375Q344.60938 349.45 343.57812 349.45Q342.29688 349.45 341.59375 348.52814Q340.89062 347.59064 340.89062 346.3094Q340.89062 345.41876 341.20312 344.66876Q341.53125 343.90314 342.14062 343.4969Q342.75 343.09064 343.57812 343.09064Q344.6875 343.09064 345.40625 343.98126L345.40625 343.23126L346.375 343.23126L346.375 348.60626Q346.375 350.0594 346.07812 350.66876Q345.78125 351.27814 345.14062 351.6219Q344.5 351.98126 343.5625 351.98126Q342.45312 351.98126 341.76562 351.48126Q341.07812 350.98126 341.09375 349.96564ZM341.96875 346.23126Q341.96875 347.45 342.45312 348.0125Q342.9375 348.575 343.67188 348.575Q344.40625 348.575 344.89062 348.0125Q345.39062 347.45 345.39062 346.2625Q345.39062 345.1219 344.875 344.54376Q344.375 343.96564 343.65625 343.96564Q342.95312 343.96564 342.45312 344.54376Q341.96875 345.10626 341.96875 346.23126ZM352.54688 347.45L353.64062 347.575Q353.39062 348.52814 352.6875 349.0594Q351.98438 349.59064 350.90625 349.59064Q349.54688 349.59064 348.73438 348.7469Q347.9375 347.90314 347.9375 346.3875Q347.9375 344.825 348.75 343.96564Q349.5625 343.09064 350.84375 343.09064Q352.09375 343.09064 352.875 343.9344Q353.67188 344.77814 353.67188 346.325Q353.67188 346.41876 353.67188 346.60626L349.03125 346.60626Q349.09375 347.6375 349.60938 348.1844Q350.125 348.71564 350.90625 348.71564Q351.48438 348.71564 351.89062 348.41876Q352.3125 348.10626 352.54688 347.45ZM349.09375 345.7469L352.5625 345.7469Q352.5 344.95 352.17188 344.5594Q351.65625 343.95 350.85938 343.95Q350.125 343.95 349.625 344.4344Q349.14062 344.91876 349.09375 345.7469Z" fill-rule="nonzero"/><path fill="#000000" d="M29.550013 220.39062L21.971888 220.39062L21.971888 223.21875L20.956263 223.21875L20.956263 216.40625L21.971888 216.40625L21.971888 219.25L29.550013 219.25L29.550013 220.39062ZM22.175013 215.70312L20.956263 215.70312L20.956263 214.64062L22.175013 214.64062L22.175013 215.70312ZM29.550013 215.70312L23.331263 215.70312L23.331263 214.64062L29.550013 214.64062L29.550013 215.70312ZM29.550013 212.70312L23.331263 212.70312L23.331263 211.76562L24.206263 211.76562Q23.737513 211.46875 23.471888 210.98438Q23.190638 210.5 23.190638 209.875Q23.190638 209.1875 23.471888 208.75Q23.753138 208.29688 24.268763 208.125Q23.190638 207.375 23.190638 206.20312Q23.190638 205.26562 23.706263 204.78125Q24.206263 204.28125 25.284388 204.28125L29.550013 204.28125L29.550013 205.32812L25.628138 205.32812Q25.003138 205.32812 24.721888 205.4375Q24.440638 205.53125 24.268763 205.79688Q24.096888 206.0625 24.096888 206.4375Q24.096888 207.09375 24.534388 207.53125Q24.971888 207.95312 25.940638 207.95312L29.550013 207.95312L29.550013 209.01562L25.503138 209.01562Q24.800013 209.01562 24.456263 209.28125Q24.096888 209.53125 24.096888 210.10938Q24.096888 210.5625 24.331263 210.9375Q24.565638 211.3125 25.018763 211.48438Q25.471888 211.65625 26.315638 211.65625L29.550013 211.65625L29.550013 212.70312ZM27.550013 198.45312L27.675013 197.35938Q28.628138 197.60938 29.159388 198.3125Q29.690638 199.01562 29.690638 200.09375Q29.690638 201.45312 28.846888 202.26562Q28.003138 203.0625 26.487513 203.0625Q24.925013 203.0625 24.065638 202.25Q23.190638 201.4375 23.190638 200.15625Q23.190638 198.90625 24.034388 198.125Q24.878138 197.32812 26.425013 197.32812Q26.518763 197.32812 26.706263 197.32812L26.706263 201.96875Q27.737513 201.90625 28.284388 201.39062Q28.815638 200.875 28.815638 200.09375Q28.815638 199.51562 28.518763 199.10938Q28.206263 198.6875 27.550013 198.45312ZM25.846888 201.90625L25.846888 198.4375Q25.050013 198.5 24.659388 198.82812Q24.050013 199.34375 24.050013 200.14062Q24.050013 200.875 24.534388 201.375Q25.018763 201.85938 25.846888 201.90625ZM32.08126 190.6875Q30.971888 191.5625 29.503138 192.17188Q28.018763 192.76562 26.440638 192.76562Q25.050013 192.76562 23.768763 192.32812Q22.284388 191.79688 20.815638 190.6875L20.815638 189.9375Q22.034388 190.64062 22.550013 190.875Q23.362513 191.23438 24.237513 191.4375Q25.331263 191.6875 26.440638 191.6875Q29.268763 191.6875 32.08126 189.9375L32.08126 190.6875ZM29.550013 188.70312L23.331263 188.70312L23.331263 187.76562L24.206263 187.76562Q23.737513 187.46875 23.471888 186.98438Q23.190638 186.5 23.190638 185.875Q23.190638 185.1875 23.471888 184.75Q23.753138 184.29688 24.268763 184.125Q23.190638 183.375 23.190638 182.20312Q23.190638 181.26562 23.706263 180.78125Q24.206263 180.28125 25.284388 180.28125L29.550013 180.28125L29.550013 181.32812L25.628138 181.32812Q25.003138 181.32812 24.721888 181.4375Q24.440638 181.53125 24.268763 181.79688Q24.096888 182.0625 24.096888 182.4375Q24.096888 183.09375 24.534388 183.53125Q24.971888 183.95312 25.940638 183.95312L29.550013 183.95312L29.550013 185.01562L25.503138 185.01562Q24.800013 185.01562 24.456263 185.28125Q24.096888 185.53125 24.096888 186.10938Q24.096888 186.5625 24.331263 186.9375Q24.565638 187.3125 25.018763 187.48438Q25.471888 187.65625 26.315638 187.65625L29.550013 187.65625L29.550013 188.70312ZM22.175013 178.70312L20.956263 178.70312L20.956263 177.64062L22.175013 177.64062L22.175013 178.70312ZM29.550013 178.70312L23.331263 178.70312L23.331263 177.64062L29.550013 177.64062L29.550013 178.70312ZM27.268763 171.64062L27.409388 170.60938Q28.471888 170.78125 29.081263 171.48438Q29.690638 172.1875 29.690638 173.20312Q29.690638 174.48438 28.862513 175.26562Q28.018763 176.03125 26.456263 176.03125Q25.456263 176.03125 24.706263 175.70312Q23.940638 175.35938 23.565638 174.6875Q23.190638 174.0 23.190638 173.1875Q23.190638 172.1875 23.706263 171.54688Q24.206263 170.89062 25.159388 170.70312L25.315638 171.73438Q24.690638 171.875 24.378138 172.25Q24.050013 172.625 24.050013 173.15625Q24.050013 173.95312 24.628138 174.45312Q25.190638 174.95312 26.425013 174.95312Q27.690638 174.95312 28.253138 174.46875Q28.815638 173.98438 28.815638 173.21875Q28.815638 172.59375 28.440638 172.1875Q28.065638 171.76562 27.268763 171.64062ZM29.550013 169.71875L23.331263 169.71875L23.331263 168.76562L24.268763 168.76562Q23.612513 168.40625 23.409388 168.10938Q23.190638 167.79688 23.190638 167.42188Q23.190638 166.89062 23.518763 166.34375L24.503138 166.70312Q24.268763 167.09375 24.268763 167.46875Q24.268763 167.82812 24.487513 168.10938Q24.690638 168.375 25.065638 168.48438Q25.628138 168.67188 26.284388 168.67188L29.550013 168.67188L29.550013 169.71875ZM26.440638 166.09375Q24.706263 166.09375 23.878138 165.14062Q23.190638 164.34375 23.190638 163.1875Q23.190638 161.90625 24.034388 161.09375Q24.862513 160.26562 26.346888 160.26562Q27.550013 160.26562 28.237513 160.625Q28.925013 160.98438 29.315638 161.6875Q29.690638 162.375 29.690638 163.1875Q29.690638 164.48438 28.862513 165.29688Q28.018763 166.09375 26.440638 166.09375ZM26.440638 165.01562Q27.628138 165.01562 28.221888 164.5Q28.815638 163.96875 28.815638 163.1875Q28.815638 162.39062 28.221888 161.875Q27.628138 161.35938 26.409388 161.35938Q25.253138 161.35938 24.659388 161.89062Q24.065638 162.40625 24.065638 163.1875Q24.065638 163.96875 24.659388 164.5Q25.237513 165.01562 26.440638 165.01562ZM27.690638 159.125L27.534388 158.09375Q28.159388 158.0 28.487513 157.60938Q28.815638 157.20312 28.815638 156.46875Q28.815638 155.75 28.534388 155.40625Q28.237513 155.04688 27.831263 155.04688Q27.471888 155.04688 27.268763 155.35938Q27.128138 155.57812 26.909388 156.4375Q26.612513 157.59375 26.409388 158.04688Q26.190638 158.48438 25.815638 158.71875Q25.440638 158.95312 24.971888 158.95312Q24.565638 158.95312 24.206263 158.76562Q23.846888 158.57812 23.612513 158.25Q23.440638 158.0 23.315638 157.57812Q23.190638 157.15625 23.190638 156.65625Q23.190638 155.9375 23.409388 155.39062Q23.612513 154.82812 23.971888 154.5625Q24.331263 154.29688 24.925013 154.20312L25.065638 155.23438Q24.596888 155.29688 24.331263 155.64062Q24.050013 155.96875 24.050013 156.59375Q24.050013 157.3125 24.300013 157.625Q24.534388 157.9375 24.862513 157.9375Q25.065638 157.9375 25.221888 157.8125Q25.393763 157.67188 25.503138 157.40625Q25.565638 157.25 25.768763 156.46875Q26.081263 155.34375 26.268763 154.90625Q26.456263 154.46875 26.815638 154.21875Q27.175013 153.96875 27.721888 153.96875Q28.253138 153.96875 28.721888 154.28125Q29.175013 154.57812 29.440638 155.15625Q29.690638 155.73438 29.690638 156.46875Q29.690638 157.6875 29.190638 158.32812Q28.675013 158.95312 27.690638 159.125ZM27.550013 148.45312L27.675013 147.35938Q28.628138 147.60938 29.159388 148.3125Q29.690638 149.01562 29.690638 150.09375Q29.690638 151.45312 28.846888 152.26562Q28.003138 153.0625 26.487513 153.0625Q24.925013 153.0625 24.065638 152.25Q23.190638 151.4375 23.190638 150.15625Q23.190638 148.90625 24.034388 148.125Q24.878138 147.32812 26.425013 147.32812Q26.518763 147.32812 26.706263 147.32812L26.706263 151.96875Q27.737513 151.90625 28.284388 151.39062Q28.815638 150.875 28.815638 150.09375Q28.815638 149.51562 28.518763 149.10938Q28.206263 148.6875 27.550013 148.45312ZM25.846888 151.90625L25.846888 148.4375Q25.050013 148.5 24.659388 148.82812Q24.050013 149.34375 24.050013 150.14062Q24.050013 150.875 24.534388 151.375Q25.018763 151.85938 25.846888 151.90625ZM27.268763 141.64062L27.409388 140.60938Q28.471888 140.78125 29.081263 141.48438Q29.690638 142.1875 29.690638 143.20312Q29.690638 144.48438 28.862513 145.26562Q28.018763 146.03125 26.456263 146.03125Q25.456263 146.03125 24.706263 145.70312Q23.940638 145.35938 23.565638 144.6875Q23.190638 144.0 23.190638 143.1875Q23.190638 142.1875 23.706263 141.54688Q24.206263 140.89062 25.159388 140.70312L25.315638 141.73438Q24.690638 141.875 24.378138 142.25Q24.050013 142.625 24.050013 143.15625Q24.050013 143.95312 24.628138 144.45312Q25.190638 144.95312 26.425013 144.95312Q27.690638 144.95312 28.253138 144.46875Q28.815638 143.98438 28.815638 143.21875Q28.815638 142.59375 28.440638 142.1875Q28.065638 141.76562 27.268763 141.64062ZM26.440638 140.09375Q24.706263 140.09375 23.878138 139.14062Q23.190638 138.34375 23.190638 137.1875Q23.190638 135.90625 24.034388 135.09375Q24.862513 134.26562 26.346888 134.26562Q27.550013 134.26562 28.237513 134.625Q28.925013 134.98438 29.315638 135.6875Q29.690638 136.375 29.690638 137.1875Q29.690638 138.48438 28.862513 139.29688Q28.018763 140.09375 26.440638 140.09375ZM26.440638 139.01562Q27.628138 139.01562 28.221888 138.5Q28.815638 137.96875 28.815638 137.1875Q28.815638 136.39062 28.221888 135.875Q27.628138 135.35938 26.409388 135.35938Q25.253138 135.35938 24.659388 135.89062Q24.065638 136.40625 24.065638 137.1875Q24.065638 137.96875 24.659388 138.5Q25.237513 139.01562 26.440638 139.01562ZM29.550013 132.70312L23.331263 132.70312L23.331263 131.76562L24.206263 131.76562Q23.190638 131.07812 23.190638 129.78125Q23.190638 129.21875 23.393763 128.75Q23.596888 128.26562 23.925013 128.03125Q24.253138 127.796875 24.690638 127.703125Q24.987513 127.65625 25.721888 127.65625L29.550013 127.65625L29.550013 128.70312L25.768763 128.70312Q25.112513 128.70312 24.800013 128.82812Q24.487513 128.95312 24.300013 129.26562Q24.096888 129.57812 24.096888 130.0Q24.096888 130.67188 24.534388 131.17188Q24.956263 131.65625 26.143763 131.65625L29.550013 131.65625L29.550013 132.70312ZM29.550013 121.671875L28.768763 121.671875Q29.690638 122.265625 29.690638 123.40625Q29.690638 124.15625 29.284388 124.78125Q28.862513 125.40625 28.128138 125.75Q27.393763 126.09375 26.440638 126.09375Q25.518763 126.09375 24.753138 125.78125Q23.987513 125.46875 23.596888 124.84375Q23.190638 124.21875 23.190638 123.453125Q23.190638 122.890625 23.425013 122.453125Q23.659388 122.015625 24.034388 121.734375L20.956263 121.734375L20.956263 120.6875L29.550013 120.6875L29.550013 121.671875ZM26.440638 125.0Q27.643763 125.0 28.237513 124.5Q28.815638 124.0 28.815638 123.3125Q28.815638 122.625 28.253138 122.140625Q27.690638 121.65625 26.534388 121.65625Q25.253138 121.65625 24.659388 122.15625Q24.065638 122.640625 24.065638 123.359375Q24.065638 124.0625 24.643763 124.53125Q25.206263 125.0 26.440638 125.0ZM32.08126 118.015625L32.08126 118.765625Q29.268763 117.015625 26.440638 117.015625Q25.346888 117.015625 24.253138 117.265625Q23.378138 117.46875 22.565638 117.828125Q22.050013 118.0625 20.815638 118.765625L20.815638 118.015625Q22.284388 116.921875 23.768763 116.390625Q25.050013 115.9375 26.440638 115.9375Q28.018763 115.9375 29.503138 116.546875Q30.971888 117.15625 32.08126 118.015625Z" fill-rule="nonzero"/><path fill="#000000" d="M86.05 300.21564Q86.05 298.6844 86.3625 297.7625Q86.675 296.825 87.28438 296.325Q87.90938 295.825 88.84688 295.825Q89.53438 295.825 90.05 296.10626Q90.58125 296.3875 90.925 296.91876Q91.26875 297.4344 91.45625 298.1844Q91.64375 298.9344 91.64375 300.21564Q91.64375 301.73126 91.33125 302.65314Q91.03438 303.575 90.40938 304.09064Q89.8 304.59064 88.84688 304.59064Q87.6125 304.59064 86.89375 303.7Q86.05 302.6375 86.05 300.21564ZM87.12813 300.21564Q87.12813 302.325 87.62813 303.02814Q88.12813 303.73126 88.84688 303.73126Q89.58125 303.73126 90.06563 303.02814Q90.56563 302.325 90.56563 300.21564Q90.56563 298.09064 90.06563 297.40314Q89.58125 296.7 88.83125 296.7Q88.1125 296.7 87.675 297.3094Q87.12813 298.09064 87.12813 300.21564Z" fill-rule="nonzero"/><path fill="#000000" d="M63.596874 268.34357L63.596874 269.3592L57.909374 269.3592Q57.909374 268.9842 58.034374 268.62482Q58.253124 268.0467 58.721874 267.4842Q59.20625 266.9217 60.1125 266.18732Q61.51875 265.03107 62.003124 264.3592Q62.503124 263.68732 62.503124 263.09357Q62.503124 262.46857 62.05 262.0467Q61.596874 261.6092 60.878124 261.6092Q60.1125 261.6092 59.659374 262.06232Q59.20625 262.51544 59.190624 263.32794L58.1125 263.21857Q58.221874 261.99982 58.940624 261.37482Q59.675 260.7342 60.909374 260.7342Q62.14375 260.7342 62.8625 261.4217Q63.58125 262.1092 63.58125 263.12482Q63.58125 263.64044 63.3625 264.14044Q63.159374 264.62482 62.659374 265.18732Q62.175 265.7342 61.05 266.68732Q60.096874 267.4842 59.815624 267.78107Q59.55 268.06232 59.378124 268.34357L63.596874 268.34357ZM65.05 267.1092L66.15938 267.01544Q66.28438 267.82794 66.72188 268.2342Q67.175 268.64044 67.81563 268.64044Q68.56563 268.64044 69.09688 268.06232Q69.62813 267.4842 69.62813 266.5467Q69.62813 265.64044 69.1125 265.12482Q68.6125 264.59357 67.78438 264.59357Q67.28438 264.59357 66.8625 264.82794Q66.45625 265.06232 66.22188 265.4217L65.2375 265.2967L66.06563 260.89044L70.34688 260.89044L70.34688 261.89044L66.90938 261.89044L66.45625 264.20294Q67.22188 263.65607 68.06563 263.65607Q69.19063 263.65607 69.95625 264.43732Q70.7375 265.21857 70.7375 266.45294Q70.7375 267.6092 70.06563 268.46857Q69.2375 269.49982 67.81563 269.49982Q66.64375 269.49982 65.89375 268.84357Q65.15938 268.18732 65.05 267.1092ZM72.05 265.12482Q72.05 263.59357 72.3625 262.6717Q72.675 261.7342 73.28438 261.2342Q73.90938 260.7342 74.84688 260.7342Q75.53438 260.7342 76.05 261.01544Q76.58125 261.2967 76.925 261.82794Q77.26875 262.34357 77.45625 263.09357Q77.64375 263.84357 77.64375 265.12482Q77.64375 266.64044 77.33125 267.56232Q77.03438 268.4842 76.40938 268.99982Q75.8 269.49982 74.84688 269.49982Q73.6125 269.49982 72.89375 268.6092Q72.05 267.5467 72.05 265.12482ZM73.12813 265.12482Q73.12813 267.2342 73.62813 267.93732Q74.12813 268.64044 74.84688 268.64044Q75.58125 268.64044 76.06563 267.93732Q76.56563 267.2342 76.56563 265.12482Q76.56563 262.99982 76.06563 262.31232Q75.58125 261.6092 74.83125 261.6092Q74.1125 261.6092 73.675 262.21857Q73.12813 262.99982 73.12813 265.12482ZM79.05 265.12482Q79.05 263.59357 79.3625 262.6717Q79.675 261.7342 80.28438 261.2342Q80.90938 260.7342 81.84688 260.7342Q82.53438 260.7342 83.05 261.01544Q83.58125 261.2967 83.925 261.82794Q84.26875 262.34357 84.45625 263.09357Q84.64375 263.84357 84.64375 265.12482Q84.64375 266.64044 84.33125 267.56232Q84.03438 268.4842 83.40938 268.99982Q82.8 269.49982 81.84688 269.49982Q80.6125 269.49982 79.89375 268.6092Q79.05 267.5467 79.05 265.12482ZM80.12813 265.12482Q80.12813 267.2342 80.62813 267.93732Q81.12813 268.64044 81.84688 268.64044Q82.58125 268.64044 83.06563 267.93732Q83.56563 267.2342 83.56563 265.12482Q83.56563 262.99982 83.06563 262.31232Q82.58125 261.6092 81.83125 261.6092Q81.1125 261.6092 80.675 262.21857Q80.12813 262.99982 80.12813 265.12482ZM86.05 265.12482Q86.05 263.59357 86.3625 262.6717Q86.675 261.7342 87.28438 261.2342Q87.90938 260.7342 88.84688 260.7342Q89.53438 260.7342 90.05 261.01544Q90.58125 261.2967 90.925 261.82794Q91.26875 262.34357 91.45625 263.09357Q91.64375 263.84357 91.64375 265.12482Q91.64375 266.64044 91.33125 267.56232Q91.03438 268.4842 90.40938 268.99982Q89.8 269.49982 88.84688 269.49982Q87.6125 269.49982 86.89375 268.6092Q86.05 267.5467 86.05 265.12482ZM87.12813 265.12482Q87.12813 267.2342 87.62813 267.93732Q88.12813 268.64044 88.84688 268.64044Q89.58125 268.64044 90.06563 267.93732Q90.56563 267.2342 90.56563 265.12482Q90.56563 262.99982 90.06563 262.31232Q89.58125 261.6092 88.83125 261.6092Q88.1125 261.6092 87.675 262.21857Q87.12813 262.99982 87.12813 265.12482Z" fill-rule="nonzero"/><path fill="#000000" d="M58.05 232.01839L59.159374 231.92464Q59.284374 232.73714 59.721874 233.14339Q60.175 233.54964 60.815624 233.54964Q61.565624 233.54964 62.096874 232.97151Q62.628124 232.39339 62.628124 231.45589Q62.628124 230.54964 62.1125 230.03401Q61.6125 229.50276 60.784374 229.50276Q60.284374 229.50276 59.8625 229.73714Q59.45625 229.97151 59.221874 230.33089L58.2375 230.20589L59.065624 225.79964L63.346874 225.79964L63.346874 226.79964L59.909374 226.79964L59.45625 229.11214Q60.221874 228.56526 61.065624 228.56526Q62.190624 228.56526 62.95625 229.34651Q63.7375 230.12776 63.7375 231.36214Q63.7375 232.51839 63.065624 233.37776Q62.2375 234.40901 60.815624 234.40901Q59.64375 234.40901 58.89375 233.75276Q58.159374 233.09651 58.05 232.01839ZM65.05 230.03401Q65.05 228.50276 65.3625 227.58089Q65.675 226.64339 66.28438 226.14339Q66.90938 225.64339 67.84688 225.64339Q68.53438 225.64339 69.05 225.92464Q69.58125 226.20589 69.925 226.73714Q70.26875 227.25276 70.45625 228.00276Q70.64375 228.75276 70.64375 230.03401Q70.64375 231.54964 70.33125 232.47151Q70.03438 233.39339 69.40938 233.90901Q68.8 234.40901 67.84688 234.40901Q66.6125 234.40901 65.89375 233.51839Q65.05 232.45589 65.05 230.03401ZM66.12813 230.03401Q66.12813 232.14339 66.62813 232.84651Q67.12813 233.54964 67.84688 233.54964Q68.58125 233.54964 69.06563 232.84651Q69.56563 232.14339 69.56563 230.03401Q69.56563 227.90901 69.06563 227.22151Q68.58125 226.51839 67.83125 226.51839Q67.1125 226.51839 66.675 227.12776Q66.12813 227.90901 66.12813 230.03401ZM72.05 230.03401Q72.05 228.50276 72.3625 227.58089Q72.675 226.64339 73.28438 226.14339Q73.90938 225.64339 74.84688 225.64339Q75.53438 225.64339 76.05 225.92464Q76.58125 226.20589 76.925 226.73714Q77.26875 227.25276 77.45625 228.00276Q77.64375 228.75276 77.64375 230.03401Q77.64375 231.54964 77.33125 232.47151Q77.03438 233.39339 76.40938 233.90901Q75.8 234.40901 74.84688 234.40901Q73.6125 234.40901 72.89375 233.51839Q72.05 232.45589 72.05 230.03401ZM73.12813 230.03401Q73.12813 232.14339 73.62813 232.84651Q74.12813 233.54964 74.84688 233.54964Q75.58125 233.54964 76.06563 232.84651Q76.56563 232.14339 76.56563 230.03401Q76.56563 227.90901 76.06563 227.22151Q75.58125 226.51839 74.83125 226.51839Q74.1125 226.51839 73.675 227.12776Q73.12813 227.90901 73.12813 230.03401ZM79.05 230.03401Q79.05 228.50276 79.3625 227.58089Q79.675 226.64339 80.28438 226.14339Q80.90938 225.64339 81.84688 225.64339Q82.53438 225.64339 83.05 225.92464Q83.58125 226.20589 83.925 226.73714Q84.26875 227.25276 84.45625 228.00276Q84.64375 228.75276 84.64375 230.03401Q84.64375 231.54964 84.33125 232.47151Q84.03438 233.39339 83.40938 233.90901Q82.8 234.40901 81.84688 234.40901Q80.6125 234.40901 79.89375 233.51839Q79.05 232.45589 79.05 230.03401ZM80.12813 230.03401Q80.12813 232.14339 80.62813 232.84651Q81.12813 233.54964 81.84688 233.54964Q82.58125 233.54964 83.06563 232.84651Q83.56563 232.14339 83.56563 230.03401Q83.56563 227.90901 83.06563 227.22151Q82.58125 226.51839 81.83125 226.51839Q81.1125 226.51839 80.675 227.12776Q80.12813 227.90901 80.12813 230.03401ZM86.05 230.03401Q86.05 228.50276 86.3625 227.58089Q86.675 226.64339 87.28438 226.14339Q87.90938 225.64339 88.84688 225.64339Q89.53438 225.64339 90.05 225.92464Q90.58125 226.20589 90.925 226.73714Q91.26875 227.25276 91.45625 228.00276Q91.64375 228.75276 91.64375 230.03401Q91.64375 231.54964 91.33125 232.47151Q91.03438 233.39339 90.40938 233.90901Q89.8 234.40901 88.84688 234.40901Q87.6125 234.40901 86.89375 233.51839Q86.05 232.45589 86.05 230.03401ZM87.12813 230.03401Q87.12813 232.14339 87.62813 232.84651Q88.12813 233.54964 88.84688 233.54964Q89.58125 233.54964 90.06563 232.84651Q90.56563 232.14339 90.56563 230.03401Q90.56563 227.90901 90.06563 227.22151Q89.58125 226.51839 88.83125 226.51839Q88.1125 226.51839 87.675 227.12776Q87.12813 227.90901 87.12813 230.03401Z" fill-rule="nonzero"/><path fill="#000000" d="M58.1125 191.70882L58.1125 190.69319L63.675 190.69319L63.675 191.52132Q62.8625 192.39632 62.05 193.84944Q61.253124 195.28694 60.815624 196.81819Q60.4875 197.89632 60.409374 199.17757L59.315624 199.17757Q59.33125 198.16194 59.70625 196.72444Q60.096874 195.28694 60.8 193.95882Q61.51875 192.63069 62.33125 191.70882L58.1125 191.70882ZM65.05 196.92757L66.15938 196.83382Q66.28438 197.64632 66.72188 198.05257Q67.175 198.45882 67.81563 198.45882Q68.56563 198.45882 69.09688 197.88069Q69.62813 197.30257 69.62813 196.36507Q69.62813 195.45882 69.1125 194.94319Q68.6125 194.41194 67.78438 194.41194Q67.28438 194.41194 66.8625 194.64632Q66.45625 194.88069 66.22188 195.24007L65.2375 195.11507L66.06563 190.70882L70.34688 190.70882L70.34688 191.70882L66.90938 191.70882L66.45625 194.02132Q67.22188 193.47444 68.06563 193.47444Q69.19063 193.47444 69.95625 194.25569Q70.7375 195.03694 70.7375 196.27132Q70.7375 197.42757 70.06563 198.28694Q69.2375 199.31819 67.81563 199.31819Q66.64375 199.31819 65.89375 198.66194Q65.15938 198.00569 65.05 196.92757ZM72.05 194.94319Q72.05 193.41194 72.3625 192.49007Q72.675 191.55257 73.28438 191.05257Q73.90938 190.55257 74.84688 190.55257Q75.53438 190.55257 76.05 190.83382Q76.58125 191.11507 76.925 191.64632Q77.26875 192.16194 77.45625 192.91194Q77.64375 193.66194 77.64375 194.94319Q77.64375 196.45882 77.33125 197.38069Q77.03438 198.30257 76.40938 198.81819Q75.8 199.31819 74.84688 199.31819Q73.6125 199.31819 72.89375 198.42757Q72.05 197.36507 72.05 194.94319ZM73.12813 194.94319Q73.12813 197.05257 73.62813 197.75569Q74.12813 198.45882 74.84688 198.45882Q75.58125 198.45882 76.06563 197.75569Q76.56563 197.05257 76.56563 194.94319Q76.56563 192.81819 76.06563 192.13069Q75.58125 191.42757 74.83125 191.42757Q74.1125 191.42757 73.675 192.03694Q73.12813 192.81819 73.12813 194.94319ZM79.05 194.94319Q79.05 193.41194 79.3625 192.49007Q79.675 191.55257 80.28438 191.05257Q80.90938 190.55257 81.84688 190.55257Q82.53438 190.55257 83.05 190.83382Q83.58125 191.11507 83.925 191.64632Q84.26875 192.16194 84.45625 192.91194Q84.64375 193.66194 84.64375 194.94319Q84.64375 196.45882 84.33125 197.38069Q84.03438 198.30257 83.40938 198.81819Q82.8 199.31819 81.84688 199.31819Q80.6125 199.31819 79.89375 198.42757Q79.05 197.36507 79.05 194.94319ZM80.12813 194.94319Q80.12813 197.05257 80.62813 197.75569Q81.12813 198.45882 81.84688 198.45882Q82.58125 198.45882 83.06563 197.75569Q83.56563 197.05257 83.56563 194.94319Q83.56563 192.81819 83.06563 192.13069Q82.58125 191.42757 81.83125 191.42757Q81.1125 191.42757 80.675 192.03694Q80.12813 192.81819 80.12813 194.94319ZM86.05 194.94319Q86.05 193.41194 86.3625 192.49007Q86.675 191.55257 87.28438 191.05257Q87.90938 190.55257 88.84688 190.55257Q89.53438 190.55257 90.05 190.83382Q90.58125 191.11507 90.925 191.64632Q91.26875 192.16194 91.45625 192.91194Q91.64375 193.66194 91.64375 194.94319Q91.64375 196.45882 91.33125 197.38069Q91.03438 198.30257 90.40938 198.81819Q89.8 199.31819 88.84688 199.31819Q87.6125 199.31819 86.89375 198.42757Q86.05 197.36507 86.05 194.94319ZM87.12813 194.94319Q87.12813 197.05257 87.62813 197.75569Q88.12813 198.45882 88.84688 198.45882Q89.58125 198.45882 90.06563 197.75569Q90.56563 197.05257 90.56563 194.94319Q90.56563 192.81819 90.06563 192.13069Q89.58125 191.42757 88.83125 191.42757Q88.1125 191.42757 87.675 192.03694Q87.12813 192.81819 87.12813 194.94319Z" fill-rule="nonzero"/><path fill="#000000" d="M55.01875 164.08676L53.971874 164.08676L53.971874 157.36801Q53.58125 157.72739 52.95625 158.10239Q52.346874 158.46176 51.8625 158.63364L51.8625 157.61801Q52.7375 157.19614 53.39375 156.61801Q54.065624 156.02426 54.346874 155.46176L55.01875 155.46176L55.01875 164.08676ZM58.05 159.85239Q58.05 158.32114 58.3625 157.39926Q58.675 156.46176 59.284374 155.96176Q59.909374 155.46176 60.846874 155.46176Q61.534374 155.46176 62.05 155.74301Q62.58125 156.02426 62.925 156.55551Q63.26875 157.07114 63.45625 157.82114Q63.64375 158.57114 63.64375 159.85239Q63.64375 161.36801 63.33125 162.28989Q63.034374 163.21176 62.409374 163.72739Q61.8 164.22739 60.846874 164.22739Q59.6125 164.22739 58.89375 163.33676Q58.05 162.27426 58.05 159.85239ZM59.128124 159.85239Q59.128124 161.96176 59.628124 162.66489Q60.128124 163.36801 60.846874 163.36801Q61.58125 163.36801 62.065624 162.66489Q62.565624 161.96176 62.565624 159.85239Q62.565624 157.72739 62.065624 157.03989Q61.58125 156.33676 60.83125 156.33676Q60.1125 156.33676 59.675 156.94614Q59.128124 157.72739 59.128124 159.85239ZM65.05 159.85239Q65.05 158.32114 65.3625 157.39926Q65.675 156.46176 66.28438 155.96176Q66.90938 155.46176 67.84688 155.46176Q68.53438 155.46176 69.05 155.74301Q69.58125 156.02426 69.925 156.55551Q70.26875 157.07114 70.45625 157.82114Q70.64375 158.57114 70.64375 159.85239Q70.64375 161.36801 70.33125 162.28989Q70.03438 163.21176 69.40938 163.72739Q68.8 164.22739 67.84688 164.22739Q66.6125 164.22739 65.89375 163.33676Q65.05 162.27426 65.05 159.85239ZM66.12813 159.85239Q66.12813 161.96176 66.62813 162.66489Q67.12813 163.36801 67.84688 163.36801Q68.58125 163.36801 69.06563 162.66489Q69.56563 161.96176 69.56563 159.85239Q69.56563 157.72739 69.06563 157.03989Q68.58125 156.33676 67.83125 156.33676Q67.1125 156.33676 66.675 156.94614Q66.12813 157.72739 66.12813 159.85239ZM72.05 159.85239Q72.05 158.32114 72.3625 157.39926Q72.675 156.46176 73.28438 155.96176Q73.90938 155.46176 74.84688 155.46176Q75.53438 155.46176 76.05 155.74301Q76.58125 156.02426 76.925 156.55551Q77.26875 157.07114 77.45625 157.82114Q77.64375 158.57114 77.64375 159.85239Q77.64375 161.36801 77.33125 162.28989Q77.03438 163.21176 76.40938 163.72739Q75.8 164.22739 74.84688 164.22739Q73.6125 164.22739 72.89375 163.33676Q72.05 162.27426 72.05 159.85239ZM73.12813 159.85239Q73.12813 161.96176 73.62813 162.66489Q74.12813 163.36801 74.84688 163.36801Q75.58125 163.36801 76.06563 162.66489Q76.56563 161.96176 76.56563 159.85239Q76.56563 157.72739 76.06563 157.03989Q75.58125 156.33676 74.83125 156.33676Q74.1125 156.33676 73.675 156.94614Q73.12813 157.72739 73.12813 159.85239ZM79.05 159.85239Q79.05 158.32114 79.3625 157.39926Q79.675 156.46176 80.28438 155.96176Q80.90938 155.46176 81.84688 155.46176Q82.53438 155.46176 83.05 155.74301Q83.58125 156.02426 83.925 156.55551Q84.26875 157.07114 84.45625 157.82114Q84.64375 158.57114 84.64375 159.85239Q84.64375 161.36801 84.33125 162.28989Q84.03438 163.21176 83.40938 163.72739Q82.8 164.22739 81.84688 164.22739Q80.6125 164.22739 79.89375 163.33676Q79.05 162.27426 79.05 159.85239ZM80.12813 159.85239Q80.12813 161.96176 80.62813 162.66489Q81.12813 163.36801 81.84688 163.36801Q82.58125 163.36801 83.06563 162.66489Q83.56563 161.96176 83.56563 159.85239Q83.56563 157.72739 83.06563 157.03989Q82.58125 156.33676 81.83125 156.33676Q81.1125 156.33676 80.675 156.94614Q80.12813 157.72739 80.12813 159.85239ZM86.05 159.85239Q86.05 158.32114 86.3625 157.39926Q86.675 156.46176 87.28438 155.96176Q87.90938 155.46176 88.84688 155.46176Q89.53438 155.46176 90.05 155.74301Q90.58125 156.02426 90.925 156.55551Q91.26875 157.07114 91.45625 157.82114Q91.64375 158.57114 91.64375 159.85239Q91.64375 161.36801 91.33125 162.28989Q91.03438 163.21176 90.40938 163.72739Q89.8 164.22739 88.84688 164.22739Q87.6125 164.22739 86.89375 163.33676Q86.05 162.27426 86.05 159.85239ZM87.12813 159.85239Q87.12813 161.96176 87.62813 162.66489Q88.12813 163.36801 88.84688 163.36801Q89.58125 163.36801 90.06563 162.66489Q90.56563 161.96176 90.56563 159.85239Q90.56563 157.72739 90.06563 157.03989Q89.58125 156.33676 88.83125 156.33676Q88.1125 156.33676 87.675 156.94614Q87.12813 157.72739 87.12813 159.85239Z" fill-rule="nonzero"/><path fill="#000000" d="M55.01875 128.99596L53.971874 128.99596L53.971874 122.27721Q53.58125 122.63658 52.95625 123.01158Q52.346874 123.37096 51.8625 123.54283L51.8625 122.52721Q52.7375 122.10533 53.39375 121.52721Q54.065624 120.93346 54.346874 120.37096L55.01875 120.37096L55.01875 128.99596ZM63.596874 127.98033L63.596874 128.99596L57.909374 128.99596Q57.909374 128.62096 58.034374 128.26158Q58.253124 127.68346 58.721874 127.12096Q59.20625 126.55846 60.1125 125.82408Q61.51875 124.66783 62.003124 123.99596Q62.503124 123.32408 62.503124 122.73033Q62.503124 122.10533 62.05 121.68346Q61.596874 121.24596 60.878124 121.24596Q60.1125 121.24596 59.659374 121.69908Q59.20625 122.15221 59.190624 122.96471L58.1125 122.85533Q58.221874 121.63658 58.940624 121.01158Q59.675 120.37096 60.909374 120.37096Q62.14375 120.37096 62.8625 121.05846Q63.58125 121.74596 63.58125 122.76158Q63.58125 123.27721 63.3625 123.77721Q63.159374 124.26158 62.659374 124.82408Q62.175 125.37096 61.05 126.32408Q60.096874 127.12096 59.815624 127.41783Q59.55 127.69908 59.378124 127.98033L63.596874 127.98033ZM65.05 126.74596L66.15938 126.65221Q66.28438 127.46471 66.72188 127.87096Q67.175 128.2772 67.81563 128.2772Q68.56563 128.2772 69.09688 127.69908Q69.62813 127.12096 69.62813 126.18346Q69.62813 125.27721 69.1125 124.76158Q68.6125 124.23033 67.78438 124.23033Q67.28438 124.23033 66.8625 124.46471Q66.45625 124.69908 66.22188 125.05846L65.2375 124.93346L66.06563 120.52721L70.34688 120.52721L70.34688 121.52721L66.90938 121.52721L66.45625 123.83971Q67.22188 123.29283 68.06563 123.29283Q69.19063 123.29283 69.95625 124.07408Q70.7375 124.85533 70.7375 126.08971Q70.7375 127.24596 70.06563 128.10533Q69.2375 129.13658 67.81563 129.13658Q66.64375 129.13658 65.89375 128.48033Q65.15938 127.82408 65.05 126.74596ZM72.05 124.76158Q72.05 123.23033 72.3625 122.30846Q72.675 121.37096 73.28438 120.87096Q73.90938 120.37096 74.84688 120.37096Q75.53438 120.37096 76.05 120.65221Q76.58125 120.93346 76.925 121.46471Q77.26875 121.98033 77.45625 122.73033Q77.64375 123.48033 77.64375 124.76158Q77.64375 126.27721 77.33125 127.19908Q77.03438 128.12096 76.40938 128.63658Q75.8 129.13658 74.84688 129.13658Q73.6125 129.13658 72.89375 128.24596Q72.05 127.18346 72.05 124.76158ZM73.12813 124.76158Q73.12813 126.87096 73.62813 127.57408Q74.12813 128.2772 74.84688 128.2772Q75.58125 128.2772 76.06563 127.57408Q76.56563 126.87096 76.56563 124.76158Q76.56563 122.63658 76.06563 121.94908Q75.58125 121.24596 74.83125 121.24596Q74.1125 121.24596 73.675 121.85533Q73.12813 122.63658 73.12813 124.76158ZM79.05 124.76158Q79.05 123.23033 79.3625 122.30846Q79.675 121.37096 80.28438 120.87096Q80.90938 120.37096 81.84688 120.37096Q82.53438 120.37096 83.05 120.65221Q83.58125 120.93346 83.925 121.46471Q84.26875 121.98033 84.45625 122.73033Q84.64375 123.48033 84.64375 124.76158Q84.64375 126.27721 84.33125 127.19908Q84.03438 128.12096 83.40938 128.63658Q82.8 129.13658 81.84688 129.13658Q80.6125 129.13658 79.89375 128.24596Q79.05 127.18346 79.05 124.76158ZM80.12813 124.76158Q80.12813 126.87096 80.62813 127.57408Q81.12813 128.2772 81.84688 128.2772Q82.58125 128.2772 83.06563 127.57408Q83.56563 126.87096 83.56563 124.76158Q83.56563 122.63658 83.06563 121.94908Q82.58125 121.24596 81.83125 121.24596Q81.1125 121.24596 80.675 121.85533Q80.12813 122.63658 80.12813 124.76158ZM86.05 124.76158Q86.05 123.23033 86.3625 122.30846Q86.675 121.37096 87.28438 120.87096Q87.90938 120.37096 88.84688 120.37096Q89.53438 120.37096 90.05 120.65221Q90.58125 120.93346 90.925 121.46471Q91.26875 121.98033 91.45625 122.73033Q91.64375 123.48033 91.64375 124.76158Q91.64375 126.27721 91.33125 127.19908Q91.03438 128.12096 90.40938 128.63658Q89.8 129.13658 88.84688 129.13658Q87.6125 129.13658 86.89375 128.24596Q86.05 127.18346 86.05 124.76158ZM87.12813 124.76158Q87.12813 126.87096 87.62813 127.57408Q88.12813 128.2772 88.84688 128.2772Q89.58125 128.2772 90.06563 127.57408Q90.56563 126.87096 90.56563 124.76158Q90.56563 122.63658 90.06563 121.94908Q89.58125 121.24596 88.83125 121.24596Q88.1125 121.24596 87.675 121.85533Q87.12813 122.63658 87.12813 124.76158Z" fill-rule="nonzero"/><path fill="#000000" d="M55.01875 93.90514L53.971874 93.90514L53.971874 87.18639Q53.58125 87.54577 52.95625 87.92077Q52.346874 88.28014 51.8625 88.45202L51.8625 87.43639Q52.7375 87.01452 53.39375 86.43639Q54.065624 85.84264 54.346874 85.28014L55.01875 85.28014L55.01875 93.90514ZM58.05 91.65514L59.159374 91.56139Q59.284374 92.37389 59.721874 92.78014Q60.175 93.18639 60.815624 93.18639Q61.565624 93.18639 62.096874 92.60827Q62.628124 92.03014 62.628124 91.09264Q62.628124 90.18639 62.1125 89.67077Q61.6125 89.13952 60.784374 89.13952Q60.284374 89.13952 59.8625 89.37389Q59.45625 89.60827 59.221874 89.96764L58.2375 89.84264L59.065624 85.43639L63.346874 85.43639L63.346874 86.43639L59.909374 86.43639L59.45625 88.74889Q60.221874 88.20202 61.065624 88.20202Q62.190624 88.20202 62.95625 88.98327Q63.7375 89.76452 63.7375 90.99889Q63.7375 92.15514 63.065624 93.01452Q62.2375 94.04577 60.815624 94.04577Q59.64375 94.04577 58.89375 93.38952Q58.159374 92.73327 58.05 91.65514ZM65.05 89.67077Q65.05 88.13952 65.3625 87.21764Q65.675 86.28014 66.28438 85.78014Q66.90938 85.28014 67.84688 85.28014Q68.53438 85.28014 69.05 85.56139Q69.58125 85.84264 69.925 86.37389Q70.26875 86.88952 70.45625 87.63952Q70.64375 88.38952 70.64375 89.67077Q70.64375 91.18639 70.33125 92.10827Q70.03438 93.03014 69.40938 93.54577Q68.8 94.04577 67.84688 94.04577Q66.6125 94.04577 65.89375 93.15514Q65.05 92.09264 65.05 89.67077ZM66.12813 89.67077Q66.12813 91.78014 66.62813 92.48327Q67.12813 93.18639 67.84688 93.18639Q68.58125 93.18639 69.06563 92.48327Q69.56563 91.78014 69.56563 89.67077Q69.56563 87.54577 69.06563 86.85827Q68.58125 86.15514 67.83125 86.15514Q67.1125 86.15514 66.675 86.76452Q66.12813 87.54577 66.12813 89.67077ZM72.05 89.67077Q72.05 88.13952 72.3625 87.21764Q72.675 86.28014 73.28438 85.78014Q73.90938 85.28014 74.84688 85.28014Q75.53438 85.28014 76.05 85.56139Q76.58125 85.84264 76.925 86.37389Q77.26875 86.88952 77.45625 87.63952Q77.64375 88.38952 77.64375 89.67077Q77.64375 91.18639 77.33125 92.10827Q77.03438 93.03014 76.40938 93.54577Q75.8 94.04577 74.84688 94.04577Q73.6125 94.04577 72.89375 93.15514Q72.05 92.09264 72.05 89.67077ZM73.12813 89.67077Q73.12813 91.78014 73.62813 92.48327Q74.12813 93.18639 74.84688 93.18639Q75.58125 93.18639 76.06563 92.48327Q76.56563 91.78014 76.56563 89.67077Q76.56563 87.54577 76.06563 86.85827Q75.58125 86.15514 74.83125 86.15514Q74.1125 86.15514 73.675 86.76452Q73.12813 87.54577 73.12813 89.67077ZM79.05 89.67077Q79.05 88.13952 79.3625 87.21764Q79.675 86.28014 80.28438 85.78014Q80.90938 85.28014 81.84688 85.28014Q82.53438 85.28014 83.05 85.56139Q83.58125 85.84264 83.925 86.37389Q84.26875 86.88952 84.45625 87.63952Q84.64375 88.38952 84.64375 89.67077Q84.64375 91.18639 84.33125 92.10827Q84.03438 93.03014 83.40938 93.54577Q82.8 94.04577 81.84688 94.04577Q80.6125 94.04577 79.89375 93.15514Q79.05 92.09264 79.05 89.67077ZM80.12813 89.67077Q80.12813 91.78014 80.62813 92.48327Q81.12813 93.18639 81.84688 93.18639Q82.58125 93.18639 83.06563 92.48327Q83.56563 91.78014 83.56563 89.67077Q83.56563 87.54577 83.06563 86.85827Q82.58125 86.15514 81.83125 86.15514Q81.1125 86.15514 80.675 86.76452Q80.12813 87.54577 80.12813 89.67077ZM86.05 89.67077Q86.05 88.13952 86.3625 87.21764Q86.675 86.28014 87.28438 85.78014Q87.90938 85.28014 88.84688 85.28014Q89.53438 85.28014 90.05 85.56139Q90.58125 85.84264 90.925 86.37389Q91.26875 86.88952 91.45625 87.63952Q91.64375 88.38952 91.64375 89.67077Q91.64375 91.18639 91.33125 92.10827Q91.03438 93.03014 90.40938 93.54577Q89.8 94.04577 88.84688 94.04577Q87.6125 94.04577 86.89375 93.15514Q86.05 92.09264 86.05 89.67077ZM87.12813 89.67077Q87.12813 91.78014 87.62813 92.48327Q88.12813 93.18639 88.84688 93.18639Q89.58125 93.18639 90.06563 92.48327Q90.56563 91.78014 90.56563 89.67077Q90.56563 87.54577 90.06563 86.85827Q89.58125 86.15514 88.83125 86.15514Q88.1125 86.15514 87.675 86.76452Q87.12813 87.54577 87.12813 89.67077Z" fill-rule="nonzero"/><path fill="#000000" d="M55.01875 58.81433L53.971874 58.81433L53.971874 52.09558Q53.58125 52.454956 52.95625 52.829956Q52.346874 53.18933 51.8625 53.361206L51.8625 52.34558Q52.7375 51.923706 53.39375 51.34558Q54.065624 50.75183 54.346874 50.18933L55.01875 50.18933L55.01875 58.81433ZM58.1125 51.34558L58.1125 50.329956L63.675 50.329956L63.675 51.15808Q62.8625 52.03308 62.05 53.486206Q61.253124 54.923706 60.815624 56.454956Q60.4875 57.53308 60.409374 58.81433L59.315624 58.81433Q59.33125 57.798706 59.70625 56.361206Q60.096874 54.923706 60.8 53.59558Q61.51875 52.267456 62.33125 51.34558L58.1125 51.34558ZM65.05 56.56433L66.15938 56.47058Q66.28438 57.28308 66.72188 57.68933Q67.175 58.09558 67.81563 58.09558Q68.56563 58.09558 69.09688 57.517456Q69.62813 56.93933 69.62813 56.00183Q69.62813 55.09558 69.1125 54.579956Q68.6125 54.048706 67.78438 54.048706Q67.28438 54.048706 66.8625 54.28308Q66.45625 54.517456 66.22188 54.87683L65.2375 54.75183L66.06563 50.34558L70.34688 50.34558L70.34688 51.34558L66.90938 51.34558L66.45625 53.65808Q67.22188 53.111206 68.06563 53.111206Q69.19063 53.111206 69.95625 53.892456Q70.7375 54.673706 70.7375 55.90808Q70.7375 57.06433 70.06563 57.923706Q69.2375 58.954956 67.81563 58.954956Q66.64375 58.954956 65.89375 58.298706Q65.15938 57.642456 65.05 56.56433ZM72.05 54.579956Q72.05 53.048706 72.3625 52.12683Q72.675 51.18933 73.28438 50.68933Q73.90938 50.18933 74.84688 50.18933Q75.53438 50.18933 76.05 50.47058Q76.58125 50.75183 76.925 51.28308Q77.26875 51.798706 77.45625 52.548706Q77.64375 53.298706 77.64375 54.579956Q77.64375 56.09558 77.33125 57.017456Q77.03438 57.93933 76.40938 58.454956Q75.8 58.954956 74.84688 58.954956Q73.6125 58.954956 72.89375 58.06433Q72.05 57.00183 72.05 54.579956ZM73.12813 54.579956Q73.12813 56.68933 73.62813 57.392456Q74.12813 58.09558 74.84688 58.09558Q75.58125 58.09558 76.06563 57.392456Q76.56563 56.68933 76.56563 54.579956Q76.56563 52.454956 76.06563 51.767456Q75.58125 51.06433 74.83125 51.06433Q74.1125 51.06433 73.675 51.673706Q73.12813 52.454956 73.12813 54.579956ZM79.05 54.579956Q79.05 53.048706 79.3625 52.12683Q79.675 51.18933 80.28438 50.68933Q80.90938 50.18933 81.84688 50.18933Q82.53438 50.18933 83.05 50.47058Q83.58125 50.75183 83.925 51.28308Q84.26875 51.798706 84.45625 52.548706Q84.64375 53.298706 84.64375 54.579956Q84.64375 56.09558 84.33125 57.017456Q84.03438 57.93933 83.40938 58.454956Q82.8 58.954956 81.84688 58.954956Q80.6125 58.954956 79.89375 58.06433Q79.05 57.00183 79.05 54.579956ZM80.12813 54.579956Q80.12813 56.68933 80.62813 57.392456Q81.12813 58.09558 81.84688 58.09558Q82.58125 58.09558 83.06563 57.392456Q83.56563 56.68933 83.56563 54.579956Q83.56563 52.454956 83.06563 51.767456Q82.58125 51.06433 81.83125 51.06433Q81.1125 51.06433 80.675 51.673706Q80.12813 52.454956 80.12813 54.579956ZM86.05 54.579956Q86.05 53.048706 86.3625 52.12683Q86.675 51.18933 87.28438 50.68933Q87.90938 50.18933 88.84688 50.18933Q89.53438 50.18933 90.05 50.47058Q90.58125 50.75183 90.925 51.28308Q91.26875 51.798706 91.45625 52.548706Q91.64375 53.298706 91.64375 54.579956Q91.64375 56.09558 91.33125 57.017456Q91.03438 57.93933 90.40938 58.454956Q89.8 58.954956 88.84688 58.954956Q87.6125 58.954956 86.89375 58.06433Q86.05 57.00183 86.05 54.579956ZM87.12813 54.579956Q87.12813 56.68933 87.62813 57.392456Q88.12813 58.09558 88.84688 58.09558Q89.58125 58.09558 90.06563 57.392456Q90.56563 56.68933 90.56563 54.579956Q90.56563 52.454956 90.06563 51.767456Q89.58125 51.06433 88.83125 51.06433Q88.1125 51.06433 87.675 51.673706Q87.12813 52.454956 87.12813 54.579956Z" fill-rule="nonzero"/><path fill="#000000" d="M156.47664 313.21564Q156.47664 311.6844 156.78914 310.7625Q157.10164 309.825 157.71101 309.325Q158.33601 308.825 159.27351 308.825Q159.96101 308.825 160.47664 309.10626Q161.00789 309.3875 161.35164 309.91876Q161.69539 310.4344 161.88289 311.1844Q162.07039 311.9344 162.07039 313.21564Q162.07039 314.73126 161.75789 315.65314Q161.46101 316.575 160.83601 317.09064Q160.22664 317.59064 159.27351 317.59064Q158.03914 317.59064 157.32039 316.7Q156.47664 315.6375 156.47664 313.21564ZM157.55476 313.21564Q157.55476 315.325 158.05476 316.02814Q158.55476 316.73126 159.27351 316.73126Q160.00789 316.73126 160.49226 316.02814Q160.99226 315.325 160.99226 313.21564Q160.99226 311.09064 160.49226 310.40314Q160.00789 309.7 159.25789 309.7Q158.53914 309.7 158.10164 310.3094Q157.55476 311.09064 157.55476 313.21564Z" fill-rule="nonzero"/><path fill="#000000" d="M247.20706 317.45L246.16019 317.45L246.16019 310.73126Q245.76956 311.09064 245.14456 311.46564Q244.53519 311.825 244.05081 311.9969L244.05081 310.98126Q244.92581 310.5594 245.58206 309.98126Q246.25394 309.3875 246.53519 308.825L247.20706 308.825L247.20706 317.45ZM250.23831 313.21564Q250.23831 311.6844 250.55081 310.7625Q250.86331 309.825 251.47269 309.325Q252.09769 308.825 253.03519 308.825Q253.72269 308.825 254.23831 309.10626Q254.76956 309.3875 255.11331 309.91876Q255.45706 310.4344 255.64456 311.1844Q255.83206 311.9344 255.83206 313.21564Q255.83206 314.73126 255.51956 315.65314Q255.22269 316.575 254.59769 317.09064Q253.98831 317.59064 253.03519 317.59064Q251.80081 317.59064 251.08206 316.7Q250.23831 315.6375 250.23831 313.21564ZM251.31644 313.21564Q251.31644 315.325 251.81644 316.02814Q252.31644 316.73126 253.03519 316.73126Q253.76956 316.73126 254.25394 316.02814Q254.75394 315.325 254.75394 313.21564Q254.75394 311.09064 254.25394 310.40314Q253.76956 309.7 253.01956 309.7Q252.30081 309.7 251.86331 310.3094Q251.31644 311.09064 251.31644 313.21564Z" fill-rule="nonzero"/><path fill="#000000" d="M333.96875 317.45L332.92188 317.45L332.92188 310.73126Q332.53125 311.09064 331.90625 311.46564Q331.29688 311.825 330.8125 311.9969L330.8125 310.98126Q331.6875 310.5594 332.34375 309.98126Q333.01562 309.3875 333.29688 308.825L333.96875 308.825L333.96875 317.45ZM337.0 313.21564Q337.0 311.6844 337.3125 310.7625Q337.625 309.825 338.23438 309.325Q338.85938 308.825 339.79688 308.825Q340.48438 308.825 341.0 309.10626Q341.53125 309.3875 341.875 309.91876Q342.21875 310.4344 342.40625 311.1844Q342.59375 311.9344 342.59375 313.21564Q342.59375 314.73126 342.28125 315.65314Q341.98438 316.575 341.35938 317.09064Q340.75 317.59064 339.79688 317.59064Q338.5625 317.59064 337.84375 316.7Q337.0 315.6375 337.0 313.21564ZM338.07812 313.21564Q338.07812 315.325 338.57812 316.02814Q339.07812 316.73126 339.79688 316.73126Q340.53125 316.73126 341.01562 316.02814Q341.51562 315.325 341.51562 313.21564Q341.51562 311.09064 341.01562 310.40314Q340.53125 309.7 339.78125 309.7Q339.0625 309.7 338.625 310.3094Q338.07812 311.09064 338.07812 313.21564ZM344.0 313.21564Q344.0 311.6844 344.3125 310.7625Q344.625 309.825 345.23438 309.325Q345.85938 308.825 346.79688 308.825Q347.48438 308.825 348.0 309.10626Q348.53125 309.3875 348.875 309.91876Q349.21875 310.4344 349.40625 311.1844Q349.59375 311.9344 349.59375 313.21564Q349.59375 314.73126 349.28125 315.65314Q348.98438 316.575 348.35938 317.09064Q347.75 317.59064 346.79688 317.59064Q345.5625 317.59064 344.84375 316.7Q344.0 315.6375 344.0 313.21564ZM345.07812 313.21564Q345.07812 315.325 345.57812 316.02814Q346.07812 316.73126 346.79688 316.73126Q347.53125 316.73126 348.01562 316.02814Q348.51562 315.325 348.51562 313.21564Q348.51562 311.09064 348.01562 310.40314Q347.53125 309.7 346.78125 309.7Q346.0625 309.7 345.625 310.3094Q345.07812 311.09064 345.07812 313.21564Z" fill-rule="nonzero"/><path fill="#000000" d="M420.73044 317.45L419.68356 317.45L419.68356 310.73126Q419.29294 311.09064 418.66794 311.46564Q418.05856 311.825 417.5742 311.9969L417.5742 310.98126Q418.4492 310.5594 419.10544 309.98126Q419.7773 309.3875 420.05856 308.825L420.73044 308.825L420.73044 317.45ZM423.7617 313.21564Q423.7617 311.6844 424.0742 310.7625Q424.3867 309.825 424.99606 309.325Q425.62106 308.825 426.55856 308.825Q427.24606 308.825 427.7617 309.10626Q428.29294 309.3875 428.6367 309.91876Q428.98044 310.4344 429.16794 311.1844Q429.35544 311.9344 429.35544 313.21564Q429.35544 314.73126 429.04294 315.65314Q428.74606 316.575 428.12106 317.09064Q427.5117 317.59064 426.55856 317.59064Q425.3242 317.59064 424.60544 316.7Q423.7617 315.6375 423.7617 313.21564ZM424.8398 313.21564Q424.8398 315.325 425.3398 316.02814Q425.8398 316.73126 426.55856 316.73126Q427.29294 316.73126 427.7773 316.02814Q428.2773 315.325 428.2773 313.21564Q428.2773 311.09064 427.7773 310.40314Q427.29294 309.7 426.54294 309.7Q425.8242 309.7 425.3867 310.3094Q424.8398 311.09064 424.8398 313.21564ZM430.7617 313.21564Q430.7617 311.6844 431.0742 310.7625Q431.3867 309.825 431.99606 309.325Q432.62106 308.825 433.55856 308.825Q434.24606 308.825 434.7617 309.10626Q435.29294 309.3875 435.6367 309.91876Q435.98044 310.4344 436.16794 311.1844Q436.35544 311.9344 436.35544 313.21564Q436.35544 314.73126 436.04294 315.65314Q435.74606 316.575 435.12106 317.09064Q434.5117 317.59064 433.55856 317.59064Q432.3242 317.59064 431.60544 316.7Q430.7617 315.6375 430.7617 313.21564ZM431.8398 313.21564Q431.8398 315.325 432.3398 316.02814Q432.8398 316.73126 433.55856 316.73126Q434.29294 316.73126 434.7773 316.02814Q435.2773 315.325 435.2773 313.21564Q435.2773 311.09064 434.7773 310.40314Q434.29294 309.7 433.54294 309.7Q432.8242 309.7 432.3867 310.3094Q431.8398 311.09064 431.8398 313.21564ZM437.7617 313.21564Q437.7617 311.6844 438.0742 310.7625Q438.3867 309.825 438.99606 309.325Q439.62106 308.825 440.55856 308.825Q441.24606 308.825 441.7617 309.10626Q442.29294 309.3875 442.6367 309.91876Q442.98044 310.4344 443.16794 311.1844Q443.35544 311.9344 443.35544 313.21564Q443.35544 314.73126 443.04294 315.65314Q442.74606 316.575 442.12106 317.09064Q441.5117 317.59064 440.55856 317.59064Q439.3242 317.59064 438.60544 316.7Q437.7617 315.6375 437.7617 313.21564ZM438.8398 313.21564Q438.8398 315.325 439.3398 316.02814Q439.8398 316.73126 440.55856 316.73126Q441.29294 316.73126 441.7773 316.02814Q442.2773 315.325 442.2773 313.21564Q442.2773 311.09064 441.7773 310.40314Q441.29294 309.7 440.54294 309.7Q439.8242 309.7 439.3867 310.3094Q438.8398 311.09064 438.8398 313.21564Z" fill-rule="nonzero"/><path fill="#000000" d="M507.49213 317.45L506.44525 317.45L506.44525 310.73126Q506.05463 311.09064 505.42963 311.46564Q504.82025 311.825 504.33588 311.9969L504.33588 310.98126Q505.21088 310.5594 505.86713 309.98126Q506.539 309.3875 506.82025 308.825L507.49213 308.825L507.49213 317.45ZM510.52338 313.21564Q510.52338 311.6844 510.83588 310.7625Q511.14838 309.825 511.75775 309.325Q512.38275 308.825 513.32025 308.825Q514.00775 308.825 514.5234 309.10626Q515.0546 309.3875 515.3984 309.91876Q515.7421 310.4344 515.9296 311.1844Q516.1171 311.9344 516.1171 313.21564Q516.1171 314.73126 515.8046 315.65314Q515.50775 316.575 514.88275 317.09064Q514.2734 317.59064 513.32025 317.59064Q512.0859 317.59064 511.36713 316.7Q510.52338 315.6375 510.52338 313.21564ZM511.6015 313.21564Q511.6015 315.325 512.1015 316.02814Q512.6015 316.73126 513.32025 316.73126Q514.0546 316.73126 514.539 316.02814Q515.039 315.325 515.039 313.21564Q515.039 311.09064 514.539 310.40314Q514.0546 309.7 513.3046 309.7Q512.5859 309.7 512.1484 310.3094Q511.6015 311.09064 511.6015 313.21564ZM517.5234 313.21564Q517.5234 311.6844 517.8359 310.7625Q518.1484 309.825 518.75775 309.325Q519.38275 308.825 520.32025 308.825Q521.00775 308.825 521.5234 309.10626Q522.0546 309.3875 522.3984 309.91876Q522.7421 310.4344 522.9296 311.1844Q523.1171 311.9344 523.1171 313.21564Q523.1171 314.73126 522.8046 315.65314Q522.50775 316.575 521.88275 317.09064Q521.2734 317.59064 520.32025 317.59064Q519.0859 317.59064 518.3671 316.7Q517.5234 315.6375 517.5234 313.21564ZM518.6015 313.21564Q518.6015 315.325 519.1015 316.02814Q519.6015 316.73126 520.32025 316.73126Q521.0546 316.73126 521.539 316.02814Q522.039 315.325 522.039 313.21564Q522.039 311.09064 521.539 310.40314Q521.0546 309.7 520.3046 309.7Q519.5859 309.7 519.1484 310.3094Q518.6015 311.09064 518.6015 313.21564ZM524.5234 313.21564Q524.5234 311.6844 524.8359 310.7625Q525.1484 309.825 525.75775 309.325Q526.38275 308.825 527.32025 308.825Q528.00775 308.825 528.5234 309.10626Q529.0546 309.3875 529.3984 309.91876Q529.7421 310.4344 529.9296 311.1844Q530.1171 311.9344 530.1171 313.21564Q530.1171 314.73126 529.8046 315.65314Q529.50775 316.575 528.88275 317.09064Q528.2734 317.59064 527.32025 317.59064Q526.0859 317.59064 525.3671 316.7Q524.5234 315.6375 524.5234 313.21564ZM525.6015 313.21564Q525.6015 315.325 526.1015 316.02814Q526.6015 316.73126 527.32025 316.73126Q528.0546 316.73126 528.539 316.02814Q529.039 315.325 529.039 313.21564Q529.039 311.09064 528.539 310.40314Q528.0546 309.7 527.3046 309.7Q526.5859 309.7 526.1484 310.3094Q525.6015 311.09064 525.6015 313.21564ZM531.5234 313.21564Q531.5234 311.6844 531.8359 310.7625Q532.1484 309.825 532.75775 309.325Q533.38275 308.825 534.32025 308.825Q535.00775 308.825 535.5234 309.10626Q536.0546 309.3875 536.3984 309.91876Q536.7421 310.4344 536.9296 311.1844Q537.1171 311.9344 537.1171 313.21564Q537.1171 314.73126 536.8046 315.65314Q536.50775 316.575 535.88275 317.09064Q535.2734 317.59064 534.32025 317.59064Q533.0859 317.59064 532.3671 316.7Q531.5234 315.6375 531.5234 313.21564ZM532.6015 313.21564Q532.6015 315.325 533.1015 316.02814Q533.6015 316.73126 534.32025 316.73126Q535.0546 316.73126 535.539 316.02814Q536.039 315.325 536.039 313.21564Q536.039 311.09064 535.539 310.40314Q535.0546 309.7 534.3046 309.7Q533.5859 309.7 533.1484 310.3094Q532.6015 311.09064 532.6015 313.21564Z" fill-rule="nonzero"/></svg>