<svg version="1.1" viewBox="0.0 0.0 600.0 371.0" fill="none" stroke="none" stroke-linecap="square" stroke-miterlimit="10" width="600" height="371" xmlns:xlink="http://www.w3.org/1999/xlink" xmlns="http://www.w3.org/2000/svg"><path fill="#ffffff" d="M0 0L600.0 0L600.0 371.0L0 371.0L0 0Z" fill-rule="nonzero"/><path stroke="#333333" stroke-width="1.0" stroke-linecap="butt" d="M98.5 300.5L581.5 300.5" fill-rule="nonzero"/><path stroke="#cccccc" stroke-width="1.0" stroke-linecap="butt" d="M98.5 262.5L581.5 262.5" fill-rule="nonzero"/><path stroke="#cccccc" stroke-width="1.0" stroke-linecap="butt" d="M98.5 225.5L581.5 225.5" fill-rule="nonzero"/><path stroke="#cccccc" stroke-width="1.0" stroke-linecap="butt" d="M98.5 187.5L581.5 187.5" fill-rule="nonzero"/><path stroke="#cccccc" stroke-width="1.0" stroke-linecap="butt" d="M98.5 149.5L581.5 149.5" fill-rule="nonzero"/><path stroke="#cccccc" stroke-width="1.0" stroke-linecap="butt" d="M98.5 112.5L581.5 112.5" fill-rule="nonzero"/><path stroke="#cccccc" stroke-width="1.0" stroke-linecap="butt" d="M98.5 74.5L581.5 74.5" fill-rule="nonzero"/><path stroke="#cccccc" stroke-width="1.0" stroke-linecap="butt" d="M98.5 36.5L581.5 36.5" fill-rule="nonzero"/><clipPath id="id_0"><path d="M98.55 25.55L581.45 25.55L581.45 300.45L98.55 300.45L98.55 25.55Z" clip-rule="nonzero"/></clipPath><path stroke="#000000" stroke-width="0.0" stroke-linecap="butt" stroke-opacity="0.0" clip-path="url(#id_0)" d="M189.0 300.0L130.0 300.0L130.0 243.0C130.0 241.89543 130.89543 241.0 132.0 241.0L187.0 241.0C188.10457 241.0 189.0 241.89543 189.0 243.0Z" fill-rule="nonzero"/><path fill="#4285f4" clip-path="url(#id_0)" d="M189.0 300.0L130.0 300.0L130.0 243.0C130.0 241.89543 130.89543 241.0 132.0 241.0L187.0 241.0C188.10457 241.0 189.0 241.89543 189.0 243.0Z" fill-rule="nonzero"/><path stroke="#000000" stroke-width="0.0" stroke-linecap="butt" stroke-opacity="0.0" clip-path="url(#id_0)" d="M280.0 300.0L221.0 300.0L221.0 243.0C221.0 241.89543 221.89543 241.0 223.0 241.0L278.0 241.0C279.10458 241.0 280.0 241.89543 280.0 243.0Z" fill-rule="nonzero"/><path fill="#4285f4" clip-path="url(#id_0)" d="M280.0 300.0L221.0 300.0L221.0 243.0C221.0 241.89543 221.89543 241.0 223.0 241.0L278.0 241.0C279.10458 241.0 280.0 241.89543 280.0 243.0Z" fill-rule="nonzero"/><path stroke="#000000" stroke-width="0.0" stroke-linecap="butt" stroke-opacity="0.0" clip-path="url(#id_0)" d="M370.0 300.0L311.0 300.0L311.0 235.0C311.0 233.89543 311.89542 233.0 313.0 233.0L368.0 233.0C369.10458 233.0 370.0 233.89543 370.0 235.0Z" fill-rule="nonzero"/><path fill="#4285f4" clip-path="url(#id_0)" d="M370.0 300.0L311.0 300.0L311.0 235.0C311.0 233.89543 311.89542 233.0 313.0 233.0L368.0 233.0C369.10458 233.0 370.0 233.89543 370.0 235.0Z" fill-rule="nonzero"/><path stroke="#000000" stroke-width="0.0" stroke-linecap="butt" stroke-opacity="0.0" clip-path="url(#id_0)" d="M460.0 300.0L401.0 300.0L401.0 158.0C401.0 156.89543 401.89542 156.0 403.0 156.0L458.0 156.0C459.10458 156.0 460.0 156.89543 460.0 158.0Z" fill-rule="nonzero"/><path fill="#4285f4" clip-path="url(#id_0)" d="M460.0 300.0L401.0 300.0L401.0 158.0C401.0 156.89543 401.89542 156.0 403.0 156.0L458.0 156.0C459.10458 156.0 460.0 156.89543 460.0 158.0Z" fill-rule="nonzero"/><path stroke="#000000" stroke-width="0.0" stroke-linecap="butt" stroke-opacity="0.0" clip-path="url(#id_0)" d="M551.0 300.0L492.0 300.0L492.0 28.0C492.0 26.89543 492.89542 26.0 494.0 26.0L549.0 26.0C550.10455 26.0 551.0 26.89543 551.0 28.0Z" fill-rule="nonzero"/><path fill="#4285f4" clip-path="url(#id_0)" d="M551.0 300.0L492.0 300.0L492.0 28.0C492.0 26.89543 492.89542 26.0 494.0 26.0L549.0 26.0C550.10455 26.0 551.0 26.89543 551.0 28.0Z" fill-rule="nonzero"/><path fill="#000000" d="M326.42188 349.45L326.42188 340.85626L329.67188 340.85626Q330.51562 340.85626 330.96875 340.9344Q331.60938 341.04376 332.03125 341.34064Q332.46875 341.6375 332.71875 342.16876Q332.98438 342.7 332.98438 343.34064Q332.98438 344.4344 332.28125 345.2Q331.59375 345.95 329.76562 345.95L327.5625 345.95L327.5625 349.45L326.42188 349.45ZM327.5625 344.95L329.78125 344.95Q330.89062 344.95 331.34375 344.54376Q331.8125 344.1219 331.8125 343.3719Q331.8125 342.84064 331.53125 342.46564Q331.26562 342.075 330.82812 341.95Q330.53125 341.8719 329.76562 341.8719L327.5625 341.8719L327.5625 344.95ZM338.35938 348.6844Q337.76562 349.1844 337.21875 349.3875Q336.6875 349.59064 336.0625 349.59064Q335.03125 349.59064 334.48438 349.09064Q333.9375 348.59064 333.9375 347.8094Q333.9375 347.35626 334.14062 346.98126Q334.34375 346.59064 334.6875 346.3719Q335.03125 346.1375 335.45312 346.02814Q335.75 345.9344 336.39062 345.85626Q337.65625 345.71564 338.26562 345.4969Q338.26562 345.27814 338.26562 345.23126Q338.26562 344.575 337.96875 344.3094Q337.5625 343.96564 336.76562 343.96564Q336.03125 343.96564 335.67188 344.23126Q335.3125 344.48126 335.14062 345.1375L334.10938 344.9969Q334.25 344.34064 334.57812 343.9344Q334.90625 343.52814 335.51562 343.3094Q336.125 343.09064 336.92188 343.09064Q337.71875 343.09064 338.21875 343.27814Q338.71875 343.46564 338.95312 343.7469Q339.1875 344.02814 339.28125 344.46564Q339.32812 344.73126 339.32812 345.4344L339.32812 346.84064Q339.32812 348.3094 339.39062 348.7Q339.46875 349.09064 339.67188 349.45L338.5625 349.45Q338.40625 349.1219 338.35938 348.6844ZM338.26562 346.325Q337.6875 346.5594 336.54688 346.73126Q335.89062 346.825 335.625 346.95Q335.35938 347.0594 335.20312 347.27814Q335.0625 347.4969 335.0625 347.77814Q335.0625 348.2 335.375 348.48126Q335.70312 348.7625 336.3125 348.7625Q336.92188 348.7625 337.39062 348.4969Q337.875 348.23126 338.09375 347.7625Q338.26562 347.40314 338.26562 346.71564L338.26562 346.325ZM341.09375 349.96564L342.125 350.1219Q342.1875 350.59064 342.48438 350.8094Q342.875 351.10626 343.54688 351.10626Q344.28125 351.10626 344.67188 350.8094Q345.07812 350.5125 345.21875 349.9969Q345.3125 349.66876 345.29688 348.6375Q344.60938 349.45 343.57812 349.45Q342.29688 349.45 341.59375 348.52814Q340.89062 347.59064 340.89062 346.3094Q340.89062 345.41876 341.20312 344.66876Q341.53125 343.90314 342.14062 343.4969Q342.75 343.09064 343.57812 343.09064Q344.6875 343.09064 345.40625 343.98126L345.40625 343.23126L346.375 343.23126L346.375 348.60626Q346.375 350.0594 346.07812 350.66876Q345.78125 351.27814 345.14062 351.6219Q344.5 351.98126 343.5625 351.98126Q342.45312 351.98126 341.76562 351.48126Q341.07812 350.98126 341.09375 349.96564ZM341.96875 346.23126Q341.96875 347.45 342.45312 348.0125Q342.9375 348.575 343.67188 348.575Q344.40625 348.575 344.89062 348.0125Q345.39062 347.45 345.39062 346.2625Q345.39062 345.1219 344.875 344.54376Q344.375 343.96564 343.65625 343.96564Q342.95312 343.96564 342.45312 344.54376Q341.96875 345.10626 341.96875 346.23126ZM352.54688 347.45L353.64062 347.575Q353.39062 348.52814 352.6875 349.0594Q351.98438 349.59064 350.90625 349.59064Q349.54688 349.59064 348.73438 348.7469Q347.9375 347.90314 347.9375 346.3875Q347.9375 344.825 348.75 343.96564Q349.5625 343.09064 350.84375 343.09064Q352.09375 343.09064 352.875 343.9344Q353.67188 344.77814 353.67188 346.325Q353.67188 346.41876 353.67188 346.60626L349.03125 346.60626Q349.09375 347.6375 349.60938 348.1844Q350.125 348.71564 350.90625 348.71564Q351.48438 348.71564 351.89062 348.41876Q352.3125 348.10626 352.54688 347.45ZM349.09375 345.7469L352.5625 345.7469Q352.5 344.95 352.17188 344.5594Q351.65625 343.95 350.85938 343.95Q350.125 343.95 349.625 344.4344Q349.14062 344.91876 349.09375 345.7469Z" fill-rule="nonzero"/><path fill="#000000" d="M29.550013 220.39062L21.971888 220.39062L21.971888 223.21875L20.956263 223.21875L20.956263 216.40625L21.971888 216.40625L21.971888 219.25L29.550013 219.25L29.550013 220.39062ZM22.175013 215.70312L20.956263 215.70312L20.956263 214.64062L22.175013 214.64062L22.175013 215.70312ZM29.550013 215.70312L23.331263 215.70312L23.331263 214.64062L29.550013 214.64062L29.550013 215.70312ZM29.550013 212.70312L23.331263 212.70312L23.331263 211.76562L24.206263 211.76562Q23.737513 211.46875 23.471888 210.98438Q23.190638 210.5 23.190638 209.875Q23.190638 209.1875 23.471888 208.75Q23.753138 208.29688 24.268763 208.125Q23.190638 207.375 23.190638 206.20312Q23.190638 205.26562 23.706263 204.78125Q24.206263 204.28125 25.284388 204.28125L29.550013 204.28125L29.550013 205.32812L25.628138 205.32812Q25.003138 205.32812 24.721888 205.4375Q24.440638 205.53125 24.268763 205.79688Q24.096888 206.0625 24.096888 206.4375Q24.096888 207.09375 24.534388 207.53125Q24.971888 207.95312 25.940638 207.95312L29.550013 207.95312L29.550013 209.01562L25.503138 209.01562Q24.800013 209.01562 24.456263 209.28125Q24.096888 209.53125 24.096888 210.10938Q24.096888 210.5625 24.331263 210.9375Q24.565638 211.3125 25.018763 211.48438Q25.471888 211.65625 26.315638 211.65625L29.550013 211.65625L29.550013 212.70312ZM27.550013 198.45312L27.675013 197.35938Q28.628138 197.60938 29.159388 198.3125Q29.690638 199.01562 29.690638 200.09375Q29.690638 201.45312 28.846888 202.26562Q28.003138 203.0625 26.487513 203.0625Q24.925013 203.0625 24.065638 202.25Q23.190638 201.4375 23.190638 200.15625Q23.190638 198.90625 24.034388 198.125Q24.878138 197.32812 26.425013 197.32812Q26.518763 197.32812 26.706263 197.32812L26.706263 201.96875Q27.737513 201.90625 28.284388 201.39062Q28.815638 200.875 28.815638 200.09375Q28.815638 199.51562 28.518763 199.10938Q28.206263 198.6875 27.550013 198.45312ZM25.846888 201.90625L25.846888 198.4375Q25.050013 198.5 24.659388 198.82812Q24.050013 199.34375 24.050013 200.14062Q24.050013 200.875 24.534388 201.375Q25.018763 201.85938 25.846888 201.90625ZM32.08126 190.6875Q30.971888 191.5625 29.503138 192.17188Q28.018763 192.76562 26.440638 192.76562Q25.050013 192.76562 23.768763 192.32812Q22.284388 191.79688 20.815638 190.6875L20.815638 189.9375Q22.034388 190.64062 22.550013 190.875Q23.362513 191.23438 24.237513 191.4375Q25.331263 191.6875 26.440638 191.6875Q29.268763 191.6875 32.08126 189.9375L32.08126 190.6875ZM29.550013 188.70312L23.331263 188.70312L23.331263 187.76562L24.206263 187.76562Q23.737513 187.46875 23.471888 186.98438Q23.190638 186.5 23.190638 185.875Q23.190638 185.1875 23.471888 184.75Q23.753138 184.29688 24.268763 184.125Q23.190638 183.375 23.190638 182.20312Q23.190638 181.26562 23.706263 180.78125Q24.206263 180.28125 25.284388 180.28125L29.550013 180.28125L29.550013 181.32812L25.628138 181.32812Q25.003138 181.32812 24.721888 181.4375Q24.440638 181.53125 24.268763 181.79688Q24.096888 182.0625 24.096888 182.4375Q24.096888 183.09375 24.534388 183.53125Q24.971888 183.95312 25.940638 183.95312L29.550013 183.95312L29.550013 185.01562L25.503138 185.01562Q24.800013 185.01562 24.456263 185.28125Q24.096888 185.53125 24.096888 186.10938Q24.096888 186.5625 24.331263 186.9375Q24.565638 187.3125 25.018763 187.48438Q25.471888 187.65625 26.315638 187.65625L29.550013 187.65625L29.550013 188.70312ZM22.175013 178.70312L20.956263 178.70312L20.956263 177.64062L22.175013 177.64062L22.175013 178.70312ZM29.550013 178.70312L23.331263 178.70312L23.331263 177.64062L29.550013 177.64062L29.550013 178.70312ZM27.268763 171.64062L27.409388 170.60938Q28.471888 170.78125 29.081263 171.48438Q29.690638 172.1875 29.690638 173.20312Q29.690638 174.48438 28.862513 175.26562Q28.018763 176.03125 26.456263 176.03125Q25.456263 176.03125 24.706263 175.70312Q23.940638 175.35938 23.565638 174.6875Q23.190638 174.0 23.190638 173.1875Q23.190638 172.1875 23.706263 171.54688Q24.206263 170.89062 25.159388 170.70312L25.315638 171.73438Q24.690638 171.875 24.378138 172.25Q24.050013 172.625 24.050013 173.15625Q24.050013 173.95312 24.628138 174.45312Q25.190638 174.95312 26.425013 174.95312Q27.690638 174.95312 28.253138 174.46875Q28.815638 173.98438 28.815638 173.21875Q28.815638 172.59375 28.440638 172.1875Q28.065638 171.76562 27.268763 171.64062ZM29.550013 169.71875L23.331263 169.71875L23.331263 168.76562L24.268763 168.76562Q23.612513 168.40625 23.409388 168.10938Q23.190638 167.79688 23.190638 167.42188Q23.190638 166.89062 23.518763 166.34375L24.503138 166.70312Q24.268763 167.09375 24.268763 167.46875Q24.268763 167.82812 24.487513 168.10938Q24.690638 168.375 25.065638 168.48438Q25.628138 168.67188 26.284388 168.67188L29.550013 168.67188L29.550013 169.71875ZM26.440638 166.09375Q24.706263 166.09375 23.878138 165.14062Q23.190638 164.34375 23.190638 163.1875Q23.190638 161.90625 24.034388 161.09375Q24.862513 160.26562 26.346888 160.26562Q27.550013 160.26562 28.237513 160.625Q28.925013 160.98438 29.315638 161.6875Q29.690638 162.375 29.690638 163.1875Q29.690638 164.48438 28.862513 165.29688Q28.018763 166.09375 26.440638 166.09375ZM26.440638 165.01562Q27.628138 165.01562 28.221888 164.5Q28.815638 163.96875 28.815638 163.1875Q28.815638 162.39062 28.221888 161.875Q27.628138 161.35938 26.409388 161.35938Q25.253138 161.35938 24.659388 161.89062Q24.065638 162.40625 24.065638 163.1875Q24.065638 163.96875 24.659388 164.5Q25.237513 165.01562 26.440638 165.01562ZM27.690638 159.125L27.534388 158.09375Q28.159388 158.0 28.487513 157.60938Q28.815638 157.20312 28.815638 156.46875Q28.815638 155.75 28.534388 155.40625Q28.237513 155.04688 27.831263 155.04688Q27.471888 155.04688 27.268763 155.35938Q27.128138 155.57812 26.909388 156.4375Q26.612513 157.59375 26.409388 158.04688Q26.190638 158.48438 25.815638 158.71875Q25.440638 158.95312 24.971888 158.95312Q24.565638 158.95312 24.206263 158.76562Q23.846888 158.57812 23.612513 158.25Q23.440638 158.0 23.315638 157.57812Q23.190638 157.15625 23.190638 156.65625Q23.190638 155.9375 23.409388 155.39062Q23.612513 154.82812 23.971888 154.5625Q24.331263 154.29688 24.925013 154.20312L25.065638 155.23438Q24.596888 155.29688 24.331263 155.64062Q24.050013 155.96875 24.050013 156.59375Q24.050013 157.3125 24.300013 157.625Q24.534388 157.9375 24.862513 157.9375Q25.065638 157.9375 25.221888 157.8125Q25.393763 157.67188 25.503138 157.40625Q25.565638 157.25 25.768763 156.46875Q26.081263 155.34375 26.268763 154.90625Q26.456263 154.46875 26.815638 154.21875Q27.175013 153.96875 27.721888 153.96875Q28.253138 153.96875 28.721888 154.28125Q29.175013 154.57812 29.440638 155.15625Q29.690638 155.73438 29.690638 156.46875Q29.690638 157.6875 29.190638 158.32812Q28.675013 158.95312 27.690638 159.125ZM27.550013 148.45312L27.675013 147.35938Q28.628138 147.60938 29.159388 148.3125Q29.690638 149.01562 29.690638 150.09375Q29.690638 151.45312 28.846888 152.26562Q28.003138 153.0625 26.487513 153.0625Q24.925013 153.0625 24.065638 152.25Q23.190638 151.4375 23.190638 150.15625Q23.190638 148.90625 24.034388 148.125Q24.878138 147.32812 26.425013 147.32812Q26.518763 147.32812 26.706263 147.32812L26.706263 151.96875Q27.737513 151.90625 28.284388 151.39062Q28.815638 150.875 28.815638 150.09375Q28.815638 149.51562 28.518763 149.10938Q28.206263 148.6875 27.550013 148.45312ZM25.846888 151.90625L25.846888 148.4375Q25.050013 148.5 24.659388 148.82812Q24.050013 149.34375 24.050013 150.14062Q24.050013 150.875 24.534388 151.375Q25.018763 151.85938 25.846888 151.90625ZM27.268763 141.64062L27.409388 140.60938Q28.471888 140.78125 29.081263 141.48438Q29.690638 142.1875 29.690638 143.20312Q29.690638 144.48438 28.862513 145.26562Q28.018763 146.03125 26.456263 146.03125Q25.456263 146.03125 24.706263 145.70312Q23.940638 145.35938 23.565638 144.6875Q23.190638 144.0 23.190638 143.1875Q23.190638 142.1875 23.706263 141.54688Q24.206263 140.89062 25.159388 140.70312L25.315638 141.73438Q24.690638 141.875 24.378138 142.25Q24.050013 142.625 24.050013 143.15625Q24.050013 143.95312 24.628138 144.45312Q25.190638 144.95312 26.425013 144.95312Q27.690638 144.95312 28.253138 144.46875Q28.815638 143.98438 28.815638 143.21875Q28.815638 142.59375 28.440638 142.1875Q28.065638 141.76562 27.268763 141.64062ZM26.440638 140.09375Q24.706263 140.09375 23.878138 139.14062Q23.190638 138.34375 23.190638 137.1875Q23.190638 135.90625 24.034388 135.09375Q24.862513 134.26562 26.346888 134.26562Q27.550013 134.26562 28.237513 134.625Q28.925013 134.98438 29.315638 135.6875Q29.690638 136.375 29.690638 137.1875Q29.690638 138.48438 28.862513 139.29688Q28.018763 140.09375 26.440638 140.09375ZM26.440638 139.01562Q27.628138 139.01562 28.221888 138.5Q28.815638 137.96875 28.815638 137.1875Q28.815638 136.39062 28.221888 135.875Q27.628138 135.35938 26.409388 135.35938Q25.253138 135.35938 24.659388 135.89062Q24.065638 136.40625 24.065638 137.1875Q24.065638 137.96875 24.659388 138.5Q25.237513 139.01562 26.440638 139.01562ZM29.550013 132.70312L23.331263 132.70312L23.331263 131.76562L24.206263 131.76562Q23.190638 131.07812 23.190638 129.78125Q23.190638 129.21875 23.393763 128.75Q23.596888 128.26562 23.925013 128.03125Q24.253138 127.796875 24.690638 127.703125Q24.987513 127.65625 25.721888 127.65625L29.550013 127.65625L29.550013 128.70312L25.768763 128.70312Q25.112513 128.70312 24.800013 128.82812Q24.487513 128.95312 24.300013 129.26562Q24.096888 129.57812 24.096888 130.0Q24.096888 130.67188 24.534388 131.17188Q24.956263 131.65625 26.143763 131.65625L29.550013 131.65625L29.550013 132.70312ZM29.550013 121.671875L28.768763 121.671875Q29.690638 122.265625 29.690638 123.40625Q29.690638 124.15625 29.284388 124.78125Q28.862513 125.40625 28.128138 125.75Q27.393763 126.09375 26.440638 126.09375Q25.518763 126.09375 24.753138 125.78125Q23.987513 125.46875 23.596888 124.84375Q23.190638 124.21875 23.190638 123.453125Q23.190638 122.890625 23.425013 122.453125Q23.659388 122.015625 24.034388 121.734375L20.956263 121.734375L20.956263 120.6875L29.550013 120.6875L29.550013 121.671875ZM26.440638 125.0Q27.643763 125.0 28.237513 124.5Q28.815638 124.0 28.815638 123.3125Q28.815638 122.625 28.253138 122.140625Q27.690638 121.65625 26.534388 121.65625Q25.253138 121.65625 24.659388 122.15625Q24.065638 122.640625 24.065638 123.359375Q24.065638 124.0625 24.643763 124.53125Q25.206263 125.0 26.440638 125.0ZM32.08126 118.015625L32.08126 118.765625Q29.268763 117.015625 26.440638 117.015625Q25.346888 117.015625 24.253138 117.265625Q23.378138 117.46875 22.565638 117.828125Q22.050013 118.0625 20.815638 118.765625L20.815638 118.015625Q22.284388 116.921875 23.768763 116.390625Q25.050013 115.9375 26.440638 115.9375Q28.018763 115.9375 29.503138 116.546875Q30.971888 117.15625 32.08126 118.015625Z" fill-rule="nonzero"/><path fill="#000000" d="M86.05 300.21564Q86.05 298.6844 86.3625 297.7625Q86.675 296.825 87.28438 296.325Q87.90938 295.825 88.84688 295.825Q89.53438 295.825 90.05 296.10626Q90.58125 296.3875 90.925 296.91876Q91.26875 297.4344 91.45625 298.1844Q91.64375 298.9344 91.64375 300.21564Q91.64375 301.73126 91.33125 302.65314Q91.03438 303.575 90.40938 304.09064Q89.8 304.59064 88.84688 304.59064Q87.6125 304.59064 86.89375 303.7Q86.05 302.6375 86.05 300.21564ZM87.12813 300.21564Q87.12813 302.325 87.62813 303.02814Q88.12813 303.73126 88.84688 303.73126Q89.58125 303.73126 90.06563 303.02814Q90.56563 302.325 90.56563 300.21564Q90.56563 298.09064 90.06563 297.40314Q89.58125 296.7 88.83125 296.7Q88.1125 296.7 87.675 297.3094Q87.12813 298.09064 87.12813 300.21564Z" fill-rule="nonzero"/><path fill="#000000" d="M55.01875 266.79962L53.971874 266.79962L53.971874 260.08087Q53.58125 260.44025 52.95625 260.81525Q52.346874 261.17462 51.8625 261.3465L51.8625 260.33087Q52.7375 259.909 53.39375 259.33087Q54.065624 258.73712 54.346874 258.17462L55.01875 258.17462L55.01875 266.79962ZM58.05 262.56525Q58.05 261.034 58.3625 260.11212Q58.675 259.17462 59.284374 258.67462Q59.909374 258.17462 60.846874 258.17462Q61.534374 258.17462 62.05 258.45587Q62.58125 258.73712 62.925 259.26837Q63.26875 259.784 63.45625 260.534Q63.64375 261.284 63.64375 262.56525Q63.64375 264.08087 63.33125 265.00275Q63.034374 265.92462 62.409374 266.44025Q61.8 266.94025 60.846874 266.94025Q59.6125 266.94025 58.89375 266.04962Q58.05 264.98712 58.05 262.56525ZM59.128124 262.56525Q59.128124 264.67462 59.628124 265.37775Q60.128124 266.08087 60.846874 266.08087Q61.58125 266.08087 62.065624 265.37775Q62.565624 264.67462 62.565624 262.56525Q62.565624 260.44025 62.065624 259.75275Q61.58125 259.04962 60.83125 259.04962Q60.1125 259.04962 59.675 259.659Q59.128124 260.44025 59.128124 262.56525ZM65.05 262.56525Q65.05 261.034 65.3625 260.11212Q65.675 259.17462 66.28438 258.67462Q66.90938 258.17462 67.84688 258.17462Q68.53438 258.17462 69.05 258.45587Q69.58125 258.73712 69.925 259.26837Q70.26875 259.784 70.45625 260.534Q70.64375 261.284 70.64375 262.56525Q70.64375 264.08087 70.33125 265.00275Q70.03438 265.92462 69.40938 266.44025Q68.8 266.94025 67.84688 266.94025Q66.6125 266.94025 65.89375 266.04962Q65.05 264.98712 65.05 262.56525ZM66.12813 262.56525Q66.12813 264.67462 66.62813 265.37775Q67.12813 266.08087 67.84688 266.08087Q68.58125 266.08087 69.06563 265.37775Q69.56563 264.67462 69.56563 262.56525Q69.56563 260.44025 69.06563 259.75275Q68.58125 259.04962 67.83125 259.04962Q67.1125 259.04962 66.675 259.659Q66.12813 260.44025 66.12813 262.56525ZM72.05 262.56525Q72.05 261.034 72.3625 260.11212Q72.675 259.17462 73.28438 258.67462Q73.90938 258.17462 74.84688 258.17462Q75.53438 258.17462 76.05 258.45587Q76.58125 258.73712 76.925 259.26837Q77.26875 259.784 77.45625 260.534Q77.64375 261.284 77.64375 262.56525Q77.64375 264.08087 77.33125 265.00275Q77.03438 265.92462 76.40938 266.44025Q75.8 266.94025 74.84688 266.94025Q73.6125 266.94025 72.89375 266.04962Q72.05 264.98712 72.05 262.56525ZM73.12813 262.56525Q73.12813 264.67462 73.62813 265.37775Q74.12813 266.08087 74.84688 266.08087Q75.58125 266.08087 76.06563 265.37775Q76.56563 264.67462 76.56563 262.56525Q76.56563 260.44025 76.06563 259.75275Q75.58125 259.04962 74.83125 259.04962Q74.1125 259.04962 73.675 259.659Q73.12813 260.44025 73.12813 262.56525ZM79.05 262.56525Q79.05 261.034 79.3625 260.11212Q79.675 259.17462 80.28438 258.67462Q80.90938 258.17462 81.84688 258.17462Q82.53438 258.17462 83.05 258.45587Q83.58125 258.73712 83.925 259.26837Q84.26875 259.784 84.45625 260.534Q84.64375 261.284 84.64375 262.56525Q84.64375 264.08087 84.33125 265.00275Q84.03438 265.92462 83.40938 266.44025Q82.8 266.94025 81.84688 266.94025Q80.6125 266.94025 79.89375 266.04962Q79.05 264.98712 79.05 262.56525ZM80.12813 262.56525Q80.12813 264.67462 80.62813 265.37775Q81.12813 266.08087 81.84688 266.08087Q82.58125 266.08087 83.06563 265.37775Q83.56563 264.67462 83.56563 262.56525Q83.56563 260.44025 83.06563 259.75275Q82.58125 259.04962 81.83125 259.04962Q81.1125 259.04962 80.675 259.659Q80.12813 260.44025 80.12813 262.56525ZM86.05 262.56525Q86.05 261.034 86.3625 260.11212Q86.675 259.17462 87.28438 258.67462Q87.90938 258.17462 88.84688 258.17462Q89.53438 258.17462 90.05 258.45587Q90.58125 258.73712 90.925 259.26837Q91.26875 259.784 91.45625 260.534Q91.64375 261.284 91.64375 262.56525Q91.64375 264.08087 91.33125 265.00275Q91.03438 265.92462 90.40938 266.44025Q89.8 266.94025 88.84688 266.94025Q87.6125 266.94025 86.89375 266.04962Q86.05 264.98712 86.05 262.56525ZM87.12813 262.56525Q87.12813 264.67462 87.62813 265.37775Q88.12813 266.08087 88.84688 266.08087Q89.58125 266.08087 90.06563 265.37775Q90.56563 264.67462 90.56563 262.56525Q90.56563 260.44025 90.06563 259.75275Q89.58125 259.04962 88.83125 259.04962Q88.1125 259.04962 87.675 259.659Q87.12813 260.44025 87.12813 262.56525Z" fill-rule="nonzero"/><path fill="#000000" d="M56.596874 228.13365L56.596874 229.14928L50.909374 229.14928Q50.909374 228.77428 51.034374 228.4149Q51.253124 227.83678 51.721874 227.27428Q52.20625 226.71178 53.1125 225.9774Q54.51875 224.82115 55.003124 224.14928Q55.503124 223.4774 55.503124 222.88365Q55.503124 222.25865 55.05 221.83678Q54.596874 221.39928 53.878124 221.39928Q53.1125 221.39928 52.659374 221.8524Q52.20625 222.30553 52.190624 223.11803L51.1125 223.00865Q51.221874 221.7899 51.940624 221.1649Q52.675 220.52428 53.909374 220.52428Q55.14375 220.52428 55.8625 221.21178Q56.58125 221.89928 56.58125 222.9149Q56.58125 223.43053 56.3625 223.93053Q56.159374 224.4149 55.659374 224.9774Q55.175 225.52428 54.05 226.4774Q53.096874 227.27428 52.815624 227.57115Q52.55 227.8524 52.378124 228.13365L56.596874 228.13365ZM58.05 224.9149Q58.05 223.38365 58.3625 222.46178Q58.675 221.52428 59.284374 221.02428Q59.909374 220.52428 60.846874 220.52428Q61.534374 220.52428 62.05 220.80553Q62.58125 221.08678 62.925 221.61803Q63.26875 222.13365 63.45625 222.88365Q63.64375 223.63365 63.64375 224.9149Q63.64375 226.43053 63.33125 227.3524Q63.034374 228.27428 62.409374 228.7899Q61.8 229.2899 60.846874 229.2899Q59.6125 229.2899 58.89375 228.39928Q58.05 227.33678 58.05 224.9149ZM59.128124 224.9149Q59.128124 227.02428 59.628124 227.7274Q60.128124 228.43053 60.846874 228.43053Q61.58125 228.43053 62.065624 227.7274Q62.565624 227.02428 62.565624 224.9149Q62.565624 222.7899 62.065624 222.1024Q61.58125 221.39928 60.83125 221.39928Q60.1125 221.39928 59.675 222.00865Q59.128124 222.7899 59.128124 224.9149ZM65.05 224.9149Q65.05 223.38365 65.3625 222.46178Q65.675 221.52428 66.28438 221.02428Q66.90938 220.52428 67.84688 220.52428Q68.53438 220.52428 69.05 220.80553Q69.58125 221.08678 69.925 221.61803Q70.26875 222.13365 70.45625 222.88365Q70.64375 223.63365 70.64375 224.9149Q70.64375 226.43053 70.33125 227.3524Q70.03438 228.27428 69.40938 228.7899Q68.8 229.2899 67.84688 229.2899Q66.6125 229.2899 65.89375 228.39928Q65.05 227.33678 65.05 224.9149ZM66.12813 224.9149Q66.12813 227.02428 66.62813 227.7274Q67.12813 228.43053 67.84688 228.43053Q68.58125 228.43053 69.06563 227.7274Q69.56563 227.02428 69.56563 224.9149Q69.56563 222.7899 69.06563 222.1024Q68.58125 221.39928 67.83125 221.39928Q67.1125 221.39928 66.675 222.00865Q66.12813 222.7899 66.12813 224.9149ZM72.05 224.9149Q72.05 223.38365 72.3625 222.46178Q72.675 221.52428 73.28438 221.02428Q73.90938 220.52428 74.84688 220.52428Q75.53438 220.52428 76.05 220.80553Q76.58125 221.08678 76.925 221.61803Q77.26875 222.13365 77.45625 222.88365Q77.64375 223.63365 77.64375 224.9149Q77.64375 226.43053 77.33125 227.3524Q77.03438 228.27428 76.40938 228.7899Q75.8 229.2899 74.84688 229.2899Q73.6125 229.2899 72.89375 228.39928Q72.05 227.33678 72.05 224.9149ZM73.12813 224.9149Q73.12813 227.02428 73.62813 227.7274Q74.12813 228.43053 74.84688 228.43053Q75.58125 228.43053 76.06563 227.7274Q76.56563 227.02428 76.56563 224.9149Q76.56563 222.7899 76.06563 222.1024Q75.58125 221.39928 74.83125 221.39928Q74.1125 221.39928 73.675 222.00865Q73.12813 222.7899 73.12813 224.9149ZM79.05 224.9149Q79.05 223.38365 79.3625 222.46178Q79.675 221.52428 80.28438 221.02428Q80.90938 220.52428 81.84688 220.52428Q82.53438 220.52428 83.05 220.80553Q83.58125 221.08678 83.925 221.61803Q84.26875 222.13365 84.45625 222.88365Q84.64375 223.63365 84.64375 224.9149Q84.64375 226.43053 84.33125 227.3524Q84.03438 228.27428 83.40938 228.7899Q82.8 229.2899 81.84688 229.2899Q80.6125 229.2899 79.89375 228.39928Q79.05 227.33678 79.05 224.9149ZM80.12813 224.9149Q80.12813 227.02428 80.62813 227.7274Q81.12813 228.43053 81.84688 228.43053Q82.58125 228.43053 83.06563 227.7274Q83.56563 227.02428 83.56563 224.9149Q83.56563 222.7899 83.06563 222.1024Q82.58125 221.39928 81.83125 221.39928Q81.1125 221.39928 80.675 222.00865Q80.12813 222.7899 80.12813 224.9149ZM86.05 224.9149Q86.05 223.38365 86.3625 222.46178Q86.675 221.52428 87.28438 221.02428Q87.90938 220.52428 88.84688 220.52428Q89.53438 220.52428 90.05 220.80553Q90.58125 221.08678 90.925 221.61803Q91.26875 222.13365 91.45625 222.88365Q91.64375 223.63365 91.64375 224.9149Q91.64375 226.43053 91.33125 227.3524Q91.03438 228.27428 90.40938 228.7899Q89.8 229.2899 88.84688 229.2899Q87.6125 229.2899 86.89375 228.39928Q86.05 227.33678 86.05 224.9149ZM87.12813 224.9149Q87.12813 227.02428 87.62813 227.7274Q88.12813 228.43053 88.84688 228.43053Q89.58125 228.43053 90.06563 227.7274Q90.56563 227.02428 90.56563 224.9149Q90.56563 222.7899 90.06563 222.1024Q89.58125 221.39928 88.83125 221.39928Q88.1125 221.39928 87.675 222.00865Q87.12813 222.7899 87.12813 224.9149Z" fill-rule="nonzero"/><path fill="#000000" d="M51.05 189.23328L52.1125 189.09265Q52.284374 189.98328 52.721874 190.38953Q53.159374 190.78015 53.784374 190.78015Q54.534374 190.78015 55.05 190.26453Q55.565624 189.7489 55.565624 188.98328Q55.565624 188.26453 55.08125 187.79578Q54.6125 187.3114 53.878124 187.3114Q53.58125 187.3114 53.128124 187.4364L53.253124 186.4989Q53.3625 186.51453 53.425 186.51453Q54.096874 186.51453 54.628124 186.17078Q55.175 185.8114 55.175 185.07703Q55.175 184.4989 54.784374 184.1239Q54.39375 183.73328 53.76875 183.73328Q53.159374 183.73328 52.7375 184.1239Q52.33125 184.51453 52.221874 185.28015L51.159374 185.09265Q51.346874 184.04578 52.034374 183.46765Q52.721874 182.8739 53.7375 182.8739Q54.440624 182.8739 55.034374 183.1864Q55.628124 183.48328 55.940624 183.9989Q56.253124 184.51453 56.253124 185.10828Q56.253124 185.65515 55.95625 186.1239Q55.659374 186.57703 55.08125 186.84265Q55.83125 187.01453 56.253124 187.57703Q56.675 188.1239 56.675 188.96765Q56.675 190.09265 55.846874 190.8739Q55.034374 191.65515 53.784374 191.65515Q52.659374 191.65515 51.909374 190.98328Q51.159374 190.29578 51.05 189.23328ZM58.05 187.26453Q58.05 185.73328 58.3625 184.8114Q58.675 183.8739 59.284374 183.3739Q59.909374 182.8739 60.846874 182.8739Q61.534374 182.8739 62.05 183.15515Q62.58125 183.4364 62.925 183.96765Q63.26875 184.48328 63.45625 185.23328Q63.64375 185.98328 63.64375 187.26453Q63.64375 188.78015 63.33125 189.70203Q63.034374 190.6239 62.409374 191.13953Q61.8 191.63953 60.846874 191.63953Q59.6125 191.63953 58.89375 190.7489Q58.05 189.6864 58.05 187.26453ZM59.128124 187.26453Q59.128124 189.3739 59.628124 190.07703Q60.128124 190.78015 60.846874 190.78015Q61.58125 190.78015 62.065624 190.07703Q62.565624 189.3739 62.565624 187.26453Q62.565624 185.13953 62.065624 184.45203Q61.58125 183.7489 60.83125 183.7489Q60.1125 183.7489 59.675 184.35828Q59.128124 185.13953 59.128124 187.26453ZM65.05 187.26453Q65.05 185.73328 65.3625 184.8114Q65.675 183.8739 66.28438 183.3739Q66.90938 182.8739 67.84688 182.8739Q68.53438 182.8739 69.05 183.15515Q69.58125 183.4364 69.925 183.96765Q70.26875 184.48328 70.45625 185.23328Q70.64375 185.98328 70.64375 187.26453Q70.64375 188.78015 70.33125 189.70203Q70.03438 190.6239 69.40938 191.13953Q68.8 191.63953 67.84688 191.63953Q66.6125 191.63953 65.89375 190.7489Q65.05 189.6864 65.05 187.26453ZM66.12813 187.26453Q66.12813 189.3739 66.62813 190.07703Q67.12813 190.78015 67.84688 190.78015Q68.58125 190.78015 69.06563 190.07703Q69.56563 189.3739 69.56563 187.26453Q69.56563 185.13953 69.06563 184.45203Q68.58125 183.7489 67.83125 183.7489Q67.1125 183.7489 66.675 184.35828Q66.12813 185.13953 66.12813 187.26453ZM72.05 187.26453Q72.05 185.73328 72.3625 184.8114Q72.675 183.8739 73.28438 183.3739Q73.90938 182.8739 74.84688 182.8739Q75.53438 182.8739 76.05 183.15515Q76.58125 183.4364 76.925 183.96765Q77.26875 184.48328 77.45625 185.23328Q77.64375 185.98328 77.64375 187.26453Q77.64375 188.78015 77.33125 189.70203Q77.03438 190.6239 76.40938 191.13953Q75.8 191.63953 74.84688 191.63953Q73.6125 191.63953 72.89375 190.7489Q72.05 189.6864 72.05 187.26453ZM73.12813 187.26453Q73.12813 189.3739 73.62813 190.07703Q74.12813 190.78015 74.84688 190.78015Q75.58125 190.78015 76.06563 190.07703Q76.56563 189.3739 76.56563 187.26453Q76.56563 185.13953 76.06563 184.45203Q75.58125 183.7489 74.83125 183.7489Q74.1125 183.7489 73.675 184.35828Q73.12813 185.13953 73.12813 187.26453ZM79.05 187.26453Q79.05 185.73328 79.3625 184.8114Q79.675 183.8739 80.28438 183.3739Q80.90938 182.8739 81.84688 182.8739Q82.53438 182.8739 83.05 183.15515Q83.58125 183.4364 83.925 183.96765Q84.26875 184.48328 84.45625 185.23328Q84.64375 185.98328 84.64375 187.26453Q84.64375 188.78015 84.33125 189.70203Q84.03438 190.6239 83.40938 191.13953Q82.8 191.63953 81.84688 191.63953Q80.6125 191.63953 79.89375 190.7489Q79.05 189.6864 79.05 187.26453ZM80.12813 187.26453Q80.12813 189.3739 80.62813 190.07703Q81.12813 190.78015 81.84688 190.78015Q82.58125 190.78015 83.06563 190.07703Q83.56563 189.3739 83.56563 187.26453Q83.56563 185.13953 83.06563 184.45203Q82.58125 183.7489 81.83125 183.7489Q81.1125 183.7489 80.675 184.35828Q80.12813 185.13953 80.12813 187.26453ZM86.05 187.26453Q86.05 185.73328 86.3625 184.8114Q86.675 183.8739 87.28438 183.3739Q87.90938 182.8739 88.84688 182.8739Q89.53438 182.8739 90.05 183.15515Q90.58125 183.4364 90.925 183.96765Q91.26875 184.48328 91.45625 185.23328Q91.64375 185.98328 91.64375 187.26453Q91.64375 188.78015 91.33125 189.70203Q91.03438 190.6239 90.40938 191.13953Q89.8 191.63953 88.84688 191.63953Q87.6125 191.63953 86.89375 190.7489Q86.05 189.6864 86.05 187.26453ZM87.12813 187.26453Q87.12813 189.3739 87.62813 190.07703Q88.12813 190.78015 88.84688 190.78015Q89.58125 190.78015 90.06563 190.07703Q90.56563 189.3739 90.56563 187.26453Q90.56563 185.13953 90.06563 184.45203Q89.58125 183.7489 88.83125 183.7489Q88.1125 183.7489 87.675 184.35828Q87.12813 185.13953 87.12813 187.26453Z" fill-rule="nonzero"/><path fill="#000000" d="M54.425 153.84854L54.425 151.78604L50.70625 151.78604L50.70625 150.81729L54.628124 145.25479L55.4875 145.25479L55.4875 150.81729L56.64375 150.81729L56.64375 151.78604L55.4875 151.78604L55.4875 153.84854L54.425 153.84854ZM54.425 150.81729L54.425 146.95792L51.7375 150.81729L54.425 150.81729ZM58.05 149.61417Q58.05 148.08292 58.3625 147.16104Q58.675 146.22354 59.284374 145.72354Q59.909374 145.22354 60.846874 145.22354Q61.534374 145.22354 62.05 145.50479Q62.58125 145.78604 62.925 146.31729Q63.26875 146.83292 63.45625 147.58292Q63.64375 148.33292 63.64375 149.61417Q63.64375 151.12979 63.33125 152.05167Q63.034374 152.97354 62.409374 153.48917Q61.8 153.98917 60.846874 153.98917Q59.6125 153.98917 58.89375 153.09854Q58.05 152.03604 58.05 149.61417ZM59.128124 149.61417Q59.128124 151.72354 59.628124 152.42667Q60.128124 153.12979 60.846874 153.12979Q61.58125 153.12979 62.065624 152.42667Q62.565624 151.72354 62.565624 149.61417Q62.565624 147.48917 62.065624 146.80167Q61.58125 146.09854 60.83125 146.09854Q60.1125 146.09854 59.675 146.70792Q59.128124 147.48917 59.128124 149.61417ZM65.05 149.61417Q65.05 148.08292 65.3625 147.16104Q65.675 146.22354 66.28438 145.72354Q66.90938 145.22354 67.84688 145.22354Q68.53438 145.22354 69.05 145.50479Q69.58125 145.78604 69.925 146.31729Q70.26875 146.83292 70.45625 147.58292Q70.64375 148.33292 70.64375 149.61417Q70.64375 151.12979 70.33125 152.05167Q70.03438 152.97354 69.40938 153.48917Q68.8 153.98917 67.84688 153.98917Q66.6125 153.98917 65.89375 153.09854Q65.05 152.03604 65.05 149.61417ZM66.12813 149.61417Q66.12813 151.72354 66.62813 152.42667Q67.12813 153.12979 67.84688 153.12979Q68.58125 153.12979 69.06563 152.42667Q69.56563 151.72354 69.56563 149.61417Q69.56563 147.48917 69.06563 146.80167Q68.58125 146.09854 67.83125 146.09854Q67.1125 146.09854 66.675 146.70792Q66.12813 147.48917 66.12813 149.61417ZM72.05 149.61417Q72.05 148.08292 72.3625 147.16104Q72.675 146.22354 73.28438 145.72354Q73.90938 145.22354 74.84688 145.22354Q75.53438 145.22354 76.05 145.50479Q76.58125 145.78604 76.925 146.31729Q77.26875 146.83292 77.45625 147.58292Q77.64375 148.33292 77.64375 149.61417Q77.64375 151.12979 77.33125 152.05167Q77.03438 152.97354 76.40938 153.48917Q75.8 153.98917 74.84688 153.98917Q73.6125 153.98917 72.89375 153.09854Q72.05 152.03604 72.05 149.61417ZM73.12813 149.61417Q73.12813 151.72354 73.62813 152.42667Q74.12813 153.12979 74.84688 153.12979Q75.58125 153.12979 76.06563 152.42667Q76.56563 151.72354 76.56563 149.61417Q76.56563 147.48917 76.06563 146.80167Q75.58125 146.09854 74.83125 146.09854Q74.1125 146.09854 73.675 146.70792Q73.12813 147.48917 73.12813 149.61417ZM79.05 149.61417Q79.05 148.08292 79.3625 147.16104Q79.675 146.22354 80.28438 145.72354Q80.90938 145.22354 81.84688 145.22354Q82.53438 145.22354 83.05 145.50479Q83.58125 145.78604 83.925 146.31729Q84.26875 146.83292 84.45625 147.58292Q84.64375 148.33292 84.64375 149.61417Q84.64375 151.12979 84.33125 152.05167Q84.03438 152.97354 83.40938 153.48917Q82.8 153.98917 81.84688 153.98917Q80.6125 153.98917 79.89375 153.09854Q79.05 152.03604 79.05 149.61417ZM80.12813 149.61417Q80.12813 151.72354 80.62813 152.42667Q81.12813 153.12979 81.84688 153.12979Q82.58125 153.12979 83.06563 152.42667Q83.56563 151.72354 83.56563 149.61417Q83.56563 147.48917 83.06563 146.80167Q82.58125 146.09854 81.83125 146.09854Q81.1125 146.09854 80.675 146.70792Q80.12813 147.48917 80.12813 149.61417ZM86.05 149.61417Q86.05 148.08292 86.3625 147.16104Q86.675 146.22354 87.28438 145.72354Q87.90938 145.22354 88.84688 145.22354Q89.53438 145.22354 90.05 145.50479Q90.58125 145.78604 90.925 146.31729Q91.26875 146.83292 91.45625 147.58292Q91.64375 148.33292 91.64375 149.61417Q91.64375 151.12979 91.33125 152.05167Q91.03438 152.97354 90.40938 153.48917Q89.8 153.98917 88.84688 153.98917Q87.6125 153.98917 86.89375 153.09854Q86.05 152.03604 86.05 149.61417ZM87.12813 149.61417Q87.12813 151.72354 87.62813 152.42667Q88.12813 153.12979 88.84688 153.12979Q89.58125 153.12979 90.06563 152.42667Q90.56563 151.72354 90.56563 149.61417Q90.56563 147.48917 90.06563 146.80167Q89.58125 146.09854 88.83125 146.09854Q88.1125 146.09854 87.675 146.70792Q87.12813 147.48917 87.12813 149.61417Z" fill-rule="nonzero"/><path fill="#000000" d="M51.05 113.94817L52.159374 113.85442Q52.284374 114.66692 52.721874 115.07317Q53.175 115.47942 53.815624 115.47942Q54.565624 115.47942 55.096874 114.9013Q55.628124 114.32317 55.628124 113.38567Q55.628124 112.47942 55.1125 111.9638Q54.6125 111.43255 53.784374 111.43255Q53.284374 111.43255 52.8625 111.66692Q52.45625 111.9013 52.221874 112.26067L51.2375 112.13567L52.065624 107.72942L56.346874 107.72942L56.346874 108.72942L52.909374 108.72942L52.45625 111.04192Q53.221874 110.49505 54.065624 110.49505Q55.190624 110.49505 55.95625 111.2763Q56.7375 112.05755 56.7375 113.29192Q56.7375 114.44817 56.065624 115.30755Q55.2375 116.3388 53.815624 116.3388Q52.64375 116.3388 51.89375 115.68255Q51.159374 115.0263 51.05 113.94817ZM58.05 111.9638Q58.05 110.43255 58.3625 109.51067Q58.675 108.57317 59.284374 108.07317Q59.909374 107.57317 60.846874 107.57317Q61.534374 107.57317 62.05 107.85442Q62.58125 108.13567 62.925 108.66692Q63.26875 109.18255 63.45625 109.93255Q63.64375 110.68255 63.64375 111.9638Q63.64375 113.47942 63.33125 114.4013Q63.034374 115.32317 62.409374 115.8388Q61.8 116.3388 60.846874 116.3388Q59.6125 116.3388 58.89375 115.44817Q58.05 114.38567 58.05 111.9638ZM59.128124 111.9638Q59.128124 114.07317 59.628124 114.7763Q60.128124 115.47942 60.846874 115.47942Q61.58125 115.47942 62.065624 114.7763Q62.565624 114.07317 62.565624 111.9638Q62.565624 109.8388 62.065624 109.1513Q61.58125 108.44817 60.83125 108.44817Q60.1125 108.44817 59.675 109.05755Q59.128124 109.8388 59.128124 111.9638ZM65.05 111.9638Q65.05 110.43255 65.3625 109.51067Q65.675 108.57317 66.28438 108.07317Q66.90938 107.57317 67.84688 107.57317Q68.53438 107.57317 69.05 107.85442Q69.58125 108.13567 69.925 108.66692Q70.26875 109.18255 70.45625 109.93255Q70.64375 110.68255 70.64375 111.9638Q70.64375 113.47942 70.33125 114.4013Q70.03438 115.32317 69.40938 115.8388Q68.8 116.3388 67.84688 116.3388Q66.6125 116.3388 65.89375 115.44817Q65.05 114.38567 65.05 111.9638ZM66.12813 111.9638Q66.12813 114.07317 66.62813 114.7763Q67.12813 115.47942 67.84688 115.47942Q68.58125 115.47942 69.06563 114.7763Q69.56563 114.07317 69.56563 111.9638Q69.56563 109.8388 69.06563 109.1513Q68.58125 108.44817 67.83125 108.44817Q67.1125 108.44817 66.675 109.05755Q66.12813 109.8388 66.12813 111.9638ZM72.05 111.9638Q72.05 110.43255 72.3625 109.51067Q72.675 108.57317 73.28438 108.07317Q73.90938 107.57317 74.84688 107.57317Q75.53438 107.57317 76.05 107.85442Q76.58125 108.13567 76.925 108.66692Q77.26875 109.18255 77.45625 109.93255Q77.64375 110.68255 77.64375 111.9638Q77.64375 113.47942 77.33125 114.4013Q77.03438 115.32317 76.40938 115.8388Q75.8 116.3388 74.84688 116.3388Q73.6125 116.3388 72.89375 115.44817Q72.05 114.38567 72.05 111.9638ZM73.12813 111.9638Q73.12813 114.07317 73.62813 114.7763Q74.12813 115.47942 74.84688 115.47942Q75.58125 115.47942 76.06563 114.7763Q76.56563 114.07317 76.56563 111.9638Q76.56563 109.8388 76.06563 109.1513Q75.58125 108.44817 74.83125 108.44817Q74.1125 108.44817 73.675 109.05755Q73.12813 109.8388 73.12813 111.9638ZM79.05 111.9638Q79.05 110.43255 79.3625 109.51067Q79.675 108.57317 80.28438 108.07317Q80.90938 107.57317 81.84688 107.57317Q82.53438 107.57317 83.05 107.85442Q83.58125 108.13567 83.925 108.66692Q84.26875 109.18255 84.45625 109.93255Q84.64375 110.68255 84.64375 111.9638Q84.64375 113.47942 84.33125 114.4013Q84.03438 115.32317 83.40938 115.8388Q82.8 116.3388 81.84688 116.3388Q80.6125 116.3388 79.89375 115.44817Q79.05 114.38567 79.05 111.9638ZM80.12813 111.9638Q80.12813 114.07317 80.62813 114.7763Q81.12813 115.47942 81.84688 115.47942Q82.58125 115.47942 83.06563 114.7763Q83.56563 114.07317 83.56563 111.9638Q83.56563 109.8388 83.06563 109.1513Q82.58125 108.44817 81.83125 108.44817Q81.1125 108.44817 80.675 109.05755Q80.12813 109.8388 80.12813 111.9638ZM86.05 111.9638Q86.05 110.43255 86.3625 109.51067Q86.675 108.57317 87.28438 108.07317Q87.90938 107.57317 88.84688 107.57317Q89.53438 107.57317 90.05 107.85442Q90.58125 108.13567 90.925 108.66692Q91.26875 109.18255 91.45625 109.93255Q91.64375 110.68255 91.64375 111.9638Q91.64375 113.47942 91.33125 114.4013Q91.03438 115.32317 90.40938 115.8388Q89.8 116.3388 88.84688 116.3388Q87.6125 116.3388 86.89375 115.44817Q86.05 114.38567 86.05 111.9638ZM87.12813 111.9638Q87.12813 114.07317 87.62813 114.7763Q88.12813 115.47942 88.84688 115.47942Q89.58125 115.47942 90.06563 114.7763Q90.56563 114.07317 90.56563 111.9638Q90.56563 109.8388 90.06563 109.1513Q89.58125 108.44817 88.83125 108.44817Q88.1125 108.44817 87.675 109.05755Q87.12813 109.8388 87.12813 111.9638Z" fill-rule="nonzero"/><path fill="#000000" d="M56.51875 72.06343L55.471874 72.141556Q55.33125 71.516556 55.08125 71.235306Q54.64375 70.78218 54.01875 70.78218Q53.51875 70.78218 53.128124 71.06343Q52.64375 71.43843 52.346874 72.141556Q52.065624 72.829056 52.05 74.110306Q52.425 73.53218 52.971874 73.25093Q53.534374 72.96968 54.14375 72.96968Q55.190624 72.96968 55.925 73.75093Q56.675 74.53218 56.675 75.75093Q56.675 76.56343 56.315624 77.266556Q55.971874 77.954056 55.3625 78.329056Q54.753124 78.68843 53.9875 78.68843Q52.659374 78.68843 51.83125 77.71968Q51.003124 76.75093 51.003124 74.53218Q51.003124 72.03218 51.925 70.90718Q52.721874 69.922806 54.08125 69.922806Q55.096874 69.922806 55.7375 70.50093Q56.39375 71.06343 56.51875 72.06343ZM52.221874 75.766556Q52.221874 76.31343 52.440624 76.81343Q52.675 77.297806 53.08125 77.56343Q53.503124 77.829056 53.971874 77.829056Q54.628124 77.829056 55.1125 77.297806Q55.596874 76.75093 55.596874 75.829056Q55.596874 74.93843 55.1125 74.422806Q54.64375 73.90718 53.925 73.90718Q53.20625 73.90718 52.70625 74.422806Q52.221874 74.93843 52.221874 75.766556ZM58.05 74.31343Q58.05 72.78218 58.3625 71.860306Q58.675 70.922806 59.284374 70.422806Q59.909374 69.922806 60.846874 69.922806Q61.534374 69.922806 62.05 70.204056Q62.58125 70.485306 62.925 71.016556Q63.26875 71.53218 63.45625 72.28218Q63.64375 73.03218 63.64375 74.31343Q63.64375 75.829056 63.33125 76.75093Q63.034374 77.672806 62.409374 78.18843Q61.8 78.68843 60.846874 78.68843Q59.6125 78.68843 58.89375 77.797806Q58.05 76.735306 58.05 74.31343ZM59.128124 74.31343Q59.128124 76.422806 59.628124 77.12593Q60.128124 77.829056 60.846874 77.829056Q61.58125 77.829056 62.065624 77.12593Q62.565624 76.422806 62.565624 74.31343Q62.565624 72.18843 62.065624 71.50093Q61.58125 70.797806 60.83125 70.797806Q60.1125 70.797806 59.675 71.40718Q59.128124 72.18843 59.128124 74.31343ZM65.05 74.31343Q65.05 72.78218 65.3625 71.860306Q65.675 70.922806 66.28438 70.422806Q66.90938 69.922806 67.84688 69.922806Q68.53438 69.922806 69.05 70.204056Q69.58125 70.485306 69.925 71.016556Q70.26875 71.53218 70.45625 72.28218Q70.64375 73.03218 70.64375 74.31343Q70.64375 75.829056 70.33125 76.75093Q70.03438 77.672806 69.40938 78.18843Q68.8 78.68843 67.84688 78.68843Q66.6125 78.68843 65.89375 77.797806Q65.05 76.735306 65.05 74.31343ZM66.12813 74.31343Q66.12813 76.422806 66.62813 77.12593Q67.12813 77.829056 67.84688 77.829056Q68.58125 77.829056 69.06563 77.12593Q69.56563 76.422806 69.56563 74.31343Q69.56563 72.18843 69.06563 71.50093Q68.58125 70.797806 67.83125 70.797806Q67.1125 70.797806 66.675 71.40718Q66.12813 72.18843 66.12813 74.31343ZM72.05 74.31343Q72.05 72.78218 72.3625 71.860306Q72.675 70.922806 73.28438 70.422806Q73.90938 69.922806 74.84688 69.922806Q75.53438 69.922806 76.05 70.204056Q76.58125 70.485306 76.925 71.016556Q77.26875 71.53218 77.45625 72.28218Q77.64375 73.03218 77.64375 74.31343Q77.64375 75.829056 77.33125 76.75093Q77.03438 77.672806 76.40938 78.18843Q75.8 78.68843 74.84688 78.68843Q73.6125 78.68843 72.89375 77.797806Q72.05 76.735306 72.05 74.31343ZM73.12813 74.31343Q73.12813 76.422806 73.62813 77.12593Q74.12813 77.829056 74.84688 77.829056Q75.58125 77.829056 76.06563 77.12593Q76.56563 76.422806 76.56563 74.31343Q76.56563 72.18843 76.06563 71.50093Q75.58125 70.797806 74.83125 70.797806Q74.1125 70.797806 73.675 71.40718Q73.12813 72.18843 73.12813 74.31343ZM79.05 74.31343Q79.05 72.78218 79.3625 71.860306Q79.675 70.922806 80.28438 70.422806Q80.90938 69.922806 81.84688 69.922806Q82.53438 69.922806 83.05 70.204056Q83.58125 70.485306 83.925 71.016556Q84.26875 71.53218 84.45625 72.28218Q84.64375 73.03218 84.64375 74.31343Q84.64375 75.829056 84.33125 76.75093Q84.03438 77.672806 83.40938 78.18843Q82.8 78.68843 81.84688 78.68843Q80.6125 78.68843 79.89375 77.797806Q79.05 76.735306 79.05 74.31343ZM80.12813 74.31343Q80.12813 76.422806 80.62813 77.12593Q81.12813 77.829056 81.84688 77.829056Q82.58125 77.829056 83.06563 77.12593Q83.56563 76.422806 83.56563 74.31343Q83.56563 72.18843 83.06563 71.50093Q82.58125 70.797806 81.83125 70.797806Q81.1125 70.797806 80.675 71.40718Q80.12813 72.18843 80.12813 74.31343ZM86.05 74.31343Q86.05 72.78218 86.3625 71.860306Q86.675 70.922806 87.28438 70.422806Q87.90938 69.922806 88.84688 69.922806Q89.53438 69.922806 90.05 70.204056Q90.58125 70.485306 90.925 71.016556Q91.26875 71.53218 91.45625 72.28218Q91.64375 73.03218 91.64375 74.31343Q91.64375 75.829056 91.33125 76.75093Q91.03438 77.672806 90.40938 78.18843Q89.8 78.68843 88.84688 78.68843Q87.6125 78.68843 86.89375 77.797806Q86.05 76.735306 86.05 74.31343ZM87.12813 74.31343Q87.12813 76.422806 87.62813 77.12593Q88.12813 77.829056 88.84688 77.829056Q89.58125 77.829056 90.06563 77.12593Q90.56563 76.422806 90.56563 74.31343Q90.56563 72.18843 90.06563 71.50093Q89.58125 70.797806 88.83125 70.797806Q88.1125 70.797806 87.675 71.40718Q87.12813 72.18843 87.12813 74.31343Z" fill-rule="nonzero"/><path fill="#000000" d="M51.1125 33.42869L51.1125 32.413067L56.675 32.413067L56.675 33.24119Q55.8625 34.11619 55.05 35.569317Q54.253124 37.006817 53.815624 38.538067Q53.4875 39.61619 53.409374 40.89744L52.315624 40.89744Q52.33125 39.881817 52.70625 38.444317Q53.096874 37.006817 53.8 35.67869Q54.51875 34.350567 55.33125 33.42869L51.1125 33.42869ZM58.05 36.663067Q58.05 35.131817 58.3625 34.20994Q58.675 33.27244 59.284374 32.77244Q59.909374 32.27244 60.846874 32.27244Q61.534374 32.27244 62.05 32.55369Q62.58125 32.83494 62.925 33.36619Q63.26875 33.881817 63.45625 34.631817Q63.64375 35.381817 63.64375 36.663067Q63.64375 38.17869 63.33125 39.100567Q63.034374 40.02244 62.409374 40.538067Q61.8 41.038067 60.846874 41.038067Q59.6125 41.038067 58.89375 40.14744Q58.05 39.08494 58.05 36.663067ZM59.128124 36.663067Q59.128124 38.77244 59.628124 39.475567Q60.128124 40.17869 60.846874 40.17869Q61.58125 40.17869 62.065624 39.475567Q62.565624 38.77244 62.565624 36.663067Q62.565624 34.538067 62.065624 33.850567Q61.58125 33.14744 60.83125 33.14744Q60.1125 33.14744 59.675 33.756817Q59.128124 34.538067 59.128124 36.663067ZM65.05 36.663067Q65.05 35.131817 65.3625 34.20994Q65.675 33.27244 66.28438 32.77244Q66.90938 32.27244 67.84688 32.27244Q68.53438 32.27244 69.05 32.55369Q69.58125 32.83494 69.925 33.36619Q70.26875 33.881817 70.45625 34.631817Q70.64375 35.381817 70.64375 36.663067Q70.64375 38.17869 70.33125 39.100567Q70.03438 40.02244 69.40938 40.538067Q68.8 41.038067 67.84688 41.038067Q66.6125 41.038067 65.89375 40.14744Q65.05 39.08494 65.05 36.663067ZM66.12813 36.663067Q66.12813 38.77244 66.62813 39.475567Q67.12813 40.17869 67.84688 40.17869Q68.58125 40.17869 69.06563 39.475567Q69.56563 38.77244 69.56563 36.663067Q69.56563 34.538067 69.06563 33.850567Q68.58125 33.14744 67.83125 33.14744Q67.1125 33.14744 66.675 33.756817Q66.12813 34.538067 66.12813 36.663067ZM72.05 36.663067Q72.05 35.131817 72.3625 34.20994Q72.675 33.27244 73.28438 32.77244Q73.90938 32.27244 74.84688 32.27244Q75.53438 32.27244 76.05 32.55369Q76.58125 32.83494 76.925 33.36619Q77.26875 33.881817 77.45625 34.631817Q77.64375 35.381817 77.64375 36.663067Q77.64375 38.17869 77.33125 39.100567Q77.03438 40.02244 76.40938 40.538067Q75.8 41.038067 74.84688 41.038067Q73.6125 41.038067 72.89375 40.14744Q72.05 39.08494 72.05 36.663067ZM73.12813 36.663067Q73.12813 38.77244 73.62813 39.475567Q74.12813 40.17869 74.84688 40.17869Q75.58125 40.17869 76.06563 39.475567Q76.56563 38.77244 76.56563 36.663067Q76.56563 34.538067 76.06563 33.850567Q75.58125 33.14744 74.83125 33.14744Q74.1125 33.14744 73.675 33.756817Q73.12813 34.538067 73.12813 36.663067ZM79.05 36.663067Q79.05 35.131817 79.3625 34.20994Q79.675 33.27244 80.28438 32.77244Q80.90938 32.27244 81.84688 32.27244Q82.53438 32.27244 83.05 32.55369Q83.58125 32.83494 83.925 33.36619Q84.26875 33.881817 84.45625 34.631817Q84.64375 35.381817 84.64375 36.663067Q84.64375 38.17869 84.33125 39.100567Q84.03438 40.02244 83.40938 40.538067Q82.8 41.038067 81.84688 41.038067Q80.6125 41.038067 79.89375 40.14744Q79.05 39.08494 79.05 36.663067ZM80.12813 36.663067Q80.12813 38.77244 80.62813 39.475567Q81.12813 40.17869 81.84688 40.17869Q82.58125 40.17869 83.06563 39.475567Q83.56563 38.77244 83.56563 36.663067Q83.56563 34.538067 83.06563 33.850567Q82.58125 33.14744 81.83125 33.14744Q81.1125 33.14744 80.675 33.756817Q80.12813 34.538067 80.12813 36.663067ZM86.05 36.663067Q86.05 35.131817 86.3625 34.20994Q86.675 33.27244 87.28438 32.77244Q87.90938 32.27244 88.84688 32.27244Q89.53438 32.27244 90.05 32.55369Q90.58125 32.83494 90.925 33.36619Q91.26875 33.881817 91.45625 34.631817Q91.64375 35.381817 91.64375 36.663067Q91.64375 38.17869 91.33125 39.100567Q91.03438 40.02244 90.40938 40.538067Q89.8 41.038067 88.84688 41.038067Q87.6125 41.038067 86.89375 40.14744Q86.05 39.08494 86.05 36.663067ZM87.12813 36.663067Q87.12813 38.77244 87.62813 39.475567Q88.12813 40.17869 88.84688 40.17869Q89.58125 40.17869 90.06563 39.475567Q90.56563 38.77244 90.56563 36.663067Q90.56563 34.538067 90.06563 33.850567Q89.58125 33.14744 88.83125 33.14744Q88.1125 33.14744 87.675 33.756817Q87.12813 34.538067 87.12813 36.663067Z" fill-rule="nonzero"/><path fill="#000000" d="M156.47664 313.21564Q156.47664 311.6844 156.78914 310.7625Q157.10164 309.825 157.71101 309.325Q158.33601 308.825 159.27351 308.825Q159.96101 308.825 160.47664 309.10626Q161.00789 309.3875 161.35164 309.91876Q161.69539 310.4344 161.88289 311.1844Q162.07039 311.9344 162.07039 313.21564Q162.07039 314.73126 161.75789 315.65314Q161.46101 316.575 160.83601 317.09064Q160.22664 317.59064 159.27351 317.59064Q158.03914 317.59064 157.32039 316.7Q156.47664 315.6375 156.47664 313.21564ZM157.55476 313.21564Q157.55476 315.325 158.05476 316.02814Q158.55476 316.73126 159.27351 316.73126Q160.00789 316.73126 160.49226 316.02814Q160.99226 315.325 160.99226 313.21564Q160.99226 311.09064 160.49226 310.40314Q160.00789 309.7 159.25789 309.7Q158.53914 309.7 158.10164 310.3094Q157.55476 311.09064 157.55476 313.21564Z" fill-rule="nonzero"/><path fill="#000000" d="M243.70706 317.45L242.66019 317.45L242.66019 310.73126Q242.26956 311.09064 241.64456 311.46564Q241.03519 311.825 240.55081 311.9969L240.55081 310.98126Q241.42581 310.5594 242.08206 309.98126Q242.75394 309.3875 243.03519 308.825L243.70706 308.825L243.70706 317.45ZM246.73831 313.21564Q246.73831 311.6844 247.05081 310.7625Q247.36331 309.825 247.97269 309.325Q248.59769 308.825 249.53519 308.825Q250.22269 308.825 250.73831 309.10626Q251.26956 309.3875 251.61331 309.91876Q251.95706 310.4344 252.14456 311.1844Q252.33206 311.9344 252.33206 313.21564Q252.33206 314.73126 252.01956 315.65314Q251.72269 316.575 251.09769 317.09064Q250.48831 317.59064 249.53519 317.59064Q248.30081 317.59064 247.58206 316.7Q246.73831 315.6375 246.73831 313.21564ZM247.81644 313.21564Q247.81644 315.325 248.31644 316.02814Q248.81644 316.73126 249.53519 316.73126Q250.26956 316.73126 250.75394 316.02814Q251.25394 315.325 251.25394 313.21564Q251.25394 311.09064 250.75394 310.40314Q250.26956 309.7 249.51956 309.7Q248.80081 309.7 248.36331 310.3094Q247.81644 311.09064 247.81644 313.21564ZM253.73831 313.21564Q253.73831 311.6844 254.05081 310.7625Q254.36331 309.825 254.97269 309.325Q255.59769 308.825 256.5352 308.825Q257.2227 308.825 257.7383 309.10626Q258.26956 309.3875 258.6133 309.91876Q258.95706 310.4344 259.14456 311.1844Q259.33206 311.9344 259.33206 313.21564Q259.33206 314.73126 259.01956 315.65314Q258.7227 316.575 258.0977 317.09064Q257.4883 317.59064 256.5352 317.59064Q255.30081 317.59064 254.58206 316.7Q253.73831 315.6375 253.73831 313.21564ZM254.81644 313.21564Q254.81644 315.325 255.31644 316.02814Q255.81644 316.73126 256.5352 316.73126Q257.26956 316.73126 257.75394 316.02814Q258.25394 315.325 258.25394 313.21564Q258.25394 311.09064 257.75394 310.40314Q257.26956 309.7 256.51956 309.7Q255.80081 309.7 255.36331 310.3094Q254.81644 311.09064 254.81644 313.21564Z" fill-rule="nonzero"/><path fill="#000000" d="M330.46875 317.45L329.42188 317.45L329.42188 310.73126Q329.03125 311.09064 328.40625 311.46564Q327.79688 311.825 327.3125 311.9969L327.3125 310.98126Q328.1875 310.5594 328.84375 309.98126Q329.51562 309.3875 329.79688 308.825L330.46875 308.825L330.46875 317.45ZM333.5 313.21564Q333.5 311.6844 333.8125 310.7625Q334.125 309.825 334.73438 309.325Q335.35938 308.825 336.29688 308.825Q336.98438 308.825 337.5 309.10626Q338.03125 309.3875 338.375 309.91876Q338.71875 310.4344 338.90625 311.1844Q339.09375 311.9344 339.09375 313.21564Q339.09375 314.73126 338.78125 315.65314Q338.48438 316.575 337.85938 317.09064Q337.25 317.59064 336.29688 317.59064Q335.0625 317.59064 334.34375 316.7Q333.5 315.6375 333.5 313.21564ZM334.57812 313.21564Q334.57812 315.325 335.07812 316.02814Q335.57812 316.73126 336.29688 316.73126Q337.03125 316.73126 337.51562 316.02814Q338.01562 315.325 338.01562 313.21564Q338.01562 311.09064 337.51562 310.40314Q337.03125 309.7 336.28125 309.7Q335.5625 309.7 335.125 310.3094Q334.57812 311.09064 334.57812 313.21564ZM340.5 313.21564Q340.5 311.6844 340.8125 310.7625Q341.125 309.825 341.73438 309.325Q342.35938 308.825 343.29688 308.825Q343.98438 308.825 344.5 309.10626Q345.03125 309.3875 345.375 309.91876Q345.71875 310.4344 345.90625 311.1844Q346.09375 311.9344 346.09375 313.21564Q346.09375 314.73126 345.78125 315.65314Q345.48438 316.575 344.85938 317.09064Q344.25 317.59064 343.29688 317.59064Q342.0625 317.59064 341.34375 316.7Q340.5 315.6375 340.5 313.21564ZM341.57812 313.21564Q341.57812 315.325 342.07812 316.02814Q342.57812 316.73126 343.29688 316.73126Q344.03125 316.73126 344.51562 316.02814Q345.01562 315.325 345.01562 313.21564Q345.01562 311.09064 344.51562 310.40314Q344.03125 309.7 343.28125 309.7Q342.5625 309.7 342.125 310.3094Q341.57812 311.09064 341.57812 313.21564ZM347.5 313.21564Q347.5 311.6844 347.8125 310.7625Q348.125 309.825 348.73438 309.325Q349.35938 308.825 350.29688 308.825Q350.98438 308.825 351.5 309.10626Q352.03125 309.3875 352.375 309.91876Q352.71875 310.4344 352.90625 311.1844Q353.09375 311.9344 353.09375 313.21564Q353.09375 314.73126 352.78125 315.65314Q352.48438 316.575 351.85938 317.09064Q351.25 317.59064 350.29688 317.59064Q349.0625 317.59064 348.34375 316.7Q347.5 315.6375 347.5 313.21564ZM348.57812 313.21564Q348.57812 315.325 349.07812 316.02814Q349.57812 316.73126 350.29688 316.73126Q351.03125 316.73126 351.51562 316.02814Q352.01562 315.325 352.01562 313.21564Q352.01562 311.09064 351.51562 310.40314Q351.03125 309.7 350.28125 309.7Q349.5625 309.7 349.125 310.3094Q348.57812 311.09064 348.57812 313.21564Z" fill-rule="nonzero"/><path fill="#000000" d="M417.23044 317.45L416.18356 317.45L416.18356 310.73126Q415.79294 311.09064 415.16794 311.46564Q414.55856 311.825 414.0742 311.9969L414.0742 310.98126Q414.9492 310.5594 415.60544 309.98126Q416.2773 309.3875 416.55856 308.825L417.23044 308.825L417.23044 317.45ZM420.2617 313.21564Q420.2617 311.6844 420.5742 310.7625Q420.8867 309.825 421.49606 309.325Q422.12106 308.825 423.05856 308.825Q423.74606 308.825 424.2617 309.10626Q424.79294 309.3875 425.1367 309.91876Q425.48044 310.4344 425.66794 311.1844Q425.85544 311.9344 425.85544 313.21564Q425.85544 314.73126 425.54294 315.65314Q425.24606 316.575 424.62106 317.09064Q424.0117 317.59064 423.05856 317.59064Q421.8242 317.59064 421.10544 316.7Q420.2617 315.6375 420.2617 313.21564ZM421.3398 313.21564Q421.3398 315.325 421.8398 316.02814Q422.3398 316.73126 423.05856 316.73126Q423.79294 316.73126 424.2773 316.02814Q424.7773 315.325 424.7773 313.21564Q424.7773 311.09064 424.2773 310.40314Q423.79294 309.7 423.04294 309.7Q422.3242 309.7 421.8867 310.3094Q421.3398 311.09064 421.3398 313.21564ZM427.2617 313.21564Q427.2617 311.6844 427.5742 310.7625Q427.8867 309.825 428.49606 309.325Q429.12106 308.825 430.05856 308.825Q430.74606 308.825 431.2617 309.10626Q431.79294 309.3875 432.1367 309.91876Q432.48044 310.4344 432.66794 311.1844Q432.85544 311.9344 432.85544 313.21564Q432.85544 314.73126 432.54294 315.65314Q432.24606 316.575 431.62106 317.09064Q431.0117 317.59064 430.05856 317.59064Q428.8242 317.59064 428.10544 316.7Q427.2617 315.6375 427.2617 313.21564ZM428.3398 313.21564Q428.3398 315.325 428.8398 316.02814Q429.3398 316.73126 430.05856 316.73126Q430.79294 316.73126 431.2773 316.02814Q431.7773 315.325 431.7773 313.21564Q431.7773 311.09064 431.2773 310.40314Q430.79294 309.7 430.04294 309.7Q429.3242 309.7 428.8867 310.3094Q428.3398 311.09064 428.3398 313.21564ZM434.2617 313.21564Q434.2617 311.6844 434.5742 310.7625Q434.8867 309.825 435.49606 309.325Q436.12106 308.825 437.05856 308.825Q437.74606 308.825 438.2617 309.10626Q438.79294 309.3875 439.1367 309.91876Q439.48044 310.4344 439.66794 311.1844Q439.85544 311.9344 439.85544 313.21564Q439.85544 314.73126 439.54294 315.65314Q439.24606 316.575 438.62106 317.09064Q438.0117 317.59064 437.05856 317.59064Q435.8242 317.59064 435.10544 316.7Q434.2617 315.6375 434.2617 313.21564ZM435.3398 313.21564Q435.3398 315.325 435.8398 316.02814Q436.3398 316.73126 437.05856 316.73126Q437.79294 316.73126 438.2773 316.02814Q438.7773 315.325 438.7773 313.21564Q438.7773 311.09064 438.2773 310.40314Q437.79294 309.7 437.04294 309.7Q436.3242 309.7 435.8867 310.3094Q435.3398 311.09064 435.3398 313.21564ZM441.2617 313.21564Q441.2617 311.6844 441.5742 310.7625Q441.8867 309.825 442.49606 309.325Q443.12106 308.825 444.05856 308.825Q444.74606 308.825 445.2617 309.10626Q445.79294 309.3875 446.1367 309.91876Q446.48044 310.4344 446.66794 311.1844Q446.85544 311.9344 446.85544 313.21564Q446.85544 314.73126 446.54294 315.65314Q446.24606 316.575 445.62106 317.09064Q445.0117 317.59064 444.05856 317.59064Q442.8242 317.59064 442.10544 316.7Q441.2617 315.6375 441.2617 313.21564ZM442.3398 313.21564Q442.3398 315.325 442.8398 316.02814Q443.3398 316.73126 444.05856 316.73126Q444.79294 316.73126 445.2773 316.02814Q445.7773 315.325 445.7773 313.21564Q445.7773 311.09064 445.2773 310.40314Q444.79294 309.7 444.04294 309.7Q443.3242 309.7 442.8867 310.3094Q442.3398 311.09064 442.3398 313.21564Z" fill-rule="nonzero"/><path fill="#000000" d="M496.94525 317.45L496.94525 308.85626L498.1015 308.85626L502.61713 315.60626L502.61713 308.85626L503.71088 308.85626L503.71088 317.45L502.539 317.45L498.02338 310.7L498.02338 317.45L496.94525 317.45ZM505.42963 314.34064Q505.42963 312.60626 506.38275 311.77814Q507.17963 311.09064 508.33588 311.09064Q509.61713 311.09064 510.42963 311.9344Q511.25775 312.7625 511.25775 314.2469Q511.25775 315.45 510.89838 316.1375Q510.539 316.825 509.83588 317.21564Q509.14838 317.59064 508.33588 317.59064Q507.039 317.59064 506.2265 316.7625Q505.42963 315.91876 505.42963 314.34064ZM506.50775 314.34064Q506.50775 315.52814 507.02338 316.1219Q507.55463 316.71564 508.33588 316.71564Q509.13275 316.71564 509.64838 316.1219Q510.164 315.52814 510.164 314.3094Q510.164 313.15314 509.63275 312.5594Q509.11713 311.96564 508.33588 311.96564Q507.55463 311.96564 507.02338 312.5594Q506.50775 313.1375 506.50775 314.34064ZM515.82025 310.075L515.82025 308.85626L516.88275 308.85626L516.88275 310.075L515.82025 310.075ZM515.82025 317.45L515.82025 311.23126L516.88275 311.23126L516.88275 317.45L515.82025 317.45ZM518.82025 317.45L518.82025 311.23126L519.75775 311.23126L519.75775 312.10626Q520.44525 311.09064 521.7421 311.09064Q522.3046 311.09064 522.7734 311.29376Q523.25775 311.4969 523.4921 311.825Q523.7265 312.15314 523.82025 312.59064Q523.8671 312.8875 523.8671 313.6219L523.8671 317.45L522.82025 317.45L522.82025 313.66876Q522.82025 313.0125 522.69525 312.7Q522.57025 312.3875 522.25775 312.2Q521.94525 311.9969 521.5234 311.9969Q520.8515 311.9969 520.3515 312.4344Q519.8671 312.85626 519.8671 314.04376L519.8671 317.45L518.82025 317.45ZM529.8515 317.45L529.8515 316.66876Q529.25775 317.59064 528.1171 317.59064Q527.3671 317.59064 526.7421 317.1844Q526.1171 316.7625 525.7734 316.02814Q525.4296 315.29376 525.4296 314.34064Q525.4296 313.41876 525.7421 312.65314Q526.0546 311.8875 526.6796 311.4969Q527.3046 311.09064 528.07025 311.09064Q528.63275 311.09064 529.07025 311.325Q529.50775 311.5594 529.789 311.9344L529.789 308.85626L530.8359 308.85626L530.8359 317.45L529.8515 317.45ZM526.5234 314.34064Q526.5234 315.54376 527.0234 316.1375Q527.5234 316.71564 528.2109 316.71564Q528.8984 316.71564 529.38275 316.15314Q529.8671 315.59064 529.8671 314.4344Q529.8671 313.15314 529.3671 312.5594Q528.88275 311.96564 528.164 311.96564Q527.4609 311.96564 526.9921 312.54376Q526.5234 313.10626 526.5234 314.34064ZM537.07025 315.45L538.164 315.575Q537.914 316.52814 537.2109 317.0594Q536.50775 317.59064 535.4296 317.59064Q534.07025 317.59064 533.25775 316.7469Q532.4609 315.90314 532.4609 314.3875Q532.4609 312.825 533.2734 311.96564Q534.0859 311.09064 535.3671 311.09064Q536.6171 311.09064 537.3984 311.9344Q538.19525 312.77814 538.19525 314.325Q538.19525 314.41876 538.19525 314.60626L533.5546 314.60626Q533.6171 315.6375 534.13275 316.1844Q534.6484 316.71564 535.4296 316.71564Q536.00775 316.71564 536.414 316.41876Q536.8359 316.10626 537.07025 315.45ZM533.6171 313.7469L537.0859 313.7469Q537.0234 312.95 536.69525 312.5594Q536.1796 311.95 535.38275 311.95Q534.6484 311.95 534.1484 312.4344Q533.664 312.91876 533.6171 313.7469ZM539.1171 317.45L541.38275 314.21564L539.289 311.23126L540.6015 311.23126L541.5546 312.6844Q541.82025 313.10626 541.9921 313.3875Q542.2421 312.9969 542.4609 312.7L543.50775 311.23126L544.7734 311.23126L542.6171 314.15314L544.9296 317.45L543.6484 317.45L542.3671 315.5125L542.0234 314.9969L540.38275 317.45L539.1171 317.45Z" fill-rule="nonzero"/></svg>